<?xml version="1.0" encoding="UTF-8" standalone="no"?>
<!-- Created with Inkscape (http://www.inkscape.org/) -->

<svg
   xmlns:dc="http://purl.org/dc/elements/1.1/"
   xmlns:cc="http://creativecommons.org/ns#"
   xmlns:rdf="http://www.w3.org/1999/02/22-rdf-syntax-ns#"
   xmlns:svg="http://www.w3.org/2000/svg"
   xmlns="http://www.w3.org/2000/svg"
   xmlns:sodipodi="http://sodipodi.sourceforge.net/DTD/sodipodi-0.dtd"
   xmlns:inkscape="http://www.inkscape.org/namespaces/inkscape"
   version="1.1"
   id="svg46"
   width="113.38583"
   height="113.38583"
   viewBox="0 0 113.38583 113.38583"
   sodipodi:docname="10_1.svg"
   inkscape:version="0.92.4 (5da689c313, 2019-01-14)">
  <metadata
     id="metadata52">
    <rdf:RDF>
      <cc:Work
         rdf:about="">
        <dc:format>image/svg+xml</dc:format>
        <dc:type
           rdf:resource="http://purl.org/dc/dcmitype/StillImage" />
        <dc:title></dc:title>
      </cc:Work>
    </rdf:RDF>
  </metadata>
  <defs
     id="defs50" />
  <sodipodi:namedview
     pagecolor="#ffffff"
     bordercolor="#666666"
     borderopacity="1"
     objecttolerance="10"
     gridtolerance="10"
     guidetolerance="10"
     inkscape:pageopacity="0"
     inkscape:pageshadow="2"
     inkscape:window-width="1366"
     inkscape:window-height="715"
     id="namedview48"
     showgrid="false"
     inkscape:zoom="1.9496253"
     inkscape:cx="1.8918366"
     inkscape:cy="1.8920375"
     inkscape:window-x="-8"
     inkscape:window-y="-8"
     inkscape:window-maximized="1"
     inkscape:current-layer="svg46" />
  <g
     id="g56"
     transform="matrix(29.96981,0,0,29.966706,0.01341027,0.00891889)">
    <path
       style="fill:#fccb8f;stroke-width:0.00960096"
       d="M 1.6225623,3.7679543 C 1.1148801,3.7121275 0.60573015,3.3896093 0.30459226,2.9330933 0.09834121,2.620423 -1.0911357e-4,2.2838439 -1.0911357e-4,1.8913891 -1.0911357e-4,1.4989344 0.09834121,1.1623553 0.30459226,0.84968497 0.41442985,0.6831745 0.57985514,0.50314587 0.72487249,0.39230342 0.93455224,0.23203697 1.1823688,0.11136931 1.4335274,0.04724284 c 0.2369142,-0.06048956 0.6788093,-0.06048956 0.9157235,0 0.4649118,0.1187025 0.8659426,0.40375349 1.1289351,0.80244213 0.2062511,0.31267033 0.3047014,0.64924943 0.3047014,1.04170413 0,0.3924548 -0.09845,0.7290339 -0.3047014,1.0417042 C 3.3683484,3.0996038 3.2029231,3.2796324 3.0579058,3.3904749 2.848226,3.5507413 2.6004095,3.671409 2.3492509,3.7355354 2.1768092,3.7795637 1.8576274,3.793803 1.6225623,3.7679543 Z M 2.179418,3.5570856 C 2.2750405,3.5364454 2.4429308,3.4679595 2.5373535,3.4110765 2.6950296,3.3160874 2.8736194,3.1461662 2.9509179,3.017586 2.9983897,2.9386201 3.0473105,2.831646 3.0949331,2.7026703 L 3.1339284,2.5970597 3.1325139,2.4094843 C 3.1311192,2.2245378 3.1305542,2.2197211 3.0921983,2.0657982 3.0708028,1.9799373 3.0489337,1.9015339 3.0436004,1.8915685 3.0269464,1.8604495 3.0331694,1.8213355 3.0634874,1.7665767 3.0962804,1.7073487 3.1005494,1.6765087 3.0809094,1.6407273 3.0735394,1.6272973 3.0199814,1.5715383 2.961896,1.5168193 2.90381,1.4621003 2.854762,1.4135723 2.8529,1.4089795 2.85104,1.4043895 2.85596,1.3933185 2.863843,1.3843825 2.884024,1.3614995 2.930424,1.2586046 2.9664185,1.1569152 2.9911795,1.0869612 2.9979875,1.0503954 3.0021725,0.964896 3.0066625,0.873081 3.0046225,0.85128236 2.9864925,0.79801865 2.9305826,0.63372186 2.863914,0.54391874 2.7314732,0.45450675 2.6508712,0.40009166 2.6226916,0.38689907 2.5702705,0.37903805 c -0.056173,-0.008424 -0.2468381,0.003568 -0.2468381,0.0155252 0,0.004772 0.055346,0.008677 0.122992,0.008677 0.1083375,0 0.1302628,0.002849 0.1840138,0.0239143 0.2145431,0.0840788 0.3490701,0.27957055 0.3502249,0.50893899 3.648e-4,0.0724702 -0.00478,0.10267026 -0.031866,0.18721866 -0.064608,0.20164 -0.099992,0.2688269 -0.1415773,0.2688269 -0.034627,0 -0.1477538,-0.099769 -0.1477538,-0.1303083 0,-0.012294 0.00568,-0.025808 0.01262,-0.030031 0.00694,-0.00422 0.020117,-0.0336 0.02928,-0.065283 C 2.710526,1.1348338 2.726732,1.0865498 2.737373,1.0592184 2.755781,1.0119374 2.755962,1.0072924 2.741093,0.9635097 2.732343,0.93774683 2.726524,0.89473033 2.727866,0.86577463 2.729716,0.82576453 2.726636,0.81202703 2.71425,0.80509483 2.685566,0.78904253 2.648405,0.71481213 2.6553,0.68734009 2.66218,0.65991289 2.6579,0.65748729 2.629464,0.67270639 2.601402,0.68772449 2.556493,0.67432639 2.5167679,0.63908499 l -0.034925,-0.0309825 -0.1049608,0.008581 c -0.1510508,0.0123498 -0.1494646,0.0131445 -0.1494646,-0.0748894 0,-0.0726169 0.017535,-0.12895326 0.040138,-0.12895326 0.00621,0 0.00405,-0.007511 -0.00507,-0.0175821 -0.01282,-0.0141664 -0.014713,-0.029046 -0.00974,-0.0765928 0.00523,-0.0500438 0.00371,-0.059953 -0.00999,-0.0652122 -0.022801,-0.008749 -0.028376,6.0208e-4 -0.015123,0.0253658 0.00818,0.0152937 0.00854,0.0274396 0.00127,0.0433917 -0.00555,0.0121842 -0.017639,0.0820878 -0.02686,0.15534132 l -0.016766,0.13318829 0.022034,0.0542881 c 0.012119,0.0298585 0.02881,0.0598584 0.037093,0.0666665 0.013288,0.010923 0.014335,0.008722 0.0089,-0.0187197 -0.00831,-0.0419781 3.083e-4,-0.060111 0.028581,-0.060111 0.012984,0 0.03106,-0.003989 0.040171,-0.008865 0.019066,-0.0102038 0.081811,5.63e-4 0.171527,0.0294334 0.048184,0.0155056 0.068411,0.0288405 0.1045616,0.068935 0.093527,0.10372951 0.094924,0.10757073 0.094924,0.26097786 0,0.1339005 -3.869e-4,0.1363692 -0.026793,0.1709893 -0.047757,0.062613 -0.052776,0.062134 -0.1425539,-0.013627 -0.044153,-0.037259 -0.09469,-0.07409 -0.1123045,-0.081846 -0.046424,-0.020441 -0.08601,-0.00472 -0.118752,0.047149 -0.014281,0.022626 -0.03672,0.051241 -0.049865,0.06359 -0.023853,0.022409 -0.024026,0.022423 -0.089246,0.00698 C 2.1176147,1.1880672 2.0258626,1.176642 1.9496617,1.1711893 1.7777829,1.1588903 1.7005445,1.1680333 1.5313531,1.2207063 1.4627063,1.2420776 1.3914192,1.2639365 1.3729373,1.2692819 1.2642266,1.3007233 1.0587747,1.445245 0.94743925,1.5685913 0.78937721,1.7437052 0.73711489,1.8284564 0.6862188,1.9921992 0.6466815,2.1193985 0.6415357,2.1568284 0.6367663,2.3519119 c -0.005092,0.2082975 0.008449,0.3048644 0.0603893,0.4306486 0.0894853,0.2167074 0.16498861,0.3295348 0.3053655,0.456319 0.1447675,0.1307498 0.2422057,0.1889766 0.451787,0.269978 0.1664749,0.064341 0.2194334,0.071811 0.4754849,0.067064 0.1158826,-0.00215 0.2026455,-0.00869 0.249625,-0.018836 z M 1.7089709,3.523409 C 1.5378374,3.5066337 1.3325787,3.4248887 1.1713171,3.3092867 1.0230926,3.2030304 0.8468403,2.9903368 0.7724244,2.8279204 0.67463862,2.614498 0.64648008,2.3368405 0.70130153,2.1266127 0.77291091,1.852007 0.96467183,1.5821453 1.20012,1.4246343 1.25861,1.3855053 1.3842514,1.3227764 1.4545455,1.2976073 c 0.088865,-0.031819 0.350425,-0.078297 0.4400801,-0.078201 0.048874,4.8e-5 0.1307698,0.010801 0.2175856,0.028557 0.076568,0.01566 0.1456946,0.028548 0.1536154,0.028638 0.00803,9.6e-5 0.02927,-0.02783 0.048005,-0.063105 0.04079,-0.076799 0.055993,-0.086856 0.098323,-0.06504 0.068183,0.03514 0.5604557,0.4617444 0.596762,0.5171547 0.021181,0.032327 0.019642,0.040708 -0.018463,0.1005204 -0.018347,0.028798 -0.033358,0.060252 -0.033358,0.069896 0,0.00964 0.011442,0.044409 0.025426,0.077253 0.076363,0.1793461 0.099478,0.290598 0.099178,0.4773395 C 3.0811935,2.706601 2.9585512,2.9821316 2.7173388,3.2091987 2.554175,3.3627943 2.3466489,3.465894 2.0947818,3.5184874 2.0206463,3.5339679 1.8401731,3.5362702 1.7089709,3.523409 Z M 1.5377121,1.8995873 C 1.6158612,1.882636 1.734519,1.8082927 1.8337834,1.7140882 1.877767,1.6723466 1.9353841,1.5587016 1.9461273,1.4924991 c 0.00635,-0.03912 -0.016887,-0.088559 -0.068112,-0.1449202 -0.036639,-0.040314 -0.043511,-0.043739 -0.097037,-0.048368 -0.1305477,-0.011291 -0.3660227,0.076294 -0.473731,0.1762038 -0.056393,0.052309 -0.061491,0.06061 -0.078587,0.1279456 -0.01826,0.071921 -0.018258,0.072097 0.00237,0.1474189 0.018798,0.068632 0.024119,0.077598 0.05919,0.099738 0.1066732,0.06734 0.1362387,0.073202 0.2474894,0.049071 z M 1.6492594,1.0095745 c 0.098957,-0.0566487 0.1365192,-0.0798019 0.1365192,-0.0841509 0,-0.004775 -0.1188022,0.0559943 -0.1558267,0.0797074 -0.019887,0.012737 -0.028902,0.014101 -0.037351,0.00565 -0.010649,-0.010649 0.00581,-0.0445883 0.092299,-0.19031164 L 1.7022386,0.79125613 1.6180111,0.68125664 C 1.571686,0.6207569 1.5239359,0.56045605 1.5118999,0.54725473 c -0.012036,-0.0132013 -0.023421,-0.0326433 -0.0253,-0.0432043 -0.00228,-0.0128158 -0.012352,-0.0202298 -0.030284,-0.0222927 l -0.026868,-0.003091 0.021158,0.0414946 c 0.011637,0.022822 0.051847,0.0865797 0.089356,0.14168359 0.1094828,0.16083891 0.1049079,0.14874542 0.07706,0.20370082 -0.039567,0.0780824 -0.06049,0.18095876 -0.036803,0.18095876 0.00249,0 0.033559,-0.016619 0.069041,-0.03693 z M 2.043082,1.0344195 C 2.048602,1.0277695 2.059906,0.9930383 2.06821,0.9572318 2.085431,0.8829756 2.10731,0.83542346 2.124459,0.83497799 2.142666,0.83450505 2.101128,0.80648049 2.08222,0.80648049 c -0.018001,0 -0.022642,0.0106941 -0.032729,0.0754229 -0.00358,0.0230008 -0.014816,0.0501183 -0.024959,0.0602612 -0.018188,0.0181882 -0.01901,0.0181083 -0.059834,-0.005816 -0.025872,-0.015162 -0.055476,-0.0240972 -0.078953,-0.02383 l -0.03756,4.2763e-4 0.022217,0.0163741 c 0.012219,0.009006 0.048943,0.0388362 0.081608,0.0662898 0.062992,0.052942 0.075071,0.0580894 0.091072,0.0388094 z M 2.3078308,0.89483113 c 0.00965,-0.0156112 -0.0096,-0.0281249 -0.051605,-0.0335454 -0.023762,-0.003067 -0.054005,-0.008382 -0.067207,-0.0118118 -0.020781,-0.005399 -0.019731,-0.003369 0.00783,0.0151304 0.026381,0.0177072 0.063926,0.0316163 0.099614,0.0369031 0.00365,5.4053e-4 0.00876,-0.002464 0.011368,-0.006676 z M 1.7517393,0.50645065 c 0.016937,-0.0148504 0.032013,-0.047109 0.048236,-0.10321032 0.035474,-0.1226729 0.066531,-0.19638725 0.084175,-0.19978502 0.023301,-0.004487 0.045921,0.037369 0.070626,0.13068907 0.012158,0.0459236 0.022311,0.085025 0.022563,0.0868922 2.525e-4,0.001867 0.015071,-0.009435 0.032931,-0.0251162 0.01786,-0.0156811 0.058969,-0.044866 0.091355,-0.0648554 0.032385,-0.0199894 0.056987,-0.0382403 0.054669,-0.0405576 -0.00232,-0.002317 -0.038908,0.0138367 -0.081312,0.0358978 -0.079667,0.0414473 -0.096733,0.0426095 -0.097822,0.006662 -3.505e-4,-0.0115696 -0.014392,-0.0491184 -0.031203,-0.0834418 -0.022755,-0.0464592 -0.036221,-0.0632079 -0.052696,-0.0655435 -0.035383,-0.005016 -0.04829,0.014048 -0.079368,0.11722001 -0.045353,0.15056438 -0.057058,0.17839571 -0.081867,0.19465092 -0.023313,0.0152751 -0.030646,0.0321004 -0.01399,0.0321004 0.00499,0 0.020152,-0.009721 0.033703,-0.0216026 z"
       id="path70"
       inkscape:connector-curvature="0" />
    <path
       style="fill:#fcba7b;stroke-width:0.00960096"
       d="M 1.6354092,3.767729 C 1.4473817,3.7449372 1.2502607,3.6864456 1.0705071,3.6001059 0.95361109,3.5439582 0.81514656,3.4580529 0.76327633,3.4094959 0.74215422,3.3897231 0.70543055,3.3612532 0.68166817,3.3462297 0.6255736,3.3107645 0.46149907,3.1445658 0.39207933,3.0528917 0.08167984,2.6429854 -0.04629983,2.1670648 0.01437963,1.6483318 0.06829682,1.1874077 0.30572829,0.74781583 0.66200885,0.4492804 1.0808376,0.09833446 1.5833439,-0.05008632 2.1344465,0.01437963 2.614489,0.07053322 3.0667071,0.32441183 3.3750513,0.71086441 3.6915508,1.1075382 3.8299365,1.6083761 3.7683987,2.1344465 3.7144815,2.5953706 3.47705,3.0349625 3.1207694,3.3334979 2.7004874,3.6856616 2.1898646,3.8349374 1.6354092,3.767729 Z M 2.2123651,3.5573734 C 2.2913908,3.5394963 2.437139,3.4787789 2.5273632,3.4261481 2.7567986,3.2923107 2.947015,3.0836773 3.0381679,2.8658866 3.1269918,2.6536602 3.1157302,2.6649057 3.2070893,2.6972085 c 0.033464,0.011832 0.05373,0.0149 0.056011,0.00848 0.00197,-0.00553 -0.018491,-0.056001 -0.04546,-0.1121498 C 3.1637101,2.4812548 3.139514,2.386122 3.139514,2.2863674 3.139514,2.2492804 3.129584,2.1830832 3.116201,2.1309795 3.103379,2.0810525 3.085353,1.9921864 3.076144,1.9334981 L 3.0594,1.8267922 3.089856,1.7728272 C 3.122302,1.7153352 3.128854,1.6624201 3.10797,1.6265162 3.089323,1.5944572 2.9129088,1.4305428 2.897052,1.4305428 c -0.00793,0 -0.019859,-0.00656 -0.026515,-0.014582 -0.00984,-0.011857 -0.00932,-0.017687 0.00279,-0.031203 0.00819,-0.00914 0.026409,-0.042544 0.04049,-0.074227 C 2.9954562,1.1268323 3.0264912,0.9758268 3.007637,0.85401876 2.9931036,0.76012548 2.9163658,0.60427734 2.8544509,0.542911 2.8104832,0.49933277 2.6785092,0.4000439 2.6301574,0.37416682 c -0.024754,-0.0132481 -0.2511665,-0.007033 -0.3177512,0.008722 -0.050828,0.0120269 -0.05953,0.002802 -0.051619,-0.0547213 0.00719,-0.0522454 5.423e-4,-0.0881436 -0.016312,-0.0881436 -0.012338,0 -0.2001118,0.0936573 -0.2133928,0.10643578 -0.022969,0.0221 -0.039569,0.006997 -0.061558,-0.0560088 C 1.9570894,0.2548194 1.9384474,0.2137753 1.9280984,0.1992418 1.9049394,0.1667187 1.8695034,0.1645745 1.8483974,0.1944198 c -0.01442,0.020391 -0.048964,0.12379 -0.072675,0.21753872 -0.015493,0.0612535 -0.054582,0.0968176 -0.1068183,0.0971847 -0.047711,3.3527e-4 -0.034176,0.0130276 0.023248,0.0218005 0.051429,0.007857 0.08763,-0.0246761 0.1077937,-0.0968708 0.029096,-0.10417762 0.074632,-0.22285137 0.08551,-0.22285137 0.006,0 0.016806,0.009434 0.024006,0.0209634 0.015965,0.0255636 0.049133,0.13901486 0.049133,0.16805844 0,0.0303617 0.017417,0.0366876 0.041515,0.0150787 0.01149,-0.0103034 0.060846,-0.0457853 0.1096797,-0.0788487 0.091789,-0.0621473 0.1270847,-0.0705095 0.1128024,-0.0267253 -0.010616,0.0325449 -0.042142,0.23747788 -0.042692,0.27751521 -2.66e-4,0.0193642 0.00779,0.0545175 0.01791,0.0781184 0.023278,0.0543056 0.067815,0.12529747 0.074446,0.11866659 0.00277,-0.002775 1.882e-4,-0.0276944 -0.00575,-0.0553769 -0.012683,-0.0591396 -0.00411,-0.0752242 0.03145,-0.0590209 0.015617,0.007116 0.02514,0.0216306 0.029524,0.0450019 0.00356,0.0189742 0.019211,0.0657597 0.034781,0.10396773 0.01557,0.0382081 0.028537,0.0867509 0.028815,0.10787304 4.1e-4,0.0311047 0.00695,0.0165064 0.034401,-0.0768077 0.018642,-0.0633663 0.040701,-0.12277227 0.04902,-0.1320132 0.020707,-0.0230025 0.059406,-0.0210732 0.096294,0.0048 0.042436,0.0297654 0.1060492,0.11830043 0.1149286,0.15995332 0.00928,0.0435368 0.0091,0.20833192 -2.679e-4,0.24311092 -0.00776,0.0288 -0.060574,0.093785 -0.076224,0.093785 -0.00541,0 -0.025897,-0.014041 -0.045518,-0.031203 -0.019621,-0.017162 -0.068807,-0.058943 -0.109302,-0.092848 -0.071784,-0.060102 -0.07347,-0.062505 -0.067343,-0.0960096 0.00627,-0.0342838 0.00624,-0.0343228 -0.013794,-0.016509 -0.022997,0.0204513 -0.057093,0.0188049 -0.1530641,-0.007391 -0.033011,-0.00901 -0.063771,-0.0140634 -0.068357,-0.011229 -0.00459,0.002834 -0.016407,0.0333287 -0.02627,0.0677652 -0.00986,0.034436 -0.021225,0.062612 -0.025252,0.062612 -0.00403,0 -0.00732,0.00778 -0.00732,0.017282 0,0.023312 -0.018542,0.040324 -0.043952,0.040324 -0.027929,0 -0.090461,-0.026636 -0.090461,-0.038533 0,-0.00521 -0.00648,-0.00947 -0.014401,-0.00947 -0.00792,0 -0.014401,-0.00432 -0.014401,-0.0096 0,-0.00528 -0.00588,-0.0096 -0.013057,-0.0096 -0.00718,0 -0.021168,-0.010801 -0.031082,-0.024002 -0.019965,-0.026586 -0.056362,-0.031967 -0.064944,-0.0096 -0.00304,0.00792 -0.011103,0.014401 -0.01792,0.014401 -0.00682,0 -0.01779,0.00864 -0.024385,0.019202 -0.0066,0.010561 -0.018436,0.019202 -0.026312,0.019202 -0.013577,0 -0.018951,0.012321 -0.014657,0.033603 0.00107,0.00528 -0.00105,0.00661 -0.00471,0.00295 -0.00366,-0.00366 -0.028859,0.00224 -0.056006,0.013095 -0.1561659,0.062467 -0.2295697,0.087295 -0.2915616,0.098619 -0.086364,0.015776 -0.2398605,0.097355 -0.2810612,0.1493745 -0.015085,0.019047 -0.043936,0.042975 -0.064113,0.053175 -0.0455151,0.023008 -0.099091,0.070941 -0.099091,0.088654 0,0.016484 -0.14517271,0.1946372 -0.1718161,0.2108494 -0.0269468,0.016397 -0.0874098,0.1507021 -0.0874098,0.1941615 0,0.019415 -0.009082,0.067412 -0.0201814,0.1066587 -0.0166322,0.058808 -0.0210462,0.1074795 -0.0250985,0.2767489 -0.007344,0.3067789 0.003793,0.357 0.14138293,0.6375084 0.0627832,0.1279981 0.0862609,0.1665556 0.11390276,0.1870631 0.0191503,0.014208 0.0695091,0.056327 0.11190831,0.093598 0.1130578,0.099384 0.1925034,0.1530939 0.3038261,0.2054053 0.1359222,0.063871 0.2627222,0.1056771 0.3512412,0.1158051 0.1141483,0.01306 0.4743372,0.00395 0.5537156,-0.01401 z M 1.7281728,3.5194619 C 1.5055051,3.4846768 1.3097012,3.4097216 1.1713171,3.3062931 1.0042908,3.1814573 0.849177,2.9954368 0.7724244,2.8279204 0.67463862,2.614498 0.64648008,2.3368405 0.70130153,2.1266127 0.77291091,1.852007 0.96467183,1.5821453 1.20012,1.4246343 1.25861,1.3855053 1.3842514,1.3227764 1.4545455,1.2976073 c 0.088865,-0.031819 0.350425,-0.078297 0.4400801,-0.078201 0.048874,4.8e-5 0.1307698,0.010801 0.2175856,0.028557 0.076568,0.01566 0.1456946,0.028574 0.1536154,0.028696 0.00792,1.229e-4 0.027363,-0.024601 0.043204,-0.054941 0.015842,-0.03034 0.036405,-0.062774 0.045695,-0.072075 0.015396,-0.015414 0.019894,-0.015658 0.050768,-0.00276 0.069021,0.028839 0.5765308,0.4697753 0.6057602,0.5262987 0.013983,0.027039 0.013197,0.030367 -0.019799,0.083824 -0.018898,0.030617 -0.03436,0.064823 -0.03436,0.076013 0,0.01119 0.011176,0.047263 0.024836,0.080161 0.074394,0.1791723 0.099982,0.3026116 0.099964,0.4822384 -2.78e-5,0.2504264 -0.079138,0.462688 -0.2584228,0.6933514 -0.1629437,0.209639 -0.4627482,0.3837815 -0.7304627,0.4242918 -0.1120452,0.016955 -0.2785748,0.019876 -0.3648365,0.0064 z M 1.5377121,1.8995873 C 1.6158612,1.882636 1.734519,1.8082927 1.8337834,1.7140882 1.877767,1.6723466 1.9353841,1.5587016 1.9461273,1.4924991 c 0.00635,-0.03912 -0.016887,-0.088559 -0.068112,-0.1449202 -0.036639,-0.040314 -0.043511,-0.043739 -0.097037,-0.048368 -0.1305477,-0.011291 -0.3660227,0.076294 -0.473731,0.1762038 -0.056393,0.052309 -0.061491,0.06061 -0.078587,0.1279456 -0.01826,0.071921 -0.018258,0.072097 0.00237,0.1474189 0.018798,0.068632 0.024119,0.077598 0.05919,0.099738 0.1066732,0.06734 0.1362387,0.073202 0.2474894,0.049071 z M 2.7321883,1.3381648 c -0.065457,-0.055878 -0.079698,-0.087503 -0.04365,-0.096929 0.013378,-0.0035 0.017785,-0.010406 0.014082,-0.022072 -0.00657,-0.020703 0.02746,-0.1473748 0.048026,-0.1787619 0.00818,-0.012485 0.019478,-0.0227 0.025107,-0.0227 0.00563,0 -3.063e-4,-0.012525 -0.013187,-0.0278331 -0.016077,-0.0191064 -0.025476,-0.0453236 -0.029976,-0.0836174 -0.0056,-0.0476621 -0.00367,-0.0596855 0.013253,-0.082578 l 0.019809,-0.0267936 h -0.023916 c -0.047387,0 -0.090115,-0.0692909 -0.073002,-0.11838316 0.00551,-0.0158097 0.00838,-0.0303898 0.00637,-0.0324001 -0.00201,-0.00201 -0.018856,0.003594 -0.037434,0.0124529 -0.02038,0.009719 -0.043408,0.0136912 -0.058054,0.0100153 -0.034197,-0.008583 -0.083361,-0.0523197 -0.083361,-0.0741586 0,-0.0231374 -0.00545,-0.0230075 -0.035784,8.5347e-4 -0.029365,0.0230984 -0.046016,0.0237983 -0.1033221,0.004342 -0.039504,-0.013412 -0.045215,-0.013412 -0.058627,0 -0.017763,0.0177628 -0.043695,0.019216 -0.059572,0.003338 -0.015704,-0.0157041 -0.014553,-0.10665309 0.00185,-0.14590383 0.018344,-0.0439033 0.053047,-0.0537961 0.1887093,-0.0537961 0.1056653,0 0.1161227,0.001746 0.1652495,0.027588 0.028845,0.0151734 0.075391,0.0352093 0.1034361,0.0445243 0.1101243,0.0365774 0.2309556,0.19932341 0.2636677,0.3551304 0.02316,0.1103125 0.019222,0.18578532 -0.012878,0.24680932 -0.015027,0.028567 -0.030295,0.074354 -0.033929,0.1017496 -0.010801,0.081424 -0.060952,0.1815469 -0.1019177,0.2034708 -0.014611,0.00782 -0.029182,-1.642e-4 -0.080941,-0.044348 z M 1.7021869,0.9888989 c 0.064861,-0.0369637 0.1227898,-0.0672067 0.1287316,-0.0672067 0.00594,0 0.046414,0.0270027 0.089938,0.060006 0.043524,0.0330033 0.085213,0.0643264 0.092642,0.0696069 0.021193,0.015064 0.046203,-0.023659 0.065109,-0.10081004 0.00914,-0.0373006 0.023868,-0.0767704 0.032727,-0.0877107 l 0.016107,-0.0198915 0.062032,0.0281267 c 0.1041852,0.0472398 0.1487607,0.0482664 0.1244634,0.002866 -0.00731,-0.0136597 -0.020097,-0.0194004 -0.043211,-0.0194004 -0.018056,0 -0.062188,-0.0112593 -0.098072,-0.0250206 -0.035884,-0.0137613 -0.075623,-0.0256425 -0.088308,-0.0264026 -0.024582,-0.001473 -0.032096,0.0126715 -0.043732,0.0823178 -0.00328,0.0196322 -0.012342,0.0420729 -0.020137,0.0498681 -0.012497,0.0124969 -0.019759,0.0112752 -0.061401,-0.0103298 -0.04282,-0.0222157 -0.053605,-0.0238625 -0.1155429,-0.0176424 -0.065628,0.006591 -0.1673476,0.0486066 -0.2121246,0.0876189 -0.055388,0.0482573 -0.028759,-0.0291626 0.050541,-0.14693967 0.014862,-0.0220735 0.027022,-0.0450529 0.027022,-0.0510652 0,-0.0126049 -0.1613663,-0.22669521 -0.1912536,-0.25374288 -0.029508,-0.0267044 -0.025193,-0.0437952 0.011236,-0.0445057 0.028231,-5.5061e-4 0.029154,-0.001432 0.00969,-0.009258 -0.029298,-0.0117802 -0.1177015,-0.0229681 -0.1177015,-0.0148956 0,0.0142262 0.035316,0.0730505 0.1216719,0.20266657 l 0.090414,0.13570614 -0.032942,0.0817127 C 1.5524025,1.0128513 1.5457317,1.0561056 1.575174,1.0561056 c 0.005,0 0.062152,-0.030243 0.1270129,-0.0672067 z"
       id="path68"
       inkscape:connector-curvature="0" />
    <path
       style="fill:#c75e90;stroke-width:0.00960096"
       d="M 1.6354092,3.767729 C 1.3804567,3.7368248 1.1122979,3.6406344 0.88808881,3.4996596 0.78994526,3.4379504 0.74887489,3.4023698 0.74887489,3.379054 c 0,-0.00885 0.0216795,-0.045462 0.0481767,-0.081357 0.0264972,-0.035895 0.0570926,-0.07969 0.0679898,-0.097322 0.0108972,-0.017632 0.0249044,-0.032058 0.0311272,-0.032058 0.006223,0 0.0523151,0.035089 0.10242725,0.077976 0.13089896,0.112025 0.19662266,0.1565667 0.30881246,0.2092855 0.230495,0.1083113 0.3548213,0.1315816 0.6559881,0.1227822 0.2015077,-0.00589 0.2779679,-0.020015 0.4074624,-0.075285 0.3141175,-0.1340694 0.5529047,-0.3642074 0.671098,-0.6467901 0.022086,-0.052805 0.044557,-0.1024902 0.049934,-0.110411 0.00538,-0.00792 0.012237,-0.021663 0.015245,-0.030539 0.00806,-0.023779 0.024035,-0.026548 0.066435,-0.011512 0.062679,0.022227 0.1096508,0.031113 0.1153885,0.021829 0.00292,-0.00473 -0.020426,-0.063685 -0.05189,-0.1310053 -0.068808,-0.1472182 -0.097555,-0.240459 -0.097555,-0.316417 0,-0.031142 -0.01072,-0.097438 -0.023822,-0.1473245 -0.016056,-0.06113 -0.023882,-0.1167978 -0.024003,-0.1707439 l -1.8e-4,-0.080042 0.1333094,-0.2367894 c 0.07332,-0.1302342 0.1512807,-0.271353 0.1732456,-0.3135972 0.021965,-0.042244 0.047189,-0.088444 0.056054,-0.102666 0.00886,-0.014222 0.01329,-0.028686 0.00983,-0.032142 -0.00346,-0.00346 -0.050806,0.014125 -0.105222,0.039068 -0.054416,0.024943 -0.1616443,0.068699 -0.238285,0.097234 -0.076641,0.028535 -0.1595896,0.060395 -0.1843309,0.070799 -0.024741,0.010404 -0.049584,0.018916 -0.055206,0.018916 -0.013502,0 -0.013125,-0.03166 5.395e-4,-0.045324 0.00592,-0.00592 0.021242,-0.035945 0.034051,-0.066727 0.0557,-0.1338355 0.077732,-0.205893 0.089773,-0.2935963 C 3.0232051,0.88465131 3.0112957,0.81526432 2.9490693,0.6878638 2.8958645,0.57893388 2.8591544,0.53645923 2.7458746,0.45276169 2.7062706,0.42350004 2.6603758,0.38711118 2.6438862,0.37189755 2.6163994,0.34653779 2.6108078,0.3450218 2.5766795,0.35367646 c -0.020474,0.005192 -0.080807,0.0122837 -0.1340729,0.0157592 -0.053266,0.003476 -0.1122331,0.009789 -0.1310381,0.0140304 -0.050063,0.011291 -0.058653,0.001937 -0.050781,-0.0552984 0.00719,-0.0522454 5.423e-4,-0.0881436 -0.016312,-0.0881436 -0.012338,0 -0.2001118,0.0936573 -0.2133928,0.10643578 -0.022969,0.0221 -0.039569,0.006997 -0.061558,-0.0560088 -0.012435,-0.0356315 -0.031077,-0.0766756 -0.041426,-0.0912091 -0.023159,-0.0325231 -0.058595,-0.0346673 -0.079701,-0.004822 -0.01442,0.020391 -0.048964,0.12379 -0.072675,0.21753872 -0.015493,0.0612535 -0.054582,0.0968176 -0.1068183,0.0971847 -0.047711,3.3527e-4 -0.034176,0.0130276 0.023248,0.0218005 0.051429,0.007857 0.08763,-0.0246761 0.1077937,-0.0968708 0.029096,-0.10417762 0.074632,-0.22285137 0.08551,-0.22285137 0.006,0 0.016806,0.009434 0.024006,0.0209634 0.015965,0.0255636 0.049133,0.13901486 0.049133,0.16805844 0,0.0303617 0.017417,0.0366876 0.041515,0.0150787 0.01149,-0.0103034 0.060846,-0.0457853 0.1096797,-0.0788487 0.091789,-0.0621473 0.1270847,-0.0705095 0.1128024,-0.0267253 -0.010764,0.0329978 -0.042147,0.23774575 -0.042692,0.27852199 -5.367e-4,0.0402384 0.042332,0.14233452 0.075498,0.17980719 l 0.021244,0.0240024 -0.00606,-0.0384038 c -0.00334,-0.0211221 -0.00825,-0.0475392 -0.010923,-0.0587047 -0.0062,-0.0259064 0.02312,-0.0399279 0.032498,-0.0155408 0.028404,0.0738633 0.071873,0.20437572 0.075893,0.22786374 0.00381,0.0222865 -5.597e-4,0.0339634 -0.019328,0.0515956 l -0.024259,0.0227899 -0.075575,-0.0203924 C 2.1432383,0.93277991 2.1351587,0.93377007 2.121499,0.9768977 2.1000098,1.044746 2.0621518,1.1220464 2.0476955,1.1275938 c -0.016565,0.00636 -0.054449,-0.015427 -0.133263,-0.076627 -0.030361,-0.023576 -0.062038,-0.042866 -0.070393,-0.042866 -0.00835,0 -0.054044,0.030801 -0.1015321,0.068447 -0.098469,0.07806 -0.255314,0.1586608 -0.33306,0.1711545 -0.06026,0.00968 -0.06728,0.00516 -0.1260713,-0.081186 C 1.2451204,1.1103287 1.0658272,0.86351846 1.0291237,0.81651923 1.0117113,0.7942225 1.0094881,0.79377502 0.9878088,0.80820335 0.93790693,0.84141475 0.72967297,1.0491589 0.72967297,1.065732 c 0,0.00963 0.024959,0.038411 0.0554645,0.06395 0.11923374,0.099824 0.29977103,0.2676081 0.29977103,0.2785954 0,0.014361 -0.037527,0.041467 -0.057408,0.041467 -0.017983,0 -0.16223953,-0.056208 -0.21935687,-0.085471 -0.0228476,-0.011705 -0.0509305,-0.019944 -0.0624062,-0.018308 -0.0174662,0.00249 -0.003834,0.019472 0.0836851,0.10425 l 0.10455016,0.1012757 -0.0241525,0.03826 c -0.0132838,0.021043 -0.046278,0.062469 -0.0733203,0.092057 l -0.0491679,0.053797 -0.0936361,0.010788 c -0.0514999,0.00593 -0.14980171,0.015306 -0.21844857,0.020827 -0.0686469,0.00552 -0.1285857,0.013785 -0.13319741,0.018362 -0.0105089,0.010431 0.0727058,0.052732 0.20632166,0.1048802 0.12707738,0.049597 0.13649489,0.058834 0.1241162,0.1217499 -0.005107,0.025955 -0.0143207,0.062313 -0.0204757,0.080794 -0.006396,0.019206 -0.0131939,0.1216016 -0.015866,0.2389944 -0.006821,0.2996491 0.005972,0.3610391 0.12642586,0.6067081 l 0.0639517,0.1304309 -0.0424446,0.1143936 c -0.0233445,0.062916 -0.0454792,0.1284349 -0.0491882,0.1455966 -0.004516,0.020894 -0.0123515,0.031203 -0.0237176,0.031203 -0.0233136,0 -0.14578662,-0.1062304 -0.22213578,-0.1926756 C 0.10813078,2.7363842 -0.05268333,2.2216357 0.01437963,1.6483318 0.06829682,1.1874077 0.30572829,0.74781583 0.66200885,0.4492804 1.0808376,0.09833446 1.5833439,-0.05008632 2.1344465,0.01437963 2.614489,0.07053322 3.0667071,0.32441183 3.3750513,0.71086441 3.6915508,1.1075382 3.8299365,1.6083761 3.7683987,2.1344465 3.7144815,2.5953706 3.47705,3.0349625 3.1207694,3.3334979 2.7004874,3.6856616 2.1898646,3.8349374 1.6354092,3.767729 Z M 1.7021872,0.9888989 C 1.7670482,0.9519352 1.824977,0.9216922 1.8309188,0.9216922 c 0.00594,0 0.046414,0.0270027 0.089938,0.060006 0.043524,0.0330033 0.085213,0.0643264 0.092642,0.0696069 0.021193,0.015064 0.046203,-0.023659 0.065109,-0.10081004 0.00914,-0.0373006 0.023868,-0.0767704 0.032727,-0.0877107 l 0.016107,-0.0198915 0.062032,0.0281267 c 0.1041852,0.0472398 0.1487607,0.0482664 0.1244634,0.002866 -0.00753,-0.014064 -0.020193,-0.0194448 -0.046048,-0.0195618 -0.019616,-8.929e-5 -0.071282,-0.0146065 -0.114812,-0.0322614 -0.060463,-0.0245225 -0.081421,-0.0293589 -0.088783,-0.0204883 -0.00725,0.008737 -0.028891,0.0955802 -0.028891,0.11594209 0,0.001542 -0.00655,0.009352 -0.01455,0.0173546 -0.013,0.0129998 -0.019555,0.0119536 -0.061518,-0.009818 -0.042821,-0.0222165 -0.053337,-0.023771 -0.1191143,-0.0176072 -0.062034,0.005813 -0.083353,0.0131869 -0.1521031,0.0526098 -0.055988,0.0321049 -0.080865,0.0419763 -0.082987,0.0329299 -0.00312,-0.0132888 0.029214,-0.0743292 0.076818,-0.14503071 0.014862,-0.0220735 0.027022,-0.0450529 0.027022,-0.0510652 0,-0.0126049 -0.1613663,-0.22669521 -0.1912536,-0.25374288 -0.029508,-0.0267044 -0.025193,-0.0437952 0.011236,-0.0445057 0.028231,-5.5061e-4 0.029154,-0.001432 0.00969,-0.009258 -0.029298,-0.0117802 -0.1177015,-0.0229681 -0.1177015,-0.0148956 0,0.0142262 0.035316,0.0730505 0.1216719,0.20266657 l 0.090414,0.13570614 -0.032942,0.0817127 C 1.5524025,1.0128513 1.5457317,1.0561056 1.575174,1.0561056 c 0.005,0 0.062152,-0.030243 0.1270132,-0.0672067 z M 1.9992633,0.81154837 c 0.00949,-0.0456814 0.040918,-0.0818754 0.071092,-0.0818754 0.012102,0 0.037217,0.007255 0.055812,0.0161222 0.018595,0.008867 0.036181,0.0137493 0.039081,0.0108492 0.0029,-0.0029 -0.00353,-0.0275968 -0.014281,-0.0548814 -0.022734,-0.0576773 -0.02675,-0.18493064 -0.00804,-0.25487188 0.00633,-0.0236684 0.00839,-0.0461499 0.00458,-0.0499588 -0.00381,-0.003809 -0.039174,0.0154942 -0.078589,0.0428957 -0.039415,0.0274016 -0.081164,0.049821 -0.092774,0.049821 -0.029239,0 -0.065526,-0.0367263 -0.065684,-0.0664801 -1.987e-4,-0.0374966 -0.010732,-0.0691127 -0.021798,-0.0654243 -0.00544,0.001812 -0.019628,0.0370622 -0.03154,0.0783341 -0.016646,0.0576773 -0.030182,0.0838152 -0.058502,0.11296609 -0.036493,0.0375634 -0.037459,0.0378987 -0.1010369,0.0350554 -0.035306,-0.001579 -0.066709,-3.5437e-4 -0.069784,0.002721 -0.00308,0.003076 0.024731,0.0434968 0.061792,0.0898249 0.06016,0.0752028 0.067384,0.0887009 0.067384,0.12591071 v 0.0416779 l 0.1032103,0.003168 c 0.056766,0.001742 0.1095023,0.002946 0.1171926,0.002674 0.0084,-2.9648e-4 0.017136,-0.0156748 0.021885,-0.0385283 z M 1.7281728,3.5194619 C 1.5055051,3.4846768 1.3097012,3.4097216 1.1713171,3.3062931 1.0042908,3.1814573 0.849177,2.9954368 0.7724244,2.8279204 0.67463862,2.614498 0.64648008,2.3368405 0.70130153,2.1266127 0.77291091,1.852007 0.96467183,1.5821453 1.20012,1.4246343 1.25861,1.3855053 1.3842514,1.3227764 1.4545455,1.2976073 c 0.088865,-0.031819 0.350425,-0.078297 0.4400801,-0.078201 0.048874,4.8e-5 0.1307698,0.010801 0.2175856,0.028557 0.076568,0.01566 0.1456946,0.028574 0.1536154,0.028696 0.00792,1.229e-4 0.027363,-0.024601 0.043204,-0.054941 0.015842,-0.03034 0.036405,-0.062774 0.045695,-0.072075 0.015396,-0.015414 0.019894,-0.015658 0.050768,-0.00276 0.069021,0.028839 0.5765308,0.4697753 0.6057602,0.5262987 0.013983,0.027039 0.013197,0.030367 -0.019799,0.083824 -0.018898,0.030617 -0.03436,0.064823 -0.03436,0.076013 0,0.01119 0.011176,0.047263 0.024836,0.080161 0.074394,0.1791723 0.099982,0.3026116 0.099964,0.4822384 -2.78e-5,0.2504264 -0.079138,0.462688 -0.2584228,0.6933514 -0.1629437,0.209639 -0.4627482,0.3837815 -0.7304627,0.4242918 -0.1120452,0.016955 -0.2785748,0.019876 -0.3648365,0.0064 z M 1.5377121,1.8995873 C 1.6158612,1.882636 1.734519,1.8082927 1.8337834,1.7140882 1.877767,1.6723466 1.9353841,1.5587016 1.9461273,1.4924991 c 0.00635,-0.03912 -0.016887,-0.088559 -0.068112,-0.1449202 -0.036639,-0.040314 -0.043511,-0.043739 -0.097037,-0.048368 -0.1305477,-0.011291 -0.3660227,0.076294 -0.473731,0.1762038 -0.056393,0.052309 -0.061491,0.06061 -0.078587,0.1279456 -0.01826,0.071921 -0.018258,0.072097 0.00237,0.1474189 0.018798,0.068632 0.024119,0.077598 0.05919,0.099738 0.1066732,0.06734 0.1362387,0.073202 0.2474894,0.049071 z M 2.7317203,1.3377652 c -0.046404,-0.039614 -0.062814,-0.05971 -0.060721,-0.074362 0.00212,-0.014838 0.00966,-0.019987 0.028904,-0.019728 0.024205,3.255e-4 0.024965,-8.324e-4 0.01081,-0.016473 -0.013932,-0.015395 -0.013533,-0.023047 0.0047,-0.090135 0.020623,-0.075867 0.04261,-0.119364 0.060336,-0.119364 0.00563,0 -3.063e-4,-0.012525 -0.013187,-0.0278331 -0.016077,-0.0191064 -0.025476,-0.0453236 -0.029976,-0.0836174 -0.0056,-0.0476621 -0.00367,-0.0596855 0.013253,-0.082578 l 0.019809,-0.0267936 h -0.023916 c -0.047387,0 -0.090115,-0.0692909 -0.073002,-0.11838316 0.00551,-0.0158097 0.00838,-0.0303898 0.00637,-0.0324001 -0.00201,-0.00201 -0.018856,0.003594 -0.037434,0.0124529 -0.02038,0.009719 -0.043408,0.0136912 -0.058054,0.0100153 -0.034197,-0.008583 -0.083361,-0.0523197 -0.083361,-0.0741586 0,-0.0231374 -0.00545,-0.0230075 -0.035784,8.5347e-4 -0.029432,0.0231513 -0.04599,0.023807 -0.1039841,0.004118 -0.040387,-0.0137117 -0.045946,-0.0137117 -0.061098,0 -0.019903,0.0180124 -0.040679,0.019324 -0.05644,0.003563 -0.015704,-0.0157041 -0.014553,-0.10665309 0.00185,-0.14590383 0.018253,-0.0436856 0.053058,-0.0537961 0.1851921,-0.0537961 0.1093812,0 0.1591162,0.0109084 0.1947272,0.0427098 0.00811,0.007246 0.040238,0.0205358 0.071386,0.0295329 0.047311,0.0136659 0.067235,0.0269611 0.1210517,0.0807773 0.078002,0.0780015 0.1281692,0.17312021 0.1488744,0.282268 0.025321,0.13348044 0.016301,0.20896012 -0.032366,0.27083012 -0.012138,0.015431 -0.018415,0.038805 -0.018542,0.069046 -2.89e-4,0.068571 -0.054073,0.1806075 -0.097985,0.2041085 -0.014616,0.00782 -0.029251,-2.227e-4 -0.081408,-0.044748 z M 2.5492931,1.1780038 c -0.026272,-0.022159 -0.066407,-0.059435 -0.089189,-0.082835 -0.035745,-0.036714 -0.040634,-0.046584 -0.03567,-0.072007 0.013111,-0.067142 0.065634,-0.24318719 0.082361,-0.27605297 0.017101,-0.0336019 0.019567,-0.0349291 0.049332,-0.0265472 0.055133,0.0155255 0.119363,0.10824869 0.1333319,0.19247878 0.011198,0.0675232 0.00416,0.20106189 -0.012293,0.23311979 -0.01464,0.028531 -0.057681,0.073264 -0.069902,0.072648 -0.00561,-2.823e-4 -0.0317,-0.018644 -0.057972,-0.040804 z"
       id="path66"
       inkscape:connector-curvature="0" />
    <path
       style="fill:#d6336a;stroke-width:0.00960096"
       d="M 1.6609661,3.7680951 C 1.3698764,3.7317102 1.0932204,3.631691 0.86888689,3.4817351 0.80143298,3.4366454 0.74699458,3.3809991 0.75571023,3.3660471 c 0.00337,-0.00578 0.0240327,-0.034274 0.0459172,-0.063317 0.0218845,-0.029043 0.050291,-0.068977 0.0631257,-0.088743 0.0128347,-0.019766 0.0267973,-0.035967 0.0310281,-0.036004 0.004231,-3.84e-5 0.0431147,0.031277 0.0864086,0.069585 C 1.1385379,3.3859105 1.234755,3.4456414 1.4179417,3.5180807 1.5605949,3.5744914 1.6346181,3.5850051 1.8913891,3.585326 2.1883992,3.5856976 2.2399319,3.5759825 2.4260347,3.4845375 2.5834654,3.4071812 2.6872819,3.3344087 2.806758,3.2176609 2.9172803,3.1096627 2.988347,3.0031837 3.0623671,2.8346835 c 0.033055,-0.075248 0.06542,-0.1368137 0.071921,-0.1368137 0.0065,0 0.036936,0.00864 0.067632,0.019202 0.069131,0.023785 0.091236,0.024367 0.091121,0.0024 C 3.2929932,2.710231 3.2691639,2.653445 3.2400883,2.5932809 3.1791119,2.4671065 3.1534993,2.3740758 3.1454916,2.2496842 3.1423705,2.201202 3.1313613,2.1299148 3.1210266,2.0912684 3.110692,2.0526219 3.099366,1.9922738 3.0958577,1.9571614 L 3.089479,1.8933207 3.2237957,1.6547311 C 3.2976698,1.523507 3.3742055,1.3837384 3.3938748,1.3441344 c 0.019669,-0.039604 0.046092,-0.08576 0.058718,-0.1025697 0.047597,-0.063371 0.020927,-0.066846 -0.095239,-0.012409 -0.045347,0.02125 -0.1550356,0.066179 -0.2437533,0.099842 -0.088718,0.033663 -0.1751813,0.066846 -0.1921414,0.073741 -0.040312,0.016388 -0.048064,0.00685 -0.023016,-0.02833 0.011137,-0.015641 0.020249,-0.033551 0.020249,-0.0398 0,-0.00625 0.01993,-0.061748 0.044289,-0.1233304 C 3.0065424,1.1011509 3.0073541,1.0970827 3.0123453,0.96385681 3.0172522,0.8328822 3.0165352,0.82605715 2.9906604,0.75743613 2.9356821,0.6116316 2.884009,0.54107544 2.7718566,0.45867435 2.6827342,0.39319383 2.640264,0.35322818 2.640264,0.33484173 c 0,-0.0199154 -0.019086,-0.0238864 -0.035572,-0.007401 -0.00932,0.00932 -0.070936,0.0187351 -0.2836603,0.0433453 l -0.055206,0.006387 v -0.0688758 c 0,-0.0526852 -0.00342,-0.0701885 -0.014553,-0.0744603 -0.008,-0.003072 -0.06525,0.0196477 -0.1272128,0.0504872 -0.061963,0.0308395 -0.1165273,0.0561704 -0.1212546,0.0562909 -0.00473,1.2049e-4 -0.014738,-0.0208474 -0.022245,-0.0465953 -0.01562,-0.0535686 -0.054551,-0.11957262 -0.075202,-0.12749696 -0.024767,-0.009504 -0.056941,0.004765 -0.072834,0.032302 -0.00851,0.0147388 -0.027288,0.0721624 -0.041738,0.12760795 -0.029636,0.11372081 -0.045005,0.14865383 -0.071684,0.16293171 -0.025757,0.0137849 -0.088732,0.0123237 -0.1527614,-0.003544 -0.082079,-0.0203413 -0.1550012,-0.0275049 -0.1550012,-0.0152268 0,0.0182601 0.028939,0.0685312 0.1163689,0.20215173 0.046888,0.0716598 0.085251,0.137459 0.085251,0.14622034 0,0.0174332 -0.021003,0.075917 -0.049185,0.13696133 -0.00991,0.0214691 -0.018021,0.0554925 -0.018021,0.0756075 0,0.034974 0.00118,0.036337 0.027004,0.031172 0.014852,-0.00297 0.068729,-0.029491 0.1197268,-0.058935 0.1384922,-0.0799595 0.1358546,-0.0794188 0.1935625,-0.0396739 0.026858,0.0184981 0.063658,0.0489277 0.081776,0.0676212 0.061,0.062936 0.094791,0.037933 0.1215435,-0.0899282 0.018866,-0.0901691 0.026938,-0.0952076 0.096376,-0.0601556 0.031284,0.0157922 0.076142,0.0301855 0.099685,0.0319851 0.03874,0.002961 0.043108,0.001131 0.045996,-0.0192697 0.00187,-0.0132121 -0.00512,-0.0313885 -0.01689,-0.0439166 -0.011044,-0.0117562 -0.01734,-0.0241154 -0.013991,-0.027465 0.00335,-0.00335 -8.219e-4,-0.023364 -0.00927,-0.0444765 -0.00845,-0.0211125 -0.011954,-0.0404909 -0.00779,-0.043063 0.00935,-0.00578 0.078353,0.1549278 0.078353,0.18249125 0,0.0109989 -0.00824,0.0274517 -0.018303,0.0365617 -0.017352,0.0157038 -0.021714,0.0155738 -0.084008,-0.002504 C 2.2233869,0.94149053 2.180312,0.93016 2.1638029,0.92679887 l -0.030017,-0.006111 -0.035217,0.0908903 c -0.019369,0.04999 -0.041403,0.096024 -0.048963,0.1022979 -0.011034,0.00916 -0.023734,0.00421 -0.064379,-0.025079 -0.027848,-0.020068 -0.064826,-0.048594 -0.082171,-0.063392 -0.017345,-0.014798 -0.041108,-0.0268974 -0.052805,-0.0268878 -0.012064,9.6e-6 -0.065699,0.0347857 -0.1239402,0.0803607 -0.08372,0.065513 -0.1209364,0.087508 -0.2016201,0.1191606 -0.054422,0.02135 -0.1169342,0.041669 -0.1389172,0.045155 l -0.039969,0.00634 -0.040976,-0.060709 C 1.2822919,1.1554318 1.2328963,1.0870687 1.1950605,1.0369037 1.1572247,0.98673868 1.1037791,0.91221123 1.0762925,0.87128713 c -0.03117,-0.0464086 -0.056432,-0.0744074 -0.067133,-0.0744074 -0.0189553,0 -0.28910859,0.25430097 -0.28905136,0.27209017 2.016e-5,0.00613 0.0262203,0.032301 0.0582235,0.058166 0.0662376,0.053534 0.28876196,0.253686 0.29882726,0.2687837 0.00748,0.011217 -0.00652,0.03131 -0.030913,0.044363 -0.016416,0.00879 -0.12980452,-0.030356 -0.2162093,-0.074636 -0.0448822,-0.023001 -0.10996447,-0.03745 -0.10996447,-0.024414 0,0.00486 0.0453645,0.051022 0.10081008,0.1025812 0.0554455,0.051559 0.10081008,0.098401 0.10081008,0.1040925 0,0.00569 -0.0323009,0.050099 -0.0717798,0.098684 l -0.0717798,0.088335 -0.0986372,0.011068 c -0.0542505,0.00609 -0.15469133,0.015618 -0.2232019,0.021178 -0.0685106,0.00556 -0.12618893,0.011734 -0.12817412,0.013719 -0.0151338,0.015134 0.05036,0.050783 0.20201561,0.1099597 0.0565907,0.022082 0.11260095,0.048011 0.12446722,0.057619 0.0191591,0.015514 0.0202562,0.020365 0.009797,0.04332 -0.006478,0.014217 -0.009753,0.029127 -0.007277,0.033132 0.002475,0.00401 -0.003894,0.047966 -0.0141533,0.09769 C 0.6287655,2.191449 0.6242848,2.2524514 0.6241888,2.3782951 0.62399524,2.6318896 0.6482016,2.733742 0.76493496,2.9705102 l 0.0515835,0.104626 -0.0384232,0.1017946 c -0.0211328,0.055987 -0.041231,0.1159261 -0.0446627,0.1331977 -0.007687,0.038688 -0.0192584,0.046794 -0.0403679,0.028279 -0.008908,-0.00781 -0.02536,-0.016989 -0.0365592,-0.020394 C 0.62598762,3.3087373 0.45447537,3.1280984 0.37763367,3.0243024 0.08611382,2.6305243 -0.04232251,2.1522656 0.01404404,1.6704026 0.09376035,0.98892847 0.54112702,0.40005338 1.1761176,0.1407486 1.8931062,-0.15204091 2.7122001,0.02056889 3.2510379,0.57800198 c 0.7066168,0.73100222 0.7066168,1.89577212 0,2.62677432 C 2.8373073,3.6327847 2.2481848,3.8414946 1.6609661,3.7680951 Z M 1.7233723,3.5094043 C 1.5656216,3.4842484 1.4316248,3.4427147 1.3078864,3.3806198 1.0501003,3.2512567 0.81468857,2.9726236 0.72613574,2.6920605 0.67610736,2.5335549 0.66875956,2.2662857 0.7101373,2.1101329 0.7868097,1.820784 1.0147951,1.5307378 1.2814885,1.3832519 1.4044889,1.3152306 1.4801934,1.2893836 1.6506248,1.2572215 c 0.1942824,-0.036663 0.2961595,-0.037306 0.4603802,-0.00291 0.1724454,0.036122 0.1617924,0.037845 0.2028433,-0.032814 0.044554,-0.07669 0.051,-0.082721 0.080492,-0.075319 0.056043,0.014066 0.6055616,0.4955288 0.6168341,0.5404422 0.00446,0.017789 -0.00173,0.035056 -0.023848,0.06643 -0.016435,0.023316 -0.032361,0.052273 -0.035392,0.064348 -0.00353,0.014052 0.011381,0.065017 0.041413,0.1415812 0.060834,0.1550898 0.079012,0.2561335 0.078767,0.4378336 -1.593e-4,0.1184208 -0.00403,0.1573089 -0.022769,0.2290469 C 3.0037424,2.8004011 2.9539834,2.8993569 2.8248528,3.072305 2.6866942,3.2573449 2.4317867,3.4236527 2.1936588,3.4841113 2.1151738,3.5040383 1.9339858,3.5242063 1.848184,3.5225673 1.821781,3.5220633 1.765616,3.5161373 1.7233715,3.5094023 Z M 1.5649565,1.8951488 c 0.067263,-0.021717 0.1468673,-0.071366 0.233045,-0.145351 0.070924,-0.060889 0.082306,-0.075499 0.1115132,-0.1431277 0.053324,-0.1234724 0.050518,-0.1644828 -0.01718,-0.2511358 -0.035484,-0.045419 -0.067825,-0.059408 -0.1372827,-0.059381 -0.1340136,5.76e-5 -0.3361851,0.076895 -0.4397208,0.1671298 -0.067776,0.059069 -0.078847,0.077938 -0.096496,0.1644747 -0.010458,0.051275 -0.00955,0.064272 0.00876,0.1252838 0.023498,0.078304 0.031361,0.086995 0.1209468,0.13369 0.06018,0.031368 0.070832,0.033897 0.1196355,0.0284 0.029466,-0.00332 0.073016,-0.012311 0.096778,-0.019983 z M 2.7370318,1.3336345 c -0.034321,-0.028678 -0.058364,-0.056382 -0.058364,-0.067252 0,-0.016188 0.00477,-0.017722 0.038404,-0.012343 0.044306,0.00708 0.053062,-0.00925 0.014401,-0.026863 -0.0282,-0.012849 -0.028835,-0.019818 -0.00889,-0.097677 0.020261,-0.079112 0.035234,-0.100288 0.073514,-0.1039739 l 0.031389,-0.00302 -0.039483,-0.0256893 C 2.7509838,0.9727303 2.7481188,0.9675852 2.7420988,0.9143738 2.7347588,0.8494946 2.7400188,0.8288404 2.7659668,0.8206039 2.7969618,0.8107669 2.7879248,0.7872992 2.7530788,0.787135 2.7169998,0.78696507 2.7075878,0.781688 2.6853158,0.7491421 2.6598198,0.711886 2.6651988,0.6842483 2.7050738,0.64762444 c 0.033681,-0.0309345 0.034546,-0.033071 0.013416,-0.0331139 -0.012423,-2.496e-5 -0.042978,0.0114163 -0.0679,0.0254257 -0.050296,0.0282727 -0.076531,0.0267851 -0.1191735,-0.006758 -0.018799,-0.0147875 -0.025562,-0.0288135 -0.025562,-0.0530139 0,-0.0387941 -0.012682,-0.0421809 -0.034316,-0.009164 -0.021039,0.0321092 -0.066544,0.03945 -0.1176905,0.0189853 -0.03832,-0.0153327 -0.041755,-0.0153246 -0.058842,1.3893e-4 -0.00998,0.009032 -0.026028,0.0148706 -0.035662,0.0129745 -0.015138,-0.002979 -0.017516,-0.0134781 -0.017516,-0.0773222 0,-0.10601021 0.00198,-0.10734913 0.1645042,-0.1112943 0.1358281,-0.003297 0.1783625,0.004684 0.1954877,0.0366832 0.00544,0.0101609 0.031681,0.0213369 0.068402,0.0291295 0.052602,0.011163 0.067116,0.0197533 0.1239423,0.0733608 0.048905,0.0461343 0.074642,0.0809051 0.107158,0.14477123 0.038827,0.0762618 0.043951,0.0945415 0.055269,0.19718339 0.011223,0.10178068 0.010862,0.11735351 -0.00361,0.15523681 -0.00884,0.023159 -0.026356,0.04884 -0.038915,0.057069 -0.020627,0.013516 -0.022326,0.019892 -0.01757,0.065971 0.00466,0.045143 0.00128,0.058926 -0.029406,0.1198565 C 2.818303,1.390623 2.808741,1.393556 2.7370323,1.333638 Z M 2.5430507,1.1605713 c -0.033661,-0.0267 -0.074651,-0.064184 -0.091089,-0.083299 l -0.029887,-0.034754 0.013521,-0.0580125 c 0.016095,-0.0690568 0.059248,-0.2124033 0.073102,-0.24283104 0.018725,-0.0411275 0.069611,-0.0169408 0.1276724,0.0606846 0.037922,0.0506995 0.041235,0.0600646 0.04739,0.13395914 0.01196,0.1435789 -0.00971,0.2354452 -0.06217,0.2635191 -0.013842,0.00741 -0.029677,-5.079e-4 -0.078539,-0.039266 z M 1.6225623,0.97391833 c 0,-0.003839 0.022322,-0.0440693 0.049605,-0.0894009 0.027283,-0.0453316 0.049605,-0.0869235 0.049605,-0.0924265 0,-0.009626 -0.1481069,-0.20764679 -0.1885071,-0.25203691 l -0.019661,-0.0216022 h 0.031919 c 0.017555,0 0.06631,0.006968 0.108343,0.0154855 0.073815,0.0149569 0.077289,0.0148431 0.1017681,-0.003333 0.032569,-0.0241835 0.04071,-0.0414655 0.083942,-0.17818914 0.036429,-0.11520851 0.047407,-0.1347941 0.062342,-0.11122096 0.01102,0.0173944 0.037398,0.10772297 0.045759,0.15669949 0.00801,0.046907 0.030995,0.0552959 0.064715,0.0236172 0.044464,-0.0417716 0.1908837,-0.13244997 0.1997419,-0.12370083 0.00521,0.005149 0.00468,0.0135915 -0.00133,0.0210149 -0.010924,0.0134962 -0.040988,0.21667813 -0.040988,0.2770086 0,0.0437841 0.031369,0.11801197 0.0803,0.19000966 0.019201,0.0282534 0.034912,0.0530959 0.034912,0.0552055 0,0.0145576 -0.1027821,-0.0141012 -0.1771694,-0.0494003 -0.042105,-0.0199803 -0.059618,-0.009146 -0.06821,0.0421995 -0.00839,0.0501625 -0.023806,0.0974451 -0.031764,0.0974451 -0.00375,0 -0.023941,-0.008974 -0.04486,-0.0199417 -0.032706,-0.0171482 -0.048572,-0.0191245 -0.1132629,-0.0141082 -0.061122,0.00474 -0.088128,0.0125154 -0.1440144,0.0414649 -0.08699,0.0450618 -0.083187,0.0434518 -0.083187,0.0352103 z m 0.3795596,-0.1501399 c 0.00422,-0.025002 0.017141,-0.0506392 0.034017,-0.0675152 0.02711,-0.0271103 0.027337,-0.0271506 0.063641,-0.0113058 0.020039,0.008746 0.046824,0.018157 0.059523,0.0209139 0.026045,0.005654 0.026158,0.006902 -0.00785,-0.0863635 -0.023965,-0.0657269 -0.025687,-0.1412968 -0.00504,-0.22099235 0.021166,-0.0816803 0.010063,-0.0867739 -0.068871,-0.0315952 -0.089822,0.0627903 -0.1034052,0.0669385 -0.1336633,0.0408206 -0.017558,-0.0151556 -0.026637,-0.0351059 -0.031486,-0.0691893 -0.0046,-0.0323574 -0.011751,-0.048844 -0.022035,-0.0508245 -0.011653,-0.002244 -0.020337,0.0161025 -0.037041,0.078261 -0.01814,0.0675019 -0.028193,0.0874042 -0.05962,0.11803124 -0.037042,0.0360994 -0.039139,0.0368017 -0.1044703,0.0349919 -0.046316,-0.001283 -0.066625,0.001648 -0.066524,0.009601 7.68e-5,0.006296 0.030498,0.0498528 0.067595,0.0967922 0.065169,0.0824604 0.067242,0.0867203 0.061343,0.12605964 l -0.00611,0.0407152 0.084926,-0.004553 c 0.047842,-0.002565 0.095406,-2.3119e-4 0.108928,0.005345 0.045247,0.0186595 0.055445,0.0139136 0.062728,-0.0291925 z"
       id="path64"
       inkscape:connector-curvature="0" />
    <path
       style="fill:#5057a7;stroke-width:0.00960096"
       d="M 1.6609661,3.7680951 C 1.3669844,3.7313487 1.1148912,3.6402784 0.87128713,3.4828181 c -0.0409241,-0.026452 -0.0744074,-0.053185 -0.0744074,-0.059406 0,-0.021502 0.10871363,-0.1776606 0.13868799,-0.199214 0.004991,-0.00359 0.0302555,0.011532 0.0561427,0.033603 0.15050328,0.1283158 0.24759928,0.188186 0.42134858,0.2598071 0.1334436,0.055007 0.2204991,0.067325 0.4783301,0.067685 0.2969964,4.147e-4 0.3485066,-0.00929 0.5346456,-0.1007556 C 2.5834654,3.4071812 2.6872819,3.3344087 2.806758,3.2176609 2.912587,3.1142488 2.9902241,3.0008121 3.0498565,2.8624669 c 0.044152,-0.1024314 0.047352,-0.1069911 0.075088,-0.1069865 0.015934,2.7e-6 0.051699,0.00864 0.079479,0.019202 0.08884,0.033767 0.1559126,0.020514 0.1559126,-0.030806 0,-0.010906 -0.029916,-0.078788 -0.066481,-0.1508497 C 3.1885632,2.3855169 3.1526588,2.2971231 3.1453519,2.2274228 c -0.0036,-0.034323 -0.015787,-0.09923 -0.027087,-0.1442376 l -0.020545,-0.081831 0.038953,-0.066984 C 3.1580969,1.8975292 3.1952279,1.8285028 3.2191839,1.780978 3.2431409,1.733453 3.3237036,1.5865586 3.3982122,1.4545454 3.4727212,1.3225322 3.5363595,1.2041317 3.5396316,1.1914332 c 0.021612,-0.083871 -0.082296,-0.075535 -0.3085998,0.024757 -0.042415,0.018797 -0.113841,0.048353 -0.1587255,0.065679 -0.044884,0.017327 -0.095485,0.037149 -0.1124448,0.04405 -0.01696,0.0069 -0.033473,0.00991 -0.036696,0.00669 -0.00322,-0.00322 0.014382,-0.057033 0.039122,-0.1195784 0.044357,-0.1121389 0.045053,-0.1156006 0.050057,-0.24917189 0.0049,-0.13083964 0.00417,-0.13787038 -0.021593,-0.20642068 C 2.9326261,0.60275494 2.8633727,0.51561029 2.7279184,0.42670126 l -0.041959,-0.0275406 0.00596,-0.0569815 c 0.011499,-0.11001414 -0.033938,-0.1124342 -0.1751462,-0.009329 -0.021093,0.0154018 -0.052522,0.0214987 -0.1957373,0.0379723 l -0.055206,0.00635 v -0.0688758 c 0,-0.0526852 -0.00342,-0.0701885 -0.014553,-0.0744603 -0.008,-0.003072 -0.06525,0.0196477 -0.1272128,0.0504872 -0.061963,0.0308395 -0.1165273,0.0561704 -0.1212546,0.0562909 -0.00473,1.2049e-4 -0.014738,-0.0208474 -0.022245,-0.0465953 -0.01562,-0.0535686 -0.054551,-0.11957262 -0.075202,-0.12749696 -0.024767,-0.009504 -0.056941,0.004765 -0.072834,0.032302 -0.00851,0.0147388 -0.027288,0.0721624 -0.041738,0.12760795 -0.029636,0.11372081 -0.045005,0.14865383 -0.071684,0.16293171 -0.025757,0.0137849 -0.088732,0.0123237 -0.1527614,-0.003544 -0.082079,-0.0203413 -0.1550012,-0.0275049 -0.1550012,-0.0152268 0,0.0182601 0.028939,0.0685312 0.1163689,0.20215173 0.046888,0.0716598 0.085251,0.137459 0.085251,0.14622034 0,0.0174332 -0.021003,0.075917 -0.049185,0.13696133 -0.00991,0.0214691 -0.018021,0.0554925 -0.018021,0.0756075 0,0.034974 0.00118,0.036337 0.027004,0.031172 0.014852,-0.00297 0.068729,-0.029491 0.1197268,-0.058935 0.1384922,-0.0799595 0.1358546,-0.0794188 0.1935625,-0.0396739 0.026858,0.0184981 0.063658,0.0489277 0.081776,0.0676212 0.061,0.062936 0.094791,0.037933 0.1215435,-0.0899282 0.019018,-0.0908943 0.026628,-0.0953643 0.099621,-0.0585173 0.042903,0.0216571 0.074692,0.0306924 0.1109767,0.0315419 0.045176,0.001058 0.049853,0.003056 0.041908,0.0179007 -0.015224,0.0284471 -0.025167,0.0290354 -0.1156502,0.006845 l -0.087821,-0.0215378 -0.018018,0.0222508 c -0.00991,0.012238 -0.020474,0.0335857 -0.023476,0.0474394 -0.003,0.0138537 -0.013407,0.0446305 -0.023122,0.0683929 -0.025753,0.062991 -0.045151,0.061091 -0.1460131,-0.014299 -0.057736,-0.0431552 -0.092199,-0.0625084 -0.1113108,-0.0625084 -0.033083,0 -0.1005817,0.0440124 -0.2488079,0.16223314 C 1.5084123,1.188781 1.450799,1.2303416 1.439625,1.2338881 1.4123604,1.2425416 1.3866504,1.2172093 1.3132619,1.1093819 1.2807397,1.0615981 1.2294849,0.98988866 1.1993623,0.95002769 1.1692398,0.91016668 1.1266772,0.84983231 1.1047788,0.81595131 1.0579358,0.74347597 1.0529259,0.73961355 1.0055114,0.73942095 0.97185594,0.73928423 0.95826499,0.74979343 0.81164284,0.88933011 0.72492114,0.97186103 0.65155892,1.0456617 0.64861567,1.0533317 c -0.0123986,0.03231 -0.004713,0.060344 0.0210513,0.07679 0.0836238,0.053377 0.22322232,0.1711726 0.22322232,0.1883587 0,0.012981 -0.0521696,3.677e-4 -0.11488542,-0.027777 -0.0386438,-0.017342 -0.0674047,-0.023734 -0.0972105,-0.021602 -0.0402776,0.00288 -0.0424787,0.00458 -0.0454067,0.03515 -0.00285,0.029751 0.006192,0.041485 0.12241224,0.1588546 0.0690192,0.069702 0.12532722,0.1308541 0.12512895,0.1358932 -1.9826e-4,0.00504 -0.0142397,0.025069 -0.0312031,0.04451 -0.0297644,0.034112 -0.0340313,0.035702 -0.12205176,0.04548 -0.050165,0.00557 -0.15385538,0.014523 -0.23042304,0.019891 -0.20207868,0.014166 -0.24805668,0.020236 -0.25971945,0.034289 -0.0143278,0.017264 -0.007505,0.072592 0.0100945,0.081862 0.0398421,0.020984 0.28463363,0.1335653 0.2904195,0.1335653 0.0169343,0 0.11190698,0.050977 0.11629974,0.062424 0.002714,0.00707 -0.003382,0.053168 -0.0135471,0.1024311 -0.0140138,0.067914 -0.0185129,0.1295294 -0.0186085,0.254846 -1.8684e-4,0.2448189 0.0261461,0.3616504 0.12708136,0.5638234 l 0.03806,0.076234 -0.0188305,0.038977 C 0.76014274,3.0787698 0.73827892,3.139514 0.72191324,3.1923193 0.68621373,3.3075068 0.67340282,3.3284609 0.64723952,3.3144587 0.63706061,3.3090111 0.58733705,3.261894 0.5367427,3.2097542 0.13871052,2.7995628 -0.0522543,2.2371699 0.01404404,1.6704026 0.09376035,0.98892847 0.54112702,0.40005338 1.1761176,0.1407486 1.8931062,-0.15204091 2.7122001,0.02056889 3.2510379,0.57800198 c 0.7066168,0.73100222 0.7066168,1.89577212 0,2.62677432 C 2.8373073,3.6327847 2.2481848,3.8414946 1.6609661,3.7680951 Z M 1.7233723,3.5094043 C 1.5656216,3.4842484 1.4316248,3.4427147 1.3078864,3.3806198 1.0501003,3.2512567 0.81468857,2.9726236 0.72613574,2.6920605 0.67610736,2.5335549 0.66875956,2.2662857 0.7101373,2.1101329 0.7868097,1.820784 1.0147951,1.5307378 1.2814885,1.3832519 1.4044889,1.3152306 1.4801934,1.2893836 1.6506248,1.2572215 c 0.1942824,-0.036663 0.2961595,-0.037306 0.4603802,-0.00291 0.1724454,0.036122 0.1617924,0.037845 0.2028433,-0.032814 0.044554,-0.07669 0.051,-0.082721 0.080492,-0.075319 0.056043,0.014066 0.6055616,0.4955288 0.6168341,0.5404422 0.00446,0.017789 -0.00173,0.035056 -0.023848,0.06643 -0.016435,0.023316 -0.032361,0.052273 -0.035392,0.064348 -0.00353,0.014052 0.011381,0.065017 0.041413,0.1415812 0.060834,0.1550898 0.079012,0.2561335 0.078767,0.4378336 -1.593e-4,0.1184208 -0.00403,0.1573089 -0.022769,0.2290469 C 3.0037424,2.8004011 2.9539834,2.8993569 2.8248528,3.072305 2.6866942,3.2573449 2.4317867,3.4236527 2.1936588,3.4841113 2.1151738,3.5040383 1.9339858,3.5242063 1.848184,3.5225673 1.821781,3.5220633 1.765616,3.5161373 1.7233715,3.5094023 Z M 1.5649565,1.8951488 c 0.067263,-0.021717 0.1468673,-0.071366 0.233045,-0.145351 0.070924,-0.060889 0.082306,-0.075499 0.1115132,-0.1431277 0.053324,-0.1234724 0.050518,-0.1644828 -0.01718,-0.2511358 -0.035484,-0.045419 -0.067825,-0.059408 -0.1372827,-0.059381 -0.1340136,5.76e-5 -0.3361851,0.076895 -0.4397208,0.1671298 -0.067776,0.059069 -0.078847,0.077938 -0.096496,0.1644747 -0.010458,0.051275 -0.00955,0.064272 0.00876,0.1252838 0.023498,0.078304 0.031361,0.086995 0.1209468,0.13369 0.06018,0.031368 0.070832,0.033897 0.1196355,0.0284 0.029466,-0.00332 0.073016,-0.012311 0.096778,-0.019983 z M 2.7370318,1.3336345 c -0.034321,-0.028678 -0.058364,-0.056382 -0.058364,-0.067252 0,-0.016188 0.00477,-0.017722 0.038404,-0.012343 0.044306,0.00708 0.053062,-0.00925 0.014401,-0.026863 -0.0282,-0.012849 -0.028835,-0.019818 -0.00889,-0.097677 0.020261,-0.079112 0.035234,-0.100288 0.073514,-0.1039739 l 0.031389,-0.00302 -0.039483,-0.0256893 C 2.7509838,0.9727303 2.7481188,0.9675852 2.7420988,0.9143738 2.7347588,0.8494946 2.7400188,0.8288404 2.7659668,0.8206039 2.7969618,0.8107669 2.7879248,0.7872992 2.7530788,0.787135 2.7169998,0.78696507 2.7075878,0.781688 2.6853158,0.7491421 2.6598198,0.711886 2.6651988,0.6842483 2.7050738,0.64762444 c 0.033681,-0.0309345 0.034546,-0.033071 0.013416,-0.0331139 -0.012423,-2.496e-5 -0.042978,0.0114163 -0.0679,0.0254257 -0.050296,0.0282727 -0.076531,0.0267851 -0.1191735,-0.006758 -0.018799,-0.0147875 -0.025562,-0.0288135 -0.025562,-0.0530139 0,-0.0387941 -0.012682,-0.0421809 -0.034316,-0.009164 -0.021039,0.0321092 -0.066544,0.03945 -0.1176905,0.0189853 -0.03832,-0.0153327 -0.041755,-0.0153246 -0.058842,1.3893e-4 -0.00998,0.009032 -0.026028,0.0148706 -0.035662,0.0129745 -0.015138,-0.002979 -0.017516,-0.0134781 -0.017516,-0.0773222 0,-0.10601021 0.00198,-0.10734913 0.1645042,-0.1112943 0.1358281,-0.003297 0.1783625,0.004684 0.1954877,0.0366832 0.00544,0.0101609 0.031681,0.0213369 0.068402,0.0291295 0.052602,0.011163 0.067116,0.0197533 0.1239423,0.0733608 0.048905,0.0461343 0.074642,0.0809051 0.107158,0.14477123 0.038827,0.0762618 0.043951,0.0945415 0.055269,0.19718339 0.011223,0.10178068 0.010862,0.11735351 -0.00361,0.15523681 -0.00884,0.023159 -0.026356,0.04884 -0.038915,0.057069 -0.020627,0.013516 -0.022326,0.019892 -0.01757,0.065971 0.00466,0.045143 0.00128,0.058926 -0.029406,0.1198565 C 2.818303,1.390623 2.808741,1.393556 2.7370323,1.333638 Z M 2.531204,1.1507273 2.457948,1.0924493 2.464018,1.0526753 C 2.467358,1.0307993 2.473498,1.0062123 2.477669,0.998037 2.481839,0.989862 2.494342,0.947582 2.505448,0.9040823 2.528231,0.8148508 2.561733,0.73927399 2.578506,0.73927399 c 0.00617,0 0.030896,0.0265444 0.054946,0.0589876 0.041145,0.0555056 0.044116,0.0636662 0.050328,0.13824642 C 2.695715,1.0797863 2.67402,1.1717785 2.621698,1.1997818 2.607881,1.2071718 2.589937,1.1974518 2.531208,1.1507278 Z M 2.3006796,0.79890172 c -0.015091,-0.0244181 -0.023698,-0.0594551 -0.015803,-0.0643342 0.00479,-0.002962 0.013152,0.0106831 0.018575,0.0303234 0.00961,0.0348134 0.00823,0.0518076 -0.00277,0.0340108 z"
       id="path62"
       inkscape:connector-curvature="0" />
    <path
       style="fill:#1b2659;stroke-width:0.00960096"
       d="M 1.7377738,3.7738237 C 1.6761003,3.7665827 1.544916,3.743202 1.4599399,3.7243058 1.3145493,3.6919753 1.1115613,3.6129827 0.97528253,3.5357018 0.88061011,3.4820151 0.79687969,3.4270261 0.79687969,3.4185378 c 0,-0.022868 0.12558233,-0.1917531 0.14294964,-0.1922408 0.007335,-2.054e-4 0.0397384,0.022608 0.0720072,0.050697 0.1370747,0.1193197 0.2669391,0.1945589 0.4475094,0.2592724 0.1426636,0.051128 0.2012361,0.059138 0.4320432,0.059081 0.2430965,-5.76e-5 0.3295037,-0.013542 0.4704471,-0.073405 C 2.4864398,3.4690194 2.5602262,3.4265534 2.6683776,3.34552 2.8491503,3.2100738 2.970453,3.0585347 3.0561524,2.8610865 c 0.050418,-0.1161606 0.057378,-0.120304 0.1462386,-0.087057 0.090488,0.033856 0.1579451,0.021587 0.1579451,-0.028726 0,-0.010121 -0.041155,-0.1016218 -0.091456,-0.2033346 C 3.1735305,2.3491637 3.1492264,2.2855534 3.1489504,2.2280804 3.1488599,2.2092368 3.1402931,2.1614162 3.129913,2.1218122 3.1034792,2.0209567 3.1052637,1.9878816 3.14035,1.9283751 3.1566514,1.9007279 3.1908567,1.8368114 3.2163618,1.7863384 3.2418669,1.7358655 3.3236982,1.5865587 3.3982091,1.4545455 3.4727199,1.3225323 3.5363604,1.2041318 3.5396325,1.1914333 3.5569143,1.1243661 3.4831281,1.1161845 3.3459346,1.1699554 3.2146449,1.2214125 3.0386254,1.2931029 2.9835263,1.3175596 c -0.025067,0.011127 -0.048094,0.017713 -0.051171,0.014636 -0.00308,-0.00308 0.014627,-0.058895 0.039342,-0.1240402 C 3.0148431,1.094431 3.0168397,1.084687 3.0217826,0.96373872 3.0267145,0.84305976 3.0258109,0.83479254 3.0002697,0.76691906 2.941002,0.60941977 2.8890879,0.53996675 2.7578758,0.44263362 2.719592,0.41423467 2.6882688,0.38453372 2.6882688,0.37663149 c 0,-0.007902 0.00496,-0.0309335 0.011029,-0.0511805 0.013745,-0.0458747 2.455e-4,-0.0662251 -0.043929,-0.0662251 -0.027261,0 -0.067935,0.0214711 -0.1352211,0.0713809 -0.010627,0.007883 -0.060083,0.0189392 -0.11002,0.0245962 -0.049893,0.005652 -0.1006117,0.0127603 -0.1127078,0.0157962 -0.024478,0.006143 -0.02428,0.006804 -0.022169,-0.0740874 0.00246,-0.094217 -0.019344,-0.0947613 -0.1824272,-0.004554 -0.086552,0.0478755 -0.095825,0.0506877 -0.095825,0.0290634 0,-0.0301303 -0.056469,-0.13781533 -0.080539,-0.15358677 -0.058483,-0.0383195 -0.089402,-9.1571e-4 -0.135069,0.16339854 -0.014676,0.0528053 -0.032733,0.1078282 -0.040126,0.12227315 -0.022072,0.0431229 -0.065329,0.0454102 -0.2375173,0.0125592 -0.1349984,-0.0257558 -0.1349699,-0.0255046 0.024628,0.21721848 l 0.086287,0.13122869 -0.033477,0.0847929 C 1.5627734,0.94594148 1.5461884,1.00138 1.5443304,1.0225022 c -0.00313,0.035538 -0.00145,0.038626 0.022433,0.041385 0.017624,0.00204 0.061946,-0.016998 0.1397367,-0.060006 0.062659,-0.0346427 0.1197789,-0.0629868 0.1269324,-0.0629868 0.014474,0 0.1038474,0.0640516 0.1506038,0.1079341 0.037631,0.035318 0.062997,0.029747 0.090198,-0.019811 0.020756,-0.0378156 0.01706,-0.013334 -0.0065,0.043054 -0.021285,0.050942 -0.040995,0.04432 -0.1763456,-0.059248 C 1.8640007,0.9918663 1.8373107,0.979679 1.8184817,0.9795315 1.7838428,0.97925905 1.71765,1.0214067 1.5839197,1.1288856 1.4503677,1.2362212 1.4219077,1.2474713 1.3854978,1.2073207 1.3747235,1.1954396 1.3255383,1.1273927 1.2761975,1.0561056 1.1682903,0.90020254 1.0814538,0.7789661 1.0612986,0.75607561 c -0.00948,-0.0107615 -0.028668,-0.0168017 -0.053387,-0.0168017 -0.0366849,0 -0.046389,0.007419 -0.19626886,0.15005618 -0.0867217,0.0825309 -0.16008392,0.15633161 -0.16302717,0.16400161 -0.0123986,0.03231 -0.004713,0.060344 0.0210513,0.07679 0.090668,0.057873 0.21362136,0.1627952 0.21362136,0.182293 0,0.018176 -0.0125071,0.015861 -0.0911372,-0.016873 -0.0504132,-0.020987 -0.0824792,-0.028537 -0.11214384,-0.026403 -0.0393942,0.00283 -0.0417026,0.00465 -0.0446206,0.035112 -0.002851,0.029766 0.006238,0.041531 0.12385015,0.1603067 0.1248955,0.1261313 0.12667903,0.1285372 0.11141448,0.1502947 -0.0471748,0.067241 -0.0503173,0.068292 -0.25138936,0.084083 -0.28415497,0.022316 -0.36519394,0.031167 -0.37728982,0.041205 -0.0164702,0.013669 -0.0109327,0.075091 0.007653,0.084885 0.007921,0.00417 0.0770477,0.036156 0.15361537,0.071071 0.24017532,0.1095196 0.24494775,0.1122459 0.24385702,0.1393065 -5.3208e-4,0.013201 -0.008089,0.056406 -0.0167938,0.09601 -0.0232748,0.1058962 -0.02194,0.3808531 0.002457,0.5061102 0.0206268,0.1059002 0.0385945,0.1554923 0.10227829,0.2822943 0.0312033,0.06213 0.0428709,0.095724 0.0393203,0.1132161 -0.008928,0.043982 -0.0886401,0.2694859 -0.0988783,0.2797241 C 0.66227216,3.3259667 0.55113016,3.2227916 0.45432592,3.1074559 0.27778636,2.8971209 0.14508419,2.6440737 0.07727495,2.3884646 c -0.09828283,-0.3704804 -0.09828283,-0.6236705 0,-0.9941509 C 0.25886831,0.70979165 0.83999553,0.17176764 1.5361536,0.04364259 1.5810381,0.03538179 1.6415242,0.02328383 1.6705671,0.01675825 c 0.030956,-0.00695533 0.122327,-0.01186469 0.220822,-0.01186469 0.098495,0 0.1898665,0.00490936 0.2208221,0.01186469 0.029043,0.0065256 0.089529,0.01862354 0.1344135,0.02688434 0.6961581,0.12812505 1.2772853,0.66614906 1.4588786,1.35067111 0.098283,0.3704804 0.098283,0.6236705 0,0.9941509 C 3.6378119,2.6436297 3.5049617,2.8971574 3.3292377,3.1065199 3.0551272,3.4331028 2.6548801,3.6661403 2.2418242,3.7396491 c -0.047525,0.00846 -0.1020497,0.019467 -0.1211664,0.024465 -0.0469,0.012262 -0.3053256,0.018816 -0.382884,0.00971 z M 1.7188809,3.377903 C 1.6071734,3.361954 1.392347,3.2780095 1.2791315,3.2060686 1.1881989,3.1482871 1.0646432,3.0250907 0.99573103,2.9234924 0.92661048,2.8215867 0.85040965,2.6518289 0.82920513,2.552511 0.80534698,2.4407641 0.81634878,2.2392541 0.85245781,2.1266127 0.90404737,1.9656799 0.99102618,1.8007346 1.0541062,1.7442093 c 0.031102,-0.027871 0.053327,-0.00863 0.067109,0.058095 0.00851,0.04118 0.026311,0.077888 0.065722,0.1354943 0.045136,0.065974 0.064546,0.085172 0.1176278,0.116342 0.055274,0.032457 0.1331603,0.060689 0.2238339,0.081133 0.040098,0.00904 0.1541175,-0.010639 0.2242106,-0.038699 0.070656,-0.028285 0.1477345,-0.081509 0.251054,-0.1733539 0.081212,-0.072193 0.1236278,-0.1285624 0.161215,-0.2142497 0.031172,-0.071064 0.071666,-0.2204245 0.071953,-0.2653994 1.949e-4,-0.030551 0.013215,-0.041831 0.048285,-0.041831 0.00975,0 0.046184,-0.014837 0.080975,-0.032971 l 0.063256,-0.032971 0.05599,0.044972 c 0.030794,0.024735 0.1230432,0.1044199 0.2049975,0.1770778 l 0.1490077,0.1321056 -0.00484,0.1096028 c -0.00456,0.1032713 -0.00331,0.1133879 0.021655,0.1751252 0.072627,0.1796315 0.081749,0.222726 0.081542,0.3851966 C 2.9374863,2.5279738 2.9200102,2.6198818 2.8629158,2.7531691 2.8229149,2.8465512 2.7228523,2.9955449 2.6482255,3.0728434 2.5511308,3.1734143 2.3876644,3.2745645 2.2130213,3.3421402 2.1027524,3.3848073 1.8801021,3.4009212 1.7188809,3.377903 Z M 2.7427572,1.3214829 c -0.030261,-0.027146 -0.054901,-0.052324 -0.054755,-0.055953 1.469e-4,-0.00363 0.014839,-0.00423 0.032649,-0.00134 0.044511,0.00722 0.05544,-0.012928 0.021632,-0.039885 l -0.02589,-0.020644 0.014711,-0.056975 c 0.00809,-0.031336 0.019771,-0.069344 0.025955,-0.084461 0.010544,-0.025775 0.013834,-0.027131 0.052834,-0.021786 0.022875,0.00314 0.041591,0.00187 0.041591,-0.00282 0,-0.00468 -0.020951,-0.023569 -0.046559,-0.0419659 C 2.7606092,0.9638152 2.7580482,0.9594955 2.7517592,0.9059903 2.7453092,0.8511058 2.7458792,0.849186 2.7757802,0.8247799 2.8132662,0.7941856 2.8059012,0.777676 2.7547672,0.777676 c -0.032544,0 -0.040701,-0.004465 -0.057003,-0.0312031 -0.02647,-0.0434138 -0.024458,-0.0530783 0.019814,-0.0951932 0.035983,-0.03423 0.042399,-0.0560219 0.016494,-0.0560219 -0.00587,0 -0.039956,0.0134993 -0.075751,0.0299984 L 2.5932392,0.6552546 2.5567462,0.6363829 c -0.03158,-0.0163309 -0.036903,-0.0239244 -0.039535,-0.056401 -0.00451,-0.0555878 -0.017636,-0.06224 -0.048493,-0.0245681 -0.020942,0.025567 -0.033381,0.0321632 -0.06065,0.0321632 -0.018867,0 -0.043185,-0.004752 -0.054038,-0.010561 -0.027821,-0.0148894 -0.050239,-0.013139 -0.070872,0.005534 -0.028014,0.0253523 -0.039606,0.004084 -0.034704,-0.0636758 0.00633,-0.0874885 0.012356,-0.0910025 0.1626291,-0.0948145 0.1322658,-0.003355 0.1759824,0.005293 0.1859795,0.036791 0.0039,0.012286 0.02302,0.0204597 0.067487,0.0288501 0.057578,0.0108642 0.066716,0.0162964 0.1268916,0.075434 0.088283,0.0867599 0.1340511,0.1804988 0.1529949,0.31335163 0.01774,0.12441137 0.010872,0.17278257 -0.030006,0.21133607 -0.029516,0.027837 -0.031005,0.032462 -0.026798,0.083194 0.00397,0.047907 6.135e-4,0.061029 -0.03106,0.1213035 -0.019533,0.037172 -0.040752,0.069595 -0.047154,0.072051 -0.0064,0.00246 -0.036398,-0.017744 -0.06666,-0.04489 z M 2.5623727,1.1686571 c -0.019078,-0.017019 -0.049997,-0.044019 -0.06871,-0.060002 -0.039165,-0.03345 -0.039338,-0.029938 0.00988,-0.20136477 0.029113,-0.10139597 0.054229,-0.15841584 0.069778,-0.15841584 0.00516,0 0.028436,0.0258934 0.051734,0.057541 0.038285,0.0520061 0.043008,0.064469 0.049108,0.12956559 0.00992,0.10583642 -0.00174,0.19493312 -0.030482,0.23293542 -0.012979,0.017162 -0.028779,0.031086 -0.035111,0.030943 -0.00633,-1.43e-4 -0.027122,-0.014184 -0.0462,-0.031203 z M 2.0930987,0.9648965 c 2.88e-5,-0.0295211 0.018631,-0.0897783 0.029861,-0.0967189 0.00552,-0.003412 0.040313,0.007751 0.077316,0.0248068 0.05371,0.0247565 0.075754,0.030055 0.1093066,0.0262731 0.039164,-0.004414 0.041353,-0.003474 0.032112,0.0137924 C 2.3264723,0.9614932 2.3128883,0.9625624 2.2363201,0.9413439 2.1428531,0.915443 2.1344655,0.916223 2.1121062,0.9528948 2.0970912,0.9775209 2.0930852,0.9800504 2.0930987,0.9648965 Z"
       id="path60"
       inkscape:connector-curvature="0" />
    <path
       style="fill:#06152d;stroke-width:0.00960096"
       d="m 1.7761776,3.7737233 c -0.05195,-0.00418 -0.067651,-0.0076 -0.043204,-0.0094 0.026224,-0.00193 0.00643,-0.00679 -0.062406,-0.015315 -0.2711177,-0.033578 -0.5205549,-0.119583 -0.74887493,-0.2582096 -0.050165,-0.030458 -0.095263,-0.059261 -0.10021763,-0.064005 -0.009746,-0.00933 0.0943039,-0.1704015 0.11527928,-0.1784504 0.006644,-0.00255 0.0610587,0.034988 0.12092148,0.083417 C 1.198284,3.4455118 1.3673845,3.5310433 1.5409546,3.5762041 1.7136119,3.6211271 2.068971,3.6209111 2.2514257,3.575772 2.2831087,3.567932 2.3742901,3.529079 2.4540508,3.489429 2.6228879,3.4054959 2.758358,3.3038387 2.872837,3.1751692 2.9568857,3.080702 3.0042649,3.0060281 3.0627822,2.8757978 3.112705,2.7646947 3.1181994,2.761637 3.210624,2.7935192 c 0.03119,0.010759 0.070571,0.019562 0.087514,0.019562 0.040693,0 0.0814,-0.03247 0.0814,-0.064929 0,-0.013823 -0.036294,-0.096677 -0.080654,-0.1841217 C 3.2028616,2.3747432 3.168288,2.2921118 3.1683991,2.2521697 c 4.8e-5,-0.016251 -0.011491,-0.078692 -0.025636,-0.1387559 l -0.025718,-0.1092083 0.031071,-0.054008 c 0.017089,-0.029705 0.054993,-0.1015329 0.08423,-0.1596187 0.029237,-0.058086 0.063453,-0.1228923 0.076034,-0.1440144 0.012581,-0.021122 0.031762,-0.055686 0.042625,-0.076808 0.010862,-0.021122 0.030304,-0.055686 0.043204,-0.076808 0.0129,-0.021122 0.032226,-0.055686 0.042947,-0.076808 0.010721,-0.021122 0.042978,-0.077288 0.071682,-0.1248124 0.056356,-0.093306 0.06388,-0.1284514 0.033915,-0.1584159 -0.033038,-0.033038 -0.083385,-0.024862 -0.2431388,0.039481 -0.2888609,0.116344 -0.3521207,0.1410612 -0.3521207,0.1375829 0,-0.00194 0.00901,-0.026378 0.020027,-0.054296 C 3.0523856,1.0405868 3.0639155,0.89239567 3.0069534,0.74887489 2.9546016,0.61696995 2.9060553,0.54509312 2.824229,0.47833584 2.783312,0.4449541 2.7394446,0.41078155 2.7267457,0.40239685 c -0.02278,-0.0150408 -0.02291,-0.01599 -0.00974,-0.070905 0.013016,-0.0542588 0.012796,-0.0561108 -0.00876,-0.073564 -0.039299,-0.0318227 -0.087264,-0.0236352 -0.1535811,0.0262164 -0.050472,0.0379404 -0.067751,0.0452624 -0.1233636,0.0522742 -0.035569,0.004485 -0.082892,0.0110827 -0.1051616,0.0146625 l -0.040491,0.006509 0.00536,-0.0467816 c 0.00295,-0.0257299 7.556e-4,-0.0586628 -0.00488,-0.0731842 -0.015409,-0.0397354 -0.050196,-0.0341959 -0.1687618,0.0268742 -0.056889,0.0293023 -0.1043611,0.0519845 -0.1054925,0.050405 -0.00113,-0.00158 -0.012134,-0.0282259 -0.02445,-0.0592143 -0.031031,-0.0780757 -0.061077,-0.11167428 -0.099867,-0.11167428 -0.057133,0 -0.077537,0.031604 -0.1202611,0.18626749 -0.04376,0.15841336 -0.059002,0.16772881 -0.2137457,0.13063146 -0.043899,-0.0105241 -0.098178,-0.0191649 -0.1206202,-0.0192019 -0.037803,-6.24e-5 -0.040804,0.001812 -0.040804,0.0254919 0,0.0299299 0.024024,0.0729064 0.1264349,0.22618312 0.041352,0.0618906 0.075171,0.11805619 0.075152,0.12481248 -1.92e-5,0.006756 -0.013371,0.0446874 -0.029673,0.0842914 -0.016302,0.039604 -0.032009,0.0968497 -0.034904,0.12721278 -0.00517,0.054271 -0.00485,0.055206 0.019447,0.055206 0.013591,0 0.035793,-0.00421 0.049338,-0.00936 0.013545,-0.00515 0.0245,-0.00623 0.024344,-0.0024 -6.31e-4,0.015516 -0.1653052,0.1365761 -0.1857805,0.1365761 -0.028546,0 -0.041811,-0.015648 -0.1627814,-0.1920192 C 1.217579,0.93585359 1.1466022,0.83648365 1.115991,0.79687969 1.0581873,0.7220947 1.0371685,0.71069485 0.98242036,0.72443575 0.96957216,0.72766044 0.88811224,0.79781811 0.80139822,0.88034169 0.59576465,1.0760381 0.58800461,1.0973741 0.69606961,1.16994 0.72775281,1.191215 0.77527751,1.228319 0.80168017,1.252393 L 0.84968497,1.296164 0.79687967,1.275089 C 0.73798867,1.251586 0.6556791,1.242508 0.63366335,1.257088 c -0.009272,0.00614 -0.0144014,0.025001 -0.0144014,0.052953 0,0.042839 0.001653,0.045073 0.1244365,0.168129 l 0.1244365,0.1247134 -0.0267777,0.02795 c -0.0236093,0.024643 -0.0371969,0.029215 -0.11483554,0.038639 -0.0484318,0.00588 -0.14854385,0.015097 -0.22247124,0.020484 -0.16502668,0.012025 -0.26374632,0.026031 -0.28029907,0.039768 -0.0207635,0.017232 -0.0155205,0.081322 0.008482,0.1036835 0.0115568,0.010767 0.0260879,0.019576 0.0322914,0.019576 0.006204,0 0.0626346,0.025122 0.12540235,0.055827 0.0627678,0.030705 0.14328615,0.068077 0.17892972,0.083048 0.072902,0.030622 0.0738693,0.032931 0.050405,0.1203501 -0.0103332,0.038498 -0.0142044,0.1070251 -0.0142875,0.2529174 -1.5284e-4,0.2684111 0.014776,0.346112 0.10024309,0.521742 l 0.0616049,0.1265945 -0.0334805,0.099028 c -0.0555227,0.1642239 -0.0623601,0.1806362 -0.0752531,0.1806362 -0.0184533,0 -0.19311965,-0.1849676 -0.26296626,-0.278475 C 0.19657166,2.7488435 0.07502018,2.4452806 0.03376966,2.1122112 c -0.0068911,-0.055641 -0.0136136,-0.085754 -0.0150035,-0.067207 -0.001385,0.018482 -0.0054061,-0.00852 -0.0089358,-0.060006 -0.00352967,-0.051485 -0.00352967,-0.1357336 0,-0.1872187 0.00352968,-0.051485 0.00755079,-0.078488 0.0089358,-0.060006 0.0013899,0.018547 0.0081124,-0.011566 0.0150035,-0.067207 C 0.10528481,1.0931317 0.42733782,0.59381944 0.92348546,0.29114821 1.1484722,0.15389665 1.3998326,0.06730003 1.6705671,0.03376966 1.7371112,0.0255282 1.7583235,0.02041871 1.7329733,0.0187376 1.7118513,0.0173369 1.7388533,0.013366 1.7929793,0.00991337 c 0.054125,-0.0034526 0.1426943,-0.0034526 0.1968197,0 0.054125,0.0034526 0.081128,0.0074235 0.060006,0.00882423 -0.02535,0.0016811 -0.00414,0.0067906 0.062406,0.01503206 0.8628002,0.10685748 1.52994,0.77399722 1.6367975,1.63679744 0.00689,0.055641 0.013613,0.085754 0.015003,0.067207 0.00138,-0.018482 0.00541,0.00852 0.00894,0.060006 0.00353,0.051485 0.00353,0.1357336 0,0.1872187 -0.00353,0.051485 -0.00755,0.078488 -0.00894,0.060006 -0.00139,-0.018547 -0.00811,0.011566 -0.015003,0.067207 -0.089146,0.7197939 -0.5730755,1.3171939 -1.2557529,1.5501991 -0.1223934,0.041774 -0.2878369,0.078315 -0.4009555,0.088558 -0.070426,0.00638 -0.075928,0.00811 -0.042495,0.013405 0.034578,0.00547 0.032566,0.00622 -0.020194,0.00744 -0.032229,7.498e-4 -0.084074,0.00296 -0.1152115,0.00492 -0.031138,0.00196 -0.093338,6.01e-4 -0.138222,-0.00301 z M 1.7099818,3.3587877 C 1.598181,3.3428007 1.3729078,3.2492802 1.2557269,3.1702074 1.1781655,3.1178695 1.0649118,2.9989698 0.99854604,2.9002054 0.94342987,2.8181824 0.87797287,2.6704677 0.85302522,2.5718131 0.83547509,2.5024118 0.8334884,2.4735341 0.83793421,2.3524558 c 0.004629,-0.126073 0.008347,-0.1491813 0.0387986,-0.2411483 0.0185234,-0.055943 0.0491717,-0.1337104 0.0681073,-0.1728173 0.0411972,-0.085082 0.11177609,-0.186315 0.12989809,-0.186315 0.00783,0 0.019654,0.024276 0.029687,0.06093 0.010706,0.039112 0.035749,0.089004 0.069936,0.139333 0.04672,0.06878 0.061881,0.083282 0.1235164,0.1181524 C 1.525252,2.199227 1.7280489,2.175716 1.9441944,1.9956599 2.0815,1.88128 2.1400557,1.8114455 2.1815829,1.7125466 c 0.036789,-0.087616 0.074643,-0.2229177 0.074643,-0.2668015 0,-0.019858 0.00465,-0.024803 0.023305,-0.024803 0.012818,0 0.051704,-0.014803 0.086414,-0.032895 l 0.06311,-0.032895 0.1952783,0.1712141 0.1952783,0.171214 -0.00452,0.1017429 c -0.0043,0.096742 -0.00301,0.105766 0.02637,0.1836002 0.070985,0.1880785 0.076952,0.2174776 0.076899,0.3789128 -3.84e-5,0.1240698 -0.00374,0.163183 -0.022241,0.2352235 -0.073621,0.2866456 -0.2707732,0.5277959 -0.5414493,0.6622815 -0.1170569,0.05816 -0.199441,0.08771 -0.278899,0.1000386 -0.079497,0.012334 -0.2776295,0.012014 -0.3657843,-5.924e-4 z m 0.438233,-2.45357321 c -0.014521,-0.0022 -0.026403,-0.007313 -0.026403,-0.0113628 0,-0.0168009 0.013641,-0.0185683 0.039621,-0.005133 0.025736,0.0133085 0.0368,0.0252138 0.020385,0.0219344 -0.00396,-7.9121e-4 -0.019082,-0.003238 -0.033603,-0.005439 z"
       id="path58"
       inkscape:connector-curvature="0" />
  </g>
</svg>
