<?xml version="1.0" encoding="UTF-8" standalone="no"?>
<!-- Created with Inkscape (http://www.inkscape.org/) -->

<svg
   xmlns:dc="http://purl.org/dc/elements/1.1/"
   xmlns:cc="http://creativecommons.org/ns#"
   xmlns:rdf="http://www.w3.org/1999/02/22-rdf-syntax-ns#"
   xmlns:svg="http://www.w3.org/2000/svg"
   xmlns="http://www.w3.org/2000/svg"
   xmlns:sodipodi="http://sodipodi.sourceforge.net/DTD/sodipodi-0.dtd"
   xmlns:inkscape="http://www.inkscape.org/namespaces/inkscape"
   version="1.1"
   id="svg38"
   width="113.38583"
   height="113.38583"
   viewBox="0 0 113.38583 113.38583"
   sodipodi:docname="11_1.svg"
   inkscape:version="0.92.4 (5da689c313, 2019-01-14)">
  <metadata
     id="metadata44">
    <rdf:RDF>
      <cc:Work
         rdf:about="">
        <dc:format>image/svg+xml</dc:format>
        <dc:type
           rdf:resource="http://purl.org/dc/dcmitype/StillImage" />
        <dc:title></dc:title>
      </cc:Work>
    </rdf:RDF>
  </metadata>
  <defs
     id="defs42" />
  <sodipodi:namedview
     pagecolor="#ffffff"
     bordercolor="#666666"
     borderopacity="1"
     objecttolerance="10"
     gridtolerance="10"
     guidetolerance="10"
     inkscape:pageopacity="0"
     inkscape:pageshadow="2"
     inkscape:window-width="1366"
     inkscape:window-height="715"
     id="namedview40"
     showgrid="false"
     inkscape:zoom="2.8284271"
     inkscape:cx="36.763481"
     inkscape:cy="36.623731"
     inkscape:window-x="-8"
     inkscape:window-y="-8"
     inkscape:window-maximized="1"
     inkscape:current-layer="svg38" />
  <g
     id="g48"
     transform="matrix(29.976109,0,0,29.987524,-0.0016571,-0.02605537)">
    <path
       style="fill:#fdd5b3;stroke-width:0.00960096"
       d="M 1.6081608,3.7675355 C 1.3638341,3.7408568 1.0649896,3.6273123 0.84062932,3.4759156 0.45507875,3.2157487 0.18966166,2.8519608 0.06213086,2.4088843 c -0.08259662,-0.286963 -0.08259662,-0.7480273 0,-1.0349903 C 0.25003776,0.72105461 0.75872698,0.22250647 1.4112955,0.05162592 1.5994719,0.00235038 1.906098,-0.01306879 2.1531396,0.01432113 2.3596502,0.0372173 2.5192808,0.08435561 2.7218722,0.18226563 3.2097727,0.41806219 3.5688346,0.84645514 3.7206474,1.373894 c 0.082597,0.286963 0.082597,0.7480273 0,1.0349903 C 3.5361188,3.0499867 3.0499867,3.5361188 2.4088843,3.7206474 2.2057196,3.7791244 1.8858373,3.7978557 1.6081608,3.7675355 Z M 1.9651897,3.5745959 c 0.035977,-0.024731 0.087663,-0.058215 0.114857,-0.074407 C 2.1072406,3.4839957 2.191489,3.4242592 2.2672654,3.3674407 2.3430417,3.3106221 2.5087309,3.1880294 2.6354636,3.0950125 2.7621962,3.0019955 2.8842484,2.90825 2.9066907,2.8866889 l 0.040804,-0.039202 V 1.871483 c 0,-0.95995231 -3.144e-4,-0.97640378 -0.019113,-1.00030236 C 2.9178697,0.85781663 2.8504335,0.80214847 2.7785236,0.74747362 2.7066138,0.69279878 2.627726,0.63219215 2.6032172,0.61279223 2.5787084,0.5933923 2.5262526,0.55461022 2.4866487,0.52660982 2.4470447,0.49860942 2.3755194,0.4451478 2.3277036,0.4078062 2.2798878,0.37046461 2.2237222,0.32953797 2.2028912,0.31685813 2.18206,0.30417827 2.1122803,0.25616558 2.0478248,0.21016326 1.9833692,0.16416093 1.9172208,0.12357686 1.900828,0.11997642 1.8643677,0.11196838 1.8380237,0.12827543 1.6753675,0.25953775 1.6120012,0.3106739 1.5126313,0.38617212 1.4545455,0.42731158 1.3964597,0.46845102 1.3122112,0.53036674 1.2673267,0.56490205 1.2224423,0.59943736 1.1489949,0.65076828 1.1041104,0.67897075 0.99314473,0.7486943 0.85799879,0.85445781 0.8455206,0.88133985 0.83206678,0.91032368 0.83109678,2.8353236 0.84452335,2.8604114 c 0.011052,0.020651 0.18865525,0.1565357 0.23870585,0.1826346 0.019406,0.010119 0.078487,0.050697 0.1312923,0.090174 0.052805,0.039477 0.1197719,0.089484 0.1488148,0.1111274 0.029043,0.021643 0.097594,0.072796 0.1523365,0.1136735 0.2706468,0.2020982 0.3530617,0.2605725 0.3679088,0.2610357 0.00891,2.774e-4 0.045631,-0.019729 0.081608,-0.044461 z m -0.1084275,-0.0021 C 1.8302984,3.5563624 1.4990809,3.3120291 1.2337234,3.1128951 1.1809181,3.073268 1.1247525,3.0347044 1.1089109,3.027198 1.0632434,3.005559 1.0474062,2.9949869 0.94731171,2.9193225 0.86248885,2.8552023 0.8534811,2.8454698 0.85846128,2.8233241 0.86768341,2.7823152 0.86478629,2.0056774 0.85336685,1.4576519 0.84303845,0.96198616 0.84331307,0.94090797 0.86055812,0.9056885 0.87380965,0.87862495 0.90599683,0.84963822 0.98391926,0.79459347 1.0419065,0.75363101 1.117514,0.70479239 1.1519361,0.68606322 1.2339919,0.64141619 1.3944405,0.52770488 1.538794,0.4118935 1.582226,0.3770488 1.631386,0.34151 1.648038,0.3329183 1.66469,0.3243263 1.68742,0.3025644 1.698548,0.2845577 1.709677,0.266551 1.743577,0.2354615 1.773882,0.21547 1.804187,0.1954785 1.840689,0.1712226 1.854996,0.161568 1.900692,0.1307334 1.915843,0.1362972 2.0272923,0.2248381 c 0.040424,0.0321146 0.10091,0.0776579 0.1344135,0.10120728 0.05508,0.0387154 0.1192623,0.0855019 0.3585454,0.26136631 0.042244,0.031048 0.114868,0.0854792 0.1613861,0.1209582 0.046518,0.035479 0.1087942,0.081789 0.1383912,0.10291115 0.029597,0.0211221 0.06574,0.0535254 0.080317,0.0720072 l 0.026504,0.0336034 0.00184,0.92169226 c 0.00101,0.5069306 0.00134,0.9383911 7.211e-4,0.9588011 -0.00116,0.038643 -0.031597,0.075475 -0.103039,0.1246977 -0.016454,0.011336 -0.073507,0.05384 -0.1267845,0.094452 -0.053278,0.040612 -0.1067825,0.079019 -0.1188992,0.08535 -0.012117,0.00633 -0.042367,0.030347 -0.067224,0.053372 -0.024856,0.023025 -0.04929,0.041863 -0.054297,0.041863 -0.00501,0 -0.027875,0.015724 -0.050816,0.034943 -0.053395,0.04473 -0.3594639,0.2626868 -0.3688811,0.2626868 -0.00392,0 -0.029114,0.016576 -0.055997,0.036836 -0.043679,0.032918 -0.085446,0.059237 -0.093851,0.059138 -0.00167,-1.92e-5 -0.016453,-0.00822 -0.032858,-0.018224 z"
       id="path62"
       inkscape:connector-curvature="0" />
    <path
       style="fill:#d22e4d;stroke-width:0.00960096"
       d="M 1.6907974,3.7718038 C 1.213129,3.7218733 0.75632078,3.4779762 0.4436094,3.1059106 0.11872485,2.7193614 -0.04347897,2.1937729 0.01015554,1.7013918 0.07248257,1.1292105 0.38112075,0.62124909 0.85517621,0.31064381 1.1916147,0.09020634 1.6378913,-0.02561341 2.0234024,0.00746035 c 0.695338,0.05965443 1.2643678,0.44293351 1.563983,1.05344575 0.2596193,0.5290141 0.2596193,1.131952 0,1.6609661 C 3.3976681,3.1084504 3.1084504,3.3976681 2.7218722,3.5873854 2.4012525,3.744733 2.0436727,3.8086898 1.6907974,3.7718038 Z M 1.964451,3.5931593 C 1.993224,3.5733573 2.035588,3.5463543 2.058595,3.5331533 2.081602,3.5199523 2.1689637,3.4583223 2.252733,3.3961987 2.7612951,3.0190468 2.9073979,2.9084057 2.9330937,2.8809736 l 0.028803,-0.030749 V 1.8673867 0.88454918 L 2.9330949,0.85448703 C 2.9028816,0.82295119 2.6294064,0.61143946 2.4938521,0.51476697 2.4502863,0.48369738 2.3825176,0.43249438 2.3432552,0.40098252 2.3039928,0.36947066 2.2305455,0.31626524 2.1800388,0.28274824 2.1295323,0.24923125 2.0543712,0.19725334 2.013014,0.16724178 1.9578198,0.12718907 1.9271755,0.1115282 1.8978025,0.10836253 1.8499512,0.10320539 1.827772,0.11666631 1.6561656,0.25501562 1.5927993,0.30610166 1.4977498,0.37837798 1.4449445,0.41562966 1.3921392,0.45288134 1.3126397,0.51114743 1.268279,0.54510985 1.2239182,0.57907229 1.1396698,0.63810547 1.0810602,0.67629471 0.93656202,0.77044794 0.83645673,0.85194611 0.82788316,0.88241236 c -0.003851,0.0136831 -0.007001,0.46381874 -0.007001,1.00030134 0,0.8523423 0.001815,0.9776095 0.0143819,0.9927513 0.0200779,0.024191 0.19006304,0.1519794 0.22878614,0.1719927 0.017571,0.00908 0.052134,0.031548 0.076808,0.049926 0.024673,0.018378 0.070783,0.052799 0.1024664,0.076491 0.031683,0.023692 0.085689,0.063842 0.120012,0.089221 0.034323,0.02538 0.1315332,0.097255 0.2160216,0.1597235 0.084488,0.062468 0.1811877,0.1344509 0.2148872,0.1599612 0.075893,0.05745 0.099701,0.058902 0.1702056,0.010379 z M 1.7738502,3.4971497 C 1.7183996,3.4562256 1.6267639,3.3881788 1.5702153,3.3459346 1.5136667,3.3036904 1.4040214,3.2218206 1.3265591,3.1640018 1.2490968,3.106183 1.1531833,3.0392163 1.113418,3.0151869 1.0736526,2.9911575 1.0033839,2.9434144 0.95726519,2.9090909 0.88238745,2.8533638 0.87405583,2.8441158 0.87941882,2.8226823 0.88929565,2.783209 0.88509509,1.8132056 0.87428413,1.6369637 0.86877755,1.5471947 0.86423037,1.3458841 0.86417929,1.1896069 0.86407548,0.87201394 0.85879996,0.89706254 0.93570253,0.85000818 0.95325335,0.83926936 0.99719873,0.809961 1.033359,0.78487849 c 0.074038,-0.0513562 0.09486,-0.0546087 0.1690582,-0.0264075 0.02778,0.0105584 0.066195,0.0191993 0.085369,0.0192019 0.045419,6.31e-6 0.1369956,-0.0349142 0.2502444,-0.0954246 0.056723,-0.0303078 0.1028968,-0.048585 0.1227408,-0.048585 0.040786,0 0.1263323,-0.0559479 0.1630514,-0.1066372 0.025481,-0.0351748 0.027631,-0.0455181 0.033243,-0.15990456 0.00858,-0.17482345 0.013901,-0.1984088 0.045613,-0.20207407 0.019669,-0.002273 0.047017,0.0134804 0.1166698,0.0672067 0.1198304,0.0924302 0.2785566,0.21100584 0.3702542,0.27659663 0.040603,0.0290429 0.1206416,0.089529 0.1778642,0.13441344 0.057223,0.0448845 0.1132129,0.0878075 0.1244229,0.0953845 0.01121,0.007577 0.033343,0.025435 0.049185,0.0396845 0.015842,0.0142495 0.040126,0.0318125 0.053965,0.039029 0.031882,0.016625 0.086039,0.0645024 0.1073037,0.0948619 0.015127,0.0215972 0.016349,0.0934383 0.016349,0.96131417 0,0.5158849 -0.00253,0.9445668 -0.00562,0.9526263 -0.00309,0.00806 -0.030072,0.033256 -0.059955,0.055991 -0.029882,0.022735 -0.084598,0.065253 -0.1215896,0.094483 -0.070136,0.05542 -0.089929,0.069757 -0.1536668,0.1113086 -0.021122,0.01377 -0.052256,0.03815 -0.069187,0.054179 -0.016931,0.016029 -0.045615,0.0382 -0.063742,0.049269 -0.018128,0.011069 -0.082043,0.057128 -0.1420341,0.1023529 -0.1557671,0.1174265 -0.2400584,0.1770563 -0.2778103,0.1965302 -0.018087,0.00933 -0.051868,0.031434 -0.075069,0.049121 -0.023202,0.017687 -0.049646,0.032158 -0.058765,0.032158 -0.00912,0 -0.061949,-0.033483 -0.1173994,-0.074407 z m 0.1492189,-0.32545 c 0.0169,-0.0087 0.082572,-0.061044 0.1459378,-0.1163179 C 2.1323732,3.0001076 2.2252625,2.9192315 2.2754276,2.8756571 2.3255926,2.8320827 2.4028614,2.7645337 2.447136,2.7255482 2.4914107,2.6865628 2.5486461,2.6373838 2.5743259,2.6162616 l 0.04669,-0.038404 -1.238e-4,-0.3840384 c -6.72e-5,-0.2112211 -0.00364,-0.3895768 -0.00793,-0.3963459 -0.00631,-0.00995 -0.017789,-0.00964 -0.059859,0.00161 -0.1278615,0.034177 -0.2828743,0.1105129 -0.4408883,0.2171158 -0.029043,0.019594 -0.070087,0.044433 -0.091209,0.055198 -0.021122,0.010765 -0.047045,0.029249 -0.057606,0.041073 -0.010561,0.011825 -0.06048,0.052846 -0.1109315,0.091158 -0.05402,0.041022 -0.1572342,0.1381828 -0.2510722,0.2363472 -0.1946098,0.2035825 -0.239418,0.2570253 -0.235931,0.2813954 0.0025,0.017452 0.5020785,0.4659165 0.5192036,0.4660791 0.00422,3.84e-5 0.021504,-0.00705 0.038404,-0.015746 z"
       id="path60"
       inkscape:connector-curvature="0" />
    <path
       style="fill:#905169;stroke-width:0.00960096"
       d="M 1.6907974,3.7718038 C 1.213129,3.7218733 0.75632078,3.4779762 0.4436094,3.1059106 0.11872485,2.7193614 -0.04347897,2.1937729 0.01015554,1.7013918 0.07248257,1.1292105 0.38112075,0.62124909 0.85517621,0.31064381 1.1916147,0.09020634 1.6378913,-0.02561341 2.0234024,0.00746035 c 0.695338,0.05965443 1.2643678,0.44293351 1.563983,1.05344575 0.2596193,0.5290141 0.2596193,1.131952 0,1.6609661 C 3.3976681,3.1084504 3.1084504,3.3976681 2.7218722,3.5873854 2.4012525,3.744733 2.0436727,3.8086898 1.6907974,3.7718038 Z M 1.964451,3.5931593 C 1.993224,3.5733573 2.035588,3.5463543 2.058595,3.5331533 2.081602,3.5199523 2.1689637,3.4583223 2.252733,3.3961987 2.7612951,3.0190468 2.9073979,2.9084057 2.9330937,2.8809736 l 0.028803,-0.030749 V 1.8673867 0.88454918 L 2.9330949,0.85448703 C 2.9028816,0.82295119 2.6294064,0.61143946 2.4938521,0.51476697 2.4502863,0.48369738 2.3825176,0.43249438 2.3432552,0.40098252 2.3039928,0.36947066 2.2305455,0.31626524 2.1800388,0.28274824 2.1295323,0.24923125 2.0543712,0.19725334 2.013014,0.16724178 1.9578198,0.12718907 1.9271755,0.1115282 1.8978025,0.10836253 1.8499512,0.10320539 1.827772,0.11666631 1.6561656,0.25501562 1.5927993,0.30610166 1.4977498,0.37837798 1.4449445,0.41562966 1.3921392,0.45288134 1.3126397,0.51114743 1.268279,0.54510985 1.2239182,0.57907229 1.1396698,0.63810547 1.0810602,0.67629471 0.93656202,0.77044794 0.83645673,0.85194611 0.82788316,0.88241236 c -0.003851,0.0136831 -0.007001,0.46381874 -0.007001,1.00030134 0,0.8523423 0.001815,0.9776095 0.0143819,0.9927513 0.0200779,0.024191 0.19006304,0.1519794 0.22878614,0.1719927 0.017571,0.00908 0.052134,0.031548 0.076808,0.049926 0.024673,0.018378 0.070783,0.052799 0.1024664,0.076491 0.031683,0.023692 0.085689,0.063842 0.120012,0.089221 0.034323,0.02538 0.1315332,0.097255 0.2160216,0.1597235 0.084488,0.062468 0.1811877,0.1344509 0.2148872,0.1599612 0.075893,0.05745 0.099701,0.058902 0.1702056,0.010379 z M 1.8408125,3.5472087 c -0.019708,-0.013392 -0.035832,-0.026882 -0.035832,-0.029979 0,-0.0031 0.00756,9.61e-5 0.016802,0.00708 0.014456,0.010939 0.015075,0.010784 0.00443,-0.00111 -0.0068,-0.0076 -0.019765,-0.013877 -0.028803,-0.013938 -0.00904,-5.76e-5 -0.015246,-0.00583 -0.013795,-0.012826 0.00145,-0.00699 -0.00115,-0.010372 -0.00579,-0.00751 -0.00463,0.00286 -0.016622,-0.00146 -0.026641,-0.0096 -0.010019,-0.00814 -0.011735,-0.011633 -0.00381,-0.00775 0.00792,0.00388 0.011521,0.00384 0.008,-8.64e-5 -0.00352,-0.00393 -0.00784,-0.00605 -0.0096,-0.00472 -0.00787,0.00596 -0.04635,-0.021946 -0.041374,-0.029997 0.00306,-0.00495 -4.445e-4,-0.0067 -0.00779,-0.00388 -0.00735,0.00282 -0.019455,-0.00238 -0.026901,-0.011554 -0.01156,-0.014242 -0.011568,-0.015493 -5.76e-5,-0.00855 0.00942,0.00568 0.011302,0.00459 0.00624,-0.0036 -0.00398,-0.00645 -0.00954,-0.00943 -0.012347,-0.00662 -0.00916,0.00916 -0.041699,-0.014097 -0.034965,-0.024991 0.0038,-0.00614 0.00218,-0.0079 -0.00384,-0.00418 -0.00571,0.00353 -0.022583,-0.00498 -0.037487,-0.018917 -0.014904,-0.013936 -0.018457,-0.019398 -0.0079,-0.012138 0.017468,0.012007 0.018055,0.011733 0.0065,-0.00303 -0.00699,-0.00893 -0.017788,-0.014323 -0.024002,-0.011991 -0.00621,0.00233 -0.024261,-0.00688 -0.040102,-0.020467 -0.015842,-0.013589 -0.022322,-0.02186 -0.014401,-0.018379 0.00792,0.00348 0.0036,-0.00261 -0.0096,-0.013537 -0.013201,-0.010926 -0.028523,-0.018254 -0.034048,-0.016286 -0.00553,0.00197 -0.024967,-0.00944 -0.043204,-0.025361 l -0.033158,-0.02894 0.038404,0.025883 0.038404,0.025883 -0.033442,-0.029664 c -0.018393,-0.016315 -0.038035,-0.027901 -0.043649,-0.025747 -0.00561,0.00215 -0.025128,-0.00911 -0.043366,-0.025023 l -0.033158,-0.02894 0.038404,0.025884 0.038404,0.025884 -0.033197,-0.029459 c -0.018258,-0.016202 -0.03809,-0.028395 -0.04407,-0.027096 -0.00598,0.0013 -0.040727,-0.019764 -0.077215,-0.046809 -0.036488,-0.027045 -0.080367,-0.057664 -0.09751,-0.068041 -0.017143,-0.010378 -0.027944,-0.022422 -0.024002,-0.026764 0.00394,-0.00434 -2.563e-4,-0.00524 -0.00933,-0.00198 -0.00907,0.00325 -0.01946,0.00111 -0.023086,-0.00475 -0.00432,-0.00699 -0.00194,-0.00801 0.00689,-0.00297 0.010734,0.00612 0.011106,0.00512 0.00182,-0.0049 -0.00641,-0.00692 -0.019631,-0.013176 -0.029373,-0.013894 -0.016059,-0.00118 -0.16538451,-0.1065844 -0.16538451,-0.1167381 0,-0.00689 0.0297705,0.013158 0.0864087,0.058187 0.0513264,0.040806 0.0728632,0.049761 0.0481974,0.020041 -0.00668,-0.00805 -0.017783,-0.014634 -0.024674,-0.014634 -0.0187122,0 -0.0523265,-0.047306 -0.0523265,-0.07364 0,-0.020359 -0.002326,-0.021801 -0.0199521,-0.012367 -0.0109737,0.00587 -0.0258161,0.00843 -0.0329831,0.00568 -0.007167,-0.00275 -0.0150299,1.574e-4 -0.0174732,0.00646 -0.002443,0.0063 -0.003986,0.00204 -0.003428,-0.00948 5.58e-4,-0.011516 0.003478,-0.020157 0.006489,-0.019202 0.003011,9.543e-4 0.0213759,-0.014142 0.0408111,-0.033548 0.0194352,-0.019406 0.0452378,-0.036688 0.0573391,-0.038404 0.0315806,-0.00448 0.13709091,-0.1468834 0.14519831,-0.1959706 0.00341,-0.020665 0.0062,-0.2039095 0.0062,-0.4072098 -9e-6,-0.4024262 -0.00368,-0.4375359 -0.052925,-0.5060429 C 1.05464,1.6000122 0.95082273,1.5135189 0.90489049,1.4892745 0.8847536,1.4786457 0.88315364,1.4708945 0.88130257,1.3749998 l -0.001986,-0.1028726 -0.005629,0.1344135 c -0.00416,0.099339 -0.006148,0.051549 -0.007615,-0.183145 l -0.001986,-0.31755828 0.023391,-0.0219747 c 0.0221306,-0.0207906 0.0231165,-0.0209251 0.0182971,-0.002496 -0.003581,0.0136949 0.001464,0.0229886 0.0169898,0.0312979 0.012146,0.0065 0.0622409,0.0500745 0.11132203,0.0968316 0.058188,0.055433 0.096753,0.084999 0.1108343,0.084972 0.028757,-5.76e-5 0.081756,-0.036503 0.1906477,-0.13110888 C 1.3851645,0.9202696 1.4504016,0.864104 1.4805402,0.83854677 1.5872351,0.74807057 1.6946056,0.64905468 1.6972804,0.63867124 c 0.00149,-0.005787 0.024356,-0.0246927 0.050811,-0.0420115 0.026455,-0.0173188 0.060879,-0.0491295 0.076497,-0.0706903 0.015618,-0.0215608 0.028529,-0.035313 0.028689,-0.0305603 1.603e-4,0.004753 0.004,0.002161 0.00853,-0.00576 0.014143,-0.0247112 0.022765,-0.13155653 0.011194,-0.13870823 -0.00598,-0.003696 -0.010011,-0.0338089 -0.00946,-0.0706793 0.00211,-0.1417328 0.024653,-0.14894796 0.1542969,-0.0493889 0.049264,0.0378316 0.1370953,0.10420641 0.1951811,0.14749966 0.058086,0.0432932 0.1056106,0.0834899 0.1056106,0.0893258 0,0.0125038 0.051661,0.0550988 0.058514,0.0482456 0.00258,-0.002584 -0.00953,-0.0138044 -0.026908,-0.0249352 -0.017383,-0.0111308 -0.027285,-0.0202146 -0.022005,-0.0201861 0.015342,8.257e-5 0.057606,0.0357988 0.057606,0.0486813 0,0.006462 0.006,0.0137502 0.013338,0.0161954 0.00912,0.003041 0.010912,2.5952e-4 0.00566,-0.008801 -0.00453,-0.007821 -0.0041,-0.00997 0.00106,-0.005246 0.00481,0.0044 0.00874,0.0126813 0.00874,0.0184018 0,0.005721 0.006,0.0124017 0.013338,0.0148469 0.00912,0.003041 0.010912,2.5952e-4 0.00566,-0.008801 -0.00453,-0.007821 -0.0041,-0.00997 0.00106,-0.005246 0.00481,0.0044 0.00874,0.0126813 0.00874,0.0184018 0,0.005721 0.006,0.0124017 0.013338,0.0148469 0.00912,0.003041 0.010912,2.5952e-4 0.00566,-0.008801 -0.00422,-0.007286 -0.00446,-0.0103665 -5.367e-4,-0.006846 0.00393,0.00352 0.0057,0.008467 0.00394,0.0109932 -0.0045,0.006456 0.031528,0.0450124 0.042059,0.0450124 0.00477,0 0.00557,-0.005401 0.00177,-0.0120012 -0.0038,-0.006601 -0.00369,-0.009121 2.333e-4,-0.005601 0.00393,0.00352 0.00715,0.010001 0.00716,0.0144014 1.92e-5,0.0116234 0.018446,0.0320032 0.028929,0.0320032 0.00495,0 0.00575,-0.005401 0.00178,-0.0120012 -0.0049,-0.008155 -0.002,-0.007778 0.00903,0.001176 0.019044,0.0154477 0.021435,0.0241816 0.00424,0.0154982 -0.0066,-0.003334 -1.2e-4,0.004134 0.014401,0.0165957 0.03726,0.031974 0.033047,0.0513841 -0.018867,0.0869403 -0.024898,0.0170529 -0.064862,0.0487636 -0.088809,0.0704682 -0.023946,0.0217046 -0.053315,0.0445683 -0.065263,0.0508082 -0.01767,0.009228 -0.019882,0.0147871 -0.011855,0.0297861 0.013376,0.0249938 0.1593608,0.14705383 0.2108692,0.17631103 0.040295,0.022888 0.042579,0.02312 0.075155,0.00763 0.043096,-0.020489 0.1325472,-0.10195049 0.1608058,-0.14644388 0.023079,-0.0363386 0.055399,-0.0442455 0.072218,-0.0176679 0.00503,0.007942 0.00875,0.41031298 0.00883,0.95488388 1.325e-4,0.8482594 -0.00137,0.943328 -0.015251,0.9631413 -0.00847,0.012091 -0.021024,0.019824 -0.027901,0.017185 -0.00688,-0.00264 -0.02047,0.00463 -0.030207,0.016157 -0.01747,0.020679 -0.017444,0.020765 0.00203,0.00655 0.010851,-0.00792 0.0066,-0.00244 -0.00944,0.012169 -0.016043,0.014614 -0.034237,0.024626 -0.04043,0.02225 -0.00619,-0.00238 -0.019227,0.00511 -0.028964,0.016634 l -0.017704,0.020955 0.024002,-0.019133 0.024002,-0.019133 -0.023276,0.026334 c -0.022123,0.025029 -0.046931,0.037121 -0.03433,0.016733 0.00966,-0.015628 -0.00136,-0.010943 -0.015626,0.00664 -0.011365,0.014011 -0.011197,0.015078 0.00122,0.00776 0.012457,-0.00734 0.012608,-0.00628 0.00112,0.00788 -0.00731,0.009 -0.02017,0.015234 -0.028587,0.013844 -0.00842,-0.00139 -0.015402,0.00347 -0.015521,0.010804 -2.045e-4,0.012634 -0.015869,0.025046 -0.105826,0.083849 -0.021122,0.013807 -0.052256,0.038218 -0.069187,0.054247 -0.016931,0.016029 -0.045615,0.0382 -0.063742,0.049269 -0.018128,0.011069 -0.082043,0.057128 -0.1420341,0.1023529 -0.1557671,0.1174265 -0.2400584,0.1770563 -0.2778103,0.1965302 -0.018087,0.00933 -0.051868,0.031434 -0.075069,0.049121 -0.050604,0.038576 -0.062656,0.039438 -0.109202,0.00781 z M 1.5553555,3.3183073 c 0,-0.00199 -0.00756,-0.00955 -0.016802,-0.016802 -0.015228,-0.011942 -0.015567,-0.011603 -0.00362,0.00362 0.012542,0.015993 0.020427,0.021079 0.020427,0.013177 z M 1.9355329,3.1683169 c 0.00187,0 0.058585,-0.047977 0.1260403,-0.1066164 C 2.3271667,2.8308182 2.3694572,2.7939473 2.447136,2.7255482 2.4914107,2.6865628 2.5486461,2.6373838 2.5743259,2.6162616 l 0.04669,-0.038404 0.00196,-0.3840384 c 0.00108,-0.2112211 0.00158,-0.3948395 0.00112,-0.4080408 -0.00332,-0.094682 -0.016719,-0.2274928 -0.023869,-0.2365978 -0.00474,-0.00604 -0.035898,-0.016122 -0.06924,-0.022414 -0.053333,-0.010063 -0.074357,-0.00885 -0.1748935,0.010057 -0.1276244,0.024006 -0.1843662,0.04854 -0.3489044,0.150857 -0.08481,0.052738 -0.1290247,0.090666 -0.2702132,0.231792 -0.092846,0.092805 -0.1897355,0.1989788 -0.21531,0.2359425 -0.025574,0.036964 -0.075495,0.1082508 -0.1109345,0.1584158 -0.063819,0.090336 -0.1443085,0.2395919 -0.156572,0.2903383 -0.00545,0.022559 0.00107,0.03439 0.045706,0.082945 0.054867,0.059681 0.1321375,0.1327077 0.237418,0.2243768 0.061917,0.053912 0.083778,0.067413 0.069956,0.043204 -0.00377,-0.0066 0.00678,6.884e-4 0.023436,0.016198 0.037195,0.034629 0.040421,0.046488 0.00389,0.014279 l -0.026403,-0.023276 0.022624,0.025709 c 0.012443,0.01414 0.027701,0.023761 0.033905,0.02138 0.0062,-0.00238 0.026267,0.011932 0.044583,0.031805 0.029924,0.032469 0.03038,0.033718 0.0045,0.012314 -0.026144,-0.021621 -0.025749,-0.020505 0.00428,0.012092 0.031948,0.034677 0.056833,0.048565 0.042846,0.023911 -0.00375,-0.0066 0.00896,0.00289 0.028236,0.021085 0.043407,0.040981 0.046628,0.052981 0.00384,0.014314 l -0.031203,-0.028199 0.027505,0.030479 c 0.015128,0.016763 0.033053,0.02835 0.039833,0.025748 0.011235,-0.00431 0.026367,0.00983 0.029725,0.027782 7.412e-4,0.00396 0.00189,0.00942 0.00255,0.01213 6.596e-4,0.00271 0.016849,-0.00161 0.035976,-0.0096 0.019127,-0.00799 0.036304,-0.01453 0.038171,-0.014529 z M 1.530441,2.8874888 l -0.01829,-0.021602 0.021602,0.01829 c 0.020301,0.017188 0.025973,0.024915 0.01829,0.024915 -0.00182,0 -0.011543,-0.00972 -0.021602,-0.021603 z M 1.44852,2.8154818 c -0.011942,-0.015228 -0.011603,-0.015567 0.00362,-0.00362 0.015993,0.012542 0.021079,0.020427 0.013177,0.020427 -0.00199,0 -0.00955,-0.00756 -0.016802,-0.016802 z m -0.1427894,0.319514 c 0,-0.00738 -0.1671795,-0.1295967 -0.1774896,-0.1297523 -0.00521,-7.68e-5 0.012072,0.014794 0.038404,0.03305 0.026332,0.018256 0.067319,0.04821 0.091081,0.066564 0.046696,0.036068 0.048005,0.03689 0.048005,0.030138 z M 2.8994283,0.92336552 c -0.00765,-0.0125523 -0.00852,-0.0103807 -0.00393,0.00991 0.00497,0.0220076 0.00218,0.0269097 -0.018207,0.0320274 -0.028046,0.007039 -0.1599055,0.13937648 -0.1823284,0.18298868 -0.037076,0.072112 -0.039172,0.404635 -0.00332,0.5270759 0.018449,0.063012 0.1039921,0.2548349 0.1298152,0.2910999 0.033802,0.047471 0.07788,0.1484765 0.080361,0.1841477 0.00129,0.018482 0.00348,-0.2464717 0.00488,-0.5887857 0.00168,-0.4110515 -7.873e-4,-0.62784741 -0.00726,-0.63846386 z"
       id="path58"
       inkscape:connector-curvature="0" />
    <path
       style="fill:#b00b49;stroke-width:0.00960096"
       d="m 1.7033661,3.7648779 c 0.00282,-0.00456 -0.023927,-0.01127 -0.059439,-0.0149 C 1.5445377,3.7398173 1.4105903,3.7082697 1.2877194,3.6660829 0.80542208,3.5004897 0.40857873,3.1467213 0.19623143,2.6930693 0.1189059,2.5278736 0.05951248,2.330464 0.0366659,2.1627116 0.03010943,2.1145703 0.02195877,2.0769041 0.01855333,2.0790087 0.00874657,2.0850696 0.00129131,1.9008445 0.00708697,1.795666 0.00998802,1.7430183 0.01514788,1.7016649 0.01855333,1.7037696 0.02195877,1.7058742 0.03010943,1.668208 0.0366659,1.6200667 0.10568035,1.113324 0.40157225,0.63856209 0.83048305,0.34637815 0.92543171,0.28169693 1.0256473,0.2255673 1.0330197,0.23293967 1.0351097,0.23503367 0.99256,0.26880767 0.9384557,0.30799257 0.78576735,0.41857658 0.6623097,0.54769238 0.55795335,0.70593358 0.42298276,0.91059683 0.3632746,1.0441039 0.30688235,1.2673267 c -0.0558648,0.2211352 -0.0662002,0.3113526 -0.0665433,0.5808581 -2.2322e-4,0.1753181 0.004223,0.2648637 0.0185938,0.3744375 0.0162536,0.1239329 0.0560167,0.3048857 0.0730543,0.3324531 0.002939,0.00475 0.0137672,0.039045 0.0240635,0.0762 0.0231896,0.083682 0.11287708,0.2638441 0.18848598,0.3786254 C 0.65578669,3.1787886 0.80867434,3.336915 0.96373617,3.4434642 1.1052583,3.5407102 1.3438686,3.6473632 1.5169518,3.690739 1.6385156,3.721204 1.6608478,3.724683 1.7928301,3.733724 1.9514567,3.74459 2.0942168,3.7327802 2.2344031,3.697194 2.6055173,3.602986 2.8638172,3.4519182 3.0885063,3.1976667 3.1698802,3.1055867 3.2834332,2.9373208 3.3400951,2.8248566 3.4269941,2.6523776 3.500797,2.385114 3.5342364,2.1218118 c 0.023931,-0.1884345 0.00784,-0.5645401 -0.02958,-0.6912058 -0.00545,-0.018447 -0.00991,-0.04496 -0.00991,-0.058918 0,-0.013958 -0.010922,-0.061511 -0.024271,-0.1056739 C 3.4571288,1.2218516 3.4376215,1.1563741 3.4271283,1.1205087 3.4001804,1.0284008 3.2680788,0.76972326 3.1957235,0.66737819 3.0881208,0.5151767 2.9067541,0.34109748 2.7639499,0.25295369 c -0.031224,-0.0192724 -0.054747,-0.0370645 -0.052273,-0.0395381 0.00807,-0.008073 0.14245,0.0662181 0.2406184,0.13302688 0.4286536,0.29172132 0.7248011,0.76686933 0.7938172,1.27362423 0.00656,0.048141 0.014707,0.085808 0.018112,0.083703 0.00981,-0.00606 0.017262,0.1781642 0.011467,0.2833427 -0.0029,0.052648 -0.00806,0.094001 -0.011467,0.091896 -0.00341,-0.0021 -0.011556,0.035562 -0.018112,0.083703 -0.081821,0.600779 -0.4811018,1.147258 -1.0328218,1.4135817 -0.1840623,0.08885 -0.4085557,0.1567265 -0.574439,0.1736844 -0.035513,0.00363 -0.062261,0.010335 -0.059439,0.0149 0.00282,0.00456 -0.081789,0.0083 -0.1880231,0.0083 -0.1062338,0 -0.1908442,-0.00373 -0.1880235,-0.0083 z M 1.8685357,3.5509197 C 1.8586066,3.5451337 1.7898989,3.4944848 1.715852,3.4383666 1.641805,3.3822485 1.56136,3.3214614 1.5370852,3.3032843 1.2406099,3.0812806 1.1579651,3.0219362 1.1089109,2.9958265 c -0.031683,-0.016864 -0.065527,-0.041118 -0.075208,-0.053898 -0.00968,-0.01278 -0.023409,-0.023237 -0.030506,-0.023237 -0.0188454,0 -0.0527013,-0.046958 -0.0527013,-0.073096 0,-0.020582 -0.00207,-0.021559 -0.0242628,-0.011447 -0.0163668,0.00746 -0.0274248,0.00789 -0.0339789,0.00134 -0.0130715,-0.013071 0.0587978,-0.087012 0.0886902,-0.091247 0.0319301,-0.00452 0.1373798,-0.1465329 0.1455528,-0.1960171 0.00341,-0.020665 0.0062,-0.2039095 0.0062,-0.4072098 C 1.1326846,1.7379064 1.1290634,1.7035487 1.0792865,1.6342999 1.0570253,1.6033306 0.97893464,1.5382784 0.90013725,1.4850625 0.8850969,1.474905 0.88272966,1.4450465 0.87699859,1.1932076 c -0.005706,-0.25073429 -0.004771,-0.28115901 0.008804,-0.28636789 0.0234033,-0.008981 0.0515577,0.0105105 0.14828421,0.10265689 0.058481,0.055712 0.096741,0.085013 0.1110059,0.085013 0.028097,0 0.080464,-0.035219 0.1702393,-0.11449255 0.039604,-0.0349713 0.09577,-0.0828233 0.1248125,-0.10633764 0.029043,-0.0235144 0.088951,-0.0762116 0.1331281,-0.11710503 0.044178,-0.0408934 0.1063353,-0.0928382 0.1381282,-0.11543294 0.1525528,-0.1084167 0.1612713,-0.12441665 0.1653312,-0.30340811 0.00164,-0.0722219 0.00607,-0.13887334 0.00985,-0.14811427 0.01178,-0.028824 0.03697,-0.0189493 0.1224592,0.0480048 0.045511,0.0356436 0.1223286,0.0950495 0.1707064,0.13201321 0.048378,0.0369637 0.1015789,0.0785843 0.1182249,0.0924902 0.016646,0.0139059 0.060509,0.0463115 0.097472,0.0720124 0.1378989,0.0958814 0.2064206,0.15200774 0.2064206,0.16907999 0,0.009774 -0.019616,0.030683 -0.04527,0.0482534 -0.024898,0.0170529 -0.064862,0.0487636 -0.088809,0.0704682 -0.023947,0.0217046 -0.053315,0.0445683 -0.065263,0.0508082 -0.01767,0.009228 -0.019882,0.0147871 -0.011855,0.0297861 0.013376,0.0249938 0.1593608,0.14705394 0.2108692,0.17631114 0.040343,0.022915 0.042563,0.023139 0.075939,0.00763 0.034058,-0.015823 0.1458766,-0.12106208 0.1744413,-0.16417853 0.013975,-0.0210951 0.015772,-0.0214412 0.031203,-0.00601 0.023022,0.0230216 0.020354,0.0424404 -0.00677,0.0492469 -0.02732,0.006857 -0.1593462,0.13987383 -0.1813925,0.18275373 -0.037117,0.072193 -0.039167,0.4050554 -0.00325,0.5270759 0.019589,0.066542 0.097302,0.2403575 0.1308534,0.2926715 0.015296,0.023849 0.039921,0.069285 0.054723,0.1009679 l 0.026913,0.057606 0.00335,0.3108461 c 0.00184,0.1709655 5.732e-4,0.3293782 -0.00282,0.3520283 -0.00539,0.035962 -0.013113,0.046443 -0.060914,0.082693 -0.065293,0.049516 -0.1968296,0.1514507 -0.2371565,0.1837858 -0.015842,0.012702 -0.039604,0.028574 -0.052805,0.035272 -0.013201,0.0067 -0.037855,0.025284 -0.054786,0.041304 -0.016931,0.01602 -0.04566,0.038184 -0.063844,0.049253 -0.018183,0.011069 -0.090739,0.063549 -0.1612359,0.1166224 -0.070497,0.053073 -0.1562584,0.115397 -0.1905818,0.1384974 -0.034324,0.0231 -0.086807,0.058491 -0.1166302,0.078645 -0.067182,0.045402 -0.07573,0.048479 -0.098243,0.03536 z m 0.068796,-0.3703532 c 0.02487,-0.015794 0.2403106,-0.1988638 0.3425525,-0.2910819 0.026592,-0.023985 0.076432,-0.066998 0.1107551,-0.095586 0.034323,-0.028587 0.086298,-0.07377 0.1154998,-0.1004057 0.029202,-0.026636 0.071326,-0.064314 0.093609,-0.08373 L 2.640264,2.5744623 2.6395689,2.3313356 C 2.6386032,1.993648 2.6174078,1.5704284 2.6003977,1.5491808 c -0.00483,-0.00604 -0.036066,-0.016122 -0.069407,-0.022414 -0.053333,-0.010063 -0.074357,-0.00885 -0.1748935,0.010057 -0.1276244,0.024006 -0.1843662,0.04854 -0.3489044,0.150857 -0.08481,0.052738 -0.1290247,0.090666 -0.2702132,0.231792 -0.092846,0.092805 -0.1897355,0.1989788 -0.21531,0.2359425 -0.025575,0.036964 -0.075495,0.1082508 -0.1109345,0.1584158 -0.063819,0.090336 -0.1443085,0.2395919 -0.1565721,0.2903383 -0.00547,0.022617 0.00118,0.03451 0.047312,0.084692 0.064713,0.070392 0.1541697,0.1530595 0.3018849,0.2789747 0.060726,0.051764 0.1449745,0.1243995 0.1872188,0.1614122 0.081632,0.071523 0.1031105,0.079034 0.146753,0.051318 z"
       id="path56"
       inkscape:connector-curvature="0" />
    <path
       style="fill:#643c57;stroke-width:0.00960096"
       d="m 1.7033661,3.7648779 c 0.00282,-0.00456 -0.023927,-0.01127 -0.059439,-0.0149 C 1.5445377,3.7398173 1.4105903,3.7082697 1.2877194,3.6660829 0.80542208,3.5004897 0.40857873,3.1467213 0.19623143,2.6930693 0.1189059,2.5278736 0.05951248,2.330464 0.0366659,2.1627116 0.03010943,2.1145703 0.02195877,2.0769041 0.01855333,2.0790087 0.00874657,2.0850696 0.00129131,1.9008445 0.00708697,1.795666 0.00998802,1.7430183 0.01514788,1.7016649 0.01855333,1.7037696 0.02195877,1.7058742 0.03010943,1.668208 0.0366659,1.6200667 0.10568035,1.113324 0.40157225,0.63856209 0.83048305,0.34637815 0.92543171,0.28169693 1.0256473,0.2255673 1.0330197,0.23293967 1.0351097,0.23503367 0.99256,0.26880767 0.9384557,0.30799257 0.78576735,0.41857658 0.6623097,0.54769238 0.55795335,0.70593358 0.42298276,0.91059683 0.3632746,1.0441039 0.30688235,1.2673267 c -0.0558648,0.2211352 -0.0662002,0.3113526 -0.0665433,0.5808581 -2.2322e-4,0.1753181 0.004223,0.2648637 0.0185938,0.3744375 0.0162536,0.1239329 0.0560167,0.3048857 0.0730543,0.3324531 0.002939,0.00475 0.0137672,0.039045 0.0240635,0.0762 0.0231896,0.083682 0.11287708,0.2638441 0.18848598,0.3786254 C 0.65578669,3.1787886 0.80867434,3.336915 0.96373617,3.4434642 1.1052583,3.5407102 1.3438686,3.6473632 1.5169518,3.690739 1.6385156,3.721204 1.6608478,3.724683 1.7928301,3.733724 1.9514567,3.74459 2.0942168,3.7327802 2.2344031,3.697194 2.6055173,3.602986 2.8638172,3.4519182 3.0885063,3.1976667 3.1698802,3.1055867 3.2834332,2.9373208 3.3400951,2.8248566 3.4269941,2.6523776 3.500797,2.385114 3.5342364,2.1218118 c 0.023931,-0.1884345 0.00784,-0.5645401 -0.02958,-0.6912058 -0.00545,-0.018447 -0.00991,-0.04496 -0.00991,-0.058918 0,-0.013958 -0.010922,-0.061511 -0.024271,-0.1056739 C 3.4571288,1.2218516 3.4376215,1.1563741 3.4271283,1.1205087 3.4001804,1.0284008 3.2680788,0.76972326 3.1957235,0.66737819 3.0881208,0.5151767 2.9067541,0.34109748 2.7639499,0.25295369 c -0.031224,-0.0192724 -0.054747,-0.0370645 -0.052273,-0.0395381 0.00807,-0.008073 0.14245,0.0662181 0.2406184,0.13302688 0.4286536,0.29172132 0.7248011,0.76686933 0.7938172,1.27362423 0.00656,0.048141 0.014707,0.085808 0.018112,0.083703 0.00981,-0.00606 0.017262,0.1781642 0.011467,0.2833427 -0.0029,0.052648 -0.00806,0.094001 -0.011467,0.091896 -0.00341,-0.0021 -0.011556,0.035562 -0.018112,0.083703 -0.081821,0.600779 -0.4811018,1.147258 -1.0328218,1.4135817 -0.1840623,0.08885 -0.4085557,0.1567265 -0.574439,0.1736844 -0.035513,0.00363 -0.062261,0.010335 -0.059439,0.0149 0.00282,0.00456 -0.081789,0.0083 -0.1880231,0.0083 -0.1062338,0 -0.1908442,-0.00373 -0.1880235,-0.0083 z M 1.755937,3.4628048 C 1.6840786,3.4090872 1.6138716,3.3515516 1.5999214,3.3349477 1.5753259,3.3056736 1.5745575,3.3009418 1.5745575,3.1787809 c 0,-0.1112253 0.013018,-0.2028615 0.02874,-0.2023138 0.00267,9.6e-5 0.058868,0.04802 0.1248751,0.106504 0.066007,0.058484 0.1294153,0.1108017 0.1409081,0.1162615 0.016597,0.00788 0.028449,0.00533 0.057606,-0.012426 0.032902,-0.020034 0.2258232,-0.1824357 0.3531973,-0.2973221 0.026592,-0.023985 0.076432,-0.066998 0.1107551,-0.095586 0.034323,-0.028587 0.086298,-0.07377 0.1154998,-0.1004057 0.029202,-0.026636 0.071804,-0.064743 0.094672,-0.084683 L 2.642389,2.5725547 2.6369331,2.1623649 C 2.6339323,1.9367606 2.624594,1.6506451 2.6161814,1.5265527 2.6077688,1.4024603 2.6016019,1.2750075 2.6024774,1.2433243 c 8.756e-4,-0.031683 0.00109,-0.061066 4.867e-4,-0.065295 -6.077e-4,-0.00423 -0.015168,0.00304 -0.032358,0.016149 -0.079817,0.06088 -0.2279719,0.10494 -0.2279719,0.067797 0,-0.01354 0.052251,-0.094273 0.112845,-0.174357 0.012856,-0.016991 0.021888,-0.034874 0.020072,-0.039739 -0.00465,-0.012438 -0.084886,-0.0781828 -0.095421,-0.0781828 -0.00478,0 -0.00869,0.0103128 -0.00869,0.0229174 0,0.0126045 -0.014041,0.0439276 -0.031203,0.0696069 -0.027306,0.040858 -0.044461,0.053285 -0.1373509,0.099495 -0.058381,0.029043 -0.1188674,0.061962 -0.1344135,0.073154 -0.015546,0.011192 -0.045547,0.02917 -0.066669,0.039953 C 1.9607824,1.2957614 1.8265786,1.4069712 1.7346103,1.4962332 1.625222,1.6024026 1.3921392,1.8972697 1.3921392,1.9294846 c 0,0.013135 0.00547,0.012537 0.037663,-0.00411 0.027682,-0.014315 0.039144,-0.011367 0.039144,0.010067 0,0.00663 -0.020072,0.041551 -0.044604,0.077608 C 1.311999,2.1781687 1.1839241,2.4295445 1.175619,2.5012262 c -0.00887,0.076565 -0.013398,0.091033 -0.028487,0.091033 -0.012326,0 -0.014255,-0.053353 -0.014492,-0.40084 C 1.1324892,1.9709571 1.12839,1.7106511 1.12352,1.6129613 L 1.11468,1.4353435 1.062195,1.3861025 C 1.033328,1.3590195 0.984506,1.3227625 0.95370145,1.3055295 0.92289685,1.2882965 0.89229255,1.2675055 0.88569185,1.2593265 0.87050825,1.2405115 0.86847035,0.91645118 0.88347685,0.90717636 0.89685055,0.89891136 0.97209235,0.95606276 1.041707,1.0273641 1.07339,1.0598151 1.111274,1.0926711 1.125893,1.1003771 1.150968,1.1135951 1.155048,1.1126321 1.1979,1.0833811 1.243649,1.0521531 1.3720376,0.94212764 1.5490233,0.78247875 1.6517004,0.68985945 1.7365938,0.61957156 1.7775836,0.59324123 c 0.013973,-0.008976 0.041459,-0.0359104 0.061079,-0.0598541 l 0.035673,-0.043534 0.00284,-0.141716 c 0.00156,-0.0779438 0.00586,-0.14927675 0.00955,-0.15851768 0.011603,-0.029012 0.036964,-0.0188367 0.1253256,0.0502838 0.047168,0.036897 0.1260629,0.0984632 0.1753217,0.13681369 0.1323953,0.10307665 0.129104,0.0988751 0.09888,0.12622772 -0.014153,0.0128084 -0.016957,0.0253447 -0.013174,0.0589057 0.00338,0.030016 1.142e-4,0.0497941 -0.011045,0.0668249 -0.026935,0.0411075 -0.053811,0.0267063 -0.053811,-0.0288334 0,-0.0124578 -0.00347,-0.0247942 -0.00771,-0.0274142 -0.011003,-0.0068 -0.097903,0.0515454 -0.097903,0.065733 0,0.006504 0.024843,0.0335362 0.055206,0.0600716 0.030363,0.0265354 0.1086934,0.10089559 0.1740676,0.16524486 0.1185095,0.11665156 0.2184511,0.20184688 0.276672,0.23584938 0.025952,0.015157 0.034678,0.016115 0.056446,0.0062 0.035966,-0.016387 0.040273,-0.00647 0.012984,0.029909 -0.022245,0.029652 -0.02345,0.03861 -0.026141,0.1943014 -0.00155,0.089769 9.102e-4,0.241435 0.00547,0.3370357 l 0.00829,0.1738195 0.041161,0.086613 c 0.032332,0.068035 0.039784,0.092884 0.03474,0.115847 -0.0075,0.034126 0.025221,0.1190609 0.1070799,0.2779867 l 0.051859,0.1006819 0.00574,0.1598815 c 0.00632,0.1758641 -5.72e-5,0.2506847 -0.02136,0.2506847 -0.00742,0 -0.02818,-0.00701 -0.046137,-0.01557 -0.034874,-0.016631 -0.029723,-0.017695 -0.1616553,0.033389 l -0.025637,0.00993 0.018437,0.036162 c 0.033937,0.066566 0.023059,0.089442 -0.076901,0.1617149 -0.02191,0.015842 -0.059336,0.044975 -0.083168,0.06474 -0.023832,0.019766 -0.051695,0.040414 -0.061918,0.045885 -0.010223,0.00547 -0.086682,0.060951 -0.1699097,0.1232898 -0.158843,0.1189752 -0.358165,0.2582082 -0.3790576,0.2647843 -0.00676,0.00213 -0.071082,-0.040083 -0.1429409,-0.0938 z M 1.753997,1.3953062 c 0.048527,-0.041346 0.1076391,-0.098937 0.1313604,-0.1279795 0.023721,-0.029043 0.062308,-0.068756 0.085747,-0.088251 0.02344,-0.019495 0.054646,-0.056219 0.069347,-0.081608 0.014701,-0.025389 0.0392,-0.062133 0.054443,-0.081651 0.026688,-0.0341735 0.056687,-0.13476144 0.043981,-0.14746779 -0.00328,-0.003283 -0.022507,0.0126298 -0.04272,0.0353628 -0.020212,0.022733 -0.071532,0.0787951 -0.1140426,0.12458249 -0.042511,0.045787 -0.091599,0.1100915 -0.1090845,0.1428978 -0.017486,0.032806 -0.058508,0.088379 -0.09116,0.1234959 -0.060707,0.065288 -0.1040783,0.1190683 -0.1358789,0.1684888 -0.017653,0.027434 -0.017639,0.027686 9.333e-4,0.017568 0.010364,-0.00565 0.058547,-0.044093 0.1070743,-0.085438 z"
       id="path54"
       inkscape:connector-curvature="0" />
    <path
       style="fill:#90032a;stroke-width:0.00960096"
       d="M 1.7510807,3.4584104 C 1.681832,3.4071098 1.6137852,3.3515516 1.5998656,3.3349477 1.5753417,3.3056944 1.5745575,3.300855 1.5745575,3.1787809 c 0,-0.1112209 0.013011,-0.2028219 0.02874,-0.2023317 0.00267,8.64e-5 0.056708,0.045982 0.1200746,0.1019973 0.1522358,0.1345746 0.150862,0.1337222 0.1896757,0.1176984 0.017131,-0.00707 0.061389,-0.039068 0.098353,-0.071102 0.036964,-0.032034 0.1140884,-0.099129 0.1713883,-0.1490991 0.0573,-0.04997 0.1444051,-0.1254188 0.1935671,-0.1676631 C 2.4255185,2.7660366 2.5054809,2.6970197 2.5540508,2.65491 L 2.6423598,2.578347 2.6369298,2.1652612 C 2.6339432,1.9380638 2.6246117,1.6506451 2.6161928,1.5265527 2.6077739,1.4024603 2.6016019,1.2750075 2.6024774,1.2433243 c 8.756e-4,-0.031683 0.00109,-0.061066 4.867e-4,-0.065295 -6.077e-4,-0.00423 -0.015168,0.00304 -0.032358,0.016149 -0.079817,0.06088 -0.2279719,0.10494 -0.2279719,0.067797 0,-0.01354 0.052251,-0.094273 0.112845,-0.174357 0.012856,-0.016991 0.021888,-0.034874 0.020072,-0.039739 -0.00465,-0.012438 -0.084886,-0.0781828 -0.095421,-0.0781828 -0.00478,0 -0.00869,0.0103128 -0.00869,0.0229174 0,0.0126045 -0.014041,0.0439276 -0.031203,0.0696069 -0.027306,0.040858 -0.044461,0.053285 -0.1373509,0.099495 -0.058381,0.029043 -0.1188674,0.061962 -0.1344135,0.073154 -0.015546,0.011192 -0.045547,0.02917 -0.066669,0.039953 C 1.9607824,1.2957614 1.8265786,1.4069712 1.7346103,1.4962332 1.625222,1.6024026 1.3921392,1.8972697 1.3921392,1.9294846 c 0,0.013135 0.00547,0.012537 0.037663,-0.00411 0.027682,-0.014315 0.039144,-0.011367 0.039144,0.010067 0,0.00663 -0.020072,0.041551 -0.044604,0.077608 C 1.311999,2.1781687 1.1839241,2.4295445 1.175619,2.5012262 c -0.00887,0.076565 -0.013398,0.091033 -0.028487,0.091033 -0.012326,0 -0.014255,-0.053353 -0.014492,-0.40084 C 1.1324892,1.9709571 1.12839,1.7106511 1.12352,1.6129613 L 1.11468,1.4353435 1.062195,1.3861025 c -0.028867,-0.027083 -0.077689,-0.06334 -0.10849355,-0.080573 -0.0308046,-0.017233 -0.0608058,-0.037199 -0.0666693,-0.04437 -0.0100906,-0.012341 -0.008585,-0.3150797 0.001728,-0.34734953 0.005673,-0.0177504 0.048473,0.0134559 0.14334635,0.10451563 C 1.1383386,1.12029 1.1418224,1.1216587 1.1978207,1.0834338 1.2441241,1.0518266 1.376636,0.93818144 1.5487389,0.78247825 1.6012694,0.7349535 1.6706925,0.67591944 1.7030126,0.65129145 1.8750344,0.52021007 1.8733122,0.52311315 1.8772095,0.35765886 c 0.00337,-0.14287099 0.00969,-0.18484158 0.02787,-0.18484158 0.00638,0 0.048755,0.0291629 0.094155,0.0648065 0.045401,0.0356436 0.130102,0.0993699 0.1882252,0.14161417 0.058123,0.0422442 0.1082964,0.0828799 0.111496,0.0903014 0.0032,0.007422 -0.00229,0.0225431 -0.012205,0.0336034 -0.013592,0.015167 -0.016948,0.0301699 -0.013652,0.0610413 0.00297,0.027808 -6.461e-4,0.0485865 -0.011273,0.0648065 -0.02674,0.0408104 -0.053605,0.026202 -0.053605,-0.0291491 0,-0.0124578 -0.00347,-0.0247942 -0.00771,-0.0274142 -0.011003,-0.0068 -0.097903,0.0515454 -0.097903,0.065733 0,0.006504 0.024843,0.0335362 0.055206,0.0600716 0.030363,0.0265354 0.1086934,0.10089559 0.1740676,0.16524486 0.1185095,0.11665156 0.2184511,0.20184689 0.276672,0.23584939 0.025952,0.015157 0.034678,0.016115 0.056446,0.0062 0.035966,-0.016387 0.040273,-0.00647 0.012984,0.029909 -0.022245,0.029652 -0.02345,0.03861 -0.026141,0.1943014 -0.00155,0.089769 9.102e-4,0.241435 0.00547,0.3370357 l 0.00829,0.1738195 0.041161,0.086613 c 0.032332,0.068035 0.039784,0.092884 0.03474,0.1158469 -0.00757,0.034457 0.026011,0.1211106 0.1082127,0.2792493 l 0.052991,0.1019447 7.911e-4,0.1939096 c 9.064e-4,0.2221579 -6.231e-4,0.2272333 -0.060365,0.2002933 -0.040872,-0.018431 -0.032734,-0.019982 -0.1661008,0.031657 l -0.025637,0.00993 0.018436,0.036162 c 0.033951,0.066593 0.022974,0.089639 -0.077026,0.1617149 -0.021979,0.015842 -0.055326,0.041544 -0.074104,0.057117 -0.018778,0.015573 -0.059478,0.045816 -0.090445,0.067207 -0.030966,0.021391 -0.1267583,0.091217 -0.2128711,0.1551685 -0.086113,0.063952 -0.170993,0.1237354 -0.1886229,0.1328521 -0.01763,0.00912 -0.052577,0.03132 -0.07766,0.049341 -0.025083,0.01802 -0.05157,0.032614 -0.05886,0.032429 -0.00729,-1.843e-4 -0.069913,-0.042309 -0.1391618,-0.093609 z m 0.00292,-2.0631042 c 0.048527,-0.041346 0.1076391,-0.098937 0.1313604,-0.1279795 0.023721,-0.029043 0.062308,-0.068756 0.085747,-0.088251 0.02344,-0.019495 0.054646,-0.056219 0.069347,-0.081608 0.014701,-0.025389 0.0392,-0.062133 0.054443,-0.081651 0.026688,-0.0341735 0.056687,-0.13476144 0.043981,-0.14746779 -0.00328,-0.003283 -0.022507,0.0126298 -0.04272,0.0353628 -0.020212,0.022733 -0.071532,0.0787951 -0.1140426,0.12458249 C 1.9396055,1.0740812 1.8905175,1.1383857 1.873032,1.171192 1.855546,1.203998 1.814524,1.259571 1.781872,1.2946879 1.721165,1.3599759 1.6777937,1.4137562 1.6459931,1.4631767 c -0.017653,0.027434 -0.017639,0.027686 9.333e-4,0.017568 0.010364,-0.00565 0.058547,-0.044093 0.1070743,-0.085438 z"
       id="path52"
       inkscape:connector-curvature="0" />
    <path
       style="fill:#6f0219;stroke-width:0.00960096"
       d="m 1.8743626,3.5410893 c -0.00806,-0.00806 -0.0098,-0.049686 -0.00611,-0.1464146 0.00284,-0.074332 0.00695,-0.1441652 0.00914,-0.1551852 0.00219,-0.01102 0.024595,-0.033191 0.049793,-0.049268 0.025198,-0.016077 0.091179,-0.0691 0.1466247,-0.1178275 C 2.1658763,2.991483 2.2415098,2.9257598 2.406977,2.7828837 2.439724,2.7546077 2.50561,2.6974207 2.5533916,2.6558013 L 2.640264,2.5801292 V 2.2063896 c 0,-0.3465912 0.00561,-0.4240878 0.0237,-0.3276379 0.00367,0.019569 0.016972,0.055901 0.029558,0.080738 0.016027,0.031629 0.022378,0.059115 0.021198,0.091739 -0.00131,0.036265 0.00727,0.066781 0.038732,0.13779 0.02223,0.050165 0.047652,0.1041704 0.056494,0.120012 0.00884,0.015842 0.031077,0.056449 0.049411,0.090238 l 0.033335,0.061435 0.00475,0.1809892 c 0.00361,0.1378155 0.00197,0.1809893 -0.00687,0.1809893 -0.016725,0 -0.091947,-0.052785 -0.16148,-0.1133149 L 2.669098,2.6571413 2.618681,2.6950323 c -0.027729,0.02084 -0.076008,0.054192 -0.1072861,0.074115 -0.084756,0.053986 -0.2485983,0.2265571 -0.328844,0.3463642 -0.03638,0.054315 -0.075146,0.1479035 -0.1151542,0.278003 -0.016579,0.053911 -0.021702,0.060062 -0.089591,0.1075672 -0.07715,0.053985 -0.086025,0.057418 -0.1034352,0.040007 z M 1.140114,2.1151781 C 1.138794,1.8732823 1.137394,1.6364837 1.137014,1.5889589 1.135624,1.4174189 1.138024,1.4271189 1.08437,1.3759936 1.05767,1.3505506 1.002585,1.3099316 0.9619578,1.2857286 L 0.8880888,1.2417246 0.8854618,1.0769078 c -0.001663,-0.10432987 8.675e-4,-0.16481679 0.006895,-0.16481679 0.005237,0 0.0572319,0.0450885 0.115544,0.10019669 0.058312,0.055108 0.1144949,0.1028858 0.1248502,0.1061725 0.02714,0.00861 0.097553,-0.035718 0.1773437,-0.1116564 C 1.3472988,0.9713966 1.4108005,0.9150793 1.4512105,0.8816545 1.4916205,0.8482297 1.567554,0.7819982 1.619952,0.73447345 1.67235,0.68694865 1.7464114,0.62061486 1.7845331,0.58706493 1.887508,0.49643923 1.885881,0.50042893 1.8838971,0.34340017 c -0.00158,-0.12491869 0.00533,-0.17058289 0.025812,-0.17058289 0.00442,0 0.037073,0.0237959 0.072555,0.0528797 0.035482,0.0290838 0.086796,0.0678019 0.1140322,0.08604 0.027236,0.0182382 0.070601,0.0548147 0.096367,0.0812812 0.025766,0.0264665 0.054929,0.0506859 0.064806,0.0538209 0.023064,0.00732 0.022879,0.0257798 -4.686e-4,0.046909 -0.015054,0.0136234 -0.017754,0.0266383 -0.014752,0.071095 l 0.00368,0.0544188 -0.010614,-0.0408041 c -0.01339,-0.0514746 -0.028215,-0.0521976 -0.098425,-0.0048 -0.076472,0.0516247 -0.07882,0.0713025 -0.015168,0.12712765 l 0.050828,0.0445783 -0.049348,0.0713628 C 2.0960538,0.85597558 2.0269509,0.93878734 1.9696332,1.0007522 1.9096247,1.065626 1.8521453,1.1383201 1.834126,1.1721276 1.816915,1.2044186 1.775915,1.2595716 1.743014,1.2946877 1.681538,1.3603047 1.5457544,1.5388533 1.5457544,1.554074 c 0,0.00469 -0.00648,0.01391 -0.014401,0.020484 -0.016013,0.01329 -0.019467,0.038404 -0.00528,0.038404 0.014765,0 0.089315,-0.05347 0.1204933,-0.086422 0.015842,-0.016743 0.037444,-0.035026 0.048005,-0.040628 0.010561,-0.0056 -0.00252,0.013131 -0.029069,0.04163 -0.1231381,0.1321847 -0.2991803,0.366677 -0.3166864,0.4218339 -0.00975,0.030728 0.00665,0.040971 0.038847,0.024265 0.015182,-0.00788 0.0296,-0.012325 0.03204,-0.00988 0.00244,0.00244 -0.012484,0.028933 -0.033165,0.058873 -0.076301,0.1104637 -0.1929925,0.3318232 -0.2117144,0.401614 -0.00708,0.026403 -0.012929,0.063952 -0.012992,0.083442 -6.72e-5,0.01949 -0.00443,0.038107 -0.00971,0.041371 -0.00633,0.00391 -0.010418,-0.1437155 -0.012001,-0.4338768 z M 1.8817882,1.3213447 c 0,-0.011082 0.073469,-0.090208 0.1059094,-0.1140651 0.020136,-0.014808 0.052656,-0.05164 0.072266,-0.081848 0.01961,-0.030208 0.049856,-0.076526 0.067214,-0.1029289 0.018482,-0.0281136 0.036275,-0.0718744 0.04294,-0.10561061 0.010832,-0.0548298 0.036736,-0.12020274 0.047488,-0.11984511 0.016008,5.3247e-4 0.1389658,0.1210215 0.1364179,0.13367916 -0.00166,0.008233 -0.00633,0.0330489 -0.010384,0.0551467 C 2.3312212,1.0535566 2.2970919,1.0865598 2.1773973,1.1466291 2.0626905,1.2041952 1.9894838,1.2470537 1.9225923,1.2958036 1.90015,1.3121592 1.8817882,1.3236527 1.8817882,1.3213447 Z m 0.4992499,-0.078119 c 0,-0.00612 0.1023421,-0.1530705 0.1265559,-0.1817125 0.00449,-0.00531 0.016513,-7.268e-4 0.029333,0.011167 0.011951,0.011089 0.042327,0.031036 0.067502,0.044327 0.025175,0.013291 0.041767,0.026642 0.03687,0.029668 -0.0049,0.00303 -0.016019,0.00277 -0.024716,-5.655e-4 -0.00972,-0.00373 -0.031585,0.00526 -0.056749,0.02333 -0.063159,0.045357 -0.1787964,0.093079 -0.1787959,0.073786 z"
       id="path50"
       inkscape:connector-curvature="0" />
  </g>
  <path
     style="fill:#fcf4f4;stroke-width:0.17677669"
     d="m 55.134028,107.6768 c -1.590196,-1.03934 -4.597014,-3.24053 -13.318981,-9.750405 -3.694633,-2.757588 -7.751659,-5.687679 -9.015612,-6.511312 -2.638706,-1.719466 -6.077671,-4.300081 -6.982679,-5.239833 l -0.618719,-0.642472 -0.02647,-26.285764 c -0.01477,-14.669765 0.03728,-25.504567 0.117786,-24.517998 0.234184,2.869789 0.54589,26.28388 0.518896,38.977354 l -0.025,11.753743 0.591275,0.503408 c 1.617686,1.377292 5.071506,3.845974 6.540899,4.675231 0.908476,0.5127 3.799611,2.53515 6.424745,4.494329 12.5519,9.367689 16.90752,12.516319 17.314278,12.516319 0.506465,0 10.234301,-6.66998 14.730624,-10.100192 0.998848,-0.762014 2.032992,-1.49895 2.298097,-1.637638 0.265105,-0.138689 0.999081,-0.704698 1.631058,-1.257798 0.631977,-0.553101 1.626346,-1.329935 2.209709,-1.726299 0.583363,-0.396365 2.908738,-2.098118 5.167503,-3.781676 2.834881,-2.112962 4.258402,-3.29003 4.596194,-3.80045 l 0.489351,-0.739437 0.04579,-28.458379 c 0.04141,-25.734233 0.01895,-28.499339 -0.234588,-28.886293 -0.15421,-0.235353 -0.572564,-0.753781 -0.929676,-1.152064 -0.695577,-0.77577 -9.894414,-7.723 -18.415352,-13.907812 -2.868201,-2.081848 -6.209281,-4.5563374 -7.424621,-5.4988674 -2.267605,-1.75858 -3.43138,-2.46746 -4.050875,-2.46746 -0.649462,0 -4.525306,2.75594 -5.620504,3.99649 -0.562986,0.6377 -1.580457,1.541718 -2.261048,2.0089214 -0.68059,0.467203 -2.601882,1.912361 -4.269537,3.211462 -3.905027,3.042011 -6.720015,5.007258 -10.177127,7.105027 -1.528671,0.927595 -3.596959,2.263553 -4.596194,2.968796 -3.381108,2.38633 -4.15731,3.208467 -4.395137,4.655231 -0.100123,0.609075 -0.120703,0.533425 -0.139567,-0.513008 l -0.02213,-1.227433 0.928077,-0.898494 c 1.244597,-1.204924 3.894391,-3.190104 7.115262,-5.330629 3.730375,-2.479131 12.616602,-9.034836 18.031223,-13.3023134 3.463289,-2.72955 4.716979,-3.48051 5.514821,-3.30336 0.910556,0.20218 7.594509,4.68573 12.682284,8.5071864 1.561627,1.172947 3.754141,2.797654 4.872254,3.610461 3.630167,2.638935 11.66829,8.872074 12.633343,9.796489 0.939283,0.899731 0.940349,0.902005 1.044313,2.226476 0.05724,0.729204 0.156681,13.977657 0.22098,29.441007 l 0.116909,28.115185 -1.041559,0.932771 c -1.369795,1.226724 -4.749772,3.798052 -13.769481,10.475178 -9.15138,6.774602 -9.564182,7.068652 -13.169864,9.381202 -4.278615,2.74415 -3.78306,2.5968 -5.33096,1.58512 z"
     id="path66"
     inkscape:connector-curvature="0" />
</svg>
