<?xml version="1.0" encoding="UTF-8" standalone="no"?>
<!-- Created with Inkscape (http://www.inkscape.org/) -->

<svg
   xmlns:dc="http://purl.org/dc/elements/1.1/"
   xmlns:cc="http://creativecommons.org/ns#"
   xmlns:rdf="http://www.w3.org/1999/02/22-rdf-syntax-ns#"
   xmlns:svg="http://www.w3.org/2000/svg"
   xmlns="http://www.w3.org/2000/svg"
   xmlns:sodipodi="http://sodipodi.sourceforge.net/DTD/sodipodi-0.dtd"
   xmlns:inkscape="http://www.inkscape.org/namespaces/inkscape"
   version="1.1"
   id="svg4004"
   width="113.38583"
   height="113.38583"
   viewBox="0 0 113.38583 113.38583"
   sodipodi:docname="13_1.svg"
   inkscape:version="0.92.4 (5da689c313, 2019-01-14)">
  <metadata
     id="metadata4010">
    <rdf:RDF>
      <cc:Work
         rdf:about="">
        <dc:format>image/svg+xml</dc:format>
        <dc:type
           rdf:resource="http://purl.org/dc/dcmitype/StillImage" />
        <dc:title />
      </cc:Work>
    </rdf:RDF>
  </metadata>
  <defs
     id="defs4008" />
  <sodipodi:namedview
     pagecolor="#ffffff"
     bordercolor="#666666"
     borderopacity="1"
     objecttolerance="10"
     gridtolerance="10"
     guidetolerance="10"
     inkscape:pageopacity="0"
     inkscape:pageshadow="2"
     inkscape:window-width="1366"
     inkscape:window-height="715"
     id="namedview4006"
     showgrid="false"
     inkscape:zoom="3.8992505"
     inkscape:cx="13.374456"
     inkscape:cy="55.073495"
     inkscape:window-x="-8"
     inkscape:window-y="-8"
     inkscape:window-maximized="1"
     inkscape:current-layer="svg4004" />
  <g
     id="g4014"
     transform="matrix(29.98128,0,0,29.985646,0.0051608,5.3012776e-4)">
    <path
       style="fill:#df958b;stroke-width:0.00960096"
       d="M 1.6417642,3.7681542 C 1.2477776,3.7201376 0.86940873,3.5382777 0.57205866,3.2540092 0.52143659,3.2056142 0.45678495,3.1352123 0.42838834,3.0975606 0.39999174,3.0599089 0.36712202,3.0204621 0.35534453,3.009901 0.28383928,2.9457812 0.17335536,2.7619528 0.1729345,2.7063985 0.17287017,2.6978879 0.16034896,2.6633245 0.1451099,2.6295908 -0.04084047,2.2179649 -0.04904683,1.6383372 0.12486207,1.1994569 0.38079319,0.55358353 0.96901387,0.0935157 1.6398532,0.01452971 1.9644417,-0.023688 2.3055913,0.01513379 2.574426,0.12088128 3.0251634,0.29818101 3.3802699,0.62437312 3.5977768,1.0609061 3.7019719,1.270024 3.7715463,1.5618667 3.7801686,1.8259817 3.7885277,2.0820386 3.7636312,2.2648555 3.6901969,2.4866487 3.5450923,2.9249075 3.2356129,3.3059454 2.8418842,3.5311101 2.6791847,3.6241543 2.5029378,3.6943758 2.3298908,3.7351021 2.1359153,3.7807538 1.8556165,3.7942172 1.6417642,3.7681542 Z m 0.230423,-1.5482275 c 0,-0.00813 -0.00811,-0.011585 -0.1728173,-0.073642 C 1.6386439,2.1234057 1.5288243,2.0783047 1.4553263,2.0460614 1.3818283,2.0138184 1.3194221,1.9897084 1.3166457,1.9924844 1.2980347,2.0110954 1.493612,2.104076 1.6753675,2.1630276 c 0.042244,0.013702 0.1027303,0.033455 0.1344135,0.043895 0.031683,0.010441 0.058686,0.019324 0.060006,0.019741 0.00132,4.166e-4 0.0024,-0.00262 0.0024,-0.00674 z M 0.95049506,1.7468081 c 0,-0.081141 -0.003388,-0.1232855 -0.009601,-0.1194454 -0.0170027,0.010508 -0.0114251,0.2448245 0.005828,0.2448245 0.002075,0 0.003773,-0.056421 0.003773,-0.1253791 z"
       id="path4028"
       inkscape:connector-curvature="0" />
    <path
       style="fill:#ccfc14;stroke-width:0.00960096"
       d="M 1.7281728,3.7735341 C 1.4954641,3.7440245 1.2814433,3.6852593 1.0999606,3.6010415 0.98257686,3.5465692 0.81948188,3.4514948 0.7417346,3.3922176 0.64620897,3.3193856 0.50161843,3.1810266 0.45069931,3.1137254 0.42747157,3.0830246 0.37207621,3.0191951 0.32759853,2.9718822 0.24305006,2.881944 0.20264192,2.8126118 0.18188768,2.7218722 0.1758488,2.6954696 0.16201254,2.6522652 0.15114045,2.6258626 -0.02973635,2.1866073 -0.04811625,1.7370678 0.09696915,1.3009301 0.3336567,0.58942938 0.95225862,0.09175774 1.7013918,0.01015554 2.0413049,-0.0268708 2.4026152,0.03871415 2.7218722,0.19539286 3.1024189,0.38215014 3.3913567,0.66840923 3.5809484,1.0465047 c 0.060375,0.1204035 0.1056074,0.2378864 0.098881,0.2568256 -0.00324,0.00913 -0.05694,0.012001 -0.2242841,0.012001 H 3.2355236 V 1.449745 1.5841584 h 0.2532499 c 0.1932315,0 0.2556519,0.00289 0.2633858,0.012213 0.018676,0.022503 0.033356,0.2174106 0.027282,0.3622243 -0.00782,0.186407 -0.043023,0.3806086 -0.093984,0.5184518 -0.010737,0.029043 -0.025626,0.072247 -0.033085,0.09601 -0.00746,0.023762 -0.030535,0.077768 -0.051279,0.120012 -0.020744,0.042244 -0.048752,0.1005701 -0.062241,0.129613 -0.013488,0.029043 -0.046313,0.080888 -0.072943,0.1152115 C 3.4392783,2.972217 3.3995963,3.026223 3.3777263,3.057906 3.3258243,3.133095 3.1362119,3.3212123 3.0387036,3.3942543 2.9510386,3.4599233 2.7495895,3.5738151 2.6338675,3.6231345 2.5240321,3.6699445 2.3935388,3.7103285 2.2754273,3.734059 2.2199813,3.745199 2.153015,3.758774 2.1266124,3.764226 2.0625354,3.777457 1.8063072,3.783443 1.7281725,3.773536 Z M 1.0465047,2.6012936 c 0,-0.00559 -0.00432,-0.0075 -0.0096,-0.00423 -0.012303,0.0076 -0.012303,0.014401 0,0.014401 0.00528,0 0.0096,-0.00458 0.0096,-0.010168 z M 0.45504364,2.469847 c 0.0369036,-0.090562 0.0869571,-0.1392903 0.17989119,-0.1751294 0.0629008,-0.024257 0.0782757,-0.026937 0.10369679,-0.018075 0.0224213,0.00782 0.0333792,0.00747 0.0440472,-0.00138 0.0147939,-0.012278 0.0195125,-0.038141 0.007,-0.038368 -0.00396,-7.68e-5 -0.0180018,-0.00235 -0.0312031,-0.00507 -0.023865,-0.00491 -0.0238752,-0.00488 -0.001783,0.00485 0.0328226,0.014463 0.0169667,0.028076 -0.0259903,0.022315 -0.0245975,-0.0033 -0.0598744,0.00235 -0.10320848,0.016534 -0.0529852,0.01734 -0.0750276,0.031148 -0.11291511,0.070733 -0.0541486,0.056574 -0.12026258,0.1884004 -0.0944873,0.1884004 0.004699,0 0.0204277,-0.029163 0.0349524,-0.064806 z M 0.4116627,2.4589645 C 0.4533295,2.3446894 0.53159302,2.2785856 0.67686769,2.2349641 c 0.0403972,-0.01213 0.0464727,-0.015639 0.0203378,-0.011747 -0.0738239,0.010994 -0.16537061,0.052218 -0.2065868,0.093026 -0.0363153,0.035956 -0.086314,0.1232347 -0.10174391,0.1776063 -0.0122229,0.043071 0.002685,0.020249 0.0227879,-0.034885 z m 0.56997893,-0.022721 c 0.0052,-0.048409 -0.007085,-0.060195 -0.0317577,-0.030467 -0.0104753,0.012622 -0.009616,0.02061 0.005168,0.048062 0.009752,0.018108 0.018622,0.031818 0.0197112,0.030467 0.001089,-0.00135 0.004185,-0.02298 0.006879,-0.048062 z M 0.2351152,2.259844 c 0.009076,-0.013852 0.0117562,-0.022252 0.005956,-0.018667 -0.0110833,0.00685 -0.033437,0.043852 -0.0264919,0.043852 0.002219,0 0.0114598,-0.011333 0.0205356,-0.025184 z M 1.8913891,2.222751 c 0,-0.015854 -0.021467,-0.025989 -0.1838556,-0.086803 C 1.6460167,2.112911 1.5316859,2.0657977 1.453465,2.0312525 1.375244,1.9967073 1.3082955,1.9716279 1.3046904,1.9755206 c -0.0036,0.00389 -0.00273,0.017058 0.00195,0.029256 0.00587,0.015308 0.034069,0.03399 0.091034,0.060308 0.1050892,0.048551 0.2301982,0.097661 0.3161005,0.1240801 0.036964,0.011368 0.084488,0.026446 0.1056105,0.033507 0.051488,0.01721 0.072007,0.017233 0.072007,7.68e-5 z M 0.37923793,2.1026103 c 0.009558,-0.010561 0.0152173,-0.019202 0.012577,-0.019202 -0.00264,0 -0.0126204,0.00864 -0.022178,0.019202 -0.009558,0.010561 -0.0152173,0.019202 -0.012577,0.019202 0.00264,0 0.0126204,-0.00864 0.022178,-0.019202 z M 2.3714372,2.0246694 c 0,-0.00528 -0.00432,-0.00693 -0.0096,-0.00367 -0.00528,0.00326 -0.0096,0.010254 -0.0096,0.015535 0,0.00528 0.00432,0.00693 0.0096,0.00367 0.00528,-0.00326 0.0096,-0.010254 0.0096,-0.015535 z M 0.95840935,1.7361573 c -0.00295,-0.1334069 -0.008154,-0.1645707 -0.024716,-0.1479903 -0.009961,0.00997 -0.009102,0.2939495 9.6163e-4,0.3176236 0.017262,0.040609 0.0268837,-0.028101 0.0237544,-0.1696333 z M 2.8706871,0.74824372 c 0,-0.0926527 0.0033,-0.0953784 0.1155493,-0.0953784 h 0.095672 V 0.56645665 0.48004801 H 2.5922592 2.1026103 l -1.469e-4,0.0552055 c -7.68e-5,0.030363 -0.00424,0.0616862 -0.00923,0.069607 -0.00745,0.0118058 -0.045925,0.0152667 -0.2134744,0.0192019 l -0.2043874,0.0048 -0.00276,0.0888089 -0.00276,0.0888089 h 0.6004203 0.6004203 z"
       id="path4026"
       inkscape:connector-curvature="0" />
    <path
       style="fill:#669886;stroke-width:0.00960096"
       d="M 1.7281728,3.7735341 C 1.4168415,3.7340544 1.1852509,3.6574462 0.91689169,3.5051695 0.7940019,3.4354374 0.70859089,3.3721957 0.59615111,3.2676806 0.51341588,3.1907765 0.41803424,3.0831159 0.42577691,3.0753732 c 0.002385,-0.00238 0.0360931,0.00966 0.0749078,0.026755 0.0639863,0.028189 0.0814586,0.031474 0.18722268,0.035199 0.12933888,0.00456 0.18495942,-0.00639 0.2812876,-0.055351 C 1.0617539,3.0349302 1.1816388,2.9018384 1.2250547,2.7979297 1.2441387,2.7522537 1.2765047,2.5974782 1.2770967,2.549055 l 4.694e-4,-0.038404 0.019519,0.024002 c 0.010735,0.013201 0.039755,0.049775 0.064487,0.081274 0.024732,0.031499 0.069119,0.082264 0.098637,0.1128113 l 0.053669,0.055539 H 2.004278 c 0.26972,0 0.4974179,0.00269 0.5059955,0.00598 0.00858,0.00329 0.024625,0.023814 0.035662,0.045605 0.027876,0.055041 0.10365,0.1485821 0.1513961,0.1868957 0.021977,0.017635 0.077533,0.049911 0.123458,0.071723 0.081226,0.038579 0.086676,0.039758 0.2001502,0.043304 0.1349396,0.00422 0.1878913,-0.00731 0.2983075,-0.064918 L 3.3885703,3.036696 3.3720523,3.06613 C 3.3464377,3.1117818 3.1243311,3.3305365 3.0387035,3.394455 2.9507454,3.4601132 2.7490482,3.5740456 2.6338674,3.6231343 2.524032,3.6699447 2.3935388,3.7103278 2.2754272,3.7340588 c -0.055446,0.01114 -0.1224123,0.024715 -0.1488149,0.030167 -0.064078,0.013231 -0.3203052,0.019217 -0.3984399,0.00931 z M 0.65766577,3.1136148 C 0.40809628,3.080514 0.21339884,2.8725248 0.18653527,2.610321 0.17920822,2.5388048 0.19916268,2.4203622 0.23108472,2.3458911 0.29620423,2.1939735 0.44193247,2.073887 0.60244728,2.039872 0.71502826,2.016015 0.81145278,2.026178 0.91747092,2.073075 c 0.0221017,0.00978 0.0440804,0.015021 0.0488416,0.011655 0.018792,-0.013288 0.0897931,-0.1102196 0.0897931,-0.1225869 0,-0.00723 -0.00864,-0.013147 -0.019202,-0.013147 -0.010561,0 -0.019141,-0.0054 -0.019066,-0.012001 7.68e-5,-0.0066 -0.00158,-0.079719 -0.00368,-0.1624864 -0.00323,-0.1270709 -0.0017,-0.149672 0.0098,-0.1452582 0.00749,0.00287 0.042018,0.045956 0.076725,0.095735 0.034707,0.049779 0.068038,0.088882 0.07407,0.086896 0.00603,-0.00199 0.070678,-0.080055 0.1436571,-0.1734856 0.075475,-0.096625 0.1574521,-0.1904808 0.1901173,-0.2176652 0.074961,-0.062383 0.097946,-0.062732 0.2031787,-0.00308 0.1634112,0.092625 0.1701914,0.101121 0.1314327,0.1646929 -0.022981,0.037693 -0.029452,0.036789 -0.1313135,-0.018351 -0.038035,-0.020589 -0.071704,-0.037435 -0.074819,-0.037435 -0.019844,0 -0.2352644,0.2403686 -0.2352644,0.2625108 0,0.00298 0.018362,0.013722 0.040804,0.023871 0.055763,0.025219 0.3562698,0.2270244 0.4485929,0.3012527 0.071205,0.057249 0.1017854,0.095211 0.1242102,0.154193 0.00819,0.021549 0.00687,0.027492 -0.00787,0.035382 -0.017616,0.00943 -0.4760231,-0.00153 -0.6189247,-0.014796 l -0.065996,-0.00613 0.017991,0.030635 c 0.02588,0.044068 0.039068,0.053139 0.056375,0.038775 0.01038,-0.00861 0.047733,-0.010826 0.134232,-0.00795 0.1150617,0.00383 0.1209476,0.00504 0.1473349,0.030323 0.015117,0.014483 0.043545,0.030767 0.063174,0.036187 0.051504,0.014221 0.039213,0.045762 -0.026866,0.068943 -0.00472,0.00165 -0.00334,0.012788 0.00305,0.02474 0.0085,0.015892 0.00906,0.033794 0.00205,0.066626 -0.00527,0.024692 -0.00751,0.046957 -0.00499,0.049478 0.010455,0.010455 0.036082,-0.017283 0.050841,-0.055031 0.034444,-0.088095 0.05964,-0.088465 0.1621642,-0.00238 0.061948,0.052014 0.073311,0.057875 0.1122109,0.057875 0.023805,0 0.043283,-0.00432 0.043283,-0.0096 0,-0.00528 -0.00605,-0.0096 -0.01345,-0.0096 -0.027505,0 -0.1275813,-0.085816 -0.1505358,-0.1290852 -0.020921,-0.039437 -0.021621,-0.044658 -0.00783,-0.058449 0.00833,-0.00833 0.077398,-0.03245 0.1534858,-0.053602 0.076088,-0.021152 0.1772258,-0.049624 0.2247506,-0.063272 0.1944422,-0.055837 0.1937761,-0.055704 0.2102869,-0.042001 0.02886,0.023952 0.019058,0.075786 -0.025175,0.1331186 -0.041529,0.053829 -0.2006439,0.1802973 -0.2553485,0.2029567 -0.041446,0.017167 -0.038475,0.029536 0.00709,0.029536 0.035461,0 0.06191,-0.014994 0.1142677,-0.06478 0.039449,-0.037511 0.1045055,-0.072761 0.1421078,-0.076999 0.039854,-0.00449 0.042418,-0.00668 0.052006,-0.044285 0.00555,-0.021758 0.014756,-0.051508 0.020464,-0.066113 0.0075,-0.01919 0.00727,-0.055131 -8.305e-4,-0.129613 -0.016246,-0.1493566 0.00446,-0.2484532 0.062562,-0.2994707 0.08874,-0.077914 0.2468746,-0.1294015 0.397438,-0.1294015 0.1697551,0 0.3139335,0.05378 0.4490175,0.1674866 0.065675,0.055282 0.136641,0.13992 0.136641,0.1629659 0,0.00642 -0.015965,0.037533 -0.035477,0.069146 -0.032037,0.051903 -0.038023,0.056969 -0.061726,0.052228 l -0.026249,-0.00525 0.029225,0.062452 c 0.016074,0.034349 0.034392,0.082784 0.040708,0.1076346 0.00939,0.036941 0.015755,0.045673 0.034901,0.04787 0.046085,0.00529 0.066622,0.012243 0.066622,0.022556 0,0.00576 -0.019442,0.029643 -0.043204,0.053069 -0.036546,0.036029 -0.043204,0.048366 -0.043204,0.080054 0,0.058187 -0.044219,0.18421 -0.087241,0.2486364 C 3.3929791,3.0016519 3.2712735,3.0817873 3.1294896,3.1065603 2.9824578,3.1322502 2.8435098,3.0946329 2.7192459,2.9954955 2.6656308,2.9527215 2.5923777,2.8578897 2.5681367,2.7998729 L 2.5535977,2.7650765 H 2.0500103 1.5464227 L 1.5111621,2.7341173 C 1.4674449,2.6957331 1.369717,2.5785507 1.2796461,2.456514 1.2420805,2.4056166 1.207274,2.3614572 1.2022983,2.358382 c -0.00498,-0.00308 -7.883e-4,0.023447 0.00931,0.058937 0.011602,0.040792 0.018555,0.096313 0.018902,0.1509373 0.00103,0.1613783 -0.047688,0.281152 -0.1605232,0.3946773 -0.080346,0.080838 -0.16215311,0.1240765 -0.27172398,0.1436191 -0.074202,0.013234 -0.0886006,0.013958 -0.14059355,0.00706 z M 0.79823874,2.9390778 C 0.88448094,2.9094061 0.92714417,2.8833941 0.96804235,2.8355473 1.0521227,2.7371818 1.0896046,2.6136886 1.0665914,2.5108546 1.0519963,2.4456371 0.99832051,2.3378338 0.98044352,2.3378338 c -0.006967,0 -0.025882,0.018242 -0.0420334,0.040539 l -0.0293661,0.040539 0.0277891,0.081847 0.0277891,0.081847 -0.0178871,0.050432 C 0.91044654,2.7353506 0.83944178,2.805582 0.74577597,2.8318068 0.70558457,2.8430597 0.69987359,2.8419848 0.63255289,2.8104959 0.54750486,2.770715 0.52044692,2.7425937 0.48488057,2.6570199 c -0.033585,-0.080807 -0.0329215,-0.1072187 0.004717,-0.1877708 0.0396691,-0.084898 0.0668697,-0.1113979 0.14634917,-0.1425805 0.0592559,-0.023248 0.07062,-0.024862 0.10643512,-0.015112 0.0395372,0.010763 0.0405262,0.01042 0.0709389,-0.024608 0.0437071,-0.05034 0.040724,-0.062733 -0.0196853,-0.081775 -0.0704619,-0.022211 -0.10479028,-0.020528 -0.19108989,0.00937 -0.0976858,0.03384 -0.16685413,0.094023 -0.21090825,0.1835097 -0.0299401,0.060817 -0.0316015,0.069755 -0.0316015,0.1700041 0,0.098443 0.002069,0.110159 0.0297106,0.1682187 0.0477122,0.1002179 0.11624018,0.1583289 0.23911624,0.2027681 0.0618178,0.022357 0.10447296,0.022366 0.16937585,3.84e-5 z M 0.60486049,2.8979533 C 0.46602834,2.8383763 0.38403841,2.7231437 0.38403841,2.5875992 c 0,-0.073842 0.0378154,-0.1743775 0.0891588,-0.2370352 0.0591246,-0.072154 0.21874636,-0.137715 0.2786557,-0.1144519 0.0373963,0.014521 0.0240649,0.028939 -0.0211507,0.022874 -0.0245975,-0.0033 -0.0598744,0.00235 -0.10320848,0.016534 -0.0529852,0.01734 -0.0750276,0.031148 -0.11291511,0.070733 -0.0606509,0.063368 -0.0965701,0.1396702 -0.0940625,0.1998155 0.001945,0.046654 0.0501133,0.1653307 0.0896265,0.2208219 0.0222368,0.031229 0.16135609,0.1037966 0.19898754,0.1037966 0.0295371,0 0.11317244,-0.035156 0.15955706,-0.067069 0.0307311,-0.021144 0.0510096,-0.047765 0.0820545,-0.1077201 0.0226796,-0.0438 0.0441949,-0.080853 0.0478119,-0.082341 0.003617,-0.00149 7.6423e-4,-0.025112 -0.00634,-0.052497 -0.0154349,-0.059503 -0.0171484,-0.1512181 -0.002825,-0.1512181 0.0223451,0 0.0656058,0.1479178 0.052353,0.1790063 -0.00418,0.0098 -0.00667,0.029533 -0.00553,0.043856 0.00241,0.030383 -0.034052,0.1069352 -0.0821125,0.1724062 C 0.91182494,2.8626992 0.80880079,2.9172905 0.72923268,2.9242642 0.68533127,2.928112 0.6652294,2.9238594 0.60486049,2.8979533 Z M 3.131272,2.9390778 c 0.081084,-0.027897 0.1273141,-0.054517 0.160688,-0.092528 0.037615,-0.042841 0.072677,-0.097608 0.082677,-0.1291419 0.00654,-0.020623 0.00318,-0.01908 -0.026134,0.012001 -0.030153,0.031971 -0.038644,0.035668 -0.081935,0.035668 -0.035013,0 -0.063243,0.00786 -0.1026396,0.028586 C 3.0589813,2.848868 3.0485232,2.8493786 2.9509811,2.8040585 2.8726339,2.7676569 2.8592044,2.764366 2.7997266,2.7669935 l -0.065273,0.00288 0.028033,0.03521 c 0.044257,0.055588 0.084154,0.084687 0.1637679,0.119446 0.085364,0.03727 0.1298027,0.040423 0.2050177,0.014545 z M 2.9234924,2.8915334 c -0.078756,-0.038251 -0.1269546,-0.078653 -0.1156508,-0.096943 0.010628,-0.017196 0.030796,-0.012063 0.1182434,0.030098 0.1070055,0.05159 0.1314617,0.051608 0.2352568,1.757e-4 0.088773,-0.043989 0.1101127,-0.048601 0.1189021,-0.025696 C 3.2951089,2.8379051 3.1476721,2.9200245 3.0531053,2.92568 3.0077153,2.92839 2.9895143,2.9236 2.9234924,2.8915334 Z M 2.5154516,2.5964514 c 0,-0.021822 -0.00341,-0.02427 -0.030114,-0.021602 -0.018268,0.00183 -0.035724,0.011506 -0.044375,0.024611 -0.014091,0.021343 -0.01373,0.021602 0.030114,0.021602 0.041226,0 0.044375,-0.00175 0.044375,-0.024611 z m 0.2766953,0.00301 c -0.00267,-0.01882 -0.00956,-0.021976 -0.053473,-0.024504 -0.048398,-0.00279 -0.050405,-0.00193 -0.050405,0.021602 0,0.023338 0.00254,0.024504 0.053473,0.024504 0.049962,0 0.053272,-0.00142 0.050405,-0.021602 z m 0.6145271,-0.0053 c 0.003,-0.021171 7.739e-4,-0.021981 -0.052805,-0.019202 -0.050058,0.0026 -0.056268,0.00522 -0.059073,0.025004 -0.003,0.021171 -7.739e-4,0.021981 0.052805,0.019202 0.050058,-0.0026 0.056268,-0.00523 0.059073,-0.025004 z M 2.8303295,2.4468265 c 0.032437,-0.059937 0.068836,-0.092419 0.1318191,-0.1176333 0.07851,-0.03143 0.092291,-0.031206 0.1629639,0.00264 0.059778,0.02863 0.095033,0.060651 0.1255237,0.1140096 0.017176,0.030057 0.02007,0.031203 0.078814,0.031203 0.058777,0 0.060747,-7.815e-4 0.054449,-0.021602 C 3.361173,2.3803118 3.2755413,2.2726873 3.2123581,2.239848 3.1630824,2.2142371 3.0799477,2.1890223 3.0444016,2.1889068 c -0.018975,-5.76e-5 -0.069029,0.01182 -0.11123,0.026403 -0.064909,0.02243 -0.085696,0.035389 -0.134935,0.084121 -0.056453,0.055872 -0.082238,0.096543 -0.095867,0.1512151 l -0.00658,0.026403 h 0.059093 c 0.056411,0 0.059835,-0.00137 0.075448,-0.030221 z m -0.089052,0.00175 c -0.010284,-0.01664 0.034523,-0.090542 0.082579,-0.1362011 0.062481,-0.059365 0.1684133,-0.099883 0.2392166,-0.091497 0.1091148,0.012923 0.2180412,0.090135 0.2695255,0.191053 0.016703,0.03274 0.01708,0.037324 0.0035,0.042536 -0.024685,0.00947 -0.049184,-0.00793 -0.083105,-0.059026 -0.02561,-0.038578 -0.045795,-0.055075 -0.102787,-0.084008 -0.084135,-0.042713 -0.1142817,-0.044418 -0.1973606,-0.011159 -0.060188,0.024095 -0.103697,0.061969 -0.1522107,0.1324963 -0.017216,0.025028 -0.048505,0.03336 -0.059354,0.015806 z M 1.8913891,2.2227511 c 0,-0.015854 -0.021467,-0.025989 -0.1838556,-0.086803 C 1.6460167,2.112911 1.5316859,2.0657977 1.453465,2.0312525 1.375244,1.9967073 1.3082955,1.9716279 1.3046904,1.9755206 c -0.0036,0.00389 -0.00273,0.017058 0.00195,0.029256 0.00587,0.015308 0.034069,0.03399 0.091034,0.060308 0.1050892,0.048551 0.2301982,0.097661 0.3161005,0.1240801 0.036964,0.011368 0.084488,0.026446 0.1056105,0.033507 0.051488,0.01721 0.072007,0.017233 0.072007,7.68e-5 z m 1.7034603,0.4391151 c 0.010737,-0.045933 0.026019,-0.077655 0.039993,-0.083017 0.018181,-0.00698 0.01712,0.00219 -0.00696,0.060135 -0.021781,0.05241 -0.043444,0.067416 -0.033033,0.022882 z M 0.12709893,2.5661488 C 0.05155502,2.388629 0,2.1149269 0,1.8913891 0,1.4127914 0.19932226,0.92009253 0.53147465,0.57765255 0.93145607,0.1652827 1.5216507,-0.05081583 2.0813865,0.01015554 c 0.5694782,0.06203259 1.07798,0.36975379 1.3873021,0.83952943 0.097233,0.14767055 0.2234769,0.41891053 0.2111411,0.45364533 -0.00324,0.00913 -0.05694,0.012001 -0.2242841,0.012001 H 3.2355236 V 1.449745 1.5841584 h 0.2532499 c 0.1932315,0 0.2556519,0.00289 0.2633858,0.012213 0.018676,0.022503 0.033356,0.2174106 0.027282,0.3622243 -0.00596,0.1421462 -0.021558,0.2522643 -0.055072,0.3888389 -0.029208,0.1190285 -0.029341,0.1192208 -0.077819,0.1132098 -0.052104,-0.00646 -0.058278,-0.013204 -0.079867,-0.087227 -0.017618,-0.06041 -0.017618,-0.060435 0.00364,-0.09601 0.011695,-0.019571 0.032817,-0.058346 0.046939,-0.086167 l 0.025676,-0.050583 -0.018889,-0.035211 C 3.5802546,2.0238098 3.4538193,1.9101347 3.3393119,1.849446 3.2408137,1.797242 3.1640937,1.7813693 3.009901,1.7812935 2.8518397,1.7812167 2.7922694,1.7949182 2.6728864,1.8588144 l -0.077789,0.041634 -0.022295,-0.023732 c -0.025843,-0.027509 -0.0708,-0.031494 -0.1027597,-0.00911 -0.011483,0.00804 -0.044565,0.050963 -0.073516,0.095377 -0.028951,0.044414 -0.06332,0.087753 -0.076376,0.096307 -0.030163,0.019763 -0.204816,0.081651 -0.231226,0.081934 -0.010955,1.172e-4 -0.030117,0.00806 -0.042582,0.017643 -0.022552,0.017345 -0.022895,0.017208 -0.070042,-0.027996 C 1.9150447,2.0721424 1.7029585,1.9228324 1.5282407,1.815438 1.4903487,1.792147 1.4593457,1.768997 1.4593457,1.763994 c 0,-0.012834 0.086422,-0.1192293 0.1360681,-0.1675148 l 0.041625,-0.040484 0.084874,0.043699 c 0.056803,0.029246 0.091967,0.041918 0.1063212,0.038316 0.021368,-0.00536 0.072756,-0.085517 0.072756,-0.1134827 0,-0.021776 -0.036282,-0.050619 -0.1483105,-0.1179028 C 1.6365091,1.3368527 1.5881232,1.3271516 1.5307621,1.3621308 1.4906695,1.3865797 1.370733,1.5197392 1.2788969,1.6417642 1.2371685,1.6972097 1.1966257,1.74383 1.1888018,1.7453646 1.1805709,1.7469792 1.1519819,1.718659 1.1209569,1.6781579 1.0242766,1.5519477 0.94164713,1.5063741 0.9065671,1.559913 0.8937449,1.579482 0.8908126,1.614864 0.8899401,1.7605347 c -0.001179,0.1969252 -6.6208e-4,0.1987607 0.0637394,0.2261121 0.0367959,0.015627 0.0368753,0.01578 0.019282,0.037168 L 0.9552956,2.0452918 0.904327,2.0257708 c -0.1269855,-0.048635 -0.28662215,-0.044445 -0.42127594,0.011057 -0.065334,0.026929 -0.086522,0.042435 -0.16425041,0.1202008 -0.12265861,0.1227173 -0.14738087,0.1754175 -0.15528126,0.331011 -0.003151,0.062065 -0.008241,0.1153568 -0.0113094,0.1184256 -0.003069,0.00307 -0.0143687,-0.015074 -0.0251111,-0.040316 z M 2.8706871,0.74824372 c 0,-0.0926527 0.0033,-0.0953784 0.1155493,-0.0953784 h 0.095672 V 0.56645665 0.48004801 H 2.5922592 2.1026103 l -1.469e-4,0.0552055 c -7.68e-5,0.030363 -0.00424,0.0616862 -0.00923,0.069607 -0.00745,0.0118058 -0.045925,0.0152667 -0.2134744,0.0192019 l -0.2043874,0.0048 -0.00276,0.0888089 -0.00276,0.0888089 H 2.2702668 2.8706871 Z M 1.81316,2.460246 C 1.81093,2.448951 1.80796,2.425793 1.8064,2.407624 1.8055686,2.397904 1.794023,2.388567 1.778576,2.38513 1.728109,2.373899 1.71857,2.370093 1.71857,2.36119 c 0,-0.00492 0.036724,-0.00895 0.081608,-0.00895 0.044885,0 0.081608,0.00383 0.081608,0.0085 0,0.00468 -0.00645,0.020878 -0.014342,0.036004 -0.00789,0.015125 -0.014369,0.037221 -0.014401,0.049102 -3.85e-5,0.015182 -0.00577,0.021602 -0.019261,0.021602 -0.010561,0 -0.019842,-0.00324 -0.020623,-0.0072 z M 2.0795299,2.3012914 C 2.0570999,2.2848902 2.0470882,2.20688 2.065586,2.1926423 c 0.00716,-0.00551 0.060547,-0.026655 0.1186324,-0.046983 0.199711,-0.069891 0.1956932,-0.0672 0.2448245,-0.1639915 0.045445,-0.08953 0.074634,-0.1164585 0.1072894,-0.098982 0.00951,0.00509 0.019525,0.018853 0.02225,0.030582 0.00626,0.026932 -0.074631,0.2777784 -0.092369,0.2864568 -0.00724,0.00354 -0.041251,0.011571 -0.075574,0.017839 -0.034324,0.00627 -0.1056106,0.027962 -0.1584159,0.048208 -0.1278114,0.049004 -0.1326969,0.050141 -0.1526935,0.03552 z"
       id="path4024"
       inkscape:connector-curvature="0" />
    <path
       style="fill:#896f76;stroke-width:0.00960096"
       d="M 1.7281728,3.7735341 C 1.2337084,3.7108313 0.84549742,3.521782 0.52454721,3.1873976 c -0.0508772,-0.053007 -0.092504,-0.1006447 -0.092504,-0.105862 0,-0.00522 0.0162016,-0.00247 0.0360036,0.0061 0.10380676,0.044931 0.13601403,0.051881 0.2404418,0.051881 0.11387026,0 0.17339543,-0.013171 0.26120837,-0.057797 0.0920744,-0.046795 0.21204022,-0.1801166 0.25535772,-0.28379 0.019084,-0.045676 0.05145,-0.2004515 0.052042,-0.2488747 l 4.695e-4,-0.038404 0.019519,0.024002 c 0.010735,0.013201 0.039755,0.049775 0.064487,0.081274 0.024732,0.031499 0.069119,0.082264 0.098637,0.1128113 l 0.053669,0.055539 h 0.4903999 c 0.2697199,0 0.4974179,0.00269 0.5059955,0.00598 0.00858,0.00329 0.024625,0.023814 0.035662,0.045605 0.027876,0.055041 0.10365,0.1485821 0.1513961,0.1868957 0.021977,0.017635 0.077533,0.049911 0.123458,0.071723 0.081226,0.038579 0.086676,0.039758 0.2001502,0.043304 0.1327856,0.00415 0.1842309,-0.00672 0.2943706,-0.062183 l 0.066533,-0.033506 -0.022518,0.031905 C 3.3196652,3.1302006 3.166262,3.28334 3.0771153,3.3557318 2.9677308,3.4445578 2.8469245,3.5208287 2.7122709,3.5860758 2.537607,3.6707102 2.4383706,3.7009207 2.1266123,3.7643679 2.0621333,3.7774903 1.8058618,3.7833859 1.7281724,3.7735341 Z M 0.65766577,3.1136148 C 0.40809628,3.080514 0.21339884,2.8725248 0.18653527,2.610321 0.17920822,2.5388048 0.19916268,2.4203622 0.23108472,2.3458911 0.29620423,2.1939735 0.44193247,2.073887 0.60244728,2.039872 0.71502826,2.016015 0.81145278,2.026178 0.91747092,2.073075 c 0.0221017,0.00978 0.0440804,0.015021 0.0488416,0.011655 0.0157675,-0.011149 0.0897931,-0.1092633 0.0897931,-0.1190123 0,-0.014923 0.096143,-0.1409301 0.115387,-0.1512292 0.00946,-0.00506 0.076084,-0.084847 0.1480592,-0.1773009 0.075325,-0.096757 0.1553817,-0.1885019 0.1886331,-0.2161739 0.075338,-0.062697 0.098182,-0.063075 0.2035193,-0.00337 0.1634112,0.092625 0.1701914,0.101121 0.1314327,0.1646929 -0.022981,0.037693 -0.029452,0.036789 -0.1313135,-0.018351 -0.038035,-0.020589 -0.071704,-0.037435 -0.074819,-0.037435 -0.019689,0 -0.2352644,0.2403082 -0.2352644,0.2622562 0,0.00284 0.02297,0.015679 0.051044,0.028532 0.028074,0.012853 0.066315,0.039092 0.084978,0.05831 0.018664,0.019218 0.037026,0.034941 0.040806,0.034941 0.00378,0 0.021032,0.010801 0.03834,0.024002 0.017308,0.013201 0.038622,0.024002 0.047364,0.024002 0.00874,0 0.015895,0.00458 0.015895,0.010168 0,0.00559 0.00432,0.0075 0.0096,0.00423 0.00528,-0.00326 0.0096,-0.00136 0.0096,0.00423 0,0.00559 0.00613,0.010168 0.013618,0.010168 0.00749,0 0.030654,0.016202 0.051475,0.036004 0.045572,0.043341 0.078282,0.071877 0.1393469,0.121566 0.025313,0.020598 0.042595,0.040853 0.038404,0.045012 C 1.9318277,2.2002865 1.5833125,2.0660861 1.4091908,1.984733 1.3236265,1.9447557 1.303755,1.9386823 1.2915791,1.9487874 c -0.00806,0.00669 -0.014651,0.0221 -0.014651,0.03425 0,0.041628 0.041765,0.074681 0.1620856,0.1282738 0.063988,0.028502 0.1163422,0.05609 0.1163422,0.061307 0,0.014447 -0.098466,0.0014 -0.1357333,-0.017983 -0.037322,-0.019413 -0.2111174,-0.073211 -0.2171198,-0.067208 -0.00222,0.00222 0.025284,0.045683 0.061118,0.096585 0.035834,0.050902 0.066044,0.098619 0.067133,0.1060379 0.00249,0.016944 0.041081,0.071786 0.050519,0.071786 0.00386,0 0.01188,-0.00485 0.017812,-0.010784 0.00728,-0.00728 0.04993,-0.00948 0.1313517,-0.00677 0.1158317,0.00386 0.1216466,0.00505 0.1480524,0.030346 0.015117,0.014483 0.043545,0.030767 0.063174,0.036187 0.051504,0.014221 0.039213,0.045762 -0.026866,0.068943 -0.00472,0.00165 -0.00334,0.012788 0.00305,0.02474 0.0085,0.015892 0.00906,0.033794 0.00205,0.066626 -0.00527,0.024692 -0.00751,0.046957 -0.00499,0.049478 0.010455,0.010455 0.036082,-0.017283 0.050841,-0.055031 0.034372,-0.087913 0.059707,-0.088409 0.1612418,-0.00316 l 0.068006,0.0571 0.1354875,9.6e-5 c 0.1457518,9.99e-5 0.1428492,9.733e-4 0.2104682,-0.063324 0.039449,-0.037511 0.1045055,-0.072761 0.1421078,-0.076999 0.039854,-0.00449 0.042418,-0.00668 0.052006,-0.044285 0.00555,-0.021758 0.014756,-0.051508 0.020464,-0.066113 0.0075,-0.019191 0.00727,-0.055131 -8.305e-4,-0.129613 -0.016246,-0.1493567 0.00446,-0.2484533 0.062562,-0.2994707 0.08874,-0.077914 0.2468746,-0.1294015 0.397438,-0.1294015 0.1697551,0 0.3139335,0.05378 0.4490175,0.1674865 0.065675,0.055282 0.136641,0.1399201 0.136641,0.162966 0,0.00642 -0.015965,0.037533 -0.035477,0.069146 -0.032037,0.051903 -0.038023,0.056969 -0.061726,0.052228 l -0.026249,-0.00525 0.029225,0.062452 c 0.016074,0.034349 0.034392,0.082784 0.040708,0.1076346 0.00939,0.036941 0.015755,0.045673 0.034901,0.047871 0.046085,0.00529 0.066622,0.012243 0.066622,0.022556 0,0.00576 -0.019442,0.029643 -0.043204,0.053069 -0.036546,0.036029 -0.043204,0.048367 -0.043204,0.080054 0,0.058187 -0.044219,0.1842099 -0.087241,0.2486363 C 3.3929791,3.0016549 3.2712735,3.0817904 3.1294896,3.1065634 2.9824578,3.1322532 2.8435098,3.094636 2.7192459,2.9954986 2.6656308,2.9527246 2.5923777,2.8578928 2.5681367,2.799876 L 2.5535977,2.7650765 H 2.0500103 1.5464227 L 1.5111621,2.7341173 C 1.4674449,2.6957331 1.369717,2.5785507 1.2796461,2.456514 1.2420805,2.4056166 1.207274,2.3614572 1.2022983,2.358382 c -0.00498,-0.00308 -7.883e-4,0.023447 0.00931,0.058937 0.011602,0.040792 0.018555,0.096313 0.018902,0.1509373 0.00103,0.1613783 -0.047688,0.281152 -0.1605232,0.3946773 -0.080346,0.080838 -0.16215311,0.1240765 -0.27172398,0.1436191 -0.074202,0.013234 -0.0886006,0.013958 -0.14059355,0.00706 z M 0.79823874,2.9390778 C 0.88448094,2.9094061 0.92714417,2.8833941 0.96804235,2.8355473 1.0521227,2.7371818 1.0896046,2.6136886 1.0665914,2.5108546 1.0519963,2.4456371 0.99832051,2.3378338 0.98044352,2.3378338 c -0.006967,0 -0.025882,0.018242 -0.0420334,0.040539 l -0.0293661,0.040539 0.0277891,0.081847 0.0277891,0.081847 -0.0178871,0.050432 C 0.91044654,2.7353506 0.83944178,2.805582 0.74577597,2.8318068 0.70558457,2.8430597 0.69987359,2.8419848 0.63255289,2.8104959 0.54750486,2.770715 0.52044692,2.7425937 0.48488057,2.6570199 c -0.033585,-0.080807 -0.0329215,-0.1072187 0.004717,-0.1877708 0.0396691,-0.084898 0.0668697,-0.1113979 0.14634917,-0.1425805 0.0592559,-0.023248 0.07062,-0.024862 0.10643512,-0.015112 0.0395372,0.010763 0.0405262,0.01042 0.0709389,-0.024608 0.0437071,-0.05034 0.040724,-0.062733 -0.0196853,-0.081775 -0.0704619,-0.022211 -0.10479028,-0.020528 -0.19108989,0.00937 -0.0976858,0.03384 -0.16685413,0.094023 -0.21090825,0.1835097 -0.0299401,0.060817 -0.0316015,0.069755 -0.0316015,0.1700041 0,0.098443 0.002069,0.110159 0.0297106,0.1682187 0.0477122,0.1002179 0.11624018,0.1583289 0.23911624,0.2027681 0.0618178,0.022357 0.10447296,0.022366 0.16937585,3.84e-5 z M 0.60486049,2.8979533 C 0.46602834,2.8383763 0.38403841,2.7231437 0.38403841,2.5875992 c 0,-0.073842 0.0378154,-0.1743775 0.0891588,-0.2370352 0.0591246,-0.072154 0.21874636,-0.137715 0.2786557,-0.1144519 0.0373963,0.014521 0.0240649,0.028939 -0.0211507,0.022874 -0.0245975,-0.0033 -0.0598744,0.00235 -0.10320848,0.016534 -0.0529852,0.01734 -0.0750276,0.031148 -0.11291511,0.070733 -0.0606509,0.063368 -0.0965701,0.1396702 -0.0940625,0.1998155 0.001945,0.046654 0.0501133,0.1653307 0.0896265,0.2208219 0.0222368,0.031229 0.16135609,0.1037966 0.19898754,0.1037966 0.0295371,0 0.11317244,-0.035156 0.15955706,-0.067069 0.0307311,-0.021144 0.0510096,-0.047765 0.0820545,-0.1077201 0.0226796,-0.0438 0.0441949,-0.080853 0.0478119,-0.082341 0.003617,-0.00149 7.6423e-4,-0.025112 -0.00634,-0.052497 -0.0154349,-0.059503 -0.0171484,-0.1512181 -0.002825,-0.1512181 0.0223451,0 0.0656058,0.1479178 0.052353,0.1790063 -0.00418,0.0098 -0.00667,0.029533 -0.00553,0.043856 0.00241,0.030383 -0.034052,0.1069352 -0.0821125,0.1724062 C 0.91182494,2.8626992 0.80880079,2.9172905 0.72923268,2.9242642 0.68533127,2.928112 0.6652294,2.9238594 0.60486049,2.8979533 Z M 3.131272,2.9390778 c 0.081084,-0.027897 0.1273141,-0.054517 0.160688,-0.092528 0.037615,-0.042841 0.072677,-0.097608 0.082677,-0.1291419 0.00654,-0.020623 0.00318,-0.01908 -0.026134,0.012001 -0.030153,0.031971 -0.038644,0.035668 -0.081935,0.035668 -0.035013,0 -0.063243,0.00786 -0.1026396,0.028586 C 3.0589813,2.848868 3.0485232,2.8493786 2.9509811,2.8040585 2.8726339,2.7676569 2.8592044,2.764366 2.7997266,2.7669935 l -0.065273,0.00288 0.028033,0.03521 c 0.044257,0.055588 0.084154,0.084687 0.1637679,0.119446 0.085364,0.03727 0.1298027,0.040423 0.2050177,0.014545 z M 2.9234924,2.8915334 c -0.078756,-0.038251 -0.1269546,-0.078653 -0.1156508,-0.096943 0.010628,-0.017196 0.030796,-0.012063 0.1182434,0.030098 0.1070055,0.05159 0.1314617,0.051608 0.2352568,1.757e-4 0.088773,-0.043989 0.1101127,-0.048601 0.1189021,-0.025696 C 3.2951089,2.8379051 3.1476721,2.9200245 3.0531053,2.92568 3.0077153,2.92839 2.9895143,2.9236 2.9234924,2.8915334 Z M 2.5154516,2.5964514 c 0,-0.021822 -0.00341,-0.02427 -0.030114,-0.021602 -0.018268,0.00183 -0.035724,0.011506 -0.044375,0.024611 -0.014091,0.021343 -0.01373,0.021602 0.030114,0.021602 0.041226,0 0.044375,-0.00175 0.044375,-0.024611 z m 0.2766953,0.00301 c -0.00267,-0.01882 -0.00956,-0.021976 -0.053473,-0.024504 -0.048398,-0.00279 -0.050405,-0.00193 -0.050405,0.021602 0,0.023338 0.00254,0.024504 0.053473,0.024504 0.049962,0 0.053272,-0.00142 0.050405,-0.021602 z m 0.6145271,-0.0053 c 0.003,-0.021171 7.739e-4,-0.021981 -0.052805,-0.019202 -0.050058,0.0026 -0.056268,0.00522 -0.059073,0.025004 -0.003,0.021171 -7.739e-4,0.021981 0.052805,0.019202 0.050058,-0.0026 0.056268,-0.00523 0.059073,-0.025004 z M 2.8303295,2.4468265 c 0.032437,-0.059937 0.068836,-0.092419 0.1318191,-0.1176333 0.07851,-0.03143 0.092291,-0.031206 0.1629639,0.00264 0.059778,0.02863 0.095033,0.060651 0.1255237,0.1140096 0.017176,0.030057 0.02007,0.031203 0.078814,0.031203 0.058777,0 0.060747,-7.815e-4 0.054449,-0.021602 C 3.361173,2.3803118 3.2755413,2.2726873 3.2123581,2.239848 3.1630824,2.2142371 3.0799477,2.1890223 3.0444016,2.1889068 c -0.018975,-5.76e-5 -0.069029,0.01182 -0.11123,0.026403 -0.064909,0.02243 -0.085696,0.035389 -0.134935,0.084121 -0.056453,0.055872 -0.082238,0.096543 -0.095867,0.1512151 l -0.00658,0.026403 h 0.059093 c 0.056411,0 0.059835,-0.00137 0.075448,-0.030221 z m -0.089052,0.00175 c -0.010284,-0.01664 0.034523,-0.090542 0.082579,-0.1362011 0.062481,-0.059365 0.1684133,-0.099883 0.2392166,-0.091497 0.1091148,0.012923 0.2180412,0.090135 0.2695255,0.191053 0.016703,0.03274 0.01708,0.037324 0.0035,0.042536 -0.024685,0.00947 -0.049184,-0.00793 -0.083105,-0.059026 -0.02561,-0.038578 -0.045795,-0.055075 -0.102787,-0.084008 -0.084135,-0.042713 -0.1142817,-0.044418 -0.1973606,-0.011159 -0.060188,0.024095 -0.103697,0.061969 -0.1522107,0.1324963 -0.017216,0.025028 -0.048505,0.03336 -0.059354,0.015806 z M 3.5955561,2.657068 c 0.013217,-0.046874 0.026355,-0.073254 0.038874,-0.078059 0.010271,-0.00394 0.011166,8.64e-5 0.00413,0.018577 -0.023818,0.062645 -0.056738,0.1081758 -0.043008,0.059481 z M 0.1215454,2.5420843 C 0.08779251,2.4485778 0.05274056,2.3135219 0.02739795,2.1793323 -0.00196632,2.023848 -0.00219953,1.7601087 0.02689121,1.6062601 0.06900362,1.3835456 0.11397958,1.2416944 0.19675938,1.0705071 0.43803373,0.57155552 0.88055518,0.20809588 1.4182325,0.06726484 c 0.3220991,-0.08436573 0.6242142,-0.08436573 0.9463133,0 0.5247835,0.13745381 0.9685357,0.49615794 1.2120838,0.97977966 0.040887,0.08119 0.1005381,0.2316112 0.1005381,0.2535236 0,0.012856 -0.02853,0.014763 -0.220822,0.014763 H 3.2355236 v 0.1342567 0.1342566 l 0.2566052,0.00256 0.2566053,0.00256 0.012981,0.052805 c 0.020305,0.082595 0.019426,0.4052952 -0.0014,0.5136514 -0.0256,0.1332045 -0.035485,0.1771456 -0.055405,0.2462938 l -0.018401,0.063875 -0.040675,-0.00504 c -0.051337,-0.00636 -0.057606,-0.013258 -0.079151,-0.087131 -0.017618,-0.06041 -0.017618,-0.060435 0.00364,-0.09601 0.011695,-0.019571 0.032817,-0.058346 0.046939,-0.086167 l 0.025676,-0.050583 -0.018889,-0.035211 C 3.5802546,2.0238098 3.4538193,1.9101347 3.3393119,1.849446 3.2408137,1.797242 3.1640937,1.7813693 3.009901,1.7812935 2.8518397,1.7812167 2.7922694,1.7949182 2.6728864,1.8588144 l -0.077789,0.041634 -0.022295,-0.023732 c -0.025843,-0.027509 -0.0708,-0.031494 -0.1027597,-0.00911 -0.011483,0.00804 -0.044565,0.050963 -0.073516,0.095377 -0.028951,0.044414 -0.06332,0.087753 -0.076376,0.096307 -0.030163,0.019763 -0.204816,0.081651 -0.231226,0.081934 -0.010955,1.172e-4 -0.030117,0.00806 -0.042582,0.017643 -0.022552,0.017345 -0.022895,0.017208 -0.070042,-0.027996 C 1.9150447,2.0721424 1.7029585,1.9228324 1.5282407,1.815438 1.4903487,1.792147 1.4593457,1.768997 1.4593457,1.763994 c 0,-0.012834 0.086422,-0.1192293 0.1360681,-0.1675148 l 0.041625,-0.040484 0.084874,0.043699 c 0.056803,0.029246 0.091967,0.041918 0.1063212,0.038316 0.021368,-0.00536 0.072756,-0.085517 0.072756,-0.1134827 0,-0.021776 -0.036282,-0.050619 -0.1483105,-0.1179028 C 1.6365091,1.3368527 1.5881232,1.3271516 1.5307621,1.3621308 1.4906695,1.3865797 1.370733,1.5197392 1.2788969,1.6417642 1.2371685,1.6972097 1.1966257,1.74383 1.1888018,1.7453646 1.1805709,1.7469792 1.1519819,1.718659 1.1209569,1.6781579 1.0242766,1.5519477 0.94164713,1.5063741 0.9065671,1.559913 0.8937449,1.579482 0.8908126,1.614864 0.8899401,1.7605347 c -0.001179,0.1969252 -6.6208e-4,0.1987607 0.0637394,0.2261121 0.0367959,0.015627 0.0368753,0.01578 0.019282,0.037168 L 0.9552956,2.0452918 0.904327,2.0257708 c -0.1269855,-0.048635 -0.28662215,-0.044445 -0.42127594,0.011057 -0.065334,0.026929 -0.086522,0.042435 -0.16425041,0.1202008 -0.12265861,0.1227173 -0.14738087,0.1754175 -0.15528126,0.331011 -0.003151,0.062065 -0.008213,0.1153289 -0.0112474,0.1183636 -0.003035,0.00303 -0.0168616,-0.025909 -0.0307265,-0.06432 z M 2.8706871,0.74824372 c 0,-0.0926527 0.0033,-0.0953784 0.1155493,-0.0953784 h 0.095672 V 0.56645665 0.48004801 H 2.5922592 2.1026103 l -1.469e-4,0.0552055 c -7.68e-5,0.030363 -0.00424,0.0616862 -0.00923,0.069607 -0.00745,0.0118058 -0.045925,0.0152667 -0.2134744,0.0192019 l -0.2043874,0.0048 -0.00276,0.0888089 -0.00276,0.0888089 H 2.2702668 2.8706871 Z M 1.81316,2.460246 C 1.81093,2.448951 1.80796,2.425793 1.8064,2.407624 1.8055686,2.397904 1.794023,2.388567 1.778576,2.38513 1.728109,2.373899 1.71857,2.370093 1.71857,2.36119 c 0,-0.00492 0.036724,-0.00895 0.081608,-0.00895 0.044885,0 0.081608,0.00383 0.081608,0.0085 0,0.00468 -0.00645,0.020878 -0.014342,0.036004 -0.00789,0.015125 -0.014369,0.037221 -0.014401,0.049102 -3.85e-5,0.015182 -0.00577,0.021602 -0.019261,0.021602 -0.010561,0 -0.019842,-0.00324 -0.020623,-0.0072 z M 2.0795299,2.3012914 C 2.0570999,2.2848902 2.0470882,2.20688 2.065586,2.1926423 c 0.00716,-0.00551 0.060547,-0.026655 0.1186324,-0.046983 0.199711,-0.069891 0.1956932,-0.0672 0.2448245,-0.1639915 0.045445,-0.08953 0.074634,-0.1164585 0.1072894,-0.098982 0.00951,0.00509 0.019525,0.018853 0.02225,0.030582 0.00626,0.026932 -0.074631,0.2777784 -0.092369,0.2864568 -0.00724,0.00354 -0.041251,0.011571 -0.075574,0.017839 -0.034324,0.00627 -0.1056106,0.027962 -0.1584159,0.048208 -0.1278114,0.049004 -0.1326969,0.050141 -0.1526935,0.03552 z"
       id="path4022"
       inkscape:connector-curvature="0" />
    <path
       style="fill:#688f5f;stroke-width:0.00960096"
       d="M 0.83956346,3.4454457 C 0.75612758,3.3925527 0.67947652,3.3298364 0.57748437,3.231011 0.49473213,3.1508282 0.43793317,3.0819082 0.4546044,3.0819082 c 0.002119,0 0.0292325,0.011618 0.0602526,0.025819 0.0489517,0.022409 0.0718056,0.02634 0.17305048,0.029764 0.12929681,0.00437 0.18515233,-0.00665 0.2812876,-0.055515 C 1.0618892,3.0348616 1.18164,2.9018356 1.2251928,2.7975989 c 0.00801,-0.019181 0.022611,-0.072148 0.032438,-0.1177065 0.00983,-0.045558 0.01853,-0.074192 0.01934,-0.063631 8.123e-4,0.010591 0.00364,0.01382 0.00632,0.0072 0.00729,-0.018058 0.045569,-0.014431 0.072669,0.00689 0.013206,0.010388 0.026152,0.016747 0.028768,0.014131 0.00262,-0.00262 0.011148,0.00844 0.01896,0.024572 0.00781,0.016131 0.036846,0.048655 0.06452,0.072277 l 0.050316,0.042949 h 0.4939668 c 0.429381,0 0.4946866,0.00188 0.499472,0.014346 0.00303,0.00789 0.00937,0.011956 0.0141,0.00903 0.00861,-0.00532 0.012429,0.00847 0.00909,0.032788 -9.788e-4,0.00713 0.00283,0.010116 0.00846,0.00663 0.00563,-0.00348 0.010243,-0.00233 0.010243,0.00257 0,0.012832 0.1145795,0.1595613 0.1279671,0.163873 0.00619,0.00199 0.019963,0.011523 0.030617,0.021179 0.010654,0.00966 0.058178,0.035981 0.1056106,0.058499 0.084369,0.040054 0.088772,0.041022 0.2028905,0.044588 0.13013,0.00407 0.1849119,-0.00698 0.2848621,-0.057433 l 0.056882,-0.028714 -0.022207,0.031934 C 3.2769993,3.174862 3.0763546,3.3588877 2.953207,3.4387712 L 2.896513,3.4755476 H 1.8917803 0.8870477 Z M 0.65766577,3.1136148 C 0.40809628,3.080514 0.21339884,2.8725248 0.18653527,2.610321 0.17920822,2.5388048 0.19916268,2.4203622 0.23108472,2.3458911 0.29620423,2.1939735 0.44193247,2.073887 0.60244728,2.039872 0.71502826,2.016015 0.81145278,2.026178 0.91747092,2.073075 c 0.0221017,0.00978 0.0440804,0.015021 0.0488416,0.011655 0.0157675,-0.011149 0.0897931,-0.1092633 0.0897931,-0.1190123 0,-0.014923 0.096143,-0.1409301 0.115387,-0.1512292 0.00946,-0.00506 0.076084,-0.084847 0.1480592,-0.1773009 0.075325,-0.096757 0.1553817,-0.1885019 0.1886331,-0.2161739 0.075338,-0.062697 0.098182,-0.063075 0.2035193,-0.00337 0.1634112,0.092625 0.1701914,0.101121 0.1314327,0.1646929 -0.022981,0.037693 -0.029452,0.036789 -0.1313135,-0.018351 -0.038035,-0.020589 -0.071704,-0.037435 -0.074819,-0.037435 -0.019689,0 -0.2352644,0.2403082 -0.2352644,0.2622562 0,0.00284 0.02297,0.015679 0.051044,0.028532 0.028074,0.012853 0.066315,0.039092 0.084978,0.05831 0.018664,0.019218 0.037026,0.034941 0.040806,0.034941 0.00378,0 0.021032,0.010801 0.03834,0.024002 0.017308,0.013201 0.038622,0.024002 0.047364,0.024002 0.00874,0 0.015895,0.00458 0.015895,0.010168 0,0.00559 0.00432,0.0075 0.0096,0.00423 0.00528,-0.00326 0.0096,-0.00136 0.0096,0.00423 0,0.00559 0.00613,0.010168 0.013618,0.010168 0.00749,0 0.030654,0.016202 0.051475,0.036004 0.045572,0.043341 0.078282,0.071877 0.1393469,0.121566 0.025313,0.020598 0.042595,0.040853 0.038404,0.045012 C 1.9318277,2.2002865 1.5833125,2.0660861 1.4091908,1.984733 1.3236265,1.9447557 1.303755,1.9386823 1.2915791,1.9487874 c -0.00806,0.00669 -0.014651,0.0221 -0.014651,0.03425 0,0.041628 0.041765,0.074681 0.1620856,0.1282738 0.063988,0.028502 0.1163422,0.05609 0.1163422,0.061307 0,0.014447 -0.098466,0.0014 -0.1357333,-0.017983 -0.037322,-0.019413 -0.2111174,-0.073211 -0.2171198,-0.067208 -0.00222,0.00222 0.025284,0.045683 0.061118,0.096585 0.035834,0.050902 0.066044,0.098619 0.067133,0.1060379 0.00249,0.016944 0.041081,0.071786 0.050519,0.071786 0.00386,0 0.01188,-0.00485 0.017812,-0.010784 0.00728,-0.00728 0.04993,-0.00948 0.1313517,-0.00677 0.1158317,0.00386 0.1216466,0.00505 0.1480524,0.030346 0.015117,0.014483 0.043545,0.030767 0.063174,0.036187 0.051504,0.014221 0.039213,0.045762 -0.026866,0.068943 -0.00472,0.00165 -0.00334,0.012788 0.00305,0.02474 0.0085,0.015892 0.00906,0.033794 0.00205,0.066626 -0.00527,0.024692 -0.00751,0.046957 -0.00499,0.049478 0.010455,0.010455 0.036082,-0.017283 0.050841,-0.055031 0.034372,-0.087913 0.059707,-0.088409 0.1612418,-0.00316 l 0.068006,0.0571 0.1354875,9.6e-5 c 0.1457518,9.99e-5 0.1428492,9.733e-4 0.2104682,-0.063324 0.039449,-0.037511 0.1045055,-0.072761 0.1421078,-0.076999 0.039854,-0.00449 0.042418,-0.00668 0.052006,-0.044285 0.00555,-0.021758 0.014756,-0.051508 0.020464,-0.066113 0.0075,-0.019191 0.00727,-0.055131 -8.305e-4,-0.129613 -0.016246,-0.1493567 0.00446,-0.2484533 0.062562,-0.2994707 0.08874,-0.077914 0.2468746,-0.1294015 0.397438,-0.1294015 0.1697551,0 0.3139335,0.05378 0.4490175,0.1674865 0.065675,0.055282 0.136641,0.1399201 0.136641,0.162966 0,0.00642 -0.015965,0.037533 -0.035477,0.069146 -0.032037,0.051903 -0.038023,0.056969 -0.061726,0.052228 l -0.026249,-0.00525 0.029225,0.062452 c 0.016074,0.034349 0.034392,0.082784 0.040708,0.1076346 0.00939,0.036941 0.015755,0.045673 0.034901,0.047871 0.046085,0.00529 0.066622,0.012243 0.066622,0.022556 0,0.00576 -0.019442,0.029643 -0.043204,0.053069 -0.036546,0.036029 -0.043204,0.048367 -0.043204,0.080054 0,0.058187 -0.044219,0.1842099 -0.087241,0.2486363 C 3.3929791,3.0016549 3.2712735,3.0817904 3.1294896,3.1065634 2.9824578,3.1322532 2.8435098,3.094636 2.7192459,2.9954986 2.6656308,2.9527246 2.5923777,2.8578928 2.5681367,2.799876 L 2.5535977,2.7650765 H 2.0500103 1.5464227 L 1.5111621,2.7341173 C 1.4674449,2.6957331 1.369717,2.5785507 1.2796461,2.456514 1.2420805,2.4056166 1.207274,2.3614572 1.2022983,2.358382 c -0.00498,-0.00308 -7.883e-4,0.023447 0.00931,0.058937 0.011602,0.040792 0.018555,0.096313 0.018902,0.1509373 0.00103,0.1613783 -0.047688,0.281152 -0.1605232,0.3946773 -0.080346,0.080838 -0.16215311,0.1240765 -0.27172398,0.1436191 -0.074202,0.013234 -0.0886006,0.013958 -0.14059355,0.00706 z M 0.79823874,2.9390778 C 0.88448094,2.9094061 0.92714417,2.8833941 0.96804235,2.8355473 1.0521227,2.7371818 1.0896046,2.6136886 1.0665914,2.5108546 1.0519963,2.4456371 0.99832051,2.3378338 0.98044352,2.3378338 c -0.006967,0 -0.025882,0.018242 -0.0420334,0.040539 l -0.0293661,0.040539 0.0277891,0.081847 0.0277891,0.081847 -0.0178871,0.050432 C 0.91044654,2.7353506 0.83944178,2.805582 0.74577597,2.8318068 0.70558457,2.8430597 0.69987359,2.8419848 0.63255289,2.8104959 0.54750486,2.770715 0.52044692,2.7425937 0.48488057,2.6570199 c -0.033585,-0.080807 -0.0329215,-0.1072187 0.004717,-0.1877708 0.0396691,-0.084898 0.0668697,-0.1113979 0.14634917,-0.1425805 0.0592559,-0.023248 0.07062,-0.024862 0.10643512,-0.015112 0.0395372,0.010763 0.0405262,0.01042 0.0709389,-0.024608 0.0437071,-0.05034 0.040724,-0.062733 -0.0196853,-0.081775 -0.0704619,-0.022211 -0.10479028,-0.020528 -0.19108989,0.00937 -0.0976858,0.03384 -0.16685413,0.094023 -0.21090825,0.1835097 -0.0299401,0.060817 -0.0316015,0.069755 -0.0316015,0.1700041 0,0.098443 0.002069,0.110159 0.0297106,0.1682187 0.0477122,0.1002179 0.11624018,0.1583289 0.23911624,0.2027681 0.0618178,0.022357 0.10447296,0.022366 0.16937585,3.84e-5 z M 0.60766018,2.8811543 C 0.5383561,2.8484567 0.4784899,2.802755 0.45019708,2.7609474 0.43818959,2.7432043 0.43252745,2.7391157 0.435971,2.7506751 l 0.00572,0.019202 -0.0148847,-0.019202 c -0.008187,-0.010561 -0.0129206,-0.026769 -0.0105199,-0.036017 0.002401,-0.00925 8.6821e-4,-0.014654 -0.003405,-0.012013 -0.004274,0.00264 -0.0125116,-0.0088 -0.0183066,-0.025422 -0.0129147,-0.037047 -0.0132341,-0.04639 -9.3524e-4,-0.027359 0.007989,0.012362 0.009328,0.012064 0.009454,-0.0021 2.7362e-4,-0.030713 0.0254692,-0.00737 0.0467477,0.043318 0.0115428,0.027494 0.0299688,0.060791 0.0409466,0.073992 0.0199567,0.023999 0.0199567,0.023997 -1.9048e-4,-0.010734 -0.0110826,-0.019105 -0.020134,-0.038547 -0.0201142,-0.043204 4.416e-5,-0.010344 0.040091,0.054265 0.0422028,0.068087 0.003192,0.020894 0.0179037,0.034937 0.0312383,0.029821 0.008892,-0.00341 0.0114429,-0.00132 0.007055,0.00578 -0.004633,0.0075 -0.001502,0.00906 0.009601,0.0048 0.0111027,-0.00426 0.0142335,-0.0027 0.009601,0.0048 -0.004633,0.0075 -0.001502,0.00906 0.009601,0.0048 0.0111027,-0.00426 0.0142335,-0.0027 0.009601,0.0048 -0.004633,0.0075 -0.001502,0.00906 0.009601,0.0048 0.0111027,-0.00426 0.0142335,-0.0027 0.009601,0.0048 -0.004633,0.0075 -0.001502,0.00906 0.009601,0.0048 0.009061,-0.00348 0.0140956,-0.00247 0.0111873,0.00223 -0.002908,0.00471 0.007636,0.013061 0.0234325,0.018568 0.0216807,0.00756 0.0410924,0.0064 0.0791965,-0.00473 0.027762,-0.00811 0.0597847,-0.01543 0.0711616,-0.016277 0.0113769,-8.468e-4 0.018229,-0.00551 0.0152267,-0.010372 -0.003021,-0.00489 0.0019,-0.00601 0.0110164,-0.00251 0.009061,0.00348 0.0140636,0.00242 0.0111161,-0.00235 -0.002947,-0.00477 0.009844,-0.018067 0.0284257,-0.029551 0.0185816,-0.011484 0.0382672,-0.029256 0.0437459,-0.039493 0.005479,-0.010237 0.0147324,-0.015664 0.0205639,-0.01206 0.006179,0.00382 0.0079,0.00218 0.004126,-0.00393 -0.003562,-0.00576 0.005033,-0.033947 0.0191005,-0.062629 0.0199118,-0.040599 0.0295239,-0.051118 0.0433969,-0.04749 0.0232693,0.00609 0.0225957,0.012745 -0.007317,0.072347 -0.0424436,0.084571 -0.0870867,0.1313047 -0.15642501,0.163752 -0.0893351,0.041805 -0.1510311,0.043752 -0.22847983,0.00721 z m 0.30439614,-0.093594 0.0239675,-0.027284 -0.0335685,0.028728 c -0.0531911,0.045522 -0.0537812,0.04615 -0.0335685,0.035735 0.0105611,-0.00544 0.0299873,-0.022173 0.0431695,-0.037179 z m 0.0480397,-0.070489 c 0.005652,-0.010561 0.008116,-0.019202 0.005476,-0.019202 -0.00264,0 -0.009425,0.00864 -0.0150771,0.019202 -0.005652,0.010561 -0.008116,0.019202 -0.005476,0.019202 0.00264,0 0.009425,-0.00864 0.0150771,-0.019202 z M 3.131272,2.9390778 c 0.081084,-0.027897 0.1273141,-0.054517 0.160688,-0.092528 0.037615,-0.042841 0.072677,-0.097608 0.082677,-0.1291419 0.00654,-0.020623 0.00318,-0.01908 -0.026134,0.012001 -0.030153,0.031971 -0.038644,0.035668 -0.081935,0.035668 -0.035013,0 -0.063243,0.00786 -0.1026396,0.028586 C 3.0589813,2.848868 3.0485232,2.8493786 2.9509811,2.8040585 2.8726339,2.7676569 2.8592044,2.764366 2.7997266,2.7669935 l -0.065273,0.00288 0.028033,0.03521 c 0.044257,0.055588 0.084154,0.084687 0.1637679,0.119446 0.085364,0.03727 0.1298027,0.040423 0.2050177,0.014545 z M 3.009901,2.9186919 c 0.013655,-0.00587 0.014895,-0.00845 0.00429,-0.00893 -0.024094,-0.00109 -0.1662058,-0.072912 -0.1819104,-0.091936 -0.013395,-0.016226 -0.012577,-0.017098 0.011711,-0.012484 0.015831,0.00301 0.02381,0.00124 0.020266,-0.0045 -0.00322,-0.0052 1.556e-4,-0.00728 0.00749,-0.00461 0.00734,0.00267 0.012151,0.010028 0.0107,0.016361 -0.00145,0.00633 0.00147,0.00898 0.00648,0.00588 0.013313,-0.00823 0.059023,0.014899 0.051978,0.026298 -0.00344,0.00557 -0.00118,0.00671 0.00533,0.00269 0.00622,-0.00385 0.030298,2.592e-4 0.053502,0.00912 0.047225,0.018035 0.074873,0.012778 0.1617349,-0.030755 0.025281,-0.01267 0.05023,-0.0204 0.055443,-0.017178 0.00521,0.00322 0.00829,1.363e-4 0.00684,-0.00686 -0.00166,-0.00802 0.00801,-0.013411 0.026165,-0.014598 0.027624,-0.00181 0.02782,-0.00155 0.0048,0.00624 -0.017674,0.00598 -0.019362,0.00838 -0.0064,0.00908 0.034411,0.00187 0.00941,0.025523 -0.069522,0.065764 -0.04655,0.023732 -0.093367,0.040804 -0.1119005,0.040804 -0.017526,0 -0.034535,0.00432 -0.037799,0.0096 -0.00326,0.00528 -0.013239,0.0093 -0.022169,0.00893 -0.013235,-5.501e-4 -0.012687,-0.0022 0.00297,-0.00893 z m 0.055405,0.0038 c 0.00319,-0.00319 0.011471,-0.00353 0.018402,-7.575e-4 0.00766,0.00306 0.00538,0.00534 -0.0058,0.0058 -0.010121,4.167e-4 -0.015792,-0.00185 -0.012601,-0.00504 z M 2.820282,2.7875209 c 0.0066,-0.00266 0.017402,-0.00266 0.024002,0 0.0066,0.00266 0.0012,0.00484 -0.012001,0.00484 -0.013201,0 -0.018602,-0.00218 -0.012001,-0.00484 z M 2.5154516,2.5964514 c 0,-0.021822 -0.00341,-0.02427 -0.030114,-0.021602 -0.018268,0.00183 -0.035724,0.011506 -0.044375,0.024611 -0.014091,0.021343 -0.01373,0.021602 0.030114,0.021602 0.041226,0 0.044375,-0.00175 0.044375,-0.024611 z m 0.2766953,0.00301 c -0.00267,-0.01882 -0.00956,-0.021976 -0.053473,-0.024504 -0.048398,-0.00279 -0.050405,-0.00193 -0.050405,0.021602 0,0.023338 0.00254,0.024504 0.053473,0.024504 0.049962,0 0.053272,-0.00142 0.050405,-0.021602 z m 0.6145271,-0.0053 c 0.003,-0.021171 7.739e-4,-0.021981 -0.052805,-0.019202 -0.050058,0.0026 -0.056268,0.00522 -0.059073,0.025004 -0.003,0.021171 -7.739e-4,0.021981 0.052805,0.019202 0.050058,-0.0026 0.056268,-0.00523 0.059073,-0.025004 z M 2.8303295,2.4468265 c 0.032437,-0.059937 0.068836,-0.092419 0.1318191,-0.1176333 0.07851,-0.03143 0.092291,-0.031206 0.1629639,0.00264 0.059778,0.02863 0.095033,0.060651 0.1255237,0.1140096 0.017176,0.030057 0.02007,0.031203 0.078814,0.031203 0.058777,0 0.060747,-7.815e-4 0.054449,-0.021602 C 3.361173,2.3803118 3.2755413,2.2726873 3.2123581,2.239848 3.1630824,2.2142371 3.0799477,2.1890223 3.0444016,2.1889068 c -0.018975,-5.76e-5 -0.069029,0.01182 -0.11123,0.026403 -0.064909,0.02243 -0.085696,0.035389 -0.134935,0.084121 -0.056453,0.055872 -0.082238,0.096543 -0.095867,0.1512151 l -0.00658,0.026403 h 0.059093 c 0.056411,0 0.059835,-0.00137 0.075448,-0.030221 z m -0.087655,0.00462 c -0.00352,-0.00352 -0.00633,-0.011081 -0.00625,-0.016802 9.99e-5,-0.00704 0.00243,-0.00688 0.0072,4.897e-4 0.00388,0.00599 0.015694,0.013049 0.026256,0.015688 0.018573,0.00464 0.018547,0.00483 -7.998e-4,0.00591 -0.011001,6.125e-4 -0.022882,-0.00177 -0.026403,-0.00529 z m 0.560056,0.00272 c 0,-0.00202 0.01067,-0.00572 0.023712,-0.00821 0.013041,-0.00249 0.021427,-8.362e-4 0.018635,0.00368 -0.00492,0.00795 -0.042347,0.011961 -0.042347,0.00453 z m -0.5376538,-0.03386 c 0,-0.017104 0.075791,-0.1042723 0.1072372,-0.1233336 0.058076,-0.035204 0.1490863,-0.062864 0.1891554,-0.05749 0.074377,0.00998 0.1523193,0.054106 0.2032808,0.1150955 0.047115,0.056386 0.056384,0.074467 0.038175,0.074467 -0.00517,0 -0.017714,-0.016202 -0.027868,-0.036004 C 3.2494251,2.3430584 3.2219161,2.3199034 3.1459476,2.2843706 3.0903056,2.2583456 3.0728556,2.2544756 3.0307361,2.2588236 2.9357791,2.2686236 2.8345664,2.3308456 2.7977406,2.402059 2.7843836,2.42789 2.7650766,2.438675 2.7650767,2.4203065 Z M 2.9981,2.2216245 c 0.00319,-0.00319 0.011471,-0.00353 0.018402,-7.575e-4 0.00766,0.00306 0.00538,0.00534 -0.0058,0.0058 C 3.000581,2.2270837 2.99491,2.224817 2.998101,2.221627 Z M 3.6011183,2.636266 c -4.167e-4,-0.010121 0.00185,-0.015792 0.00504,-0.012601 0.00319,0.00319 0.00353,0.011471 7.575e-4,0.018402 -0.00306,0.00766 -0.00534,0.00538 -0.0058,-0.0058 z M 0.15584281,2.5538554 c 0,-0.018482 0.001976,-0.026043 0.004391,-0.016802 0.002415,0.00924 0.002415,0.024363 0,0.033603 -0.002415,0.00924 -0.004391,0.00168 -0.004391,-0.016802 z m -0.04282,-0.068122 C 0.08022609,2.3944198 0.04114583,2.2343543 0.03271503,2.1568078 0.02918721,2.1243589 0.02175302,2.0920944 0.01619461,2.0851089 c -0.01367388,-0.017184 -0.01367388,-0.370255 0,-0.3874395 0.0055584,-0.00699 0.01313793,-0.040535 0.01684337,-0.074553 C 0.04189837,1.5417708 0.09611918,1.3280569 0.12939401,1.2433243 0.23647556,0.9706468 0.39855753,0.72323254 0.59181623,0.53744784 0.79360017,0.34346761 1.0414265,0.19500461 1.3110565,0.10657928 1.4249074,0.06924182 1.6066762,0.02880288 1.6606534,0.02880288 c 0.015134,0 0.029207,-0.005074 0.031274,-0.01127555 0.00535,-0.01605019 0.3935735,-0.01605019 0.3989235,0 0.00207,0.0062016 0.016141,0.01127555 0.031274,0.01127555 0.053977,0 0.235746,0.04043894 0.3495969,0.0777764 0.4788169,0.15702829 0.871983,0.49461666 1.094667,0.93992542 0.051324,0.1026351 0.101178,0.2205267 0.101178,0.2392613 0,0.00711 -0.067263,0.010364 -0.2141014,0.010364 -0.1537221,0 -0.2173506,0.00325 -0.2256226,0.011521 -0.016026,0.016026 -0.016026,0.2681621 0,0.2841884 0.00837,0.00837 0.080206,0.011521 0.2629992,0.011521 0.2754294,0 0.2631334,-0.0027 0.2631334,0.057824 0,0.015098 0.00366,0.029712 0.00813,0.032476 0.00447,0.00276 0.010875,0.046811 0.01423,0.097883 0.00716,0.1090392 -0.00239,0.2988909 -0.014105,0.2804146 -0.00508,-0.00801 -0.00801,-1.718e-4 -0.00811,0.021688 -1.862e-4,0.043302 -0.013869,0.1202174 -0.044669,0.2510973 l -0.02422,0.1029193 -0.034403,0.00645 c -0.042308,0.00794 -0.064975,-0.00526 -0.064549,-0.037574 1.776e-4,-0.013458 -0.00353,-0.02209 -0.00823,-0.019183 -0.00476,0.00294 -0.00551,-0.00429 -0.00169,-0.016321 0.00427,-0.013455 0.00326,-0.019382 -0.00268,-0.015712 -0.00525,0.00324 -0.011786,-0.0027 -0.014535,-0.013212 -0.00275,-0.010509 -0.00162,-0.01702 0.00251,-0.014469 0.00413,0.00255 0.00751,-0.006 0.00751,-0.019013 0,-0.013009 -0.0041,-0.021119 -0.00911,-0.018022 -0.00501,0.0031 -0.00361,-0.00318 0.00312,-0.013955 0.00673,-0.010772 0.016355,-0.017037 0.021394,-0.013923 0.00504,0.00311 0.00637,0.00115 0.00296,-0.00437 -0.00341,-0.00552 0.00479,-0.029697 0.01823,-0.053735 0.029463,-0.052716 0.046477,-0.1059441 0.030757,-0.096229 -0.00681,0.00421 -0.00846,9.466e-4 -0.0046,-0.00911 0.00331,-0.00862 0.00121,-0.018635 -0.00465,-0.02226 -0.00686,-0.00424 -0.00813,-0.00179 -0.00355,0.00689 0.00391,0.00742 -0.00145,0.00295 -0.011923,-0.00993 -0.010472,-0.012876 -0.017131,-0.028385 -0.014798,-0.034465 0.00233,-0.00608 -0.00326,-0.017148 -0.012439,-0.024595 -0.014526,-0.01179 -0.015585,-0.011679 -0.00819,8.622e-4 0.0073,0.012392 0.00623,0.012575 -0.00765,0.00131 -0.00888,-0.0072 -0.013358,-0.017587 -0.00996,-0.023086 0.0034,-0.0055 0.00177,-0.00727 -0.00362,-0.00394 -0.00539,0.00333 -0.01794,-0.00301 -0.027886,-0.014088 C 3.4954827,1.9506319 3.401842,1.8825869 3.3393119,1.8494461 3.2408137,1.7972421 3.1640937,1.7813693 3.009901,1.7812936 c -0.1537181,-7.68e-5 -0.2162265,0.01347 -0.3264326,0.07074 -0.075707,0.039342 -0.091049,0.041564 -0.1180751,0.017106 -0.013997,-0.012667 -0.031279,-0.016423 -0.065672,-0.014272 l -0.046676,0.00292 -0.067207,0.1020726 c -0.036964,0.05614 -0.077321,0.1069916 -0.089683,0.1130037 -0.047209,0.022959 -0.1373687,0.0492 -0.1475105,0.042932 -0.00671,-0.00415 -0.00785,-0.00211 -0.00311,0.00556 0.00557,0.00901 0.00195,0.010356 -0.01412,0.00526 -0.014719,-0.00467 -0.019512,-0.00347 -0.015037,0.00377 0.00422,0.00683 -0.00325,0.010629 -0.02088,0.010629 -0.015097,0 -0.033268,0.0054 -0.040379,0.012001 -0.010472,0.00972 -0.011447,0.0094 -0.00513,-0.00166 0.00634,-0.011095 0.0039,-0.010928 -0.012974,8.91e-4 -0.019584,0.013717 -0.023392,0.012129 -0.066399,-0.027679 -0.025093,-0.023227 -0.044713,-0.045802 -0.0436,-0.050166 0.00111,-0.00436 -0.00537,-0.00736 -0.014401,-0.00666 -0.00903,6.99e-4 -0.015585,-0.00341 -0.014558,-0.00913 0.00103,-0.00572 -0.00371,-0.010401 -0.010518,-0.010401 -0.012206,0 -0.159366,-0.097675 -0.159366,-0.1057761 0,-0.00229 0.0054,-9.236e-4 0.012001,0.00304 0.00776,0.00466 0.00721,0.00131 -0.00154,-0.00947 -0.00745,-0.00917 -0.01919,-0.014513 -0.026095,-0.011863 -0.00691,0.00265 -0.015522,1.92e-5 -0.019147,-0.00585 -0.00424,-0.00686 -0.00179,-0.00813 0.00689,-0.00355 0.00742,0.00391 0.00268,-0.00176 -0.010518,-0.01262 -0.013201,-0.010855 -0.028323,-0.01919 -0.033603,-0.018521 -0.016056,0.00203 -0.043401,-0.012929 -0.038404,-0.021014 0.00258,-0.00417 -0.00199,-0.010152 -0.010155,-0.013286 -0.010127,-0.00389 -0.012516,-0.00192 -0.00752,0.00619 0.00403,0.00654 -0.00547,0.0035 -0.021104,-0.00675 -0.015637,-0.010254 -0.048954,-0.031422 -0.074036,-0.04704 -0.025083,-0.015618 -0.045605,-0.032538 -0.045605,-0.037601 0,-0.012924 0.086229,-0.11915 0.1360681,-0.1676234 l 0.041625,-0.040484 0.084874,0.043699 c 0.1043673,0.053735 0.1185453,0.051911 0.1562303,-0.020107 0.033593,-0.064196 0.030851,-0.070643 -0.054594,-0.1283752 -0.033975,-0.022955 -0.065278,-0.047889 -0.069563,-0.055407 -0.00428,-0.00752 -0.012501,-0.010759 -0.018258,-0.0072 -0.00576,0.00356 -0.016274,-0.00147 -0.023371,-0.011177 -0.0071,-0.00971 -0.022643,-0.019282 -0.034547,-0.021281 -0.070278,-0.011803 -0.1131035,-0.012552 -0.1322363,-0.00231 -0.01692,0.00906 -0.019797,0.00893 -0.013895,-6.231e-4 0.00522,-0.00844 0.00341,-0.00974 -0.00604,-0.00433 -0.025018,0.014309 -0.056128,0.046001 -0.051889,0.05286 0.0055,0.00889 -0.035542,0.047384 -0.048005,0.045023 -0.00528,-10e-4 -0.016409,0.011802 -0.024729,0.028451 -0.00832,0.016648 -0.031386,0.045603 -0.051258,0.064344 -0.022043,0.020789 -0.033347,0.038576 -0.028993,0.045621 0.00433,0.00701 0.00309,0.00904 -0.00318,0.00517 -0.011731,-0.00725 -0.052595,0.039863 -0.045098,0.051994 0.00269,0.00436 -0.011371,0.024193 -0.031255,0.044077 -0.019884,0.019884 -0.03012,0.032424 -0.022747,0.027867 0.0092,-0.00569 0.011227,-0.00476 0.00646,0.00296 -0.00382,0.00618 -0.010671,0.00894 -0.015221,0.00613 -0.00455,-0.00281 -0.01075,-0.00111 -0.013776,0.00379 -0.00908,0.014685 -0.037246,0.00549 -0.039966,-0.013042 -0.00139,-0.00949 -0.00779,-0.022094 -0.014208,-0.028005 -0.00885,-0.00815 -0.00981,-0.00748 -0.00398,0.00274 0.00504,0.00883 0.00401,0.011211 -0.00297,0.00689 -0.00587,-0.00363 -0.0085,-0.012241 -0.00585,-0.019147 0.00265,-0.00691 -0.00269,-0.018648 -0.011863,-0.026095 -0.014526,-0.01179 -0.015585,-0.011679 -0.00819,8.621e-4 0.0073,0.012392 0.00623,0.012575 -0.00765,0.00131 -0.00888,-0.0072 -0.014173,-0.016269 -0.011771,-0.020155 0.0024,-0.00389 -0.00629,-0.01633 -0.019308,-0.027651 -0.013021,-0.011322 -0.023675,-0.017924 -0.023675,-0.014673 0,0.00325 -0.00643,5.732e-4 -0.014296,-0.00595 -0.00786,-0.00653 -0.012062,-0.015479 -0.00933,-0.019896 0.00273,-0.00442 -0.00432,-0.013 -0.015666,-0.019072 -0.0139926,-0.00749 -0.0185519,-0.00768 -0.0141717,-5.914e-4 0.00402,0.00651 8.5448e-4,0.0083 -0.008387,0.00475 -0.008165,-0.00313 -0.0131183,-0.00848 -0.011008,-0.011891 0.005065,-0.00818 -0.0555941,-0.00621 -0.0692778,0.00225 -0.005851,0.00362 -0.007933,0.013626 -0.004626,0.022244 0.003555,0.00926 0.002081,0.013239 -0.003607,0.00972 -0.006201,-0.00383 -0.008727,0.022053 -0.007108,0.072832 0.001887,0.059165 6.2925e-4,0.069217 -0.005051,0.040374 -0.006268,-0.031829 -0.007796,-0.024158 -0.008925,0.044804 -9.3302e-4,0.056982 -0.005145,0.084485 -0.0133636,0.087257 -0.006601,0.00223 -0.15915697,0.002 -0.33901402,-5.118e-4 -0.23933505,-0.00334 -0.33264917,-0.00154 -0.3480348,0.00669 -0.0208723,0.011171 -0.0210309,0.013316 -0.0222769,0.3013419 -6.9018e-4,0.1595499 -0.003931,0.3224942 -0.007201,0.3620982 l -0.005946,0.072007 z M 3.6036732,2.4334293 c -0.00313,-0.00815 -0.00774,-0.012756 -0.010261,-0.01024 -0.00252,0.00252 -0.00173,0.00918 0.00175,0.014815 0.00947,0.015318 0.015,0.012342 0.00851,-0.00458 z M 2.8774005,0.81806941 c 0.00664,-0.004218 0.012737,-0.0356827 0.014401,-0.0742604 l 0.00289,-0.0669413 0.090689,-0.002785 c 0.049879,-0.001532 0.096324,-0.007462 0.1032103,-0.0131768 0.016562,-0.0137453 0.017402,-0.17213602 9.997e-4,-0.18853825 -0.017328,-0.0173277 -0.980461,-0.0165415 -0.9948632,8.1214e-4 -0.00563,0.006783 -0.011559,0.0381065 -0.013177,0.069607 l -0.00294,0.0572737 -0.2008773,0.0026 c -0.1284118,0.001662 -0.2054745,0.006416 -0.2136213,0.0131768 -0.016834,0.0139712 -0.017869,0.18167914 -0.00122,0.19832456 0.00872,0.008717 0.1565425,0.0114854 0.6072607,0.0113741 0.3276568,-8.064e-5 0.6009209,-0.003441 0.6072535,-0.007466 z M 2.0795299,2.3012914 C 2.0570999,2.2848902 2.0470882,2.20688 2.065586,2.1926423 c 0.00716,-0.00551 0.060547,-0.026655 0.1186324,-0.046983 0.199711,-0.069891 0.1956932,-0.0672 0.2448245,-0.1639915 0.045445,-0.08953 0.074634,-0.1164585 0.1072894,-0.098982 0.00951,0.00509 0.019525,0.018853 0.02225,0.030582 0.00626,0.026932 -0.074631,0.2777784 -0.092369,0.2864568 -0.00724,0.00354 -0.041251,0.011571 -0.075574,0.017839 -0.034324,0.00627 -0.1056106,0.027962 -0.1584159,0.048208 -0.1278114,0.049004 -0.1326969,0.050141 -0.1526935,0.03552 z M 0.8840463,1.7913791 c -4.1687e-4,-0.010121 0.001852,-0.015791 0.005043,-0.012601 0.00319,0.00319 0.003531,0.011471 7.5799e-4,0.018402 -0.003065,0.00766 -0.00534,0.00538 -0.005801,-0.0058 z"
       id="path4020"
       inkscape:connector-curvature="0" />
    <path
       style="fill:#4e535f;stroke-width:0.00960096"
       d="M 0.82957131,3.4387712 C 0.7983896,3.4185443 0.74047405,3.3757629 0.70087009,3.3437016 0.62491078,3.2822089 0.45512583,3.1132311 0.46219542,3.1061615 c 0.002285,-0.00229 0.0320795,0.00598 0.0662093,0.018362 0.12748635,0.04626 0.27392889,0.040719 0.4118903,-0.015585 C 1.0015506,3.08394 1.0249891,3.0671281 1.0902225,3.0014 1.1819774,2.9089494 1.2327707,2.828886 1.2529577,2.7448877 c 0.031685,-0.1318429 0.032385,-0.1334265 0.058919,-0.1334265 0.015271,0 0.036029,0.011972 0.05482,0.031616 0.016634,0.017389 0.055564,0.058433 0.086513,0.091209 l 0.05627,0.059593 h 0.4966975 c 0.5559315,0 0.5035327,-0.00693 0.5429605,0.071758 0.02849,0.056855 0.1645128,0.1901463 0.2256682,0.2211362 0.1656402,0.083936 0.3309883,0.091844 0.4934185,0.023598 0.036781,-0.015454 0.068532,-0.026441 0.070557,-0.024416 0.00203,0.00202 -0.038509,0.047639 -0.090076,0.1013634 -0.09918,0.1033319 -0.2018816,0.190725 -0.2954984,0.2514524 L 2.896513,3.4755476 H 1.8913891 0.88626533 Z M 0.6088058,3.0964645 C 0.4321494,3.0580274 0.27930816,2.9161567 0.22024241,2.735791 0.1884737,2.6387808 0.18764691,2.5025137 0.21823319,2.4046418 c 0.0490675,-0.1570093 0.1708509,-0.285215 0.3249961,-0.3421347 0.045807,-0.016915 0.0782476,-0.021076 0.16724176,-0.021453 0.0990353,-4.196e-4 0.1169184,0.00223 0.17357058,0.025744 0.0347378,0.014416 0.0693581,0.026212 0.0769341,0.026212 0.0182201,0 0.087413,-0.089392 0.11552087,-0.1492437 0.012497,-0.026611 0.050242,-0.075076 0.085656,-0.1099822 C 1.1969743,1.79946 1.270793,1.7130513 1.326194,1.6417642 1.4352077,1.5014908 1.5297097,1.404283 1.5763839,1.3844111 c 0.026423,-0.01125 0.034446,-0.010066 0.078607,0.011594 0.068323,0.033512 0.1602794,0.089651 0.1855484,0.1132772 l 0.021157,0.019781 -0.018952,0.037149 c -0.010423,0.020432 -0.024264,0.037035 -0.030758,0.036896 -0.00649,-1.392e-4 -0.044156,-0.017421 -0.083695,-0.038404 -0.039539,-0.020983 -0.080955,-0.038151 -0.092034,-0.038151 -0.033302,0 -0.2441172,0.2350147 -0.2441172,0.2721392 0,0.0085 0.018392,0.023127 0.042448,0.033768 0.023346,0.010327 0.06115,0.032389 0.084008,0.049027 0.022858,0.016638 0.089445,0.061579 0.1479718,0.099869 0.1101941,0.072094 0.2754461,0.1986429 0.268485,0.2056041 -0.0086,0.0086 -0.4010068,-0.1445679 -0.5420613,-0.2115828 -0.090343,-0.042922 -0.109132,-0.041123 -0.114298,0.010945 -0.00437,0.044006 0.033313,0.074191 0.1559952,0.1249677 0.056188,0.023256 0.104419,0.045938 0.1071798,0.050405 0.010737,0.017373 -0.078093,0.00692 -0.1293264,-0.015213 -0.049627,-0.021443 -0.2031722,-0.072675 -0.2178107,-0.072675 -0.011833,0 0.00547,0.030479 0.061766,0.1087857 0.031011,0.043138 0.058928,0.089234 0.062036,0.1024354 0.00311,0.013201 0.018229,0.03903 0.033603,0.057398 0.023944,0.028607 0.030127,0.031591 0.043118,0.020809 0.011208,-0.0093 0.0462,-0.011753 0.1340705,-0.00939 0.1185891,0.00318 0.1189988,0.00328 0.1544106,0.034396 0.019528,0.017162 0.043742,0.031203 0.053807,0.031203 0.010066,0 0.021376,0.00498 0.025135,0.011057 0.00885,0.014315 -0.022235,0.036947 -0.05074,0.036947 -0.026393,0 -0.0277,0.00678 -0.00595,0.030815 0.013975,0.015442 0.014769,0.024857 0.00574,0.067963 -0.018208,0.086879 0.02199,0.088112 0.060141,0.00184 0.036355,-0.082206 0.055019,-0.081226 0.1607181,0.00844 l 0.062005,0.052601 0.1389752,-0.00162 0.1389752,-0.00162 0.051848,-0.043733 c 0.08446,-0.07124 0.1162199,-0.090002 0.1612952,-0.095281 l 0.042699,-0.005 0.022499,-0.072007 c 0.021339,-0.068297 0.021922,-0.077094 0.011302,-0.1707327 -0.0098,-0.086387 -0.00906,-0.1088978 0.00588,-0.1801161 0.019506,-0.092948 0.039526,-0.117185 0.1377574,-0.166772 0.1063902,-0.053706 0.1873552,-0.072784 0.308877,-0.072784 0.125439,0 0.2067642,0.019978 0.317783,0.078064 0.1083021,0.056665 0.2578979,0.1995462 0.2581725,0.2465852 1.008e-4,0.017286 -0.05207,0.1013102 -0.070673,0.1138209 -0.0053,0.00356 -0.020209,-0.00184 -0.033132,-0.012001 -0.039964,-0.031436 -0.042807,-0.020723 -0.00975,0.036724 0.017474,0.030363 0.042806,0.087609 0.056294,0.1272127 0.023697,0.06958 0.025644,0.072111 0.057743,0.075092 0.052343,0.00486 0.055013,0.016859 0.012708,0.057103 -0.034117,0.032455 -0.039678,0.044243 -0.049807,0.1055754 -0.039248,0.2376581 -0.1913338,0.4017285 -0.4176639,0.4505776 -0.06421,0.013859 -0.086558,0.014578 -0.1536153,0.00495 C 2.8190075,3.0796145 2.6662809,2.9714142 2.5888508,2.8240644 L 2.5528083,2.7554756 H 2.0465532 1.5402982 L 1.4920752,2.7050705 C 1.4272932,2.6373571 1.3725295,2.5698835 1.2788644,2.4423773 1.2064388,2.3437844 1.1713171,2.302923 1.1713171,2.3172541 c 0,0.00318 0.010534,0.037188 0.023408,0.075583 0.06827,0.2035997 0.019926,0.4164455 -0.1280006,0.5635498 -0.0751257,0.074708 -0.13608001,0.1095052 -0.23706185,0.135332 -0.0848625,0.021704 -0.13769782,0.022839 -0.22085695,0.00475 z m 0.17913059,-0.14524 C 0.90752384,2.915743 0.98575621,2.8508128 1.0413793,2.7408758 1.0974633,2.6300274 1.0957363,2.5210072 1.0359993,2.4014678 0.9931938,2.3158068 0.983653,2.3111948 0.9445935,2.3572808 0.926806,2.3782678 0.909762,2.4030078 0.906718,2.4122578 c -0.003044,0.00925 0.00556,0.04455 0.0191201,0.078445 0.032012,0.080017 0.0310862,0.1101381 -0.005681,0.1848228 C 0.886241,2.7444186 0.8531313,2.7766798 0.78247595,2.8096766 0.71968275,2.8390016 0.70787955,2.8382546 0.62858973,2.7999266 0.54450983,2.7592876 0.52694634,2.7399296 0.4897302,2.6468809 0.4560498,2.5626729 0.4570706,2.5522139 0.5091182,2.4482412 0.5423034,2.3819492 0.5581746,2.3677532 0.63318028,2.3372755 c 0.0492635,-0.020018 0.0694976,-0.023404 0.10977818,-0.018371 0.0489859,0.00612 0.0496376,0.00585 0.0811091,-0.033309 0.042197,-0.052509 0.0373584,-0.068212 -0.02726,-0.088473 -0.07363,-0.023086 -0.11291488,-0.021554 -0.19377736,0.00756 -0.11803743,0.042495 -0.19495779,0.1178422 -0.23921773,0.2343249 -0.0161809,0.042585 -0.0192418,0.069038 -0.0166083,0.1435327 0.002763,0.078154 0.007496,0.1003313 0.032817,0.15376 0.0485062,0.1023519 0.12485318,0.1675008 0.24883949,0.2123416 0.0599208,0.021671 0.09293,0.022207 0.1590735,0.00258 z M 0.60712209,2.8809101 C 0.51921683,2.8394506 0.46613672,2.7918668 0.43233348,2.7242205 c -0.0160012,-0.032021 -0.0290932,-0.066036 -0.0290932,-0.075588 0,-0.030427 0.0257883,-0.00943 0.0426516,0.034724 0.0310136,0.081208 0.0669999,0.1183401 0.15614067,0.1611128 0.0492797,0.023646 0.0951822,0.039183 0.11417283,0.038645 0.0456853,-0.0013 0.16325155,-0.058334 0.19517406,-0.094692 0.014982,-0.017063 0.039633,-0.057163 0.05478,-0.08911 0.0151469,-0.031947 0.0329405,-0.058302 0.0395412,-0.058567 0.017611,-7.076e-4 0.014913,0.013557 -0.0131356,0.069444 -0.0424436,0.084571 -0.0870867,0.1313047 -0.15642501,0.163752 -0.0895384,0.0419 -0.15098847,0.04377 -0.22901792,0.00697 z m 2.51384761,0.070314 c 0.1115265,-0.03309 0.1736136,-0.079992 0.2353519,-0.1777923 0.028137,-0.044572 0.045591,-0.094764 0.032954,-0.094764 -0.00447,0 -0.021811,0.017282 -0.03854,0.038404 -0.028477,0.035956 -0.03359,0.038404 -0.080196,0.038404 -0.038935,0 -0.066434,0.00837 -0.1262247,0.038404 -0.042045,0.021122 -0.085396,0.038404 -0.096336,0.038404 -0.01094,0 -0.055628,-0.017282 -0.099305,-0.038404 -0.068996,-0.033366 -0.088063,-0.038404 -0.1453401,-0.038404 -0.036259,0 -0.068273,0.0038 -0.071142,0.00844 -0.00629,0.010175 0.045682,0.076432 0.085691,0.109248 0.054377,0.044601 0.1683685,0.092562 0.2214798,0.093186 0.016203,1.91e-4 0.052927,-0.00662 0.081607,-0.015126 z M 2.994645,2.9038941 c -0.051933,-0.01798 -0.1478578,-0.068536 -0.1617116,-0.085229 -0.021298,-0.025662 0.00813,-0.01876 0.098991,0.023219 0.045719,0.021122 0.097316,0.038404 0.1146618,0.038404 0.017345,0 0.067273,-0.017282 0.1109512,-0.038404 0.043678,-0.021122 0.085933,-0.038404 0.093901,-0.038404 0.030482,0 0.00434,0.025425 -0.062352,0.060633 -0.081195,0.042867 -0.1467752,0.056284 -0.1944414,0.039781 z M 2.520252,2.5970597 c 0,-0.025255 -0.00371,-0.029163 -0.030093,-0.031729 -0.023205,-0.00226 -0.034712,0.00295 -0.050274,0.022731 -0.02688,0.034173 -0.01813,0.044166 0.035632,0.040692 0.042662,-0.00276 0.044735,-0.00423 0.044735,-0.031694 z m 0.2832284,0.010776 c 0,-0.033544 -0.021329,-0.045875 -0.073575,-0.042536 -0.035607,0.00228 -0.047024,0.00696 -0.049563,0.020319 -0.00698,0.036739 0.00505,0.045044 0.065231,0.045044 0.054572,0 0.057907,-0.00131 0.057907,-0.022827 z m 0.6103819,-6.298e-4 c 0.00895,-0.035643 -0.00191,-0.04375 -0.058555,-0.04375 -0.042725,0 -0.053789,0.00353 -0.062579,0.019952 -0.019173,0.035824 -0.00526,0.047255 0.057523,0.047255 0.053207,0 0.058185,-0.00184 0.063611,-0.023457 z M 2.8447437,2.4405076 c 0.032549,-0.059804 0.04881,-0.073703 0.120127,-0.102682 0.07485,-0.030414 0.089869,-0.030081 0.1602418,0.00355 0.060696,0.02901 0.084013,0.050376 0.1192419,0.1092656 0.02128,0.035572 0.02227,0.036004 0.082595,0.036004 0.033581,0 0.063696,-0.00427 0.066922,-0.00949 0.0079,-0.012791 -0.025689,-0.086856 -0.062892,-0.1386608 C 3.2705567,2.2543612 3.1326575,2.179418 3.0382647,2.179418 c -0.07666,0 -0.2154922,0.070102 -0.2755562,0.1391408 -0.028302,0.03253 -0.077082,0.1377535 -0.071095,0.1533565 0.00426,0.011111 0.020696,0.014733 0.066835,0.014733 h 0.061182 z m -0.079667,-0.020204 c 0,-0.017104 0.075791,-0.1042723 0.1072372,-0.1233336 0.058076,-0.035204 0.1490863,-0.062864 0.1891554,-0.05749 0.074377,0.00998 0.1523193,0.054106 0.2032808,0.1150955 0.047115,0.056386 0.056384,0.074467 0.038175,0.074467 -0.00517,0 -0.017714,-0.016202 -0.027868,-0.036004 -0.025632,-0.049983 -0.053141,-0.073138 -0.1291095,-0.1086708 -0.055642,-0.026025 -0.073092,-0.029895 -0.1152115,-0.025547 -0.094957,0.0098 -0.1961697,0.072022 -0.2329955,0.1432354 -0.013357,0.025831 -0.032664,0.036616 -0.032664,0.018248 z m -1.248125,0.043432 c 0,-0.00788 -0.058718,-0.011857 -0.063396,-0.00429 -0.00272,0.0044 0.010432,0.008 0.029226,0.008 0.018793,0 0.03417,-0.00167 0.03417,-0.00371 z m 1.5121512,-0.437933 c 0.016091,-0.00691 0.014147,-0.00836 -0.012001,-0.00893 -0.017162,-3.712e-4 -0.031203,0.00365 -0.031203,0.00893 0,0.011398 0.01668,0.011398 0.043204,0 z M 0.11302278,2.4857335 C 0.08022609,2.3944198 0.04114583,2.2343543 0.03271503,2.1568078 0.02918721,2.1243589 0.02175302,2.0920944 0.01619461,2.0851089 c -0.01367388,-0.017184 -0.01367388,-0.370255 0,-0.3874395 0.0055584,-0.00699 0.01313793,-0.040535 0.01684337,-0.074553 C 0.04189837,1.5417708 0.09611918,1.3280569 0.12939401,1.2433243 0.23647556,0.9706468 0.39855753,0.72323254 0.59181623,0.53744784 0.79360017,0.34346761 1.0414265,0.19500461 1.3110565,0.10657928 1.4249074,0.06924182 1.6066762,0.02880288 1.6606534,0.02880288 c 0.015134,0 0.029207,-0.005074 0.031274,-0.01127555 0.00535,-0.01605019 0.3935735,-0.01605019 0.3989235,0 0.00207,0.0062016 0.016141,0.01127555 0.031274,0.01127555 0.053977,0 0.235746,0.04043894 0.3495969,0.0777764 0.4788169,0.15702829 0.871983,0.49461666 1.094667,0.93992542 0.051324,0.1026351 0.101178,0.2205267 0.101178,0.2392613 0,0.00711 -0.067263,0.010364 -0.2141014,0.010364 -0.1537221,0 -0.2173506,0.00325 -0.2256226,0.011521 -0.016026,0.016026 -0.016026,0.2681621 0,0.2841884 0.00837,0.00837 0.080206,0.011521 0.2629992,0.011521 0.2754294,0 0.2631334,-0.0027 0.2631334,0.057824 0,0.015098 0.00366,0.029712 0.00813,0.032476 0.00447,0.00276 0.010875,0.046811 0.01423,0.097883 0.00716,0.1090392 -0.00239,0.2988909 -0.014105,0.2804146 -0.00508,-0.00801 -0.00801,-1.718e-4 -0.00811,0.021688 -1.862e-4,0.043379 -0.013878,0.1202578 -0.04486,0.2518935 L 3.6848494,2.449255 3.6452504,2.446345 C 3.6072964,2.443565 3.6049144,2.441445 3.5878934,2.395467 3.5622824,2.326279 3.5647374,2.30715 3.6088274,2.2323705 c 0.021744,-0.03688 0.039535,-0.077546 0.039535,-0.090369 0,-0.057157 -0.1105374,-0.1794625 -0.236272,-0.2614252 C 3.284057,1.7971189 3.1752661,1.7665767 3.0060087,1.7665767 c -0.1279284,0 -0.2244366,0.02281 -0.3338113,0.078898 l -0.078478,0.040244 -0.017918,-0.022127 c -0.019976,-0.024669 -0.071897,-0.030118 -0.1071603,-0.011246 -0.011183,0.00598 -0.046799,0.050701 -0.079147,0.09937 -0.032348,0.048669 -0.064919,0.093397 -0.07238,0.099397 -0.00746,0.006 -0.064177,0.026919 -0.1260357,0.046487 -0.061859,0.019569 -0.1245876,0.041597 -0.1393968,0.048952 -0.025845,0.012835 -0.028543,0.011797 -0.067207,-0.025857 -0.022155,-0.021576 -0.077005,-0.064207 -0.1218891,-0.094736 -0.044884,-0.030529 -0.09889,-0.069374 -0.120012,-0.086321 -0.021122,-0.016948 -0.090249,-0.061434 -0.1536154,-0.09886 -0.063366,-0.037425 -0.1168769,-0.069296 -0.1189123,-0.070824 -0.010543,-0.00791 0.1449881,-0.1876763 0.1673382,-0.1934101 0.00603,-0.00155 0.043912,0.014954 0.084174,0.036671 0.094847,0.05116 0.1161429,0.049196 0.1577608,-0.014545 C 1.924643,1.5292529 1.9214599,1.5063849 1.860186,1.4612106 1.8324633,1.440772 1.7739875,1.4034098 1.7302399,1.3781837 1.6424123,1.3275396 1.5848172,1.3185677 1.5306184,1.3470875 1.492646,1.3670687 1.4213178,1.4428956 1.3211592,1.569757 1.2752999,1.6278428 1.2258136,1.6902072 1.2111898,1.7083444 L 1.1846012,1.7413214 1.156984,1.703544 C 1.1156735,1.6470357 1.0260172,1.5557525 0.9965764,1.5402258 0.9823171,1.5327058 0.9575743,1.5265528 0.9415922,1.5265528 c -0.0465439,0 -0.0573866,0.027534 -0.0645492,0.1639154 -0.003446,0.065622 -0.010188,0.1218864 -0.0149813,0.125032 -0.004793,0.00315 -0.1566948,0.00364 -0.33755877,0.00109 -0.24084796,-0.00339 -0.33446888,-0.00162 -0.34986557,0.00662 -0.0208723,0.011171 -0.0210309,0.013316 -0.0222769,0.3013419 -6.9018e-4,0.1595502 -0.003931,0.3224945 -0.007201,0.3620985 l -0.005946,0.072007 z M 2.8774005,0.81806941 c 0.00664,-0.004218 0.012737,-0.0356827 0.014401,-0.0742604 l 0.00289,-0.0669413 0.090689,-0.002785 c 0.049879,-0.001532 0.096324,-0.007462 0.1032103,-0.0131768 0.016562,-0.0137453 0.017402,-0.17213602 9.997e-4,-0.18853825 -0.017328,-0.0173277 -0.980461,-0.0165415 -0.9948632,8.1214e-4 -0.00563,0.006783 -0.011559,0.0381065 -0.013177,0.069607 l -0.00294,0.0572737 -0.2008773,0.0026 c -0.1284118,0.001662 -0.2054745,0.006416 -0.2136213,0.0131768 -0.016834,0.0139712 -0.017869,0.18167914 -0.00122,0.19832456 0.00872,0.008717 0.1565425,0.0114854 0.6072607,0.0113741 0.3276568,-8.064e-5 0.6009209,-0.003441 0.6072535,-0.007466 z M 2.0735898,2.284622 C 2.0678198,2.273837 2.0644298,2.249694 2.0660498,2.230971 L 2.0690098,2.196928 2.2051834,2.146226 C 2.3836345,2.079783 2.399538,2.069935 2.4237546,2.0108796 c 0.025451,-0.062065 0.059506,-0.116135 0.077493,-0.1230372 0.021891,-0.0084 0.042601,0.00337 0.048704,0.027689 0.00625,0.024917 -0.071919,0.274152 -0.087302,0.278339 -0.00528,0.00144 -0.046325,0.011232 -0.091209,0.021765 -0.044884,0.010534 -0.1214792,0.034776 -0.1702104,0.053873 -0.1027465,0.040264 -0.1134953,0.041536 -0.127637,0.015113 z"
       id="path4018"
       inkscape:connector-curvature="0" />
    <path
       style="fill:#231d1e;stroke-width:0.00960096"
       d="M 0.61926193,3.0919516 C 0.42379809,3.0496005 0.27148407,2.9007567 0.22079465,2.702563 0.11618929,2.29356 0.48540898,1.9379902 0.87368737,2.0738074 c 0.0448845,0.0157 0.085973,0.028604 0.0913079,0.028674 0.009499,1.258e-4 0.0787792,-0.088208 0.13444203,-0.1714173 0.015428,-0.023063 0.049799,-0.066307 0.076381,-0.096097 0.026582,-0.029791 0.099542,-0.1200699 0.1621351,-0.2006209 0.1250571,-0.1609366 0.2042461,-0.238869 0.251782,-0.2477868 0.025541,-0.00479 0.046823,0.00341 0.1254035,0.048339 0.052053,0.02976 0.1053238,0.062221 0.1183794,0.072134 0.023479,0.017827 0.023559,0.018398 0.00736,0.052375 -0.00919,0.01928 -0.023462,0.034352 -0.032519,0.034352 -0.00888,0 -0.047626,-0.017282 -0.086112,-0.038404 -0.038486,-0.021122 -0.076843,-0.038404 -0.085239,-0.038404 -0.031042,0 -0.2137737,0.1998518 -0.2545763,0.2784278 -0.00686,0.013201 -0.05716,0.080819 -0.1117875,0.1502615 -0.054628,0.069442 -0.099324,0.1310436 -0.099324,0.1368913 0,0.00585 0.027631,0.048821 0.061401,0.095497 0.033771,0.046676 0.06802,0.097406 0.076109,0.1127337 0.00809,0.015328 0.027518,0.042991 0.043176,0.061472 0.026243,0.030976 0.029863,0.032461 0.046303,0.018985 0.01462,-0.011983 0.038932,-0.013714 0.1348596,-0.0096 0.1104921,0.00474 0.1185314,0.00645 0.1440144,0.030736 0.014844,0.014145 0.039059,0.028702 0.05381,0.032349 0.037598,0.0093 0.027036,0.027749 -0.017962,0.031384 -0.050184,0.00405 -0.058447,0.014569 -0.027422,0.034897 0.024532,0.016074 0.025346,0.019272 0.019055,0.074873 -0.010752,0.095036 0.034449,0.096147 0.076142,0.00187 0.031042,-0.070192 0.047786,-0.069111 0.1419333,0.00916 l 0.0739,0.061441 0.1341267,-0.00161 c 0.1235569,-0.00148 0.1362444,-0.00332 0.1609972,-0.02327 0.1136665,-0.091621 0.1533295,-0.1169199 0.183517,-0.1170573 0.038534,-1.757e-4 0.068976,-0.015088 0.068976,-0.033789 0,-0.00757 0.010646,-0.04638 0.023658,-0.08624 0.03597,-0.1101909 0.081289,-0.1676691 0.2003108,-0.2540551 0.030773,-0.022335 0.053657,-0.042904 0.050852,-0.045709 C 2.7957705,2.0532923 2.6755026,2.1459643 2.621801,2.2286095 2.57727,2.2971405 2.571003,2.2922205 2.565337,2.1842775 2.560607,2.0941595 2.581832,1.9949362 2.612916,1.9618479 2.639791,1.9332409 2.7548233,1.8736729 2.8266856,1.851151 2.9975712,1.797594 3.2307744,1.831322 3.376389,1.930655 c 0.1066935,0.072783 0.2047708,0.175431 0.2047708,0.2143148 0,0.012815 -0.029396,0.06396 -0.062836,0.1093284 -0.00117,0.00158 -0.018739,-0.0084 -0.039053,-0.022189 -0.020608,-0.013985 -0.038418,-0.02061 -0.040292,-0.014988 -0.00185,0.00554 0.011803,0.035035 0.030334,0.065541 0.018531,0.030505 0.043363,0.085641 0.055183,0.1225238 0.02698,0.084189 0.032432,0.091062 0.072241,0.091062 0.042312,0 0.040917,0.011475 -0.00598,0.049159 -0.029922,0.024046 -0.038404,0.037442 -0.038404,0.060651 0,0.045721 -0.036528,0.167221 -0.067992,0.2261547 C 3.423515,2.9461864 3.3231454,3.0313415 3.1996758,3.0737477 3.1046746,3.1063763 2.9680469,3.1045767 2.8777883,3.0695082 2.7563702,3.0223331 2.6622716,2.9389986 2.5967508,2.8206193 l -0.038713,-0.069944 -0.5087822,-0.0048 C 1.5586697,2.7412458 1.5396169,2.7403874 1.5165189,2.7218722 1.4818338,2.6940689 1.3712419,2.559026 1.2609843,2.409841 1.2082985,2.3385539 1.157502,2.273944 1.1481034,2.2662635 1.1317464,2.2528965 1.1317224,2.2539245 1.147535,2.2902655 1.21991,2.4565948 1.235407,2.5764004 1.200837,2.7023328 1.136086,2.9382083 0.96260227,3.0847878 0.73447337,3.0963719 c -0.0422442,0.00215 -0.0940894,1.556e-4 -0.11521144,-0.00442 z m 0.1590735,-0.1311349 c 0.086403,-0.02565 0.15768543,-0.067009 0.20012319,-0.116112 0.0532183,-0.061577 0.0957615,-0.149632 0.10865158,-0.2248838 0.00942,-0.054994 0.00822,-0.069407 -0.011011,-0.1327364 -0.02579,-0.084909 -0.0801497,-0.1753558 -0.10066016,-0.1674852 -0.0145178,0.00557 -0.0825493,0.088211 -0.0825493,0.1002752 0,0.00379 0.0108011,0.035578 0.0240024,0.070651 0.0302218,0.080292 0.0301123,0.1092097 -6.6016e-4,0.1742573 -0.0308263,0.065161 -0.0715214,0.1063781 -0.13355212,0.135264 -0.0630636,0.029367 -0.0746532,0.028625 -0.15508992,-0.00992 C 0.55208265,2.753938 0.53494897,2.7342862 0.49447072,2.6374409 L 0.46720694,2.5722116 0.4835098,2.5204929 C 0.52459331,2.390161 0.60318401,2.3282328 0.72749958,2.3282328 h 0.0698338 l 0.0333765,-0.042155 c 0.0183571,-0.023185 0.0333765,-0.048248 0.0333765,-0.055695 0,-0.016101 -0.0517676,-0.039139 -0.12020032,-0.053493 -0.0447861,-0.00939 -0.0568317,-0.00775 -0.13000127,0.01769 -0.13457734,0.046799 -0.2075402,0.1153096 -0.25385935,0.2383682 -0.0679232,0.1804553 0.012426,0.3970162 0.17867402,0.4815703 0.0643808,0.032744 0.14141559,0.060976 0.16762874,0.061433 0.0109228,1.911e-4 0.043326,-0.00662 0.0720072,-0.015135 z m 2.33303337,0 C 3.2372255,2.923454 3.3078994,2.8686183 3.3698317,2.760276 3.4258837,2.662221 3.4121847,2.6185395 3.3517657,2.70267 c -0.02966,0.041302 -0.03314,0.043204 -0.079002,0.043204 -0.036347,0 -0.067207,0.00931 -0.1273174,0.038404 -0.043638,0.021122 -0.087896,0.038404 -0.098351,0.038404 -0.010455,0 -0.054745,-0.017282 -0.098423,-0.038404 -0.068775,-0.033259 -0.088164,-0.038404 -0.1447311,-0.038404 -0.085849,0 -0.097395,0.012675 -0.057787,0.063437 0.052181,0.066875 0.1169168,0.1096545 0.2253426,0.1489121 0.059731,0.021627 0.074814,0.021906 0.1398716,0.00259 z M 2.5231323,2.6287429 c 0.01481,-0.01481 0.01481,-0.048557 0,-0.063366 -0.023302,-0.023302 -0.062958,-0.013292 -0.090525,0.02285 -0.02163,0.028358 -0.023815,0.03589 -0.01249,0.043057 0.01996,0.012631 0.08956,0.010915 0.1030151,-0.00254 z m 0.2747623,0.00569 c 0.019311,-0.00741 0.019411,-0.031874 2.41e-4,-0.059243 -0.011873,-0.016951 -0.02431,-0.021338 -0.060486,-0.021338 -0.025047,0 -0.050725,0.00518 -0.057061,0.011521 -0.01481,0.014809 -0.01481,0.048557 0,0.063366 0.011997,0.011997 0.090899,0.015827 0.1173065,0.00569 z m 0.6221339,-0.01892 c 0.018767,-0.041189 8.065e-4,-0.05686 -0.065171,-0.05686 -0.050817,0 -0.05756,0.00244 -0.070497,0.025486 -0.022275,0.039686 -0.00243,0.056122 0.067756,0.056122 0.05155,0 0.057649,-0.00222 0.067912,-0.024748 z M 2.8189923,2.4889019 c 0.00589,-0.00388 0.019893,-0.025165 0.031114,-0.047302 0.024875,-0.049069 0.065323,-0.080452 0.138192,-0.1072199 l 0.055206,-0.02028 0.052955,0.019813 c 0.064407,0.024098 0.1001904,0.053073 0.1359334,0.1100729 0.03018,0.048129 0.045319,0.054819 0.1141781,0.050461 l 0.047368,-0.003 -0.00105,-0.035453 c -0.00123,-0.041695 -0.046626,-0.1173695 -0.1041779,-0.173663 -0.045194,-0.044206 -0.1309,-0.087841 -0.2051882,-0.1044662 -0.048847,-0.010932 -0.057631,-0.00988 -0.134275,0.016147 -0.1296506,0.04402 -0.2110904,0.1170642 -0.2527451,0.2266904 -0.024155,0.06357 -0.014944,0.075596 0.057744,0.075398 0.029716,-7.68e-5 0.05885,-0.00332 0.064741,-0.0072 z M 1.5638248,2.4683493 c 0.01749,-0.011077 -0.00646,-0.01863 -0.068291,-0.021538 -0.047841,-0.00225 -0.061437,0.00308 -0.050984,0.019996 0.00758,0.012269 0.1004423,0.013469 0.1192751,0.00154 z M 1.1093057,2.2088596 c -0.00348,-0.00563 -0.010923,-0.01024 -0.016538,-0.01024 -0.00637,0 -0.00564,0.00551 0.00193,0.014633 0.013168,0.015867 0.024937,0.012326 0.014604,-0.00439 z M 2.8706871,2.0642064 c 0.012801,-0.00827 0.012801,-0.00931 0,-0.00931 -0.00792,0 -0.020882,0.00419 -0.028803,0.00931 -0.012801,0.00827 -0.012801,0.00931 0,0.00931 0.00792,0 0.020882,-0.00419 0.028803,-0.00931 z m 0.1614325,-0.024957 c 0.038225,-0.00594 0.036241,-0.026451 -0.003,-0.031045 -0.030455,-0.00357 -0.1263224,0.023686 -0.1354862,0.038514 -0.00556,0.009 0.052803,0.00585 0.138489,-0.00747 z M 2.0773388,2.280383 c -0.011441,-0.029814 -0.00813,-0.074423 0.00607,-0.081809 0.00792,-0.00412 0.053285,-0.021181 0.10081,-0.037914 0.047525,-0.016733 0.1144915,-0.042271 0.1488149,-0.056751 0.062319,-0.026291 0.062467,-0.026446 0.1056106,-0.1108948 0.042973,-0.084114 0.065411,-0.1080521 0.091792,-0.097929 0.021819,0.00837 0.016633,0.043529 -0.025307,0.1715477 l -0.039125,0.1194264 -0.078221,0.016809 c -0.043022,0.00924 -0.1205514,0.033673 -0.1722886,0.054285 -0.1018703,0.040585 -0.1296997,0.045264 -0.1381559,0.02323 z"
       id="path4016"
       inkscape:connector-curvature="0" />
  </g>
</svg>
