<?xml version="1.0" encoding="UTF-8" standalone="no"?>
<!-- Created with Inkscape (http://www.inkscape.org/) -->

<svg
   xmlns:dc="http://purl.org/dc/elements/1.1/"
   xmlns:cc="http://creativecommons.org/ns#"
   xmlns:rdf="http://www.w3.org/1999/02/22-rdf-syntax-ns#"
   xmlns:svg="http://www.w3.org/2000/svg"
   xmlns="http://www.w3.org/2000/svg"
   xmlns:sodipodi="http://sodipodi.sourceforge.net/DTD/sodipodi-0.dtd"
   xmlns:inkscape="http://www.inkscape.org/namespaces/inkscape"
   version="1.1"
   id="svg38"
   width="113.38583"
   height="113.38583"
   viewBox="0 0 113.38583 113.38583"
   sodipodi:docname="14_1.svg"
   inkscape:version="0.92.4 (5da689c313, 2019-01-14)">
  <metadata
     id="metadata44">
    <rdf:RDF>
      <cc:Work
         rdf:about="">
        <dc:format>image/svg+xml</dc:format>
        <dc:type
           rdf:resource="http://purl.org/dc/dcmitype/StillImage" />
        <dc:title></dc:title>
      </cc:Work>
    </rdf:RDF>
  </metadata>
  <defs
     id="defs42" />
  <sodipodi:namedview
     pagecolor="#ffffff"
     bordercolor="#666666"
     borderopacity="1"
     objecttolerance="10"
     gridtolerance="10"
     guidetolerance="10"
     inkscape:pageopacity="0"
     inkscape:pageshadow="2"
     inkscape:window-width="1366"
     inkscape:window-height="715"
     id="namedview40"
     showgrid="false"
     inkscape:zoom="1.9496253"
     inkscape:cx="1.8913891"
     inkscape:cy="1.8909568"
     inkscape:window-x="-8"
     inkscape:window-y="-8"
     inkscape:window-maximized="1"
     inkscape:current-layer="svg38" />
  <g
     id="g48"
     transform="matrix(29.960146,0,0,29.976765,0,0.00327087)">
    <path
       style="fill:#f0d5c2;stroke-width:0.00960096"
       d="M 1.7041704,3.7781605 C 1.6988899,3.775866 1.6470447,3.7697074 1.5889589,3.7644747 1.5219639,3.7584396 1.4412223,3.74281 1.3681368,3.7217291 0.85232826,3.5729478 0.42519827,3.2174118 0.18783291,2.7392637 0.05217419,2.4659932 0,2.2304797 0,1.8913891 0,1.5646633 0.04792827,1.3384398 0.17188006,1.080108 0.36786331,0.67165323 0.6658873,0.37148393 1.0676146,0.17792564 1.3381414,0.04758169 1.5588088,-1.0911357e-4 1.8913891,-1.0911357e-4 c 0.3325804,0 0.5532478,0.0476908036 0.8237746,0.17803475357 0.4496547,0.21665042 0.7897278,0.59051731 0.9647308,1.06059826 0.1394461,0.3745701 0.1395597,0.9286002 2.679e-4,1.3057305 -0.211615,0.5729435 -0.6796783,1.0084464 -1.2655209,1.1774859 -0.063366,0.018284 -0.1540954,0.037629 -0.2016202,0.042991 -0.089788,0.010128 -0.4920177,0.020744 -0.5088509,0.013429 z"
       id="path62"
       inkscape:connector-curvature="0" />
    <path
       style="fill:#e7c4bc;stroke-width:0.00960096"
       d="M 1.6225623,3.7679543 C 1.3216368,3.7348633 0.99704454,3.5983839 0.72487249,3.3905078 0.63790862,3.3240877 0.47561013,3.1635216 0.40809103,3.0771077 0.23679459,2.8578752 0.11371925,2.6096134 0.04722738,2.3491904 0.00221288,2.172886 -0.01197138,1.8716216 0.01390324,1.6414078 0.09817985,0.89157501 0.67321151,0.24220729 1.4205857,0.05287927 c 0.2733538,-0.06924712 0.6682531,-0.06924712 0.9416069,0 0.6631459,0.16799093 1.1874456,0.6896136 1.3681131,1.36112753 0.066211,0.2460978 0.068683,0.6867233 0.00525,0.9351836 -0.066497,0.260423 -0.189572,0.5086848 -0.3608684,0.7279173 -0.067519,0.086414 -0.2298176,0.24698 -0.3167815,0.3134001 C 2.8467798,3.5517589 2.6017134,3.6710761 2.3492509,3.7355354 2.1768092,3.7795637 1.8576274,3.793803 1.6225623,3.7679543 Z M 2.5963739,3.0956239 c 0.0083,-0.0083 0.015087,-0.019669 0.015087,-0.025269 0,-0.00898 0.029403,-0.1823134 0.072959,-0.430091 0.050892,-0.289513 0.1582006,-0.916145 0.1677008,-0.9792979 0.00516,-0.034323 0.011512,-0.069235 0.014108,-0.077582 0.00525,-0.01687 0.03805,-0.2071372 0.053627,-0.3110515 0.00552,-0.036851 0.016503,-0.084375 0.024398,-0.1056106 0.021746,-0.058492 0.031043,-0.1060566 0.041327,-0.21142666 0.00994,-0.10190194 0.022648,-0.19820075 0.033757,-0.2558969 0.0065,-0.0337498 0.00518,-0.0359925 -0.034945,-0.0593662 -0.1114878,-0.0649472 -0.3470545,-0.11813194 -0.357777,-0.0807765 -0.00189,0.006601 -0.01053,0.0487249 -0.019189,0.0936094 -0.017313,0.0897371 -0.034668,0.16178037 -0.063605,0.2640264 -0.018548,0.0655362 -0.040228,0.19547196 -0.056869,0.34083406 -0.00842,0.073559 -0.020484,0.1403914 -0.044704,0.2476807 -0.00786,0.034808 -0.010252,0.066532 -0.00564,0.074768 0.00792,0.014145 0.016729,-0.020199 0.07412,-0.2888458 0.012409,-0.058086 0.025382,-0.1226469 0.028828,-0.1434691 0.00907,-0.054813 0.052268,-0.15780558 0.075107,-0.17908342 0.043927,-0.040924 0.04378,-0.009195 -4.138e-4,0.0898052 -0.023782,0.053274 -0.024243,0.057823 -0.012705,0.1252756 0.022673,0.1325457 -0.012491,0.357329 -0.066673,0.4262109 -0.017773,0.022594 -0.019486,0.036364 -0.017179,0.1380574 0.00253,0.1116659 0.00226,0.113277 -0.02384,0.1406383 -0.026063,0.027323 -0.026403,0.029302 -0.026403,0.1540302 0,0.1354135 -0.013435,0.1994506 -0.050225,0.2393861 -0.017483,0.018978 -0.018371,0.025588 -0.00863,0.064258 0.00597,0.023707 0.010854,0.089455 0.010854,0.1461067 0,0.084612 -0.003,0.1063171 -0.016796,0.1215627 -0.00924,0.010208 -0.021119,0.03647 -0.026403,0.058362 -0.00887,0.036759 -0.012866,0.040588 -0.052236,0.050079 -0.023446,0.00565 -0.044205,0.015003 -0.04613,0.020779 -0.00193,0.00578 0.015098,0.023455 0.037829,0.039285 0.1053645,0.073376 0.1828261,0.1899732 0.186081,0.2800947 8.583e-4,0.023762 0.00212,0.044284 0.00281,0.045605 0.0051,0.00977 0.079614,-5.261e-4 0.091775,-0.012687 z m -0.846265,-0.039095 c 0.3315367,-0.00349 0.6046382,-0.00932 0.6068923,-0.012969 0.00225,-0.00365 -0.01957,-0.027065 -0.048499,-0.05204 -0.050876,-0.043923 -0.08108,-0.093291 -0.08108,-0.1325251 0,-0.035203 -0.035837,-0.072596 -0.076095,-0.079397 -0.020664,-0.00349 -0.2247771,-0.00168 -0.4535852,0.00402 -0.2288082,0.0057 -0.5995679,0.014961 -0.8239106,0.02057 -0.22434268,0.00561 -0.41012126,0.012458 -0.41284129,0.015219 -0.00272,0.00276 0.007194,0.014347 0.0220302,0.025748 0.0148366,0.0114 0.0459073,0.039226 0.0690459,0.061835 0.0231386,0.022609 0.0550213,0.045623 0.0708505,0.051141 0.0189468,0.0066 0.0269788,0.014727 0.0235079,0.023773 -0.003102,0.00808 0.0110861,0.030098 0.0344578,0.05347 l 0.0397302,0.03973 0.21335062,-0.00612 C 1.051307,3.0656209 1.4185721,3.0600148 1.7501089,3.0565289 Z M 0.87963062,2.9685457 c -0.00315,-0.0051 0.0934269,-0.011142 0.23195318,-0.014518 0.385082,-0.00938 0.4882264,-0.00884 0.476944,0.00249 -0.012835,0.012896 -0.70114294,0.024574 -0.70889718,0.012027 z M 1.9441944,2.9474948 c 0.00326,-0.00528 0.01432,-0.0096 0.024569,-0.0096 0.010249,0 0.018635,0.00432 0.018635,0.0096 0,0.00528 -0.011056,0.0096 -0.024569,0.0096 -0.013934,0 -0.022001,-0.00416 -0.018635,-0.0096 z M 2.2658266,2.6804577 c 0,-0.065606 0.024668,-0.2442515 0.046806,-0.3389713 0.035669,-0.1526127 0.049203,-0.2347101 0.048912,-0.2967013 -3.59e-4,-0.076488 -0.013868,-0.059205 -0.022685,0.029022 -0.00343,0.034323 -0.016735,0.109931 -0.029566,0.1680168 -0.044595,0.2018792 -0.05313,0.2500608 -0.057825,0.3264326 -0.0026,0.042244 -0.0084,0.089769 -0.012906,0.1056106 -0.00975,0.034303 -0.00496,0.052805 0.013663,0.052805 0.00985,0 0.013601,-0.012744 0.013601,-0.046214 z m 0.1542196,-0.913881 c 0.019211,-0.1592633 0.019805,-0.1679638 0.010487,-0.1536154 -0.00514,0.00792 -0.014487,0.042484 -0.020763,0.076808 -0.00628,0.034323 -0.017444,0.089119 -0.024818,0.1217687 -0.00737,0.032649 -0.010516,0.066896 -0.00698,0.076103 0.00933,0.024321 0.032622,-0.042689 0.042076,-0.1210642 z M 1.1779794,0.97004597 c 0.05911,-0.004303 0.130397,-0.014535 0.1584159,-0.0227373 0.074781,-0.0218913 0.1775491,-0.0428368 0.2413893,-0.0491982 0.030818,-0.003071 0.068407,-0.0119826 0.083532,-0.0198038 0.015124,-0.007821 0.049185,-0.0142204 0.07569,-0.0142204 0.062715,0 0.2201347,-0.0227971 0.3944068,-0.057117 0.076568,-0.0150787 0.1599102,-0.0299393 0.1852055,-0.0330236 0.061399,-0.007486 0.083621,-0.0206175 0.083621,-0.0494111 0,-0.0182004 -0.00499,-0.0236178 -0.021602,-0.0234621 -0.025582,2.3984e-4 -0.381632,0.0261141 -0.5256526,0.0381993 -0.055446,0.004653 -0.1838619,0.0148703 -0.2853697,0.022706 -0.1015077,0.007836 -0.1891994,0.0171142 -0.1948704,0.0206191 -0.00567,0.003505 -0.058713,0.0100704 -0.1178707,0.0145901 -0.059158,0.00452 -0.1448724,0.011227 -0.1904766,0.0149051 l -0.082917,0.006688 -0.0101974,0.0346546 c -0.005608,0.01906 -0.0125218,0.0540965 -0.0153629,0.0778589 -0.002841,0.0237624 -0.00785,0.052781 -0.011132,0.0644858 l -0.005966,0.0212814 0.0658423,-0.019595 c 0.036213,-0.0107773 0.114205,-0.0231159 0.1733145,-0.0274198 z m -0.33413651,-0.0723562 -1.7551e-4,-0.0192019 -0.007565,0.0192019 c -0.004161,0.0105611 -0.0101898,0.0321632 -0.0133984,0.0480048 l -0.005834,0.0288029 0.0135739,-0.0288029 c 0.007466,-0.0158416 0.0134949,-0.0374437 0.013399,-0.0480048 z m 0.0074,-0.0840084 c -0.002663,-0.006601 -0.004843,-0.0012 -0.004843,0.0120012 0,0.0132013 0.002179,0.0186019 0.004843,0.0120012 0.002663,-0.006601 0.002663,-0.0174017 0,-0.0240024 z m 0.0346597,-0.0864086 c 0.003511,-0.009241 0.003067,-0.0168017 -9.8694e-4,-0.0168017 -0.007297,0 -0.0304851,0.0554966 -0.0303711,0.0726889 6.144e-5,0.009296 0.0202877,-0.0267516 0.031358,-0.0558872 z m 1.65236541,0 c 0.030773,-0.16700657 0.03048,-0.16081608 0.00761,-0.16081608 -0.014902,0 -0.017459,0.007671 -0.016802,0.050405 4.263e-4,0.0277228 -0.00284,0.0687669 -0.00727,0.0912091 -0.00544,0.0275719 -0.00472,0.0408041 0.00222,0.0408041 0.00564,0 0.012053,-0.009721 0.014242,-0.0216021 z M 1.3848266,0.66527683 c -0.011943,-0.002296 -0.029224,-0.002209 -0.038404,1.9374e-4 -0.00918,0.002403 5.924e-4,0.004282 0.021714,0.004175 0.021122,-1.0657e-4 0.028633,-0.002073 0.01669,-0.004369 z m 0.240024,-0.0192019 c -0.011943,-0.002296 -0.029224,-0.002209 -0.038404,1.9374e-4 -0.00918,0.002403 5.924e-4,0.004282 0.021714,0.004175 0.021122,-1.0657e-4 0.028632,-0.002073 0.01669,-0.004369 z"
       id="path60"
       inkscape:connector-curvature="0" />
    <path
       style="fill:#dba7a1;stroke-width:0.00960096"
       d="M 1.6391298,3.76788 C 1.1586577,3.7095409 0.67855466,3.4311124 0.38599927,3.0411461 0.11439491,2.6791066 -0.01166826,2.2817001 0.00300628,1.8337834 0.01869344,1.3549584 0.19494561,0.93027913 0.51845185,0.59181822 0.83207902,0.26369304 1.2227381,0.06618691 1.6609073,0.01422507 2.267197,-0.05767394 2.8423629,0.14959999 3.2643265,0.59205321 3.6013358,0.94542702 3.782604,1.3998714 3.782604,1.8913891 c 0,0.7914832 -0.4803922,1.4887618 -1.2209302,1.7721531 C 2.2895983,3.7676607 1.9518874,3.8058552 1.6391298,3.76788 Z M 2.6003389,3.1026314 c 0.012576,-0.012576 0.023746,-0.054847 0.038689,-0.1464146 0.011555,-0.070804 0.024879,-0.1503362 0.029611,-0.1767388 0.00473,-0.026403 0.015606,-0.086889 0.024165,-0.1344135 0.025486,-0.1415027 0.062727,-0.3573515 0.081997,-0.4752475 0.00993,-0.060726 0.031761,-0.1881788 0.048525,-0.2832283 0.016763,-0.095049 0.03253,-0.1857786 0.035037,-0.2016202 0.00251,-0.015842 0.017405,-0.10009 0.033105,-0.1872187 0.015701,-0.087129 0.032941,-0.1886329 0.038311,-0.2255647 0.00537,-0.036932 0.017711,-0.090937 0.027424,-0.120012 0.023653,-0.070802 0.038298,-0.1456689 0.038298,-0.19578642 0,-0.0372635 0.017666,-0.17198512 0.033897,-0.2585068 0.00592,-0.0315444 0.00376,-0.035635 -0.030885,-0.0585626 -0.085726,-0.0567304 -0.2739477,-0.10903913 -0.3515127,-0.0976886 -0.045428,0.006648 -0.07092,0.009113 -0.1939533,0.0187605 -0.047525,0.003726 -0.1490549,0.0128334 -0.2256225,0.0202378 -0.076568,0.007404 -0.1975398,0.01817 -0.2688269,0.0239237 -0.071287,0.005754 -0.179298,0.0147087 -0.240024,0.0199001 -0.1830493,0.0156487 -0.3245136,0.0274904 -0.4560456,0.0381748 -0.068647,0.005576 -0.1645241,0.0143022 -0.2130605,0.019391 -0.048536,0.005089 -0.10816279,0.009252 -0.13250311,0.009252 -0.0408565,0 -0.0452567,0.002397 -0.0572964,0.031212 -0.007173,0.0171666 -0.0182822,0.0592908 -0.0246879,0.0936094 -0.006406,0.0343185 -0.0264731,0.12936401 -0.0445942,0.21121212 -0.0181212,0.081848 -0.0372733,0.1747375 -0.0425603,0.2064207 -0.005287,0.031683 -0.0225264,0.1088765 -0.0383097,0.1715408 -0.0157833,0.062664 -0.0269582,0.1188299 -0.024833,0.1248125 0.005312,0.014954 0.0370849,-0.090799 0.0688452,-0.2291466 0.014547,-0.063366 0.0317076,-0.1260126 0.0381348,-0.1392139 0.006427,-0.013201 0.0170919,-0.049925 0.0236995,-0.081608 0.006608,-0.031683 0.019859,-0.0835283 0.0294477,-0.11521146 0.009589,-0.0316832 0.0201741,-0.0813681 0.0235232,-0.11041105 0.003349,-0.0290429 0.01333,-0.0706656 0.02218,-0.0924948 l 0.0160908,-0.0396895 0.0723514,-0.005257 c 0.13213211,-0.0096 0.47405001,-0.0356358 0.58120231,-0.0442563 0.058086,-0.004673 0.1358536,-0.0131707 0.1728173,-0.0188837 0.036964,-0.005713 0.1838584,-0.019599 0.3264327,-0.0308578 0.1425742,-0.0112588 0.30027,-0.0237132 0.350435,-0.0276765 0.0502,-0.003966 0.095323,-0.003439 0.1003591,0.001171 0.00578,0.005294 0.0049,0.0331648 -0.0024,0.0757331 -0.00635,0.0370457 -0.01155,0.0822372 -0.01155,0.10042556 0,0.0181884 -0.00805,0.0537517 -0.017889,0.0790297 -0.00984,0.025278 -0.020756,0.0740428 -0.024261,0.10836623 -0.0035,0.0343234 -0.012526,0.0926493 -0.020048,0.12961302 -0.00752,0.036964 -0.020577,0.1039304 -0.029012,0.1488149 -0.00843,0.044884 -0.02149,0.1118511 -0.029012,0.1488148 -0.00752,0.036964 -0.016629,0.09529 -0.020237,0.129613 -0.00361,0.034323 -0.012925,0.077528 -0.020702,0.09601 -0.00778,0.018482 -0.024134,0.1113711 -0.036349,0.2064206 -0.012214,0.09505 -0.033258,0.2106864 -0.046762,0.2569708 -0.013505,0.046284 -0.024554,0.094504 -0.024554,0.1071555 0,0.012651 -0.00871,0.050389 -0.019364,0.083863 -0.01065,0.033474 -0.025865,0.1062259 -0.033812,0.1616714 -0.01797,0.1253839 -0.046738,0.2573689 -0.058706,0.2693368 -0.00497,0.00497 -0.1643677,0.013475 -0.3542178,0.018901 -0.1898503,0.00543 -0.4078285,0.011978 -0.4843962,0.014559 -0.3751335,0.012648 -0.83137526,0.019994 -0.83870948,0.013503 -0.004525,-0.004 -0.001284,-0.034961 0.007201,-0.068794 0.008485,-0.033833 0.0154554,-0.074199 0.0154899,-0.089703 3.457e-5,-0.015504 0.0125411,-0.073554 0.0277923,-0.1289996 0.0273478,-0.099423 0.0478683,-0.2300425 0.0316747,-0.2016202 -0.004513,0.00792 -0.0179951,0.059766 -0.0299607,0.1152116 -0.0298235,0.1381955 -0.0765422,0.3433203 -0.0874675,0.3840384 -0.006268,0.02336 -0.005781,0.034697 0.001599,0.03719 0.005838,0.00197 0.0505516,0.038697 0.0993631,0.081608 0.0488115,0.042912 0.0968944,0.08513 0.10685082,0.093818 0.009956,0.00869 0.0322786,0.0334 0.0496048,0.054916 0.0209898,0.026065 0.0434169,0.042176 0.0672067,0.04828 0.0400276,0.01027 1.62828646,-0.00898 1.63915526,-0.019862 0.01044,-0.010456 -0.00671,-0.032262 -0.052896,-0.067246 -0.04504,-0.034118 -0.075558,-0.08287 -0.076347,-0.1219599 -5.862e-4,-0.029075 -0.036306,-0.087542 -0.053483,-0.087542 -0.00718,0 -0.015347,-0.00371 -0.018152,-0.00825 -0.0092,-0.014889 0.012071,-0.1613432 0.041623,-0.2865509 0.015946,-0.067561 0.035352,-0.1574016 0.043125,-0.1996459 0.00777,-0.042244 0.021107,-0.1135313 0.02963,-0.1584158 0.00852,-0.044884 0.021926,-0.1161716 0.029783,-0.1584158 0.00786,-0.042244 0.024698,-0.1264927 0.037424,-0.1872188 0.012726,-0.060726 0.030024,-0.1471347 0.038439,-0.1920192 0.00842,-0.044884 0.021626,-0.1118512 0.029358,-0.1488149 0.00773,-0.036964 0.014002,-0.076724 0.013934,-0.088357 -1.488e-4,-0.025578 0.019039,-0.070059 0.030221,-0.070059 0.010466,0 0.010421,6.173e-4 -0.00558,0.075434 -0.02374,0.1109823 -0.036154,0.177261 -0.044324,0.2366522 -0.00436,0.031713 -0.012546,0.069798 -0.018187,0.084633 -0.00564,0.014835 -0.0102,0.038573 -0.010132,0.05275 6.72e-5,0.014178 -0.00667,0.058181 -0.014967,0.097785 -0.030563,0.145839 -0.041891,0.2076456 -0.047509,0.259226 -0.00316,0.029043 -0.01614,0.10033 -0.028837,0.1584158 -0.046179,0.2112604 -0.053069,0.250563 -0.053019,0.3024302 4.8e-5,0.04992 -0.013712,0.1577142 -0.024818,0.1944195 -0.00336,0.011121 1.124e-4,0.016802 0.010284,0.016802 0.034196,0 0.1104053,0.050002 0.1647459,0.1080921 0.067251,0.071891 0.099608,0.1343639 0.099608,0.1923133 0,0.022764 0.00518,0.046573 0.011521,0.05291 0.017974,0.017974 0.081889,0.014121 0.1021691,-0.00616 z M 1.3911498,2.6354969 c 0.350611,-0.00773 0.6400125,-0.016594 0.6431146,-0.019696 0.00879,-0.00879 0.028962,-0.1056914 0.04287,-0.2059596 0.00696,-0.050165 0.019524,-0.1149715 0.027924,-0.1440144 0.0084,-0.029043 0.019404,-0.074407 0.024455,-0.1008101 0.00505,-0.026403 0.020058,-0.093369 0.033351,-0.1488149 0.031143,-0.1299035 0.043695,-0.1949858 0.059254,-0.3072307 0.00695,-0.050165 0.01713,-0.1084908 0.022613,-0.129613 0.00548,-0.021122 0.012834,-0.066487 0.016334,-0.10081 0.0035,-0.034323 0.012123,-0.086169 0.019163,-0.1152116 0.00704,-0.029043 0.015608,-0.080888 0.019042,-0.1152115 0.00343,-0.034323 0.014329,-0.088329 0.024211,-0.120012 0.017992,-0.057684 0.032378,-0.1261819 0.047511,-0.22622214 0.00444,-0.0293727 0.017162,-0.0703528 0.028264,-0.0910669 0.013154,-0.0245417 0.020186,-0.0551877 0.020186,-0.0879693 0,-0.0496077 -3.668e-4,-0.0502425 -0.026403,-0.0456554 -0.014521,0.002558 -0.1192919,0.0115456 -0.2328233,0.0199713 -0.1135313,0.008426 -0.2496249,0.0189076 -0.3024302,0.0232931 -0.052805,0.004385 -0.1790615,0.0144053 -0.2805693,0.0222664 -0.1015076,0.007861 -0.1882814,0.016593 -0.1928303,0.0194045 -0.00455,0.002811 -0.068392,0.009749 -0.1418731,0.0154175 -0.29354483,0.0226436 -0.27324106,0.0192797 -0.28413379,0.0470741 -0.005401,0.0137825 -0.0135941,0.0509816 -0.0182061,0.0826648 -0.004612,0.0316832 -0.0147639,0.080407 -0.02256,0.10827514 -0.007796,0.027868 -0.0186183,0.082618 -0.0240494,0.1216661 -0.005431,0.039048 -0.0229727,0.1104207 -0.0389814,0.1586055 -0.0160086,0.048185 -0.0329921,0.1150454 -0.0377411,0.1485793 -0.004749,0.033534 -0.0138346,0.070687 -0.0201901,0.082563 -0.006356,0.011876 -0.0174351,0.066358 -0.0246211,0.1210729 -0.007186,0.054715 -0.0239766,0.1310935 -0.0373123,0.1697306 -0.0133357,0.038637 -0.0242468,0.07982 -0.0242468,0.091517 0,0.011697 -0.0189826,0.097781 -0.0421835,0.1912974 -0.0232009,0.093516 -0.0449998,0.1981126 -0.0484418,0.232436 -0.003442,0.034323 -0.0142906,0.084008 -0.0241078,0.1104111 -0.0182147,0.048987 -0.0388822,0.1475327 -0.0388822,0.1853964 0,0.020274 0.00351,0.021019 0.0984098,0.020868 0.0541254,-8.64e-5 0.38527339,-0.00648 0.73588419,-0.014213 z M 0.60486049,1.9612131 c 0,-0.013116 0.006722,-0.049788 0.0149374,-0.081493 0.008216,-0.031705 0.0135303,-0.069052 0.0118106,-0.082994 -0.00324,-0.026264 -0.0754186,0.2565791 -0.0743836,0.2914831 8.0045e-4,0.026994 0.0476356,-0.097868 0.0476356,-0.1269961 z M 0.6737191,1.6387457 c 0.009924,-0.071203 0.005612,-0.1218782 -0.005054,-0.059388 -0.003605,0.021122 -0.0130107,0.068647 -0.0209014,0.1056106 -0.0176024,0.082458 -0.0170231,0.09668 0.002151,0.052805 0.008077,-0.018482 0.0187887,-0.063044 0.0238044,-0.099028 z"
       id="path58"
       inkscape:connector-curvature="0" />
    <path
       style="fill:#ab8e91;stroke-width:0.00960096"
       d="M 1.6465647,3.7678011 C 0.96495967,3.6844293 0.36323049,3.2078035 0.12004674,2.5586559 -0.18807517,1.7361643 0.11668611,0.79764129 0.84877953,0.31449789 1.2079834,0.07744214 1.6644417,-0.03526177 2.0813865,0.01015554 2.7336028,0.08120069 3.2895323,0.46540257 3.5809552,1.0465047 3.7520518,1.3876742 3.8134943,1.739538 3.7687357,2.121871 3.7046881,2.6689745 3.3944556,3.1680686 2.9272945,3.4755598 2.5576476,3.718866 2.1000848,3.8232742 1.6465647,3.7678011 Z M 2.6093985,3.1083108 c 0.00968,-0.011742 0.023712,-0.074304 0.040388,-0.180018 0.010864,-0.068871 0.052662,-0.3089503 0.071875,-0.4128412 0.0083,-0.044885 0.021397,-0.1226523 0.029103,-0.1728173 0.00771,-0.050165 0.016607,-0.1020102 0.01978,-0.1152115 0.00592,-0.024635 0.015109,-0.077643 0.058238,-0.3360337 0.032211,-0.1929798 0.034923,-0.2087595 0.065182,-0.3792379 0.014059,-0.079208 0.02959,-0.169937 0.034513,-0.2016201 0.00492,-0.031683 0.015867,-0.081368 0.024319,-0.1104111 0.025286,-0.086883 0.040522,-0.1701923 0.057068,-0.31203119 0.00862,-0.0739274 0.020238,-0.15279018 0.025808,-0.17525062 0.00778,-0.0313635 0.00726,-0.0442988 -0.00226,-0.0557589 -0.034734,-0.041852 -0.1827446,-0.1019172 -0.2955452,-0.11993718 -0.045878,-0.007329 -0.094273,-0.006228 -0.1922698,0.004376 -0.1606809,0.0173859 -0.4133943,0.04007 -0.8126283,0.0729435 -0.068647,0.005652 -0.1723372,0.0142382 -0.230423,0.0190795 -0.058086,0.004841 -0.1639364,0.0135614 -0.2352236,0.0193782 -0.071287,0.005817 -0.1692332,0.0146649 -0.217658,0.0196625 -0.048425,0.004998 -0.10773105,0.009087 -0.13179181,0.009087 -0.0551635,0 -0.0676749,0.0170994 -0.0884985,0.12095095 -0.0167123,0.0833479 -0.0803407,0.36870304 -0.13894382,0.62312344 -0.0206774,0.089769 -0.0435078,0.1934593 -0.0507342,0.230423 -0.007226,0.036964 -0.03097,0.1449745 -0.0527635,0.240024 -0.0217935,0.09505 -0.0596211,0.2613862 -0.0840614,0.369637 -0.0244403,0.1082508 -0.058796,0.2594659 -0.076346,0.3360336 -0.0479173,0.2090544 -0.046649,0.1966422 -0.0212747,0.2082136 0.0362732,0.016542 0.16136522,0.1239516 0.2351668,0.201925 l 0.0691645,0.073074 0.70371283,-0.00835 c 0.6904933,-0.0082 0.9174287,-0.011326 0.9509375,-0.013116 0.030833,-0.00165 0.017329,-0.031365 -0.036766,-0.080912 -0.051972,-0.047602 -0.080846,-0.095002 -0.080846,-0.1327173 0,-0.010102 -0.00695,-0.028972 -0.015442,-0.041934 -0.014208,-0.021683 -0.014194,-0.024046 1.728e-4,-0.029558 0.026971,-0.01035 0.067361,0.014147 0.1330167,0.080674 0.074756,0.075748 0.1126754,0.1449885 0.1126754,0.2057441 0,0.023436 0.00288,0.04549 0.0064,0.049011 0.011552,0.011552 0.1156295,0.00692 0.1259501,-0.0056 z M 0.45761742,2.7292159 c -0.002599,-0.00421 0.001384,-0.031203 0.008852,-0.059993 0.007468,-0.02879 0.0136059,-0.063285 0.0136395,-0.076656 3.361e-5,-0.013371 0.012995,-0.073496 0.0288029,-0.133611 0.0158079,-0.060115 0.0287754,-0.116281 0.0288166,-0.1248125 6.72e-5,-0.013957 0.0389617,-0.039514 0.0601358,-0.039514 0.0121474,0 -0.002541,0.1054795 -0.0192645,0.1383385 -0.0135252,0.026575 -0.0246583,0.080178 -0.0375377,0.1807319 -0.00481,0.037552 -0.002945,0.046547 0.0107394,0.051798 0.0291807,0.011198 1.48447638,-0.023608 1.49923498,-0.035857 0.00724,-0.00601 0.01317,-0.021659 0.01317,-0.034771 0,-0.013113 0.00617,-0.048227 0.013702,-0.078032 0.00754,-0.029805 0.016789,-0.084434 0.020562,-0.1213978 0.00377,-0.036964 0.014888,-0.090565 0.024701,-0.1191148 0.00981,-0.028549 0.017842,-0.063206 0.017842,-0.077015 0,-0.031758 0.033324,-0.153065 0.045352,-0.1650936 0.011149,-0.011149 0.037837,-0.00185 0.044496,0.015505 0.00271,0.00706 -9.246e-4,0.033727 -0.00807,0.059264 -0.024052,0.08592 -0.061867,0.266782 -0.067922,0.3248588 -0.0033,0.031683 -0.01407,0.090009 -0.023926,0.129613 -0.00986,0.039604 -0.020345,0.083888 -0.023309,0.09841 -0.00516,0.025286 -0.00792,0.026438 -0.065211,0.027226 -0.075172,0.00103 -0.6208388,0.017533 -0.7174889,0.021693 -0.039604,0.0017 -0.2361836,0.00617 -0.43684372,0.00992 -0.20066006,0.00375 -0.37854098,0.00892 -0.39529091,0.011489 -0.0167499,0.00257 -0.0325812,0.00123 -0.0351805,-0.00298 z"
       id="path56"
       inkscape:connector-curvature="0" />
    <path
       style="fill:#8d7279;stroke-width:0.00960096"
       d="M 1.7425743,3.7769157 C 1.49562,3.7510497 1.2507146,3.6794855 1.035892,3.570415 0.83630816,3.4690813 0.69486545,3.3638025 0.53270579,3.1958825 0.27344913,2.9274164 0.11698649,2.6244819 0.0373641,2.2368288 0.00939094,2.1006375 0.0067917,2.0725523 0.00628276,1.9009901 0.00595141,1.7892971 0.01027386,1.6944059 0.01699756,1.6657666 0.02319617,1.6393639 0.03955756,1.563983 0.05335622,1.4982533 0.08721704,1.3369576 0.12400922,1.2292581 0.1971906,1.0772155 0.35054196,0.75861072 0.55961891,0.51818302 0.85448545,0.3213604 0.95663333,0.25317697 1.167608,0.14853509 1.2769277,0.11183216 1.5253456,0.02842847 1.7976059,-0.01045337 2.0042004,0.00796941 2.2694182,0.03161985 2.4779668,0.08804385 2.7074708,0.19824319 3.0882003,0.3810555 3.3836912,0.67065179 3.5704685,1.0440255 c 0.099735,0.1993732 0.138704,0.3153149 0.1847706,0.5497339 0.01825,0.092869 0.021635,0.1409197 0.021304,0.3024302 -3.639e-4,0.177582 -0.0027,0.2031934 -0.031024,0.3406392 C 3.6832069,2.5391672 3.5704902,2.796103 3.4001096,3.0241832 3.3330836,3.1139075 3.1761266,3.2772468 3.0856986,3.3513789 2.7642152,3.6149282 2.3522188,3.7673671 1.9345935,3.7772886 1.850105,3.7792958 1.7636964,3.7791279 1.7425743,3.776916 Z M 2.6135166,3.1168851 c 0.00717,-0.00717 0.020741,-0.057931 0.030169,-0.1128113 0.00943,-0.054881 0.022897,-0.1300264 0.029931,-0.1669901 0.00703,-0.036964 0.01774,-0.09961 0.023792,-0.1392139 0.00605,-0.039604 0.014743,-0.091449 0.019315,-0.1152115 0.018894,-0.098206 0.039245,-0.2118091 0.053317,-0.2976298 0.00823,-0.050165 0.021268,-0.1257726 0.028984,-0.1680168 0.00772,-0.042244 0.020537,-0.120012 0.028491,-0.1728173 0.013877,-0.092123 0.027208,-0.1696042 0.057817,-0.3360336 0.022873,-0.1243674 0.043338,-0.2448971 0.053795,-0.3168317 0.00537,-0.036964 0.020103,-0.09745 0.032732,-0.1344134 0.012633,-0.036974 0.027461,-0.1125555 0.032964,-0.1680168 0.014762,-0.14877994 0.027352,-0.23682406 0.039811,-0.2784089 0.00609,-0.0203397 0.00855,-0.0435752 0.00546,-0.0516344 C 3.0417646,0.637135 2.9528736,0.5892399 2.8686005,0.5610602 2.7453535,0.519848 2.6945368,0.5164811 2.5058552,0.5370264 2.4134462,0.5470887 2.2751921,0.5602147 2.1986245,0.5661953 2.1220565,0.5721763 2.014046,0.5810302 1.9586005,0.5858714 1.9031545,0.5907124 1.8016248,0.5992781 1.7329779,0.6049057 1.6643309,0.6105337 1.5606407,0.6191554 1.5025549,0.6240661 1.4444689,0.6289771 1.3407787,0.6376222 1.2721318,0.6432784 c -0.068647,0.005656 -0.164524,0.0144475 -0.2130605,0.0195363 -0.048536,0.005089 -0.10902238,0.009319 -0.13441339,0.0094 -0.025391,8.065e-5 -0.0513984,0.003473 -0.0577943,0.007537 -0.0192123,0.0122095 -0.0399696,0.0723673 -0.0552962,0.16025678 -0.00796,0.0456471 -0.0313132,0.15506699 -0.0518957,0.24315542 -0.034619,0.1481618 -0.10283041,0.4509493 -0.14530649,0.6450092 -0.009824,0.044884 -0.0310641,0.139934 -0.0471994,0.2112212 -0.0161353,0.071287 -0.0492709,0.2181818 -0.0736346,0.3264326 -0.0243638,0.1082508 -0.0586746,0.2594659 -0.0762462,0.3360336 -0.0497091,0.2166049 -0.0483297,0.1982898 -0.0161863,0.2149117 0.0425993,0.022029 0.16281261,0.1241906 0.23256926,0.1976456 0.0428152,0.045085 0.0733531,0.068666 0.0972769,0.075117 0.0337304,0.00909 1.58875072,-0.00355 1.63809662,-0.013316 0.040322,-0.00798 0.027798,-0.048389 -0.031965,-0.1031273 -0.053132,-0.048665 -0.080846,-0.095032 -0.080846,-0.1352597 0,-0.0115 -0.00511,-0.026022 -0.011361,-0.032271 -0.00625,-0.00625 -0.00881,-0.013912 -0.00569,-0.01703 0.011075,-0.011076 0.061093,0.023966 0.119669,0.083837 0.070445,0.072004 0.1126882,0.1492824 0.1058483,0.1936386 -0.00724,0.046931 0.014111,0.063906 0.080368,0.063906 0.033874,0 0.060499,-0.00507 0.06846,-0.013028 z"
       id="path54"
       inkscape:connector-curvature="0" />
    <path
       style="fill:#6a606d;stroke-width:0.00960096"
       d="M 1.7425743,3.7738013 C 1.6507591,3.7639483 1.5215212,3.7390444 1.4065407,3.7090481 0.90306137,3.5777001 0.46555559,3.2275593 0.22628061,2.7644729 0.10606885,2.5318183 0.03697636,2.2982081 0.0092314,2.0306031 -8.0781778e-4,1.9337731 0.0077176,1.6905792 0.02044743,1.7106574 c 0.0051582,0.00814 0.0081144,-6.817e-4 0.0082084,-0.024483 C 0.0287367,1.6657162 0.03980727,1.5944291 0.05325708,1.5277589 0.18859492,0.85689579 0.6722209,0.31338313 1.3175726,0.10688518 1.4242898,0.07273808 1.6309691,0.02887406 1.6861748,0.02865586 c 0.023655,-9.351e-5 0.032592,-0.0030675 0.024546,-0.008169 C 1.6929178,0.00919834 1.8704001,6.558213e-4 1.9880483,0.0071386 c 0.057411,0.00316351 0.091523,0.00858359 0.084008,0.01334826 -0.00805,0.0051015 8.91e-4,0.0080755 0.024546,0.008169 0.055206,2.1819e-4 0.261885,0.04408222 0.3686022,0.07822932 0.6595629,0.21104523 1.1541636,0.78003966 1.2841254,1.47727322 0.034411,0.1846124 0.040428,0.4122485 0.014212,0.5376538 -0.00497,0.023762 -0.020322,0.096983 -0.034121,0.1627128 C 3.6931919,2.457107 3.6575162,2.5579416 3.5712899,2.7314732 3.3830662,3.1102758 3.1100187,3.3833368 2.7314732,3.5713311 2.5577709,3.6575956 2.45685,3.6932768 2.284525,3.7293521 c -0.06573,0.01376 -0.1372895,0.029078 -0.1590218,0.03404 -0.054586,0.012463 -0.3013005,0.019169 -0.3829289,0.010409 z m 0.120012,-0.6463699 c 0.3353135,-0.00116 0.6321089,0.00161 0.6595453,0.00615 0.1039343,0.017232 0.1102938,0.00714 0.1475045,-0.234096 0.00448,-0.029043 0.019271,-0.1154516 0.032869,-0.1920192 0.013598,-0.076568 0.039584,-0.2256226 0.057747,-0.3312332 0.018163,-0.1056105 0.039807,-0.2287428 0.048099,-0.2736273 0.00829,-0.044884 0.023462,-0.1356136 0.033711,-0.2016202 0.010249,-0.066007 0.025328,-0.1567357 0.03351,-0.2016202 0.021288,-0.1167868 0.061956,-0.3500807 0.072805,-0.4176417 0.00509,-0.031683 0.019958,-0.092169 0.033047,-0.1344135 0.013088,-0.042244 0.027983,-0.1221722 0.0331,-0.17761772 0.013449,-0.14573401 0.02708,-0.23773424 0.038342,-0.25877673 0.027442,-0.051275 -0.010892,-0.0905249 -0.1415225,-0.14490666 -0.1229532,-0.0511856 -0.2022551,-0.0604802 -0.3718884,-0.0435875 -0.079208,0.007888 -0.2153016,0.0209152 -0.3024303,0.0289497 -0.1476216,0.0136128 -0.2246036,0.020274 -0.5088509,0.0440305 -0.060726,0.005075 -0.160096,0.0133919 -0.2208221,0.0184814 -0.060726,0.005089 -0.1687368,0.0139096 -0.240024,0.0196002 -0.071287,0.005691 -0.1693245,0.0145388 -0.2178609,0.0196625 -0.048536,0.005124 -0.10979395,0.009316 -0.1361279,0.009316 -0.0289913,0 -0.0533636,0.005484 -0.0617801,0.0139002 -0.0139815,0.0139815 -0.0546781,0.14986372 -0.0546781,0.18256514 0,0.009647 -0.0189396,0.0979216 -0.042088,0.19616587 -0.0662233,0.2810587 -0.1287911,0.559103 -0.13525719,0.6010682 -0.00751,0.048742 -0.0239297,0.1237524 -0.13450345,0.6144615 -0.0910806,0.4042017 -0.10208004,0.452298 -0.11159181,0.4879482 -0.0100949,0.037836 -2.3472e-4,0.064107 0.0240609,0.064107 0.017755,0 0.1911893,0.1471792 0.235856,0.2001512 0.0224051,0.026571 0.0591692,0.056976 0.0816979,0.067565 0.0225287,0.01059 0.0436889,0.026362 0.0470226,0.03505 0.005487,0.0143 0.0290128,0.015242 0.24845495,0.00995 0.1333165,-0.00322 0.5167411,-0.0068 0.8520547,-0.00796 z"
       id="path52"
       inkscape:connector-curvature="0" />
    <path
       style="fill:#444c59;stroke-width:0.00960096"
       d="m 1.7715294,3.7761954 c -0.044463,-0.00227 -0.071383,-0.00717 -0.064102,-0.011665 0.00759,-0.00469 -0.013363,-0.010365 -0.052957,-0.014346 C 1.4359507,3.7282117 1.1552915,3.6327513 0.94453448,3.5087142 0.53231847,3.2661121 0.22292723,2.8686871 0.09265131,2.4144374 0.05940845,2.2985253 0.02892769,2.1434814 0.02865586,2.0889172 0.02854335,2.0663329 0.02632432,2.0627863 0.01920192,2.0738074 0.01269784,2.0838717 0.0098189,2.067969 0.00964231,2.0210021 0.00950334,1.9840384 0.00681542,1.9382331 0.00366916,1.9192125 -0.0037695,1.8742425 -0.0034488,1.8740894 0.13921392,1.8545131 c 0.0369637,-0.00507 0.0789622,-0.013817 0.0933301,-0.019433 0.0412911,-0.016139 0.19668896,-0.040739 0.24592183,-0.03893 0.0246326,9.044e-4 0.0566677,-0.00153 0.0711891,-0.0054 0.0233048,-0.00622 0.0264252,-0.00439 0.0265947,0.015594 1.0561e-4,0.012454 -0.0128001,0.078809 -0.0286795,0.1474555 -0.0158794,0.068647 -0.0483424,0.2112211 -0.0721401,0.3168317 -0.078001,0.3461563 -0.10186413,0.450671 -0.11233162,0.4919842 -0.0111189,0.043884 -6.3414e-4,0.069672 0.0283274,0.069672 0.0201581,0 0.0845877,0.053392 0.20517523,0.170025 0.0561834,0.054341 0.10887297,0.098802 0.11708788,0.098802 0.008215,0 0.0206397,0.011881 0.0276107,0.026403 l 0.0126745,0.026403 0.1198626,-1.306e-4 C 1.2829326,3.1533384 2.6145694,3.1387265 2.6212284,3.134611 2.6385504,3.123905 2.6611754,3.0091555 2.7556139,2.4530456 c 0.00986,-0.058086 0.029245,-0.170417 0.043068,-0.249625 0.021908,-0.1255331 0.071177,-0.414196 0.087671,-0.5136513 0.00306,-0.018482 0.018373,-0.1048905 0.034019,-0.1920192 0.015645,-0.087129 0.032781,-0.1882111 0.03808,-0.2246275 0.0053,-0.036417 0.017367,-0.086102 0.026819,-0.1104111 0.017231,-0.044317 0.027706,-0.1067387 0.050915,-0.30342528 0.00935,-0.0792155 0.015884,-0.10561056 0.026154,-0.10561056 0.013607,0 0.097112,0.0972083 0.2195813,0.25561604 0.035208,0.045539 0.09562,0.1219283 0.1342488,0.169753 l 0.070235,0.086954 0.085053,-0.00551 0.085053,-0.00551 0.024765,0.081193 c 0.032232,0.1056728 0.060452,0.236192 0.06882,0.3182995 0.00367,0.036031 0.00972,0.060581 0.013447,0.054555 0.00372,-0.00603 0.00917,0.032541 0.012097,0.085704 0.00648,0.1176482 -0.00206,0.2951301 -0.013348,0.2773275 -0.00531,-0.00837 -0.00807,-0.00267 -0.00817,0.01686 -2.717e-4,0.054564 -0.030753,0.209608 -0.063995,0.3255201 -0.1865175,0.6503542 -0.7248339,1.1570659 -1.3858966,1.3045298 -0.060726,0.013546 -0.139891,0.027594 -0.1759223,0.031217 -0.041094,0.00413 -0.060776,0.00959 -0.052805,0.014643 0.00782,0.00496 -0.00613,0.00811 -0.03625,0.0082 -0.026926,7.69e-5 -0.080932,0.00171 -0.120012,0.00361 -0.039081,0.0019 -0.1055505,0.0017 -0.147711,-4.445e-4 z"
       id="path50"
       inkscape:connector-curvature="0" />
  </g>
</svg>
