<?xml version="1.0" encoding="UTF-8" standalone="no"?>
<!-- Created with Inkscape (http://www.inkscape.org/) -->

<svg
   xmlns:dc="http://purl.org/dc/elements/1.1/"
   xmlns:cc="http://creativecommons.org/ns#"
   xmlns:rdf="http://www.w3.org/1999/02/22-rdf-syntax-ns#"
   xmlns:svg="http://www.w3.org/2000/svg"
   xmlns="http://www.w3.org/2000/svg"
   xmlns:sodipodi="http://sodipodi.sourceforge.net/DTD/sodipodi-0.dtd"
   xmlns:inkscape="http://www.inkscape.org/namespaces/inkscape"
   version="1.1"
   id="svg92"
   width="113.38583"
   height="113.38583"
   viewBox="0 0 113.38583 113.38583"
   sodipodi:docname="15_1.svg"
   inkscape:version="0.92.4 (5da689c313, 2019-01-14)">
  <metadata
     id="metadata98">
    <rdf:RDF>
      <cc:Work
         rdf:about="">
        <dc:format>image/svg+xml</dc:format>
        <dc:type
           rdf:resource="http://purl.org/dc/dcmitype/StillImage" />
        <dc:title></dc:title>
      </cc:Work>
    </rdf:RDF>
  </metadata>
  <defs
     id="defs96" />
  <sodipodi:namedview
     pagecolor="#ffffff"
     bordercolor="#666666"
     borderopacity="1"
     objecttolerance="10"
     gridtolerance="10"
     guidetolerance="10"
     inkscape:pageopacity="0"
     inkscape:pageshadow="2"
     inkscape:window-width="1366"
     inkscape:window-height="715"
     id="namedview94"
     showgrid="false"
     inkscape:zoom="1.9496253"
     inkscape:cx="1.8912149"
     inkscape:cy="1.8904632"
     inkscape:window-x="-8"
     inkscape:window-y="-8"
     inkscape:window-maximized="1"
     inkscape:current-layer="svg92" />
  <g
     id="g102"
     transform="matrix(29.976982,0,0,29.985261,-0.00522352,-0.0142074)">
    <path
       style="fill:#fcde81;stroke-width:0.00960096"
       d="M 1.6166,3.7679851 C 1.4257588,3.7460356 1.1743324,3.6652923 0.99895216,3.5696333 0.6991794,3.4061259 0.44106191,3.1620922 0.26835828,2.8789031 0.08389509,2.5764313 3.7457349e-4,2.2686601 3.7457349e-4,1.8913891 3.7457349e-4,1.3718763 0.17169862,0.94118391 0.52310483,0.57729484 0.77319292,0.31832296 1.0619748,0.14659346 1.3983198,0.05683201 1.6019965,0.00247615 1.899683,-0.0143358 2.153497,0.01418312 2.694803,0.07500507 3.2172064,0.41652194 3.51442,0.90387524 3.6988832,1.206347 3.7824038,1.5141182 3.7824038,1.8913891 c 0,0.5195129 -0.1713241,0.9502053 -0.5227304,1.3140943 C 3.0095853,3.4644553 2.7208035,3.6361849 2.3844585,3.7259463 2.1834354,3.7795939 1.8677859,3.7968752 1.6166,3.7679851 Z"
       id="path116"
       inkscape:connector-curvature="0" />
    <path
       style="fill:#fad376;stroke-width:0.00960096"
       d="M 1.6369637,3.768285 C 1.1151933,3.7077711 0.61779417,3.3973104 0.31596474,2.9437596 0.10160302,2.6216441 1.7425119e-4,2.2836331 1.7425119e-4,1.8913891 1.7425119e-4,1.4991452 0.10160302,1.1611342 0.31596474,0.83901871 0.57815178,0.4450374 0.98600113,0.15901392 1.4449445,0.04726863 c 0.2483459,-0.06046821 0.6445434,-0.06046821 0.8928893,0 C 2.7967772,0.15901392 3.2046265,0.4450374 3.4668136,0.83901871 3.6811753,1.1611342 3.782604,1.4991452 3.782604,1.8913891 c 0,0.392244 -0.1014287,0.730255 -0.3157904,1.0523705 C 3.2046265,3.3377409 2.7967772,3.6237644 2.3378338,3.7355097 2.1558775,3.779813 1.8569101,3.793794 1.6369637,3.768285 Z M 1.9489949,3.6372327 c 0.055446,-0.010356 0.1356125,-0.022743 0.1781488,-0.027526 0.1535538,-0.017266 0.321002,-0.048038 0.3804502,-0.069916 0.033365,-0.012278 0.094701,-0.044718 0.1363023,-0.072087 0.041602,-0.027369 0.081709,-0.049762 0.089128,-0.049762 0.03435,0 0.1104562,-0.051672 0.1611479,-0.109411 0.030086,-0.034268 0.08484,-0.082899 0.1216762,-0.1080676 0.036836,-0.025169 0.07622,-0.06106 0.087519,-0.079758 0.011299,-0.018698 0.057468,-0.072034 0.1025978,-0.1185237 0.077482,-0.079818 0.095969,-0.1063518 0.1440808,-0.2067925 0.047738,-0.099661 0.030461,-0.090408 -0.079305,0.042474 -0.1081356,0.1309084 -0.1447151,0.162911 -0.173559,0.1518426 -0.00757,-0.0029 -0.040904,-0.051392 -0.074085,-0.1077532 C 2.9265822,2.7180097 2.9009642,2.6857266 2.8715644,2.6909944 2.7979315,2.7041876 2.6881112,2.7358825 2.4722472,2.8062401 2.1882312,2.8988107 2.2104025,2.8825253 2.0313646,3.1300797 1.9684171,3.2171167 1.907073,3.3014069 1.8950443,3.3173911 l -0.02187,0.029062 0.042882,0.093257 c 0.045442,0.098825 0.062599,0.1722552 0.043067,0.1843268 C 1.9388574,3.6365614 1.9117156,3.5996006 1.8539922,3.4808744 1.8228168,3.4167524 1.791267,3.3592741 1.7838814,3.3531446 1.7764959,3.3470152 1.729617,3.3306398 1.679706,3.3167549 1.6297951,3.3028699 1.530628,3.2724321 1.4593346,3.2491151 1.3880411,3.2257982 1.3142891,3.2067207 1.2954409,3.2067207 c -0.018848,0 -0.075009,-0.00884 -0.1248011,-0.019635 C 1.1208473,3.1762863 1.0685011,3.165 1.0543149,3.162005 c -0.014186,-0.003 -0.063871,1.92e-5 -0.11041095,0.0067 -0.0465399,0.00668 -0.0975793,0.011762 -0.1134209,0.011291 -0.0455152,-0.00135 -0.0720072,0.00671 -0.0720072,0.021916 0,0.00772 0.0529253,0.0494 0.11761176,0.092631 0.14038479,0.093822 0.26644259,0.1878709 0.28374789,0.2116974 0.018846,0.025948 0.1101984,0.065735 0.1723941,0.075084 0.057384,0.00863 0.1697663,0.038531 0.2187472,0.05821 0.070706,0.028408 0.2388038,0.027435 0.3980181,-0.0023 z M 0.97929794,3.0757093 C 1.0363564,3.0533128 1.0510107,3.0435481 1.0498869,3.0286731 1.0491073,3.0183484 1.0350655,2.9523521 1.0186838,2.8820146 0.99126793,2.7642999 0.9888989,2.7405155 0.9888989,2.5829813 V 2.4118344 L 0.87608761,2.3098643 0.76327633,2.2078941 0.75732215,2.3544722 c -0.0116664,0.2871999 -0.020907,0.7253397 -0.01559,0.7391956 0.0100335,0.026147 0.15267034,0.015364 0.23756579,-0.017958 z M 2.5673638,2.706071 C 2.6830442,2.668219 2.7837424,2.630367 2.7911376,2.621955 c 0.0074,-0.00841 0.052329,-0.064979 0.099853,-0.1257056 0.047524,-0.060726 0.091722,-0.1147314 0.098218,-0.120012 0.029798,-0.024223 0.063311,-0.1036679 0.083026,-0.1968196 0.011735,-0.055446 0.029493,-0.1350342 0.039462,-0.1768637 0.00997,-0.041829 0.017066,-0.076393 0.015771,-0.076808 -0.034325,-0.010995 -0.1499503,-0.2048195 -0.199732,-0.3348144 -0.017308,-0.045196 -0.027355,-0.058161 -0.053556,-0.069108 -0.017738,-0.00741 -0.037167,-0.024264 -0.043175,-0.037449 -0.013525,-0.029684 -0.030414,-0.036706 -0.060641,-0.025214 -0.021539,0.00819 -0.099771,-0.00927 -0.2606949,-0.058186 -0.023116,-0.00703 -0.062888,-0.00174 -0.1776178,0.023612 -0.081308,0.017966 -0.1808626,0.039811 -0.2212328,0.048544 -0.051524,0.011146 -0.074896,0.020759 -0.07842,0.03225 -0.00276,0.009 -0.031515,0.085498 -0.063899,0.1699862 -0.032383,0.084489 -0.078107,0.206835 -0.1016075,0.2718812 L 1.8241635,2.0655144 1.934584,2.3250597 c 0.060731,0.14275 0.1104918,0.2623477 0.1105791,0.2657727 3.62e-4,0.014207 0.086052,0.087838 0.1022636,0.087871 0.00967,1.92e-5 0.032711,0.00945 0.051193,0.020948 0.068731,0.042772 0.1300446,0.074686 0.1440144,0.074959 0.00792,1.546e-4 0.109049,-0.030688 0.2247297,-0.068539 z M 3.4849996,2.4790789 c 0.00672,-0.043767 0.00998,-0.081805 0.00726,-0.084529 -0.00455,-0.00455 -0.027545,0.088535 -0.04172,0.1689065 -0.00552,0.031309 -0.00496,0.032292 0.00816,0.014401 0.00775,-0.010561 0.019582,-0.055012 0.026299,-0.098779 z M 1.1530791,2.3766725 C 1.2188704,2.3640829 1.5349178,2.2894041 1.6250448,2.2651516 1.6663503,2.2540366 1.669989,2.2472888 1.7859022,1.9668462 1.8587887,1.7905029 1.9098629,1.644102 1.9353828,1.53837 c 0.016053,-0.066508 0.016024,-0.070047 -7.23e-4,-0.088552 -0.00959,-0.010601 -0.0249,-0.019275 -0.034012,-0.019275 -0.029772,0 -0.2050835,0.067931 -0.2470746,0.095738 -0.022548,0.014932 -0.09944,0.056745 -0.170871,0.092918 -0.1026879,0.052002 -0.1403305,0.076728 -0.1798254,0.1181239 -0.027473,0.028795 -0.086343,0.088946 -0.1308216,0.1336683 -0.078667,0.079098 -0.28876647,0.3483939 -0.28876647,0.3701274 0,0.035199 0.13068217,0.149521 0.17091557,0.1495185 0.014247,-9e-7 0.058741,-0.00629 0.098875,-0.013965 z m 2.347471,-0.021837 c -0.00319,-0.00319 -0.00546,0.00248 -0.00504,0.012601 4.608e-4,0.011185 0.00274,0.01346 0.0058,0.0058 0.00277,-0.00693 0.00243,-0.015211 -7.575e-4,-0.018402 z M 3.2618779,1.8699112 c 0.043538,-0.01195 0.079133,-0.023887 0.0791,-0.026527 -2.88e-5,-0.00264 -0.035654,-0.029497 -0.07916,-0.059682 -0.043505,-0.030185 -0.1131073,-0.083179 -0.1546714,-0.1177643 -0.041564,-0.034585 -0.079725,-0.06545 -0.084801,-0.068587 -0.011764,-0.00727 0.00843,0.032202 0.084808,0.1657872 0.03364,0.058835 0.061163,0.11176 0.061163,0.1176118 0,0.01438 0.00291,0.014043 0.093561,-0.010839 z"
       id="path114"
       inkscape:connector-curvature="0" />
    <path
       style="fill:#f48e6a;stroke-width:0.00960096"
       d="M 1.6369637,3.768285 C 1.1151933,3.7077711 0.61779417,3.3973104 0.31596474,2.9437596 0.10160302,2.6216441 1.7425119e-4,2.2836331 1.7425119e-4,1.8913891 1.7425119e-4,1.4991452 0.10160302,1.1611342 0.31596474,0.83901871 0.57815178,0.4450374 0.98600113,0.15901392 1.4449445,0.04726863 c 0.2483459,-0.06046821 0.6445434,-0.06046821 0.8928893,0 C 2.7967772,0.15901392 3.2046265,0.4450374 3.4668136,0.83901871 3.6811753,1.1611342 3.782604,1.4991452 3.782604,1.8913891 c 0,0.392244 -0.1014287,0.730255 -0.3157904,1.0523705 C 3.2046265,3.3377409 2.7967772,3.6237644 2.3378338,3.7355097 2.1558775,3.779813 1.8569101,3.793794 1.6369637,3.768285 Z M 1.9561914,3.649129 C 2.1881748,3.610962 2.2147973,3.608407 2.2583369,3.620131 c 0.034727,0.00935 0.049985,0.00575 0.1882563,-0.044408 0.2719472,-0.098652 0.3297751,-0.1317739 0.461785,-0.264497 0.039996,-0.040212 0.097462,-0.089362 0.1277014,-0.1092214 0.032298,-0.021211 0.066782,-0.054424 0.083584,-0.080503 0.015732,-0.024417 0.059367,-0.074637 0.096967,-0.1116007 0.0376,-0.036964 0.077178,-0.084488 0.087951,-0.1056106 0.010773,-0.021122 0.025288,-0.044918 0.032255,-0.052881 0.00697,-0.00796 0.026104,-0.050919 0.042526,-0.095458 0.016422,-0.044539 0.046405,-0.105759 0.066628,-0.1360435 0.022226,-0.033284 0.039367,-0.072385 0.043337,-0.098859 0.00361,-0.024088 0.023592,-0.080644 0.044399,-0.1256809 0.037828,-0.081877 0.037831,-0.081896 0.037831,-0.2052129 0,-0.06783 0.00431,-0.1460394 0.00957,-0.1737979 0.015338,-0.080879 -0.0036,-0.3727275 -0.027727,-0.4272689 -0.02113,-0.047767 -0.028793,-0.054669 -0.024126,-0.021732 0.00168,0.011881 0.00517,0.1317732 0.00774,0.2664267 l 0.00468,0.2448245 -0.057417,0.2640264 c -0.03158,0.1452145 -0.061067,0.2728095 -0.065526,0.2835446 -0.010259,0.024693 -0.2173787,0.2765384 -0.2640611,0.3210824 -0.028325,0.027027 -0.03811,0.03141 -0.051481,0.023058 -0.00908,-0.00567 -0.042537,-0.057412 -0.074348,-0.114978 -0.07007,-0.1268143 -0.1167531,-0.1959171 -0.132233,-0.195751 -0.00635,6.72e-5 -0.037589,0.00829 -0.069426,0.018276 -0.031837,0.00998 -0.069779,0.015879 -0.084315,0.0131 -0.025255,-0.00483 -0.024283,-0.00605 0.021882,-0.027435 0.026571,-0.012311 0.048311,-0.026365 0.048311,-0.031231 0,-0.010903 0.1710633,-0.2260145 0.1832756,-0.2304687 0.024363,-0.00889 0.076049,-0.1498767 0.1051511,-0.2868372 0.017066,-0.080318 0.038777,-0.1587711 0.048245,-0.1743402 0.018162,-0.029864 0.076764,-0.052734 0.1667244,-0.065064 0.024008,-0.00329 0.04823,-0.011501 0.053827,-0.018245 0.010923,-0.013162 0.015617,-0.00901 -0.1299801,-0.1150383 C 3.1980798,1.7115408 3.1289529,1.657665 3.0867087,1.6225812 2.9543068,1.5126212 2.9104373,1.4898298 2.9569692,1.5551777 2.9949501,1.608517 3.139514,1.8641153 3.139514,1.8779288 c 0,0.032535 -0.030935,0.00834 -0.065643,-0.051346 C 3.0154077,1.7260482 2.9410591,1.5731781 2.9333387,1.53763 2.9259628,1.5036678 2.8858255,1.458986 2.7890295,1.3769814 2.7120427,1.311759 2.7153464,1.31293 2.6677101,1.3339817 2.644694,1.3441531 2.5848185,1.3591003 2.5346535,1.3671976 2.3968516,1.3894404 2.0440533,1.4673851 2.0305851,1.4785627 c -0.00651,0.00541 -0.037117,0.076742 -0.068004,0.1585233 -0.032256,0.085405 -0.061401,0.1486926 -0.068476,0.1486926 -0.014741,0 -0.015268,-0.00453 -0.00309,-0.026533 0.00507,-0.00917 0.026652,-0.079289 0.047955,-0.1558212 l 0.038731,-0.1391498 -0.049234,-0.048069 c -0.027079,-0.026438 -0.046755,-0.040824 -0.043725,-0.031969 0.00598,0.017472 -0.00639,0.030805 -0.036553,0.039409 -0.076835,0.021916 -0.1698466,0.060606 -0.2107335,0.087659 -0.026671,0.017647 -0.104658,0.060314 -0.1733049,0.094815 -0.1280732,0.064369 -0.1525276,0.084046 -0.2436465,0.1960413 -0.022368,0.027492 -0.061721,0.06544 -0.087452,0.084328 -0.043179,0.031696 -0.1066497,0.111386 -0.23382871,0.2935806 L 0.8527448,2.2466492 0.82835866,2.227467 C 0.78518026,2.1935029 0.64729651,2.013602 0.60756712,1.939394 0.58636401,1.89979 0.56303961,1.8673867 0.55573512,1.8673867 c -0.0255586,0 -0.008293,0.045602 0.0577096,0.1524273 0.0362927,0.058739 0.0799066,0.1327213 0.0969198,0.1644044 l 0.0309329,0.057606 -0.008212,0.2016202 c -0.004517,0.110891 -0.008212,0.3117911 -0.008212,0.4464446 v 0.2448245 l 0.0408041,-0.00182 c 0.0472234,-0.0021 0.0546079,0.011662 0.0113525,0.021162 -0.0641749,0.014095 -0.0430351,0.071744 0.052422,0.1429556 0.0375313,0.027999 0.1157635,0.082531 0.17384928,0.1211827 0.058086,0.038652 0.1207321,0.082132 0.139214,0.096623 0.040782,0.031975 0.1437457,0.07594 0.1778484,0.07594 0.025157,0 0.1720164,0.038764 0.2220684,0.058616 0.0338,0.013406 0.1150665,0.024867 0.1881377,0.026534 0.030361,6.922e-4 0.1318908,-0.011359 0.2256226,-0.02678 z M 1.9226452,3.559788 C 1.9172088,3.5530597 1.8883248,3.4986519 1.8584584,3.4388818 1.7966437,3.3151751 1.8024993,3.319563 1.645967,3.2796515 1.5934905,3.2662714 1.4989123,3.2379077 1.4357933,3.2166209 1.3726742,3.1953342 1.3047084,3.1779178 1.2847581,3.1779178 c -0.01995,0 -0.084282,-0.011258 -0.1429602,-0.025017 -0.094999,-0.022276 -0.11474,-0.023998 -0.18019789,-0.015716 -0.0404311,0.00512 -0.0750052,0.00804 -0.0768311,0.0065 -0.001826,-0.00154 0.0284171,-0.011872 0.0672067,-0.022952 0.0845826,-0.024161 0.0931877,-0.028569 0.11635609,-0.059601 0.016992,-0.022759 0.017141,-0.026713 0.00269,-0.071265 -0.018175,-0.056016 -0.027472,-0.1226764 -0.049709,-0.3564228 -0.01851,-0.1945677 -0.013905,-0.2310427 0.027791,-0.2201389 0.040561,0.010607 0.6205107,-0.1255949 0.6324664,-0.1485353 0.00382,-0.00734 0.031702,-0.066281 0.06195,-0.1309858 0.030249,-0.064705 0.057054,-0.115589 0.059567,-0.113076 0.00251,0.00251 0.00541,0.02089 0.00643,0.040837 0.0011,0.021403 0.046239,0.1405471 0.1101309,0.2906936 0.094624,0.2223685 0.1138332,0.2601716 0.1524539,0.30003 0.024606,0.025395 0.052968,0.045605 0.063999,0.045605 0.010896,0 0.051977,0.020017 0.09129,0.044483 0.039313,0.024465 0.083185,0.04784 0.097493,0.051943 0.01966,0.00564 0.068888,-0.0063 0.2015261,-0.048857 0.096531,-0.030975 0.1770223,-0.054807 0.178869,-0.05296 0.00459,0.00459 -0.04488,0.022575 -0.2906382,0.1056269 -0.2551042,0.08621 -0.2123764,0.049727 -0.459291,0.3921678 -0.056301,0.078083 -0.1023652,0.1484128 -0.1023652,0.1562894 0,0.00788 0.012328,0.03904 0.027396,0.069253 0.050765,0.1017882 0.075067,0.1845716 0.042264,0.1439726 z M 0.80654114,1.079638 c 0.0204317,-0.011308 0.0212266,-0.013301 0.005422,-0.013591 -0.0267931,-4.922e-4 -0.0822898,0.021113 -0.0822898,0.032036 0,0.00512 0.007284,0.017365 0.0161867,0.027203 0.0156689,0.017314 0.0165155,0.017082 0.0264631,-0.00725 0.005652,-0.013828 0.0210503,-0.031104 0.0342183,-0.038392 z M 1.170331,1.0221693 c 0.2181838,-0.0270824 0.2925672,-0.031634 0.3261544,-0.019958 0.017228,0.00599 0.021699,0.00475 0.018451,-0.005104 -0.00267,-0.0081 -0.022117,-0.0139554 -0.051541,-0.0155175 -0.077063,-0.004092 -0.090459,-0.009434 -0.090459,-0.0360779 0,-0.0226393 0.00278,-0.0238195 0.056065,-0.0238195 0.05122,0 0.057058,-0.002181 0.067566,-0.0252431 0.00633,-0.0138837 0.01026,-0.0263787 0.00874,-0.0277667 -0.00152,-0.001388 -0.056765,0.0125384 -0.1227717,0.0309476 -0.066007,0.0184091 -0.1351336,0.0347784 -0.1536154,0.0363762 -0.030895,0.002671 -0.32428384,0.0955483 -0.33468662,0.1059512 -0.0104003,0.0104 0.0920329,0.00306 0.27609472,-0.019788 z M 0.6635254,0.76971657 c 0.0137838,-0.0510669 0.028455,-0.10084626 0.0326026,-0.11062083 0.007202,-0.0169734 0.006177,-0.0170665 -0.0228225,-0.00207 -0.0255507,0.0132128 -0.0288093,0.0186059 -0.0205577,0.0340241 0.007702,0.0143909 0.003136,0.030554 -0.0212798,0.0753254 -0.0286272,0.0524946 -0.0300216,0.0589912 -0.017631,0.0821432 0.0074,0.0138272 0.0159685,0.0226444 0.0190408,0.0195938 0.003072,-0.003051 0.0168638,-0.0473285 0.0306476,-0.0983957 z m 2.4195608,-0.0280424 c -0.010632,-0.0145215 -0.037988,-0.046695 -0.06079,-0.0714967 l -0.041458,-0.0450941 -0.042533,0.009556 c -0.038043,0.008548 -0.3061849,0.0373275 -0.3484463,0.037399 -0.00924,1.536e-5 -0.016802,0.00388 -0.016802,0.008589 0,0.014318 0.044033,0.0206248 0.07327,0.0104943 0.034344,-0.0119005 0.2687002,-0.0362942 0.2968988,-0.0309037 0.011435,0.002186 0.047592,0.0273485 0.080349,0.0559167 0.064713,0.0564378 0.090117,0.0673403 0.059511,0.0255395 z M 1.9825983,0.45124513 c -0.00326,-0.005281 -0.010254,-0.009601 -0.015535,-0.009601 -0.00528,0 -0.00693,0.00432 -0.00367,0.009601 0.00326,0.005281 0.010254,0.009601 0.015535,0.009601 0.00528,0 0.00693,-0.00432 0.00367,-0.009601 z M 1.7808464,0.27829299 c -0.035541,-0.0363971 -0.067898,-0.0550481 -0.077991,-0.0449551 -0.00257,0.002567 0.019935,0.0247095 0.050005,0.0492047 0.064556,0.0525868 0.08104,0.0500836 0.027985,-0.00425 z"
       id="path112"
       inkscape:connector-curvature="0" />
    <path
       style="fill:#ae708c;stroke-width:0.00960096"
       d="M 1.6369637,3.768285 C 1.1151933,3.7077711 0.61779417,3.3973104 0.31596474,2.9437596 0.10160302,2.6216441 1.7425119e-4,2.2836331 1.7425119e-4,1.8913891 1.7425119e-4,1.4991452 0.10160302,1.1611342 0.31596474,0.83901871 0.57815178,0.4450374 0.98600113,0.15901392 1.4449445,0.04726863 c 0.2483459,-0.06046821 0.6445434,-0.06046821 0.8928893,0 C 2.7967772,0.15901392 3.2046265,0.4450374 3.4668136,0.83901871 3.6811753,1.1611342 3.782604,1.4991452 3.782604,1.8913891 c 0,0.392244 -0.1014287,0.730255 -0.3157904,1.0523705 C 3.2046265,3.3377409 2.7967772,3.6237644 2.3378338,3.7355097 2.1558775,3.779813 1.8569101,3.793794 1.6369637,3.768285 Z M 1.9089398,3.6670027 c 0.2221538,-0.039184 0.2969236,-0.046896 0.350215,-0.036119 0.046058,0.00931 0.055756,0.00775 0.1266838,-0.020448 0.042244,-0.016793 0.1197273,-0.045712 0.1721847,-0.064263 0.1143895,-0.040453 0.1955115,-0.080263 0.2209514,-0.1084309 0.010284,-0.011387 0.03461,-0.029647 0.054058,-0.040577 0.019448,-0.01093 0.05813,-0.045742 0.085961,-0.077359 0.02783,-0.031617 0.082352,-0.080967 0.1211591,-0.1096657 0.038807,-0.028699 0.070559,-0.056422 0.070559,-0.061605 0,-0.00518 0.043372,-0.054572 0.096382,-0.1097532 0.05301,-0.055181 0.1026299,-0.1152805 0.1102656,-0.1335553 0.00764,-0.018275 0.017958,-0.035745 0.022938,-0.038823 0.00498,-0.00308 0.024954,-0.04663 0.044387,-0.096782 0.019432,-0.050152 0.051666,-0.1164577 0.07163,-0.1473463 0.019964,-0.030889 0.039361,-0.075121 0.043104,-0.098294 0.00374,-0.023173 0.023666,-0.079943 0.044273,-0.1261548 0.036979,-0.082926 0.037467,-0.085563 0.037467,-0.202257 0,-0.06503 0.00446,-0.1423743 0.00992,-0.1718771 C 3.6051074,1.9478044 3.5877884,1.6377073 3.5667174,1.587616 3.5581474,1.567232 3.5470844,1.529427 3.5421374,1.503604 3.5371874,1.477781 3.5269314,1.451858 3.5193374,1.445998 3.51174,1.440138 3.4794738,1.3584306 3.4476305,1.264426 3.4157873,1.1704214 3.3798789,1.0797497 3.3678342,1.0629333 3.3557894,1.0461171 3.3323868,1.0063782 3.3158284,0.97462496 3.294281,0.93330458 3.2763636,0.91233206 3.2528026,0.90085293 3.2346968,0.89203161 3.2075131,0.86610902 3.1923941,0.84324716 3.1222887,0.73723817 2.9816665,0.57429204 2.9436169,0.55497631 2.9219874,0.54399613 2.7988396,0.47259481 2.6699553,0.3963067 2.541071,0.3200186 2.4244193,0.25332239 2.4107294,0.24809291 c -0.028468,-0.0108745 -0.6134941,-0.094464 -0.661192,-0.0944722 -0.024222,-4.15e-6 -0.033422,0.005205 -0.040069,0.0226876 -0.00475,0.0124811 -0.015122,0.0251852 -0.02306,0.0282312 -0.00794,0.003046 -0.1151551,0.0234624 -0.2382606,0.0453696 -0.1231055,0.0219072 -0.228193,0.0423813 -0.2335277,0.0454979 -0.00533,0.003117 -0.1112298,0.070489 -0.23532216,0.14971632 C 0.85520553,0.5243508 0.72561059,0.60569366 0.69130921,0.62588534 0.63831184,0.6570825 0.61451421,0.68127694 0.53289336,0.78694265 0.37847284,0.98685428 0.34564904,1.034411 0.33904134,1.0678049 c -0.003429,0.017328 -0.0340289,0.089831 -0.0680005,0.161118 -0.0618175,0.1297198 -0.10171377,0.2301331 -0.0943589,0.237488 0.009708,0.00971 0.10164588,-0.1513549 0.18705336,-0.3276953 0.0888071,-0.18335946 0.0964388,-0.19557263 0.15246765,-0.24399763 0.0482967,-0.0417422 0.0622095,-0.0492488 0.0768026,-0.0414388 0.0186957,0.0100056 0.10037539,0.16804423 0.11202172,0.21674603 0.003725,0.015577 0.0221951,0.05446 0.0410449,0.086409 l 0.0342723,0.058088 -0.0502324,0.094426 c -0.0421577,0.079247 -0.057963,0.1247752 -0.0983243,0.2832283 -0.0264506,0.1038414 -0.0503369,0.200929 -0.0530807,0.2157502 -0.002744,0.014821 -0.015033,0.033529 -0.0273093,0.041573 -0.0342666,0.022452 -0.29929161,0.1282993 -0.32124232,0.1282993 -0.01219,0 -0.023373,-0.00982 -0.0300655,-0.026403 C 0.1835678,1.9104586 0.164339,1.7967046 0.1631681,1.7329733 0.16258599,1.7012903 0.1589221,1.6580863 0.1550261,1.6369633 0.1483421,1.6007223 0.1472911,1.5997403 0.1363775,1.6195303 0.1208136,1.6477513 0.1200943,2.1375001 0.1355596,2.1763921 c 0.005911,0.014865 0.014123,0.061591 0.0182487,0.1038353 0.005444,0.055738 0.0165838,0.096677 0.0406118,0.1492408 0.0182108,0.039838 0.0451592,0.1089651 0.0598852,0.1536154 0.014726,0.04465 0.0354529,0.098464 0.0460598,0.1195861 0.0318939,0.063512 0.11566285,0.1704477 0.21279938,0.2716502 0.0504326,0.052544 0.0916957,0.1016896 0.0916957,0.1092132 0,0.015047 0.0549164,0.070087 0.1021428,0.1023727 0.0165746,0.011331 0.0327133,0.030872 0.0358638,0.043425 0.008312,0.033119 0.0867931,0.096263 0.26196522,0.2107706 0.1799547,0.1176344 0.242221,0.1490669 0.3177964,0.1604266 0.056451,0.00849 0.1680877,0.03806 0.2187471,0.057951 0.080133,0.031463 0.219221,0.034689 0.3675639,0.00852 z M 1.7041704,3.2770735 C 1.6830483,3.2689869 1.5879988,3.2373079 1.4929493,3.2066758 1.2376617,3.1244028 1.1399358,3.0859635 1.1233123,3.0612834 1.1045527,3.033432 1.0917458,2.9731571 1.0564024,2.7463766 1.0207436,2.5175739 1.0200339,2.4917242 1.0489049,2.473323 1.0607859,2.465753 1.1785179,2.430287 1.3105311,2.394515 1.5157523,2.338906 1.5620523,2.329467 1.6298482,2.329419 c 0.084037,-5.76e-5 0.1108084,0.010607 0.089889,0.035813 -0.00938,0.011298 -0.00485,0.017848 0.024889,0.036001 0.040299,0.0246 0.3355869,0.2855827 0.4105207,0.3628281 l 0.047737,0.04921 -0.017034,0.031631 c -0.01748,0.032459 -0.3280757,0.4012366 -0.3633602,0.4314267 -0.02372,0.020295 -0.066553,0.020565 -0.1183198,7.459e-4 z M 3.0689924,2.9162916 C 3.0540418,2.8847991 3.0353094,2.8100498 3.0190672,2.7170717 2.9865477,2.5309141 2.9802834,2.4617787 2.9943948,2.4447756 c 0.00594,-0.00716 0.019403,-0.038004 0.029908,-0.068538 0.010505,-0.030534 0.023313,-0.060591 0.028461,-0.066795 0.00515,-0.0062 0.024559,-0.077961 0.043135,-0.1594608 0.048353,-0.2121474 0.054069,-0.2250038 0.1082485,-0.2434645 0.055659,-0.018965 0.1205854,-0.019182 0.2170395,-7.249e-4 0.041389,0.00792 0.076921,0.0144 0.078961,0.0144 0.00204,0 0.010301,0.012747 0.018357,0.028326 0.031577,0.061063 0.00757,0.2266182 -0.095816,0.6606654 -0.00285,0.011949 -0.027761,0.048702 -0.055366,0.081674 -0.027605,0.032972 -0.067473,0.081424 -0.088595,0.1076702 -0.071514,0.088864 -0.1509332,0.168169 -0.1684115,0.168169 -0.011545,0 -0.025442,-0.016951 -0.041324,-0.050405 z M 1.9910938,1.3900388 C 1.8698627,1.2967991 1.6213548,1.0755598 1.5381436,0.98679043 1.498287,0.94427156 1.4963088,0.93963933 1.5060608,0.91166462 c 0.00572,-0.0163971 0.020226,-0.0424084 0.032244,-0.0578028 0.1512202,-0.19370236 0.2470338,-0.30691678 0.2666757,-0.31510697 0.013201,-0.005505 0.058566,-0.0183681 0.1008101,-0.0285856 0.1536258,-0.0371569 0.1260738,-0.0420822 0.3728902,0.0666587 0.1223031,0.0538836 0.2552667,0.11439103 0.2954747,0.13446102 l 0.073105,0.0364909 0.00622,0.055753 C 2.6793495,1.035301 2.6880735,1.1406222 2.6881625,1.2222121 l 1.027e-4,0.094099 -0.036004,0.015327 c -0.028668,0.012205 -0.5442416,0.078531 -0.6179671,0.079499 -0.00853,1.123e-4 -0.027971,-0.00938 -0.043204,-0.021099 z"
       id="path110"
       inkscape:connector-curvature="0" />
    <path
       style="fill:#2a5094;stroke-width:0.00960096"
       d="M 1.7329733,3.772825 C 0.92022255,3.6865114 0.25471929,3.1203015 0.06842397,2.3566271 0.01431688,2.1348276 0.00564146,2.07054 0.00564146,1.8913891 c 0,-0.1791508 0.00867542,-0.2434384 0.06278251,-0.4652379 0.17150767,-0.7030558 0.75684904,-1.24961556 1.48688443,-1.38837136 0.2408795,-0.04578331 0.431282,-0.04578331 0.6721615,0 0.7300354,0.1387558 1.3153768,0.68531556 1.4868845,1.38837136 0.054107,0.2217995 0.062782,0.2860871 0.062782,0.4652379 0,0.1791509 -0.00868,0.2434385 -0.062782,0.465238 C 3.5786322,2.9129881 3.1661808,3.3954545 2.6331804,3.6213336 2.3387512,3.7461092 2.0070417,3.8019309 1.7329733,3.772825 Z M 1.8729862,3.677642 c 0.028604,-0.00502 0.09089,-0.016611 0.138415,-0.025759 0.050744,-0.00977 0.1359421,-0.01699 0.2064206,-0.017499 l 0.120012,-8.679e-4 0.1632163,-0.061039 c 0.246865,-0.092322 0.2749076,-0.1091196 0.4120677,-0.2468273 0.04267,-0.04284 0.1024673,-0.094246 0.1328836,-0.1142348 0.030416,-0.019989 0.064761,-0.051905 0.076321,-0.070924 0.01156,-0.019019 0.06057,-0.075631 0.1089102,-0.1258041 0.04834,-0.050173 0.091195,-0.1020183 0.095232,-0.1152115 0.00404,-0.013193 0.013328,-0.030829 0.020648,-0.039191 0.00732,-0.00836 0.029617,-0.055887 0.04955,-0.1056106 0.019934,-0.049724 0.050233,-0.1107372 0.067333,-0.1355849 0.017099,-0.024848 0.035147,-0.066573 0.040106,-0.092723 0.00496,-0.02615 0.026759,-0.089072 0.048444,-0.1398279 0.039262,-0.091896 0.03942,-0.092756 0.037694,-0.2049072 -9.534e-4,-0.061943 0.00124,-0.1385468 0.00487,-0.1702299 0.00363,-0.031683 0.00213,-0.1353736 -0.00334,-0.2304231 -0.00766,-0.1331435 -0.014429,-0.1844124 -0.029483,-0.2233253 -0.010747,-0.027779 -0.01954,-0.05852 -0.01954,-0.068312 0,-0.00979 -0.00939,-0.029744 -0.020871,-0.044338 C 3.5104038,1.4304094 3.4774341,1.3468109 3.448617,1.2592284 3.4172235,1.1638154 3.3842199,1.082527 3.366278,1.0564259 3.3498086,1.0324669 3.3233724,0.98788715 3.3075308,0.95735973 3.2888229,0.92130882 3.2711267,0.89991183 3.2570404,0.89631009 3.24374,0.89290931 3.1891687,0.83136271 3.1159289,0.73716161 L 2.9965049,0.58355841 2.753578,0.43994092 C 2.6199682,0.3609513 2.4882538,0.28350203 2.4608793,0.26783142 2.415152,0.24165463 2.3859934,0.23581774 2.1020425,0.19600039 1.9320567,0.17216393 1.7729959,0.15395613 1.7485739,0.15553861 c -0.037677,0.002441 -0.044868,0.006147 -0.047469,0.0244636 -0.00359,0.0252617 0.016743,0.0199401 -0.2642887,0.0691772 -0.1625628,0.0284812 -0.2284304,0.044033 -0.2544255,0.0600716 C 0.94114956,0.4580937 0.65118326,0.64705109 0.62671862,0.67135613 0.59608153,0.70179336 0.47959633,0.8491809 0.39093009,0.96969698 c -0.0252525,0.0343234 -0.0482593,0.0732073 -0.0511262,0.0864086 -0.00665,0.030619 -0.0744256,0.1902845 -0.11003829,0.2592259 -0.037043,0.071711 -0.066629,0.153339 -0.0661168,0.1824183 4.139e-4,0.023499 7.2737e-4,0.0236 0.0149496,0.0048 C 0.22487987,1.4413741 0.30774779,1.295845 0.35080982,1.20012 0.44286563,0.99548391 0.46465669,0.95865696 0.52369329,0.90794673 c 0.0547802,-0.0470541 0.0552236,-0.0472249 0.0712398,-0.0274458 0.008864,0.0109467 0.0323506,0.0581762 0.0521923,0.10495455 0.0198417,0.0467784 0.0440993,0.10017312 0.0539057,0.11865492 0.009806,0.018482 0.0269697,0.051435 0.0381407,0.073229 l 0.0203108,0.039626 -0.0498856,0.093364 c -0.0404911,0.075782 -0.0568271,0.1216569 -0.0867457,0.2436027 -0.0202731,0.082631 -0.0449798,0.1802567 -0.0549038,0.2169451 l -0.0180436,0.066706 -0.12373684,0.05165 C 0.22154844,1.9746442 0.23281503,1.9718692 0.2167552,1.9408132 0.2017521,1.9118002 0.1872504,1.8123169 0.1773638,1.670583 0.1738648,1.620426 0.1686068,1.575513 0.1656788,1.570775 0.1627508,1.566035 0.152539,1.576835 0.1429862,1.594762 0.1274632,1.623899 0.1255747,1.655609 0.125215,1.8931649 c -2.6422e-4,0.1745327 0.003288,0.2750822 0.0103451,0.2928293 0.005911,0.014865 0.0140875,0.061591 0.0181696,0.1038353 0.005456,0.056458 0.0162627,0.095885 0.0407903,0.1488149 0.0183525,0.039604 0.0453295,0.1087309 0.0599488,0.1536153 0.0146193,0.044885 0.0329121,0.094127 0.0406507,0.1094279 0.0284595,0.056271 0.12416886,0.1763733 0.21570632,0.2706824 0.0517191,0.053285 0.0941384,0.1051302 0.094265,0.1152115 1.3585e-4,0.010814 0.0276918,0.041108 0.0672067,0.073883 0.0368371,0.030555 0.0669764,0.061512 0.0669764,0.068795 0,0.022353 0.11265246,0.1129651 0.26842698,0.2159098 0.1745041,0.1153222 0.2440761,0.1498045 0.3299168,0.1635175 0.034707,0.00554 0.1097774,0.024935 0.1668234,0.043089 0.091566,0.029141 0.1161886,0.033066 0.2101293,0.0335 0.058525,2.707e-4 0.1298124,-0.00361 0.1584158,-0.00863 z M 1.7377738,3.2685845 C 1.6271569,3.2368893 1.3333827,3.1400529 1.2817282,3.1182588 1.250045,3.104891 1.2084432,3.0889207 1.1892798,3.082769 1.1411389,3.0673156 1.1291959,3.0496715 1.1107117,2.9666967 1.0855863,2.8539094 1.0452058,2.5653513 1.0484098,2.521488 l 0.0029,-0.03964 0.2544255,-0.068982 c 0.2411376,-0.06538 0.3180351,-0.078653 0.3719451,-0.064205 0.016335,0.00438 0.020252,0.010776 0.016282,0.026595 -0.00432,0.017221 0.0017,0.023888 0.034772,0.038478 0.036734,0.016207 0.3281209,0.2678815 0.4163552,0.3596113 0.032818,0.034118 0.036355,0.041988 0.02744,0.061053 -0.013147,0.028116 -0.3629943,0.4357475 -0.3792698,0.4419135 -0.00675,0.00256 -0.031719,-9.198e-4 -0.055481,-0.00773 z M 3.0872829,2.9230213 C 3.0779046,2.9087081 3.0593347,2.8267666 3.042553,2.7256461 3.0172964,2.5734587 3.0149262,2.5430307 3.0227682,2.4716636 c 0.00566,-0.051511 0.017713,-0.099453 0.033049,-0.1314578 0.013277,-0.027707 0.040167,-0.1216639 0.059756,-0.2087926 0.019589,-0.087129 0.039817,-0.1663424 0.044953,-0.1760304 0.022231,-0.041941 0.1527861,-0.058499 0.2689445,-0.034109 0.077794,0.016334 0.084442,0.025975 0.084704,0.1228185 1.776e-4,0.065604 -0.01106,0.1336377 -0.054817,0.3318756 L 3.4043169,2.6253232 3.3090121,2.7408044 C 3.1970176,2.8765088 3.1302404,2.9474948 3.1145764,2.9474948 c -0.00619,0 -0.018474,-0.011013 -0.027293,-0.024474 z M 1.8375311,1.2374723 C 1.7377801,1.1524054 1.6372929,1.0649166 1.6142264,1.0430528 1.5649746,0.99636902 1.5169517,0.93362788 1.5169517,0.9159648 c 0,-0.009748 0.2199172,-0.28925575 0.2736536,-0.34780484 0.011703,-0.0127508 0.2136546,-0.0683219 0.2495987,-0.0686821 0.025769,-2.5826e-4 0.5622373,0.23687607 0.5821057,0.25730718 0.020651,0.0212365 0.0469,0.26018366 0.046818,0.42619556 -5.76e-5,0.1166995 -0.00101,0.1225894 -0.021663,0.1337698 -0.016799,0.00909 -0.5421779,0.073389 -0.613114,0.075031 -0.0085,1.968e-4 -0.097069,-0.069243 -0.1968196,-0.1543091 z"
       id="path108"
       inkscape:connector-curvature="0" />
    <path
       style="fill:#8f122a;stroke-width:0.00960096"
       d="M 1.7329733,3.772825 C 0.92022255,3.6865114 0.25471929,3.1203015 0.06842397,2.3566271 0.01431688,2.1348276 0.00564146,2.07054 0.00564146,1.8913891 c 0,-0.1791508 0.00867542,-0.2434384 0.06278251,-0.4652379 0.17150767,-0.7030558 0.75684904,-1.24961556 1.48688443,-1.38837136 0.2408795,-0.04578331 0.431282,-0.04578331 0.6721615,0 0.7300354,0.1387558 1.3153768,0.68531556 1.4868845,1.38837136 0.054107,0.2217995 0.062782,0.2860871 0.062782,0.4652379 0,0.1791509 -0.00868,0.2434385 -0.062782,0.465238 C 3.5786322,2.9129881 3.1661808,3.3954545 2.6331804,3.6213336 2.3387512,3.7461092 2.0070417,3.8019309 1.7329733,3.772825 Z M 1.8729862,3.677642 c 0.028604,-0.00502 0.09089,-0.016611 0.138415,-0.025759 0.050744,-0.00977 0.1359421,-0.01699 0.2064206,-0.017499 l 0.120012,-8.679e-4 0.1632163,-0.061039 c 0.246865,-0.092322 0.2749076,-0.1091196 0.4120677,-0.2468273 0.04267,-0.04284 0.1024673,-0.094246 0.1328836,-0.1142348 0.030416,-0.019989 0.064761,-0.051905 0.076321,-0.070924 0.01156,-0.019019 0.06057,-0.075631 0.1089102,-0.1258041 0.04834,-0.050173 0.091195,-0.1020183 0.095232,-0.1152115 0.00404,-0.013193 0.013328,-0.030829 0.020648,-0.039191 0.00732,-0.00836 0.029617,-0.055887 0.04955,-0.1056106 0.019934,-0.049724 0.050233,-0.1107372 0.067333,-0.1355849 0.017099,-0.024848 0.035147,-0.066573 0.040106,-0.092723 0.00496,-0.02615 0.026759,-0.089072 0.048444,-0.1398279 0.039262,-0.091896 0.03942,-0.092756 0.037694,-0.2049072 -9.534e-4,-0.061943 0.00124,-0.1385468 0.00487,-0.1702299 0.00363,-0.031683 0.00213,-0.1353736 -0.00334,-0.2304231 -0.00766,-0.1331435 -0.014429,-0.1844124 -0.029483,-0.2233253 -0.010747,-0.027779 -0.01954,-0.05852 -0.01954,-0.068312 0,-0.00979 -0.00939,-0.029744 -0.020871,-0.044338 C 3.5104038,1.4304094 3.4774341,1.3468109 3.448617,1.2592284 3.4172235,1.1638154 3.3842199,1.082527 3.366278,1.0564259 3.3498086,1.0324669 3.3233724,0.98788715 3.3075308,0.95735973 3.2888229,0.92130882 3.2711267,0.89991183 3.2570404,0.89631009 3.24374,0.89290931 3.1891687,0.83136271 3.1159289,0.73716161 L 2.9965049,0.58355841 2.753578,0.43994092 C 2.6199682,0.3609513 2.4882538,0.28350203 2.4608793,0.26783142 2.415152,0.24165463 2.3859934,0.23581774 2.1020425,0.19600039 1.9320567,0.17216393 1.7729959,0.15395613 1.7485739,0.15553861 c -0.037677,0.002441 -0.044868,0.006147 -0.047469,0.0244636 -0.00359,0.0252617 0.016743,0.0199401 -0.2642887,0.0691772 -0.1625628,0.0284812 -0.2284304,0.044033 -0.2544255,0.0600716 C 0.94114956,0.4580937 0.65118326,0.64705109 0.62671862,0.67135613 0.59608153,0.70179336 0.47959633,0.8491809 0.39093009,0.96969698 0.36567759,1.0040204 0.34267079,1.0429043 0.33980389,1.0561056 0.33315389,1.0867246 0.26537829,1.2463901 0.2297656,1.3153315 0.1874072,1.3973315 0.1632265,1.4698628 0.1632212,1.514934 0.16321854,1.537587 0.1545752,1.573058 0.1440144,1.593759 0.1261917,1.628694 0.1248125,1.650345 0.1248125,1.8951817 c 0,0.1721197 0.003735,0.2731759 0.0107475,0.2908116 0.005911,0.014865 0.0140875,0.061591 0.0181696,0.1038353 0.005456,0.056458 0.0162627,0.095885 0.0407903,0.1488149 0.0183525,0.039604 0.0453295,0.1087309 0.0599488,0.1536153 0.0146193,0.044885 0.0329121,0.094127 0.0406507,0.1094279 0.0284595,0.056271 0.12416886,0.1763733 0.21570632,0.2706824 0.0517191,0.053285 0.0941384,0.1051302 0.094265,0.1152115 1.3585e-4,0.010814 0.0276918,0.041108 0.0672067,0.073883 0.0368371,0.030555 0.0669764,0.061512 0.0669764,0.068795 0,0.022353 0.11265246,0.1129651 0.26842698,0.2159098 0.1745041,0.1153222 0.2440761,0.1498045 0.3299168,0.1635175 0.034707,0.00554 0.1097774,0.024935 0.1668234,0.043089 0.091566,0.029141 0.1161886,0.033066 0.2101293,0.0335 0.058525,2.707e-4 0.1298124,-0.00361 0.1584158,-0.00863 z M 3.0914039,2.839484 C 3.068437,2.8018156 3.0680278,2.7946607 3.0872691,2.76719 3.0954981,2.7554414 3.1520753,2.6086656 3.2129962,2.4410213 3.3231176,2.1379852 3.3237912,2.1356126 3.3288888,2.0328027 c 0.00282,-0.056876 0.00909,-0.1058627 0.013943,-0.1088592 0.013691,-0.00846 0.1065964,0.016067 0.1267827,0.033473 0.016612,0.014324 0.0176,0.026091 0.012256,0.1459316 -0.00622,0.1395084 -0.011896,0.1766051 -0.051762,0.3383861 -0.020889,0.08477 -0.031356,0.1100006 -0.056849,0.1370306 -0.017184,0.018222 -0.064564,0.081637 -0.1052882,0.140924 C 3.1601301,2.8766863 3.12756,2.8987842 3.0914039,2.839484 Z M 1.6064582,1.0153015 c -0.084218,-0.0878092 -0.087417,-0.096418 -0.051908,-0.13967864 0.016044,-0.0195464 0.045471,-0.0519989 0.065393,-0.0721168 0.051791,-0.0522993 0.355286,-0.26721329 0.3982574,-0.28201815 0.035793,-0.0123317 0.038592,-0.0113267 0.3115295,0.11185591 0.1514767,0.0683647 0.2806634,0.12988725 0.2870817,0.1367169 0.014884,0.0158383 0.04444,0.27804418 0.032694,0.29005208 -0.00517,0.00529 -0.027759,-0.0091 -0.056522,-0.036004 -0.026349,-0.0246463 -0.055653,-0.0451267 -0.06512,-0.0455121 -0.00947,-3.8596e-4 -0.040975,-0.004072 -0.070018,-0.008192 -0.065958,-0.009358 -0.6148036,0.0567989 -0.7119615,0.0858181 -0.035143,0.010497 -0.067942,0.019085 -0.072886,0.019085 -0.00494,0 -0.034887,-0.027003 -0.06654,-0.060006 z"
       id="path106"
       inkscape:connector-curvature="0" />
    <path
       style="fill:#132e70;stroke-width:0.00960096"
       d="M 3.0914039,2.839484 C 3.068437,2.8018156 3.0680278,2.7946607 3.0872691,2.76719 3.0954981,2.7554414 3.1520753,2.6086656 3.2129962,2.4410213 3.3231176,2.1379852 3.3237912,2.1356126 3.3288888,2.0328027 c 0.00282,-0.056876 0.00909,-0.1058627 0.013943,-0.1088592 0.013691,-0.00846 0.1065964,0.016067 0.1267827,0.033473 0.016612,0.014324 0.0176,0.026091 0.012256,0.1459316 -0.00622,0.1395084 -0.011896,0.1766051 -0.051762,0.3383861 -0.020889,0.08477 -0.031356,0.1100006 -0.056849,0.1370306 -0.017184,0.018222 -0.064564,0.081637 -0.1052882,0.140924 C 3.1601301,2.8766863 3.12756,2.8987842 3.0914039,2.839484 Z M 1.6064582,1.0153015 c -0.084218,-0.0878092 -0.087417,-0.096418 -0.051908,-0.13967864 0.016044,-0.0195464 0.045471,-0.0519989 0.065393,-0.0721168 0.051791,-0.0522993 0.355286,-0.26721329 0.3982574,-0.28201815 0.035793,-0.0123317 0.038592,-0.0113267 0.3115295,0.11185591 0.1514767,0.0683647 0.2806634,0.12988725 0.2870817,0.1367169 0.014884,0.0158383 0.04444,0.27804418 0.032694,0.29005208 -0.00517,0.00529 -0.027759,-0.0091 -0.056522,-0.036004 -0.026349,-0.0246463 -0.055653,-0.0451267 -0.06512,-0.0455121 -0.00947,-3.8596e-4 -0.040975,-0.004072 -0.070018,-0.008192 -0.065958,-0.009358 -0.6148036,0.0567989 -0.7119615,0.0858181 -0.035143,0.010497 -0.067942,0.019085 -0.072886,0.019085 -0.00494,0 -0.034887,-0.027003 -0.06654,-0.060006 z"
       id="path104"
       inkscape:connector-curvature="0" />
  </g>
</svg>
