<?xml version="1.0" encoding="UTF-8" standalone="no"?>
<!-- Created with Inkscape (http://www.inkscape.org/) -->

<svg
   xmlns:dc="http://purl.org/dc/elements/1.1/"
   xmlns:cc="http://creativecommons.org/ns#"
   xmlns:rdf="http://www.w3.org/1999/02/22-rdf-syntax-ns#"
   xmlns:svg="http://www.w3.org/2000/svg"
   xmlns="http://www.w3.org/2000/svg"
   xmlns:sodipodi="http://sodipodi.sourceforge.net/DTD/sodipodi-0.dtd"
   xmlns:inkscape="http://www.inkscape.org/namespaces/inkscape"
   version="1.1"
   id="svg122"
   width="113.38583"
   height="113.38583"
   viewBox="0 0 113.38583 113.38583"
   sodipodi:docname="1_1.svg"
   inkscape:version="0.92.4 (5da689c313, 2019-01-14)">
  <metadata
     id="metadata128">
    <rdf:RDF>
      <cc:Work
         rdf:about="">
        <dc:format>image/svg+xml</dc:format>
        <dc:type
           rdf:resource="http://purl.org/dc/dcmitype/StillImage" />
        <dc:title />
      </cc:Work>
    </rdf:RDF>
  </metadata>
  <defs
     id="defs126" />
  <sodipodi:namedview
     pagecolor="#ffffff"
     bordercolor="#666666"
     borderopacity="1"
     objecttolerance="10"
     gridtolerance="10"
     guidetolerance="10"
     inkscape:pageopacity="0"
     inkscape:pageshadow="2"
     inkscape:window-width="1366"
     inkscape:window-height="715"
     id="namedview124"
     showgrid="false"
     inkscape:zoom="1.9496252"
     inkscape:cx="51.644541"
     inkscape:cy="36.125425"
     inkscape:window-x="-8"
     inkscape:window-y="-8"
     inkscape:window-maximized="1"
     inkscape:current-layer="svg122" />
  <g
     id="g132"
     transform="scale(29.974219)">
    <path
       style="fill:#f9c444;stroke-width:0.00960096"
       d="M 1.689769,3.7721913 C 1.4003112,3.7396476 1.0901211,3.6275532 0.84877953,3.4682804 0.32431499,3.1221612 0,2.5196379 0,1.8913891 0,1.2631404 0.32431499,0.66061708 0.84877953,0.31449789 1.4086127,-0.05496276 2.1242227,-0.10026854 2.7237131,0.19579451 3.6626274,0.65948476 4.0488775,1.7907717 3.5868087,2.7237131 3.3953272,3.1103243 3.1103243,3.3953272 2.7237131,3.5868087 2.4082487,3.7430524 2.0314657,3.8106083 1.689769,3.7721913 Z M 0.76135288,1.712456 C 0.79440418,1.69555 0.86440411,1.643719 0.87594059,1.627611 c 0.00388,-0.00542 0.00712,-0.040572 0.007201,-0.078123 1.4565e-4,-0.067623 -2.6124e-4,-0.068712 -0.0426474,-0.1142281 l -0.0427944,-0.045954 -0.0687825,0.00639 c -0.0798719,0.00742 -0.0796158,0.00731 -0.13849872,0.062585 -0.0337372,0.031672 -0.0436246,0.047177 -0.0397955,0.062406 0.0348211,0.1384924 0.0393496,0.147275 0.0926609,0.1797043 0.050753,0.030873 0.0762095,0.033474 0.11806922,0.012062 z M 0.63919711,1.6319539 c -0.0357465,-0.038216 -0.0437414,-0.05265 -0.0385535,-0.069607 0.0115907,-0.037884 0.0735248,-0.1428138 0.0874486,-0.1481569 0.00742,-0.00285 0.042494,0.00939 0.0779413,0.02719 0.056714,0.028482 0.0661051,0.037156 0.0782424,0.072264 0.0110383,0.031929 0.0115677,0.047323 0.002651,0.077085 -0.009466,0.031594 -0.0191555,0.041118 -0.0644105,0.063314 -0.0749819,0.036774 -0.0904959,0.034383 -0.1433193,-0.022089 z"
       id="path146"
       inkscape:connector-curvature="0" />
    <path
       style="fill:#f7ae43;stroke-width:0.00960096"
       d="M 1.689769,3.7721913 C 1.4003112,3.7396476 1.0901211,3.6275532 0.84877953,3.4682804 0.32431499,3.1221612 0,2.5196379 0,1.8913891 0,1.2631404 0.32431499,0.66061708 0.84877953,0.31449789 1.4086127,-0.05496276 2.1242227,-0.10026854 2.7237131,0.19579451 3.6626274,0.65948476 4.0488775,1.7907717 3.5868087,2.7237131 3.3953272,3.1103243 3.1103243,3.3953272 2.7237131,3.5868087 2.4082487,3.7430524 2.0314657,3.8106083 1.689769,3.7721913 Z M 1.768977,2.7945406 c 0.014522,-0.020533 0.026403,-0.041243 0.026403,-0.046021 0,-0.01195 -0.066409,-0.042675 -0.077467,-0.03584 -0.00996,0.00616 -0.012189,0.080769 -0.00311,0.1044177 0.00934,0.024336 0.025888,0.017446 0.054178,-0.022556 z m 0.2182275,-0.073711 c 0.021229,-0.00849 0.038598,-0.019467 0.038598,-0.024385 0,-0.025451 -0.040939,-0.085254 -0.061977,-0.090534 -0.031491,-0.0079 -0.039933,-0.00111 -0.068364,0.054993 -0.019189,0.037868 -0.021961,0.050982 -0.013043,0.061727 0.014947,0.01801 0.057084,0.017286 0.1047867,-0.0018 z M 1.4977498,2.6540988 c 0,-0.035631 -0.00303,-0.042638 -0.018417,-0.042638 -0.036448,0 -0.04879,0.010987 -0.04879,0.043431 0,0.026057 0.00475,0.033415 0.026403,0.040881 0.036054,0.012434 0.040804,0.00758 0.040804,-0.041675 z m 0.146957,0.030765 c 0.036701,-0.015335 0.046126,-0.039696 0.02394,-0.061881 -0.015524,-0.015524 -0.1031635,-0.015135 -0.1080441,4.801e-4 -0.00206,0.0066 -0.00656,0.028819 -0.00999,0.049373 l -0.00624,0.037372 0.032437,-0.00526 c 0.017841,-0.0029 0.048395,-0.011931 0.067899,-0.020081 z m 0.1890766,-0.016715 c 0,-0.00579 0.00932,-0.023614 0.02072,-0.039618 l 0.02072,-0.029099 -0.02312,-0.017774 c -0.012716,-0.00978 -0.035216,-0.017871 -0.05,-0.017988 -0.025779,-2.045e-4 -0.083532,0.023488 -0.083532,0.034268 0,0.017589 0.024725,0.044775 0.055502,0.061027 0.040682,0.021482 0.059709,0.024409 0.059709,0.00918 z m 0.231879,-0.1118932 c 0.015858,-0.018987 0.035196,-0.06075 0.047562,-0.1027194 0.00977,-0.03315 -6.596e-4,-0.043327 -0.044618,-0.043548 -0.025922,-1.306e-4 -0.032125,0.00581 -0.055206,0.052871 -0.014301,0.02916 -0.026002,0.060699 -0.026002,0.070087 0,0.038923 0.05223,0.054479 0.078264,0.023309 z M 1.6399848,2.4866487 C 1.6275026,2.417346 1.611608,2.3858386 1.5891289,2.3858386 c -0.021605,0 -0.050405,0.04547 -0.054732,0.086409 -0.00277,0.026257 0.00158,0.031143 0.049216,0.055271 0.028743,0.014558 0.055325,0.023198 0.059071,0.019202 0.00375,-0.004 0.00253,-0.031029 -0.0027,-0.060072 z m 0.636228,0.057606 c 0.00485,0 0.00882,-0.012609 0.00882,-0.02802 0,-0.021457 -0.00757,-0.032701 -0.032336,-0.048005 -0.042042,-0.025983 -0.063673,-0.025742 -0.063673,7.105e-4 0,0.029122 0.046442,0.087569 0.064175,0.080764 0.00781,-0.003 0.01817,-0.00545 0.023018,-0.00545 z m -0.3520056,-0.00583 c 0.024525,-0.00941 0.017651,-0.034044 -0.020365,-0.072976 -0.058017,-0.059414 -0.092143,-0.039757 -0.055155,0.03177 0.012277,0.023741 0.024802,0.033644 0.058718,0.046424 8.881e-4,3.351e-4 0.00845,-0.00201 0.016802,-0.00522 z M 1.4586296,2.5019922 c -0.014091,-0.023883 -0.030653,-0.03702 -0.055304,-0.043867 -0.057918,-0.016087 -0.067307,-0.01316 -0.074109,0.023099 -0.0034,0.018139 -0.004,0.036501 -0.00134,0.040804 0.00267,0.0043 0.037704,0.00923 0.077858,0.01094 l 0.073007,0.00312 z m 0.300221,-0.00274 c 0.01481,-0.014189 0.026928,-0.031535 0.026928,-0.038545 0,-0.016674 -0.056377,-0.050786 -0.084008,-0.050832 -0.024738,-3.84e-5 -0.026377,0.010901 -0.010861,0.07252 0.012642,0.050206 0.028918,0.054244 0.067941,0.016857 z M 0.72589209,2.480484 C 0.83034627,2.4027466 0.91128354,2.3127101 0.95337862,2.2274228 L 0.9936578,2.1458146 0.99052021,1.92493 C 0.98787783,1.7389134 0.98986158,1.6972353 1.0030871,1.6609036 1.0521921,1.5260082 1.0593004,1.4694912 1.037669,1.3859519 1.0157946,1.3014745 0.95894637,1.1890213 0.92451619,1.1621211 0.8745538,1.1230858 0.78526239,1.0754223 0.77423913,1.0819038 0.68563241,1.134003 0.50895874,1.3567149 0.42405858,1.5233358 0.37265595,1.6242159 0.26442603,1.9765973 0.28004673,1.992218 c 0.003167,0.00317 0.0411699,-0.00328 0.0844507,-0.014334 0.0860828,-0.021979 0.11114712,-0.019485 0.12115788,0.012056 0.009122,0.02874 -0.0471862,0.076197 -0.11614285,0.097887 -0.0317836,0.01 -0.0526807,0.022055 -0.0526807,0.030397 0,0.040076 0.19191295,0.3658375 0.22784816,0.3867593 0.009337,0.00544 0.0433577,0.010015 0.0756017,0.010176 0.0526591,2.621e-4 0.063407,-0.00327 0.10561047,-0.034675 z M 0.64806481,1.7478554 C 0.52226509,1.6860395 0.48568839,1.6078403 0.51959361,1.4731905 c 0.00724,-0.028753 0.0212117,-0.051269 0.0428513,-0.069058 0.10144311,-0.083391 0.13578341,-0.095358 0.214244,-0.07466 0.0602589,0.015896 0.0956509,0.046515 0.135614,0.1173261 0.0327911,0.058103 0.0350378,0.094726 0.0110212,0.1796613 -0.0154197,0.054532 -0.0189026,0.058666 -0.0909902,0.1080108 -0.0412262,0.02822 -0.0822703,0.051268 -0.0912091,0.051218 -0.008939,-4.99e-5 -0.0508158,-0.017075 -0.09306,-0.037833 z M 0.76135288,1.712456 C 0.79440418,1.69555 0.86440411,1.643719 0.87594059,1.627611 c 0.00388,-0.00542 0.00712,-0.040572 0.007201,-0.078123 1.4565e-4,-0.067623 -2.6124e-4,-0.068712 -0.0426474,-0.1142281 l -0.0427944,-0.045954 -0.0687825,0.00639 c -0.0798719,0.00742 -0.0796158,0.00731 -0.13849872,0.062585 -0.0337372,0.031672 -0.0436246,0.047177 -0.0397955,0.062406 0.0348211,0.1384924 0.0393496,0.147275 0.0926609,0.1797043 0.050753,0.030873 0.0762095,0.033474 0.11806922,0.012062 z M 0.63919711,1.6319539 c -0.0357465,-0.038216 -0.0437414,-0.05265 -0.0385535,-0.069607 0.0115907,-0.037884 0.0735248,-0.1428138 0.0874486,-0.1481569 0.00742,-0.00285 0.042494,0.00939 0.0779413,0.02719 0.056714,0.028482 0.0661051,0.037156 0.0782424,0.072264 0.0110383,0.031929 0.0115677,0.047323 0.002651,0.077085 -0.009466,0.031594 -0.0191555,0.041118 -0.0644105,0.063314 -0.0749819,0.036774 -0.0904959,0.034383 -0.1433193,-0.022089 z m 1.65238949,0.748416 c 0.014856,-0.00565 0.034419,-0.016974 0.043473,-0.025168 0.014898,-0.013482 0.015104,-0.017527 0.00217,-0.042536 -0.021866,-0.042285 -0.057778,-0.037448 -0.1089294,0.014672 -0.022838,0.02327 -0.038604,0.047032 -0.035036,0.052805 0.00829,0.013414 0.063304,0.013541 0.098321,2.276e-4 z M 1.8223342,2.3161488 c 0.00162,-0.022397 3.291e-4,-0.040721 -0.00288,-0.040721 -0.0159,0 -0.06309,0.031202 -0.071798,0.047473 -0.013896,0.025964 -0.013073,0.027565 0.016517,0.032152 0.049618,0.00769 0.055043,0.00406 0.058158,-0.038904 z M 1.364275,2.2964035 c 0.015325,-0.024165 0.027864,-0.04766 0.027864,-0.052211 0,-0.00455 -0.017489,-0.00694 -0.038864,-0.00532 -0.031429,0.00239 -0.042463,0.00866 -0.057674,0.032774 -0.01876,0.029742 -0.018756,0.02989 0.00123,0.055297 0.023823,0.030287 0.030903,0.027081 0.067445,-0.030539 z m 0.7890401,0.025668 c 0.00941,-0.016523 0.015474,-0.03167 0.013485,-0.033659 -0.00606,-0.00606 -0.092993,0.035328 -0.092993,0.04427 0,0.010205 0.017519,0.017801 0.043204,0.018734 0.011899,4.32e-4 0.025706,-0.010728 0.036304,-0.029345 z M 1.6912438,2.3026329 c 0.020311,-0.022001 0.036929,-0.043309 0.036929,-0.047351 0,-0.011305 -0.053863,-0.047061 -0.070894,-0.047061 -0.016844,0 -0.053919,0.065427 -0.053919,0.09515 0,0.017775 0.022265,0.038298 0.042279,0.038971 0.00477,1.603e-4 0.025294,-0.017709 0.045605,-0.039709 z M 1.5776171,2.2389473 c 0.012447,-0.013753 0.044945,-0.088732 0.044945,-0.1036942 0,-0.01112 -0.062691,-0.032643 -0.095082,-0.032643 -0.036229,0 -0.039002,0.00206 -0.048428,0.036004 -0.016695,0.060115 -0.012912,0.077779 0.021097,0.098515 0.038681,0.023584 0.057372,0.024023 0.077467,0.00182 z m 0.2545097,-0.053509 c 0.00748,-0.065272 -0.089433,-0.1086447 -0.1436945,-0.064307 -0.02728,0.022291 -0.023204,0.027449 0.053435,0.067621 0.066783,0.035007 0.085946,0.034303 0.090259,-0.00331 z m 0.5629814,-0.013221 c 0.018402,-0.025082 0.033566,-0.051365 0.033697,-0.058406 4.311e-4,-0.023207 -0.023451,-0.00599 -0.041134,0.029659 -0.00955,0.019258 -0.025755,0.037675 -0.036004,0.040928 -0.010249,0.00325 -0.018634,0.012104 -0.018634,0.019669 0,0.027708 0.029474,0.012586 0.062075,-0.03185 z M 1.4150599,2.1371056 c 0.00319,-0.012711 0.00832,-0.029671 0.011395,-0.037689 0.00348,-0.00907 -0.00354,-0.020565 -0.018598,-0.03043 -0.023095,-0.015132 -0.026177,-0.014688 -0.06796,0.0098 -0.042357,0.024823 -0.056454,0.04986 -0.031767,0.05642 0.0066,0.00175 0.024962,0.00764 0.040804,0.013079 0.04641,0.015936 0.059892,0.013657 0.066125,-0.011178 z m 0.2635302,-0.077204 c -0.00958,-0.00817 -0.07523,-0.014454 -0.07523,-0.0072 0,0.015679 0.042062,0.028908 0.060828,0.01913 0.00969,-0.00505 0.016174,-0.010419 0.014401,-0.011931 z m 0.8159354,-0.057321 c 0.00306,-0.037374 0.00293,-0.037526 -0.019202,-0.022913 -0.012253,0.00809 -0.023678,0.026444 -0.02539,0.040785 -0.00268,0.022477 -2.88e-5,0.025638 0.019202,0.022913 0.018361,-0.0026 0.022858,-0.00982 0.02539,-0.040785 z M 1.5480038,1.989799 c 0.0023,-0.025083 0.00122,-0.049068 -0.00241,-0.0533 -0.00363,-0.00423 -0.034235,-0.00639 -0.068022,-0.0048 l -0.061431,0.0029 v 0.033164 c 0,0.031823 0.00214,0.033824 0.052805,0.049464 0.074973,0.023142 0.074401,0.02334 0.079057,-0.027423 z M 1.680168,1.929793 c -0.018922,-0.012229 -0.057606,-0.012229 -0.057606,0 0,0.00528 0.016202,0.00953 0.036004,0.00945 0.026781,-1.095e-4 0.032314,-0.00253 0.021602,-0.00945 z m 0.091209,0 c 0.00326,-0.00528 -8.016e-4,-0.0096 -0.00903,-0.0096 -0.00823,0 -0.014968,0.00432 -0.014968,0.0096 0,0.00528 0.00407,0.0096 0.00903,0.0096 0.00497,0 0.011705,-0.00432 0.014968,-0.0096 z M 1.4573986,1.858133 c 0.010237,-0.010237 -0.01,-0.054246 -0.031386,-0.06826 -0.029189,-0.019125 -0.043474,-0.011078 -0.043474,0.02449 0,0.048469 0.00913,0.060319 0.041486,0.053848 0.016017,-0.0032 0.031035,-0.00774 0.033374,-0.010078 z M 1.6033602,1.844448 c 0,-0.015257 -0.00819,-0.037852 -0.018197,-0.050212 -0.036309,-0.04484 -0.096015,0.00707 -0.074029,0.06436 0.00344,0.00895 0.02006,0.01359 0.048721,0.01359 0.041568,0 0.043506,-0.00124 0.043506,-0.027739 z M 1.7564708,1.816982 c 0.013856,-0.049893 0.012698,-0.060006 -0.00687,-0.060006 -0.031407,0 -0.088637,0.046717 -0.088637,0.072353 0,0.021599 0.00372,0.023656 0.042753,0.023656 0.041225,0 0.04311,-0.00129 0.052752,-0.036004 z m 0.3389387,-0.00227 c 0.00993,-1.805e-4 0.00911,-0.036224 -9.673e-4,-0.04245 -0.00449,-0.00278 -0.022016,0.00517 -0.038942,0.017656 -0.031725,0.023406 -0.02522,0.037402 0.013506,0.029061 0.010561,-0.00227 0.022442,-0.00419 0.026403,-0.00427 z m 0.3271724,-0.0285 c 0.00437,-0.00422 -0.00516,-0.017003 -0.021175,-0.028405 L 2.3722919,1.737075 2.3574629,1.765751 c -0.00816,0.015772 -0.014829,0.031531 -0.014829,0.035021 0,0.00819 0.069505,-0.00447 0.079948,-0.01456 z M 1.6790871,1.727852 c 0.042302,-0.030644 0.066197,-0.072817 0.050277,-0.088737 -0.00502,-0.00502 -0.02786,-0.011162 -0.050762,-0.013654 -0.041463,-0.00451 -0.04171,-0.00435 -0.058441,0.03719 -0.037339,0.092718 -0.014282,0.1182311 0.058925,0.065201 z m 0.3549201,0.00514 c 0.010917,-0.01034 0.010147,-0.021349 -0.0048,-0.068577 -0.015792,-0.049897 -0.020945,-0.056617 -0.045567,-0.059428 -0.034823,-0.00398 -0.043912,0.010035 -0.044099,0.067976 -2.371e-4,0.073541 0.047902,0.1041313 0.094466,0.060029 z M 2.495406,1.7147879 c 0.00611,-0.00736 0.013771,-0.035867 0.017025,-0.063345 0.00596,-0.050337 -0.00208,-0.066757 -0.032863,-0.067138 -0.015326,-1.891e-4 -0.060126,0.070585 -0.060126,0.094986 0,0.039705 0.05222,0.064106 0.075964,0.035497 z M 1.3837341,1.6873687 c 0.052594,-0.056753 0.052698,-0.061494 0.00206,-0.093607 -0.065621,-0.041616 -0.070464,-0.039361 -0.070464,0.032816 0,0.101054 0.017049,0.1162061 0.068403,0.060791 z m 0.1416184,0.025203 c 0.040429,-0.00809 0.040298,-0.036537 -2.323e-4,-0.050666 -0.044952,-0.01567 -0.054242,-0.013321 -0.070328,0.017786 -0.00806,0.015579 -0.014648,0.030701 -0.014648,0.033603 0,0.0071 0.048146,0.00669 0.085208,-7.23e-4 z m 0.3564357,-0.041502 c 0,-0.015567 -0.049983,-0.048507 -0.073603,-0.048507 -0.030604,0 -0.036336,0.01906 -0.01854,0.061652 l 0.014662,0.035091 0.03874,-0.019764 c 0.021307,-0.01087 0.03874,-0.023683 0.03874,-0.028473 z m 0.4271388,0.027326 c 0.062319,-0.015692 0.066082,-0.052411 0.00919,-0.089688 -0.034914,-0.022876 -0.067529,-0.013166 -0.074604,0.022212 -0.00306,0.015294 -0.0084,0.039112 -0.011867,0.05293 -0.00535,0.021303 -0.00314,0.025122 0.014486,0.025122 0.011436,0 0.039693,-0.00476 0.062794,-0.010576 z M 2.1784324,1.6777678 c 0.00448,-0.011881 0.011253,-0.035912 0.015057,-0.053401 l 0.00692,-0.031799 -0.041698,0.003 c -0.037941,0.00273 -0.041982,0.00548 -0.044848,0.030559 -0.00549,0.048017 0.00566,0.073247 0.032373,0.073247 0.016136,0 0.026737,-0.00711 0.032197,-0.021602 z M 2.4008712,1.5742197 c 0.01475,-0.00789 0.01854,-0.020239 0.018424,-0.060006 -1.873e-4,-0.063863 -0.00704,-0.073712 -0.053275,-0.07655 l -0.037788,-0.00232 -0.00284,0.048554 c -0.00221,0.037813 0.00166,0.054273 0.017498,0.074407 0.022378,0.028449 0.030428,0.030659 0.057978,0.015915 z M 1.7569221,1.5529553 c -1.248e-4,-0.050322 -0.019564,-0.093348 -0.045067,-0.099749 -0.036265,-0.0091 -0.055998,0.0076 -0.054028,0.045725 0.00195,0.037803 0.039805,0.075626 0.075682,0.075626 0.017951,0 0.023454,-0.00508 0.023413,-0.021602 z M 1.4683329,1.5015439 c 0.013224,-0.059092 0.010085,-0.065975 -0.034355,-0.075325 -0.026028,-0.00548 -0.032945,-0.00245 -0.050405,0.022073 -0.02922,0.041036 -0.025521,0.060811 0.015793,0.084421 0.019788,0.011308 0.040691,0.021029 0.046451,0.021602 0.00576,5.732e-4 0.015893,-0.023174 0.022516,-0.052771 z m 0.4649736,0.00772 c -0.00151,-0.048312 -0.00132,-0.048039 -0.037942,-0.055364 -0.025989,-0.0052 -0.029931,-0.00214 -0.049705,0.038561 -0.011812,0.024313 -0.021477,0.048627 -0.021477,0.054029 0,0.00589 0.022094,0.00867 0.055206,0.00694 l 0.055206,-0.00288 z m 0.3306216,-0.028316 c 0.00271,-0.047059 0.00143,-0.050403 -0.019202,-0.050369 -0.027258,4.8e-5 -0.08451,0.033827 -0.08451,0.049867 0,0.020107 0.051316,0.055658 0.076808,0.053211 0.021837,-0.0021 0.024264,-0.00685 0.026904,-0.052709 z M 1.8371622,1.3944396 c 0.00479,-0.00775 -0.01464,-0.092384 -0.022581,-0.098346 -0.018612,-0.013975 -0.074075,0.064301 -0.064057,0.090406 0.011886,0.030973 0.069158,0.036223 0.086638,0.00794 z m -0.1645997,-0.01865 c 0.020025,-0.019554 0.036408,-0.038573 0.036408,-0.042265 0,-0.00817 -0.054199,-0.027794 -0.076782,-0.027794 -0.00973,0 -0.023261,0.015413 -0.033529,0.038183 -0.014037,0.031127 -0.014976,0.040885 -0.00508,0.052805 0.019036,0.022937 0.039658,0.017473 0.078986,-0.02093 z m 0.3319019,0.020606 c 0.028478,-0.019946 0.028963,-0.066707 8.477e-4,-0.081753 -0.01127,-0.00603 -0.045773,-0.013259 -0.076675,-0.016061 l -0.056185,-0.00509 0.015211,0.044641 c 0.023152,0.067947 0.069776,0.091206 0.1168015,0.058268 z m 0.1967433,-0.022194 0.02659,-0.00606 -0.024536,-0.036004 c -0.019924,-0.029236 -0.030336,-0.035946 -0.055393,-0.035698 -0.040138,3.975e-4 -0.062943,0.018509 -0.070428,0.055934 l -0.00603,0.030169 0.051605,-0.00114 c 0.028383,-6.251e-4 0.063571,-0.00387 0.078195,-0.0072 z M 2.0773637,1.2531165 c 0.016673,-0.012627 0.017016,-0.017327 0.0048,-0.065716 -0.012161,-0.048168 -0.014794,-0.051502 -0.034759,-0.04401 -0.018711,0.00702 -0.021602,0.015 -0.021602,0.05962 0,0.067243 0.012671,0.079557 0.051561,0.050105 z M 1.6081608,1.1866335 c 0,-0.072156 -0.014735,-0.084347 -0.071182,-0.058893 -0.053608,0.024174 -0.053275,0.052483 0.00108,0.091858 0.057698,0.041796 0.070102,0.035964 0.070102,-0.032965 z m 0.1290096,0.048493 c 0.028711,-0.0067 0.053735,-0.016783 0.055608,-0.022403 0.00187,-0.00562 -0.010335,-0.021782 -0.02713,-0.035914 -0.023154,-0.019483 -0.038919,-0.024994 -0.065209,-0.022795 -0.031611,0.00264 -0.034944,0.00574 -0.037749,0.035018 -0.00333,0.034791 0.00285,0.059332 0.014777,0.058685 0.00413,-2.237e-4 0.030993,-0.00589 0.059703,-0.012591 z M 1.9585959,1.172014 c 0,-0.039826 -0.00405,-0.050496 -0.025626,-0.067466 -0.014094,-0.011087 -0.030296,-0.01863 -0.036004,-0.016764 -0.00997,0.00326 -0.024846,0.04054 -0.03785,0.094864 -0.00668,0.02792 0.00236,0.032604 0.068277,0.035366 0.031159,0.00131 0.031203,0.00124 0.031203,-0.046 z M 1.6945695,1.0415726 c 0,-0.024182 -0.00376,-0.028671 -0.024002,-0.028671 -0.017994,0 -0.024814,0.00574 -0.027243,0.022917 -0.00345,0.024418 0.013171,0.041088 0.036844,0.036946 0.00902,-0.00158 0.014401,-0.013226 0.014401,-0.031191 z"
       id="path144"
       inkscape:connector-curvature="0" />
    <path
       style="fill:#fc9c38;stroke-width:0.00960096"
       d="M 1.689769,3.7721913 C 1.4003112,3.7396476 1.0901211,3.6275532 0.84877953,3.4682804 0.32431499,3.1221612 0,2.5196379 0,1.8913891 0,1.2631404 0.32431499,0.66061708 0.84877953,0.31449789 1.4086127,-0.05496276 2.1242227,-0.10026854 2.7237131,0.19579451 3.6626274,0.65948476 4.0488775,1.7907717 3.5868087,2.7237131 3.3953272,3.1103243 3.1103243,3.3953272 2.7237131,3.5868087 2.4082487,3.7430524 2.0314657,3.8106083 1.689769,3.7721913 Z M 1.3873387,2.9625065 c 0,-0.03478 -0.00255,-0.038455 -0.03203,-0.046094 -0.041252,-0.010689 -0.062842,0.00515 -0.05447,0.03997 0.00767,0.031906 0.032223,0.050262 0.062489,0.046724 0.021072,-0.00246 0.024011,-0.00743 0.024011,-0.040601 z m 0.1237853,0.027407 c 0.018099,-0.047165 -0.00513,-0.095948 -0.039777,-0.083526 -0.012524,0.00449 -0.017151,0.080761 -0.0056,0.092312 0.011868,0.011868 0.039505,0.00652 0.045377,-0.00879 z m 0.1698133,-0.00127 c 0.00397,-0.00415 0.00867,-0.01619 0.01043,-0.026751 0.00256,-0.015352 -0.00285,-0.01979 -0.026968,-0.022133 -0.024159,-0.00235 -0.034147,0.00265 -0.050121,0.025086 -0.010973,0.01541 -0.016838,0.03115 -0.013033,0.034979 0.00819,0.00825 0.069302,-3.255e-4 0.079694,-0.01118 z M 1.9009901,2.8464788 c 0,-0.026857 -0.005,-0.036086 -0.024303,-0.044882 -0.022006,-0.010027 -0.02696,-0.00797 -0.052415,0.021808 -0.035007,0.040945 -0.035211,0.04505 -0.00249,0.050007 0.073835,0.011185 0.079208,0.00936 0.079208,-0.026933 z m 0.150758,0.00312 c 0.033481,-0.032451 0.041444,-0.069115 0.017044,-0.078479 -0.021397,-0.00821 -0.090994,0.05778 -0.090994,0.08628 0,0.033467 0.035203,0.029754 0.07395,-0.0078 z M 1.0791994,2.8214006 c 0.00349,-0.021827 0.00413,-0.041905 0.00142,-0.044617 -0.00567,-0.00567 -0.072514,0.064919 -0.072514,0.076577 0,0.00425 0.014569,0.00772 0.032376,0.00772 0.030523,0 0.03274,-0.00227 0.038722,-0.039686 z m 0.56335,0.030085 c 0.021286,0 0.00569,-0.020408 -0.029206,-0.038209 -0.04853,-0.024758 -0.07719,-0.025267 -0.07719,-0.00137 0,0.00991 0.0054,0.022462 0.012001,0.027883 0.014157,0.011627 0.054635,0.020051 0.072793,0.015149 0.00703,-0.0019 0.016753,-0.00345 0.021602,-0.00345 z M 1.2549905,2.8004429 c 0.010519,-0.035234 0.010019,-0.041641 -0.00407,-0.052168 -0.030385,-0.0227 -0.049967,-0.011887 -0.068964,0.03808 -0.00868,0.022837 -0.00655,0.02743 0.020795,0.044742 0.016759,0.010611 0.032671,0.017092 0.03536,0.014403 0.00269,-0.00269 0.010286,-0.022965 0.016882,-0.045057 z m 0.523539,-0.00249 c 0.019775,-0.026005 0.035977,-0.050434 0.036004,-0.054287 6.29e-5,-0.0091 -0.071858,-0.0458 -0.089751,-0.0458 -0.017592,0 -0.025412,0.020784 -0.025412,0.06754 0,0.04301 0.017809,0.088105 0.032857,0.0832 0.00569,-0.00185 0.026527,-0.024649 0.046302,-0.050653 z m -0.3143831,-0.00366 c 0,-0.015815 -0.074528,-0.04094 -0.096467,-0.032521 -0.014544,0.00558 -0.018926,0.033517 -0.00711,0.045332 0.00376,0.00376 0.0286,0.00556 0.055206,0.004 0.034652,-0.00203 0.048374,-0.0068 0.048374,-0.016811 z m 0.7584759,-0.024173 c 0.018367,-0.014881 0.017741,-0.015285 -0.014401,-0.00929 -0.03898,0.00727 -0.052825,0.017478 -0.043705,0.032234 0.00695,0.011244 0.024435,0.00434 0.058107,-0.022941 z M 2.0094492,2.7258151 c 0.029059,-0.01324 0.03274,-0.034979 0.012536,-0.074049 -0.021192,-0.040981 -0.049061,-0.061293 -0.079342,-0.057826 -0.021467,0.00246 -0.032809,0.013311 -0.05343,0.051125 -0.030651,0.056207 -0.032873,0.076796 -0.00983,0.091032 0.019871,0.012274 0.093296,0.00647 0.1300613,-0.010281 z M 1.5054296,2.6569724 c 0.00272,-0.051973 0.00162,-0.055105 -0.019202,-0.054981 -0.055157,3.273e-4 -0.066451,0.00947 -0.063376,0.051298 0.00226,0.030712 0.00815,0.042008 0.026894,0.051545 0.042217,0.021482 0.052525,0.012622 0.055685,-0.047861 z m 0.1123322,0.049491 c 0.021122,-0.00578 0.045965,-0.017222 0.055206,-0.025437 0.022316,-0.019837 0.02137,-0.056843 -0.00177,-0.069227 -0.021268,-0.011382 -0.096231,-0.013116 -0.1120272,-0.00259 -0.00582,0.00388 -0.013532,0.029736 -0.017132,0.057459 -0.00624,0.048016 -0.00551,0.050403 0.015387,0.050351 0.012063,-2.88e-5 0.039215,-0.00478 0.060337,-0.010555 z M 1.0334786,2.6833461 c 0.00723,-0.018836 -0.013119,-0.043082 -0.0361543,-0.043082 -0.0124841,0 -0.0180264,0.00689 -0.0180264,0.022402 0,0.012321 0.00288,0.025282 0.006401,0.028803 0.0117498,0.01175 0.0421365,0.00658 0.04778,-0.00812 z m 1.1238039,-0.00708 c 0.027872,-0.030695 0.035204,-0.069179 0.016186,-0.084962 -0.013252,-0.010998 -0.019841,-0.00787 -0.047912,0.022763 -0.039391,0.042983 -0.044368,0.083802 -0.010218,0.083802 0.012281,0 0.031156,-0.00972 0.041944,-0.021603 z m -0.803587,-0.00235 c 0.00961,-0.011576 0.0088,-0.019107 -0.00418,-0.03892 -0.00885,-0.013511 -0.022381,-0.026978 -0.030061,-0.029925 -0.032588,-0.012505 -0.057526,0.045152 -0.031002,0.071677 0.015944,0.015944 0.050924,0.014426 0.065247,-0.00283 z m 0.486752,-0.00245 c 0.00333,-0.00924 0.013999,-0.02827 0.023701,-0.042286 0.02346,-0.033894 0.02248,-0.039523 -0.010244,-0.058854 -0.039769,-0.023492 -0.09048,-0.021097 -0.1216881,0.00575 -0.02228,0.019164 -0.0243,0.025078 -0.014697,0.043021 0.013788,0.025763 0.076288,0.069174 0.099592,0.069174 0.0095,0 0.020002,-0.00756 0.023336,-0.016802 z m 0.4906656,0.00528 c 0.014,-0.014 0.015252,-0.061848 0.00183,-0.07014 -0.00533,-0.00329 -0.018289,-0.00326 -0.028803,7.68e-5 -0.013947,0.00443 -0.019116,0.014546 -0.019116,0.037423 0,0.044141 0.020244,0.058477 0.046085,0.032636 z m -1.154537,-0.033085 c 0.032054,-0.034587 0.029644,-0.047901 -0.011104,-0.061349 -0.030367,-0.010022 -0.036872,-0.00921 -0.052652,0.00657 -0.017605,0.017605 -0.017584,0.018693 9.034e-4,0.049094 0.02293,0.037706 0.032384,0.038561 0.062852,0.00569 z m 0.8937812,-0.082606 c 0.018396,-0.020807 0.043831,-0.07498 0.056344,-0.1200045 0.00479,-0.017231 8.948e-4,-0.023536 -0.019271,-0.031203 -0.054627,-0.020769 -0.069729,-0.013612 -0.1006914,0.047724 -0.033143,0.065655 -0.035248,0.083002 -0.013052,0.1075286 0.021528,0.023788 0.053557,0.022098 0.07667,-0.00404 z m -0.414318,-0.034905 c -0.0035,-0.013806 -0.010239,-0.048864 -0.014986,-0.077907 -0.010383,-0.063523 -0.039329,-0.091311 -0.072356,-0.06946 -0.014843,0.00982 -0.038528,0.058607 -0.04656,0.095905 -0.00661,0.030706 -0.0057,0.031731 0.052642,0.059324 0.068,0.032159 0.090834,0.02995 0.081261,-0.00786 z m 0.6139628,0.027942 c 0.018909,-0.00719 0.024627,-0.016075 0.024627,-0.038268 0,-0.023 -0.00771,-0.034005 -0.037735,-0.053876 -0.043496,-0.028784 -0.071349,-0.027615 -0.075742,0.00318 -0.00285,0.020001 0.027695,0.074921 0.050608,0.090981 0.012586,0.00882 0.00928,0.009 0.038241,-0.00202 z m -0.7929949,-0.00868 c 0.010424,-0.00661 0.00907,-0.015587 -0.00716,-0.047395 -0.020298,-0.039787 -0.05755,-0.059179 -0.1139493,-0.059317 -0.024882,-5.77e-5 -0.04328,0.036229 -0.038627,0.07619 0.00259,0.022216 0.00791,0.025106 0.055666,0.030202 0.083604,0.00892 0.090464,0.00894 0.1040703,3.2e-4 z m 0.453417,-0.00149 c 0.028767,-0.015395 0.022122,-0.046375 -0.018704,-0.087201 -0.046723,-0.046722 -0.087558,-0.051796 -0.087502,-0.010872 4.8e-5,0.034085 0.032441,0.087041 0.060031,0.098133 0.028126,0.011308 0.024925,0.011312 0.046175,-5.76e-5 z m -0.97032818,-0.0375 c 0,-0.02081 -0.004339,-0.040519 -0.009641,-0.043796 -0.005303,-0.00328 -0.0272545,0.00394 -0.0487817,0.016039 l -0.0391403,0.021998 0.0271795,0.02175 c 0.0149487,0.011963 0.0369005,0.021772 0.0487816,0.021798 0.018756,3.84e-5 0.0216022,-0.00494 0.0216022,-0.03779 z m -0.25390489,-0.00176 c 0.054243,-0.03427 0.23470296,-0.207608 0.23470296,-0.2254407 0,-0.0065 0.0152296,-0.043497 0.0338436,-0.082211 L 1.0085812,2.1266127 1.0022785,1.920192 0.99597576,1.7137714 1.0220734,1.6386284 C 1.0768289,1.4809707 1.0724019,1.4093676 0.99844283,1.2564297 0.95340191,1.1632908 0.93378142,1.1403453 0.86648695,1.1021122 c -0.0277226,-0.015751 -0.0528201,-0.032545 -0.0557721,-0.037322 -0.0123325,-0.019955 -0.0417809,-0.0049 -0.1082412,0.055343 -0.0964007,0.087379 -0.2247104,0.2586077 -0.28854125,0.3850559 -0.06169,0.1222072 -0.15447917,0.4129792 -0.15464523,0.4846096 -7.489e-5,0.032465 0.009235,0.033062 0.11076516,0.00709 0.0624549,-0.015973 0.0776787,-0.017124 0.0881423,-0.00666 0.0189005,0.018901 -0.0208812,0.051817 -0.0949531,0.078566 -0.0460509,0.01663 -0.0615636,0.026952 -0.0639107,0.042527 -0.003468,0.023014 0.10136283,0.2275746 0.17013722,0.331995 0.0504438,0.076589 0.0726689,0.090992 0.14071352,0.091191 0.0379691,1.104e-4 0.0588552,-0.00638 0.0960096,-0.029858 z m 0.0114806,-0.7484472 c -0.0240984,-0.014036 -0.0207566,-0.024829 0.009601,-0.031007 0.0277991,-0.00566 0.0979106,-0.049047 0.13441344,-0.083184 0.0185961,-0.017391 0.0216022,-0.029985 0.0216022,-0.090502 0,-0.069611 -4.0679e-4,-0.070737 -0.0414751,-0.1148375 -0.0360174,-0.038677 -0.0464403,-0.044482 -0.0792079,-0.044119 -0.0781571,8.661e-4 -0.11771271,0.014837 -0.16474245,0.058188 -0.0375897,0.034649 -0.0461641,0.038988 -0.0489066,0.024747 -0.001829,-0.0095 -0.001062,-0.023166 0.001704,-0.030375 0.008878,-0.023135 0.11175562,-0.092581 0.14518839,-0.098006 0.0483601,-0.00785 0.12377175,0.013629 0.15207772,0.043312 0.0388407,0.040729 0.066821,0.1150532 0.060284,0.1601322 -0.0172005,0.118615 -0.0181993,0.1203131 -0.10476781,0.1781214 -0.062443,0.041698 -0.0618007,0.041492 -0.0857709,0.02753 z m -0.0784746,-0.124261 c -0.0357465,-0.038216 -0.0437414,-0.05265 -0.0385535,-0.069607 0.0115907,-0.037884 0.0735248,-0.1428138 0.0874486,-0.1481569 0.00742,-0.00285 0.042494,0.00939 0.0779413,0.02719 0.056714,0.028482 0.0661051,0.037156 0.0782424,0.072264 0.0110383,0.031929 0.0115677,0.047323 0.002651,0.077085 -0.009466,0.031594 -0.0191555,0.041118 -0.0644105,0.063314 -0.0749819,0.036774 -0.0904959,0.034383 -0.1433193,-0.022089 z m -0.10120554,-0.00876 c -0.0127817,-0.023883 -0.0128711,-0.084094 -1.366e-4,-0.091965 0.0118236,-0.00731 0.0382026,0.052231 0.0382026,0.086225 0,0.029192 -0.0236096,0.032752 -0.038066,0.00574 z M 1.0710156,2.5148895 c 0.013711,-0.015151 0.015495,-0.023555 0.00764,-0.036004 -0.017883,-0.02835 -0.036723,-0.019025 -0.039934,0.019764 -0.00335,0.040528 0.00604,0.045251 0.032291,0.01624 z m 0.6962996,-0.0083 c 0.015435,-0.015435 0.028064,-0.036685 0.028064,-0.047222 0,-0.03718 -0.1021733,-0.07839 -0.1205667,-0.048629 -0.00357,0.00577 -0.00107,0.036017 0.00555,0.067207 0.010702,0.05043 0.014628,0.056708 0.035463,0.056708 0.013094,0 0.035809,-0.01238 0.051493,-0.028064 z m -0.5095894,-0.00602 c 0,-0.00818 0.00688,-0.028185 0.015291,-0.044448 0.0143,-0.027652 0.01412,-0.030741 -0.00277,-0.047626 -0.017675,-0.017675 -0.019013,-0.01745 -0.063296,0.010633 -0.024882,0.01578 -0.045239,0.035329 -0.045239,0.043444 0,0.016809 0.05393,0.052786 0.079208,0.05284 0.00924,1.92e-5 0.016802,-0.00666 0.016802,-0.014842 z m 1.1501808,-0.029853 c 0.00192,-0.01894 -0.00362,-0.034127 -0.016802,-0.046057 -0.019156,-0.017336 -0.020187,-0.017329 -0.039634,2.698e-4 -0.015065,0.013633 -0.018565,0.025077 -0.014257,0.046615 0.00688,0.034402 0.020924,0.04463 0.047767,0.034785 0.012974,-0.00476 0.021072,-0.017338 0.022925,-0.035614 z m -0.09766,-0.088894 c 0.051416,-0.023348 0.05584,-0.032135 0.036595,-0.07269 -0.014022,-0.029548 -0.020361,-0.03371 -0.051358,-0.03371 -0.028476,0 -0.041918,0.00701 -0.069031,0.036004 -0.057389,0.061367 -0.062272,0.069761 -0.046418,0.079793 0.022828,0.014445 0.088078,0.00974 0.1302114,-0.0094 z M 1.1593159,2.3619414 c 0.037602,-0.022926 0.038905,-0.031918 0.00675,-0.046569 -0.042925,-0.019558 -0.052354,-0.014648 -0.052354,0.027262 0,0.043992 0.00302,0.045271 0.045604,0.019307 z m 0.6798347,-0.013347 c 0.00315,-0.012563 0.00432,-0.035245 0.00258,-0.050405 -0.00254,-0.022201 -0.00844,-0.028169 -0.030359,-0.030678 -0.021565,-0.00247 -0.03516,0.00524 -0.065545,0.037185 -0.047488,0.04992 -0.037282,0.062859 0.051767,0.065627 0.030166,9.381e-4 0.036726,-0.00249 0.041554,-0.021729 z m 0.2975699,0.015495 c 0.013796,-0.00963 0.052298,-0.073968 0.052298,-0.087395 0,-0.0166 -0.021216,-0.013167 -0.080414,0.013013 -0.061982,0.027411 -0.068755,0.04744 -0.022797,0.067416 0.036747,0.015972 0.0378,0.016116 0.050912,0.00697 z M 1.3728613,2.3019901 c 0.020812,-0.032915 0.03425,-0.063435 0.029863,-0.067822 -0.00439,-0.00439 -0.026784,-0.00662 -0.049772,-0.00496 -0.035241,0.00254 -0.045232,0.00813 -0.063711,0.035639 -0.012053,0.017943 -0.021916,0.036501 -0.021916,0.041241 0,0.012085 0.044968,0.05575 0.057413,0.05575 0.00565,0 0.027309,-0.026931 0.048121,-0.059846 z m 1.1116511,0.0449 c 0.013385,-0.00938 0.021338,-0.024935 0.021338,-0.041746 0,-0.021844 -0.00689,-0.029908 -0.037268,-0.043606 -0.067042,-0.030232 -0.103632,0.017046 -0.058045,0.075001 0.022723,0.028888 0.043383,0.031779 0.073975,0.010351 z M 1.6907388,2.3162316 c 0.064116,-0.068561 0.063714,-0.065541 0.013008,-0.097698 -0.053463,-0.033905 -0.073211,-0.028781 -0.095602,0.024809 -0.020067,0.048028 -0.01796,0.076497 0.00695,0.093946 0.030453,0.02133 0.037954,0.019242 0.075641,-0.021058 z M 1.5913635,2.239424 c 0.015013,-0.021883 0.0408,-0.091712 0.0408,-0.1104825 0,-0.010466 -0.078558,-0.035932 -0.110843,-0.035932 -0.027852,0 -0.035389,0.00455 -0.043762,0.026403 -0.00556,0.014521 -0.010857,0.043373 -0.011764,0.064115 -0.00144,0.03295 0.00247,0.040527 0.030975,0.060006 0.043515,0.029737 0.07223,0.02849 0.094594,-0.00411 z M 1.2385239,2.1938194 c 0,-0.023139 -0.00368,-0.044348 -0.00819,-0.047131 -0.014342,-0.00886 -0.037803,0.017268 -0.044489,0.049556 -0.00557,0.026888 -0.00336,0.032402 0.015904,0.039677 0.03144,0.011874 0.036772,0.00577 0.036772,-0.042102 z m 1.021717,0.037377 c 0.015687,-0.00602 0.021163,-0.022975 0.00742,-0.022975 -0.00427,0 -0.016152,0.00634 -0.026403,0.014096 -0.019026,0.014391 -0.00837,0.019375 0.018982,0.00888 z m -0.418612,-0.045672 c 0.00329,-0.040113 -0.021576,-0.077269 -0.062234,-0.092985 -0.02727,-0.01054 -0.08208,0.00502 -0.1043467,0.029626 -0.022092,0.024411 -0.013486,0.034222 0.066922,0.076296 0.074225,0.038838 0.095637,0.036059 0.099659,-0.012937 z m 0.5449185,0.016225 c 0.035179,-0.037959 0.063896,-0.087813 0.057005,-0.098963 -0.00332,-0.00538 -0.016477,-0.00978 -0.029231,-0.00978 -0.016522,0 -0.02773,0.00897 -0.038983,0.031203 -0.00869,0.017162 -0.026807,0.040233 -0.040267,0.05127 -0.016023,0.013138 -0.022361,0.02557 -0.018357,0.036004 0.00918,0.023921 0.043011,0.019204 0.069833,-0.00974 z m 0.1961109,0.010653 c 0,-0.00298 -0.00917,-0.026744 -0.020384,-0.052805 -0.027103,-0.063002 -0.060875,-0.063844 -0.079831,-0.00199 -0.00531,0.017323 -5.108e-4,0.025076 0.025227,0.040768 0.029489,0.017979 0.074987,0.02649 0.074987,0.014028 z m 0.1478674,-0.049117 c 0.034535,-0.051278 0.035695,-0.055295 0.019404,-0.067207 -0.025398,-0.018572 -0.029901,-0.016585 -0.061601,0.027175 -0.036284,0.050089 -0.038776,0.094569 -0.0053,0.094569 0.00592,0 0.027293,-0.024542 0.047494,-0.054538 z M 1.4284484,2.1328966 c 0.015831,-0.047493 0.011268,-0.064922 -0.020825,-0.079544 -0.020003,-0.00911 -0.031354,-0.00617 -0.077077,0.019989 -0.055082,0.031515 -0.058478,0.035567 -0.046107,0.055021 0.00752,0.011822 0.1057731,0.049592 0.1215002,0.046706 0.00495,-9.082e-4 0.015079,-0.019886 0.022509,-0.042172 z m 0.2647803,-0.067749 c 0.017122,-0.014707 0.016725,-0.015593 -0.0096,-0.021407 -0.015104,-0.00334 -0.04182,-0.00658 -0.059369,-0.0072 -0.025364,-9.034e-4 -0.031253,0.00226 -0.028718,0.015425 0.00393,0.020431 0.043525,0.041305 0.064401,0.033956 0.00848,-0.00299 0.023464,-0.012335 0.033287,-0.020773 z M 1.1758046,2.0282028 c -0.010336,-0.062195 -0.012186,-0.064703 -0.03349,-0.045423 -0.021134,0.019125 -0.025649,0.067544 -0.007,0.075068 0.0066,0.00266 0.019758,0.00518 0.029238,0.0056 0.014655,6.443e-4 0.016341,-0.00463 0.011253,-0.035246 z m 1.320992,0.016255 c 0.014319,-0.014319 0.018939,-0.029476 0.016802,-0.055126 -0.00366,-0.043931 -0.023591,-0.049748 -0.058763,-0.017152 -0.029578,0.027412 -0.03395,0.067119 -0.00899,0.081657 0.023697,0.013802 0.02869,0.012883 0.050952,-0.00938 z M 1.5564183,2.0330033 c 5.847e-4,-0.0066 3.062e-4,-0.021486 -6.183e-4,-0.033079 -9.246e-4,-0.011593 0.00309,-0.029996 0.00892,-0.040895 0.00916,-0.017124 0.00721,-0.02111 -0.014408,-0.029327 -0.034752,-0.013213 -0.123128,-0.011916 -0.1370551,0.00201 -0.015089,0.01509 -0.014791,0.060291 4.801e-4,0.07264 0.013518,0.01093 0.099112,0.038123 0.1248125,0.039652 0.00924,5.501e-4 0.01728,-0.0044 0.017864,-0.011002 z m 1.0851759,-0.00469 c 0.013906,-0.013906 0.026009,-0.066152 0.018237,-0.078726 -0.00971,-0.015719 -0.079558,-0.03085 -0.090748,-0.01966 -0.00484,0.00484 -0.010828,0.033354 -0.013318,0.063374 l -0.00453,0.054583 0.040875,-0.00548 c 0.022481,-0.00302 0.044747,-0.00936 0.049481,-0.014088 z M 1.3232366,2.0158786 c 0.04119,-0.025113 0.034838,-0.042106 -0.017156,-0.045897 -0.049034,-0.00358 -0.061257,0.00572 -0.052646,0.040031 0.00767,0.030565 0.026672,0.032162 0.069802,0.00587 z m 0.3730332,-0.072653 c 0.00757,-0.019732 -0.012588,-0.032301 -0.052105,-0.032487 -0.024401,-1.153e-4 -0.031203,0.00386 -0.031203,0.018255 0,0.02083 0.012167,0.027751 0.050706,0.028845 0.016156,4.589e-4 0.029034,-0.00531 0.032602,-0.014613 z m 0.087589,-0.00575 c 0.018836,-0.018836 0.013228,-0.028355 -0.014799,-0.02512 -0.030696,0.00354 -0.043981,0.036641 -0.014707,0.036641 0.00989,0 0.02317,-0.00518 0.029506,-0.011521 z M 1.4544581,1.8686379 c 0.038449,-0.028115 -0.020115,-0.1166268 -0.065614,-0.099167 -0.016298,0.00625 -0.022397,0.065031 -0.010079,0.097131 0.0072,0.018765 0.051197,0.019948 0.075693,0.00204 z m 0.1566792,-0.017415 c 0.00436,-0.037777 -0.022818,-0.084646 -0.049092,-0.084646 -0.036557,0 -0.064296,0.02633 -0.064296,0.06103 0,0.043098 0.016025,0.055557 0.067157,0.052211 0.038942,-0.00255 0.043551,-0.0054 0.046231,-0.028595 z m 0.1446503,-0.00161 c 0.00592,-0.00713 0.013428,-0.032403 0.016683,-0.056154 0.00779,-0.056809 -0.010652,-0.064963 -0.069247,-0.030623 -0.047929,0.028088 -0.065382,0.053061 -0.056543,0.080908 0.00485,0.015279 0.014708,0.018839 0.052161,0.018839 0.027073,0 0.050636,-0.00537 0.056946,-0.01297 z m 0.3450356,-0.021325 c 0.017787,-0.00561 0.010774,-0.065567 -0.00809,-0.069131 -0.017381,-0.00328 -0.095737,0.054578 -0.095737,0.070698 0,0.010432 0.069074,0.00939 0.1038235,-0.00157 z m 0.5333895,-0.016111 c 0.00945,-0.035251 0.00701,-0.045604 -0.01075,-0.045605 -0.012896,-6e-7 -0.016416,0.00725 -0.015141,0.031203 0.00203,0.038144 0.00134,0.036004 0.01162,0.036004 0.00466,0 0.011086,-0.00972 0.014271,-0.021602 z m -0.2159709,-0.0036 c 0.016502,-0.0033 0.030003,-0.011786 0.030003,-0.018856 0,-0.01211 -0.06333,-0.061552 -0.078841,-0.061552 -0.00663,0 -0.045971,0.069506 -0.045971,0.081226 0,0.00705 0.057971,0.00655 0.094809,-8.18e-4 z M 1.6818219,1.734935 c 0.053051,-0.0404 0.073793,-0.079445 0.053162,-0.1000757 -0.00794,-0.00794 -0.033891,-0.016626 -0.057673,-0.019306 l -0.04324,-0.00487 -0.022057,0.046746 c -0.023088,0.048931 -0.025062,0.07498 -0.0073,0.096378 0.016166,0.019478 0.03177,0.01566 0.077111,-0.018868 z m 0.3402859,0.017397 c 0.037347,-0.015605 0.0375,-0.017514 0.00923,-0.1151619 -0.010605,-0.03663 -0.013113,-0.03861 -0.048895,-0.03861 -0.037183,0 -0.037822,6.106e-4 -0.045253,0.043204 -0.00968,0.05547 -0.00157,0.092273 0.024304,0.1103991 0.024884,0.017429 0.019342,0.017414 0.060615,1.69e-4 z M 1.5499297,1.7222838 c 0.034433,-0.013213 0.026659,-0.05417 -0.013434,-0.070777 -0.046946,-0.019446 -0.079622,-0.00934 -0.1011523,0.031295 -0.016799,0.031704 -0.0174,0.037457 -0.0048,0.045985 0.01351,0.00914 0.089379,0.00501 0.1193866,-0.0065 z m 0.9440951,0.00747 c 0.015098,-0.00958 0.031028,-0.063177 0.031028,-0.1043873 0,-0.033844 -0.026428,-0.055982 -0.055568,-0.046548 -0.020518,0.00664 -0.059643,0.07388 -0.059643,0.1024985 0,0.042354 0.049183,0.070653 0.084184,0.048437 z M 1.398203,1.6862318 c 0.023068,-0.023068 0.041941,-0.04854 0.041941,-0.056605 0,-0.018849 -0.089906,-0.076845 -0.1124554,-0.072542 -0.014294,0.00273 -0.017631,0.015023 -0.019996,0.073668 -0.00439,0.1088561 0.021354,0.1246359 0.09051,0.055479 z M 1.8913891,1.67638 c 0,-0.0233 -0.052352,-0.063419 -0.082757,-0.063419 -0.036865,0 -0.047917,0.021737 -0.032143,0.063224 0.019082,0.05019 0.025844,0.053025 0.07246,0.030377 0.023342,-0.01134 0.04244,-0.024922 0.04244,-0.030182 z m 0.4189236,0.033093 c 0.048116,-0.012417 0.06522,-0.030884 0.057412,-0.061991 -0.00647,-0.025798 -0.059723,-0.063324 -0.089855,-0.063324 -0.026699,0 -0.038508,0.01721 -0.052042,0.07584 -0.00979,0.04241 -0.00944,0.051772 0.00218,0.059067 0.0076,0.00477 0.020295,0.00686 0.028216,0.00466 0.00792,-0.00221 0.03226,-0.00862 0.054087,-0.014251 z M 1.2292417,1.679542 c 0.021894,-0.083005 0.02453,-0.076182 -0.029429,-0.076182 -0.046893,0 -0.049212,0.00128 -0.063246,0.034867 -0.016483,0.03945 -0.012544,0.046193 0.03475,0.059478 0.043494,0.012218 0.05049,0.010024 0.057925,-0.018163 z M 2.1955022,1.656165 c 0.016096,-0.062193 0.01159,-0.072007 -0.033065,-0.072007 -0.045261,0 -0.059827,0.013478 -0.059827,0.055357 0,0.050531 0.015342,0.071084 0.050473,0.067616 0.027216,-0.00269 0.031146,-0.00741 0.042419,-0.050966 z m 0.4321897,0.0083 c 0.00814,-0.021225 -0.0088,-0.046017 -0.034013,-0.049768 -0.017816,-0.00265 -0.020622,0.00159 -0.020622,0.031203 0,0.030269 0.00284,0.034271 0.024304,0.034271 0.013644,0 0.026947,-0.00689 0.030331,-0.015706 z M 2.4170417,1.5722069 c 0.0157,-0.012561 0.015604,-0.1042641 -1.325e-4,-0.1257848 -0.00787,-0.010758 -0.027282,-0.017312 -0.055206,-0.018637 l -0.043072,-0.00204 -0.00284,0.053944 c -0.00246,0.046694 5.914e-4,0.058024 0.022705,0.084305 0.025816,0.03068 0.047616,0.03296 0.078546,0.00821 z m -0.652295,-0.013707 c 0.00163,-0.011472 -0.00182,-0.038667 -0.00769,-0.060433 -0.011937,-0.044331 -0.041231,-0.064136 -0.080346,-0.054318 -0.07119,0.017868 -0.014717,0.1454912 0.061058,0.1379867 0.016376,-0.00162 0.024946,-0.009 0.026973,-0.023235 z M 1.4801812,1.5026243 c 0.017514,-0.073199 0.012498,-0.081652 -0.050185,-0.084584 -0.038671,-0.00181 -0.041612,3.84e-5 -0.062708,0.039451 -0.012173,0.022742 -0.019939,0.046504 -0.017257,0.052805 0.00577,0.013544 0.078766,0.052774 0.1002736,0.053887 0.010675,5.52e-4 0.019235,-0.017086 0.029876,-0.061558 z m 0.4592128,0.00929 c 0,-0.048104 -0.00229,-0.053915 -0.024628,-0.062406 -0.041697,-0.015853 -0.051005,-0.011044 -0.076675,0.039613 -0.033477,0.066065 -0.027886,0.075836 0.043396,0.075836 h 0.057907 z m 0.3340915,-0.030965 c 0.0028,-0.058884 0.00239,-0.060006 -0.021985,-0.060006 -0.037928,0 -0.1008857,0.035636 -0.1008857,0.057105 0,0.027776 0.05677,0.068523 0.091209,0.065465 0.02831,-0.00251 0.028852,-0.00358 0.031662,-0.062564 z m 0.3070365,0.030659 c 0.046784,-0.032769 0.00281,-0.087975 -0.050669,-0.063609 -0.028567,0.013016 -0.032818,0.053264 -0.0072,0.068185 0.023187,0.013505 0.033184,0.012714 0.05787,-0.00458 z M 1.2811607,1.4929493 c -7.739e-4,-0.013099 -0.062836,-0.054058 -0.075584,-0.049884 -0.00564,0.00185 -0.011629,0.017316 -0.013307,0.034375 l -0.00305,0.031016 0.046254,-0.00295 c 0.02544,-0.00162 0.045999,-0.00727 0.045687,-0.012554 z m 0.552408,-0.081111 c 0.022055,-0.016947 0.022929,-0.020652 0.012001,-0.050873 -0.00648,-0.017927 -0.011787,-0.041754 -0.011787,-0.052949 0,-0.044502 -0.045088,-0.032875 -0.077285,0.01993 -0.026322,0.043169 -0.023937,0.070353 0.00768,0.087505 0.034287,0.018601 0.040933,0.018255 0.069392,-0.00361 z M 1.6774044,1.3805392 c 0.022642,-0.022222 0.041168,-0.044044 0.041168,-0.048495 0,-0.01121 -0.061631,-0.035915 -0.089596,-0.035915 -0.018249,0 -0.026254,0.0085 -0.038712,0.041125 -0.019812,0.051876 -0.019672,0.061221 0.0011,0.073317 0.02883,0.016792 0.04358,0.011644 0.086045,-0.030033 z m 0.332702,0.020504 c 0.033606,-0.026434 0.034383,-0.069715 0.00164,-0.09117 -0.026396,-0.017295 -0.1341442,-0.030476 -0.141895,-0.017358 -0.00273,0.00463 0.00355,0.030613 0.013961,0.057744 0.026809,0.069849 0.076603,0.089872 0.1262955,0.050784 z M 1.3498899,1.3869519 c 0.00419,-0.016713 6.423e-4,-0.030444 -0.011289,-0.043627 -0.023427,-0.025886 -0.054286,-0.019877 -0.06573,0.0128 -0.00758,0.021649 -0.00589,0.028927 0.00941,0.040499 0.030111,0.022774 0.060561,0.018418 0.067611,-0.00967 z m 0.8799745,-0.012616 c 0.00625,-0.00625 8.64e-5,-0.022778 -0.018078,-0.048444 -0.023245,-0.032845 -0.032879,-0.038986 -0.061435,-0.039159 -0.018627,-1.123e-4 -0.043127,0.00628 -0.054445,0.014208 -0.022032,0.015432 -0.037566,0.064337 -0.026251,0.082645 0.00827,0.013386 0.1454964,0.00546 0.160209,-0.00925 z m 0.264886,-0.00184 c 0.030166,-0.018391 0.031254,-0.020852 0.018031,-0.040768 -0.00989,-0.014899 -0.023707,-0.021195 -0.046505,-0.021195 -0.029863,0 -0.032679,0.00258 -0.035545,0.032597 -0.00187,0.019604 0.00195,0.035809 0.0096,0.040657 0.017377,0.011017 0.018063,0.010875 0.054419,-0.011291 z M 2.3325718,1.3542238 c 0.01186,-0.0075 0.010502,-0.016435 -0.0091,-0.059859 -0.030019,-0.066499 -0.034455,-0.071103 -0.053376,-0.055399 -0.018597,0.015435 -0.013719,0.065313 0.00992,0.101384 0.016021,0.024451 0.030006,0.028143 0.052561,0.013874 z M 1.2045983,1.3255555 c 0.013652,-0.026401 0.01337,-0.028562 -0.00447,-0.034223 -0.026986,-0.00856 -0.038414,0.0016 -0.038414,0.034167 0,0.037198 0.023659,0.037229 0.042882,5.77e-5 z m 0.3045126,0.0069 c -0.00625,-0.00625 -0.011361,-0.018177 -0.011361,-0.026506 0,-0.024816 -0.027894,-0.057568 -0.043822,-0.051456 -0.00797,0.00306 -0.020629,0.017427 -0.028129,0.031929 -0.018464,0.035706 -0.00227,0.055846 0.047948,0.059625 0.045476,0.00342 0.050461,0.00151 0.035364,-0.013592 z m 0.5786073,-0.070287 c 0.017517,-0.013248 0.017923,-0.017977 0.00635,-0.074102 -0.0068,-0.032973 -0.013627,-0.061242 -0.015178,-0.062819 -0.010126,-0.010296 -0.055946,0.013927 -0.063392,0.033512 -0.031004,0.081546 0.014662,0.1469357 0.072217,0.103409 z M 1.6110411,1.2462046 c 0.00634,-0.00634 0.011521,-0.036672 0.011521,-0.067413 0,-0.050542 -0.00234,-0.056955 -0.024398,-0.067008 -0.020319,-0.00926 -0.031554,-0.00764 -0.067207,0.00968 -0.035392,0.017195 -0.042793,0.025395 -0.042714,0.047326 7.68e-5,0.02073 0.00996,0.033346 0.045218,0.057731 0.049407,0.034166 0.060326,0.036936 0.077579,0.019682 z m 0.1288824,-0.00133 c 0.077108,-0.016296 0.081646,-0.024437 0.037602,-0.067445 -0.033101,-0.032322 -0.041499,-0.035836 -0.079193,-0.033138 -0.04021,0.00288 -0.04231,0.00453 -0.045274,0.03555 -0.00405,0.042404 0.00522,0.078039 0.020092,0.077263 0.0065,-3.389e-4 0.036548,-0.00584 0.066773,-0.012231 z M 1.390291,1.2046398 c 0.034132,-0.048424 0.037936,-0.066877 0.015554,-0.075465 -0.019952,-0.00766 -0.044449,0.00626 -0.075077,0.042663 -0.037489,0.044554 -0.032212,0.073191 0.013918,0.07553 0.00822,4.167e-4 0.028746,-0.01881 0.045605,-0.042728 z m 0.5759804,-0.035575 c 0.00278,-0.053185 0.0018,-0.05572 -0.028803,-0.074508 -0.017423,-0.010698 -0.037904,-0.018315 -0.045515,-0.016927 -0.011306,0.00206 -0.047945,0.096764 -0.048439,0.1252001 -2.314e-4,0.013309 0.041999,0.025393 0.081478,0.023315 l 0.038404,-0.00202 z M 2.2182329,1.1999 c 0.010093,-0.0054 0.023157,-0.018802 0.029032,-0.02978 0.00899,-0.016789 0.00645,-0.024377 -0.015978,-0.047785 -0.026837,-0.028012 -0.054908,-0.034728 -0.079656,-0.019057 -0.00985,0.00624 -0.011661,0.019254 -0.00685,0.049342 0.00359,0.022477 0.00879,0.044519 0.011551,0.048983 0.00687,0.011109 0.039644,0.010207 0.0619,-0.0017 z M 1.2406469,1.161204 c 0.0044,-0.030012 -0.011838,-0.047493 -0.044129,-0.047493 -0.022089,0 -0.024734,0.011619 -0.010404,0.0457 0.017505,0.041632 0.048537,0.042653 0.054534,0.00179 z M 1.8169397,1.077707 c 0.00821,-0.00924 0.019367,-0.033112 0.024783,-0.053047 0.00901,-0.0331575 0.00787,-0.037542 -0.013373,-0.0514607 -0.03853,-0.025246 -0.052172,-0.0115963 -0.052172,0.0522014 0,0.071699 0.010989,0.0858 0.040762,0.052306 z M 1.7070967,1.039303 c -0.00267,-0.0415436 -0.00523,-0.0458709 -0.028854,-0.0485967 -0.036681,-0.004233 -0.065281,0.0137507 -0.065281,0.0410481 0,0.032547 0.024663,0.053153 0.063618,0.053153 h 0.033444 z m 0.3328016,0.017296 c 0.0031,-0.00501 -0.00637,-0.026447 -0.021035,-0.04764 -0.019976,-0.0288694 -0.033286,-0.0386255 -0.053066,-0.0388985 -0.02297,-3.1683e-4 -0.026403,0.00335 -0.026403,0.0282092 0,0.0232386 0.00672,0.0321222 0.036004,0.0475804 0.04052,0.021391 0.056299,0.024021 0.064501,0.010749 z M 1.3577072,1.0364626 c 0.00758,-0.0078 0.00133,-0.018406 -0.022811,-0.0387524 C 1.3166142,0.982303 1.2985872,0.969697 1.2948372,0.969697 c -0.010832,0 -0.029582,0.0656882 -0.022172,0.0776781 0.00797,0.012897 0.069599,0.00499 0.085042,-0.010913 z m 0.1746153,-0.0244 c 0.01569,-0.0375523 0.00642,-0.0615833 -0.023747,-0.0615502 -0.013456,1.44e-5 -0.068431,0.072156 -0.068431,0.0897985 0,0.00341 0.017502,0.00619 0.038894,0.00619 0.035555,0 0.040129,-0.00296 0.053285,-0.034442 z M 1.1787818,1.002756 c 0.026279,-0.0184068 0.02762,-0.0482232 0.00277,-0.0615241 -0.010214,-0.005466 -0.021079,-0.009939 -0.024144,-0.009939 -0.00818,0 -0.043617,0.0603886 -0.043658,0.0744075 -4.8e-5,0.016772 0.039438,0.014984 0.065035,-0.00294 z m 0.9524388,3.12e-4 C 2.1245406,0.99502 2.1170986,0.9904117 2.1146826,0.9928283 c -0.00666,0.006658 0.00687,0.0248732 0.018473,0.0248732 0.00637,0 0.00564,-0.00551 -0.00193,-0.014633 z M 1.4405494,0.89725828 c 0.02878,-0.0306349 0.01694,-0.0557406 -0.028403,-0.0602296 -0.038615,-0.003823 -0.058411,0.0119819 -0.058411,0.0466351 0,0.0439318 0.050835,0.0518922 0.086814,0.0135945 z m 0.2669889,0.004293 c 0.033789,-0.0117789 0.035804,-0.0165785 0.01748,-0.0416372 -0.012043,-0.01647 -0.013919,-0.0159643 -0.033603,0.009061 -0.018737,0.0238205 -0.02656,0.0431167 -0.017481,0.0431167 0.00185,0 0.016974,-0.004743 0.033603,-0.0105402 z m -0.1027429,-0.0448294 0.019653,-0.031039 h -0.044147 c -0.048891,0 -0.058202,0.0165605 -0.028046,0.0498827 0.02033,0.0224643 0.028166,0.0196538 0.052541,-0.0188436 z"
       id="path142"
       inkscape:connector-curvature="0" />
    <path
       style="fill:#fb6c3a;stroke-width:0.00960096"
       d="M 1.689769,3.7721913 C 1.4003112,3.7396476 1.0901211,3.6275532 0.84877953,3.4682804 0.32431499,3.1221612 0,2.5196379 0,1.8913891 0,1.2631404 0.32431499,0.66061708 0.84877953,0.31449789 1.4086127,-0.05496276 2.1242227,-0.10026854 2.7237131,0.19579451 3.6626274,0.65948476 4.0488775,1.7907717 3.5868087,2.7237131 3.3953272,3.1103243 3.1103243,3.3953272 2.7237131,3.5868087 2.4082487,3.7430524 2.0314657,3.8106083 1.689769,3.7721913 Z M 1.3927704,3.0143637 c 0.019526,-0.01045 0.026124,-0.068906 0.010548,-0.093447 -0.011649,-0.018354 -0.066761,-0.031322 -0.092126,-0.021678 -0.027931,0.010619 -0.034189,0.027167 -0.025794,0.068212 0.00971,0.047494 0.062881,0.070724 0.107372,0.046913 z m 0.1284374,-0.0114 c 0.017717,-0.025294 0.019738,-0.085241 0.00342,-0.101554 -0.00634,-0.00634 -0.023466,-0.011521 -0.038066,-0.011521 -0.031451,0 -0.046422,0.022798 -0.046422,0.07069 0,0.058521 0.051062,0.085219 0.081064,0.042385 z m 0.1412934,0.011471 c 0.026692,-0.00741 0.037653,-0.016974 0.045601,-0.039772 0.013534,-0.038823 5.76e-5,-0.055972 -0.043969,-0.055972 -0.023121,0 -0.039787,0.00745 -0.056123,0.025073 -0.058164,0.06276 -0.033269,0.095047 0.054492,0.070671 z M 1.9219729,2.8514852 c -0.0035,-0.050126 -0.029985,-0.079361 -0.067833,-0.074886 -0.025069,0.00296 -0.087563,0.07366 -0.087563,0.099055 0,0.014185 0.043214,0.021699 0.1152115,0.020034 l 0.043204,-9.992e-4 z m 0.1422059,0.013284 c 0.026669,-0.024094 0.038431,-0.042606 0.038431,-0.060486 0,-0.061333 -0.05826,-0.066864 -0.1092939,-0.010376 -0.077269,0.085527 -0.014665,0.1481312 0.070863,0.070862 z M 1.0971896,2.8346835 c 0.022188,-0.075529 -0.00892,-0.1042937 -0.05711,-0.052805 -0.0659206,0.070436 -0.0657031,0.09841 7.652e-4,0.09841 h 0.042948 z m 0.5565758,0.031822 c 0.034296,-0.00751 0.03354,-0.027832 -0.00198,-0.053122 -0.068698,-0.048918 -0.1348381,-0.049553 -0.1348381,-0.0013 0,0.015094 0.0054,0.031904 0.012001,0.037355 0.014032,0.011588 0.074858,0.028936 0.088809,0.025329 0.00528,-0.00137 0.021482,-0.00509 0.036004,-0.00827 z m -0.3816382,-0.056691 0.019202,-0.055954 -0.022666,-0.018394 c -0.043705,-0.035469 -0.088346,-0.016047 -0.106199,0.046204 -0.00967,0.03372 -0.00389,0.04566 0.033878,0.069974 0.041889,0.026968 0.054578,0.019964 0.075785,-0.04183 z m 0.5156576,-0.00153 c 0.019965,-0.026403 0.036323,-0.055613 0.036349,-0.064911 2.88e-5,-0.01095 -0.018335,-0.025922 -0.052132,-0.042498 -0.069294,-0.033985 -0.082233,-0.024433 -0.082233,0.06071 0,0.1103595 0.036666,0.1278288 0.098016,0.046699 z m -0.3088354,0.00405 c 0.016467,-0.030769 0.00499,-0.044909 -0.049608,-0.061124 -0.044998,-0.013363 -0.052523,-0.013394 -0.072508,-2.996e-4 -0.024083,0.01578 -0.029533,0.051099 -0.010778,0.069854 0.00634,0.00634 0.036428,0.011521 0.066869,0.011521 0.046215,0 0.05711,-0.00329 0.066026,-0.019952 z m 0.7443432,-0.018913 c 0.050318,-0.03462 0.055609,-0.057145 0.013423,-0.057145 -0.035981,0 -0.095701,0.024053 -0.095701,0.038545 0,0.017309 0.01903,0.047864 0.029811,0.047864 0.00546,0 0.029074,-0.013169 0.052467,-0.029264 z M 1.9883597,2.7457672 c 0.01901,-0.00528 0.04198,-0.017795 0.051043,-0.02781 0.015642,-0.017284 0.015237,-0.020659 -0.00798,-0.066469 L 2.00697,2.6032275 2.0392278,2.5925814 c 0.043208,-0.01426 0.056588,-0.031698 0.083658,-0.1090273 0.022589,-0.064529 0.022652,-0.065704 0.00429,-0.079208 -0.01025,-0.00754 -0.03718,-0.013707 -0.059844,-0.013707 -0.040095,0 -0.041891,0.00136 -0.066527,0.050405 -0.013926,0.027723 -0.027059,0.052305 -0.029186,0.054627 -0.00213,0.00232 -0.024289,-0.015581 -0.04925,-0.039784 -0.052417,-0.050825 -0.08041,-0.062668 -0.098009,-0.041462 -0.016874,0.020332 -0.029326,0.018329 -0.062586,-0.010071 l -0.028803,-0.024594 0.042095,0.00576 c 0.057531,0.00787 0.077917,-0.010966 0.077917,-0.072 0,-0.064553 -0.019169,-0.077272 -0.079208,-0.052555 -0.010846,0.00447 -0.016802,0.00257 -0.016802,-0.00536 0,-0.00675 -0.00721,-0.020236 -0.016014,-0.029968 -0.01553,-0.01716 -0.0147,-0.017208 0.027419,-0.0016 0.059661,0.022112 0.075004,0.014231 0.075004,-0.038528 0,-0.036643 -0.00468,-0.046624 -0.033937,-0.072309 -0.023994,-0.021067 -0.043685,-0.029797 -0.067207,-0.029797 -0.026092,0 -0.033269,-0.00387 -0.033269,-0.017946 0,-0.018318 -0.037425,-0.029709 -0.09841,-0.029953 -0.027694,-1.105e-4 -0.036718,0.024142 -0.016504,0.044357 0.0068,0.0068 -0.010424,0.00966 -0.054977,0.00912 l -0.064876,-7.777e-4 -0.013439,0.049733 c -0.00739,0.027353 -0.010672,0.060758 -0.00729,0.074233 0.0065,0.025915 0.047797,0.052633 0.09708,0.062814 0.021218,0.00438 0.029665,0.012177 0.032079,0.029597 0.00654,0.047228 0.050669,0.071416 0.087635,0.048037 0.00971,-0.00614 0.018815,-0.00396 0.029214,0.007 0.013865,0.014604 0.012397,0.0173 -0.017812,0.032701 -0.032615,0.016628 -0.033096,0.016564 -0.051513,-0.00685 -0.027805,-0.035349 -0.060247,-0.030811 -0.088423,0.012369 -0.012921,0.019802 -0.026312,0.051602 -0.029756,0.070668 -0.00541,0.029934 -0.0028,0.037388 0.019111,0.054623 0.013956,0.010978 0.04448,0.027256 0.067831,0.036174 0.03872,0.014787 0.044479,0.01489 0.06543,0.00116 0.012635,-0.00828 0.032015,-0.012688 0.043066,-0.0098 0.019183,0.00502 0.019358,0.00623 0.00385,0.026786 -0.014688,0.019472 -0.022339,0.021096 -0.079989,0.016971 -0.035061,-0.00251 -0.071637,-1.459e-4 -0.081281,0.00525 -0.012692,0.0071 -0.02325,0.00607 -0.038239,-0.00375 -0.01492,-0.00978 -0.031171,-0.011404 -0.058162,-0.00583 -0.037041,0.00765 -0.037489,0.00828 -0.040305,0.05621 -0.00351,0.0597 0.010629,0.07415 0.074525,0.076177 0.025155,7.979e-4 0.050726,0.00453 0.056825,0.0083 0.023251,0.01437 0.1547268,-0.037954 0.1547268,-0.061577 0,-0.028295 0.010265,-0.028081 0.051633,0.00108 0.022213,0.015657 0.052959,0.029808 0.068325,0.031446 0.015366,0.00164 0.029721,0.009 0.031902,0.016359 0.0107,0.036112 0.066335,0.04734 0.13713,0.027675 z M 1.5169517,2.6450645 c 0,-0.00792 0.00432,-0.014401 0.0096,-0.014401 0.00528,0 0.0096,0.00648 0.0096,0.014401 0,0.00792 -0.00432,0.014401 -0.0096,0.014401 -0.00528,0 -0.0096,-0.00648 -0.0096,-0.014401 z m 0.357354,-0.074156 C 1.858865,2.555468 1.8373729,2.5478508 1.7993851,2.5443553 l -0.053269,-0.0049 0.032922,-0.031817 0.032922,-0.031817 0.020235,0.034296 c 0.026841,0.045492 0.060298,0.060755 0.1001781,0.045702 0.02348,-0.00886 0.031643,-0.00874 0.03742,5.51e-4 0.00497,0.00799 -0.00115,0.013855 -0.018706,0.017899 -0.014353,0.00331 -0.032629,0.00878 -0.040613,0.012152 -0.00862,0.00364 -0.023315,-0.00266 -0.036168,-0.015513 z M 1.6940043,2.1932897 c -0.017896,-0.014338 -0.017779,-0.014515 0.00297,-0.00446 0.011881,0.00576 0.021602,0.012477 0.021602,0.014931 0,0.00735 -0.00498,0.00523 -0.024568,-0.010468 z m -0.061841,-0.022906 c 0,-0.016633 0.016899,-0.019711 0.028891,-0.00526 0.00987,0.011897 0.00844,0.014296 -0.00851,0.014296 -0.011208,0 -0.020378,-0.00407 -0.020378,-0.00903 z m -0.0048,-0.058172 c -0.00326,-0.00528 0.00296,-0.0096 0.013835,-0.0096 0.010873,0 0.019769,0.00432 0.019769,0.0096 0,0.00528 -0.00623,0.0096 -0.013835,0.0096 -0.00761,0 -0.016505,-0.00432 -0.019769,-0.0096 z M 1.0604654,2.6973504 c 0.00661,-0.00661 0.00516,-0.017859 -0.0045,-0.034875 -0.019476,-0.0343 -0.040169,-0.045426 -0.0703806,-0.037843 -0.0213888,0.00537 -0.0254884,0.011696 -0.0254884,0.039341 0,0.021095 0.006043,0.036605 0.0168017,0.043125 0.0186002,0.011271 0.0683525,0.00547 0.0835677,-0.00975 z m 1.1030249,4.6e-6 c 0.013786,-0.010844 0.029772,-0.037195 0.035525,-0.058558 0.00887,-0.032927 0.00794,-0.04162 -0.00606,-0.057091 -0.025169,-0.027812 -0.047109,-0.02215 -0.084799,0.021882 -0.033033,0.038591 -0.040956,0.065898 -0.028524,0.098297 0.00824,0.021484 0.053921,0.019016 0.083855,-0.00453 z M 1.3612,2.6925249 c 0.029081,-0.020369 0.026786,-0.04829 -0.00673,-0.081802 -0.0469,-0.046901 -0.095752,-0.029888 -0.096443,0.033586 -6.029e-4,0.055395 0.055491,0.081611 0.1031689,0.048216 z m 0.9851306,-0.00872 c 0.037671,-0.057492 0.00548,-0.1157285 -0.049484,-0.089514 -0.020303,0.00968 -0.026875,0.020345 -0.029128,0.047247 -0.00507,0.060586 0.047935,0.089087 0.078612,0.042268 z m -1.1752404,-0.00502 c 0.018483,-0.00989 0.057833,-0.067196 0.057833,-0.084221 0,-0.011225 -0.068468,-0.040713 -0.09453,-0.040713 -0.00953,0 -0.027136,0.010434 -0.039116,0.023186 -0.024211,0.025772 -0.02189,0.045986 0.00993,0.086434 0.020876,0.02654 0.037634,0.030435 0.065887,0.015315 z M 2.278459,2.5620191 C 2.307497,2.5467351 2.311992,2.5373211 2.305264,2.5058831 2.297374,2.4689941 2.253157,2.4361191 2.20975,2.4348611 2.177388,2.433924 2.174393,2.4361411 2.171764,2.4629791 c -0.002,0.020372 0.00596,0.041309 0.026463,0.069607 0.030672,0.042341 0.045426,0.047754 0.080233,0.029433 z M 0.97929794,2.5064976 c 0,-0.048472 -0.002853,-0.057864 -0.0191465,-0.063036 -0.0250755,-0.00796 -0.11526692,0.040575 -0.11526692,0.062027 0,0.021324 0.0646104,0.057474 0.10321033,0.057747 l 0.0312031,2.206e-4 z m 0.51695646,0.044359 c 0.00786,-0.00947 0.00279,-0.02424 -0.020426,-0.05948 -0.026518,-0.040254 -0.037568,-0.048571 -0.078174,-0.058843 -0.060534,-0.015312 -0.07691,-0.00633 -0.091084,0.049959 -0.017094,0.067885 -0.00849,0.072766 0.1395993,0.079233 0.022956,10e-4 0.044028,-0.00357 0.050085,-0.010869 z M 1.0783621,2.5294473 c 0.033077,-0.029097 0.031312,-0.060361 -0.00454,-0.080417 -0.036052,-0.020168 -0.056122,-0.00172 -0.056122,0.051596 0,0.060907 0.015704,0.068369 0.06066,0.028822 z m 0.1850863,0.00746 c 0.00579,-0.00388 0.018354,-0.032193 0.027925,-0.062919 l 0.017401,-0.055866 -0.024359,-0.024359 c -0.028366,-0.028366 -0.044114,-0.025835 -0.102523,0.016476 -0.060832,0.044066 -0.051295,0.08437 0.028114,0.1188126 0.039049,0.016937 0.039741,0.017039 0.053442,0.00786 z M 0.73977684,2.496975 c 0.0234858,-0.017983 0.076409,-0.065467 0.11760711,-0.1055198 0.0591913,-0.057546 0.0833614,-0.089944 0.11521156,-0.1544315 L 1.0129013,2.1554157 1.0099613,1.9439615 C 1.0070813,1.7362919 1.0107102,1.6976029 1.0407363,1.616103 1.0488563,1.594069 1.0600223,1.547708 1.0655543,1.5130799 1.0781223,1.4344099 1.0605143,1.3541632 1.0071923,1.2470477 0.96823629,1.1687872 0.93630901,1.1359079 0.8633972,1.0989607 0.83812102,1.0861523 0.81471957,1.07127 0.81139396,1.0658892 0.79835591,1.0447931 0.77002785,1.058901 0.70247361,1.1201335 0.60607295,1.2075129 0.47776321,1.3787412 0.41393236,1.5051894 0.35224233,1.6273966 0.25945319,1.9181686 0.25928713,1.989799 c -7.489e-5,0.032465 0.009235,0.033062 0.11076516,0.00709 0.0624549,-0.015973 0.0776787,-0.017124 0.0881423,-0.00666 0.0189005,0.018901 -0.0208812,0.051817 -0.0949531,0.078566 -0.0460509,0.01663 -0.0615636,0.026952 -0.0639107,0.042527 -0.003468,0.023014 0.10136283,0.2275746 0.17013722,0.331995 0.0243008,0.036896 0.0549844,0.072707 0.0681858,0.079581 0.0149858,0.0078 0.0494379,0.011421 0.091712,0.00963 0.0600333,-0.00254 0.0725507,-0.00657 0.11041104,-0.03556 z M 0.71767177,1.7562067 c -0.0240984,-0.014036 -0.0207566,-0.024829 0.009601,-0.031007 0.0277991,-0.00566 0.0979106,-0.049047 0.13441344,-0.083184 0.0185961,-0.017391 0.0216022,-0.029985 0.0216022,-0.090502 0,-0.069611 -4.0679e-4,-0.070737 -0.0414751,-0.1148375 -0.0360174,-0.038677 -0.0464403,-0.044482 -0.0792079,-0.044119 -0.0781571,8.661e-4 -0.11771271,0.014837 -0.16474245,0.058188 -0.0375897,0.034649 -0.0461641,0.038988 -0.0489066,0.024747 -0.001829,-0.0095 -0.001062,-0.023166 0.001704,-0.030375 0.008878,-0.023135 0.11175562,-0.092581 0.14518839,-0.098006 0.0483601,-0.00785 0.12377175,0.013629 0.15207772,0.043312 0.0388407,0.040729 0.066821,0.1150532 0.060284,0.1601322 -0.0172005,0.118615 -0.0181993,0.1203131 -0.10476781,0.1781214 -0.062443,0.041698 -0.0618007,0.041492 -0.0857709,0.02753 z M 0.63919711,1.6319539 c -0.0357465,-0.038216 -0.0437414,-0.05265 -0.0385535,-0.069607 0.0115907,-0.037884 0.0735248,-0.1428138 0.0874486,-0.1481569 0.00742,-0.00285 0.042494,0.00939 0.0779413,0.02719 0.056714,0.028482 0.0661051,0.037156 0.0782424,0.072264 0.0110383,0.031929 0.0115677,0.047323 0.002651,0.077085 -0.009466,0.031594 -0.0191555,0.041118 -0.0644105,0.063314 -0.0749819,0.036774 -0.0904959,0.034383 -0.1433193,-0.022089 z m -0.10120554,-0.00876 c -0.0127817,-0.023883 -0.0128711,-0.084094 -1.366e-4,-0.091965 0.0118236,-0.00731 0.0382026,0.052231 0.0382026,0.086225 0,0.029192 -0.0236096,0.032752 -0.038066,0.00574 z M 2.3936705,2.5236153 c 0.028018,-0.014748 0.03505,-0.026796 0.035225,-0.06035 1.495e-4,-0.02867 -0.03195,-0.072626 -0.053037,-0.072626 -0.023195,0 -0.062027,0.039901 -0.062027,0.063734 0,0.037617 0.026789,0.079678 0.051036,0.080133 0.00431,7.68e-5 0.017269,-0.00482 0.028803,-0.010891 z M 2.3072618,2.3990669 c 0.011534,-0.00593 0.032823,-0.021828 0.047309,-0.035338 l 0.026338,-0.024564 0.022286,0.020936 c 0.026291,0.024699 0.056127,0.026703 0.087874,0.0059 0.025474,-0.016692 0.045819,-0.06398 0.037195,-0.086455 -0.00626,-0.01631 -0.071104,-0.052126 -0.094376,-0.052126 -0.024743,0 -0.062451,0.029652 -0.062451,0.049109 0,0.022878 -0.00551,0.022708 -0.035784,-0.0011 -0.035308,-0.027773 -0.055458,-0.023992 -0.1023178,0.019202 -0.04566,0.042088 -0.059965,0.048442 -0.044654,0.019833 0.010354,-0.019347 0.013639,-0.058237 0.00492,-0.058237 -0.019179,0 -0.1485958,0.062577 -0.1485958,0.07185 0,0.023343 0.039632,0.047725 0.077574,0.047725 0.022686,0 0.037637,0.00454 0.037637,0.011419 0,0.00628 0.0054,0.013599 0.012001,0.016262 0.022973,0.00927 0.1142139,0.00629 0.1350446,-0.00442 z M 1.1794776,2.371377 c 0.021914,-0.015875 0.039844,-0.033069 0.039844,-0.038209 0,-0.014344 -0.075613,-0.049662 -0.099147,-0.046311 -0.017633,0.00251 -0.021657,0.010855 -0.025978,0.053864 -0.00281,0.027991 -0.00317,0.052833 -7.997e-4,0.055206 0.01213,0.01213 0.050585,0.00116 0.086081,-0.02455 z M 1.382691,2.3114312 c 0.054587,-0.086044 0.052446,-0.095206 -0.021422,-0.091667 -0.055827,0.00267 -0.061087,0.00496 -0.081608,0.035481 -0.028306,0.042098 -0.027646,0.059858 0.00338,0.09088 0.039052,0.039052 0.056785,0.032878 0.099654,-0.034694 z M 1.2474139,2.2522818 c 0.016902,-0.020365 0.022768,-0.074271 0.011326,-0.104067 -0.010193,-0.026542 -0.039712,-0.035078 -0.065219,-0.01886 -0.014679,0.00933 -0.031804,0.054428 -0.031804,0.083747 0,0.040277 0.061465,0.068378 0.085698,0.03918 z m 1.0329629,-0.01898 c 0.015594,-0.011403 0.021301,-0.011305 0.039595,6.826e-4 0.028443,0.018636 0.048389,0.00731 0.098948,-0.05619 0.045985,-0.057754 0.048476,-0.087935 0.00765,-0.09263 -0.021516,-0.00247 -0.029614,0.0028 -0.043204,0.028154 -0.023271,0.043409 -0.079873,0.094803 -0.1044706,0.094858 -0.011296,2.88e-5 -0.030738,0.00854 -0.043204,0.018928 l -0.022666,0.018883 0.024568,3.197e-4 c 0.013512,1.757e-4 0.032767,-0.00568 0.042788,-0.013003 z m 0.3194007,-0.00828 c 0.00702,-0.00853 0.00198,-0.029343 -0.017434,-0.072007 -0.024381,-0.053582 -0.030291,-0.060006 -0.055211,-0.060006 -0.035265,0 -0.061085,0.028031 -0.063002,0.068399 -0.00128,0.027044 0.00369,0.034229 0.036919,0.05328 0.042554,0.0244 0.083625,0.028699 0.098727,0.010335 z M 2.740964,2.177497 C 2.764787,2.144757 2.784278,2.112465 2.784278,2.105736 2.784278,2.090592 2.729344,2.061127 2.712885,2.067442 2.69366,2.074822 2.640264,2.161387 2.640264,2.185178 c 0,0.024374 0.023197,0.051845 0.04378,0.051845 0.00748,0 0.033097,-0.026787 0.05692,-0.059526 z M 1.4343011,2.1504208 c 0.021805,-0.054496 0.019592,-0.081288 -0.00822,-0.099512 -0.033076,-0.021672 -0.048306,-0.019682 -0.1071798,0.014002 -0.075263,0.043061 -0.068603,0.072609 0.023805,0.1056041 0.06792,0.024252 0.074423,0.022825 0.091596,-0.020094 z M 1.2025647,2.0714072 c 0.00247,-0.0066 0.00108,-0.020642 -0.0031,-0.031203 -0.00418,-0.010561 -0.0079,-0.033379 -0.00827,-0.050706 -0.00135,-0.062889 -0.068316,-0.049325 -0.088462,0.017918 -0.011271,0.037619 -0.010643,0.041213 0.010147,0.058047 0.025069,0.0203 0.082868,0.024131 0.089686,0.00594 z m 1.2997575,-0.017997 c 0.020608,-0.01936 0.022559,-0.01955 0.038373,-0.00374 0.013058,0.013058 0.026096,0.015368 0.060286,0.010682 0.054783,-0.00751 0.066344,-0.019173 0.073941,-0.0746 0.00544,-0.039675 0.00367,-0.045908 -0.016688,-0.058699 -0.012524,-0.00787 -0.038844,-0.017128 -0.058487,-0.020571 -0.034242,-0.006 -0.036331,-0.00479 -0.050625,0.029425 -0.011435,0.027368 -0.017543,0.03305 -0.026211,0.024383 -0.017586,-0.017586 -0.040747,-0.013445 -0.068465,0.012243 -0.038787,0.035946 -0.03111,0.1012685 0.011901,0.1012685 0.00784,0 0.024033,-0.00918 0.035974,-0.020397 z M 1.3354474,2.0326656 c 0.061918,-0.041727 0.041878,-0.083671 -0.039977,-0.083671 -0.059758,0 -0.073443,0.015932 -0.057989,0.067511 0.00979,0.032659 0.01527,0.038099 0.038412,0.038099 0.014849,0 0.041648,-0.00987 0.059554,-0.02194 z m 0.2219239,-0.018615 c -0.00167,-0.021497 0.00363,-0.045545 0.013302,-0.060306 0.00885,-0.013503 0.013347,-0.02729 0.01,-0.030639 -0.012058,-0.012058 -0.1591834,-0.015319 -0.1730213,-0.00383 -0.017885,0.014843 -0.024584,0.06518 -0.011124,0.083587 0.013539,0.018516 0.1076461,0.051462 0.1396274,0.048883 0.021524,-0.00174 0.023715,-0.00563 0.021218,-0.037691 z m 0.1795209,-0.065216 c 0.030647,3.629e-4 0.068088,-0.021485 0.068088,-0.039732 0,-0.013944 -0.060076,-0.00885 -0.077075,0.00653 -0.014502,0.013124 -0.017442,0.013124 -0.028334,0 -0.017612,-0.021222 -0.092174,-0.019809 -0.1005065,0.0019 -0.00998,0.025996 0.021588,0.043323 0.066702,0.036617 0.021122,-0.00314 0.053129,-0.00553 0.071126,-0.00532 z M 1.4501776,1.8852953 c 0.029254,-0.011705 0.041994,-0.012925 0.050119,-0.0048 0.014308,0.014308 0.1056527,0.014066 0.120037,-3.187e-4 0.00673,-0.00673 0.035625,-0.010328 0.072253,-0.009 0.041235,0.00149 0.064242,-0.00188 0.07091,-0.010389 0.013727,-0.017527 0.031465,-0.093728 0.025461,-0.1093749 -0.0065,-0.016932 -0.036675,-0.026091 -0.060769,-0.018444 -0.018431,0.00585 -0.018336,0.00476 0.0024,-0.027749 0.011873,-0.018611 0.024026,-0.034022 0.027009,-0.034245 0.00298,-2.237e-4 0.012633,0.014715 0.021447,0.033197 0.00881,0.018482 0.020558,0.033603 0.0261,0.033603 0.014856,0 0.1054467,-0.047219 0.1054467,-0.054962 0,-0.00365 -0.015998,-0.023018 -0.035552,-0.043043 -0.028458,-0.029143 -0.042622,-0.036408 -0.07098,-0.036408 -0.02326,0 -0.037405,0.00515 -0.041183,0.014997 -0.00522,0.013595 -0.00776,0.013595 -0.027166,0 -0.012053,-0.00844 -0.041176,-0.014997 -0.066633,-0.014997 -0.038534,0 -0.046201,0.00319 -0.051844,0.021602 -0.012672,0.041336 -0.022425,0.04596 -0.055068,0.026109 -0.016603,-0.010097 -0.048689,-0.021132 -0.071304,-0.024524 -0.022614,-0.00339 -0.041117,-0.00959 -0.041117,-0.013764 0,-0.00418 -0.019781,-0.019191 -0.043958,-0.03336 -0.053751,-0.0315 -0.048103,-0.045778 0.00606,-0.015334 0.049544,0.027845 0.059582,0.019893 0.080623,-0.063871 0.015244,-0.060686 0.015213,-0.064886 -5.664e-4,-0.076424 -0.019606,-0.014336 -0.071148,-0.025276 -0.096282,-0.020436 -0.0097,0.00187 -0.028105,0.022381 -0.040905,0.045584 -0.019556,0.035451 -0.021626,0.046551 -0.012964,0.0695 0.00953,0.025248 0.00858,0.027312 -0.012522,0.027312 -0.029015,0 -0.042857,0.025795 -0.042166,0.078577 0.00123,0.093904 0.037522,0.1347458 0.089485,0.1006983 0.019833,-0.012995 0.022768,-0.012531 0.033944,0.00536 0.010903,0.017459 0.018664,0.018944 0.071344,0.013654 0.03251,-0.00326 0.068831,-0.00868 0.080712,-0.012025 0.016005,-0.00451 0.021602,-0.00207 0.021602,0.00943 0,0.010569 -0.00851,0.015521 -0.026666,0.015521 -0.032683,0 -0.069343,0.02426 -0.069343,0.045888 0,0.011474 -0.00815,0.00708 -0.028816,-0.015553 -0.023168,-0.025366 -0.03493,-0.03096 -0.060006,-0.028542 -0.030386,0.00293 -0.031264,0.0043 -0.034082,0.053125 -0.00311,0.053834 0.00949,0.089096 0.031838,0.089096 0.00763,0 0.031521,-0.00706 0.053094,-0.015695 z m 0.1678229,-0.079928 c -0.00814,-0.013175 -9.342e-4,-0.023065 0.013255,-0.018188 0.00581,0.002 0.00655,0.00878 0.0018,0.016427 -0.006,0.00966 -0.00989,0.010114 -0.015055,0.00176 z m 1.0224086,0.033042 c 0.00665,-0.00802 0.012583,-0.030699 0.013177,-0.050405 0.00108,-0.035698 9.255e-4,-0.03584 -0.041355,-0.038861 -0.049271,-0.00352 -0.087179,0.00414 -0.087179,0.017616 0,0.00518 0.017847,0.00942 0.03966,0.00942 h 0.03966 l -0.00531,0.032746 c -0.00292,0.01801 -0.00277,0.035292 3.438e-4,0.038404 0.010058,0.010058 0.028605,0.00602 0.041006,-0.00892 z m -0.5396388,-0.01037 c 0.019073,-0.00388 0.02175,-0.00948 0.019202,-0.040184 -0.00251,-0.030196 -0.00674,-0.03612 -0.027538,-0.038542 -0.021857,-0.00255 -0.02592,-0.00945 -0.036706,-0.062406 -0.01718,-0.084343 -0.031222,-0.1027488 -0.07839,-0.1027488 -0.033038,0 -0.03985,0.0037 -0.048626,0.026403 -0.00561,0.014521 -0.00833,0.049803 -0.00604,0.078403 0.00528,0.065882 0.031466,0.091799 0.083463,0.082594 l 0.034069,-0.00603 -0.031372,0.029972 c -0.017254,0.016485 -0.028948,0.033894 -0.025985,0.038688 0.00493,0.00798 0.063425,0.00493 0.117923,-0.00615 z m 0.3282726,-0.022306 c 0.017298,-0.005 0.023364,-0.012774 0.021715,-0.027846 -0.0014,-0.012814 0.00304,-0.020912 0.011466,-0.020912 0.00756,0 0.025217,-0.00986 0.039229,-0.021913 0.021409,-0.018415 0.026289,-0.032049 0.030573,-0.08541 0.00471,-0.058656 0.00345,-0.064379 -0.016512,-0.075062 -0.011885,-0.00636 -0.034043,-0.00908 -0.049239,-0.00604 l -0.02763,0.00553 v -0.057997 c 0,-0.031898 -0.00433,-0.066091 -0.00963,-0.075983 -0.012325,-0.02303 -0.089628,-0.036383 -0.1104733,-0.019083 -0.019039,0.015801 -0.019144,0.1084434 -1.555e-4,0.137424 l 0.014159,0.021609 -0.1098355,-0.00274 c -0.1241425,-0.00309 -0.1297033,-2.37e-5 -0.1297033,0.071588 0,0.056914 0.017134,0.073766 0.068057,0.066936 0.0306,-0.0041 0.046618,-0.00164 0.058359,0.00899 0.013936,0.012612 0.023943,0.012978 0.072096,0.00264 0.076626,-0.016456 0.092914,-0.031954 0.086068,-0.081898 -0.00484,-0.035324 -0.00289,-0.040608 0.018674,-0.050431 0.040703,-0.018545 0.043488,-0.012738 0.01762,0.036736 -0.02342,0.04479 -0.02406,0.049484 -0.010467,0.076731 0.01372,0.027502 0.013546,0.028524 -0.00332,0.019499 -0.00979,-0.00524 -0.023481,-0.00949 -0.030429,-0.00945 -0.012571,7.68e-5 -0.055837,0.066584 -0.055837,0.085837 0,0.011298 0.077518,0.01214 0.1152115,0.00125 z M 1.2492736,1.6671397 c 0.022624,-0.07621 0.018485,-0.082981 -0.050721,-0.082981 h -0.057119 l -0.019421,0.043904 c -0.010681,0.024147 -0.017128,0.049878 -0.014326,0.05718 0.00531,0.013829 0.086964,0.0432 0.1110698,0.03995 0.00794,-0.00107 0.020946,-0.025815 0.030516,-0.058052 z m 1.3820206,0.022292 c 0.024243,-0.012974 0.024366,-0.058648 2.18e-4,-0.080502 -0.010856,-0.00982 -0.029485,-0.015335 -0.045605,-0.013489 -0.024041,0.00275 -0.02761,0.00748 -0.030292,0.040133 -0.00167,0.020357 -7.277e-4,0.04304 0.0021,0.050405 0.00603,0.015726 0.04705,0.017651 0.073579,0.00345 z M 1.7744369,1.578009 c 0.011589,-0.020708 -0.013415,-0.1193883 -0.034325,-0.1354647 -0.022461,-0.017269 -0.063999,-0.01477 -0.088841,0.00535 -0.031284,0.025332 -0.019588,0.088517 0.022533,0.1217195 0.035376,0.027886 0.087302,0.03222 0.1006326,0.0084 z M 1.9525445,1.552955 c 0.019814,-0.073935 -0.00144,-0.1153092 -0.059923,-0.1166754 -0.039706,-9.274e-4 -0.040327,-4.138e-4 -0.065054,0.053848 -0.034428,0.075548 -0.028874,0.08443 0.052799,0.08443 0.060731,0 0.066882,-0.00184 0.072177,-0.021602 z M 2.2796837,1.534017 c 0.017107,-0.024424 0.019626,-0.07679 0.00501,-0.1041054 -0.013351,-0.024946 -0.052613,-0.023599 -0.1004724,0.00345 -0.051394,0.029045 -0.055276,0.057496 -0.012804,0.093832 0.040319,0.034494 0.086835,0.037426 0.1082693,0.00682 z M 2.5962838,1.52163 c 0.032515,-0.030134 0.030411,-0.066972 -0.00505,-0.088364 -0.065891,-0.039755 -0.1387879,0.039886 -0.085387,0.093287 0.02596,0.02596 0.059054,0.024159 0.090433,-0.00492 z M 1.300775,1.5109347 C 1.315198,1.4965117 1.314844,1.4936687 1.296145,1.4737667 1.267233,1.4429907 1.214936,1.4168857 1.196426,1.4239887 c -0.023538,0.00903 -0.038001,0.054108 -0.025889,0.08069 0.0086,0.01887 0.017153,0.021874 0.062292,0.021874 0.035522,0 0.057341,-0.00502 0.067943,-0.015618 z m 0.04377,-0.080612 c 0.051601,-0.027616 0.042244,-0.092073 -0.01748,-0.1204141 -0.034354,-0.016302 -0.034592,-0.016262 -0.05672,0.00946 -0.032704,0.038021 -0.029314,0.07594 0.00898,0.1004659 0.035993,0.02305 0.040412,0.023761 0.065218,0.010485 z m 0.4909017,-0.00544 c 0.027994,-0.014476 0.029241,-0.017565 0.024232,-0.060006 l -0.00528,-0.044744 0.017904,0.038317 c 0.034968,0.074833 0.096832,0.0943 0.1520432,0.047844 0.017345,-0.014595 0.031243,-0.020329 0.034907,-0.014401 0.00335,0.00542 0.032835,0.00934 0.065526,0.00871 0.1250764,-0.00239 0.144261,-0.020102 0.092091,-0.08502 -0.027263,-0.033925 -0.035935,-0.038656 -0.070852,-0.038656 -0.038948,0 -0.073343,0.020265 -0.084637,0.049866 -0.00343,0.00898 -0.00904,0.00679 -0.019772,-0.0077 -0.019941,-0.02693 -0.090655,-0.045721 -0.1504381,-0.039976 -0.026599,0.00256 -0.050648,9.485e-4 -0.053442,-0.00357 -0.011059,-0.017894 -0.043101,-0.00649 -0.075492,0.026857 -0.018736,0.019292 -0.034066,0.029873 -0.034066,0.023513 0,-0.015636 -0.059232,-0.039395 -0.098101,-0.039351 -0.028036,2.88e-5 -0.033365,0.00454 -0.048313,0.040905 -0.020837,0.050685 -0.020972,0.063349 -9.121e-4,0.085516 0.025163,0.027805 0.062561,0.021882 0.09896,-0.015672 0.03353,-0.034594 0.048367,-0.036102 0.048367,-0.00491 0,0.017736 0.039751,0.046574 0.065283,0.04736 0.00686,2.112e-4 0.025759,-0.00648 0.041991,-0.014877 z m 0.6605335,-0.032606 c 0.045536,-0.023231 0.052072,-0.032706 0.03918,-0.056796 -0.018488,-0.034544 -0.040102,-0.048952 -0.073437,-0.048952 -0.026756,0 -0.034962,0.00475 -0.042519,0.024627 -0.015091,0.039692 -0.010948,0.069183 0.011975,0.085239 0.026121,0.018296 0.020116,0.018678 0.064802,-0.00412 z M 1.1914455,1.3729373 c 0.012024,0 0.046997,-0.058319 0.047043,-0.078445 4.8e-5,-0.020555 -0.049487,-0.032167 -0.076209,-0.017866 -0.015246,0.00816 -0.019765,0.020012 -0.019765,0.051844 0,0.045275 0.00648,0.057318 0.026686,0.049566 0.00731,-0.0028 0.017319,-0.0051 0.022245,-0.0051 z m 1.1722524,-0.00762 c 0.010263,-0.010263 -0.042823,-0.1376847 -0.062544,-0.1501244 -0.00963,-0.00608 -0.022202,-0.0037 -0.039159,0.00741 -0.027497,0.018017 -0.032572,0.052286 -0.014703,0.099286 0.018026,0.047411 0.038591,0.063022 0.075199,0.057081 0.018088,-0.00294 0.03663,-0.00908 0.041206,-0.013656 z m -0.8252112,-0.00418 c 0.00671,-0.020121 -0.042492,-0.121877 -0.061907,-0.128039 -0.024714,-0.00784 -0.059694,0.016865 -0.074508,0.05263 -0.017411,0.042033 0.00509,0.075025 0.054709,0.080205 0.070241,0.00733 0.077811,0.00689 0.081706,-0.0048 z M 2.0840262,1.279836 c 0.034735,-0.020518 0.038298,-0.030217 0.027994,-0.076187 -0.00458,-0.020423 -0.01081,-0.049013 -0.01385,-0.063535 -0.00443,-0.021173 -0.010832,-0.026403 -0.032311,-0.026403 -0.045109,0 -0.061745,0.019958 -0.066729,0.080055 -0.00331,0.039972 -3.562e-4,0.060437 0.011313,0.078246 0.018546,0.028304 0.035806,0.030139 0.073583,0.00782 z M 1.4094511,1.2101901 c 0.022162,-0.031425 0.040294,-0.061557 0.040294,-0.06696 0,-0.015345 -0.056531,-0.040754 -0.076541,-0.034404 -0.028836,0.00915 -0.086676,0.079339 -0.086676,0.1051786 0,0.013328 0.0092,0.029874 0.021338,0.038376 0.038642,0.027066 0.058585,0.018783 0.101585,-0.042191 z m 0.2101602,0.046646 c 0.00759,-0.00759 0.016452,-0.0073 0.032026,0.00104 0.024528,0.013127 0.1227674,-0.00226 0.1595972,-0.024999 0.015122,-0.00934 0.029252,-0.010287 0.052742,-0.00355 0.052668,0.015105 0.1022996,0.011528 0.1128205,-0.00813 0.010768,-0.02012 0.00305,-0.096811 -0.011598,-0.115314 -0.016933,-0.021382 -0.064197,-0.041469 -0.083306,-0.035404 -0.012558,0.00399 -0.021686,0.021618 -0.029677,0.057325 -0.017643,0.078836 -0.021005,0.080907 -0.065732,0.040498 -0.035719,-0.03227 -0.0441,-0.035383 -0.095255,-0.035383 -0.043897,0 -0.059868,-0.00417 -0.073468,-0.019202 -0.021999,-0.024309 -0.053063,-0.024359 -0.1004945,-1.613e-4 -0.064072,0.032687 -0.060427,0.07337 0.011225,0.1252747 0.040894,0.029623 0.073134,0.035996 0.091119,0.018011 z m 0.624156,-0.0586 c 0.017413,-0.016877 0.03166,-0.037671 0.03166,-0.046209 0,-0.016766 -0.040916,-0.058932 -0.072007,-0.074207 -0.022511,-0.01106 -0.076085,0.00765 -0.084469,0.029497 -0.00614,0.01601 0.01096,0.092079 0.024644,0.1096037 0.017887,0.022908 0.066641,0.013814 0.100172,-0.018685 z M 1.261759,1.1597669 c 0.00543,-0.030809 0.00311,-0.037622 -0.017405,-0.051064 -0.032723,-0.021441 -0.086609,-0.015569 -0.090018,0.00981 -0.00413,0.030736 0.028666,0.085168 0.055385,0.091927 0.030346,0.00768 0.044114,-0.00573 0.052038,-0.050672 z m 0.5664023,-0.06435 c 0.00911,-0.010062 0.022885,-0.039225 0.03062,-0.064806 0.013506,-0.0446638 0.01324,-0.0471849 -0.00668,-0.0634358 -0.028771,-0.0234704 -0.063871,-0.0306669 -0.080849,-0.0165765 -0.021974,0.0182369 -0.019967,0.1396425 0.00252,0.1527429 0.024463,0.014249 0.035815,0.012595 0.054384,-0.00792 z m -0.1115096,-0.00283 c 0.013076,-0.013076 0.015312,-0.082848 0.00326,-0.10184366 -0.00537,-0.008471 -0.024842,-0.0115939 -0.059859,-0.009601 l -0.051897,0.002954 -0.00289,0.0447171 c -0.00242,0.037476 6.443e-4,0.047193 0.018938,0.060006 0.025764,0.018045 0.076113,0.020098 0.092443,0.00377 z m 0.3355535,-0.013732 c 0.029758,-0.00797 0.027494,-0.018003 -0.017518,-0.077622 -0.036275,-0.0480457 -0.041687,-0.0516006 -0.074407,-0.0488772 -0.034793,0.002896 -0.035287,0.003523 -0.035287,0.0447143 0,0.0396683 0.00217,0.0429398 0.043056,0.0648065 0.046334,0.024782 0.051298,0.025784 0.084157,0.016978 z M 1.3548073,1.0603518 c 0.037824,-0.01956 0.033941,-0.046204 -0.012157,-0.0834112 -0.042188,-0.034052 -0.068976,-0.0296628 -0.084122,0.0137832 -0.013937,0.0399799 -0.01315,0.051663 0.00468,0.0694964 0.019193,0.019193 0.054635,0.019244 0.091595,1.315e-4 z m 0.1928451,-0.033049 c 0.00901,-0.018482 0.016589,-0.0412275 0.016843,-0.0505461 5.117e-4,-0.0187941 -0.053178,-0.0559837 -0.070968,-0.0491574 -0.019214,0.007373 -0.075148,0.1079805 -0.068976,0.1240652 0.00445,0.011585 0.017406,0.014384 0.056248,0.012147 0.047038,-0.00271 0.051585,-0.00519 0.066853,-0.036509 z m -0.3717271,7.68e-5 c 0.014139,-0.00538 0.030814,-0.023158 0.038264,-0.040804 0.011491,-0.0272195 0.01127,-0.0334236 -0.0017,-0.0478328 -0.020347,-0.0226057 -0.04651,-0.0296049 -0.067892,-0.018162 -0.022387,0.0119811 -0.054466,0.0814702 -0.046815,0.101409 0.00652,0.017002 0.041292,0.0194 0.078142,0.00539 z m 0.9785403,-0.003 c 0.015757,-0.011522 0.013671,-0.015347 -0.026183,-0.0480048 -0.039437,-0.0323157 -0.064076,-0.0439314 -0.064076,-0.0302079 0,0.002902 0.00702,0.0191041 0.015601,0.0360036 0.029561,0.0582186 0.042646,0.0656167 0.074658,0.0422091 z M 1.4143725,0.93969433 c 0.055239,-0.0284499 0.077086,-0.069158 0.055451,-0.10332158 -0.00464,-0.007322 -0.029903,-0.0153754 -0.056147,-0.0178972 -0.041894,-0.004026 -0.049634,-0.001848 -0.06343,0.0178487 -0.024994,0.0356843 -0.020339,0.0780522 0.01069,0.0972901 0.031832,0.0197359 0.02781,0.0192783 0.053436,0.00608 z m 0.321001,-0.0235905 c 0.017162,-0.006949 0.031203,-0.0151865 0.031203,-0.0183066 0,-0.00312 -0.00873,-0.0227825 -0.019397,-0.0436942 -0.028606,-0.0560724 -0.046034,-0.0501373 -0.095618,0.0325622 -0.018186,0.0303329 -0.01978,0.0384587 -0.00886,0.0452051 0.014487,0.008953 0.04404,0.003926 0.092675,-0.0157665 z m -0.118524,-0.0465263 c 0.013703,-0.0233825 0.024915,-0.0471449 0.024915,-0.0528053 0,-0.0172199 -0.1147082,-0.0131739 -0.1214067,0.004282 -0.00725,0.0189003 0.013885,0.0697016 0.033857,0.0813713 0.027187,0.0158853 0.037132,0.0106699 0.062635,-0.032848 z M 1.2922992,0.85883882 c 0.00858,-0.0341951 -7.863e-4,-0.0390893 -0.039494,-0.0206309 -0.047362,0.0225852 -0.044199,0.0450804 0.00634,0.0450804 0.020946,0 0.028399,-0.005496 0.033156,-0.0244495 z"
       id="path140"
       inkscape:connector-curvature="0" />
    <path
       style="fill:#4269cc;stroke-width:0.00960096"
       d="M 1.689769,3.7721913 C 1.4003112,3.7396476 1.0901211,3.6275532 0.84877953,3.4682804 0.32431499,3.1221612 0,2.5196379 0,1.8913891 0,1.2631404 0.32431499,0.66061708 0.84877953,0.31449789 1.4086127,-0.05496276 2.1242227,-0.10026854 2.7237131,0.19579451 3.6626274,0.65948476 4.0488775,1.7907717 3.5868087,2.7237131 3.3953272,3.1103243 3.1103243,3.3953272 2.7237131,3.5868087 2.4082487,3.7430524 2.0314657,3.8106083 1.689769,3.7721913 Z M 1.680168,3.071819 C 1.8145773,3.0504015 2.0429217,2.9592926 2.1769293,2.8736123 2.3023582,2.793417 2.4720808,2.6377073 2.5062902,2.5714446 2.5126478,2.5591303 2.5534111,2.4950495 2.5968753,2.4290429 2.78474,2.1437441 2.808397,2.0957197 2.819161,1.9777978 2.8227799,1.9381524 2.8169576,1.8986728 2.7957983,1.8193819 2.7530148,1.6590576 2.719328,1.5897614 2.5811029,1.3777378 2.5136295,1.2742401 2.4156574,1.1788693 2.3527463,1.1554442 2.3239843,1.1447342 2.2779363,1.1169222 2.2504169,1.0936392 2.2105399,1.0599002 2.1997159,1.0444832 2.1971009,1.0177022 2.1941709,0.9876437 2.1882509,0.9813461 2.1410149,0.9580043 2.0999709,0.937722 2.0740369,0.9318412 2.0245787,0.9316017 1.9558997,0.93126912 1.9432307,0.9238277 1.9311187,0.8767018 1.9261487,0.8573486 1.9120697,0.8438226 1.8814977,0.8290166 1.7955697,0.7874012 1.5374592,0.7707815 1.3729385,0.7962706 1.2790465,0.8108173 1.1189846,0.8611377 1.0390086,0.90125203 c -0.0302,0.0151477 -0.0894724,0.0392999 -0.13171667,0.0536715 -0.0422442,0.0143717 -0.0810182,0.0301619 -0.0861645,0.0350894 -0.005954,0.005701 0.0112769,0.0280097 0.0473855,0.0613477 0.0312083,0.028814 0.053877,0.055254 0.0503749,0.058756 -0.008537,0.00854 -0.0887019,-0.022616 -0.10322442,-0.040114 C 0.79540386,1.0455919 0.7744937,1.0548531 0.70247361,1.1201335 0.6062144,1.2073847 0.47775958,1.3787483 0.41413445,1.504789 0.35072495,1.6304025 0.25922592,1.9179669 0.25922592,1.9916377 c 0,0.030352 0.0106332,0.030881 0.10997324,0.00547 0.0761104,-0.019466 0.0916469,-0.018693 0.0916469,0.00456 0,0.021727 -0.0483983,0.052964 -0.10753392,0.069405 -0.0488559,0.013583 -0.0556824,0.018422 -0.0556824,0.039471 0,0.027467 0.10616686,0.2330657 0.17183824,0.3327748 0.0243008,0.036896 0.0549844,0.072476 0.0681858,0.079066 0.0132013,0.00659 0.0507501,0.012046 0.0834418,0.012124 0.0326917,7.68e-5 0.0622265,0.00465 0.065633,0.010163 0.0113334,0.018338 -0.0164276,0.037983 -0.0536742,0.037983 -0.0201639,0 -0.0392534,0.00419 -0.0424211,0.00932 -0.0192268,0.03111 0.13801924,0.1896815 0.26985181,0.2721273 0.15972211,0.099887 0.39558881,0.1897969 0.54605561,0.2081499 0.088264,0.010766 0.2044918,0.010581 0.2736273,-4.358e-4 z M 1.9211696,2.3532128 c -0.010023,-0.010023 -0.02139,-0.032706 -0.025259,-0.050405 -0.00387,-0.017699 -0.01727,-0.041695 -0.02978,-0.053324 -0.018046,-0.016775 -0.022746,-0.031014 -0.022746,-0.06891 0,-0.052414 -0.016183,-0.072452 -0.078815,-0.09759 -0.017378,-0.00697 -0.0419,-0.020533 -0.054493,-0.03013 -0.016489,-0.012566 -0.039708,-0.017449 -0.082968,-0.017449 -0.055542,0 -0.06051,-0.00175 -0.065903,-0.02324 -0.00683,-0.027222 0.00118,-0.053212 0.016779,-0.054414 0.00604,-4.647e-4 0.051693,-7.45e-4 0.1014614,-6.231e-4 l 0.090488,2.228e-4 0.034325,-0.037128 c 0.045014,-0.048691 0.1195476,-0.076826 0.203535,-0.076833 0.03498,-2.6e-6 0.081689,-0.00639 0.1037994,-0.014188 0.024311,-0.00858 0.073171,-0.013962 0.1236194,-0.013623 0.045881,3.082e-4 0.1056456,6.288e-4 0.132811,7.133e-4 0.027166,8.64e-5 0.063889,-0.00635 0.081608,-0.014288 0.036153,-0.016205 0.1399458,-0.028331 0.146852,-0.017157 0.00718,0.011625 -0.021024,0.095404 -0.042077,0.1249707 -0.010607,0.014895 -0.031386,0.029503 -0.046176,0.032461 -0.047662,0.00953 -0.079187,0.042118 -0.079187,0.081852 0,0.02683 -0.00694,0.041889 -0.028831,0.06255 -0.015857,0.014966 -0.031402,0.037458 -0.034546,0.049982 -0.00551,0.02195 -0.059692,0.061958 -0.083911,0.061958 -0.00648,0 -0.035393,0.015253 -0.064258,0.033896 -0.028865,0.018643 -0.07754,0.043063 -0.1081661,0.054266 -0.030627,0.011204 -0.061216,0.028268 -0.067977,0.03792 -0.011681,0.016677 -0.070885,0.046735 -0.092052,0.046735 -0.00545,0 -0.01811,-0.0082 -0.028134,-0.018224 z M 0.71767177,1.7562067 c -0.0240984,-0.014036 -0.0207566,-0.024829 0.009601,-0.031007 0.0277991,-0.00566 0.0979106,-0.049047 0.13441344,-0.083184 0.0185961,-0.017391 0.0216022,-0.029985 0.0216022,-0.090502 0,-0.069611 -4.0679e-4,-0.070737 -0.0414751,-0.1148375 -0.0360174,-0.038677 -0.0464403,-0.044482 -0.0792079,-0.044119 -0.0781571,8.661e-4 -0.11771271,0.014837 -0.16474245,0.058188 -0.0375897,0.034649 -0.0461641,0.038988 -0.0489066,0.024747 -0.001829,-0.0095 -0.001062,-0.023166 0.001704,-0.030375 0.008878,-0.023135 0.11175562,-0.092581 0.14518839,-0.098006 0.0483601,-0.00785 0.12377175,0.013629 0.15207772,0.043312 0.0388407,0.040729 0.066821,0.1150532 0.060284,0.1601322 -0.0172005,0.118615 -0.0181993,0.1203131 -0.10476781,0.1781214 -0.062443,0.041698 -0.0618007,0.041492 -0.0857709,0.02753 z M 0.63919711,1.6319539 c -0.0357465,-0.038216 -0.0437414,-0.05265 -0.0385535,-0.069607 0.0115907,-0.037884 0.0735248,-0.1428138 0.0874486,-0.1481569 0.00742,-0.00285 0.042494,0.00939 0.0779413,0.02719 0.056714,0.028482 0.0661051,0.037156 0.0782424,0.072264 0.0110383,0.031929 0.0115677,0.047323 0.002651,0.077085 -0.009466,0.031594 -0.0191555,0.041118 -0.0644105,0.063314 -0.0749819,0.036774 -0.0904959,0.034383 -0.1433193,-0.022089 z m -0.10120554,-0.00876 c -0.0127817,-0.023883 -0.0128711,-0.084094 -1.366e-4,-0.091965 0.0118236,-0.00731 0.0382026,0.052231 0.0382026,0.086225 0,0.029192 -0.0236096,0.032752 -0.038066,0.00574 z"
       id="path138"
       inkscape:connector-curvature="0" />
    <path
       style="fill:#e93d46;stroke-width:0.00960096"
       d="M 1.7761776,3.41385 C 1.608808,3.3849743 1.3958684,3.2751981 1.2348908,3.1348019 1.1790083,3.0860642 1.1287191,3.0541028 1.0383428,3.0098855 0.97154468,2.977204 0.91066955,2.9429631 0.9030647,2.9337948 0.89545986,2.9246264 0.86377417,2.9042711 0.83265207,2.8885606 0.80152997,2.8728503 0.75806715,2.8438164 0.73606802,2.824041 0.7140689,2.8042656 0.6782377,2.7743246 0.65644316,2.7575052 0.6346486,2.7406859 0.59879491,2.697705 0.57676829,2.6619922 0.55474166,2.6262793 0.51348065,2.560336 0.48507715,2.5154516 0.40170587,2.3837045 0.23820948,2.0718884 0.23337073,2.0354036 c -0.00639,-0.048182 0.021795,-0.2216565 0.0456356,-0.2808782 0.076635,-0.190367 0.10695712,-0.2561581 0.15359062,-0.3332511 0.0690513,-0.1141534 0.1491226,-0.2191947 0.23445032,-0.3075629 0.0574549,-0.059502 0.0818683,-0.092504 0.0901266,-0.12183246 0.0115626,-0.0410632 0.0166796,-0.0446411 0.0787272,-0.0550476 0.0372115,-0.006241 0.11774159,-0.0610829 0.20100263,-0.13688499 0.029043,-0.0264411 0.080888,-0.0669123 0.1152115,-0.0899359 0.034324,-0.0230237 0.09481,-0.0661955 0.1344135,-0.0959374 0.039604,-0.0297419 0.1216921,-0.0879078 0.1824182,-0.12925752 0.060726,-0.0413497 0.1309412,-0.0924246 0.1560335,-0.11349965 l 0.045622,-0.0383183 0.060818,0.0296538 c 0.047899,0.0233548 0.083303,0.0531992 0.166669,0.14049857 0.1282233,0.13427273 0.1721032,0.19610148 0.1912735,0.26951284 0.018783,0.0719268 0.071636,0.13423652 0.166862,0.19671777 0.092113,0.0604385 0.1195895,0.0709721 0.1470433,0.0563718 0.028777,-0.015304 0.3213927,-0.23429312 0.3570071,-0.2671786 0.040556,-0.0374484 0.1389924,-0.0973286 0.2382132,-0.14490844 0.068864,-0.0330227 0.097626,-0.0414037 0.1546483,-0.0450632 0.065149,-0.004181 0.071154,-0.00292 0.085819,0.0180175 0.00867,0.0123822 0.015769,0.0291681 0.015769,0.037302 0,0.008134 0.00972,0.0190538 0.021602,0.0242664 0.021365,0.009373 0.021564,0.0112311 0.018142,0.16897366 -0.00273,0.12563276 0.0011,0.19391388 0.018,0.32160158 0.026286,0.1985615 0.020437,0.2670726 -0.044997,0.5270032 -0.041654,0.1654686 -0.0694,0.3241722 -0.07005,0.400671 -2.122e-4,0.024956 0.010804,0.054103 0.036286,0.09601 0.067966,0.1117767 0.1001781,0.1903378 0.099468,0.2425933 -9.737e-4,0.0717 -0.047947,0.2501305 -0.085866,0.3261682 -0.050587,0.1014409 -0.071073,0.1657997 -0.078013,0.2450889 -0.00347,0.039604 -0.014006,0.086335 -0.02342,0.1038468 -0.015483,0.0288 -0.020041,0.031206 -0.047745,0.025199 C 3.0812891,3.1016916 3.0340551,3.081931 2.9931696,3.0614312 2.9280913,3.0288012 2.8944685,3.0002517 2.7232175,2.8322114 2.6156292,2.7266403 2.5237884,2.6401697 2.5191267,2.6400543 c -0.00466,-1.153e-4 -0.045199,0.037688 -0.090084,0.084008 -0.044884,0.04632 -0.1144919,0.1131155 -0.1546833,0.1484345 -0.075671,0.066497 -0.084819,0.082114 -0.1197532,0.2044316 -0.00751,0.026304 -0.015832,0.095431 -0.018487,0.1536153 -0.0046,0.1007429 -0.00608,0.1068617 -0.03117,0.128264 C 2.03712,3.4166795 1.9130111,3.4374574 1.7761776,3.41385 Z M 1.680168,3.071819 C 1.8145773,3.0504015 2.0429217,2.9592926 2.1769293,2.8736123 2.3023582,2.793417 2.4720808,2.6377073 2.5062902,2.5714446 2.5126478,2.5591303 2.5534111,2.4950495 2.5968753,2.4290429 2.78474,2.1437441 2.808397,2.0957197 2.819161,1.9777978 2.8227799,1.9381524 2.8169576,1.8986728 2.7957983,1.8193819 2.7530148,1.6590576 2.719328,1.5897614 2.5811029,1.3777378 2.5136295,1.2742401 2.4156574,1.1788693 2.3527463,1.1554442 2.3239843,1.1447342 2.2779363,1.1169222 2.2504169,1.0936392 2.2105399,1.0599002 2.1997159,1.0444832 2.1971009,1.0177022 2.1941709,0.9876437 2.1882509,0.9813461 2.1410149,0.9580043 2.0999709,0.937722 2.0740369,0.9318412 2.0245787,0.9316017 1.9558997,0.93126912 1.9432307,0.9238277 1.9311187,0.8767018 1.9261487,0.8573486 1.9120697,0.8438226 1.8814977,0.8290166 1.7955697,0.7874012 1.5374592,0.7707815 1.3729385,0.7962706 1.2790465,0.8108173 1.1189846,0.8611377 1.0390086,0.90125203 c -0.0302,0.0151477 -0.0894724,0.0392999 -0.13171667,0.0536715 -0.0422442,0.0143717 -0.0810182,0.0301619 -0.0861645,0.0350894 -0.005954,0.005701 0.0112769,0.0280097 0.0473855,0.0613477 0.0312083,0.028814 0.053877,0.055254 0.0503749,0.058756 -0.008537,0.00854 -0.0887019,-0.022616 -0.10322442,-0.040114 C 0.79540386,1.0455919 0.7744937,1.0548531 0.70247361,1.1201335 0.6062144,1.2073847 0.47775958,1.3787483 0.41413445,1.504789 0.35072495,1.6304025 0.25922592,1.9179669 0.25922592,1.9916377 c 0,0.030352 0.0106332,0.030881 0.10997324,0.00547 0.0761104,-0.019466 0.0916469,-0.018693 0.0916469,0.00456 0,0.021727 -0.0483983,0.052964 -0.10753392,0.069405 -0.0488559,0.013583 -0.0556824,0.018422 -0.0556824,0.039471 0,0.027467 0.10616686,0.2330657 0.17183824,0.3327748 0.0243008,0.036896 0.0549844,0.072476 0.0681858,0.079066 0.0132013,0.00659 0.0507501,0.012046 0.0834418,0.012124 0.0326917,7.68e-5 0.0622265,0.00465 0.065633,0.010163 0.0113334,0.018338 -0.0164276,0.037983 -0.0536742,0.037983 -0.0201639,0 -0.0392534,0.00419 -0.0424211,0.00932 -0.0192268,0.03111 0.13801924,0.1896815 0.26985181,0.2721273 0.15972211,0.099887 0.39558881,0.1897969 0.54605561,0.2081499 0.088264,0.010766 0.2044918,0.010581 0.2736273,-4.358e-4 z M 1.9211696,2.3532128 c -0.010023,-0.010023 -0.02139,-0.032706 -0.025259,-0.050405 -0.00387,-0.017699 -0.01727,-0.041695 -0.02978,-0.053324 -0.018046,-0.016775 -0.022746,-0.031014 -0.022746,-0.06891 0,-0.052414 -0.016183,-0.072452 -0.078815,-0.09759 -0.017378,-0.00697 -0.0419,-0.020533 -0.054493,-0.03013 -0.016489,-0.012566 -0.039708,-0.017449 -0.082968,-0.017449 -0.055542,0 -0.06051,-0.00175 -0.065903,-0.02324 -0.00683,-0.027222 0.00118,-0.053212 0.016779,-0.054414 0.00604,-4.647e-4 0.051693,-7.45e-4 0.1014614,-6.231e-4 l 0.090488,2.228e-4 0.034325,-0.037128 c 0.045014,-0.048691 0.1195476,-0.076826 0.203535,-0.076833 0.03498,-2.6e-6 0.081689,-0.00639 0.1037994,-0.014188 0.024311,-0.00858 0.073171,-0.013962 0.1236194,-0.013623 0.045881,3.082e-4 0.1056456,6.288e-4 0.132811,7.133e-4 0.027166,8.64e-5 0.063889,-0.00635 0.081608,-0.014288 0.036153,-0.016205 0.1399458,-0.028331 0.146852,-0.017157 0.00718,0.011625 -0.021024,0.095404 -0.042077,0.1249707 -0.010607,0.014895 -0.031386,0.029503 -0.046176,0.032461 -0.047662,0.00953 -0.079187,0.042118 -0.079187,0.081852 0,0.02683 -0.00694,0.041889 -0.028831,0.06255 -0.015857,0.014966 -0.031402,0.037458 -0.034546,0.049982 -0.00551,0.02195 -0.059692,0.061958 -0.083911,0.061958 -0.00648,0 -0.035393,0.015253 -0.064258,0.033896 -0.028865,0.018643 -0.07754,0.043063 -0.1081661,0.054266 -0.030627,0.011204 -0.061216,0.028268 -0.067977,0.03792 -0.011681,0.016677 -0.070885,0.046735 -0.092052,0.046735 -0.00545,0 -0.01811,-0.0082 -0.028134,-0.018224 z M 0.65326956,1.6336498 c -0.0215351,-0.020486 -0.0388081,-0.045978 -0.0388081,-0.057275 0,-0.035015 0.0665733,-0.1458314 0.0876089,-0.1458314 0.0279464,0 0.11190862,0.045338 0.1232675,0.066563 0.0113891,0.021281 0.0131231,0.096167 0.002598,0.1121962 -0.009178,0.013977 -0.10299168,0.061265 -0.12154179,0.061265 -0.007874,0 -0.03178,-0.016613 -0.0531245,-0.036918 z"
       id="path136"
       inkscape:connector-curvature="0" />
    <path
       style="fill:#2c2e58;stroke-width:0.00960096"
       d="M 1.7761776,3.41385 C 1.608808,3.3849743 1.3958684,3.2751981 1.2348908,3.1348019 1.1790083,3.0860642 1.1287191,3.0541028 1.0383428,3.0098855 0.97154468,2.977204 0.91066955,2.9429631 0.9030647,2.9337948 0.89545986,2.9246264 0.86377417,2.9042711 0.83265207,2.8885606 0.80152997,2.8728503 0.75806715,2.8438164 0.73606802,2.824041 0.7140689,2.8042656 0.6782377,2.7743246 0.65644316,2.7575052 0.6346486,2.7406859 0.59879491,2.697705 0.57676829,2.6619922 0.55474166,2.6262793 0.51348065,2.560336 0.48507715,2.5154516 0.40170587,2.3837045 0.23820948,2.0718884 0.23337073,2.0354036 c -0.00639,-0.048182 0.021795,-0.2216565 0.0456356,-0.2808782 0.076635,-0.190367 0.10695712,-0.2561581 0.15359062,-0.3332511 0.0690513,-0.1141534 0.1491226,-0.2191947 0.23445032,-0.3075629 0.0574549,-0.059502 0.0818683,-0.092504 0.0901266,-0.12183246 0.0115626,-0.0410632 0.0166796,-0.0446411 0.0787272,-0.0550476 0.0372115,-0.006241 0.11774159,-0.0610829 0.20100263,-0.13688499 0.029043,-0.0264411 0.080888,-0.0669123 0.1152115,-0.0899359 0.034324,-0.0230237 0.09481,-0.0661955 0.1344135,-0.0959374 0.039604,-0.0297419 0.1216921,-0.0879078 0.1824182,-0.12925752 0.060726,-0.0413497 0.1306012,-0.0921379 0.1552782,-0.1128627 0.032108,-0.0269659 0.050291,-0.03596 0.063939,-0.031628 0.041428,0.0131487 0.041435,0.0273245 5.76e-5,0.11171011 -0.040843,0.0833004 -0.046534,0.11628098 -0.026684,0.1546252 0.028762,0.0555601 0.074602,0.0814627 0.2361887,0.13346383 0.054923,0.0176751 0.1115461,0.0444609 0.1507908,0.0713323 0.034566,0.0236661 0.067227,0.0430292 0.072583,0.0430292 0.00536,0 0.019588,0.0134786 0.031627,0.0299524 0.023743,0.0324882 0.1424013,0.11682853 0.195694,0.13909563 0.026147,0.010925 0.037524,0.011434 0.054438,0.00244 0.029084,-0.015469 0.3215242,-0.23425544 0.3574164,-0.26739739 0.040556,-0.0374484 0.1389924,-0.0973286 0.2382132,-0.14490844 0.068864,-0.0330227 0.097626,-0.0414037 0.1546483,-0.0450632 0.065149,-0.004181 0.071154,-0.00292 0.085819,0.0180175 0.00867,0.0123822 0.015769,0.0298758 0.015769,0.0388747 0,0.008999 0.00756,0.0178599 0.016802,0.0196911 0.011399,0.002259 0.013192,0.005601 0.00557,0.0103932 -0.00617,0.003885 -0.017748,5.4332e-4 -0.025717,-0.007426 -0.00797,-0.007969 -0.021033,-0.0144897 -0.02903,-0.0144897 -0.037692,0 -0.2164379,0.19621152 -0.3270034,0.35895571 l -0.064493,0.0949293 0.00384,0.068287 c 0.0029,0.051524 0.013705,0.093033 0.044025,0.1690971 0.043619,0.1094279 0.045115,0.1197015 0.034641,0.2377898 -0.00769,0.086673 -0.00766,0.086774 0.06145,0.2368292 0.019297,0.041899 0.052615,0.1002245 0.074039,0.129613 0.021424,0.029389 0.051293,0.076153 0.066377,0.1039202 0.015083,0.027768 0.052395,0.073563 0.082914,0.101767 0.03052,0.028204 0.058364,0.062731 0.061877,0.076726 0.00351,0.013995 0.00973,0.025446 0.013827,0.025446 0.00409,0 0.00961,0.00756 0.012271,0.016802 0.00266,0.00924 0.0077,0.023735 0.011213,0.032209 0.00487,0.011761 -0.00508,0.020337 -0.042039,0.036238 -0.026631,0.011456 -0.068977,0.024887 -0.094102,0.029846 -0.1988548,0.039249 -0.2750907,0.057871 -0.2820846,0.068904 -0.012636,0.019935 -0.010199,0.039706 0.014836,0.1203358 0.012791,0.041197 0.034322,0.1171436 0.047846,0.1687711 0.03395,0.1296031 0.063567,0.1870061 0.1331643,0.258098 0.089597,0.091521 0.087552,0.087586 0.060619,0.1166465 C 3.1079474,3.114678 3.0935524,3.112163 2.9883356,3.059153 2.9293197,3.0294154 2.8891319,2.9950151 2.7231893,2.8321838 2.6156165,2.7266279 2.5237884,2.6401697 2.5191267,2.6400543 c -0.00466,-1.153e-4 -0.045199,0.037688 -0.090084,0.084008 -0.044884,0.04632 -0.1144919,0.1131155 -0.1546833,0.1484345 -0.075671,0.066497 -0.084819,0.082114 -0.1197532,0.2044316 -0.00751,0.026304 -0.015832,0.095431 -0.018487,0.1536153 -0.0046,0.1007429 -0.00608,0.1068617 -0.03117,0.128264 C 2.03712,3.4166795 1.9130111,3.4374574 1.7761776,3.41385 Z M 1.7473747,3.0766125 C 1.9959125,3.0184157 2.2723668,2.858648 2.4359587,2.6786679 2.5316715,2.5733669 2.754501,2.2245472 2.8044282,2.1018619 2.8559382,1.9752869 2.8375696,1.8241775 2.7473325,1.6321632 2.6937245,1.5180916 2.5708286,1.3303294 2.493673,1.2446185 2.4398874,1.1848689 2.4146065,1.1654853 2.3469547,1.1321253 2.2673572,1.0928745 2.2274228,1.0563464 2.2274228,1.0227892 c 0,-0.0517343 -0.078652,-0.0953858 -0.1919904,-0.10655386 l -0.069856,-0.006883 -0.014474,-0.0368472 c -0.027739,-0.070616 -0.1308883,-0.0975304 -0.3765446,-0.0982504 -0.2349996,-6.8868e-4 -0.3499793,0.0242339 -0.5664567,0.122783 -0.050165,0.0228371 -0.11577306,0.0485677 -0.14579565,0.0571791 -0.0684647,0.0196377 -0.0825133,0.0464859 -0.0403693,0.0771491 0.052453,0.038164 0.0740464,0.060099 0.0647924,0.065818 -0.005122,0.00317 -0.0182281,6.183e-4 -0.0291249,-0.00566 -0.0108968,-0.00628 -0.0331035,-0.018966 -0.0493483,-0.028195 l -0.029536,-0.016779 -0.068362,0.058984 C 0.62190307,1.1818528 0.50543071,1.334742 0.42357015,1.4819888 0.35677906,1.6021293 0.25922592,1.9018024 0.25922592,1.9868372 c 0,0.026082 0.00315,0.029364 0.0281779,0.029364 0.0154978,0 0.0381801,-0.00378 0.050405,-0.00841 0.012225,-0.00462 0.0449095,-0.011511 0.0726322,-0.015302 0.0427729,-0.00585 0.050405,-0.00456 0.050405,0.00855 0,0.020101 -0.0492997,0.050101 -0.1134447,0.069034 -0.0280711,0.00829 -0.0534993,0.021478 -0.056507,0.029316 -0.008787,0.022897 0.13232835,0.2890997 0.20982869,0.3958258 0.0197095,0.027142 0.076386,0.048062 0.13171567,0.048617 0.0362041,3.629e-4 0.0403353,0.0024 0.0300275,0.014823 -0.007293,0.00879 -0.0283347,0.014401 -0.0539809,0.014401 -0.0734153,0 -0.0541521,0.043505 0.0747228,0.1687563 0.12624633,0.1226969 0.23434936,0.1874219 0.47872362,0.2866282 0.052716,0.021401 0.1607761,0.049742 0.215806,0.056601 0.083237,0.010374 0.3115715,0.00517 0.3696369,-0.00843 z M 1.9222573,2.3365389 c -0.00517,-0.00985 -0.012339,-0.031631 -0.015939,-0.048404 -0.0036,-0.016773 -0.017072,-0.037395 -0.029939,-0.045826 -0.018073,-0.011842 -0.023395,-0.02372 -0.023395,-0.052216 0,-0.048982 -0.02434,-0.077989 -0.1006251,-0.1199211 -0.045301,-0.024901 -0.079358,-0.035951 -0.1253113,-0.040659 l -0.063103,-0.00647 0.00291,-0.029826 0.00291,-0.029825 0.1008101,-0.0048 c 0.093312,-0.00444 0.1034009,-0.00687 0.1356434,-0.03267 0.075371,-0.060304 0.1877675,-0.084612 0.4500151,-0.097325 0.066205,-0.00321 0.1532585,-0.014113 0.1941651,-0.02432 0.040784,-0.010176 0.089389,-0.018502 0.1080108,-0.018502 0.042871,0 0.043186,0.013926 0.00205,0.090691 -0.023117,0.043136 -0.037354,0.058853 -0.058252,0.064312 -0.036891,0.00964 -0.073153,0.044938 -0.073153,0.071216 0,0.011688 -0.014041,0.042434 -0.031203,0.068324 -0.017162,0.02589 -0.035594,0.054903 -0.04096,0.064472 -0.00944,0.016826 -0.2197412,0.1322112 -0.2782719,0.1526753 -0.015842,0.00554 -0.039747,0.018086 -0.053123,0.027883 -0.013376,0.0098 -0.03996,0.020351 -0.059077,0.023453 -0.027759,0.0045 -0.036648,0.00203 -0.044151,-0.012267 z M 0.65326956,1.6336498 c -0.0215351,-0.020486 -0.0388081,-0.045978 -0.0388081,-0.057275 0,-0.035015 0.0665733,-0.1458314 0.0876089,-0.1458314 0.0279464,0 0.11190862,0.045338 0.1232675,0.066563 0.0113891,0.021281 0.0131231,0.096167 0.002598,0.1121962 -0.009178,0.013977 -0.10299168,0.061265 -0.12154179,0.061265 -0.007874,0 -0.03178,-0.016613 -0.0531245,-0.036918 z"
       id="path134"
       inkscape:connector-curvature="0" />
  </g>
</svg>
