<?xml version="1.0" encoding="UTF-8" standalone="no"?>
<!-- Created with Inkscape (http://www.inkscape.org/) -->

<svg
   xmlns:dc="http://purl.org/dc/elements/1.1/"
   xmlns:cc="http://creativecommons.org/ns#"
   xmlns:rdf="http://www.w3.org/1999/02/22-rdf-syntax-ns#"
   xmlns:svg="http://www.w3.org/2000/svg"
   xmlns="http://www.w3.org/2000/svg"
   xmlns:sodipodi="http://sodipodi.sourceforge.net/DTD/sodipodi-0.dtd"
   xmlns:inkscape="http://www.inkscape.org/namespaces/inkscape"
   version="1.1"
   id="svg150"
   width="113.38583"
   height="113.38583"
   viewBox="0 0 113.38583 113.38583"
   sodipodi:docname="2_1.svg"
   inkscape:version="0.92.4 (5da689c313, 2019-01-14)">
  <metadata
     id="metadata156">
    <rdf:RDF>
      <cc:Work
         rdf:about="">
        <dc:format>image/svg+xml</dc:format>
        <dc:type
           rdf:resource="http://purl.org/dc/dcmitype/StillImage" />
        <dc:title />
      </cc:Work>
    </rdf:RDF>
  </metadata>
  <defs
     id="defs154" />
  <sodipodi:namedview
     pagecolor="#ffffff"
     bordercolor="#666666"
     borderopacity="1"
     objecttolerance="10"
     gridtolerance="10"
     guidetolerance="10"
     inkscape:pageopacity="0"
     inkscape:pageshadow="2"
     inkscape:window-width="1366"
     inkscape:window-height="715"
     id="namedview152"
     showgrid="false"
     inkscape:zoom="3.8992505"
     inkscape:cx="1.9434668"
     inkscape:cy="52.629855"
     inkscape:window-x="-8"
     inkscape:window-y="-8"
     inkscape:window-maximized="1"
     inkscape:current-layer="svg150" />
  <g
     id="g160"
     transform="matrix(29.968535,0,0,29.971381,0.0215028,0)">
    <path
       style="fill:#fac880;stroke-width:0.00960096"
       d="M 1.6172884,3.7680561 C 1.3256163,3.734487 1.009012,3.6039813 0.75025988,3.4106631 0.65938425,3.3427684 0.49630641,3.1861862 0.4217422,3.0952307 0.19634767,2.8202885 0.05142487,2.4848269 0.01393451,2.1512535 -0.0208249,1.8419792 0.0066519,1.536583 0.09220106,1.2813449 0.23087786,0.86759921 0.52674281,0.49835349 0.90387524,0.26835828 1.206347,0.08389509 1.5141182,3.7457349e-4 1.8913891,3.7457349e-4 c 0.5195129,0 0.9502053,0.17132404651 1.3140943,0.52273025651 0.268463,0.25925358 0.4383204,0.55114527 0.5302549,0.91121687 0.060998,0.2389038 0.060998,0.6752311 0,0.9141349 C 3.6438038,2.7085282 3.4739464,3.0004199 3.2054834,3.2596734 2.9667459,3.4902213 2.6909912,3.6458242 2.373631,3.7290711 2.1805186,3.7797264 1.8615426,3.7961678 1.6172884,3.7680561 Z"
       id="path174"
       inkscape:connector-curvature="0" />
    <path
       style="fill:#deb177;stroke-width:0.00960096"
       d="M 1.6172884,3.7680561 C 1.3256163,3.734487 1.009012,3.6039813 0.75025988,3.4106631 0.65938425,3.3427684 0.49630641,3.1861862 0.4217422,3.0952307 0.19634767,2.8202885 0.05142487,2.4848269 0.01393451,2.1512535 -0.0208249,1.8419792 0.0066519,1.536583 0.09220106,1.2813449 0.23087786,0.86759921 0.52674281,0.49835349 0.90387524,0.26835828 1.206347,0.08389509 1.5141182,3.7457349e-4 1.8913891,3.7457349e-4 c 0.5195129,0 0.9502053,0.17132404651 1.3140943,0.52273025651 0.268463,0.25925358 0.4383204,0.55114527 0.5302549,0.91121687 0.060998,0.2389038 0.060998,0.6752311 0,0.9141349 C 3.6438038,2.7085282 3.4739464,3.0004199 3.2054834,3.2596734 2.9667459,3.4902213 2.6909912,3.6458242 2.373631,3.7290711 2.1805186,3.7797264 1.8615426,3.7961678 1.6172884,3.7680561 Z M 0.66246625,3.1107111 c 0,-0.00528 -0.008641,-0.0096 -0.0192019,-0.0096 -0.0105611,0 -0.0192019,0.00432 -0.0192019,0.0096 0,0.00528 0.008641,0.0096 0.0192019,0.0096 0.0105611,0 0.0192019,-0.00432 0.0192019,-0.0096 z M 0.47044705,2.9822982 c 0,-0.027554 -0.0123195,-0.073207 -0.019755,-0.073207 -0.0138759,0 -0.0193712,0.035254 -0.00953,0.061138 0.010122,0.026623 0.029285,0.03452 0.029285,0.012069 z M 2.3330333,2.8764268 c 0,-0.0074 -0.011881,-0.018099 -0.026403,-0.023766 C 2.2921092,2.8469945 2.2413441,2.8215337 2.1938194,2.7960819 2.0033992,2.6941022 1.9681968,2.6683468 1.9681968,2.6310076 c 0,-0.023715 0.00744,-0.032628 0.045605,-0.054636 C 2.0728288,2.5423326 2.2782727,2.3851525 2.338833,2.327698 L 2.385839,2.283103 2.337834,2.318147 C 2.311431,2.337421 2.250945,2.382337 2.2034206,2.417961 2.1558956,2.453585 2.079223,2.507764 2.0330366,2.5383592 c -0.046186,0.030595 -0.086405,0.05956 -0.089375,0.064366 -0.01888,0.030549 -0.1216056,-0.023781 -0.3026441,-0.1600636 -0.082559,-0.062149 -0.1555181,-0.112081 -0.1494694,-0.102294 0.010663,0.017253 0.1844378,0.1538154 0.2606278,0.2048165 0.085482,0.057221 0.090853,0.062588 0.091062,0.091008 2.333e-4,0.031665 -0.071378,0.083074 -0.2182749,0.1566948 -0.033003,0.016541 -0.060006,0.034332 -0.060006,0.039536 0,0.01642 0.010778,0.011359 0.1440144,-0.067629 0.090048,-0.053384 0.135858,-0.076524 0.1514948,-0.076524 0.010319,0 0.03986,0.00834 0.065647,0.018543 0.025787,0.010199 0.081448,0.031936 0.1236925,0.048305 0.042244,0.016369 0.120012,0.053087 0.1728173,0.081595 0.1064832,0.057487 0.110411,0.0589 0.1104103,0.039714 z M 1.4737474,2.3138314 c -0.00326,-0.00528 -0.00784,-0.0096 -0.010168,-0.0096 -0.00233,0 -0.00423,0.00432 -0.00423,0.0096 0,0.00528 0.00458,0.0096 0.010168,0.0096 0.00559,0 0.0075,-0.00432 0.00423,-0.0096 z M 1.939394,2.2261976 c 0.1691492,-0.038456 0.1637328,-0.036427 0.1807974,-0.06773 0.00881,-0.016165 0.038998,-0.06812 0.06708,-0.1154545 0.057661,-0.097194 0.057682,-0.1006068 0.00117,-0.1924553 -0.016245,-0.026401 -0.039396,-0.070298 -0.051448,-0.097548 -0.02039,-0.046105 -0.025512,-0.050666 -0.07375,-0.06566 -0.072896,-0.02266 -0.1760844,-0.045585 -0.2051781,-0.045585 -0.022487,0 -0.068592,0.028904 -0.186788,0.1171028 -0.023374,0.017442 -0.047538,0.036743 -0.053698,0.042892 -0.012284,0.012262 -0.027856,0.2407463 -0.018134,0.2660814 0.00745,0.019405 0.2221201,0.1766171 0.2439435,0.178647 0.00264,2.458e-4 0.045845,-0.00888 0.09601,-0.02029 z M 3.3123313,0.84008401 c 0,-0.007921 -0.00701,-0.0144014 -0.015577,-0.0144014 -0.012758,0 -0.013414,0.002607 -0.00362,0.0144014 0.00657,0.007921 0.013583,0.0144014 0.015577,0.0144014 0.00199,0 0.00362,-0.006481 0.00362,-0.0144014 z"
       id="path172"
       inkscape:connector-curvature="0" />
    <path
       style="fill:#c86c4a;stroke-width:0.00960096"
       d="M 1.6513651,3.7683297 C 1.0590889,3.6956763 0.53119699,3.3364536 0.23445664,2.8041441 0.13467743,2.6251545 0.06617289,2.4318617 0.02665932,2.2178218 c -0.02944966,-0.159525 -0.02944966,-0.4933403 0,-0.6528653 C 0.09613008,1.1886425 0.26232278,0.85978733 0.51845185,0.59181822 0.83207902,0.26369304 1.2227381,0.06618691 1.6609073,0.01422507 2.6664736,-0.10502355 3.5714818,0.56480121 3.756119,1.5649565 c 0.02945,0.159525 0.02945,0.4933403 0,0.6528653 C 3.6866482,2.5941358 3.5204555,2.922991 3.2643265,3.19096 2.8405167,3.6343612 2.2582752,3.8427782 1.6513651,3.7683297 Z M 0.85928593,3.1141679 C 0.96311369,3.1060545 1.1739798,3.0494192 1.2961296,2.9968386 1.4068948,2.9491586 1.4254016,2.9328007 1.4013574,2.9038292 1.3832563,2.8820187 1.3636608,2.8865432 1.2557331,2.9374525 1.0989056,3.0114278 1.0308817,3.0338256 0.91750212,3.04882 0.75386314,3.0704613 0.75657111,3.0709518 0.65212778,3.0007487 0.60143085,2.966672 0.55415651,2.9318085 0.54707368,2.9232742 0.53620365,2.9101766 0.5376261,2.8932663 0.55619699,2.8148148 0.59780545,2.6390424 0.65905587,2.5335252 0.85815307,2.2946295 0.99499666,2.1304316 1.0675204,2.0546055 1.0877238,2.0546055 c 0.011502,0 0.047444,0.029472 0.089081,0.073043 0.038582,0.040375 0.074434,0.07018 0.080161,0.06664 0.020707,-0.012798 0.00931,-0.04397 -0.042444,-0.1161067 -0.029043,-0.04048 -0.052805,-0.077571 -0.052805,-0.082426 0,-0.017591 0.3318411,-0.3219595 0.4665496,-0.427924 0.059854,-0.047083 0.1844565,-0.1112125 0.2054274,-0.1057285 0.010119,0.00265 0.053623,8.698e-4 0.096676,-0.00395 l 0.078278,-0.00876 0.097386,0.06939 c 0.053562,0.038164 0.1168283,0.084546 0.1405907,0.1030702 0.1092706,0.085183 0.4032403,0.3535854 0.4032403,0.3681699 0,0.00479 -0.019371,0.031382 -0.043047,0.059095 -0.039333,0.04604 -0.072165,0.1051772 -0.072165,0.1299851 0,0.022622 0.028078,0.00612 0.097558,-0.05733 0.040456,-0.036946 0.079932,-0.067174 0.087726,-0.067174 0.013124,0 0.1807198,0.1753762 0.2718299,0.2844501 0.09736,0.1165556 0.1735519,0.2424327 0.2284113,0.3773578 0.030793,0.075734 0.051799,0.1403134 0.047833,0.1470546 -0.00389,0.00661 -0.039176,0.054144 -0.078414,0.1056289 L 3.118254,3.0626999 H 3.019119 c -0.092644,0 -0.099558,0.00134 -0.1056094,0.020401 -0.00406,0.012799 -0.00162,0.023476 0.00655,0.028656 0.00717,0.00454 0.078638,0.00832 0.1588261,0.0084 l 0.1457976,1.469e-4 0.051022,-0.050405 c 0.028062,-0.027723 0.065064,-0.057765 0.082225,-0.06676 0.026608,-0.013947 0.031203,-0.02157 0.031203,-0.05177 0,-0.019478 -0.00822,-0.063964 -0.018273,-0.098856 -0.01005,-0.034893 -0.020848,-0.078563 -0.023996,-0.097045 -0.00314,-0.018474 -0.0374,-0.1005624 -0.076123,-0.1824106 C 3.2042004,2.4324109 3.1214308,2.3045657 3.0016609,2.1574382 2.9710035,2.1197782 2.9315687,2.0426194 2.8900518,1.9390621 2.8681133,1.8843397 2.8698142,1.8809677 2.979026,1.7626693 3.0252535,1.7125955 3.1055579,1.6076614 3.1574801,1.5294823 3.2653012,1.3671362 3.2766325,1.3474491 3.2713583,1.3316264 c -0.0021,-0.00629 -0.00954,-6.538e-4 -0.016545,0.012533 C 3.239221,1.3735277 3.1506734,1.4908229 3.0518921,1.6129612 2.9673515,1.7174915 2.7813756,1.9050458 2.7675191,1.8997479 2.7624004,1.8977908 2.7224098,1.8573056 2.6786513,1.8097809 2.5911111,1.7147062 2.4961031,1.6283464 2.4559171,1.607321 2.4416549,1.5998591 2.3768485,1.5515113 2.3119027,1.4998815 2.2469569,1.4482517 2.1624963,1.3830375 2.1242124,1.3549611 c -0.038284,-0.028076 -0.069607,-0.056616 -0.069607,-0.063421 0,-0.013773 0.3189867,-0.2066319 0.3417671,-0.2066319 0.0162,0 0.06835,-0.024877 0.090276,-0.043064 0.01684,-0.013968 0.14471,-0.0703367 0.2544254,-0.11215804 0.1244408,-0.0474344 0.2692239,-0.0833204 0.3643223,-0.090301 l 0.088796,-0.006518 0.088287,0.0455982 c 0.086113,0.0444755 0.1133722,0.0494706 0.089298,0.0163632 -0.00654,-0.008988 -0.020791,-0.0302807 -0.031678,-0.047318 -0.012623,-0.0197525 -0.032088,-0.0343709 -0.05372,-0.0403437 -0.018658,-0.005152 -0.040974,-0.0154958 -0.04959,-0.0229868 -0.034801,-0.0302553 -0.2420828,-0.036559 -0.3613006,-0.0109877 -0.07032,0.0150832 -0.2614931,0.0749198 -0.3691065,0.11552952 -0.070176,0.0264821 -0.1266822,0.0541606 -0.3201851,0.15683702 -0.1161937,0.061655 -0.1426869,0.071826 -0.2160216,0.082938 -0.045972,0.00697 -0.1008675,0.015414 -0.1219896,0.018774 -0.035218,0.0056 -0.049154,-6e-6 -0.1680168,-0.067614 C 1.608882,1.0391099 1.5222136,0.98914 1.4875727,0.96861357 c -0.034641,-0.0205265 -0.070161,-0.037321 -0.078934,-0.037321 -0.00877,0 -0.040916,-0.0111037 -0.07143,-0.0246748 C 1.1768835,0.83531307 0.98250725,0.77476311 0.87501367,0.76264076 l -0.06108,-0.006888 0.006971,0.0421657 c 0.003834,0.0231911 0.007558,0.0427762 0.008275,0.0435222 7.169e-4,7.4609e-4 0.0531486,0.0192396 0.11651495,0.0410968 0.23648048,0.0815698 0.45308678,0.18198534 0.68012268,0.31529484 0.067797,0.039808 0.1258272,0.079051 0.1289563,0.087205 0.00368,0.00958 -0.00597,0.024248 -0.027257,0.04145 -0.1039515,0.084003 -0.2329691,0.1824446 -0.2873722,0.2192675 -0.091693,0.062063 -0.2245172,0.17507 -0.3125011,0.2658767 -0.042503,0.043866 -0.084303,0.079757 -0.092889,0.079757 -0.01833,0 -0.22457109,-0.2161794 -0.3258791,-0.3415832 C 0.67014872,1.5018692 0.6147278,1.4272627 0.58571707,1.3840138 0.55670634,1.340765 0.53151296,1.3097516 0.52973177,1.3150952 c -0.0100329,0.030099 0.1640468,0.2943193 0.28164117,0.4274791 0.0326429,0.036964 0.064338,0.076644 0.0704335,0.088178 0.006224,0.011776 0.0110828,0.062755 0.0110828,0.1162719 0,0.1012536 -0.00832,0.1237963 -0.0715985,0.1939902 C 0.77978694,2.1870544 0.65502521,2.35752 0.61597682,2.4215413 0.56571002,2.5039563 0.47747934,2.6965947 0.45863397,2.7650768 0.43054437,2.8671514 0.41862247,2.9554774 0.42966357,2.97971 c 0.005666,0.012436 0.033362,0.035737 0.0615463,0.051781 0.0281843,0.016044 0.068526,0.044913 0.0896481,0.064155 l 0.0384038,0.034984 0.0864086,-0.0056 C 0.75319517,3.12195 0.82232204,3.11706 0.85928573,3.114173 Z M 2.6384721,3.0123012 c -0.00276,-0.02865 -0.00929,-0.034244 -0.079816,-0.068376 -0.147262,-0.071271 -0.151177,-0.071819 -0.1634597,-0.022881 -0.00544,0.021691 -0.0027,0.027717 0.01604,0.035259 0.012434,0.005 0.063651,0.026387 0.1138159,0.047519 0.113404,0.047773 0.1172358,0.048059 0.1134196,0.00848 z M 2.3527869,2.8888582 c 0.00596,-0.011128 0.00719,-0.023587 0.00274,-0.027686 -0.00445,-0.0041 -0.062095,-0.036699 -0.1281021,-0.072445 C 1.967819,2.6481421 1.9532526,2.6338399 2.0277967,2.5927227 2.0937856,2.5563242 2.34375,2.357902 2.4083059,2.2906738 c 0.054355,-0.056605 0.073445,-0.092054 0.049574,-0.092054 -0.00526,0 -0.066277,0.045127 -0.1355886,0.1002814 C 2.2529793,2.3540562 2.1697958,2.4175506 2.1374387,2.4400001 1.9600271,2.5630895 1.915517,2.5922592 1.9051069,2.5922592 c -0.020579,0 -0.3546776,-0.2357887 -0.4173629,-0.2945521 -0.043373,-0.040659 -0.057201,-0.04051 -0.057201,6.187e-4 0,0.023051 0.00628,0.03667 0.021602,0.046846 0.011881,0.00789 0.068539,0.051648 0.1259058,0.097238 0.057367,0.04559 0.1345344,0.1031742 0.171483,0.1279639 0.071635,0.048062 0.083122,0.062513 0.066044,0.08309 -0.012374,0.014909 -0.1345771,0.087611 -0.2122181,0.126253 -0.056578,0.028159 -0.066829,0.038076 -0.06706,0.064869 -2.938e-4,0.034219 0.029864,0.026602 0.136217,-0.034407 0.059653,-0.03422 0.1262929,-0.071489 0.1480883,-0.082819 l 0.039628,-0.020601 0.094786,0.03394 c 0.052132,0.018667 0.1531115,0.063866 0.2243987,0.1004411 0.071287,0.036575 0.1370217,0.066827 0.1460768,0.067226 0.00906,3.994e-4 0.021336,-0.00838 0.027292,-0.019508 z M 1.939394,2.2453995 c 0.050165,-0.011405 0.1076371,-0.024663 0.1277157,-0.029463 0.043658,-0.010436 0.061515,-0.029859 0.1073374,-0.1167526 0.019094,-0.036208 0.04374,-0.078038 0.054769,-0.092956 0.015835,-0.021417 0.019013,-0.036348 0.01511,-0.070976 -0.00272,-0.024119 -0.010874,-0.050729 -0.018124,-0.059134 -0.00725,-0.0084 -0.032623,-0.052658 -0.056385,-0.09834 -0.049082,-0.094358 -0.064499,-0.1053947 -0.1840423,-0.13175 -0.1366753,-0.030132 -0.1521529,-0.029549 -0.2007764,0.00757 -0.023833,0.018192 -0.076469,0.055658 -0.1169687,0.083258 -0.083493,0.056898 -0.079301,0.046753 -0.088915,0.2151825 -0.00492,0.086194 -0.00331,0.1078501 0.00949,0.1273778 0.021939,0.033483 0.2294391,0.185381 0.2547808,0.1865092 0.00264,1.172e-4 0.045845,-0.00912 0.09601,-0.020523 z M 0.48310259,0.89728405 c 0.0272809,-0.0239983 0.0326782,-0.061438 0.009935,-0.0689197 -0.0122969,-0.004045 -0.0452655,0.0384992 -0.0555817,0.0717257 -0.009029,0.0290822 0.0107807,0.0278644 0.0456467,-0.002806 z"
       id="path170"
       inkscape:connector-curvature="0" />
    <path
       style="fill:#9f634c;stroke-width:0.00960096"
       d="M 1.6513651,3.7683297 C 1.0590889,3.6956763 0.53119699,3.3364536 0.23445664,2.8041441 0.13467743,2.6251545 0.06617289,2.4318617 0.02665932,2.2178218 c -0.02944966,-0.159525 -0.02944966,-0.4933403 0,-0.6528653 C 0.09613008,1.1886425 0.26232278,0.85978733 0.51845185,0.59181822 0.83207902,0.26369304 1.2227381,0.06618691 1.6609073,0.01422507 2.6664736,-0.10502355 3.5714818,0.56480121 3.756119,1.5649565 c 0.02945,0.159525 0.02945,0.4933403 0,0.6528653 C 3.6866482,2.5941358 3.5204555,2.922991 3.2643265,3.19096 2.8405167,3.6343612 2.2582752,3.8427782 1.6513651,3.7683297 Z M 1.8784043,3.4341269 c 0.00319,-0.00319 -0.00866,-0.017854 -0.026323,-0.032592 C 1.834416,3.3867962 1.7859194,3.3441773 1.7443109,3.3068259 L 1.668659,3.2389142 1.6023486,3.0860038 c -0.036471,-0.084101 -0.065204,-0.163394 -0.063852,-0.1762071 0.00169,-0.016034 0.01443,-0.029796 0.040862,-0.044143 0.021122,-0.011466 0.066487,-0.037317 0.1008101,-0.057448 0.1446857,-0.084857 0.1632825,-0.093269 0.1949196,-0.088164 0.0588,0.00949 0.2234461,0.075172 0.3306668,0.1319193 0.059369,0.031422 0.1164632,0.05713 0.1268749,0.05713 0.015981,0 0.038808,-0.02481 0.038808,-0.042179 0,-0.00277 -0.046445,-0.028872 -0.1032104,-0.058003 C 2.1185823,2.7321138 1.9926495,2.6547268 1.9892309,2.6374633 1.9873139,2.6277824 2.0145159,2.6034211 2.0660386,2.5686768 2.1723039,2.4970169 2.35496,2.3508876 2.4225463,2.283462 2.5082482,2.197964 2.4872447,2.1474306 2.399469,2.2279387 2.2973349,2.3216161 2.1870662,2.4056416 1.9847004,2.543995 1.9210505,2.5875111 1.906842,2.5936104 1.8886908,2.5852085 1.8467906,2.5658136 1.5117745,2.3214534 1.4929493,2.2965552 1.472627,2.2696771 1.4476959,2.2155903 1.4072214,2.1105737 1.3851155,2.0532173 1.3825383,2.0330664 1.3825383,1.9175885 V 1.7886471 l 0.099743,-0.091526 C 1.5371392,1.6467813 1.605186,1.5882242 1.6334959,1.566994 1.7083628,1.5108499 1.811079,1.4569432 1.8311132,1.4632823 c 0.00939,0.00297 0.052954,0.0013 0.09681,-0.00371 l 0.079738,-0.00911 0.091529,0.064446 c 0.1528256,0.1076094 0.2414381,0.1822793 0.3969378,0.334485 l 0.1486932,0.1455435 -0.04562,0.048771 c -0.043802,0.046828 -0.057438,0.070436 -0.070313,0.1217318 -0.010795,0.043009 0.027191,0.02706 0.1039054,-0.043628 0.040115,-0.036964 0.079217,-0.067207 0.086893,-0.067207 0.01335,0 0.1497291,0.1422806 0.2530748,0.2640264 0.1014927,0.1195628 0.1915319,0.2643046 0.242466,0.3897748 0.027004,0.066521 0.049098,0.1296034 0.049098,0.1401823 0,0.019495 -0.074441,0.1258098 -0.1280753,0.1829142 -0.029173,0.03106 -0.029735,0.031203 -0.1227861,0.031203 -0.08654,0 -0.093954,0.0015 -0.09988,0.020168 -0.00352,0.011093 -0.00268,0.023889 0.00187,0.028436 0.00455,0.00455 0.076599,0.00951 0.1601148,0.011035 l 0.1518473,0.00277 0.029484,-0.036621 c 0.016216,-0.020142 0.052605,-0.051411 0.080863,-0.069488 0.048962,-0.03132 0.051375,-0.034792 0.051305,-0.07379 C 3.3890253,2.922706 3.3804174,2.8762076 3.369937,2.8418842 3.3594566,2.8075608 3.3508488,2.7707477 3.3508084,2.7600774 3.35077,2.7494072 3.3165205,2.6684142 3.2747029,2.5800931 3.201778,2.4260725 3.1443675,2.3357479 3.0192414,2.178173 2.9696302,2.1156961 2.880629,1.9369952 2.8804261,1.8994531 c -1.027e-4,-0.018963 0.022372,-0.049866 0.087279,-0.120012 0.077718,-0.08399 0.2466156,-0.3189661 0.2909331,-0.4047544 0.025975,-0.050281 0.011817,-0.059116 -0.018131,-0.011314 -0.086211,0.1376061 -0.4362884,0.5376347 -0.4704797,0.53761 -0.012536,-9e-6 -0.1224789,-0.137311 -0.1845033,-0.230416 l -0.04797,-0.072007 -0.025418,-0.259226 C 2.4981562,1.1967595 2.4894872,1.069926 2.4928712,1.0574815 c 0.00683,-0.025104 0.057223,-0.05067 0.2406083,-0.1220628 0.1412133,-0.0549748 0.2686337,-0.0874415 0.3736769,-0.0952129 0.085151,-0.0063 0.085173,-0.006295 0.1632577,0.0319089 0.042952,0.0210152 0.081011,0.0429274 0.084575,0.0486938 0.010191,0.0164888 0.024548,0.0122604 0.024548,-0.007229 0,-0.009743 -0.00853,-0.0254339 -0.018957,-0.0348696 C 3.3501541,0.8692739 3.3390921,0.8535795 3.3359981,0.8438326 3.3281751,0.81917919 3.2231141,0.77208099 3.1539154,0.76220503 2.9916508,0.73904684 2.8133372,0.77170511 2.5490549,0.87298569 2.429602,0.9187635 2.4394118,0.92570717 2.3798119,0.75319015 2.329534,0.60765635 2.3258109,0.60060749 2.2322232,0.4737664 L 2.1362136,0.34364275 2.0031185,0.27682583 1.8700234,0.21000892 1.7726955,0.28415813 c -0.05353,0.0407821 -0.1074993,0.083179 -0.1199309,0.0942155 -0.033181,0.0294569 -0.1410027,0.25039937 -0.1899269,0.38918681 -0.023368,0.0662906 -0.050216,0.12826975 -0.059661,0.1377314 -0.016508,0.0165362 -0.019009,0.0164097 -0.06451,-0.003263 C 1.1976296,0.84105274 0.95944426,0.76935528 0.86979322,0.76089112 l -0.0566994,-0.005353 0.006294,0.0314719 c 0.003462,0.0173096 0.006294,0.0364653 0.006294,0.0425684 0,0.0126188 0.0233012,0.0226507 0.15841585,0.0682033 C 1.1410232,0.95068716 1.3165681,1.0299723 1.3353992,1.056447 c 0.016183,0.022752 0.015529,0.03362 -0.01703,0.2828869 -0.037936,0.290428 -0.029393,0.2662421 -0.1429757,0.4048006 -0.033926,0.041386 -0.074888,0.091449 -0.091027,0.111251 -0.016139,0.019802 -0.037047,0.036004 -0.046462,0.036004 -0.017696,0 -0.20455754,-0.1925608 -0.31448005,-0.324072 C 0.68923545,1.5264145 0.63282475,1.4506928 0.59806615,1.399046 0.51457245,1.2749849 0.50059665,1.2648092 0.54186625,1.358127 c 0.0364028,0.082313 0.18976628,0.3007841 0.27819652,0.3962994 0.0291444,0.031479 0.0574531,0.068975 0.0629082,0.083323 0.0129212,0.033985 0.0127988,0.1792272 -1.7973e-4,0.2133635 -0.005554,0.014608 -0.0434555,0.067815 -0.0842257,0.1182368 -0.15668367,0.1937775 -0.20722621,0.2739089 -0.2818876,0.4469122 -0.0589092,0.1365027 -0.0688601,0.1678796 -0.0856508,0.270071 -0.0151649,0.092296 -0.008344,0.1142698 0.0429566,0.1383839 0.0228546,0.010743 0.0683152,0.041097 0.10102355,0.067454 l 0.0594698,0.047921 0.14600779,-0.014736 C 0.95987103,3.1072518 1.1402261,3.064292 1.2755636,3.0074307 c 0.1473483,-0.061908 0.1414318,-0.063293 0.1950461,0.045675 0.024682,0.050165 0.051683,0.110673 0.060001,0.1344621 0.012051,0.034464 0.038785,0.065416 0.1315585,0.1523201 L 1.778603,3.448955 1.825606,3.444435 C 1.851458,3.441955 1.875217,3.437315 1.878404,3.434124 Z M 0.72487249,3.0464113 C 0.67018271,3.0168938 0.54920844,2.9280305 0.54351447,2.9131923 c -0.003141,-0.00819 0.005741,-0.061062 0.0197384,-0.1175031 0.0240953,-0.097159 0.0330035,-0.1169143 0.12420119,-0.2754372 0.0121515,-0.021122 0.0447987,-0.066487 0.0725495,-0.10081 0.0277507,-0.034324 0.0770219,-0.095528 0.1094914,-0.1360095 0.0965408,-0.1203633 0.19877764,-0.228827 0.21568984,-0.228827 0.022967,0 0.178426,0.1668857 0.2057023,0.2208221 0.00668,0.013201 0.019747,0.084488 0.029047,0.1584158 0.0093,0.073927 0.027902,0.1819382 0.041338,0.240024 0.035331,0.1527365 0.035068,0.1551257 -0.021938,0.1992044 -0.1028326,0.079514 -0.2755255,0.155073 -0.3878537,0.1696989 -0.14865419,0.019356 -0.19607948,0.020118 -0.22660791,0.00364 z M 1.5000575,2.8010801 c -0.013074,-0.016269 -0.08195,-0.4268899 -0.073813,-0.4400559 0.00356,-0.00575 0.013539,-0.00856 0.022184,-0.00623 0.012499,0.00337 0.2871179,0.2038334 0.3587527,0.261885 0.032966,0.026715 0.00782,0.047127 -0.1902083,0.1543759 -0.08207,0.044449 -0.1013458,0.049399 -0.1169154,0.030025 z M 2.3474348,1.5254159 C 2.2946295,1.4830782 2.2071407,1.4157358 2.1530153,1.3757662 c -0.054125,-0.039969 -0.09841,-0.078186 -0.09841,-0.084925 0,-0.00674 0.031323,-0.030482 0.069607,-0.052761 0.2141559,-0.1246271 0.2651753,-0.1531716 0.2737734,-0.1531716 0.021463,0 0.033,0.032744 0.046275,0.131338 0.00769,0.057137 0.021889,0.1622114 0.031547,0.2334985 0.00966,0.071287 0.015586,0.1350135 0.013173,0.1416141 -0.00961,0.026302 -0.049908,0.00753 -0.1415459,-0.065943 z m -0.9617349,0.014729 c -0.00805,-0.020977 0.00211,-0.1959595 0.016126,-0.277619 0.00634,-0.036964 0.014368,-0.084049 0.017835,-0.1046339 0.011255,-0.066835 0.021894,-0.065163 0.183371,0.028832 0.080695,0.046972 0.1491319,0.091652 0.1520817,0.09929 0.0032,0.00828 -0.00599,0.022661 -0.02279,0.035637 C 1.7168396,1.333614 1.6552776,1.381371 1.5955192,1.4277766 1.4221099,1.5624404 1.3990038,1.5748148 1.3856999,1.5401449 Z M 1.7375413,1.1106125 C 1.5409172,0.99691743 1.4882849,0.96370569 1.4837949,0.95049506 c -0.00269,-0.007921 0.00108,-0.0360036 0.00838,-0.0624062 0.039639,-0.14330626 0.066317,-0.22390327 0.082626,-0.24962496 0.010045,-0.0158416 0.031515,-0.0525653 0.047711,-0.0816082 0.016196,-0.0290429 0.041465,-0.0722472 0.056152,-0.0960096 0.028594,-0.0462607 0.1420382,-0.14036647 0.1810003,-0.15014534 0.016685,-0.004188 0.052261,0.007197 0.1212754,0.0388093 0.1642897,0.0752538 0.1690771,0.0788931 0.2161029,0.16428054 0.023223,0.0421676 0.058502,0.10475125 0.078398,0.13907468 0.032803,0.0565906 0.037148,0.0724781 0.046618,0.17048529 0.00636,0.0658395 0.00706,0.11696856 0.0018,0.1308248 -0.00617,0.0162396 -0.04607,0.0423264 -0.1394782,0.0912001 -0.1245041,0.065144 -0.1365999,0.06938 -0.2501556,0.087597 -0.065629,0.010528 -0.1205816,0.019143 -0.1221169,0.019143 -0.00154,0 -0.03509,-0.018676 -0.074566,-0.041503 z m 0.314712,2.3001286 c 0.00538,-0.016331 -0.00925,-0.015098 -0.031816,0.00268 -0.018048,0.01422 -0.017902,0.014599 0.00461,0.012001 0.012788,-0.00148 0.025029,-0.00808 0.027203,-0.014684 z M 2.640264,3.015877 c 0,-0.034476 -0.00241,-0.036382 -0.1232735,-0.097435 C 2.4096577,2.864223 2.3993367,2.864331 2.3857504,2.919812 2.3798204,2.944026 2.3833704,2.946504 2.4835284,2.988167 2.644322,3.055053 2.640264,3.0543356 2.640264,3.015877 Z M 1.939394,2.2453995 c 0.050165,-0.011405 0.1076371,-0.024663 0.1277157,-0.029463 0.043658,-0.010436 0.061515,-0.029859 0.1073374,-0.1167526 0.019094,-0.036208 0.04374,-0.078038 0.054769,-0.092956 0.015835,-0.021417 0.019013,-0.036348 0.01511,-0.070976 -0.00272,-0.024119 -0.010874,-0.050729 -0.018124,-0.059134 -0.00725,-0.0084 -0.032623,-0.052658 -0.056385,-0.09834 -0.049082,-0.094358 -0.064499,-0.1053947 -0.1840423,-0.13175 -0.1366753,-0.030132 -0.1521529,-0.029549 -0.2007764,0.00757 -0.023833,0.018192 -0.076469,0.055658 -0.1169687,0.083258 -0.083493,0.056898 -0.079301,0.046753 -0.088915,0.2151825 -0.00492,0.086194 -0.00331,0.1078501 0.00949,0.1273778 0.021939,0.033483 0.2294391,0.185381 0.2547808,0.1865092 0.00264,1.172e-4 0.045845,-0.00912 0.09601,-0.020523 z M 0.50815773,0.85745231 c 8.9884e-4,-0.0272772 -0.0152455,-0.0368266 -0.034818,-0.0205951 -0.0197852,0.0164079 -0.0437062,0.0731687 -0.036054,0.0855502 0.009094,0.0147149 0.0700888,-0.0411874 0.070872,-0.0649551 z"
       id="path168"
       inkscape:connector-curvature="0" />
    <path
       style="fill:#585c69;stroke-width:0.00960096"
       d="M 1.6513651,3.7683297 C 1.0590889,3.6956763 0.53119699,3.3364536 0.23445664,2.8041441 0.13467743,2.6251545 0.06617289,2.4318617 0.02665932,2.2178218 c -0.02944966,-0.159525 -0.02944966,-0.4933403 0,-0.6528653 C 0.09613008,1.1886425 0.26232278,0.85978733 0.51845185,0.59181822 0.83207902,0.26369304 1.2227381,0.06618691 1.6609073,0.01422507 2.6664736,-0.10502355 3.5714818,0.56480121 3.756119,1.5649565 c 0.02945,0.159525 0.02945,0.4933403 0,0.6528653 C 3.6866482,2.5941358 3.5204555,2.922991 3.2643265,3.19096 2.8405167,3.6343612 2.2582752,3.8427782 1.6513651,3.7683297 Z M 1.9041528,3.448077 C 1.9185428,3.442407 1.8999028,3.422237 1.8009952,3.3364684 1.7345982,3.2788891 1.6775215,3.2231083 1.6741581,3.212511 1.6707947,3.2019139 1.6431853,3.1368699 1.6128038,3.0679689 1.5337429,2.888669 1.5347735,2.9053815 1.60031,2.8653646 1.753914,2.7715733 1.8404963,2.7242854 1.858632,2.7242793 c 0.058855,-1.92e-5 0.4787047,0.1886378 0.4909768,0.2206183 0.00257,0.00671 0.012262,0.012198 0.021528,0.012198 0.00927,0 0.069742,0.021891 0.1343904,0.048647 0.064649,0.026756 0.1235721,0.046333 0.1309405,0.043506 0.017002,-0.00652 0.017474,-0.057909 6.855e-4,-0.074665 -0.00699,-0.00698 -0.035392,-0.023295 -0.063112,-0.036261 -0.043519,-0.020355 -0.058135,-0.035138 -0.1070523,-0.1082695 -0.059033,-0.088256 -0.058795,-0.088177 -0.068775,-0.022801 -0.00153,0.01 -0.010403,0.022956 -0.019728,0.028803 -0.013745,0.00862 -0.035552,0.00112 -0.1152115,-0.03959 C 2.1150574,2.720711 1.9959931,2.6475153 1.9990622,2.6340384 c 0.00151,-0.00661 0.036054,-0.03492 0.076773,-0.062905 0.1006724,-0.069188 0.3050779,-0.2300831 0.3315419,-0.2609682 0.020437,-0.023851 0.054334,-0.033519 0.06289,-0.017936 0.00217,0.00396 -0.0016,0.048245 -0.0084,0.09841 -0.00679,0.050165 -0.012296,0.1063306 -0.012231,0.1248125 l 1.2e-4,0.033603 0.012593,-0.038404 c 0.00693,-0.021122 0.022107,-0.090249 0.033735,-0.1536154 0.027347,-0.1490248 0.025801,-0.1442817 0.05075,-0.1557221 0.01178,-0.0054 0.052304,-0.038461 0.090054,-0.073464 0.03775,-0.035004 0.07489,-0.063643 0.082533,-0.063643 0.015173,0 0.157967,0.1516146 0.2577086,0.2736274 0.1101368,0.1347291 0.1764311,0.2430284 0.2324579,0.3797468 0.059366,0.1448658 0.060025,0.1309869 -0.010688,0.2251137 -0.086097,0.1146051 -0.079023,0.110411 -0.1862365,0.110411 -0.093953,0 -0.094503,1.373e-4 -0.1043808,0.026117 -0.016972,0.04464 0.00391,0.05069 0.1749678,0.05069 H 3.2345469 L 3.2609322,3.09532 c 0.014512,-0.019026 0.050375,-0.050436 0.079696,-0.069799 0.047267,-0.031214 0.053653,-0.039328 0.056324,-0.071569 0.00166,-0.02 -0.0062,-0.069598 -0.017458,-0.1102193 -0.011259,-0.04062 -0.024582,-0.089768 -0.029608,-0.1092169 -0.00503,-0.019449 -0.039276,-0.09873 -0.076111,-0.1761815 C 3.2109376,2.4262124 3.1490639,2.3300271 3.0300264,2.179418 2.9881038,2.1263764 2.9340969,2.0271925 2.8999085,1.9404557 c -0.022093,-0.05605 -0.023511,-0.053282 0.089063,-0.173879 0.071929,-0.077055 0.238807,-0.3127818 0.2836387,-0.4006595 0.021917,-0.042961 0.02765,-0.084929 0.010121,-0.074096 -0.00572,0.00353 -0.025879,0.030792 -0.044801,0.060573 C 3.1739724,1.4530584 2.9685893,1.7035848 2.8708334,1.80018 L 2.7736704,1.89619 2.7354794,1.852986 C 2.7144745,1.8292229 2.6642551,1.760152 2.6238809,1.6994944 L 2.5504732,1.5892078 2.5428134,1.4882733 c -0.00421,-0.055514 -0.0148,-0.1730803 -0.023527,-0.2612585 -0.00873,-0.088178 -0.013344,-0.1668995 -0.01026,-0.1749364 0.010171,-0.026504 0.2536937,-0.12789674 0.4063821,-0.16920028 0.053883,-0.0145757 0.1385317,-0.0295425 0.1881092,-0.0332594 0.088662,-0.006647 0.091154,-0.006247 0.1518778,0.0244032 0.033955,0.0171387 0.075079,0.0413358 0.091386,0.0537713 0.016307,0.0124355 0.032508,0.0197504 0.036004,0.0162553 0.012211,-0.0122112 0.00622,-0.0512985 -0.010447,-0.0681193 -0.00924,-0.009328 -0.024114,-0.0282394 -0.033052,-0.0420251 -0.00894,-0.0137857 -0.02838,-0.0280924 -0.043204,-0.0317927 -0.014825,-0.0037 -0.03471,-0.0137184 -0.044191,-0.0222626 C 3.2301406,0.76024595 3.1195243,0.74453452 3.019502,0.7468413 2.9017758,0.74955639 2.7755453,0.78041937 2.5691998,0.85693892 2.4996957,0.88271327 2.4600981,0.89285289 2.4513339,0.88712045 2.4440749,0.88237253 2.4170044,0.81717507 2.3911771,0.74223722 2.36535,0.66729937 2.3406218,0.59989496 2.3362257,0.59244963 2.3318296,0.58500429 2.2871887,0.5238563 2.2370237,0.45656517 L 2.1458146,0.33421769 2.0139294,0.26791892 c -0.072537,-0.0364643 -0.1374577,-0.0662988 -0.1442687,-0.0662988 -0.00681,0 -0.0411,0.0226823 -0.076198,0.050405 -0.035098,0.0277228 -0.08807,0.0691467 -0.1177162,0.0920531 C 1.6270605,0.38169638 1.615518,0.39841862 1.5564598,0.51689558 1.5204981,0.58903865 1.4726914,0.69991 1.4502227,0.76327633 1.427754,0.82664267 1.403487,0.88466046 1.3962961,0.89220476 1.3816664,0.90755323 1.3781985,0.90671605 1.2385239,0.85411641 1.054636,0.78486669 0.82685785,0.73161318 0.81407989,0.75488332 c -0.002535,0.004616 -0.002655,0.0268919 -2.6604e-4,0.0495017 0.004993,0.0472638 0.006203,0.0479897 0.17178324,0.10304254 C 1.1412468,0.95917866 1.316324,1.038264 1.3248415,1.0606698 c 0.00419,0.011014 -0.00409,0.1068194 -0.019108,0.2210584 -0.014574,0.1108911 -0.029463,0.226263 -0.033088,0.2563822 -0.0059,0.048997 -0.015757,0.067695 -0.093667,0.1776178 -0.1024786,0.1445863 -0.1208633,0.16606 -0.142172,0.16606 -0.0369069,0 -0.34959401,-0.3595508 -0.45802383,-0.5266699 -0.0842877,-0.1299096 -0.0779176,-0.1214105 -0.0853941,-0.113934 -0.003223,0.00322 0.006405,0.037427 0.0213969,0.076008 0.0377042,0.097031 0.19049176,0.3233444 0.29454846,0.4362941 0.0285244,0.030962 0.0568331,0.065732 0.0629082,0.077266 0.006177,0.011727 0.0110456,0.062981 0.0110456,0.1162719 0,0.108625 0.002696,0.102729 -0.1112225,0.2432691 -0.0678965,0.083763 -0.11143111,0.1430816 -0.16112995,0.219548 -0.0444218,0.068347 -0.15524754,0.3163401 -0.16733262,0.3744374 -0.006041,0.029043 -0.0158932,0.075604 -0.0218929,0.1034698 -0.0165362,0.076801 -0.006101,0.1134764 0.0388075,0.1363868 0.0204569,0.010436 0.0665633,0.041204 0.1024587,0.068374 l 0.0652644,0.049398 0.1491259,-0.011837 c 0.17908699,-0.014216 0.35832674,-0.05569 0.51799534,-0.11986 0.059548,-0.023932 0.1100312,-0.043513 0.1121845,-0.043513 0.00603,0 0.1056508,0.2141579 0.1127152,0.2423046 0.00366,0.014578 0.054809,0.070946 0.1235139,0.1361131 l 0.117269,0.1112313 0.062772,-6.75e-4 c 0.034525,-3.715e-4 0.070676,-0.00379 0.080336,-0.00759 z M 0.73447345,3.0421626 C 0.67733289,3.0113372 0.55636807,2.9226795 0.55179611,2.9082746 c -0.002916,-0.00919 0.006005,-0.061368 0.0198238,-0.1159554 0.0191667,-0.07571 0.0387691,-0.1231893 0.0826504,-0.2001861 0.0841823,-0.1477115 0.39450659,-0.5279267 0.43088359,-0.5279267 0.00828,0 0.030463,0.016202 0.049289,0.036004 0.057396,0.06037 0.1520702,0.1864827 0.1523371,0.2029235 6.644e-4,0.040918 0.038829,0.284957 0.057228,0.3659334 0.037622,0.1655843 0.03866,0.1554535 -0.020362,0.1988126 -0.1352526,0.09936 -0.2532939,0.1494479 -0.40195331,0.1705584 -0.11915188,0.01692 -0.16120739,0.017757 -0.18721872,0.00372 z M 1.519452,2.7954247 C 1.500961,2.7839967 1.431405,2.3859372 1.445445,2.3718967 c 0.00575,-0.00575 0.050035,0.021737 0.1199352,0.074423 0.060954,0.045943 0.1423997,0.1064693 0.1809906,0.1345024 0.067974,0.049378 0.069641,0.051549 0.053374,0.069524 -0.017217,0.019025 -0.2006696,0.1253502 -0.2451905,0.1421075 -0.013642,0.00513 -0.029438,0.00647 -0.035102,0.00297 z M 1.7606296,2.4888067 C 1.5016771,2.3064424 1.5004925,2.3053939 1.4707478,2.2322232 1.3935407,2.0422975 1.3973565,2.0577236 1.3938822,1.9214755 l -0.00327,-0.1283296 0.079973,-0.076059 C 1.6144088,1.5803012 1.791423,1.4606507 1.8336334,1.4716889 c 0.010153,0.00266 0.053231,9.371e-4 0.095729,-0.00382 l 0.077268,-0.00864 0.050391,0.035199 C 2.2477,1.62762 2.4209342,1.7713603 2.4437774,1.8153367 c 0.00707,0.013617 0.020281,0.069301 0.029351,0.1237422 l 0.016491,0.098985 -0.032106,0.058676 c -0.067843,0.123987 -0.096969,0.160702 -0.1780233,0.224409 -0.1102549,0.086658 -0.3605749,0.2615098 -0.3743801,0.2615098 -0.00617,0 -0.071183,-0.042233 -0.1444804,-0.093852 z M 2.0018002,2.2370129 c 0.1069862,-0.023369 0.1314614,-0.039195 0.15909,-0.1028688 0.00966,-0.02226 0.035368,-0.067625 0.057131,-0.1008101 0.048081,-0.073317 0.047472,-0.1035899 -0.00376,-0.1868761 -0.018907,-0.030733 -0.046361,-0.079488 -0.06101,-0.108344 -0.022717,-0.044748 -0.032989,-0.054811 -0.069839,-0.068413 -0.04683,-0.017286 -0.2158576,-0.057145 -0.2412691,-0.056894 -0.00861,8.64e-5 -0.039778,0.018516 -0.069272,0.040959 -0.045808,0.034856 -0.1012313,0.074324 -0.1665419,0.1185992 -0.011824,0.00802 -0.0188,0.041551 -0.02871,0.138016 -0.017203,0.167456 -0.0161,0.1697831 0.1313559,0.2770563 0.1262609,0.091854 0.1110605,0.08928 0.2928293,0.049576 z M 2.3426343,1.5115677 c -0.055446,-0.044568 -0.1407741,-0.110041 -0.189619,-0.1454962 -0.048845,-0.035455 -0.088716,-0.068937 -0.088603,-0.074404 1.133e-4,-0.00547 0.037534,-0.031542 0.083157,-0.057945 0.045623,-0.026403 0.1178882,-0.068527 0.1605884,-0.093609 0.086095,-0.050573 0.08591,-0.05051 0.09908,-0.033603 0.00777,0.00997 0.062199,0.4015876 0.064348,0.4629466 0.00127,0.036137 -0.028725,0.022674 -0.1289514,-0.057889 z m -0.9344934,0.027786 c -0.019853,-0.019853 0.019972,-0.3880224 0.044689,-0.41314 0.00877,-0.00891 0.023218,-0.00437 0.064122,0.020148 0.029043,0.017406 0.088414,0.052339 0.131936,0.07763 0.085346,0.049594 0.106637,0.06819 0.0928,0.081052 -0.00479,0.00445 -0.061869,0.048556 -0.1268369,0.098003 C 1.4136515,1.5561795 1.42047,1.5516833 1.4081415,1.5393546 Z M 1.7569757,1.1131177 C 1.7279327,1.0971407 1.6890487,1.0741317 1.6705667,1.0619857 1.6520847,1.0498397 1.6056407,1.0214497 1.5673563,0.9988974 1.5153943,0.9682871 1.4977643,0.9526962 1.4978093,0.9373923 c 4.8e-5,-0.0169964 0.027945,-0.11997765 0.067252,-0.24827556 0.00721,-0.0235215 0.041747,-0.0852239 0.1009109,-0.18026588 0.011505,-0.0184818 0.029185,-0.0473865 0.039288,-0.0642326 0.018387,-0.0306582 0.050348,-0.0571239 0.1253377,-0.10378821 l 0.040019,-0.0249028 0.060791,0.025571 c 0.033435,0.014064 0.094201,0.0423616 0.1350353,0.0628835 0.071397,0.0358819 0.075815,0.0401066 0.1152115,0.11018135 0.022532,0.0400778 0.056898,0.0998674 0.07637,0.1328657 0.032767,0.0555315 0.036276,0.0690099 0.047144,0.18109316 0.00936,0.096538 0.00931,0.12402515 -2.448e-4,0.13553866 -0.00659,0.007943 -0.066691,0.0432609 -0.1335526,0.0784836 -0.1146922,0.06042 -0.1280814,0.065041 -0.236778,0.081723 -0.063366,0.00972 -0.1173718,0.01773 -0.120012,0.01779 -0.00264,5.77e-5 -0.028563,-0.012963 -0.057606,-0.028939 z m 0.3090618,2.3072242 c 0.025744,-0.027602 0.05075,-0.069607 0.041437,-0.069607 -0.012007,0 -0.1169165,0.056805 -0.1393072,0.07543 l -0.023973,0.019941 0.048609,3.198e-4 c 0.040881,2.688e-4 0.052523,-0.00388 0.073234,-0.026084 z m 0.3789649,-0.849685 c -0.00266,-0.0066 -0.00484,-0.0012 -0.00484,0.012001 0,0.013201 0.00218,0.018602 0.00484,0.012001 0.00266,-0.0066 0.00266,-0.017402 0,-0.024002 z M 0.48451441,0.91109663 c 0.0356397,-0.0312921 0.0439625,-0.0651418 0.0207529,-0.0844041 -0.0206789,-0.017162 -0.0417766,-0.002935 -0.0641337,0.043249 -0.0198943,0.0410961 -0.0199468,0.0709526 -1.2486e-4,0.0709526 0.005263,0 0.0248401,-0.0134089 0.0435057,-0.0297975 z"
       id="path166"
       inkscape:connector-curvature="0" />
    <path
       style="fill:#252c48;stroke-width:0.00960096"
       d="M 1.7425743,3.7732324 C 1.3261055,3.7250143 0.97422344,3.5772215 0.67059169,3.3229923 0.356967,3.060396 0.12431612,2.6631527 0.04833206,2.2605056 0.03742465,2.202706 0.02337779,2.1338134 0.01711683,2.1074108 c -0.01491406,-0.062893 -0.01491406,-0.3691502 0,-0.4320433 0.006261,-0.026403 0.02030782,-0.095295 0.03121523,-0.1530948 C 0.12431612,1.1196256 0.356967,0.72238228 0.67059169,0.45978607 0.9227423,0.24866176 1.2250148,0.10330066 1.5281781,0.04737771 1.5880102,0.0363408 1.6541032,0.02232486 1.6750516,0.01623117 c 0.050625,-0.01472626 0.3820504,-0.01472626 0.4326751,0 0.020948,0.0060937 0.087041,0.02010963 0.1468735,0.03114654 0.3031633,0.05592295 0.6054358,0.20128405 0.8575865,0.41240836 0.3136246,0.26259621 0.5462755,0.65983953 0.6222595,1.06248663 0.010908,0.0578 0.024954,0.1266922 0.031215,0.1530948 0.014914,0.062893 0.014914,0.3691502 0,0.4320433 -0.00626,0.026403 -0.020308,0.095295 -0.031215,0.1530948 C 3.6586493,2.6621612 3.425228,3.0608903 3.1127066,3.3225583 2.8598657,3.5342568 2.5571903,3.6798281 2.2546002,3.7352632 c -0.059832,0.010961 -0.1217469,0.023821 -0.1375885,0.028576 -0.040929,0.012286 -0.2945074,0.018648 -0.3744374,0.00939 z m 0.2471141,-0.322961 c 0.064352,-0.00542 0.064881,-0.00571 0.099559,-0.052946 0.019175,-0.026121 0.032615,-0.04974 0.029868,-0.052488 -0.00586,-0.00586 -0.091002,0.036146 -0.1430016,0.070558 -0.019934,0.013192 -0.041752,0.021752 -0.048483,0.019022 -0.00673,-0.00273 -0.061924,-0.046875 -0.1226501,-0.098101 C 1.684507,3.2346906 1.691876,3.2457156 1.5977506,3.0262734 1.5744333,2.9719118 1.555502,2.9200666 1.5556808,2.9110619 c 2.007e-4,-0.010121 0.026778,-0.031389 0.069607,-0.055701 0.038105,-0.021631 0.1050067,-0.059893 0.1486707,-0.085027 l 0.079389,-0.045698 0.1030292,0.035973 c 0.1338275,0.046727 0.382631,0.1719808 0.3888483,0.1957557 0.00331,0.012646 0.011165,0.016532 0.027425,0.013561 0.013769,-0.00252 0.070139,0.016053 0.1424168,0.046912 0.09969,0.042562 0.1205588,0.055041 0.1252189,0.074874 0.00625,0.026593 0.00372,0.02633 0.415684,0.043096 l 0.170881,0.00695 0.045141,-0.047893 c 0.024827,-0.026341 0.06331,-0.057777 0.085517,-0.069858 0.055472,-0.030177 0.05864,-0.052961 0.026441,-0.1901566 C 3.3343011,2.6223045 3.2068681,2.3849139 3.0196023,2.1551228 2.9913658,2.1204742 2.889889,1.9150343 2.889889,1.892518 c 0,-0.00495 0.039341,-0.051516 0.087424,-0.1034759 0.1316002,-0.1422104 0.3350183,-0.4532211 0.3350183,-0.5122174 0,-0.029567 -0.034012,3.379e-4 -0.079283,0.06971 -0.02843,0.043564 -0.070887,0.1029703 -0.09435,0.1320132 -0.023463,0.029043 -0.071388,0.089529 -0.1064995,0.1344134 -0.035112,0.044884 -0.1077102,0.1248125 -0.1613302,0.1776178 l -0.097491,0.09601 -0.040653,-0.044433 C 2.7103664,1.817718 2.6622227,1.7529115 2.6257393,1.6981416 l -0.066333,-0.099582 -0.027007,-0.259226 c -0.014854,-0.1425742 -0.024745,-0.2686111 -0.021981,-0.280082 0.00328,-0.013629 0.017503,-0.024896 0.041033,-0.032514 0.019804,-0.00641 0.05652,-0.021937 0.08159,-0.0344998 C 2.7465988,0.935332 2.9552751,0.87294045 3.0909833,0.85531893 l 0.081082,-0.0105284 0.075849,0.0355938 c 0.049126,0.0230532 0.087031,0.0486578 0.1075877,0.0726731 0.017456,0.0203937 0.033825,0.0335604 0.036376,0.0292595 0.00255,-0.004301 0.00369,-0.028957 0.00254,-0.0547912 C 3.392968,0.89509633 3.386958,0.87663303 3.374997,0.86788813 3.365467,0.86092213 3.352873,0.84575913 3.347005,0.83419363 3.341135,0.82262813 3.329854,0.81013883 3.321934,0.80643953 3.314014,0.80274053 3.288091,0.79075033 3.264328,0.77979523 3.205671,0.75275392 3.0658923,0.72847651 3.0084496,0.73535373 2.8753545,0.75128833 2.736062,0.78784 2.5588401,0.85333554 2.5008557,0.87476474 2.4505976,0.88919051 2.4471553,0.88539279 2.4437132,0.88159507 2.4187608,0.81385991 2.3917056,0.73487021 2.3431515,0.59311245 2.341235,0.58956893 2.2437221,0.46124285 L 2.1449299,0.33123313 2.0109587,0.26203723 c -0.073684,-0.0380577 -0.1368153,-0.0693809 -0.1402917,-0.069607 -0.00348,-2.261e-4 -0.04236,0.027877 -0.086409,0.0624513 -0.1670717,0.13113746 -0.1676556,0.1317887 -0.2304201,0.25699599 -0.032144,0.0641232 -0.079495,0.17476562 -0.1052234,0.24587196 -0.025729,0.0711063 -0.050785,0.13328941 -0.05568,0.13818458 -0.00547,0.005466 -0.056417,-0.00964 -0.1320607,-0.0391551 C 1.1188705,0.80137131 0.94345149,0.75085478 0.86433644,0.74258562 c -0.0524392,-0.005481 -0.0563665,-0.00786 -0.0946362,-0.0573203 -0.0219596,-0.0283811 -0.0444418,-0.051602 -0.0499604,-0.051602 -0.0351315,0 -0.20384623,0.1077422 -0.22048991,0.14080616 -0.007921,0.0157353 -0.0263579,0.0412561 -0.0409714,0.056713 -0.0326608,0.0345458 -0.0486028,0.0858572 -0.0347291,0.11178039 0.009187,0.0171667 0.0114542,0.0174142 0.0308076,0.003364 0.0114898,-0.008341 0.0305781,-0.0220921 0.0424186,-0.0305571 0.028238,-0.0201879 0.046774,-0.0119295 0.0635976,0.028335 0.007549,0.018067 0.0177937,0.0353635 0.0227663,0.0384367 0.004973,0.003073 0.0388968,-0.0135934 0.0753871,-0.037037 0.0950891,-0.0610909 0.13468216,-0.0814181 0.15858536,-0.0814181 0.0241195,0 0.22119011,0.0664165 0.32060191,0.10804883 0.036964,0.0154799 0.088809,0.0366915 0.1152115,0.0471369 0.079404,0.031414 0.076754,0.019837 0.05267,0.2300363 -0.03794,0.3311308 -0.03853,0.3338159 -0.089647,0.4082489 C 1.1314519,1.7805927 1.0598957,1.8673746 1.0406015,1.8702131 1.0266927,1.8722593 0.99363726,1.8431103 0.92083735,1.7646025 0.73660789,1.5659285 0.61301561,1.4093119 0.53598499,1.276916 0.5076424,1.2282023 0.47044705,1.1899087 0.47044705,1.2094428 c 0,0.016695 0.0663224,0.1816104 0.0850569,0.2114993 0.0496339,0.079186 0.20137511,0.2842765 0.25505107,0.3447223 l 0.0631323,0.071095 V 1.945049 2.0533386 l -0.065452,0.079842 C 0.67171749,2.2997108 0.60198455,2.4030601 0.53734901,2.5346535 0.45777565,2.6966591 0.43742187,2.7546214 0.4132079,2.8881749 c -0.0157518,0.08688 -0.003113,0.1199461 0.0576059,0.1507149 0.0256914,0.013019 0.0715337,0.043888 0.10187192,0.068599 l 0.0551603,0.044929 0.16372472,-0.016637 C 0.98397255,3.1162298 1.1414049,3.0794503 1.291648,3.0189521 c 0.058261,-0.02346 0.1091098,-0.042654 0.112997,-0.042654 0.00774,0 0.094199,0.180357 0.111291,0.2321462 0.00983,0.029775 0.108902,0.1295443 0.224801,0.2263752 0.043023,0.035944 0.02161,0.034616 0.2489514,0.015452 z M 0.7046493,3.0169205 C 0.58295559,2.9359829 0.55685569,2.9148884 0.55685569,2.8974703 c 0,-0.048041 0.0507534,-0.2121304 0.0829157,-0.2680721 0.0193335,-0.033628 0.0451025,-0.078423 0.0572645,-0.099545 0.012162,-0.021122 0.0447968,-0.066487 0.0725218,-0.1008101 0.15359256,-0.190147 0.2043616,-0.2507289 0.25695481,-0.3066203 l 0.058149,-0.061796 0.025319,0.023392 c 0.034069,0.031476 0.1517233,0.1722093 0.1640324,0.196209 0.00542,0.010561 0.017436,0.079688 0.026711,0.1536154 0.00927,0.073927 0.029367,0.1901834 0.04465,0.2583466 0.032401,0.144514 0.036555,0.1326951 -0.071991,0.2048567 C 1.1632271,2.9702776 1.0512157,3.0132859 0.92849177,3.0294724 0.77788819,3.049336 0.7511319,3.0478356 0.7046493,3.0169205 Z m 2.1975108,0.014893 c -0.00539,-0.00677 -0.015525,-0.035125 -0.022525,-0.063008 -0.014712,-0.0586 -0.01076,-0.056901 -0.1457619,-0.062652 -0.093102,-0.00397 -0.093609,-0.00386 -0.093609,0.018677 0,0.028429 -0.024977,0.029918 -0.07479,0.00446 C 2.5300585,2.911187 2.4393516,2.7944991 2.4249967,2.7485741 c -0.00378,-0.012091 0.00167,-0.053608 0.012608,-0.09601 0.026908,-0.1043358 0.05416,-0.2310562 0.073442,-0.341508 0.015133,-0.086681 0.018566,-0.0951 0.044189,-0.1083505 0.01528,-0.0079 0.058276,-0.043133 0.095547,-0.078293 l 0.067765,-0.063926 0.072468,0.076267 C 3.0107343,2.36799 3.1315122,2.5391036 3.2058795,2.724515 l 0.051121,0.1274551 -0.024943,0.035992 c -0.013718,0.019796 -0.04573,0.061811 -0.071137,0.093367 l -0.046194,0.057374 -0.1013854,0.00271 c -0.073694,0.00197 -0.1040612,-6.519e-4 -0.1111824,-0.0096 z M 2.2986504,2.8079402 C 2.1422138,2.7259446 2.0066007,2.6453977 2.0066007,2.6344783 c 0,-0.00647 0.022682,-0.02565 0.050405,-0.042616 0.027723,-0.016966 0.074167,-0.049565 0.1032103,-0.072443 0.029043,-0.022878 0.09709,-0.076488 0.1512152,-0.1191343 0.054125,-0.042646 0.09841,-0.081553 0.09841,-0.086459 0,-0.013635 0.039343,-0.031699 0.048687,-0.022354 0.017214,0.017214 -0.058028,0.5141458 -0.081588,0.538848 -0.00965,0.010117 -0.024259,0.00594 -0.07829,-0.02238 z M 1.5132103,2.785992 c -0.00385,-0.00623 -0.073066,-0.3951833 -0.073066,-0.4106009 0,-0.013802 0.032839,0.0072 0.1476526,0.094456 0.071224,0.054125 0.1491888,0.1129262 0.1732553,0.1306685 0.024066,0.017742 0.041349,0.036154 0.038407,0.040916 -0.013675,0.022127 -0.2463044,0.1524483 -0.2721263,0.1524483 -0.00509,0 -0.011441,-0.00355 -0.014122,-0.00789 z M 1.793178,2.5022078 C 1.6748215,2.4193478 1.571956,2.3441331 1.5313531,2.3107631 1.5038166,2.2881318 1.4827568,2.2459709 1.4265611,2.1009727 1.4044714,2.0439762 1.4017402,2.0233355 1.4017402,1.9133911 V 1.789853 L 1.4819742,1.716422 C 1.5261032,1.676035 1.5898293,1.621873 1.6235883,1.5960631 1.6964523,1.5403551 1.8186614,1.474375 1.8363832,1.4811756 c 0.00691,0.00265 0.046951,0.00128 0.088987,-0.00303 0.075607,-0.00777 0.07692,-0.00752 0.1220156,0.02268 0.051338,0.034384 0.05836,0.049246 0.01922,0.040682 -0.054857,-0.012004 -0.2479579,-0.02168 -0.2697987,-0.01352 -0.012416,0.00464 -0.044819,0.022796 -0.072007,0.04035 -0.027188,0.017553 -0.080326,0.051866 -0.1180833,0.076249 -0.057022,0.036825 -0.071223,0.051318 -0.083843,0.085565 -0.00836,0.022677 -0.026476,0.071473 -0.040268,0.1084372 -0.039052,0.104665 -0.039019,0.1052623 0.013418,0.2440457 0.026407,0.069892 0.04948,0.1278365 0.051271,0.1287662 0.00179,9.293e-4 0.01652,0.01095 0.03273,0.022268 0.016209,0.011317 0.059414,0.036297 0.09601,0.05551 0.036596,0.019213 0.080674,0.043876 0.097952,0.054805 0.030142,0.019067 0.036169,0.019408 0.1488149,0.00843 0.06457,-0.00629 0.1295659,-0.01526 0.1444348,-0.01993 0.014869,-0.00467 0.078093,-0.052473 0.1404987,-0.1062303 l 0.1134644,-0.09774 0.015541,-0.1161606 c 0.00855,-0.063888 0.015531,-0.12402 0.015517,-0.1336259 -9.6e-6,-0.00961 -0.037828,-0.071961 -0.084033,-0.1385663 C 2.1602277,1.5844733 2.163204,1.5895447 2.1874436,1.6025173 c 0.026229,0.014037 0.1492539,0.1135025 0.2046008,0.165419 0.048168,0.045182 0.056111,0.06539 0.076131,0.1936829 0.013166,0.084369 0.015347,0.077815 -0.074628,0.2241891 -0.035759,0.058173 -0.058893,0.081417 -0.1498111,0.1505204 -0.059137,0.044948 -0.1277341,0.096078 -0.1524376,0.1136217 -0.024703,0.017544 -0.073515,0.05242 -0.1084708,0.077502 -0.034955,0.025083 -0.069156,0.045605 -0.076002,0.045605 -0.00685,0 -0.057987,-0.031882 -0.1136479,-0.07085 z M 2.3042304,1.4728596 C 2.2276628,1.4122659 2.1446058,1.3487935 2.1196596,1.3318097 2.0947132,1.314826 2.0741911,1.2981402 2.074055,1.2947303 2.0737689,1.2875603 2.121558,1.2571423 2.274279,1.1672962 2.37809,1.1062242 2.409841,1.0966092 2.409841,1.1262472 c 0,0.00723 0.00658,0.055967 0.014621,0.1083122 0.022344,0.1454429 0.042984,0.3026461 0.042984,0.3273859 0,0.012217 -0.0054,0.021959 -0.012001,0.021648 -0.0066,-3.101e-4 -0.074648,-0.050141 -0.1512152,-0.1107346 z m -0.8928893,-0.00475 c 0,-0.065271 0.024039,-0.2930963 0.03461,-0.3279992 0.00627,-0.020711 0.017952,-0.021212 0.045193,-0.00194 0.011554,0.00818 0.070693,0.043956 0.131419,0.079512 0.060726,0.035556 0.110411,0.069203 0.110411,0.07477 0,0.012422 -0.2974083,0.2426227 -0.3144314,0.2433768 -0.00396,1.757e-4 -0.0072,-0.030299 -0.0072,-0.067722 z M 1.6892216,1.0642692 C 1.5218825,0.96811666 1.4977498,0.95207396 1.4977498,0.9369845 c 0,-0.007298 0.00888,-0.0428877 0.019737,-0.0790875 0.010856,-0.0361998 0.028455,-0.0948465 0.039111,-0.13032608 0.010655,-0.0354795 0.028919,-0.0786839 0.040585,-0.0960096 0.011667,-0.0173257 0.042672,-0.0699435 0.0689,-0.1169284 0.039343,-0.0704781 0.0585,-0.0936254 0.1094746,-0.13227716 0.033983,-0.0257675 0.072162,-0.0494541 0.084843,-0.0526369 0.024362,-0.006115 0.065939,0.009347 0.1996677,0.0742536 l 0.07747,0.037601 0.046521,0.0840437 c 0.025587,0.0462241 0.060452,0.10780612 0.077478,0.13684902 0.026932,0.0459399 0.032406,0.0672098 0.042099,0.16359749 0.00613,0.0609357 0.00865,0.11710134 0.0056,0.12481248 -0.00305,0.007711 -0.066986,0.0454422 -0.1420875,0.0838466 -0.1222978,0.062539 -0.1463076,0.071307 -0.2300548,0.084008 -0.051428,0.0078 -0.1013596,0.014182 -0.1109584,0.014182 -0.0096,0 -0.071211,-0.03089 -0.1369171,-0.068644 z"
       id="path164"
       inkscape:connector-curvature="0" />
    <path
       style="fill:#050d2e;stroke-width:0.00960096"
       d="m 1.7713771,3.7737722 c -0.042244,-0.00367 -0.066007,-0.00803 -0.052805,-0.0097 0.013201,-0.00166 -0.00579,-0.00648 -0.042204,-0.010704 C 1.3337223,3.7136175 0.97401462,3.5609359 0.70668072,3.341778 0.61367297,3.2655311 0.45677341,3.1023036 0.39121945,3.0135939 0.20101897,2.7562086 0.07659037,2.4504685 0.03414747,2.1362136 0.02701565,2.0834084 0.02009466,2.0510051 0.0187675,2.0642064 0.01212851,2.1302446 0.00340901,1.8777674 0.00940046,1.7929793 0.01322517,1.7388539 0.01744033,1.7053705 0.0187675,1.7185719 0.02009466,1.7317732 0.02701565,1.6993699 0.03414747,1.6465647 0.06024137,1.4533607 0.11493504,1.2689992 0.19756681,1.0957104 0.29579007,0.88972454 0.39025539,0.75275156 0.54185653,0.59649676 0.71380266,0.41927243 0.85433551,0.31673629 1.0705071,0.21078059 1.2698595,0.11306875 1.4914539,0.04725627 1.6753675,0.03113992 c 0.0463,-0.0040572 0.05974,-0.00777 0.043204,-0.01193497 -0.038484,-0.00969311 0.1884496,-0.0177531 0.2832283,-0.01005942 0.047525,0.00385782 0.075608,0.00826653 0.062406,0.00979712 -0.013201,0.0015306 0.00579,0.0062395 0.042204,0.0104642 0.3426456,0.03975395 0.7023533,0.19243552 0.9696872,0.41159347 0.093008,0.0762469 0.2499072,0.23947437 0.3154613,0.32818407 0.1902004,0.25738531 0.314629,0.56312541 0.357072,0.87738031 0.00713,0.052805 0.014053,0.085208 0.01538,0.072007 0.00133,-0.013201 0.00554,0.020282 0.00937,0.074407 0.00599,0.084788 -0.00273,0.3372653 -0.00937,0.2712271 -0.00133,-0.013201 -0.00825,0.019202 -0.01538,0.072007 -0.015402,0.1140374 -0.043926,0.2366228 -0.08266,0.3552356 -0.032769,0.100347 -0.1423227,0.3272965 -0.2016055,0.4176417 -0.036543,0.055691 -0.041329,0.059824 -0.044479,0.038404 -0.00194,-0.013201 -0.0162,-0.074314 -0.031688,-0.1358077 C 3.3376695,2.6110674 3.1879554,2.3344412 3.0306068,2.1509669 3.0057041,2.1219295 2.8998165,1.9180033 2.8995781,1.8986222 c -4.8e-5,-0.00394 0.044562,-0.057948 0.099133,-0.120012 0.09399,-0.1068934 0.2473759,-0.3230638 0.2937918,-0.4140465 0.022715,-0.044525 0.053305,-0.1725711 0.043556,-0.18232 -0.00762,-0.00762 -0.027599,0.019464 -0.085761,0.1162396 -0.074881,0.1245976 -0.2368187,0.3277115 -0.362946,0.4552349 L 2.7718756,1.8704727 2.7295888,1.8209324 C 2.706331,1.7936853 2.6600618,1.7281844 2.6267682,1.675375 L 2.5662344,1.5793579 2.5505157,1.4065407 c -0.00865,-0.09505 -0.018409,-0.2138614 -0.021696,-0.2640264 l -0.00598,-0.091209 0.080313,-0.035689 c 0.207636,-0.0922674 0.3626397,-0.1381148 0.4994339,-0.14772384 0.086501,-0.006076 0.095153,-0.005006 0.1296129,0.0160341 0.020309,0.0123997 0.061621,0.0459298 0.091805,0.0745113 0.068065,0.0644499 0.084333,0.0621918 0.084333,-0.0117055 0,-0.0408839 -0.00495,-0.0583223 -0.022576,-0.0795092 -0.012417,-0.0149266 -0.027505,-0.0365142 -0.03353,-0.0479725 -0.00602,-0.0114583 -0.027188,-0.0260459 -0.047031,-0.032417 -0.019843,-0.006371 -0.042558,-0.0169682 -0.050479,-0.0235494 -0.020941,-0.0173996 -0.1572309,-0.038014 -0.2352235,-0.0355786 -0.094672,0.002956 -0.2608228,0.0420382 -0.4170494,0.0980987 -0.073391,0.0263356 -0.1370308,0.04787 -0.1414225,0.0478542 -0.00439,-1.572e-5 -0.029587,-0.0632644 -0.05599,-0.1405525 C 2.3577342,0.5946269 2.3555315,0.590576 2.2536532,0.45468482 L 2.1502706,0.3167873 2.0161574,0.24960278 C 1.942395,0.21265128 1.8765511,0.18241824 1.8698373,0.18241824 c -0.011447,0 -0.1335733,0.0913191 -0.2261371,0.16909306 -0.049127,0.041277 -0.1369983,0.20824311 -0.1950051,0.37053084 -0.020205,0.0565291 -0.043189,0.11822305 -0.051076,0.13709765 l -0.014339,0.0343174 -0.036375,-0.0154372 c -0.1593355,-0.0676206 -0.37089985,-0.13265468 -0.46841805,-0.14399 -0.0550697,-0.006401 -0.0590829,-0.008737 -0.0911587,-0.0530609 -0.0555187,-0.0767181 -0.0711192,-0.0769126 -0.19510417,-0.002433 -0.0692412,0.0415943 -0.11217693,0.078359 -0.11217693,0.0960541 0,0.006887 -0.0149443,0.0321002 -0.0332095,0.0560289 -0.0370892,0.0485895 -0.0506619,0.0983386 -0.0348761,0.12783454 0.005764,0.01077 0.0104798,0.0285066 0.0104798,0.0394148 0,0.0109082 0.001325,0.0198331 0.002944,0.0198331 0.001619,0 0.0239475,-0.0195599 0.0496191,-0.0434663 0.0484882,-0.0451543 0.0650535,-0.0493946 0.0708827,-0.0181443 0.0106616,0.0571569 0.0451908,0.0551057 0.14085817,-0.008368 C 0.80649891,0.86826952 0.80607776,0.8683563 0.91237484,0.90123761 1.0574842,0.9461249 1.2797144,1.0355757 1.3023447,1.0582059 c 0.011554,0.011554 0.011479,0.027697 -5.29e-4,0.1136936 -0.0077,0.055125 -0.021214,0.1671944 -0.030038,0.2490426 -0.00882,0.081848 -0.020537,0.1574557 -0.02603,0.1680168 -0.01758,0.033803 -0.1694435,0.2409491 -0.1906316,0.260028 l -0.020434,0.0184 -0.10488887,-0.110411 C 0.73960524,1.5567739 0.63399725,1.4197682 0.51363403,1.2170894 0.43691518,1.0879031 0.4295434,1.1644074 0.50262347,1.3313573 c 0.0441958,0.1009644 0.20726185,0.3440889 0.28144462,0.4196218 0.0767736,0.078171 0.0800183,0.086024 0.0800183,0.1936531 0,0.091586 -0.001606,0.099624 -0.0264026,0.1321514 -0.24976547,0.327632 -0.25435341,0.3345787 -0.33253282,0.5034968 -0.0957838,0.206955 -0.13169449,0.3787528 -0.0902052,0.4315449 0.004982,0.00634 0.0328211,0.024936 0.0618653,0.041328 0.0290442,0.016392 0.0722244,0.047701 0.0959561,0.069576 l 0.0431485,0.039773 0.16780305,-0.016282 C 1.0100032,3.1242628 1.1793293,3.081973 1.351592,3.0043912 c 0.022583,-0.010171 0.043051,-0.018493 0.045484,-0.018493 0.00787,0 0.073931,0.1373888 0.096951,0.2016202 0.023523,0.065636 0.016973,0.058282 0.1998563,0.2243667 l 0.072622,0.065951 0.093645,-0.00615 c 0.2092869,-0.013754 0.1956638,-0.00959 0.2458623,-0.075141 0.043017,-0.056173 0.054781,-0.08421 0.035332,-0.08421 -0.010788,0 -0.1276996,0.062397 -0.1650289,0.088078 -0.014017,0.00964 -0.031985,0.017532 -0.039931,0.017532 -0.00795,0 -0.063444,-0.0416 -0.1233304,-0.092444 L 1.7041704,3.2330543 1.6580313,3.1310786 C 1.6044267,3.0126031 1.5649565,2.9182697 1.5649565,2.9086311 c 0,-0.012939 0.2706925,-0.1627565 0.2940717,-0.1627565 0.042893,0 0.2142504,0.066062 0.341253,0.1315612 l 0.1251327,0.064534 -0.00487,0.03634 c -0.00268,0.019987 -0.018323,0.065079 -0.034761,0.1002055 -0.016437,0.035126 -0.027939,0.065813 -0.025558,0.068194 0.00933,0.00933 0.026437,-0.010926 0.053272,-0.063101 0.015419,-0.029978 0.038295,-0.066991 0.050835,-0.082249 l 0.0228,-0.027743 0.080963,0.034291 c 0.04453,0.01886 0.096527,0.040579 0.1155502,0.048264 0.026146,0.010562 0.036008,0.021078 0.04041,0.043085 0.00323,0.016141 0.013484,0.031405 0.023019,0.034257 0.031769,0.0095 0.5684857,0.015417 0.5918855,0.00652 0.012617,-0.0048 0.031829,-0.023078 0.042694,-0.040624 0.019745,-0.031887 0.075231,-0.072162 0.085403,-0.06199 C 3.382047,3.052414 3.1326549,3.3022202 3.0145822,3.3904761 2.7554899,3.5841402 2.398933,3.7260923 2.1074108,3.7516384 c -0.049682,0.00435 -0.060948,0.00768 -0.043204,0.012757 0.017983,0.00515 0.011726,0.00711 -0.024954,0.00782 -0.026926,5.261e-4 -0.080932,0.00259 -0.120012,0.00459 -0.039081,0.002 -0.105619,6.311e-4 -0.1478633,-0.00304 z M 0.71809666,3.0121433 c -0.069985,-0.042182 -0.14345672,-0.095575 -0.14807448,-0.107609 -0.00692,-0.018033 0.0341906,-0.186109 0.0564199,-0.2306669 0.0699798,-0.1402718 0.20472115,-0.3216595 0.37705912,-0.5075936 0.054351,-0.058639 0.084087,-0.083892 0.09421,-0.080007 0.015232,0.00585 0.1491571,0.1693211 0.1667645,0.2035621 0.00543,0.010561 0.015077,0.068887 0.021435,0.129613 0.011443,0.1092792 0.025812,0.1886866 0.058714,0.3244681 0.016946,0.069932 0.01694,0.070073 -0.00376,0.089562 -0.037359,0.035171 -0.1904713,0.1251325 -0.2530864,0.1487008 -0.059689,0.022467 -0.23071687,0.051891 -0.29977096,0.051573 -0.0188828,-8.64e-5 -0.0503428,-0.00981 -0.0699107,-0.021603 z m 2.19762214,0.014559 c -0.0053,-0.00929 -0.022491,-0.067086 -0.029745,-0.099989 -0.00537,-0.024364 -0.00918,-0.025855 -0.08007,-0.031322 -0.040937,-0.00316 -0.099273,-0.00778 -0.1296362,-0.010275 l -0.055206,-0.00453 v 0.028656 c 0,0.033858 -2.016e-4,0.033903 -0.045987,0.010266 -0.024359,-0.012576 -0.052133,-0.04302 -0.087847,-0.096296 l -0.052226,-0.077906 0.02083,-0.088523 c 0.026438,-0.1123558 0.078821,-0.3799514 0.078821,-0.402656 0,-0.00947 0.011755,-0.026919 0.026121,-0.038765 0.014367,-0.011846 0.052538,-0.046381 0.084824,-0.076744 0.032286,-0.030363 0.062746,-0.055206 0.067688,-0.055206 0.013349,0 0.1641521,0.1566896 0.2359403,0.2451506 0.1186696,0.1462304 0.189267,0.2579243 0.2347398,0.3713878 0.023879,0.059584 0.047228,0.1178603 0.051885,0.1295036 0.00707,0.017668 -0.0027,0.036326 -0.059087,0.1128113 l -0.067555,0.091642 h -0.094692 c -0.052081,0 -0.09654,-0.00324 -0.098799,-0.0072 z M 2.1986199,2.7398652 C 2.1167717,2.6944701 2.0433243,2.6510843 2.0354036,2.6434523 2.0226058,2.631121 2.0226431,2.6286429 2.0357386,2.621197 2.0998517,2.5847443 2.3109992,2.4222383 2.3835089,2.3535417 c 0.030402,-0.028803 0.056965,-0.050601 0.059029,-0.04844 0.00997,0.010442 -0.062064,0.4853131 -0.077423,0.5103801 -0.0074,0.012075 -0.012848,0.0096 -0.166495,-0.075617 z m -0.6762457,0.01321 C 1.5167589,2.7263816 1.4719403,2.4854682 1.463432,2.4362436 1.4600094,2.4164417 1.46067,2.40024 1.4649002,2.40024 c 0.00423,0 0.055476,0.035992 0.1138798,0.079982 0.058404,0.04399 0.1288708,0.096203 0.1565935,0.1160292 0.027723,0.019826 0.050405,0.037707 0.050405,0.039735 0,0.012719 -0.2263483,0.1386913 -0.2492023,0.1386913 -0.00531,0 -0.011703,-0.00972 -0.014202,-0.021602 z M 1.8625863,2.5387975 c -0.05162,-0.036433 -0.043749,-0.046386 0.043204,-0.054631 0.1274861,-0.012088 0.1327343,-0.00897 0.064884,0.038486 -0.032084,0.022442 -0.061968,0.040592 -0.06641,0.040333 -0.00444,-2.592e-4 -0.023196,-0.011143 -0.041678,-0.024188 z M 2.3805531,1.5153815 C 2.3459629,1.4870052 2.267081,1.4254156 2.2052599,1.3785157 2.0939431,1.2940662 2.0930672,1.2930951 2.1145358,1.2779259 2.1475291,1.2546135 2.3749654,1.1222173 2.3854082,1.1202444 c 0.00504,-9.525e-4 0.012125,0.01987 0.015737,0.046272 0.027722,0.2026706 0.04776,0.373408 0.045271,0.3857384 -0.00215,0.010656 -0.020334,4.753e-4 -0.065862,-0.036874 z M 1.7377738,1.0808291 C 1.6981698,1.0575684 1.6352448,1.0212158 1.5979403,1.0000455 1.5606359,0.9788753 1.5254693,0.95582556 1.5197924,0.9488239 1.5059868,0.93179658 1.5712177,0.70101316 1.607934,0.63698365 1.7088586,0.46098132 1.7258234,0.43635871 1.7704882,0.40105321 c 0.08421,-0.0665641 0.096774,-0.0703179 0.1535193,-0.0458679 0.1765095,0.076053 0.2060182,0.0940699 0.2316938,0.14146381 0.013648,0.0251928 0.046935,0.0846891 0.073971,0.13221381 0.046322,0.0814279 0.049824,0.0924049 0.060745,0.19043429 0.00637,0.0572141 0.00954,0.1118433 0.00705,0.12139821 -0.00275,0.0105001 -0.05453,0.0438918 -0.1309011,0.084409 -0.1208402,0.064109 -0.1311798,0.06772 -0.2367692,0.082689 -0.060726,0.00861 -0.1125713,0.01558 -0.1152115,0.01549 -0.00264,-8.64e-5 -0.037204,-0.019194 -0.076808,-0.042455 z"
       id="path162"
       inkscape:connector-curvature="0" />
  </g>
</svg>
