<?xml version="1.0" encoding="UTF-8" standalone="no"?>
<!-- Created with Inkscape (http://www.inkscape.org/) -->

<svg
   xmlns:dc="http://purl.org/dc/elements/1.1/"
   xmlns:cc="http://creativecommons.org/ns#"
   xmlns:rdf="http://www.w3.org/1999/02/22-rdf-syntax-ns#"
   xmlns:svg="http://www.w3.org/2000/svg"
   xmlns="http://www.w3.org/2000/svg"
   xmlns:sodipodi="http://sodipodi.sourceforge.net/DTD/sodipodi-0.dtd"
   xmlns:inkscape="http://www.inkscape.org/namespaces/inkscape"
   version="1.1"
   id="svg329"
   width="113.38583"
   height="113.38583"
   viewBox="0 0 113.38583 113.38583"
   sodipodi:docname="4_1.svg"
   inkscape:version="0.92.4 (5da689c313, 2019-01-14)">
  <metadata
     id="metadata335">
    <rdf:RDF>
      <cc:Work
         rdf:about="">
        <dc:format>image/svg+xml</dc:format>
        <dc:type
           rdf:resource="http://purl.org/dc/dcmitype/StillImage" />
        <dc:title></dc:title>
      </cc:Work>
    </rdf:RDF>
  </metadata>
  <defs
     id="defs333" />
  <sodipodi:namedview
     pagecolor="#ffffff"
     bordercolor="#666666"
     borderopacity="1"
     objecttolerance="10"
     gridtolerance="10"
     guidetolerance="10"
     inkscape:pageopacity="0"
     inkscape:pageshadow="2"
     inkscape:window-width="1366"
     inkscape:window-height="715"
     id="namedview331"
     showgrid="false"
     showguides="false"
     inkscape:zoom="1.9496253"
     inkscape:cx="1.8922089"
     inkscape:cy="1.8902924"
     inkscape:window-x="-8"
     inkscape:window-y="-8"
     inkscape:window-maximized="1"
     inkscape:current-layer="svg329" />
  <g
     id="g339"
     transform="matrix(29.977803,0,0,29.983618,0.0245739,-0.00260312)">
    <path
       style="fill:#d0e7a4;stroke-width:0.00960096"
       d="M 1.6225623,3.7679543 C 1.3216368,3.7348633 0.99704454,3.5983839 0.72487249,3.3905078 0.63792264,3.3240984 0.47561846,3.163531 0.40808265,3.0771077 0.08261356,2.6606164 -0.0474193,2.1870111 0.01390161,1.6414225 0.03755833,1.4309424 0.0812881,1.2807581 0.17797064,1.0779486 0.38455673,0.64459594 0.74181871,0.30693541 1.1763955,0.13430308 c 0.078937,-0.0313573 0.1101332,-0.0357725 0.1101332,-0.0155873 0,0.007208 -0.079972,0.0838955 -0.1777148,0.17041704 -0.1226507,0.1085696 -0.17601411,0.16177404 -0.17222624,0.17171327 0.0104147,0.0273278 0.34306464,0.60015461 0.37047094,0.63795501 0.015111,0.020842 0.027475,0.046156 0.027475,0.056254 0,0.025468 0.1873618,0.2466097 0.2268895,0.2677952 0.017747,0.00951 0.033787,0.017294 0.035646,0.017294 0.00625,0 0.020491,-0.2820962 0.020592,-0.4080408 5.76e-5,-0.0686469 -0.00357,-0.24578456 -0.00805,-0.39363935 L 1.6014668,0.36963697 1.5435393,0.28082808 C 1.511679,0.2319832 1.4790864,0.1920192 1.4711111,0.1920192 c -0.011991,0 -0.013459,-0.009969 -0.00848,-0.0576058 0.00371,-0.03548171 0.00239,-0.05760576 -0.00343,-0.05760576 -0.02121,0 -0.0074,-0.02104104 0.021829,-0.03325262 C 1.5270986,0.02430555 1.7577642,-1.2909931e-5 1.8933303,8.7125641e-5 2.01914,1.7996184e-4 2.2105536,0.01946479 2.3254722,0.04362523 c 0.2488586,0.0523199 0.5453625,0.19790144 0.766037,0.37611936 0.084545,0.0682788 0.2363724,0.22323594 0.2989657,0.3051279 0.1594442,0.20860398 0.2812686,0.45880631 0.345076,0.70871541 0.061274,0.2399873 0.061274,0.6756152 0,0.9156025 C 3.6690591,2.6096134 3.5459837,2.8578752 3.3746873,3.0771077 3.3071681,3.1635216 3.1448697,3.3240877 3.0579058,3.3905078 2.8465857,3.5519072 2.6020689,3.6709121 2.3485518,3.7357465 2.1788806,3.7791381 1.8549524,3.7935088 1.6225623,3.7679543 Z M 1.1759829,2.460246 c 0.00991,-0.1465346 0.02047,-0.4046272 0.023474,-0.5735391 0.00624,-0.3507847 0.0016,-0.3361044 0.087908,-0.2779253 0.064177,0.043259 0.1625482,0.09362 0.1694293,0.086739 0.00281,-0.00281 -0.00919,-0.021453 -0.026655,-0.041433 C 1.2049054,1.3964839 1.1134381,1.3017624 0.94653499,1.153277 0.84338177,1.0615067 0.75643034,0.97837711 0.75330958,0.96854448 c -0.00956,-0.0301206 0.004496,-0.0398241 0.0502224,-0.0346701 0.0364521,0.004109 0.0417241,0.002547 0.0367673,-0.0108936 -0.0378888,-0.10273612 -0.0978418,-0.23171163 -0.10770885,-0.23171163 -0.0155764,0 -0.0155959,0.004404 -0.001348,0.30455599 l 0.0114945,0.24214976 0.17524168,0.1164829 c 0.0963829,0.064065 0.17764849,0.1227548 0.18059019,0.1304206 0.00512,0.013348 -0.03336,0.060911 -0.049227,0.060844 -0.0042,-1.92e-5 -0.0573221,-0.018954 -0.11804819,-0.042079 -0.0607261,-0.023126 -0.11192377,-0.040681 -0.11377268,-0.03901 -0.008873,0.00802 0.0157912,0.02577 0.10648064,0.076647 0.11803243,0.066217 0.13210453,0.077571 0.13210453,0.1065905 0,0.033012 -0.029887,0.036269 -0.16861878,0.01838 -0.0669844,-0.00864 -0.12392442,-0.01357 -0.12653333,-0.010962 -0.005648,0.00565 0.00637,0.00863 0.15518076,0.038448 0.0836196,0.016758 0.11853795,0.028042 0.12961295,0.041887 0.00834,0.010423 0.02704,0.021733 0.041561,0.025135 0.01992,0.00467 0.026403,0.01195 0.026403,0.029666 0,0.041474 -0.025579,0.046228 -0.20785845,0.038634 -0.0916185,-0.00382 -0.16663804,-0.00324 -0.16671014,0.00129 -7.201e-5,0.00453 -0.002736,0.017954 -0.00592,0.029835 -0.005673,0.021169 -0.004142,0.021602 0.076253,0.021602 0.0617825,0 0.0857678,0.00373 0.0971294,0.015087 0.008298,0.0083 0.0150872,0.0192 0.0150872,0.024227 0,0.00555 0.0299855,0.00664 0.0764337,0.00277 0.0879933,-0.00734 0.12518639,0.00722 0.12518639,0.049013 0,0.029404 -0.018555,0.039123 -0.091209,0.047771 -0.0497628,0.00592 -0.19446104,0.032726 -0.26162614,0.048461 -0.0118812,0.00278 -0.0216022,0.011459 -0.0216022,0.019279 0,0.011101 0.0137025,0.014219 0.0625002,0.014219 0.0485295,0 0.0658403,0.0039 0.0774426,0.017451 0.0131368,0.015343 0.0218086,0.016346 0.071763,0.0083 0.0427824,-0.00689 0.0604158,-0.00617 0.0713723,0.00293 0.035533,0.02949 0.012305,0.051344 -0.1126022,0.1059397 -0.0514526,0.022489 -0.0987808,0.047192 -0.10517366,0.054895 -0.009184,0.011066 -0.003655,0.010541 0.0263435,-0.0025 0.13452572,-0.058486 0.22165146,-0.075194 0.24505566,-0.046993 0.021159,0.025495 -2.285e-4,0.043815 -0.11911598,0.1020335 -0.0615863,0.030158 -0.11197514,0.059536 -0.11197514,0.065283 0,0.015813 0.0256681,0.062149 0.0418816,0.075605 0.0115441,0.00958 0.0205715,0.00876 0.0462376,-0.00422 0.017541,-0.00887 0.0411909,-0.024619 0.0525554,-0.034997 0.0282561,-0.025805 0.0647249,-0.01973 0.06913,0.011515 0.00268,0.018995 -0.00728,0.033407 -0.047736,0.069076 -0.028116,0.02479 -0.0490807,0.046393 -0.0465884,0.048005 0.002492,0.00161 0.039679,0.036415 0.082637,0.077339 0.042958,0.040924 0.08424,0.074407 0.091737,0.074407 0.011015,0 0.017089,-0.051146 0.031643,-0.2664267 z M 2.903691,2.4782069 2.917986,2.4505633 2.7795063,2.3677959 C 2.7033424,2.3222738 2.638095,2.2850285 2.6345119,2.2850285 c -0.00729,0 0.051748,0.057781 0.1589339,0.1555418 0.039366,0.035904 0.077058,0.06528 0.083762,0.06528 0.0067,0 0.018621,-0.01244 0.026483,-0.027643 z M 2.980618,2.3058273 c -0.00502,-0.0044 -0.057266,-0.028516 -0.1161092,-0.053585 -0.1283682,-0.05469 -0.1474372,-0.067131 -0.1474372,-0.096195 0,-0.029592 0.021479,-0.046039 0.050586,-0.038734 0.017162,0.00431 0.025353,0.00141 0.029959,-0.010592 0.00552,-0.014395 0.015884,-0.015763 0.080509,-0.010632 0.040793,0.00324 0.094692,0.00878 0.1197743,0.012311 0.1562908,0.022009 -0.1135481,-0.057547 -0.3072307,-0.090581 l -0.050405,-0.0086 -8.64e-5,0.044294 c -4.8e-5,0.024362 -0.00281,0.066976 -0.00614,0.094699 -0.00474,0.039462 -0.00316,0.050463 0.00728,0.050674 0.00734,1.479e-4 0.082465,0.025824 0.1669539,0.057058 0.1471024,0.054381 0.1924088,0.067495 0.1723372,0.049881 z M 3.067507,1.9105911 c 0,-0.022648 -0.00352,-0.024273 -0.062406,-0.028803 -0.054407,-0.00419 -0.062778,-0.0074 -0.065306,-0.025119 -0.00284,-0.019865 -0.00615,-0.020234 -0.1488149,-0.016526 l -0.1459151,0.00379 -0.00289,0.042081 -0.00289,0.042081 0.036495,-0.00417 c 0.020072,-0.00229 0.096981,-2.938e-4 0.1709085,0.00444 0.073927,0.00473 0.1538554,0.00807 0.1776177,0.00741 0.039367,-0.00108 0.043204,-0.00332 0.043204,-0.025192 z M 2.8966791,1.7190633 c 0.064461,-0.011005 0.1271069,-0.023825 0.1392139,-0.02849 0.021162,-0.00815 0.021271,-0.00873 0.00281,-0.015025 -0.055594,-0.018944 -0.062406,-0.024303 -0.062406,-0.049099 0,-0.021311 -0.00343,-0.024553 -0.021602,-0.020447 -0.1241688,0.028052 -0.1745708,0.036565 -0.201286,0.033995 -0.027772,-0.00267 -0.031537,-0.00639 -0.031537,-0.031123 0,-0.024894 0.00765,-0.032249 0.067207,-0.064658 0.072484,-0.03944 0.072484,-0.048734 0,-0.017664 -0.076134,0.032635 -0.1258329,0.020304 -0.1183487,-0.029364 0.00235,-0.015612 0.030918,-0.035556 0.1142046,-0.079736 0.1568552,-0.083205 0.1476356,-0.076189 0.133883,-0.1018855 -0.010242,-0.019138 -0.016744,-0.021085 -0.053555,-0.01604 -0.023043,0.00316 -0.065203,0.013611 -0.093688,0.023227 -0.063325,0.021379 -0.073705,0.018582 -0.073705,-0.019856 0,-0.02404 0.010515,-0.039821 0.052683,-0.079065 l 0.052683,-0.04903 -0.067907,-0.026523 c -0.037349,-0.014588 -0.069344,-0.025086 -0.0711,-0.02333 -0.00268,0.00268 -0.00811,0.6067484 -0.0056,0.6231082 0.00109,0.00708 0.090617,-0.00383 0.2380544,-0.028995 z M 1.2481248,1.2116412 c 0,-0.041188 0.00467,-0.079553 0.010369,-0.085256 0.00742,-0.00742 -0.00503,-0.022912 -0.043853,-0.054536 L 1.16042,1.0276806 1.1034623,1.0564328 c -0.031327,0.015814 -0.056958,0.034819 -0.056958,0.042235 0,0.013428 0.1804342,0.1878613 0.1943237,0.1878613 0.00401,0 0.0073,-0.033699 0.0073,-0.074887 z"
       id="path353"
       inkscape:connector-curvature="0" />
    <path
       style="fill:#c7e29d;stroke-width:0.00960096"
       d="M 1.6354092,3.767729 C 1.2910987,3.7259933 0.96478762,3.5812455 0.66849957,3.3388189 0.52198191,3.2189363 0.385781,3.0588366 0.26882688,2.8690171 0.04818842,2.510915 -0.04051044,2.071825 0.01853276,1.6299748 0.04868932,1.4042981 0.07702455,1.3093408 0.17974819,1.089709 0.3080457,0.81539795 0.44214803,0.63727825 0.65174074,0.46279091 0.85381613,0.29456179 0.9904194,0.21071351 1.1707298,0.14423099 c 0.087834,-0.0323853 0.086996,-0.0321841 0.086996,-0.0208964 0,0.006598 -0.26102046,0.2439247 -0.32960779,0.29968778 -0.0101349,0.00824 -0.018427,0.0263461 -0.018427,0.040236 0,0.020718 0.0903911,0.18480516 0.30766419,0.55850343 0.00283,0.00487 -0.00517,0.00163 -0.017779,-0.0072 -0.031678,-0.022188 -0.049127,-0.0203434 -0.1131157,0.011958 -0.10577096,0.053393 -0.10336208,0.072123 0.02482,0.1929884 0.1431844,0.135011 0.1628582,0.1364766 0.1676588,0.012489 l 0.00279,-0.072027 0.066604,0.082884 c 0.036632,0.045586 0.079836,0.089183 0.09601,0.096882 0.016173,0.0077 0.038046,0.026907 0.048606,0.042683 0.019147,0.028606 0.1039258,0.080213 0.1144621,0.069677 0.00305,-0.00305 0.00555,-0.04205 0.00555,-0.08666 0,-0.069691 0.0036,-0.087726 0.025582,-0.1281118 L 1.6641256,1.1903211 1.6427854,1.024128 C 1.6255623,0.88999698 1.6214889,0.81083334 1.6216708,0.61378589 l 2.255e-4,-0.24414892 -0.058363,-0.0885378 c -0.032099,-0.0486958 -0.064232,-0.0934091 -0.071406,-0.0993629 -0.00889,-0.007381 -0.012466,-0.0302995 -0.01123,-0.0720298 L 1.4827073,0.0485018 1.5310303,0.0389926 C 1.5576125,0.03376248 1.6074408,0.02413075 1.6417642,0.01758871 1.6782622,0.0106322 1.7818951,0.00574952 1.8913891,0.0058276 2.2193888,0.00606148 2.4683255,0.06356056 2.7455295,0.2031158 3.0508919,0.35684699 3.2851002,0.56533223 3.4767404,0.85401762 3.590181,1.0249038 3.6820065,1.2388955 3.7390565,1.4653236 c 0.0418,0.1659008 0.054453,0.4544541 0.029342,0.6691229 C 3.6789715,2.8989348 3.111642,3.5374733 2.3503867,3.7304415 2.1579249,3.7792285 1.8589192,3.7948215 1.6354092,3.767729 Z M 2.6660831,3.3310954 2.8695201,3.2518247 3.1077273,2.9824815 C 3.2387413,2.8343428 3.353754,2.7032922 3.363311,2.6912579 3.393337,2.6534488 3.5812186,2.0954804 3.5807243,2.0455867 3.5804857,2.0215041 3.5682486,1.8786679 3.5535307,1.7281728 L 3.526771,1.4545455 3.3835475,1.1584385 3.2403241,0.86233158 2.940382,0.62525548 2.6404399,0.38817938 2.5444043,0.3567011 C 2.4505723,0.3259452 2.4290429,0.3245767 2.4290429,0.3493691 c 0,0.006711 0.031915,0.11986736 0.070923,0.25145858 L 2.5708883,0.84008401 2.5876009,1.20012 c 0.026876,0.57899 0.031256,0.7462915 0.022871,0.8736874 -0.014436,0.2193511 -0.014834,0.2162819 0.033704,0.2604555 0.023274,0.021181 0.047473,0.050961 0.053776,0.066178 0.0063,0.015216 0.021451,0.034213 0.033662,0.042214 0.029235,0.019155 0.203354,0.1737345 0.2861974,0.2540799 0.067562,0.065525 0.093425,0.1026884 0.085981,0.1235476 -0.0051,0.014294 -0.037466,0.016027 -0.045853,0.00246 -0.00324,-0.00525 -0.047784,-0.039372 -0.098977,-0.075827 C 2.9077712,2.7104554 2.805735,2.6283423 2.7322163,2.5644367 2.6586976,2.5005312 2.5949712,2.4482448 2.5906021,2.4482448 c -0.00437,0 -0.00794,0.00541 -0.00794,0.012021 0,0.019347 0.055951,0.2095529 0.065219,0.2217122 0.00465,0.0061 0.0605,0.075897 0.1241111,0.1551052 0.1468741,0.1828845 0.1687073,0.2256226 0.1152613,0.2256226 -0.029669,0 -0.1970885,-0.1788863 -0.2683873,-0.2867685 -0.032696,-0.049472 -0.060957,-0.085419 -0.062802,-0.079883 -0.0039,0.011703 0.1381756,0.325683 0.157564,0.3482054 0.026483,0.030764 0.015813,0.055125 -0.035545,0.081151 -0.027243,0.013805 -0.056342,0.022165 -0.066228,0.019027 -0.010222,-0.00324 -0.026714,-0.028661 -0.039233,-0.060466 -0.025074,-0.063697 -0.053568,-0.1000813 -0.061266,-0.078231 -0.00267,0.00757 -0.019782,0.074247 -0.038036,0.1481743 -0.04848,0.1963471 -0.054963,0.2742898 -0.021699,0.2608931 0.00607,-0.00244 0.1025767,-0.040114 0.2144669,-0.083713 z m -0.0065,-1.5211676 c -0.016607,-0.02001 0.00334,-0.043348 0.037057,-0.043361 0.049559,-1.92e-5 0.3523765,-0.056814 0.3900636,-0.073156 0.05628,-0.024406 0.2832509,-0.031551 0.301557,-0.00949 0.01931,0.023268 4.119e-4,0.039228 -0.068897,0.058188 -0.032913,0.009 -0.1008864,0.029366 -0.1510514,0.045251 -0.086778,0.027479 -0.1010571,0.029082 -0.2939322,0.033001 -0.1728504,0.00351 -0.2045022,0.00198 -0.2147969,-0.010429 z m 0.083748,-0.1931047 c -0.01585,-0.01585 0.015666,-0.036257 0.1400906,-0.09071 0.074842,-0.032754 0.140396,-0.06264 0.1456765,-0.066415 0.00528,-0.00377 0.044164,-0.020187 0.086409,-0.036472 0.085474,-0.03295 0.2025834,-0.048555 0.2348392,-0.031292 0.02614,0.01399 0.025643,0.053894 -8.488e-4,0.068072 -0.03139,0.0168 -0.2078247,0.075554 -0.2723947,0.09071 -0.031683,0.00744 -0.1072907,0.026617 -0.1680168,0.042623 -0.1080186,0.028471 -0.1542227,0.035017 -0.1657551,0.023485 z M 1.1805864,2.7558838 c 0.019714,-0.012469 0.046934,-0.423185 0.054568,-0.8233539 l 0.0059,-0.3092941 0.040382,0.023666 c 0.02221,0.013016 0.049619,0.023666 0.060909,0.023666 0.011289,0 0.034672,0.00862 0.051962,0.019166 0.040142,0.024474 0.084304,0.025754 0.084077,0.00244 C 1.4777947,1.6316341 1.2316094,1.3532586 0.98436244,1.1335501 0.88670706,1.0467717 0.80851879,0.97405946 0.81061074,0.97196751 c 0.002092,-0.002092 0.0207161,0.00593 0.041387,0.0178268 0.0624055,0.035916 0.0944364,0.003027 0.0471126,-0.0483748 -0.01242,-0.0134903 -0.0427674,-0.0742127 -0.0674386,-0.1349388 C 0.77551844,0.668264 0.77532054,0.66792008 0.74976614,0.66412954 c -0.0285373,-0.004233 -0.0466055,0.01265 -0.0584131,0.0545815 -0.009163,0.0325393 0.003306,0.45827526 0.015153,0.51740436 0.003078,0.015361 0.0544633,0.055093 0.17803678,0.1376602 0.1100312,0.073519 0.17035778,0.1194187 0.16456528,0.1252113 -0.00579,0.00579 -0.0510603,-0.00646 -0.12348595,-0.033431 -0.11608278,-0.043225 -0.138455,-0.044787 -0.15158089,-0.010581 -0.0107916,0.028123 0.01059,0.047333 0.12255418,0.110111 0.10502166,0.058885 0.12797096,0.076679 0.0988938,0.076679 -0.0262138,0 -0.2291291,-0.028731 -0.23691927,-0.033545 -0.0132608,-0.0082 -0.0384979,0.023464 -0.0384979,0.048295 0,0.030498 0.0148151,0.037074 0.13921392,0.061791 C 1.0094466,1.74814 1.0055321,1.7468248 1.022855,1.773263 L 1.03862,1.797323 0.88597744,1.790403 c -0.13630681,-0.00618 -0.15437971,-0.00518 -0.1688749,0.00931 -0.008928,0.00893 -0.0162914,0.023484 -0.0163635,0.032348 -7.201e-5,0.00886 -0.002568,0.025193 -0.005546,0.036287 -0.00942,0.035091 0.0189014,0.051836 0.0876697,0.051836 0.0532577,0 0.0606072,0.00212 0.0553092,0.015922 -0.005575,0.014529 0.004831,0.015345 0.11890653,0.00932 0.10489183,-0.00554 0.12693463,-0.00429 0.13693203,0.00776 0.00655,0.0079 0.010198,0.01951 0.0081,0.025807 -0.00225,0.00674 -0.072729,0.022956 -0.1713248,0.039418 -0.17684396,0.029527 -0.21334645,0.040704 -0.21838595,0.066872 -0.005051,0.026226 0.0324043,0.055597 0.0724801,0.056836 0.019802,6.126e-4 0.0273627,0.00294 0.0168017,0.00517 -0.0105611,0.00223 -0.0289229,0.00613 -0.0408041,0.00867 -0.014059,0.003 -0.0216022,0.011631 -0.0216022,0.024718 0,0.024121 0.0127993,0.022753 0.13441344,-0.014365 0.10893375,-0.033248 0.16659541,-0.033005 0.14578111,6.145e-4 -0.00361,0.00583 -0.0570988,0.030827 -0.11885958,0.055538 -0.11598024,0.046406 -0.13864365,0.061578 -0.12910704,0.08643 0.00805,0.020977 0.0364328,0.017961 0.0995115,-0.010573 0.0937801,-0.042423 0.16616932,-0.061838 0.18766582,-0.050334 0.027227,0.014572 0.011344,0.027116 -0.10818414,0.085442 -0.12600312,0.061485 -0.1362841,0.07011 -0.12367819,0.1037465 0.0150222,0.040085 0.0577404,0.097463 0.0725611,0.097463 0.007413,0 0.0316679,-0.00881 0.0538998,-0.019567 L 0.99370067,2.495505 0.95769707,2.52809 c -0.0428195,0.038754 -0.0452956,0.058762 -0.009601,0.07758 0.0145215,0.00766 0.0523252,0.040639 0.0840084,0.073296 0.071738,0.073944 0.1165033,0.097128 0.1484832,0.076902 z"
       id="path351"
       inkscape:connector-curvature="0" />
    <path
       style="fill:#aad38f;stroke-width:0.00960096"
       d="M 1.6495153,3.7682648 C 1.1863664,3.7121822 0.74902745,3.4732416 0.43851988,3.1066362 0.31346245,2.9589853 0.16221815,2.6922267 0.10061369,2.5106511 0.03434083,2.3153155 -0.00280998,2.0671774 0.00286781,1.8577858 0.01131481,1.5462683 0.06115429,1.3399557 0.19419443,1.0657809 0.31156781,0.82389292 0.4639711,0.61807917 0.61446145,0.49822932 c 0.0343234,-0.027335 0.0883288,-0.0721711 0.120012,-0.0996357 0.11504466,-0.0997266 0.27837795,-0.19444964 0.42142425,-0.24439958 0.046965,-0.0163995 0.086959,-0.0282494 0.088875,-0.0263331 0.00192,0.001916 -0.071073,0.0696896 -0.1621983,0.15060721 -0.0911255,0.0809176 -0.17255959,0.15829569 -0.1809648,0.17195119 -0.0216619,0.035193 -0.16058398,0.19590192 -0.17755297,0.20539824 -0.007779,0.004354 -0.0243395,0.0238321 -0.0368003,0.0432857 -0.0124608,0.0194536 -0.0566195,0.0743786 -0.0981304,0.12205567 C 0.40873954,1.0283401 0.43313319,0.98471662 0.31666296,1.3084083 0.19584439,1.6441848 0.20481953,1.5807348 0.22197628,1.9777978 l 0.0109935,0.2544254 0.12412641,0.308037 0.12412641,0.308037 0.27271325,0.2530547 c 0.14999228,0.13918 0.27912255,0.2566414 0.28695615,0.2610253 0.022371,0.012519 0.5362886,0.1707761 0.5545724,0.1707761 0.009,0 0.018985,-0.00424 0.022188,-0.00942 C 1.6232617,3.5146533 1.4964356,3.0501827 1.4580542,2.9392397 1.4477506,2.9094565 1.4160979,2.7360336 1.387715,2.5538554 1.3416873,2.2584233 1.3348057,2.1943033 1.3240464,1.9606129 1.3129991,1.7206693 1.3133087,1.697278 1.3277235,1.6828633 c 0.014586,-0.014586 0.019697,-0.013803 0.069718,0.01069 0.093156,0.045614 0.094092,0.042231 0.043373,-0.1567698 -0.032823,-0.1287863 -0.034452,-0.1703547 -0.00732,-0.1868803 0.014619,-0.0089 0.022934,-0.00414 0.052805,0.030285 0.030871,0.035573 0.096443,0.079157 0.1190924,0.079157 0.00416,0 0.00757,-0.036847 0.00757,-0.081882 0,-0.072319 0.00344,-0.088703 0.029483,-0.1402872 L 1.671927,1.1787716 1.6472446,1.0222959 C 1.6252994,0.88317262 1.6225623,0.83764598 1.6225623,0.6117597 V 0.35769924 l -0.049007,-0.0756393 c -0.026954,-0.0416016 -0.058863,-0.0864404 -0.070909,-0.0996417 -0.018957,-0.0207751 -0.021254,-0.0313074 -0.017084,-0.0783314 l 0.00482,-0.054329 0.06369,-0.01099353 c 0.03503,-0.0060465 0.080972,-0.01484146 0.1020941,-0.01954448 0.1450581,-0.03229842 0.474801,-0.01254541 0.720072,0.0431354 0.08098,0.01838392 0.2239591,0.0708228 0.3291631,0.12072371 0.5204219,0.24684929 0.9023477,0.72374764 1.0339023,1.29100016 0.059342,0.2558772 0.055563,0.6123056 -0.00922,0.8695875 C 3.6433775,2.6880124 3.4627621,3.0047351 3.2167686,3.2438016 2.9599078,3.4934296 2.6169794,3.6775883 2.2853796,3.7439745 2.0896781,3.7831538 1.848545,3.7923652 1.6495153,3.7682648 Z M 2.6563044,3.3500967 C 2.7656602,3.3075014 2.8618731,3.2690039 2.8701108,3.2645468 2.8783486,3.2600896 2.99927,3.1270493 3.1388249,2.9689017 L 3.3925614,2.6813608 3.4919325,2.3943858 C 3.5465866,2.2365495 3.5934835,2.090129 3.5961478,2.0690069 3.5988121,2.0478848 3.5884892,1.9031503 3.5732082,1.7473747 L 3.5454244,1.4641464 3.3968222,1.1569157 3.2482199,0.84968497 2.9488111,0.61277587 C 2.6528006,0.37855572 2.6483966,0.37553173 2.560801,0.34634922 2.4080463,0.29545894 2.3981437,0.30279727 2.4372958,0.43787295 c 0.015142,0.0522392 0.047225,0.16194704 0.071296,0.24379522 l 0.043766,0.14881488 0.010913,0.26402645 c 0.006,0.1452145 0.019552,0.40012 0.030112,0.5664566 0.014177,0.2233201 0.017482,0.3459747 0.012636,0.4688963 l -0.00656,0.1664662 0.043452,0.044755 c 0.025482,0.026246 0.046207,0.057928 0.050113,0.076607 0.00366,0.017518 0.013814,0.034472 0.022557,0.037674 0.053492,0.019593 0.3663313,0.311883 0.3663313,0.3422681 0,0.028217 -0.1582452,-0.086437 -0.3552355,-0.257381 C 2.6659466,2.4875552 2.6085988,2.4380532 2.5992331,2.4302475 2.586385,2.4195394 2.5794899,2.41877 2.5711466,2.4271132 c -0.00834,0.00834 -0.00309,0.040567 0.021418,0.1312618 l 0.032476,0.1202036 0.1324244,0.1647543 c 0.12134,0.1509637 0.1511692,0.2001715 0.1213417,0.2001715 -0.023111,0 -0.1760754,-0.1726421 -0.2501376,-0.2823156 -0.063058,-0.093378 -0.078844,-0.1113355 -0.086246,-0.098109 -0.013718,0.024512 6.778e-4,0.061052 0.1378299,0.3498449 0.015837,0.033346 0.026412,0.066836 0.023501,0.074422 -0.00291,0.00759 -0.02078,0.021178 -0.039709,0.030204 -0.043998,0.020981 -0.059037,0.011879 -0.083218,-0.050368 -0.020956,-0.053946 -0.060502,-0.100069 -0.073509,-0.085735 -0.00951,0.01048 -0.075427,0.2706076 -0.08823,0.3481751 -0.00929,0.056309 8.765e-4,0.09792 0.023933,0.09792 0.00795,0 0.103927,-0.034851 0.2132834,-0.077446 z m 0.019963,-1.536103 c -0.040238,-0.02387 -0.015786,-0.03388 0.1483844,-0.060744 0.090852,-0.014867 0.1956228,-0.035514 0.2328233,-0.045883 0.083883,-0.023382 0.3059019,-0.035978 0.3170212,-0.017987 0.011702,0.018935 -0.00834,0.030595 -0.092797,0.053992 -0.043878,0.012155 -0.1165025,0.032505 -0.161387,0.045222 -0.066429,0.018821 -0.1137516,0.024261 -0.2544254,0.029245 -0.1131894,0.00401 -0.1786144,0.00268 -0.189619,-0.00384 z m 0.073891,-0.2018689 c -0.00355,-0.00574 -0.00216,-0.014731 0.00309,-0.019978 0.00525,-0.00525 0.1018643,-0.048579 0.214705,-0.096294 0.1693679,-0.071617 0.2182227,-0.088252 0.2800046,-0.09534 0.049904,-0.00573 0.081094,-0.00524 0.093609,0.00146 0.021218,0.011355 0.024613,0.033193 0.00697,0.044806 C 3.3072,1.4739838 2.8140174,1.622563 2.7650501,1.622563 c -0.00464,0 -0.011341,-0.0047 -0.014889,-0.010438 z M 0.44618472,2.524632 C 0.43452741,2.50577 0.46571741,2.4832337 0.57605761,2.4307925 0.79240311,2.3279702 1.024115,2.2396628 1.0507494,2.2498833 c 0.021572,0.00828 0.018387,0.02471 -0.00665,0.034272 C 1.0322232,2.2886939 0.92064204,2.342402 0.79614623,2.4035066 0.54966883,2.5244817 0.46434362,2.5540137 0.44618472,2.524632 Z M 0.4065534,2.3566216 c -0.003127,-0.00815 -0.003214,-0.017287 -1.9308e-4,-0.020308 0.0164551,-0.016455 0.50752203,-0.1809402 0.5665785,-0.1897781 0.0407173,-0.00609 0.0460462,-0.00493 0.0432043,0.00941 -0.00353,0.017827 -0.13350002,0.071939 -0.39171172,0.1630877 -0.15362475,0.05423 -0.20789834,0.063592 -0.2178779,0.037586 z M 0.36843,2.0693236 C 0.365457,2.0615736 0.364778,2.0499806 0.36692,2.0435546 0.369062,2.0371246 0.4353563,2.0175296 0.51424029,2.0000036 0.62637417,1.9750896 0.70256015,1.9651326 0.86344041,1.9543666 1.0624437,1.9410496 1.1041103,1.9434446 1.1041103,1.9681976 c 0,0.014381 -0.029852,0.025754 -0.086409,0.032921 -0.0290429,0.00368 -0.10897089,0.017338 -0.17761776,0.03035 -0.13393305,0.025388 -0.3455355,0.051439 -0.42034333,0.05175 -0.0316236,1.315e-4 -0.0475874,-0.00419 -0.0513107,-0.013894 z"
       id="path349"
       inkscape:connector-curvature="0" />
    <path
       style="fill:#94cc7c;stroke-width:0.00960096"
       d="M 1.7377738,3.776504 C 1.4516826,3.7492493 1.0972611,3.6334865 0.91689169,3.5083839 0.89576958,3.4937338 0.84608461,3.4602801 0.80648065,3.4340424 0.6190896,3.3098953 0.40022054,3.0842889 0.32514875,2.9378938 0.31296333,2.9141314 0.28502706,2.8687669 0.26306814,2.8370837 0.16896841,2.7013131 0.07997645,2.4746294 0.05764856,2.3138314 0.05361576,2.2847885 0.04137329,2.2277041 0.03044306,2.1869772 0.01887026,2.143856 0.00782304,2.0634892 0.0039932,1.9945587 -0.00302719,1.8682036 0.00663945,1.6790435 0.01908766,1.699185 0.02323537,1.7058962 0.0296059,1.6711444 0.03335962,1.6213301 0.04115385,1.5178958 0.06585289,1.3977076 0.09920282,1.3009301 0.11912507,1.2431181 0.20695108,1.0519498 0.2712258,0.92649265 0.33324121,0.80544543 0.4950243,0.60242483 0.58637302,0.53101636 c 0.0324829,-0.0253923 0.08459,-0.06777 0.11579348,-0.0941727 C 0.81885147,0.33811137 0.88656277,0.28970731 0.96777025,0.24697439 1.0682238,0.19411379 1.2173634,0.13763877 1.1994251,0.15925318 c -0.00664,0.008 -0.078106,0.0730734 -0.1588152,0.14460742 C 0.9599009,0.3753946 0.88750091,0.44363738 0.87972089,0.4555112 0.86525182,0.47759379 0.75571695,0.6058803 0.70711525,0.65766577 0.6922476,0.67350735 0.61887364,0.75862158 0.54406199,0.84680848 L 0.40804081,1.0071483 0.29846379,1.312455 0.18888677,1.6177618 0.20065999,1.920192 0.21243321,2.2226223 0.33897024,2.5377317 0.46550729,2.8528412 0.71040142,3.0806807 c 0.13469176,0.1253118 0.26295736,0.2440515 0.28503477,0.2638662 0.0362291,0.032516 0.0670958,0.044396 0.31676251,0.1219175 0.152142,0.04724 0.2836848,0.085891 0.2923171,0.085891 0.042941,0 0.040765,-0.019608 -0.030001,-0.2703206 C 1.5368212,3.1484926 1.4913812,2.9959081 1.4735368,2.9429578 1.4247973,2.7983309 1.3488729,2.2846892 1.3351284,2.0066007 1.3228086,1.7573382 1.3226148,1.708297 1.3338793,1.6904986 c 0.00724,-0.011432 0.018303,-0.00934 0.067558,0.012763 0.04867,0.021842 0.061463,0.024312 0.073626,0.014218 0.017145,-0.014229 0.016423,-0.01957 -0.024171,-0.1787705 -0.034236,-0.1342658 -0.037215,-0.1731877 -0.013939,-0.1821196 0.011059,-0.00424 0.025163,0.00465 0.045604,0.028768 0.038193,0.045055 0.1203921,0.090046 0.1317626,0.072119 0.00437,-0.00689 0.00801,-0.048619 0.0081,-0.092725 1.267e-4,-0.069153 0.00371,-0.086534 0.026039,-0.1262534 l 0.025892,-0.04606 -0.021572,-0.1617753 C 1.6348134,0.8959703 1.631258,0.82536436 1.6315371,0.60891682 L 1.6318722,0.34894674 1.5650041,0.25037415 C 1.5039101,0.16031325 1.4982267,0.14778034 1.4991852,0.10523277 l 0.00105,-0.04656876 0.049163,-0.01063104 c 0.027039,-0.0058471 0.076447,-0.01321688 0.1097945,-0.01637736 0.033348,-0.0031605 0.055737,-0.0087713 0.049755,-0.01246856 -0.00598,-0.0036972 0.03262,-0.0091191 0.085783,-0.01204848 0.1176482,-0.006482779 0.2951301,0.00205974 0.2773275,0.01334826 -0.00819,0.0051949 -8.084e-4,0.0081146 0.020952,0.0082848 0.06215,4.861e-4 0.32093,0.04807299 0.3984399,0.07326876 0.1653812,0.0537597 0.4039589,0.17815358 0.5358531,0.2793927 0.1755997,0.13478652 0.3566262,0.33196976 0.4645883,0.50605327 0.066492,0.10721541 0.1418602,0.26045094 0.1627861,0.33097124 0.00876,0.029518 0.030183,0.096874 0.047608,0.1496792 0.056469,0.1711237 0.074733,0.2992002 0.074618,0.5232524 -1.065e-4,0.2074513 -0.00903,0.2815032 -0.056694,0.470447 -0.11292,0.4476275 -0.396524,0.8460741 -0.7871152,1.1058498 -0.2442448,0.1624433 -0.5895172,0.2860139 -0.8003405,0.2864364 -0.043,8.64e-5 -0.068115,0.00346 -0.060701,0.00817 0.025267,0.016022 -0.2102046,0.026036 -0.3342782,0.014216 z M 2.6636218,3.364429 C 2.7794389,3.3191799 2.8813827,3.2770657 2.8901635,3.2708419 2.9085055,3.2578413 3.3751143,2.7321318 3.3952271,2.701807 3.4025466,2.690771 3.453856,2.550619 3.5092481,2.390358 3.5914004,2.1526739 3.609881,2.0891352 3.6095271,2.0455867 3.6092886,2.0162236 3.5970515,1.8690669 3.5823336,1.7185719 L 3.5555739,1.4449445 3.4131247,1.15095 C 3.3347776,0.98925308 3.2660066,0.85078994 3.2603003,0.84325418 3.2499265,0.82955481 2.7282691,0.41544972 2.6738674,0.37772867 2.6580258,0.36674444 2.6010676,0.34340414 2.5472936,0.32586133 2.4644671,0.29884065 2.4457563,0.29568143 2.4248814,0.30519267 c -0.018068,0.008232 -0.024641,0.01853 -0.024641,0.0386031 0,0.0150566 0.031963,0.13504126 0.071029,0.26663248 l 0.071029,0.23925676 0.011302,0.27362729 c 0.00622,0.1504951 0.019276,0.3992719 0.029022,0.5528373 0.014248,0.224501 0.015848,0.3072752 0.00816,0.4224423 -0.012303,0.1843241 -0.00951,0.2005204 0.042878,0.2487231 0.032816,0.030194 0.043315,0.047623 0.048557,0.080609 0.00368,0.023147 0.00527,0.043507 0.00353,0.045244 -0.00174,0.00174 -0.02794,-0.016292 -0.058228,-0.040065 -0.030288,-0.023772 -0.059254,-0.040637 -0.064367,-0.037476 -0.017275,0.010676 -0.00945,0.08574 0.019506,0.1870309 0.015842,0.055423 0.028803,0.1018607 0.028803,0.1031942 0,0.00133 0.044405,0.057508 0.098678,0.1248327 0.1460219,0.1811363 0.1635201,0.2099115 0.065679,0.1080067 C 2.7276544,2.8685269 2.6612493,2.7854415 2.628252,2.7340576 2.595255,2.6826736 2.562466,2.6383756 2.555389,2.6356166 c -0.021715,-0.00846 -0.030337,0.00409 -0.030337,0.044192 0,0.027538 0.020834,0.08377 0.073601,0.1986533 0.04048,0.088133 0.079681,0.1696885 0.087113,0.1812338 0.01253,0.019466 0.011402,0.022083 -0.015518,0.036004 C 2.624664,3.1192727 2.614829,3.1147237 2.595624,3.0611827 2.585854,3.0339417 2.566088,2.9990407 2.551702,2.9836237 2.504556,2.9330997 2.495795,2.9449997 2.4510108,3.1203713 c -0.059756,0.2340046 -0.063842,0.3264181 -0.014429,0.3263514 0.00906,-9.6e-6 0.1112234,-0.037044 0.22704,-0.082294 z M 2.9585073,2.7094887 C 2.9365722,2.6947569 2.8771342,2.6465823 2.8264228,2.6024341 2.7507446,2.5365501 2.7370303,2.5205919 2.7498994,2.51339 c 0.012378,-0.00693 0.040896,0.014903 0.1354401,0.1036772 0.065868,0.061848 0.119761,0.1139714 0.119761,0.115829 0,0.00665 -0.00728,0.003 -0.046593,-0.023407 z M 2.6738674,1.8049805 c -0.00971,-0.015712 0.00424,-0.028803 0.030703,-0.028803 0.031692,0 0.2237118,-0.032247 0.3736387,-0.062747 0.1186207,-0.024131 0.2821269,-0.032436 0.2821269,-0.014329 0,0.00513 -0.024843,0.016318 -0.055206,0.024855 -0.030363,0.00854 -0.09625,0.028679 -0.1464146,0.044759 -0.074118,0.023758 -0.1163958,0.030679 -0.2256226,0.036937 -0.1865118,0.010685 -0.2523122,0.010515 -0.2592254,-6.72e-4 z m 0.091209,-0.2013736 c 0,-0.013375 0.031497,-0.028188 0.2421613,-0.1138923 0.1647629,-0.06703 0.1961867,-0.07673 0.2583378,-0.079743 0.065494,-0.00318 0.070758,-0.002 0.070758,0.015765 0,0.015848 -0.018418,0.025475 -0.1056106,0.0552 -0.1880556,0.064111 -0.4222361,0.1320254 -0.455245,0.1320254 -0.00572,0 -0.010402,-0.00421 -0.010402,-0.00935 z M 0.46569597,2.5155315 c -0.002551,-0.00413 0.001033,-0.012212 0.007966,-0.017966 0.0274106,-0.022749 0.44045404,-0.2059814 0.5213275,-0.231269 0.0960025,-0.030018 0.0532947,0.00333 -0.0972994,0.07598 -0.32528512,0.1569213 -0.41888779,0.1944614 -0.4319941,0.173255 z M 0.42269828,2.349835 C 0.42283912,2.343235 0.46280308,2.324076 0.51150718,2.307262 0.56021128,2.290447 0.67350737,2.251088 0.76327635,2.219797 0.92395294,2.163789 1.0152714,2.140847 1.0038293,2.15936 0.99679532,2.170741 0.89566771,2.210106 0.65332766,2.2957984 0.46630156,2.3619314 0.42221989,2.3722594 0.42269828,2.349835 Z M 0.3787209,2.0633699 c -0.003548,-0.00574 -0.002723,-0.013688 0.001834,-0.017661 0.004556,-0.00397 0.0860521,-0.02293 0.18110165,-0.042126 0.20648938,-0.041703 0.49812725,-0.064626 0.52174455,-0.041008 0.016421,0.016421 0.00835,0.019236 -0.0993023,0.034659 -0.0422442,0.00605 -0.11868601,0.019165 -0.16987063,0.02914 -0.0900364,0.017547 -0.34240821,0.047434 -0.40054683,0.047434 -0.0156801,0 -0.0314121,-0.0047 -0.0349604,-0.010438 z"
       id="path347"
       inkscape:connector-curvature="0" />
    <path
       style="fill:#6d9e89;stroke-width:0.00960096"
       d="M 1.7377738,3.776504 C 1.5860533,3.7620502 1.3685502,3.7128848 1.2319857,3.6621733 1.1162291,3.6191887 0.92109544,3.519973 0.89254929,3.4895871 l -0.0210603,-0.022418 0.0227014,0.00584 c 0.0124858,0.00321 0.14355031,0.05696 0.29125461,0.1194432 l 0.2685531,0.1136066 0.2354973,0.024657 c 0.1295234,0.013561 0.2441381,0.028484 0.2546991,0.033161 0.010561,0.00468 0.030003,0.010256 0.043204,0.012397 0.028594,0.00464 -0.2011454,0.00485 -0.249625,2.333e-4 z M 2.1890189,3.745689 c 0,-0.0052 0.1134114,-0.046322 0.2520252,-0.091372 L 2.6930693,3.5724076 2.9810981,3.3575462 C 3.139514,3.2393724 3.2760495,3.1344106 3.2845105,3.1242977 3.2929713,3.1141848 3.3767042,2.9762976 3.4705833,2.8178818 L 3.6412728,2.529853 3.702912,2.2418242 C 3.775872,1.9008954 3.778316,1.8859464 3.76546,1.8592124 3.752923,1.8331424 3.684454,1.3893799 3.688538,1.360667 3.693308,1.327131 3.731627,1.453048 3.75579,1.581661 3.773344,1.675095 3.776986,1.7285164 3.776902,1.8913891 3.7767958,2.0988405 3.767872,2.1728924 3.7202085,2.3618362 3.5709746,2.9534161 3.1268693,3.4477037 2.5525522,3.6614339 2.400078,3.7181765 2.1890189,3.7670934 2.1890189,3.745689 Z M 1.7213493,3.4731473 C 1.7122192,3.4612042 1.5463718,3.0943712 1.4880395,2.9570957 1.4621469,2.8961621 1.4495836,2.8348883 1.4063451,2.5586559 1.3604209,2.2652658 1.3540222,2.2052385 1.3431304,1.9656371 c -0.0075,-0.164983 -0.0087,-0.2699108 -0.00316,-0.2753092 0.00541,-0.00526 0.031189,7.056e-4 0.064997,0.015047 0.045569,0.01933 0.058726,0.021538 0.070439,0.011817 0.01765,-0.014648 0.015491,-0.032059 -0.024688,-0.1990576 -0.016995,-0.070637 -0.028623,-0.1343631 -0.025841,-0.1416142 0.00917,-0.023909 0.04117,-0.013802 0.06443,0.020354 0.012562,0.018446 0.02881,0.033567 0.036108,0.033603 0.0073,3.84e-5 0.027741,0.00901 0.045429,0.019942 0.017689,0.010932 0.03656,0.017158 0.041937,0.013835 0.00548,-0.00339 0.0098,-0.044814 0.00983,-0.094284 3.84e-5,-0.076935 0.00308,-0.093163 0.023703,-0.1266461 0.028663,-0.046537 0.029175,-0.069926 0.00505,-0.230423 -0.031643,-0.21051922 -0.022772,-0.50888026 0.016985,-0.57125713 0.034836,-0.0546553 0.1905434,-0.23034702 0.2041787,-0.23038355 0.018205,-4.896e-5 0.4528403,0.46140159 0.4631455,0.4917191 0.017698,0.0520658 0.114473,0.66077988 0.1472412,0.92614448 L 2.5187,1.9189145 2.4877229,2.1187732 C 2.4053441,2.6502674 2.3327926,3.0899986 2.3224787,3.120312 c -0.014991,0.04406 -0.026317,0.057606 -0.048167,0.057606 -0.015925,0 -0.067615,-0.058824 -0.078586,-0.089431 -0.011004,-0.030699 -0.014079,0.00629 -0.00585,0.070409 0.00507,0.039505 0.00686,0.081574 0.00398,0.093486 -0.00411,0.017027 -0.050345,0.044234 -0.2161719,0.1272127 -0.1160172,0.058055 -0.2190898,0.1055536 -0.2290502,0.1055536 -0.00996,0 -0.022238,-0.0054 -0.027284,-0.012001 z M 0.77233152,3.4113591 C 0.71374003,3.3722405 0.58659602,3.2627518 0.52748507,3.2005123 0.42383617,3.0913776 0.31110306,2.9378938 0.33459307,2.9378938 c 0.0111853,0 0.48556521,0.4887726 0.47988899,0.4944489 -0.002361,0.00236 -0.0213286,-0.00708 -0.0421505,-0.020984 z M 0.24055153,2.8042212 C 0.18489106,2.7260533 0.08442479,2.473826 0.07199075,2.3810381 c -0.0055316,-0.041279 -0.0051685,-0.042135 0.0081498,-0.019202 0.02312302,0.039816 0.19118764,0.4615451 0.18599936,0.4667334 -0.002651,0.00265 -0.0141653,-0.00831 -0.0255884,-0.024348 z M 0.50320332,2.4976203 c 0.008549,-0.013833 0.469055,-0.2213282 0.50491938,-0.2275068 0.01847,-0.00318 -0.0830702,0.048471 -0.22564445,0.1147841 C 0.53884573,2.4982144 0.49086778,2.5175796 0.50320332,2.4976203 Z M 0.45124513,2.3435065 C 0.47899385,2.3278132 0.9172295,2.1702324 0.95049506,2.1639863 1.027338,2.149558 0.95298089,2.1814226 0.71527153,2.264788 0.49004355,2.343776 0.406979,2.3685414 0.45124513,2.3435065 Z M 0.01937459,2.1482148 C 0.00839616,2.0979974 -0.00431067,1.7540509 0.00616202,1.7905791 c 0.00302788,0.010561 0.00880482,0.023522 0.01283765,0.028803 0.0040328,0.00528 0.01017472,0.067927 0.01364864,0.139214 0.0034739,0.071287 0.0089083,0.1544554 0.01207646,0.1848185 0.007387,0.070796 -0.01019452,0.074125 -0.02535018,0.0048 z m 0.36466382,-0.091234 c 0,-0.00397 0.0788479,-0.023394 0.17521752,-0.043154 0.21098133,-0.043261 0.55344157,-0.070219 0.52451047,-0.041288 -0.00239,0.00239 -0.060354,0.012928 -0.12881292,0.023422 -0.0684587,0.010494 -0.14607259,0.023926 -0.17247523,0.029849 -0.0264026,0.00592 -0.069607,0.012827 -0.0960096,0.015341 -0.0264026,0.00251 -0.0877985,0.00873 -0.13643527,0.013813 -0.10618143,0.011098 -0.16599497,0.011824 -0.16599497,0.00202 z M 2.6789459,1.8061025 c -0.00777,-0.00532 -0.012088,-0.011417 -0.0096,-0.01354 0.00249,-0.00212 0.052047,-0.011333 0.110133,-0.020464 0.058086,-0.00913 0.1682568,-0.028869 0.2448244,-0.043861 0.076568,-0.014992 0.159736,-0.030272 0.1848185,-0.033953 0.045103,-0.00662 0.1385026,0.0018 0.1287,0.0116 -0.00473,0.00473 -0.069168,0.024682 -0.2319103,0.071804 -0.038979,0.011286 -0.1014833,0.020338 -0.1488149,0.021551 -0.044884,0.00115 -0.1226522,0.00534 -0.1728173,0.00932 -0.057718,0.00457 -0.096395,0.00367 -0.1053325,-0.00245 z M 2.7803738,1.5938236 c 0.00525,-0.00525 0.035272,-0.019944 0.066727,-0.032664 0.031455,-0.01272 0.1200871,-0.048802 0.1969614,-0.080181 0.1100978,-0.044941 0.1552863,-0.05846 0.2128505,-0.063676 0.071347,-0.00647 0.097044,8.122e-4 0.072115,0.020423 -0.00654,0.00515 -0.044299,0.018659 -0.083903,0.030027 -0.039604,0.011368 -0.084969,0.026853 -0.1008101,0.034412 -0.030769,0.014681 -0.1826217,0.061453 -0.2798136,0.086185 -0.06894,0.017543 -0.098092,0.01944 -0.084127,0.00547 z M 0.04829675,1.5055462 C 0.04776103,1.4758091 0.07699106,1.3638332 0.10677844,1.2815118 0.15954762,1.135677 0.15554788,1.1973761 0.10035745,1.3805602 0.0659493,1.4947653 0.04884241,1.5358352 0.04829675,1.5055462 Z M 3.4972353,0.98467303 C 3.4116162,0.83186521 3.3437173,0.7046876 3.3463487,0.70205616 3.3615149,0.68689 3.5022867,0.8925516 3.5752486,1.0364692 3.63629,1.1568733 3.6610211,1.2203687 3.6563413,1.2446691 3.654231,1.2556268 3.5928708,1.1553577 3.4972353,0.98467303 Z M 0.28243887,0.90622963 c 0.0392507,-0.072022 0.13872379,-0.20697652 0.21661159,-0.29387571 0.050605,-0.0564599 0.10581003,-0.10172783 0.10581003,-0.0867639 0,0.0120815 -0.33464225,0.43855043 -0.34764989,0.44304589 -0.005951,0.002057 0.005402,-0.0260262 0.0252283,-0.0624063 z M 3.0483048,0.46417496 C 2.9110111,0.35540677 2.7857186,0.25545886 2.769877,0.24206848 l -0.028803,-0.0243461 0.028746,0.007121 c 0.08055,0.0199551 0.3131687,0.18824424 0.4537021,0.32823275 0.080042,0.0797321 0.1026021,0.10989823 0.081608,0.10912423 -0.00396,-1.4562e-4 -0.1195315,-0.0892572 -0.2568253,-0.1980254 z M 0.82430685,0.33832738 c 0.043881,-0.0358047 0.18443965,-0.1175053 0.20215755,-0.1175053 0.014947,0 -0.0950094,0.0746777 -0.17471986,0.11866186 -0.0587961,0.0324437 -0.0681345,0.03205 -0.0274377,-0.001157 z M 2.5364194,0.1441382 C 2.4112358,0.09523092 2.394465,0.08640864 2.4266778,0.08640864 c 0.038642,0 0.261591,0.08608469 0.261591,0.10100521 0,0.0115653 -0.042427,-5.2594e-4 -0.1518494,-0.0432756 z"
       id="path345"
       inkscape:connector-curvature="0" />
    <path
       style="fill:#499275;stroke-width:0.00960096"
       d="m 1.7545755,3.7756587 c -0.035644,-0.00185 -0.064806,-0.00692 -0.064806,-0.01128 0,-0.00436 -0.029163,-0.010796 -0.064806,-0.01431 -0.035644,-0.00351 -0.071287,-0.01086 -0.079208,-0.016326 -0.010473,-0.00723 -0.00262,-0.0085 0.028803,-0.00467 0.023762,0.0029 0.1123312,0.012111 0.1968196,0.020468 0.2404539,0.023784 0.2307019,0.038941 -0.016802,0.026114 z m 0.5208521,-0.054419 c 0,-0.00331 0.2098792,-0.072887 0.3531827,-0.1170808 0.074746,-0.023051 0.032285,0.00379 -0.067708,0.042798 C 2.4349874,3.69608 2.2754276,3.7375987 2.2754276,3.7212397 Z M 1.3196531,3.6820823 C 1.1910424,3.644031 0.9296303,3.5220149 0.94461486,3.5070304 c 0.005181,-0.00518 0.46672624,0.1876895 0.46672624,0.1950359 0,0.00633 -0.010415,0.00406 -0.091688,-0.019984 z M 2.7170717,3.56758 c 0,-0.00774 0.5482169,-0.4111023 0.5526787,-0.4066404 0.0071,0.0071 -0.1178989,0.1291822 -0.1967719,0.1921757 C 2.9264825,3.4701172 2.7170717,3.5963054 2.7170717,3.56758 Z M 1.5992867,3.180336 1.4664259,2.8851244 1.4156707,2.5586738 C 1.3706239,2.2689378 1.3635611,2.2028052 1.3528714,1.9706505 1.346247,1.8267855 1.3436,1.706305 1.3469891,1.7029159 c 0.00339,-0.00339 0.027616,0.00307 0.053838,0.014348 0.061018,0.026249 0.075719,0.025806 0.088695,-0.00267 0.00851,-0.018682 0.00371,-0.052509 -0.024749,-0.1741973 -0.026151,-0.1118367 -0.032504,-0.1537684 -0.024487,-0.1616343 0.00796,-0.00781 0.018518,-0.00109 0.039875,0.025382 0.015978,0.019802 0.035682,0.036004 0.043788,0.036004 0.00811,0 0.02921,0.00894 0.046899,0.019877 0.017689,0.010932 0.03656,0.017158 0.041937,0.013835 0.00538,-0.00332 0.00978,-0.041904 0.00978,-0.085735 0,-0.070904 0.0034,-0.086287 0.030836,-0.1394832 l 0.030836,-0.05979 -0.023635,-0.1551797 C 1.6422745,0.91335612 1.6375244,0.84828568 1.6394589,0.74407441 1.6419767,0.60844716 1.655884,0.49128529 1.6736333,0.45617406 1.6896019,0.42458533 1.8658406,0.22030671 1.8746045,0.223228 c 0.017893,0.005964 0.449853,0.47415138 0.4539706,0.49204353 0.023397,0.1016647 0.1163168,0.69350437 0.1441636,0.91822587 l 0.035262,0.2845624 -0.030472,0.1954856 C 2.397455,2.627248 2.3320049,3.0336255 2.3223402,3.0771077 c -0.012079,0.054345 -0.032111,0.091209 -0.049562,0.091209 -0.00649,0 -0.028011,-0.025923 -0.047816,-0.057606 -0.055149,-0.088226 -0.06292,-0.078815 -0.045521,0.055131 0.00497,0.038243 0.00643,0.07631 0.00325,0.084593 -0.00579,0.015077 -0.4144965,0.2251129 -0.4380493,0.2251129 -0.00711,0 -0.069759,-0.1272332 -0.1453583,-0.2952116 z M 0.69126913,3.3379913 C 0.56453448,3.2383067 0.33999084,2.9858986 0.37804552,2.9858986 c 0.001984,0 0.0888773,0.088569 0.19309528,0.1968197 0.10421798,0.1082508 0.18576266,0.196817 0.18121042,0.1968136 -0.004552,-3.2e-6 -0.0320392,-0.018697 -0.0610821,-0.041541 z M 3.312725,3.1073966 c -3.975e-4,-0.00819 0.2749923,-0.4776962 0.3095185,-0.5276914 0.029634,-0.042911 0.028576,-0.024844 -0.00304,0.05184 -0.039215,0.095135 -0.1053238,0.216154 -0.1725098,0.315804 C 3.3912752,3.0295458 3.3134584,3.1225107 3.312725,3.1073966 Z M 0.17941605,2.6619249 C 0.13089703,2.5583647 0.08222421,2.4121308 0.11475621,2.4676592 0.13179341,2.4967402 0.22251064,2.7281845 0.2184597,2.7322354 0.2161737,2.7345254 0.1986045,2.7028814 0.17941605,2.6619249 Z M 3.6628602,2.480831 c 0.0021,-0.010002 0.021511,-0.1067536 0.043134,-0.2150044 0.021623,-0.1082508 0.044498,-0.207182 0.050833,-0.2198471 0.014394,-0.028776 0.013779,-0.281015 -7.595e-4,-0.311194 -0.00557,-0.011558 -0.017245,-0.070699 -0.02595,-0.1314252 -0.0087,-0.060726 -0.017759,-0.1212121 -0.020119,-0.1344134 -0.00317,-0.017727 -0.00196,-0.020208 0.00464,-0.00949 0.010776,0.017515 0.03934,0.1640155 0.03934,0.2017701 0,0.014818 0.00513,0.028652 0.011402,0.030743 0.015187,0.00506 0.0166,0.3701116 0.00156,0.4025836 -0.00572,0.012352 -0.017239,0.065663 -0.025594,0.1184682 -0.015782,0.099746 -0.05909,0.2624747 -0.073831,0.2774106 -0.00492,0.00499 -0.00687,9.647e-4 -0.00465,-0.0096 z M 0.00463495,1.9635619 C -0.00171425,1.845017 6.2750752e-4,1.8120087 0.01440911,1.8257903 c 0.0065011,0.0065 0.0086709,0.2569403 0.0022814,0.2633298 -0.0027829,0.00278 -0.00820787,-0.053718 -0.01205556,-0.1255582 z M 3.60688,1.1601489 C 3.5850252,1.1256593 3.4329899,0.85499307 3.4090063,0.80787722 3.3762053,0.74343952 3.4013663,0.76908192 3.4665283,0.86650162 3.5261763,0.95567572 3.635281,1.1683993 3.6260863,1.177594 3.6233463,1.180334 3.6146983,1.172484 3.60688,1.1601489 Z M 0.31144686,0.87654856 c 0.0187042,-0.0487422 0.21226527,-0.28883004 0.2236661,-0.27742919 0.004979,0.004979 -0.21599142,0.29376992 -0.22477936,0.29376992 -0.002836,0 -0.002336,-0.007353 0.001113,-0.0163407 z M 3.0435044,0.45063822 C 2.929973,0.36063309 2.8306031,0.28051157 2.8226823,0.2725904 2.7728763,0.2227815 2.9440498,0.3285982 3.0579058,0.41800135 3.1388048,0.48152575 3.2751836,0.61452388 3.2592685,0.61437269 3.2541285,0.61432387 3.1570357,0.54064339 3.0435044,0.45063822 Z"
       id="path343"
       inkscape:connector-curvature="0" />
    <path
       style="fill:#203c48;stroke-width:0.00960096"
       d="m 1.9251105,3.3029919 c -0.017214,-0.038174 -0.033721,-0.0433 -0.033721,-0.010472 0,0.0096 -0.00673,0.023044 -0.014951,0.029868 -0.024664,0.020469 -0.050616,-0.016711 -0.1745624,-0.2500814 L 1.5871434,2.8562856 1.5421988,2.5634564 1.4972541,2.2706271 1.4982505,1.8649815 1.4992469,1.4593361 1.521125,1.453845 c 0.013306,-0.00334 0.034194,0.002 0.05331,0.013624 0.050588,0.030765 0.057728,0.021006 0.057728,-0.078907 0,-0.070507 0.00382,-0.094561 0.019262,-0.121385 C 1.69585,1.190023 1.69518,1.200356 1.667484,1.0194254 1.631721,0.78579377 1.633964,0.68571089 1.674214,0.71911568 c 0.019099,0.0158511 0.034756,0.00569 0.034756,-0.0225561 0,-0.0194712 0.1186677,-0.24761502 0.1465784,-0.28180341 0.018602,-0.022786 0.058633,-0.009463 0.073576,0.0244878 0.016477,0.0374345 0.02685,0.0393462 0.039071,0.007201 0.019435,-0.0511181 0.049107,-0.0251323 0.1319278,0.11553742 0.056482,0.0959331 0.057046,0.0976575 0.1351821,0.41284134 0.06781,0.27353007 0.083682,0.35437497 0.116898,0.59540427 0.021139,0.1533942 0.038397,0.3002889 0.038352,0.3264327 C 2.3903842,1.9969441 2.3131513,2.54714 2.2676859,2.77198 c -0.045426,0.2246449 -0.059336,0.2677115 -0.083476,0.2584481 -0.01901,-0.0073 -0.027342,0.00368 -0.1046524,0.1378888 -0.075967,0.131875 -0.1058129,0.1728172 -0.1259775,0.1728172 -0.0062,0 -0.01901,-0.017164 -0.02847,-0.038142 z"
       id="path341"
       inkscape:connector-curvature="0" />
  </g>
</svg>
