<?xml version="1.0" encoding="UTF-8" standalone="no"?>
<!-- Created with Inkscape (http://www.inkscape.org/) -->

<svg
   xmlns:dc="http://purl.org/dc/elements/1.1/"
   xmlns:cc="http://creativecommons.org/ns#"
   xmlns:rdf="http://www.w3.org/1999/02/22-rdf-syntax-ns#"
   xmlns:svg="http://www.w3.org/2000/svg"
   xmlns="http://www.w3.org/2000/svg"
   xmlns:sodipodi="http://sodipodi.sourceforge.net/DTD/sodipodi-0.dtd"
   xmlns:inkscape="http://www.inkscape.org/namespaces/inkscape"
   version="1.1"
   id="svg385"
   width="113.38583"
   height="113.38583"
   viewBox="0 0 113.38583 113.38583"
   sodipodi:docname="6_1.svg"
   inkscape:version="0.92.4 (5da689c313, 2019-01-14)">
  <metadata
     id="metadata391">
    <rdf:RDF>
      <cc:Work
         rdf:about="">
        <dc:format>image/svg+xml</dc:format>
        <dc:type
           rdf:resource="http://purl.org/dc/dcmitype/StillImage" />
        <dc:title></dc:title>
      </cc:Work>
    </rdf:RDF>
  </metadata>
  <defs
     id="defs389" />
  <sodipodi:namedview
     pagecolor="#ffffff"
     bordercolor="#666666"
     borderopacity="1"
     objecttolerance="10"
     gridtolerance="10"
     guidetolerance="10"
     inkscape:pageopacity="0"
     inkscape:pageshadow="2"
     inkscape:window-width="1366"
     inkscape:window-height="715"
     id="namedview387"
     showgrid="false"
     inkscape:zoom="1.9496253"
     inkscape:cx="1.8594535"
     inkscape:cy="1.8913861"
     inkscape:window-x="-8"
     inkscape:window-y="-8"
     inkscape:window-maximized="1"
     inkscape:current-layer="svg385" />
  <g
     id="g397"
     transform="matrix(29.972288,0,0,29.974219,0.00365216,0)">
    <path
       style="fill:#f8b076;stroke-width:0.00960096"
       d="M 1.6243621,3.7677955 C 1.4317252,3.7456782 1.2327964,3.6840346 1.0369037,3.5857553 0.47684712,3.3047751 0.08120253,2.746771 0.01432113,2.1435387 -0.02235166,1.8127708 0.01104403,1.5001251 0.11187784,1.2302261 0.32878193,0.64964543 0.81753586,0.20857807 1.4164048,0.05297881 c 0.2647922,-0.06879879 0.6851765,-0.06879879 0.9499687,0 0.5988689,0.15559926 1.0876229,0.59666662 1.3045269,1.17724729 0.1008339,0.269899 0.1342295,0.5825447 0.097557,0.9133126 C 3.7097578,2.6729739 3.3975062,3.1718522 2.9330933,3.478183 2.7682619,3.5869073 2.5508221,3.6833339 2.3625432,3.7312011 2.1718493,3.7796822 1.8617757,3.7950537 1.6243621,3.7677955 Z"
       id="path411"
       inkscape:connector-curvature="0" />
    <path
       style="fill:#c96c8a;stroke-width:0.00960096"
       d="M 1.6391298,3.76788 C 0.80245474,3.6662906 0.11339593,2.9730091 0.01452971,2.1333241 -0.05606673,1.5337384 0.13772523,0.96427637 0.5529405,0.55119188 0.97113097,0.13514745 1.5341005,-0.05602411 2.1333241,0.01452971 2.9782945,0.11401825 3.6687601,0.8044838 3.7682486,1.6494542 3.8465533,2.3145069 3.6032268,2.9331229 3.097278,3.3552822 2.8907172,3.5276348 2.6007773,3.6723648 2.3346913,3.7359444 2.1465097,3.7809093 1.8562096,3.7942379 1.6391298,3.76788 Z M 1.9613152,3.6134971 c 0.027547,-0.013897 0.067368,-0.036979 0.08849,-0.051294 0.021122,-0.014315 0.081608,-0.053587 0.1344134,-0.087271 0.052805,-0.033684 0.1093352,-0.072168 0.1256221,-0.08552 0.095968,-0.078672 0.2404957,-0.2066104 0.2480043,-0.2195375 0.00483,-0.00832 0.03445,-0.041242 0.065812,-0.073152 0.031362,-0.03191 0.081412,-0.091649 0.1112221,-0.1327524 0.02981,-0.041103 0.066178,-0.090788 0.080817,-0.110411 0.024144,-0.032362 0.04856,-0.073776 0.1095022,-0.1857366 0.011499,-0.021126 0.02688,-0.047851 0.03418,-0.059388 0.0073,-0.011537 0.023024,-0.044739 0.034943,-0.073781 0.011919,-0.029043 0.029657,-0.070087 0.039417,-0.091209 0.025286,-0.05472 0.082249,-0.2201595 0.099173,-0.2880288 0.03132,-0.1256027 0.036171,-0.145455 0.044878,-0.1836611 0.00497,-0.021806 0.013929,-0.088772 0.019909,-0.1488149 0.00598,-0.060042 0.014777,-0.1166703 0.019548,-0.1258396 0.011242,-0.021606 0.011372,-0.6534748 1.364e-4,-0.6654768 -0.0047,-0.00502 -0.015691,-0.0342165 -0.024434,-0.0648888 -0.00874,-0.0306723 -0.028663,-0.0808918 -0.044267,-0.11159873 -0.015604,-0.030707 -0.028371,-0.0589106 -0.028371,-0.0626746 0,-0.009062 -0.049296,-0.0791713 -0.1183013,-0.16825068 C 2.9360806,0.53910078 2.7715748,0.39241639 2.6917895,0.34759634 2.6608103,0.33019347 2.6030603,0.30070168 2.5634564,0.28205903 2.5238524,0.2634164 2.4683394,0.23716418 2.440094,0.22372077 2.4118487,0.21027736 2.3384013,0.1869212 2.2768777,0.17181819 2.1806583,0.14819794 2.1458856,0.14433412 2.0282028,0.14418628 L 1.8913891,0.1440144 v 1.2148227 c 0,1.0831631 0.0016,1.2154356 0.014734,1.2204768 0.026684,0.010239 0.1031794,-0.017928 0.2540931,-0.093563 L 2.3090309,2.4111675 2.4245234,2.288092 C 2.4880442,2.2204004 2.5610768,2.1347735 2.586818,2.0978098 2.7106278,1.9200224 2.7188927,1.9505948 2.625082,2.2393503 2.5727755,2.4003531 2.5467374,2.4627746 2.4738669,2.6018602 L 2.3858386,2.769877 2.15316,3.0054679 C 2.0251868,3.1350428 1.9140731,3.2495343 1.9062406,3.2598933 c -0.011339,0.014996 -0.014303,0.054216 -0.014546,0.1924519 -2.708e-4,0.1537244 0.00254,0.1864187 0.016015,0.1864187 0.00194,0 0.026058,-0.01137 0.053606,-0.025267 z M 2.1791594,1.9369937 c -0.010187,-0.022442 -0.018617,-0.049014 -0.018733,-0.059048 -1.162e-4,-0.010034 -0.0071,-0.05222 -0.015509,-0.093746 -0.021057,-0.1039193 -0.016435,-0.4231052 0.00665,-0.4592677 0.00843,-0.013201 0.039898,-0.067757 0.069935,-0.1212353 0.030037,-0.053478 0.062541,-0.1044082 0.072232,-0.1131781 0.02168,-0.01962 0.1442017,-0.07159 0.2409192,-0.10219156 0.058734,-0.0185833 0.090589,-0.0225168 0.1728173,-0.0213397 0.1121111,0.001605 0.185377,0.0185142 0.1902683,0.0439127 0.0041,0.021273 -0.00897,0.037285 -0.1850393,0.2268211 C 2.5364823,1.4274126 2.4853876,1.4923209 2.4171602,1.6131622 2.3695942,1.6974089 2.3037786,1.857253 2.2887647,1.9249925 c -0.00929,0.041917 -0.021288,0.052805 -0.058187,0.052805 -0.029397,0 -0.034868,-0.00434 -0.051418,-0.040804 z m -0.00697,-0.8585763 c -0.00394,-0.00963 -0.00704,-0.1030813 -0.00687,-0.20766682 2.486e-4,-0.1565369 0.00279,-0.19173206 0.014401,-0.1990729 0.022741,-0.0143823 0.1784666,-0.0109942 0.2160284,0.0047 0.018312,0.007651 0.033295,0.0159394 0.033295,0.018418 0,0.002479 -0.019786,0.0275415 -0.043969,0.0556954 -0.062775,0.0730825 -0.1198709,0.17350781 -0.1491913,0.26241012 -0.02562,0.077682 -0.048903,0.1016311 -0.063694,0.065516 z M 1.5928463,1.9358186 c 0.021236,-0.017045 0.039317,-0.068913 0.039317,-0.1127892 v -0.040174 l -0.055206,0.052236 c -0.030363,0.02873 -0.069247,0.062085 -0.086409,0.074122 -0.017162,0.012037 -0.031203,0.025664 -0.031203,0.030281 0,0.00955 0.071788,0.017604 0.1008101,0.011312 0.010561,-0.00229 0.025272,-0.00903 0.03269,-0.014989 z"
       id="path409"
       inkscape:connector-curvature="0" />
    <path
       style="fill:#ad1e4d;stroke-width:0.00960096"
       d="M 1.7329733,3.7735101 C 1.1281664,3.7031145 0.63124441,3.4036358 0.31458254,2.9186919 0.1954272,2.7362144 0.09445936,2.4979585 0.05418665,2.3042304 0.0086082,2.0849796 0.00548592,2.0585116 0.00548592,1.8913891 c 0,-0.2078945 0.02958608,-0.3821241 0.1018967,-0.60006 0.19937711,-0.60089947 0.7077473,-1.07248 1.31835998,-1.22295305 0.2170178,-0.05347962 0.2857127,-0.06273459 0.4656465,-0.06273459 0.1799339,0 0.2486288,0.00925497 0.4656466,0.06273459 0.5298586,0.13057285 0.9837514,0.50081109 1.2285604,1.00213105 0.1071792,0.2194817 0.1802776,0.5032677 0.1928971,0.7488748 0.00947,0.1842142 -0.021935,0.408616 -0.087602,0.626042 C 3.5651954,2.8616122 3.2919932,3.2259195 2.9234924,3.4687287 2.768686,3.5707323 2.5378158,3.6725197 2.3539727,3.7198221 2.166985,3.7679336 1.8904588,3.7918404 1.7329733,3.7735101 Z M 1.9756372,3.6144116 c 0.035512,-0.018674 0.078253,-0.043517 0.09498,-0.055206 0.016727,-0.011689 0.073808,-0.048772 0.1268458,-0.082407 0.053038,-0.033635 0.1214401,-0.083359 0.1520048,-0.1104964 0.030565,-0.027138 0.079335,-0.06924 0.1083778,-0.09356 0.1001179,-0.083837 0.2406698,-0.2348825 0.2914305,-0.3131897 0.016611,-0.025625 0.045893,-0.065824 0.065071,-0.089331 0.019178,-0.023507 0.046673,-0.066502 0.061101,-0.095545 0.014427,-0.029043 0.031696,-0.059286 0.038374,-0.067207 0.027735,-0.032895 0.119596,-0.2269674 0.1590557,-0.3360336 0.051674,-0.1428281 0.065159,-0.1884619 0.096461,-0.3264327 0.00539,-0.023762 0.01368,-0.056166 0.01842,-0.072007 0.00474,-0.015842 0.013551,-0.078488 0.019579,-0.1392139 0.00603,-0.060726 0.014837,-0.1203353 0.019574,-0.1324649 0.011601,-0.029704 0.011161,-0.6504004 -4.762e-4,-0.6717458 -0.005,-0.00917 -0.016397,-0.0404338 -0.025329,-0.0694767 C 3.1776609,0.88386654 3.1162634,0.76266484 3.067357,0.69606961 3.0440895,0.66438644 3.0174181,0.62766277 3.0080873,0.61446145 2.9870604,0.58471252 2.8812915,0.48054054 2.812067,0.42140056 2.7498481,0.36824568 2.6149895,0.29028472 2.5050652,0.24392453 2.4609489,0.2253186 2.4203632,0.20636874 2.4148747,0.20181373 2.4093863,0.19725873 2.3501949,0.18023025 2.2833384,0.16397268 2.1759884,0.13786825 2.1454143,0.13441344 2.0217481,0.13441344 H 1.8817152 l 0.00244,1.22652266 0.00244,1.2265227 0.026715,0.00307 C 1.9543513,2.595241 2.0270234,2.5678116 2.181526,2.4892889 2.3135764,2.4221772 2.327119,2.4126786 2.3879467,2.3445087 2.423751,2.3043827 2.4746699,2.249742 2.5011,2.2230849 2.52753,2.1964279 2.5718543,2.1411341 2.5995983,2.10021 2.6902561,1.9664843 2.6916843,2.005102 2.6056169,2.2629536 2.5553127,2.413661 2.5249776,2.4854779 2.4592022,2.6095842 L 2.3762376,2.766123 2.1380003,3.0032235 C 2.0069697,3.1336288 1.8935584,3.2519907 1.8859751,3.2662499 c -0.016725,0.031448 -0.019923,0.3335104 -0.00385,0.3635442 0.013304,0.024858 0.018665,0.023977 0.093511,-0.015382 z M 2.1947747,1.9465947 C 2.1670973,1.9035465 2.1506151,1.755734 2.1506151,1.5505736 V 1.3537811 l 0.049162,-0.088832 C 2.298533,1.0865075 2.3149152,1.0732872 2.520252,1.0063279 2.6269564,0.9715321 2.7213541,0.96587368 2.8250825,0.98805574 c 0.044495,0.009515 0.055206,0.0154694 0.055206,0.0306909 0,0.010803 -0.046227,0.068415 -0.1080108,0.1346123 C 2.6166598,1.3200939 2.538643,1.4084077 2.4905749,1.4722414 2.4254058,1.558785 2.3473366,1.7123387 2.3064064,1.8344813 c -0.020407,0.060897 -0.040301,0.1158957 -0.044209,0.1222189 -0.011909,0.019269 -0.052443,0.013194 -0.067423,-0.010106 z m -0.00955,-0.886529 c -0.00319,-0.00832 -0.00581,-0.0945542 -0.00581,-0.19162625 0,-0.21027084 -0.00532,-0.20180673 0.1218588,-0.19387231 0.1148207,0.007163 0.119238,0.014299 0.055421,0.0895258 -0.056761,0.0669098 -0.1219141,0.18706938 -0.1396726,0.25759486 -0.012282,0.048776 -0.022896,0.061585 -0.031801,0.038378 z M 1.600487,1.9465947 C 1.611309,1.9347137 1.624495,1.9163517 1.629789,1.9057907 1.643547,1.8783487 1.6556,1.7346701 1.643776,1.7390664 c -0.00519,0.00193 -0.024054,0.022777 -0.041923,0.046328 -0.017868,0.023551 -0.064256,0.068584 -0.103083,0.1000734 -0.064783,0.05254 -0.069161,0.058302 -0.053175,0.069991 0.00999,0.00731 0.042537,0.012738 0.076318,0.012738 0.048849,0 0.062255,-0.00369 0.078573,-0.021602 z"
       id="path407"
       inkscape:connector-curvature="0" />
    <path
       style="fill:#a80037;stroke-width:0.00960096"
       d="m 1.7761776,3.7736318 c -0.044884,-0.00356 -0.068647,-0.00785 -0.052805,-0.00952 0.015842,-0.00167 -0.00576,-0.00695 -0.048005,-0.011722 C 1.4817505,3.7305117 1.2600204,3.6644068 1.0705071,3.5720583 0.61746805,3.3512955 0.275006,2.9600958 0.11612084,2.4818482 0.0743262,2.3560455 0.04037888,2.2029912 0.03094141,2.0978098 0.02637377,2.0469032 0.02352678,2.0375888 0.01920301,2.059406 0.01029894,2.1043346 0.00249913,1.878336 0.00959372,1.7809781 0.01305692,1.7334534 0.01719603,1.7075308 0.01879176,1.7233723 0.02046257,1.7399593 0.02509725,1.7229595 0.02971947,1.6832906 0.06867619,1.348953 0.20442601,1.0150004 0.41150534,0.74407441 0.47409858,0.66218245 0.62592628,0.50722532 0.71047105,0.43894651 0.98303281,0.21882416 1.3602228,0.05980632 1.6766472,0.03162071 1.7315412,0.02673101 1.7443062,0.02333601 1.7233722,0.0191939 1.6784202,0.0102994 1.9045082,0.00250394 2.0018001,0.00959372 c 0.047525,0.0034632 0.073447,0.0076069 0.057606,0.00920823 -0.015842,0.0016013 0.00576,0.0068165 0.048005,0.01158938 0.3361939,0.03798378 0.6932395,0.18916352 0.9648964,0.40855518 0.084545,0.0682788 0.2363725,0.22323594 0.2989658,0.3051279 0.2070793,0.27092599 0.3428292,0.60487859 0.3817858,0.93921619 0.00462,0.039669 0.00926,0.056669 0.010928,0.040082 0.0016,-0.015842 0.00573,0.010081 0.0092,0.057606 0.00751,0.1030537 -6.653e-4,0.3215266 -0.010419,0.2784279 -0.00608,-0.026867 -0.00659,-0.026169 -0.00765,0.010375 -0.00188,0.064716 -0.03566,0.2350337 -0.073546,0.3707823 C 3.596448,2.7455377 3.4528806,2.9835659 3.2078723,3.2259226 3.0175398,3.4141953 2.8418387,3.531714 2.6052477,3.6289912 2.4780058,3.6813082 2.2710114,3.7386863 2.169817,3.749691 2.135494,3.753421 2.10309,3.759758 2.09781,3.763767 2.083608,3.77455 1.870202,3.781095 1.7761778,3.773627 Z M 1.9708709,3.6279139 c 0.032853,-0.016528 0.077014,-0.041954 0.098136,-0.056502 0.021122,-0.014547 0.081608,-0.053677 0.1344135,-0.086954 0.052805,-0.033278 0.1226383,-0.085619 0.1551846,-0.1163155 0.032546,-0.030696 0.063724,-0.055811 0.069284,-0.055811 0.014094,0 0.2417377,-0.231051 0.2870242,-0.2913209 0.1132595,-0.1507326 0.1509667,-0.2047003 0.167944,-0.2403666 0.010359,-0.021763 0.024474,-0.04605 0.031365,-0.053971 0.024612,-0.028289 0.1508097,-0.2931724 0.1622241,-0.340501 0.00378,-0.015658 0.015878,-0.048062 0.026892,-0.072007 0.011015,-0.023946 0.02978,-0.082421 0.041701,-0.1299461 0.011921,-0.047525 0.030372,-0.1182237 0.041002,-0.1571087 0.01063,-0.038885 0.02419,-0.1188131 0.030133,-0.1776178 0.00594,-0.058805 0.017168,-0.1265654 0.024944,-0.1505794 0.011553,-0.035679 0.013539,-0.099751 0.010862,-0.3504351 L 3.2487052,1.0417042 3.2191079,0.96009602 C 3.1782345,0.84739643 3.1006829,0.70537887 3.0459046,0.64291483 3.0287429,0.6233452 3.0147015,0.60407659 3.0147015,0.60009571 3.0147015,0.59184227 2.8854489,0.46613954 2.816125,0.40697292 2.7622637,0.36100343 2.6473756,0.29354321 2.538932,0.24421032 2.4969748,0.22512328 2.4453646,0.20148132 2.4242424,0.19167264 2.3759031,0.16922481 2.2527558,0.13762129 2.1650165,0.12514698 2.0893018,0.11438227 1.937841,0.11216179 1.8928643,0.12115711 c -0.025113,0.005023 -0.02828,0.00865 -0.020402,0.0233712 0.00589,0.0110101 0.00933,0.46291519 0.00933,1.22743999 v 1.2100144 l 0.019856,0.010627 c 0.029335,0.0157 0.1039256,-0.010035 0.2683301,-0.092575 l 0.139367,-0.069973 0.1246553,-0.1330199 c 0.06856,-0.073161 0.1451537,-0.1619591 0.1702074,-0.1973291 0.042367,-0.059812 0.064859,-0.078577 0.064859,-0.05411 0,0.00561 -0.030456,0.1017393 -0.06768,0.2136214 -0.055779,0.1676508 -0.081783,0.229495 -0.1478828,0.3516939 L 2.3733015,2.7591904 2.1347456,3.0035016 C 2.0035398,3.1378727 1.8909422,3.2569289 1.8845287,3.2680708 c -0.016267,0.02826 -0.016991,0.362203 -8.199e-4,0.3783739 0.016089,0.016089 0.020007,0.015256 0.087162,-0.018531 z M 2.2009705,1.9465947 C 2.1703957,1.9083783 2.1509886,1.7536641 2.150792,1.5465712 L 2.1506151,1.3601691 2.213972,1.2489415 C 2.248818,1.1877665 2.288404,1.1259435 2.301941,1.1115576 2.348675,1.0618916 2.5842355,0.97915507 2.6779599,0.97948813 c 0.069721,2.4771e-4 0.1850068,0.0170516 0.1966132,0.028658 0.013654,0.013654 -0.019863,0.055447 -0.1934029,0.241152 C 2.5954174,1.341062 2.5090087,1.4378782 2.4891507,1.4644452 2.4088971,1.5718124 2.29634,1.8132285 2.2710693,1.9321932 c -0.00453,0.021337 -0.010874,0.026403 -0.033053,0.026403 -0.015094,0 -0.031765,-0.0054 -0.037046,-0.012001 z m -0.015746,-0.886529 c -0.00319,-0.00832 -0.00581,-0.0945542 -0.00581,-0.19162625 0,-0.21027084 -0.00532,-0.20180673 0.1218588,-0.19387231 0.1148207,0.007163 0.119238,0.014299 0.055421,0.0895258 -0.056761,0.0669098 -0.1219141,0.18706938 -0.1396726,0.25759486 -0.012282,0.048776 -0.022896,0.061585 -0.031801,0.038378 z M 1.600487,1.9465947 C 1.611309,1.9347137 1.624495,1.9163517 1.629789,1.9057907 1.643547,1.8783487 1.6556,1.7346701 1.643776,1.7390664 c -0.00519,0.00193 -0.024054,0.022777 -0.041923,0.046328 -0.017868,0.023551 -0.064256,0.068584 -0.103083,0.1000734 -0.064783,0.05254 -0.069161,0.058302 -0.053175,0.069991 0.00999,0.00731 0.042537,0.012738 0.076318,0.012738 0.048849,0 0.062255,-0.00369 0.078573,-0.021602 z"
       id="path405"
       inkscape:connector-curvature="0" />
    <path
       style="fill:#1a3969;stroke-width:0.00960096"
       d="m 1.8575209,3.6944505 c -0.044739,-0.047013 -0.081343,-0.08878 -0.081343,-0.092817 0,-0.00404 -0.018362,-0.017492 -0.040804,-0.029902 C 1.6469212,3.5228196 1.4684531,3.3956223 1.367845,3.3097872 1.0264086,3.0184868 0.78390259,2.6412631 0.65670725,2.2035961 0.61489994,2.059741 0.58117086,1.8898145 0.56710379,1.7521752 0.56116729,1.6940894 0.55111004,1.6012001 0.54475437,1.5457546 0.5383987,1.490309 0.53345666,1.3693369 0.53377206,1.2769277 0.5342845,1.1267904 0.53703389,1.0989013 0.55960857,1.0148489 0.59210075,0.89387069 0.66366377,0.75714006 0.75737258,0.63699462 0.98433374,0.34600438 1.3617572,0.15360756 1.7536101,0.12914881 c 0.1017333,-0.00635 0.1075698,-0.005702 0.1176118,0.0130618 0.00753,0.0140652 0.010566,0.36774171 0.010566,1.22975769 v 1.2100144 l 0.019856,0.010627 c 0.029335,0.0157 0.1039256,-0.010035 0.2683301,-0.092575 L 2.3093454,2.4300618 2.4340007,2.2970419 c 0.06856,-0.073161 0.1451537,-0.1619591 0.1702074,-0.1973291 0.042367,-0.059812 0.064859,-0.078577 0.064859,-0.05411 0,0.00561 -0.030456,0.1017393 -0.06768,0.2136214 -0.055779,0.1676508 -0.081783,0.229495 -0.1478828,0.3516939 L 2.3733015,2.7591904 2.1347456,3.0035016 C 2.0035398,3.1378727 1.8909422,3.2569289 1.8845287,3.2680708 c -0.00794,0.013785 -0.01177,0.075867 -0.012001,0.1943 -4.071e-4,0.2084277 0.00101,0.2115862 0.079002,0.175466 0.027402,-0.012691 0.073686,-0.038632 0.1028517,-0.057645 0.029166,-0.019013 0.096234,-0.061945 0.1490389,-0.095404 0.052805,-0.033459 0.1226383,-0.085949 0.1551846,-0.1166453 0.032546,-0.030696 0.063724,-0.055811 0.069284,-0.055811 0.014094,0 0.2417377,-0.231051 0.2870242,-0.2913209 C 2.8281726,2.870278 2.8658798,2.8163103 2.8828571,2.780644 2.8932161,2.758881 2.9073311,2.734594 2.9142221,2.726673 2.9388341,2.698384 3.0650318,2.4335006 3.0764462,2.386172 c 0.00378,-0.015658 0.015878,-0.048062 0.026892,-0.072007 0.011015,-0.023946 0.029756,-0.082421 0.041648,-0.1299461 0.026515,-0.1059666 0.049712,-0.1879966 0.054523,-0.1928072 0.00285,-0.00285 0.2532852,0.2763526 0.428119,0.4773031 0.016686,0.019179 0.030303,0.042941 0.030258,0.052805 C 3.657753,2.5510989 3.5699836,2.7442531 3.5121193,2.8423072 3.4247873,2.990296 3.3472761,3.0880276 3.2078723,3.2259226 3.0175398,3.4141953 2.8418387,3.531714 2.6052477,3.6289912 2.4780058,3.6813082 2.2710114,3.7386863 2.169817,3.749691 2.135494,3.753421 2.10309,3.759698 2.09781,3.763635 2.09253,3.767575 2.054607,3.772845 2.013537,3.77536 L 1.938865,3.77993 Z M 1.600487,1.9465947 C 1.611309,1.9347137 1.624495,1.9163517 1.629789,1.9057907 1.643547,1.8783487 1.6556,1.7346701 1.643776,1.7390664 c -0.00519,0.00193 -0.024054,0.022777 -0.041923,0.046328 -0.017868,0.023551 -0.064256,0.068584 -0.103083,0.1000734 -0.064783,0.05254 -0.069161,0.058302 -0.053175,0.069991 0.00999,0.00731 0.042537,0.012738 0.076318,0.012738 0.048849,0 0.062255,-0.00369 0.078573,-0.021602 z m 0.6004835,0 C 2.1703957,1.9083783 2.1509886,1.7536641 2.150792,1.5465712 L 2.1506151,1.3601691 2.213972,1.2489415 C 2.248818,1.1877665 2.288404,1.1259435 2.301941,1.1115576 2.348675,1.0618916 2.5842355,0.97915507 2.6779599,0.97948813 c 0.069721,2.4771e-4 0.1850068,0.0170516 0.1966132,0.028658 0.013654,0.013654 -0.019863,0.055447 -0.1934029,0.241152 C 2.5954174,1.341062 2.5090087,1.4378782 2.4891507,1.4644452 2.4088971,1.5718124 2.29634,1.8132285 2.2710693,1.9321932 c -0.00453,0.021337 -0.010874,0.026403 -0.033053,0.026403 -0.015094,0 -0.031765,-0.0054 -0.037046,-0.012001 z m -0.015746,-0.886529 c -0.00319,-0.00832 -0.00581,-0.0945542 -0.00581,-0.19162625 0,-0.21027084 -0.00532,-0.20180673 0.1218588,-0.19387231 0.1148207,0.007163 0.119238,0.014299 0.055421,0.0895258 -0.056761,0.0669098 -0.1219141,0.18706938 -0.1396726,0.25759486 -0.012282,0.048776 -0.022896,0.061585 -0.031801,0.038378 z"
       id="path403"
       inkscape:connector-curvature="0" />
    <path
       style="fill:#570c24;stroke-width:0.00960096"
       d="m 1.8575209,3.6944505 c -0.044739,-0.047013 -0.081343,-0.08878 -0.081343,-0.092817 0,-0.00404 -0.018362,-0.017492 -0.040804,-0.029902 C 1.6469212,3.5228196 1.4684531,3.3956223 1.367845,3.3097872 1.0264086,3.0184868 0.78390259,2.6412631 0.65670725,2.2035961 0.61489994,2.059741 0.58117086,1.8898145 0.56710379,1.7521752 0.56116729,1.6940894 0.55111004,1.6012001 0.54475437,1.5457546 0.5383987,1.490309 0.53345666,1.3693369 0.53377206,1.2769277 0.5342845,1.1267904 0.53703389,1.0989013 0.55960857,1.0148489 0.59210075,0.89387069 0.66366377,0.75714006 0.75737258,0.63699462 0.94475378,0.3967504 1.230034,0.22524647 1.560156,0.15437962 1.65735,0.13351502 1.8573634,0.11808732 1.865065,0.13086092 c 0.00277,0.004594 -0.042521,0.009634 -0.1006457,0.0112 C 1.5815555,0.14698711 1.3911449,0.19732015 1.2055739,0.28978579 0.95525618,0.41451325 0.75830421,0.60623729 0.64127591,0.83910498 0.55608487,1.0086216 0.5243338,1.204068 0.54597422,1.4257426 c 0.00567,0.058086 0.0172058,0.1768977 0.0256339,0.2640264 0.0637145,0.6586662 0.33399663,1.2079565 0.78692778,1.5992617 0.1367239,0.1181212 0.3313378,0.2514571 0.5097235,0.3492271 l 0.039277,0.021527 0.061534,-0.030961 c 0.033843,-0.017029 0.078815,-0.042864 0.099937,-0.057411 0.021122,-0.014547 0.081608,-0.053677 0.1344135,-0.086954 0.052805,-0.033278 0.1226383,-0.085619 0.1551846,-0.1163155 0.032546,-0.030696 0.063724,-0.055811 0.069284,-0.055811 0.014094,0 0.2417377,-0.231051 0.2870242,-0.2913209 0.1132595,-0.1507326 0.1509667,-0.2047003 0.167944,-0.2403666 0.010359,-0.021763 0.024474,-0.04605 0.031365,-0.053971 0.024612,-0.028289 0.1508097,-0.2931724 0.1622241,-0.340501 0.00378,-0.015658 0.015878,-0.048062 0.026892,-0.072007 0.011015,-0.023946 0.029756,-0.082421 0.041648,-0.1299461 0.026515,-0.1059666 0.049712,-0.1879966 0.054523,-0.1928072 0.00285,-0.00285 0.2532852,0.2763526 0.428119,0.4773031 0.016686,0.019179 0.030303,0.042941 0.030258,0.052805 C 3.657753,2.5510989 3.5699836,2.7442531 3.5121193,2.8423072 3.4247873,2.990296 3.3472761,3.0880276 3.2078723,3.2259226 3.0175398,3.4141953 2.8418387,3.531714 2.6052477,3.6289912 2.4780058,3.6813082 2.2710114,3.7386863 2.169817,3.749691 2.135494,3.753421 2.10309,3.759698 2.09781,3.763635 2.09253,3.767575 2.054607,3.772845 2.013537,3.77536 L 1.938865,3.77993 Z M 1.4017402,3.1724839 c 0,-0.039953 0.00894,-0.1123198 0.019863,-0.1608161 0.010925,-0.048497 0.021667,-0.097335 0.023872,-0.1085307 0.00462,-0.023482 0.1501732,-0.1898133 0.1978113,-0.2260573 0.034555,-0.02629 0.1891706,-0.065619 0.2579732,-0.065619 0.020974,0 0.038134,-0.00458 0.038134,-0.010168 0,-0.00559 0.00451,-0.00738 0.010021,-0.00397 0.00551,0.00341 0.016313,9.723e-4 0.024002,-0.00541 0.00769,-0.00638 0.014047,-0.00783 0.014128,-0.00323 7.68e-5,0.00461 0.00356,0.003 0.00774,-0.00358 0.00418,-0.00657 0.019231,-0.012918 0.033456,-0.014095 0.014226,-0.00118 0.025865,-0.00577 0.025865,-0.010214 0,-0.00444 0.00432,-0.0054 0.0096,-0.00214 0.00528,0.00326 0.0096,0.0011 0.0096,-0.0048 0,-0.0059 0.00432,-0.00806 0.0096,-0.0048 0.00528,0.00326 0.0096,0.0011 0.0096,-0.0048 0,-0.0059 0.00432,-0.00806 0.0096,-0.0048 0.00528,0.00326 0.0096,0.0011 0.0096,-0.0048 0,-0.0059 0.00432,-0.00806 0.0096,-0.0048 0.00528,0.00326 0.0096,0.0011 0.0096,-0.0048 0,-0.0059 0.00432,-0.00806 0.0096,-0.0048 0.00528,0.00326 0.0096,0.0011 0.0096,-0.0048 0,-0.0059 0.00432,-0.00806 0.0096,-0.0048 0.00528,0.00326 0.0096,0.0011 0.0096,-0.0048 0,-0.0059 0.00432,-0.00806 0.0096,-0.0048 0.00528,0.00326 0.0096,0.0011 0.0096,-0.0048 0,-0.0059 0.00432,-0.00806 0.0096,-0.0048 0.00528,0.00326 0.0096,0.0011 0.0096,-0.0048 0,-0.0059 0.00432,-0.00806 0.0096,-0.0048 0.00528,0.00326 0.0096,0.0011 0.0096,-0.0048 0,-0.0059 0.00432,-0.00806 0.0096,-0.0048 0.00528,0.00326 0.0096,0.0011 0.0096,-0.0048 0,-0.0059 0.00432,-0.00806 0.0096,-0.0048 0.00528,0.00326 0.0096,0.00229 0.0096,-0.00216 0,-0.00891 0.058844,-0.046512 0.068332,-0.043667 0.00326,9.773e-4 0.016221,-0.00991 0.028803,-0.024201 l 0.022877,-0.025978 -0.024683,0.019202 c -0.013576,0.010561 -4.858e-4,-0.00456 0.029087,-0.033603 0.029574,-0.029043 0.043921,-0.044491 0.031884,-0.03433 -0.044676,0.037712 -0.019726,0.00773 0.047545,-0.057137 0.038188,-0.036822 0.056549,-0.051828 0.040804,-0.033346 l -0.028628,0.033603 0.031103,-0.028103 c 0.017107,-0.015456 0.029158,-0.030047 0.026782,-0.032424 -0.00651,-0.00651 0.051981,-0.088288 0.063155,-0.088288 0.00534,0 0.0072,-0.00405 0.00414,-0.00901 -0.00306,-0.00496 0.00208,-0.013465 0.011435,-0.01891 0.00935,-0.00544 0.013094,-0.010031 0.00831,-0.010191 -0.01083,-3.639e-4 0.023027,-0.038696 0.034179,-0.038696 0.00446,0 0.00811,0.00648 0.00811,0.014401 0,0.00792 -0.00324,0.01441 -0.0072,0.01442 -0.00396,9.6e-6 -0.00819,0.014021 -0.0094,0.031135 -0.00121,0.017114 -0.00664,0.032596 -0.012061,0.034404 -0.00543,0.00181 -0.00778,0.00666 -0.00523,0.010784 0.00484,0.00783 -0.041667,0.155311 -0.051614,0.1636814 -0.00314,0.00264 -0.00689,0.015413 -0.00834,0.028383 -0.00145,0.01297 -0.00577,0.025932 -0.0096,0.028803 -0.00383,0.00287 -0.00815,0.015832 -0.0096,0.028803 -0.00145,0.01297 -0.00577,0.025932 -0.0096,0.028803 -0.00383,0.00287 -0.00846,0.013769 -0.010288,0.024218 -0.00518,0.029601 -0.039154,0.091413 -0.050242,0.091413 -0.00548,0 -0.0073,0.00432 -0.00404,0.0096 0.00326,0.00528 0.0011,0.0096 -0.0048,0.0096 -0.0059,0 -0.00806,0.00432 -0.0048,0.0096 0.00326,0.00528 0.00136,0.0096 -0.00423,0.0096 -0.00559,0 -0.00931,0.00324 -0.00827,0.0072 0.00357,0.013506 -0.01277,0.050405 -0.022318,0.050405 -0.00524,0 -0.00695,0.00416 -0.0038,0.00925 0.00314,0.00509 -0.00272,0.017689 -0.013035,0.028003 -0.010314,0.010314 -0.016232,0.021272 -0.013151,0.024353 0.00308,0.00308 -1.601e-4,0.0056 -0.0072,0.0056 -0.00704,0 -0.010093,0.00271 -0.00678,0.00602 0.011662,0.011662 -0.021623,0.057139 -0.092218,0.1259955 -0.039251,0.038284 -0.068771,0.069607 -0.065601,0.069607 0.00317,0 -0.030552,0.036505 -0.074937,0.081122 -0.044385,0.044617 -0.084212,0.078951 -0.088505,0.076298 -0.00429,-0.00265 -0.034849,0.017288 -0.067903,0.044314 l -0.060098,0.049138 -0.1636478,-0.00651 -0.1636477,-0.00651 -0.087642,0.044016 c -0.048203,0.024209 -0.090388,0.04846 -0.093745,0.05389 -0.00336,0.00543 -0.012328,0.00987 -0.019937,0.00987 -0.010827,0 -0.013835,-0.015794 -0.013835,-0.072641 z M 2.1986199,2.9288476 c 0,-0.00264 -0.028083,0.023033 -0.062406,0.057051 -0.034323,0.034018 -0.062406,0.064012 -0.062406,0.066652 0,0.00264 0.028083,-0.023033 0.062406,-0.057051 0.034324,-0.034018 0.062406,-0.064012 0.062406,-0.066652 z M 2.1989684,1.944615 c -0.00638,-0.00769 -0.00904,-0.018122 -0.00592,-0.023182 0.00313,-0.00506 0.00172,-0.010651 -0.00314,-0.012422 C 2.1694994,1.901561 2.1506064,1.7261809 2.1506064,1.5441669 V 1.3601691 l 0.063386,-0.1112276 c 0.034862,-0.061175 0.072666,-0.1213691 0.084008,-0.1337642 0.022841,-0.024961 0.091638,-0.063264 0.099504,-0.055398 0.00276,0.00276 0.011536,-0.00151 0.019509,-0.00948 0.00797,-0.00797 0.02042,-0.012223 0.02766,-0.00945 0.00724,0.00278 0.013163,6.115e-4 0.013163,-0.00481 0,-0.00543 0.00432,-0.0072 0.0096,-0.00393 0.00528,0.00326 0.0096,8.958e-4 0.0096,-0.00526 0,-0.00616 0.00634,-0.00876 0.014094,-0.00579 0.00775,0.00297 0.01683,9.821e-4 0.020173,-0.00443 0.00334,-0.00541 0.011843,-0.00762 0.018889,-0.00492 0.00705,0.0027 0.014233,6.462e-4 0.015973,-0.00457 0.00174,-0.00522 0.0139,-0.009629 0.027023,-0.009801 0.013123,-1.7186e-4 0.048222,-0.004789 0.077997,-0.0102594 0.03824,-0.007026 0.077586,-0.006791 0.1339945,8.0072e-4 0.083515,0.0112394 0.1107437,0.0238239 0.085416,0.0394773 -0.00788,0.00487 -0.013849,0.012249 -0.013272,0.016402 0.0021,0.015154 -0.027435,0.050416 -0.037186,0.044389 -0.00552,-0.00341 -0.00734,-0.00184 -0.00405,0.00349 0.00753,0.012184 -0.03544,0.053669 -0.045338,0.043771 -0.00401,-0.00401 -0.00591,-0.00297 -0.00423,0.00231 0.0048,0.01507 -0.041706,0.071942 -0.053391,0.06529 -0.00576,-0.00328 -0.00714,-0.00229 -0.00306,0.00219 0.00902,0.00992 -0.069616,0.092193 -0.081253,0.085002 -0.00454,-0.0028 -0.00706,-0.00154 -0.00562,0.00282 0.00457,0.013756 -0.062022,0.089234 -0.07314,0.082898 -0.00584,-0.00333 -0.00749,-0.00259 -0.00367,0.00164 0.00666,0.00736 -0.056502,0.092277 -0.087924,0.1182069 -0.00827,0.00683 -0.012884,0.013675 -0.010244,0.015216 0.00264,0.00154 -0.01984,0.047807 -0.049956,0.1028124 -0.0541,0.09881 -0.1228609,0.2705591 -0.1228609,0.3068767 0,0.010299 -0.00458,0.018726 -0.010168,0.018726 -0.00559,0 -0.0075,0.00432 -0.00423,0.0096 0.00949,0.015361 -0.049106,0.011225 -0.062057,-0.00438 z M 0.89768977,1.941885 C 0.87128717,1.939875 0.84551507,1.934115 0.84041857,1.929069 0.83449357,1.923209 0.86271037,1.887927 0.91866937,1.831235 1.150248,1.596626 1.3325574,1.3507451 1.4542411,1.1089109 c 0.05021,-0.099788 0.073104,-0.11977323 0.09808,-0.085618 0.017038,0.0233 0.018363,0.5417732 0.00147,0.5734975 C 1.5329961,1.6358334 1.3324038,1.876913 1.3117971,1.887628 1.2843911,1.901879 1.0177788,1.949448 0.97755947,1.947264 0.96003607,1.9463123 0.92409657,1.943894 0.89769397,1.941884 Z"
       id="path401"
       inkscape:connector-curvature="0" />
    <path
       style="fill:#0f1633;stroke-width:0.00960096"
       d="m 1.4017402,3.1724839 c 0,-0.039953 0.00894,-0.1123198 0.019863,-0.1608161 0.010925,-0.048497 0.021667,-0.097335 0.023872,-0.1085307 0.00462,-0.023482 0.1501732,-0.1898133 0.1978113,-0.2260573 0.03304,-0.025138 0.1881884,-0.065619 0.2514911,-0.065619 0.049353,0 0.157523,-0.040811 0.2965345,-0.1118782 0.1113276,-0.056914 0.1351575,-0.073527 0.1897254,-0.1322651 0.034324,-0.036946 0.08455,-0.088938 0.1116146,-0.1155365 0.027065,-0.026598 0.072142,-0.081844 0.1001723,-0.1227685 0.02803,-0.040924 0.054258,-0.074407 0.058285,-0.074407 0.00941,0 -0.00932,0.064417 -0.072941,0.250827 C 2.5418466,2.411863 2.5033653,2.4993724 2.445723,2.6066249 2.3661121,2.754753 2.3618832,2.7604168 2.2359425,2.8875875 2.16525,2.9589704 2.0706871,3.0472911 2.0258026,3.0838558 l -0.081608,0.066481 -0.1636478,-0.0065 -0.1636477,-0.0065 -0.087642,0.044016 c -0.048203,0.024209 -0.090388,0.04846 -0.093745,0.05389 -0.00336,0.00543 -0.012328,0.00987 -0.019937,0.00987 -0.010827,0 -0.013835,-0.015794 -0.013835,-0.072641 z M 2.2196016,1.9520305 c -0.036,-0.014402 -0.059007,-0.1714922 -0.059218,-0.4043279 L 2.160216,1.3624318 2.200375,1.2884767 C 2.28145,1.139172 2.3099293,1.1046755 2.3773552,1.0741031 2.5219372,1.0085461 2.5782995,0.9950285 2.7074708,0.9949279 c 0.1243307,-9.697e-5 0.1710519,0.010843 0.1562373,0.0365826 -0.00408,0.00709 -0.075249,0.085735 -0.158148,0.1747611 C 2.622661,1.2952975 2.5319319,1.3969819 2.5039399,1.4322372 2.4303334,1.5249427 2.3396039,1.6968587 2.2968229,1.824687 2.2496756,1.9655614 2.2504074,1.9643546 2.2196016,1.9520305 Z M 0.89768977,1.9418879 c -0.0264026,-0.00201 -0.0521747,-0.00777 -0.0572712,-0.012816 -0.005925,-0.00586 0.0222918,-0.041142 0.0782508,-0.097834 C 1.150248,1.596626 1.3325574,1.3507451 1.4542411,1.1089109 c 0.05021,-0.099788 0.073104,-0.11977323 0.09808,-0.085618 0.017038,0.0233 0.018363,0.5417732 0.00147,0.5734975 C 1.5329961,1.6358334 1.3324038,1.876913 1.3117971,1.887628 1.2843911,1.901879 1.0177788,1.949448 0.97755947,1.947264 0.96003607,1.9463123 0.92409657,1.943894 0.89769397,1.941884 Z"
       id="path399"
       inkscape:connector-curvature="0" />
  </g>
</svg>
