<?xml version="1.0" encoding="UTF-8" standalone="no"?>
<!-- Created with Inkscape (http://www.inkscape.org/) -->

<svg
   xmlns:dc="http://purl.org/dc/elements/1.1/"
   xmlns:cc="http://creativecommons.org/ns#"
   xmlns:rdf="http://www.w3.org/1999/02/22-rdf-syntax-ns#"
   xmlns:svg="http://www.w3.org/2000/svg"
   xmlns="http://www.w3.org/2000/svg"
   xmlns:sodipodi="http://sodipodi.sourceforge.net/DTD/sodipodi-0.dtd"
   xmlns:inkscape="http://www.inkscape.org/namespaces/inkscape"
   version="1.1"
   id="svg507"
   width="113.38583"
   height="113.38583"
   viewBox="0 0 113.38583 113.38583"
   sodipodi:docname="7_1.svg"
   inkscape:version="0.92.4 (5da689c313, 2019-01-14)">
  <metadata
     id="metadata513">
    <rdf:RDF>
      <cc:Work
         rdf:about="">
        <dc:format>image/svg+xml</dc:format>
        <dc:type
           rdf:resource="http://purl.org/dc/dcmitype/StillImage" />
        <dc:title></dc:title>
      </cc:Work>
    </rdf:RDF>
  </metadata>
  <defs
     id="defs511" />
  <sodipodi:namedview
     pagecolor="#ffffff"
     bordercolor="#666666"
     borderopacity="1"
     objecttolerance="10"
     gridtolerance="10"
     guidetolerance="10"
     inkscape:pageopacity="0"
     inkscape:pageshadow="2"
     inkscape:window-width="1366"
     inkscape:window-height="715"
     id="namedview509"
     showgrid="false"
     inkscape:zoom="1.9496253"
     inkscape:cx="1.8916946"
     inkscape:cy="1.8898553"
     inkscape:window-x="-8"
     inkscape:window-y="-8"
     inkscape:window-maximized="1"
     inkscape:current-layer="svg507" />
  <g
     id="g517"
     transform="matrix(29.969379,0,0,29.985023,0.00915548,0.00497062)">
    <path
       style="fill:#fbdd9b;stroke-width:0.00960096"
       d="M 1.6363069,3.7683126 C 1.2086575,3.7191324 0.76452323,3.4824203 0.46974185,3.1465637 0.2191444,2.8610475 0.05402983,2.4937134 0.01363788,2.1318588 -0.03987795,1.6524328 0.06060384,1.2227426 0.31596474,0.83901871 0.6199359,0.38224955 1.1185153,0.07316405 1.6465647,0.01413682 2.1309941,-0.04001442 2.5582105,0.0593892 2.9437596,0.31596474 3.4018156,0.62079225 3.7097465,1.1188336 3.7691404,1.6509195 3.8226563,2.1303455 3.7221744,2.5600357 3.4668136,2.9437596 3.2060981,3.3355296 2.8178312,3.6097488 2.3522352,3.730947 2.1660101,3.7794229 1.8681134,3.7949707 1.6363069,3.7683126 Z"
       id="path531"
       inkscape:connector-curvature="0" />
    <path
       style="fill:#facc6a;stroke-width:0.00960096"
       d="M 1.7573439,3.7762269 C 1.723223,3.7739877 1.6908197,3.768628 1.6853367,3.7643165 1.6798537,3.760005 1.6472847,3.7534236 1.6129613,3.749691 1.5135834,3.7388839 1.3110037,3.6829091 1.183243,3.6309556 1.0481847,3.5760346 0.91588042,3.5034895 0.79195784,3.4164061 0.67981003,3.3375971 0.44518115,3.1029683 0.36637218,2.9908204 0.19570851,2.7479603 0.07815618,2.4621724 0.03854401,2.1938194 0.03230825,2.1515752 0.02245475,2.1071781 0.01664734,2.0951594 c -0.01424758,-0.029486 -0.01424758,-0.3780542 0,-0.4075405 0.0058074,-0.012019 0.01566091,-0.056416 0.02189667,-0.09866 C 0.07815618,1.3206059 0.19570851,1.034818 0.36637218,0.79195784 0.44518115,0.67981003 0.67981003,0.44518115 0.79195784,0.36637218 0.91588042,0.27928878 1.0481847,0.2067437 1.183243,0.15182268 1.3110037,0.0998692 1.5135834,0.04389446 1.6129613,0.03308734 c 0.034323,-0.0037326 0.068198,-0.01139804 0.075278,-0.01703432 0.017527,-0.01395421 0.3887733,-0.01395421 0.4063001,0 0.00708,0.0056363 0.040954,0.01330173 0.075278,0.01703432 0.099378,0.01080712 0.3019576,0.06678186 0.4297183,0.11873534 0.1350583,0.054921 0.2673626,0.1274661 0.3912851,0.2145495 0.1121479,0.078809 0.3467767,0.31343785 0.4255857,0.42558566 0.1526369,0.21720736 0.2605722,0.45972606 0.3080198,0.69208586 0.016252,0.07959 0.029549,0.155414 0.029549,0.1684969 0,0.013083 0.00507,0.028861 0.011276,0.035063 0.014473,0.014474 0.015917,0.388575 0.00157,0.4072051 -0.00534,0.00693 -0.015103,0.049326 -0.021702,0.094211 -0.04,0.2720838 -0.156976,0.5574129 -0.3287132,0.8018007 C 3.3375971,3.1029683 3.1029683,3.3375971 2.9908204,3.4164061 2.8668979,3.5034895 2.7345936,3.5760346 2.5995353,3.6309556 2.4717746,3.6829091 2.2691949,3.7388839 2.169817,3.749691 2.135494,3.753421 2.103079,3.759877 2.097785,3.764032 2.086101,3.773202 1.8436042,3.781888 1.7573439,3.7762269 Z"
       id="path529"
       inkscape:connector-curvature="0" />
    <path
       style="fill:#d9a752;stroke-width:0.00960096"
       d="M 1.6993699,3.7154737 C 1.6861686,3.7109732 1.6178061,3.6888773 1.5474534,3.6663716 1.4380191,3.631364 1.407842,3.6170511 1.3385743,3.5673016 1.1844635,3.456616 1.1092802,3.4140821 0.98568353,3.3676585 0.83430238,3.3107988 0.7794914,3.2834287 0.64106895,3.1955738 0.4892237,3.0991996 0.48727679,3.0973895 0.46892258,3.0355202 0.46004285,3.0055881 0.44211696,2.9453176 0.42908725,2.9015857 0.41605755,2.8578539 0.37057375,2.7498431 0.32801214,2.6615617 0.26837921,2.537871 0.24366596,2.4735198 0.22028075,2.3810381 l -0.0303467,-0.120012 0.004808,-0.2160216 c 0.004764,-0.2140412 0.00517,-0.2174479 0.0442469,-0.3716052 0.0381198,-0.1503818 0.0394454,-0.1608142 0.0396486,-0.3120312 1.8827e-4,-0.1400984 0.003052,-0.1674842 0.0273996,-0.2620582 0.0149542,-0.058086 0.0385037,-0.13220192 0.0523321,-0.16470248 0.0229328,-0.0538981 0.18070186,-0.27399813 0.22369881,-0.31207711 0.009895,-0.008763 0.0417538,-0.0232449 0.0707967,-0.0321811 C 0.830111,0.53581289 0.86624322,0.52400453 0.93129313,0.49935637 1.0219317,0.46501239 1.2059611,0.38865526 1.3249325,0.33602824 1.5526135,0.23531356 1.5382909,0.23741916 1.7268844,0.2769364 c 0.0945,0.0198012 0.1039502,0.0201408 0.1872848,0.006731 0.04827,-0.007767 0.1193389,-0.0207647 0.1579317,-0.0288829 0.1184243,-0.0249113 0.2042846,-0.0153419 0.3953459,0.0440627 0.1411081,0.0438732 0.179944,0.0673792 0.3070908,0.18587094 0.1115329,0.10394077 0.1795477,0.15191807 0.340837,0.24042467 0.051203,0.0280971 0.095444,0.0661555 0.1870055,0.16087103 0.1367977,0.14150936 0.1585812,0.17037866 0.1750653,0.23201076 0.013913,0.052019 0.038117,0.077142 0.1064234,0.1104633 0.035789,0.017459 0.059005,0.03777 0.081298,0.071127 0.03934,0.058864 0.039672,0.089296 0.00144,0.1315992 -0.01637,0.018113 -0.048254,0.054534 -0.070854,0.080937 l -0.041091,0.048005 -0.015881,0.1584159 c -0.024823,0.2476131 -0.079086,0.6152 -0.1115311,0.7555266 -0.00512,0.02214 -0.00931,0.049338 -0.00931,0.06044 0,0.022472 -0.058303,0.1114676 -0.1646563,0.2513365 -0.057075,0.075061 -0.089842,0.1069704 -0.1713773,0.1668905 -0.055445,0.040747 -0.1211701,0.089398 -0.1460544,0.1081128 -0.030634,0.023039 -0.072194,0.074306 -0.128698,0.1587582 -0.096449,0.1441543 -0.1310976,0.184798 -0.1992185,0.2336913 -0.027105,0.019454 -0.088253,0.064679 -0.1358845,0.1004994 -0.070564,0.053067 -0.1052369,0.071563 -0.1872187,0.099874 -0.217812,0.075218 -0.1976655,0.071537 -0.3870996,0.070714 -0.095899,-4.166e-4 -0.1851632,-0.00444 -0.1983646,-0.00894 z"
       id="path527"
       inkscape:connector-curvature="0" />
    <path
       style="fill:#c16b2c;stroke-width:0.00960096"
       d="M 1.7089709,3.705868 C 1.6957696,3.7013648 1.62746,3.6794527 1.5571718,3.6571744 1.4543408,3.6245815 1.415891,3.6070956 1.3603521,3.5676663 1.1910863,3.4474978 1.106784,3.3990335 0.99369938,3.3568824 0.8250689,3.2940272 0.78726911,3.2750147 0.63449019,3.1762079 L 0.49610307,3.0867087 0.47911454,3.0291029 C 0.42493879,2.8454004 0.40543737,2.7935925 0.33636243,2.649865 0.27819141,2.5288258 0.25306575,2.4631335 0.2298706,2.3714372 L 0.1995129,2.2514252 0.2043919,2.0450045 C 0.2091759,1.842612 0.2100389,1.8355478 0.2486499,1.6830003 0.2866929,1.5326953 0.2880361,1.5221089 0.2882392,1.3709691 0.28842747,1.2308706 0.2912912,1.2034849 0.3156388,1.1089109 0.330593,1.0508249 0.3541425,0.97670894 0.3679709,0.94420838 0.3906552,0.89089438 0.55852034,0.65587781 0.59487789,0.62653141 c 0.008131,-0.006563 0.0385456,-0.0187717 0.0675885,-0.0271308 C 0.85870636,0.5429189 1.0574758,0.4687924 1.2913291,0.36488054 c 0.026403,-0.0117319 0.085815,-0.0381434 0.1320264,-0.0586922 0.1008173,-0.04483 0.1530104,-0.0478115 0.3022005,-0.0172633 0.1064103,0.0217886 0.1107384,0.0214863 0.3578524,-0.0249939 0.091661,-0.0172407 0.1236152,-0.0172308 0.2064206,6.433e-5 0.093413,0.0195107 0.2610813,0.0698177 0.3077597,0.0923399 0.021413,0.0103317 0.093656,0.0693964 0.1605394,0.1312548 0.087541,0.0809633 0.1505968,0.12969103 0.2250937,0.17394483 0.056918,0.0338112 0.1256551,0.0748553 0.1527496,0.0912091 0.027291,0.0164722 0.1070481,0.0902006 0.1788213,0.16530396 0.1180217,0.12349754 0.1314117,0.14113844 0.1503687,0.19810434 0.02338,0.070257 0.035926,0.084699 0.097146,0.1118203 0.043488,0.019266 0.094158,0.0654 0.1137087,0.1035293 0.0209,0.040759 0.0112,0.06407 -0.060704,0.1458864 l -0.070702,0.080449 -0.011077,0.097169 c -0.045772,0.4015305 -0.067182,0.5574322 -0.1010268,0.7356328 -0.00852,0.044884 -0.018864,0.1014966 -0.022977,0.1258046 -0.00819,0.048381 -0.012475,0.05537 -0.1396092,0.2274521 -0.082574,0.1117673 -0.09502,0.1239381 -0.2344589,0.2292677 -0.080991,0.061179 -0.1587587,0.1274339 -0.1728173,0.1472332 -0.014058,0.019799 -0.064174,0.090941 -0.111368,0.158092 -0.075629,0.1076111 -0.094419,0.1278983 -0.1584159,0.1710325 -0.039935,0.026917 -0.1040376,0.073886 -0.1424506,0.1043763 -0.047269,0.03752 -0.08916,0.061567 -0.1296129,0.074402 -0.032874,0.010431 -0.1029756,0.034291 -0.1557809,0.053022 l -0.09601,0.034057 -0.1680168,-6.615e-4 c -0.092409,-3.639e-4 -0.1788179,-0.00435 -0.1920192,-0.00885 z"
       id="path525"
       inkscape:connector-curvature="0" />
    <path
       style="fill:#b6672a;stroke-width:0.00960096"
       d="M 1.680168,3.6923694 C 1.4773187,3.6306841 1.438978,3.616937 1.4050189,3.5937143 1.1399295,3.4124347 1.132696,3.4083988 0.93006345,3.3287182 0.83393699,3.2909186 0.76237658,3.2539073 0.66035765,3.1892254 0.5839829,3.1408025 0.51494737,3.0936064 0.50694535,3.0843452 0.49894333,3.075084 0.48766155,3.050225 0.48187472,3.0291029 0.44363571,2.8895293 0.41310683,2.8088457 0.34552987,2.6687621 0.28528129,2.54387 0.26153196,2.4814586 0.23409991,2.3759328 l -0.0348623,-0.1341086 0.00508,-0.1968197 c 0.004916,-0.1904791 0.006346,-0.2018319 0.0443956,-0.3524032 0.0379519,-0.1501861 0.0393159,-0.1609474 0.0393159,-0.3101927 0,-0.1395985 0.002761,-0.1655466 0.0284423,-0.267269 C 0.35488969,0.96296344 0.39604874,0.88046143 0.50145295,0.74434919 0.60059459,0.61632406 0.59178036,0.62200215 0.77767777,0.56640638 0.83312332,0.54982444 0.90441045,0.52606772 0.93609361,0.51361367 1.032915,0.47555499 1.2191316,0.39778416 1.3153315,0.35523016 1.5405413,0.25560864 1.5432751,0.25514845 1.7106654,0.28868411 c 0.1134931,0.0227377 0.1472832,0.0210856 0.3461782,-0.0169254 0.1311135,-0.0250573 0.1323126,-0.0251075 0.2143968,-0.008979 0.0454,0.00892 0.1221608,0.0286051 0.1705792,0.0437438 0.048418,0.0151387 0.098922,0.0299651 0.1122304,0.0329475 0.040926,0.009172 0.1090683,0.0603065 0.2264528,0.16993373 0.072284,0.0675071 0.14023,0.12096065 0.1901398,0.14958421 0.042714,0.0244968 0.106893,0.0614566 0.1426197,0.0821328 0.045041,0.0260672 0.1009129,0.0744557 0.18223,0.15782433 0.1321411,0.13547452 0.1448394,0.15219202 0.1667793,0.21956612 0.01949,0.05985 0.052356,0.095813 0.1064368,0.1164671 0.046979,0.017941 0.1182123,0.097743 0.1178381,0.1320118 -1.219e-4,0.011191 -0.028675,0.052751 -0.063451,0.092355 -0.034776,0.039604 -0.068821,0.080648 -0.075655,0.091209 -0.00683,0.010561 -0.017457,0.073207 -0.023606,0.1392139 -0.028757,0.3087095 -0.040658,0.3972729 -0.087085,0.6480648 -0.00978,0.052805 -0.02066,0.119772 -0.024189,0.1488149 -0.00787,0.064804 -0.027374,0.099597 -0.142888,0.254942 -0.087289,0.1173874 -0.096258,0.1260884 -0.2380106,0.2308987 L 2.8843583,3.081404 2.7948822,3.2121108 C 2.6843593,3.3735627 2.6615195,3.3997694 2.5881736,3.449292 2.5560976,3.47095 2.5017406,3.510986 2.4673812,3.538261 2.3955542,3.595278 2.3662831,3.611664 2.29943,3.632279 2.273027,3.640419 2.208221,3.662449 2.1554156,3.68123 2.0602476,3.715079 2.0580596,3.715373 1.9057906,3.714822 1.7743574,3.7143469 1.7417774,3.7111044 1.680168,3.6923694 Z m 0.5089042,-0.0832 C 2.4024931,3.5388276 2.480896,3.4833202 2.5445226,3.3575192 c 0.021656,-0.042818 0.047943,-0.083853 0.058416,-0.091188 0.029055,-0.020351 0.1591081,-0.1352906 0.214104,-0.1892232 0.026923,-0.026403 0.086034,-0.078961 0.1313568,-0.1167956 0.091074,-0.076027 0.3153096,-0.308743 0.356817,-0.3703111 0.028577,-0.042388 0.036322,-0.066799 0.058687,-0.1849605 0.008,-0.042244 0.021384,-0.1113711 0.029751,-0.1536153 0.026222,-0.1323863 0.072292,-0.5356174 0.072292,-0.6327361 0,-0.1018532 -0.00986,-0.1312392 -0.07327,-0.2183126 -0.040764,-0.055979 -0.061144,-0.1042285 -0.061144,-0.1447591 0,-0.027676 -0.0054,-0.034393 -0.044205,-0.054979 -0.024313,-0.012898 -0.050517,-0.033083 -0.058231,-0.044857 -0.017367,-0.026506 -0.00528,-0.054001 0.052268,-0.1188435 l 0.03812,-0.0429553 -0.080782,-0.085814 C 3.1702099,0.83540926 3.1415512,0.81325827 3.0503078,0.76255382 2.9090653,0.68406457 2.8591194,0.64750326 2.7406661,0.53589034 2.6319568,0.43345872 2.6064043,0.41771745 2.4866487,0.37940594 c -0.044884,-0.0143592 -0.09889,-0.0323196 -0.120012,-0.039912 -0.021122,-0.007592 -0.081654,-0.0187169 -0.1345154,-0.024721 -0.094298,-0.0107106 -0.098522,-0.0103173 -0.2238266,0.0208394 -0.1315958,0.032721 -0.1479614,0.0334867 -0.2927764,0.0136985 -0.031049,-0.004243 -0.064194,-0.001212 -0.1008101,0.009218 -0.030004,0.008546 -0.078315,0.0215962 -0.1073575,0.0289996 -0.072381,0.0184507 -0.2319815,0.0908529 -0.3058307,0.13873879 -0.092148,0.0597513 -0.1511763,0.0785932 -0.24621887,0.0785932 -0.0597212,0 -0.100445,0.006248 -0.15565545,0.0238798 -0.0411253,0.0131339 -0.0871462,0.023935 -0.10226885,0.0240024 -0.0532828,2.3753e-4 -0.0994776,0.0381393 -0.18458732,0.15144971 -0.0450663,0.0599989 -0.0896243,0.12718296 -0.0990176,0.14929791 -0.0394954,0.0929855 -0.0579145,0.20825775 -0.0677893,0.42424745 -0.007906,0.1729211 -0.0140007,0.2277598 -0.0336129,0.3024302 -0.0137525,0.05236 -0.024038,0.1183688 -0.0241485,0.1549748 -1.8597e-4,0.061629 6.9232e-4,0.063986 0.0262102,0.070355 0.0290968,0.00726 0.060006,0.031345 0.060006,0.046754 0,0.00544 -0.009691,0.029608 -0.0215349,0.053718 -0.0236,0.048039 -0.0266987,0.1225542 -0.0122032,0.2934603 0.008239,0.097146 0.0220374,0.1311063 0.0916963,0.2256895 0.0513691,0.069749 0.11485904,0.2009053 0.11485904,0.2372733 0,0.013047 -0.008906,0.036229 -0.0197907,0.051515 -0.0298407,0.041907 -0.0313612,0.082023 -0.006155,0.1623893 0.0193505,0.061696 0.0259183,0.072378 0.0458672,0.074596 0.0710052,0.0079 0.0889698,0.016387 0.16582355,0.078372 0.0991446,0.079963 0.16382168,0.1068744 0.25426239,0.1057937 0.0670283,-8.007e-4 0.0983213,0.00604 0.15690441,0.034303 0.035506,0.017129 0.04598,0.03592 0.046221,0.082919 8.64e-5,0.016897 0.010698,0.034507 0.031334,0.052 0.038495,0.032633 0.2075932,0.113309 0.2671822,0.127472 0.024178,0.00575 0.093305,0.034295 0.1536154,0.063441 l 0.1096554,0.052993 0.1589889,8.64e-5 0.1589887,8.64e-5 0.1189194,-0.039195 z M 1.2028754,3.1788101 C 1.1725003,3.1568065 1.1599504,3.1395341 1.1518391,3.108569 1.1394028,3.0610928 1.109259,3.0117262 1.0667489,2.969216 1.0131809,2.9156481 1.031705,2.887037 1.1375026,2.8599342 c 0.04194,-0.010744 0.083825,-0.023586 0.093077,-0.028537 0.00925,-0.00495 0.046807,-0.014673 0.083457,-0.021603 0.058307,-0.011025 0.071852,-0.010674 0.1083728,0.00281 0.036881,0.013617 0.044216,0.021522 0.063044,0.067949 0.011719,0.028897 0.021345,0.069822 0.021391,0.090944 1.785e-4,0.081336 -0.074588,0.1854414 -0.1508319,0.2100196 -0.091431,0.029474 -0.1091456,0.029161 -0.1531377,-0.00271 z M 1.3862894,2.981861 c 0.0079,-0.031474 -0.00199,-0.053568 -0.02398,-0.053568 -0.020787,0 -0.023087,0.017119 -0.00703,0.052354 0.013971,0.030662 0.023528,0.031036 0.031013,0.00121 z m 0.6469984,0.1671262 c -0.00908,-0.00556 -0.021349,-0.028328 -0.027254,-0.050595 -0.015037,-0.056699 -0.052575,-0.1129256 -0.096444,-0.1444591 -0.063203,-0.045431 -0.05899,-0.098936 0.011829,-0.1502374 0.022192,-0.016076 0.050593,-0.044303 0.063112,-0.062727 0.025284,-0.037209 0.067153,-0.045754 0.089898,-0.018347 0.026981,0.03251 0.1026836,0.061657 0.1601393,0.061657 0.1126976,0 0.1306618,0.062525 0.047772,0.1662706 -0.017003,0.021282 -0.041716,0.058105 -0.054918,0.08183 -0.04699,0.084447 -0.1477736,0.1449833 -0.1941343,0.1166079 z M 2.8178818,2.7459709 C 2.6972296,2.7351848 2.6750682,2.721309 2.6301521,2.6284284 2.5784642,2.5215442 2.5791968,2.49019 2.6347701,2.4307776 c 0.066021,-0.070582 0.1499461,-0.093214 0.251157,-0.067729 0.032172,0.0081 0.052521,0.02195 0.081117,0.055206 0.042011,0.048855 0.07646,0.1286622 0.07646,0.1771311 0,0.043724 -0.037754,0.1133516 -0.072007,0.1328006 -0.040062,0.022747 -0.065353,0.025675 -0.1536153,0.017785 z M 2.913106,2.539155 C 2.900725,2.513064 2.884459,2.498122 2.853557,2.484453 2.804885,2.462923 2.784272,2.471526 2.805001,2.504719 c 0.00698,0.011184 0.015394,0.020334 0.018687,0.020334 0.00329,0 0.024937,0.014705 0.048096,0.032678 0.04956,0.038463 0.065078,0.031487 0.041321,-0.018576 z m -2.04778129,0.00634 c -0.0238271,-0.023827 -0.0247182,-0.045166 -0.007378,-0.1766612 0.0113532,-0.086093 0.0150786,-0.096612 0.045259,-0.1277962 0.0180881,-0.01869 0.0506378,-0.041846 0.0723327,-0.051459 0.0425497,-0.018853 0.0808551,-0.062333 0.10425619,-0.1183398 0.022617,-0.05413 0.040979,-0.059081 0.117372,-0.031651 0.05238,0.018808 0.074414,0.033477 0.1109539,0.073867 0.06278,0.069394 0.086336,0.1349689 0.077936,0.2169553 -0.00793,0.077417 -0.040981,0.1215775 -0.102806,0.1373673 -0.02196,0.00561 -0.059369,0.018273 -0.083131,0.028144 -0.059299,0.024633 -0.1891027,0.056922 -0.25760823,0.064083 -0.0496659,0.00519 -0.0592974,0.00338 -0.0771866,-0.014509 z M 1.1535207,2.3812767 c 0.077775,-0.031467 0.1138834,-0.064501 0.113659,-0.1039843 -3.398e-4,-0.059769 -0.014165,-0.057771 -0.088657,0.012811 -0.038853,0.036813 -0.085531,0.078582 -0.1037299,0.092821 -0.029159,0.022814 -0.030641,0.025949 -0.012481,0.026403 0.011334,2.832e-4 0.052378,-0.01234 0.091209,-0.028051 z m 0.6804937,0.085956 c -0.018355,-0.00432 -0.041491,-0.017875 -0.051413,-0.030129 -0.02906,-0.035888 -0.061186,-0.1057558 -0.068332,-0.1486078 -0.0062,-0.037157 -0.00393,-0.042823 0.034842,-0.087282 0.022807,-0.02615 0.053279,-0.067736 0.067716,-0.092412 0.036467,-0.062333 0.063769,-0.073248 0.1157613,-0.046279 0.1062683,0.055123 0.1557586,0.089126 0.1742177,0.1197019 0.010894,0.018044 0.033721,0.044514 0.050729,0.058822 0.057965,0.048765 0.058429,0.1130883 0.00119,0.1653501 -0.052918,0.048319 -0.2338265,0.082213 -0.3247136,0.060836 z M 2.0301513,2.3506941 c 0.01345,-0.00613 0.024454,-0.013768 0.024454,-0.016978 0,-0.013063 -0.080416,-0.1019766 -0.1066721,-0.1179437 -0.029695,-0.018058 -0.056544,-0.022497 -0.056544,-0.00935 0,0.00429 0.012648,0.019922 0.028106,0.034732 0.015458,0.01481 0.037181,0.048022 0.048272,0.073803 0.021743,0.050542 0.025349,0.052608 0.062384,0.035734 z M 2.612813,2.0738294 C 2.589794,2.0632564 2.555066,2.0546054 2.535639,2.0546054 c -0.019427,0 -0.054598,-0.00972 -0.078159,-0.021602 C 2.408582,2.0083454 2.392071,1.9744924 2.391181,1.897063 2.390674,1.852975 2.393521,1.847283 2.435316,1.808914 2.474319,1.773105 2.5468064,1.728819 2.6824382,1.6579346 c 0.033359,-0.017434 0.039868,-0.018063 0.060592,-0.00585 0.038609,0.022751 0.1540149,0.3054942 0.1428497,0.3499796 -0.00435,0.01735 -0.022252,0.028715 -0.080008,0.050807 -0.1053937,0.040313 -0.1422191,0.044311 -0.1930589,0.020958 z M 2.680854,1.8518153 c 0.019036,-0.010188 0.020552,-0.016785 0.0083,-0.036129 -0.00682,-0.01077 -0.018614,-0.00747 -0.062056,0.01739 -0.029499,0.016878 -0.055763,0.03413 -0.058364,0.038339 -0.00584,0.00946 0.088718,-0.00708 0.11212,-0.0196 z M 1.8769877,1.7954758 C 1.7563355,1.7846897 1.7341741,1.770814 1.689258,1.6779333 1.6375701,1.5710492 1.6383027,1.5396949 1.693876,1.4802826 c 0.066021,-0.070582 0.1499461,-0.093214 0.251157,-0.067729 0.032172,0.0081 0.052521,0.02195 0.081117,0.055206 0.042011,0.048855 0.07646,0.1286621 0.07646,0.1771311 0,0.043724 -0.037754,0.1133516 -0.072007,0.1328005 -0.040062,0.022747 -0.065353,0.025675 -0.1536153,0.017785 z M 1.972212,1.5886599 C 1.959831,1.5625689 1.943565,1.5476269 1.912663,1.5339579 1.863991,1.5124279 1.843378,1.5210309 1.864107,1.5542239 c 0.00698,0.011184 0.015394,0.020334 0.018687,0.020334 0.00329,0 0.024937,0.014705 0.048096,0.032678 0.04956,0.038463 0.065078,0.031487 0.041322,-0.018576 z m -1.18647253,0.00919 C 0.75271171,1.5876856 0.73117991,1.5721485 0.703508,1.5385144 0.64843646,1.4715771 0.62887948,1.440566 0.60993895,1.390144 c -0.0169705,-0.045178 -0.016967,-0.04522 0.007308,-0.086642 0.0133577,-0.022793 0.0310021,-0.06726 0.0392097,-0.098815 0.0240689,-0.092535 0.0555813,-0.1063076 0.13147399,-0.05746 0.0188404,0.012126 0.0608193,0.035458 0.0932864,0.051847 0.0386465,0.019509 0.0699176,0.044242 0.0905572,0.071625 0.0173393,0.023004 0.0505938,0.056465 0.0738987,0.074357 0.025022,0.01921 0.049889,0.049523 0.060728,0.074026 l 0.018355,0.041495 -0.022324,0.044989 C 1.0812639,1.548225 1.0758819,1.552145 0.9984999,1.581275 0.9084558,1.615171 0.8554298,1.619302 0.78573951,1.597851 Z m 0.17012127,-0.133143 c 0.0177933,-0.013214 0.0158124,-0.016724 -0.0437695,-0.077549 -0.0522024,-0.053291 -0.11751146,-0.1006294 -0.13883143,-0.1006294 -0.0151285,0 -6.1408e-4,0.023029 0.0356211,0.056517 0.0224422,0.020741 0.0537654,0.059628 0.069607,0.086416 0.0301232,0.050938 0.0463129,0.058312 0.0773728,0.035245 z M 1.3783112,1.1756776 C 1.3026634,1.1275959 1.234439,1.0647448 1.2124669,1.0228952 1.1984872,0.99626859 1.1785942,0.88095799 1.1782192,0.8243771 1.1779811,0.7884959 1.2141642,0.7422556 1.2609342,0.71867022 c 0.021998,-0.0110929 0.064991,-0.0438504 0.095542,-0.0727945 0.052191,-0.0494466 0.0577,-0.0522373 0.091209,-0.0461995 0.055825,0.0100587 0.1084777,0.0391018 0.1641282,0.0905321 l 0.051237,0.0473514 -0.00668,0.0608631 c -0.00368,0.0334747 -0.017106,0.10269016 -0.029845,0.15381211 -0.012739,0.051122 -0.023403,0.10512737 -0.023698,0.12001197 -0.00102,0.051408 -0.03261,0.1122833 -0.067599,0.1302585 -0.049964,0.025669 -0.083284,0.019972 -0.1569141,-0.026828 z M 2.2241229,1.0644342 C 2.2013345,1.0511874 2.179418,0.99853999 2.179418,0.95704442 c 0,-0.036315 -0.041646,-0.10126006 -0.081808,-0.12757483 -0.065107,-0.0426595 -0.050271,-0.0815001 0.041578,-0.10885396 0.07356,-0.021907 0.1068499,-0.0505975 0.1318531,-0.11363499 0.022723,-0.0572891 0.037969,-0.0629907 0.1217154,-0.0455192 0.038439,0.008019 0.071005,0.014584 0.07237,0.0145883 0.00136,4.32e-6 0.018979,0.0357189 0.039144,0.0793658 0.023051,0.0498929 0.048865,0.089548 0.069527,0.10680262 0.018075,0.0150945 0.036107,0.0330111 0.040071,0.0398146 0.00401,0.006884 -0.006,0.0469564 -0.022574,0.0903623 l -0.029782,0.0779923 -0.063834,0.0293791 C 2.3408875,1.0719278 2.2670448,1.089384 2.2241229,1.0644342 Z M 2.4386037,0.81368137 c -1.93e-5,-0.00132 -0.010823,-0.0236545 -0.024002,-0.0496319 -0.013179,-0.0259774 -0.023962,-0.0533402 -0.023962,-0.0608061 0,-0.0208185 -0.011673,-0.0122042 -0.071595,0.0528323 l -0.055286,0.060006 h 0.087443 c 0.048094,0 0.087425,-0.00108 0.087403,-0.0024 z M 3.5091509,1.3345335 c -0.00326,-0.00528 -0.00784,-0.0096 -0.010168,-0.0096 -0.00233,0 -0.00423,0.00432 -0.00423,0.0096 0,0.00528 0.00458,0.0096 0.010168,0.0096 0.00559,0 0.0075,-0.00432 0.00423,-0.0096 z"
       id="path523"
       inkscape:connector-curvature="0" />
    <path
       style="fill:#904811;stroke-width:0.00960096"
       d="M 1.7089709,3.6962718 C 1.6957696,3.6917713 1.6274071,3.6696753 1.5570543,3.6471696 1.4476201,3.612162 1.4174429,3.5978492 1.3481753,3.5480996 1.1940075,3.4373731 1.1188915,3.3948841 0.99511782,3.3483939 0.92719937,3.3228834 0.84941041,3.2908996 0.82225349,3.277319 0.75317171,3.2427725 0.53277228,3.1032812 0.51634415,3.0837083 0.50280355,3.0675756 0.46261191,2.9529328 0.44166289,2.8706871 0.43561031,2.8469247 0.39449354,2.7518752 0.3502923,2.659466 0.2883617,2.5299909 0.26295143,2.4639194 0.23952011,2.3714372 l -0.0304063,-0.120012 0.004879,-0.2064207 c 0.004784,-0.2023925 0.005647,-0.2094567 0.044258,-0.3620042 0.038043,-0.150305 0.0393862,-0.1608914 0.0395893,-0.3120312 1.8827e-4,-0.1400985 0.003052,-0.1674842 0.0273996,-0.2620582 0.0358972,-0.13943359 0.0679583,-0.21234293 0.12549777,-0.28539089 0.0260995,-0.033134 0.0704426,-0.0903332 0.0985402,-0.12710925 0.0554315,-0.0725524 0.0494233,-0.0692594 0.2187992,-0.11992002 C 0.89707642,0.53790674 1.098846,0.46001062 1.2913291,0.3744815 1.3177318,0.36274959 1.3771437,0.3363381 1.4233555,0.3157893 1.523637,0.2711976 1.570576,0.26839843 1.7202663,0.29808331 1.8309241,0.3200277 1.8478631,0.3191493 2.0450045,0.28124338 2.1930308,0.25278122 2.2492606,0.2561118 2.40024,0.30228454 c 0.044884,0.0137266 0.1050922,0.0316001 0.133795,0.0397189 0.067791,0.0191751 0.1071556,0.04712 0.2391359,0.1697614 0.102476,0.0952248 0.1756543,0.14650891 0.3289873,0.23055801 0.087495,0.0479602 0.2998499,0.26224405 0.3373558,0.34042045 0.014505,0.030234 0.026386,0.062029 0.026403,0.070655 3.84e-5,0.02242 0.069277,0.081939 0.1042485,0.08962 0.03619,0.00795 0.1070986,0.088724 0.1067902,0.1216502 -1.344e-4,0.014313 -0.026601,0.052754 -0.071795,0.1042781 -0.03937,0.044884 -0.071678,0.086479 -0.071795,0.092433 -0.00169,0.086099 -0.077714,0.6568423 -0.1104598,0.8292593 -0.00852,0.044884 -0.018817,0.1012007 -0.022873,0.1251472 -0.00784,0.046285 -0.037702,0.094317 -0.1563776,0.2515174 -0.071658,0.09492 -0.07028,0.09373 -0.3235578,0.2791965 C 2.8928315,3.066466 2.8495295,3.119933 2.7955542,3.2002812 2.6904851,3.356687 2.6628114,3.3886262 2.584203,3.4442095 2.54903,3.4690805 2.488326,3.5144005 2.4493065,3.5449218 c -0.046767,0.036581 -0.090939,0.06184 -0.129613,0.074118 -0.032267,0.010243 -0.1018719,0.03395 -0.1546772,0.052681 L 2.0690069,3.705777 1.9009901,3.7051155 C 1.8085809,3.7047516 1.7221722,3.700772 1.7089709,3.6962714 Z M 2.2130213,3.6160805 C 2.4075781,3.5501771 2.5044249,3.4788217 2.5607937,3.3598466 2.5851013,3.3085416 2.6053911,3.284766 2.67918,3.2211221 c 0.048978,-0.042244 0.1131971,-0.10057 0.1427091,-0.1296129 0.029512,-0.029043 0.090632,-0.083661 0.1358225,-0.1213748 0.085252,-0.071147 0.3221265,-0.3154539 0.360243,-0.3715476 0.027019,-0.039763 0.045211,-0.099739 0.065985,-0.2175487 0.00885,-0.050165 0.020452,-0.110651 0.02579,-0.1344134 C 3.4288171,2.1616617 3.4850055,1.683463 3.4850763,1.6053781 3.485155,1.5187461 3.4732612,1.4850595 3.413178,1.4017402 3.3662771,1.3367012 3.3507351,1.301081 3.3507351,1.2586299 c 0,-0.036678 -0.00255,-0.03994 -0.055206,-0.070657 -0.034298,-0.020008 -0.056295,-0.039613 -0.058082,-0.051768 -0.00174,-0.01181 0.013485,-0.039674 0.038404,-0.070301 0.022704,-0.027905 0.045302,-0.056208 0.050217,-0.062896 C 3.3400466,0.98398983 3.1718684,0.81008918 3.1034222,0.77278539 2.8905773,0.65678312 2.88161,0.65038996 2.7252388,0.50316238 2.6397152,0.42263965 2.6259297,0.41350985 2.5475834,0.38550547 2.4116267,0.33690859 2.3092413,0.30883228 2.2268354,0.29754934 c -0.072198,-0.009885 -0.084008,-0.00876 -0.1972556,0.0187852 -0.1270326,0.0308987 -0.200404,0.0357111 -0.2966065,0.0194543 -0.048663,-0.008223 -0.06953,-0.006645 -0.1344134,0.0101655 -0.1543489,0.0399902 -0.2842222,0.0931342 -0.389007,0.15918138 -0.1055521,0.0665307 -0.1462277,0.0805228 -0.23408344,0.0805228 -0.0511219,0 -0.10139218,0.006884 -0.14519419,0.019884 -0.0368494,0.0109362 -0.0913871,0.0237751 -0.12119479,0.0285309 -0.0298077,0.004756 -0.0693982,0.0176166 -0.0879789,0.0285795 C 0.58286128,0.68521522 0.43006749,0.88281122 0.4022718,0.94564799 0.3603937,1.0403204 0.3375001,1.1777712 0.3271054,1.3969396 0.3190464,1.5668537 0.3123722,1.6269367 0.2929758,1.7041703 0.2667622,1.8085492 0.2617286,1.8930479 0.2808281,1.9080916 c 0.006601,0.0052 0.0240674,0.012337 0.038815,0.015863 0.0340938,0.00815 0.0424449,0.029879 0.023873,0.062114 -0.0247659,0.042985 -0.0390163,0.1235077 -0.0322208,0.1820645 0.003478,0.029969 0.009505,0.093373 0.0133933,0.1408977 0.007856,0.096016 0.0171242,0.1183308 0.0918622,0.2211727 0.0270027,0.037157 0.0658622,0.1052174 0.0863545,0.1512464 l 0.0372587,0.083689 -0.0253224,0.038265 c -0.0305121,0.046107 -0.0336313,0.091336 -0.0112615,0.1632929 0.0282236,0.090786 0.0314665,0.095975 0.0602705,0.096431 0.0481521,7.623e-4 0.0956859,0.024628 0.16770486,0.0842 0.0982396,0.081261 0.14594398,0.1010975 0.24911496,0.1035874 0.0604724,0.00146 0.0955385,0.00756 0.12927698,0.022482 0.053522,0.023675 0.061022,0.032718 0.061223,0.073821 1.105e-4,0.022553 0.00929,0.038343 0.03665,0.063064 0.044994,0.040649 0.1745209,0.1040791 0.2707282,0.1325768 0.039604,0.011731 0.1108911,0.040896 0.1584158,0.064812 0.047525,0.023915 0.09721,0.046987 0.110411,0.05127 0.013201,0.00428 0.093129,0.00664 0.1776178,0.00523 L 2.0786086,3.661611 Z M 1.2120928,3.166322 C 1.1915918,3.151875 1.1772268,3.13112 1.1702828,3.105911 1.1549598,3.050287 1.1385038,3.022087 1.0948538,2.9766555 c -0.05921,-0.061626 -0.052616,-0.075557 0.047661,-0.1006909 0.034323,-0.0086 0.074296,-0.020318 0.088829,-0.026034 0.057308,-0.02254 0.1466937,-0.03365 0.1807838,-0.02247 0.060393,0.019805 0.093303,0.1296205 0.06279,0.2095184 -0.021035,0.05508 -0.080178,0.1151114 -0.126832,0.1287378 -0.081269,0.023737 -0.1030287,0.023834 -0.1359919,6.059e-4 z M 1.3937084,2.9905193 c 0.012096,-0.045227 6.721e-4,-0.071827 -0.030846,-0.071827 -0.038048,0 -0.041848,0.012376 -0.019388,0.06315 0.021484,0.048568 0.038768,0.051553 0.050234,0.00868 z m 0.6488959,0.1388568 c -0.00924,-0.00551 -0.016802,-0.017596 -0.016802,-0.026858 0,-0.032853 -0.050061,-0.1166343 -0.087326,-0.1461492 -0.020797,-0.016471 -0.041983,-0.037741 -0.047081,-0.047267 -0.013775,-0.025739 0.00528,-0.07013 0.038536,-0.089775 0.015616,-0.00922 0.039926,-0.031892 0.054021,-0.050373 0.040183,-0.052682 0.054944,-0.056623 0.091808,-0.02451 0.05076,0.044218 0.088248,0.059036 0.1493499,0.059036 0.1053377,0 0.1143771,0.03969 0.033746,0.1481677 -0.025209,0.033916 -0.054476,0.075655 -0.065037,0.092755 -0.039068,0.063256 -0.1155548,0.1062363 -0.1512149,0.084973 z M 2.160216,2.9113581 c 0,-0.00403 -0.025923,-0.018791 -0.057606,-0.032794 -0.068349,-0.030209 -0.077386,-0.018542 -0.012001,0.015494 0.047003,0.024467 0.069607,0.030085 0.069607,0.0173 z M 2.8130813,2.7274109 c -0.1007952,-0.00795 -0.122765,-0.02145 -0.1653131,-0.1015483 -0.047136,-0.088735 -0.048484,-0.1342774 -0.00543,-0.1833149 0.080837,-0.092068 0.2465038,-0.097785 0.3168155,-0.010934 0.063064,0.077899 0.081149,0.1648438 0.048519,0.233268 -0.017144,0.035951 -0.072812,0.072817 -0.1054014,0.069802 -0.00945,-8.746e-4 -0.049587,-0.00415 -0.089191,-0.00727 z M 2.933904,2.5876468 c 0.00837,-0.033338 -0.022337,-0.081815 -0.068553,-0.1082332 -0.06773,-0.038717 -0.1094305,-0.00772 -0.055358,0.041148 0.059921,0.054154 0.1042676,0.090394 0.1109156,0.09064 0.00386,1.43e-4 0.00971,-0.010457 0.012995,-0.023555 z M 0.87358588,2.5248629 c -0.00926,-0.017302 -0.009151,-0.044346 5.1701e-4,-0.1284746 0.0143512,-0.1248812 0.02729,-0.148367 0.10093136,-0.1832049 0.051247,-0.024244 0.0832226,-0.058531 0.11768095,-0.1261907 0.011098,-0.021791 0.026178,-0.041922 0.033511,-0.044736 0.00733,-0.00281 0.03884,0.00512 0.070016,0.017634 0.1426831,0.057267 0.2158174,0.2311568 0.1460527,0.3472668 -0.017093,0.028448 -0.061328,0.05046 -0.1017532,0.050635 -0.00681,2.88e-5 -0.028788,0.00842 -0.048837,0.018651 -0.045711,0.02332 -0.1744116,0.056541 -0.24941785,0.06438 -0.0525461,0.00549 -0.0578831,0.00425 -0.068701,-0.015961 z M 1.1182108,2.4048061 c 0.1269371,-0.047779 0.1587169,-0.073901 0.1587169,-0.1304614 0,-0.025428 -0.016991,-0.056523 -0.030885,-0.056523 -0.00605,0 -0.046419,0.034563 -0.089698,0.076808 -0.04328,0.042244 -0.083387,0.076808 -0.089127,0.076808 -0.013753,0 -0.032815,0.036189 -0.025391,0.048203 0.00748,0.012101 0.00199,0.013167 0.076384,-0.014835 z m 0.7067859,0.036223 c -0.038269,-0.019592 -0.082215,-0.092615 -0.091797,-0.1525328 -0.00595,-0.037209 -0.00364,-0.042794 0.036331,-0.087798 0.023477,-0.026434 0.052731,-0.065935 0.065008,-0.08778 0.012587,-0.022395 0.031816,-0.042101 0.044089,-0.045181 0.026477,-0.00665 0.1573755,0.064283 0.194508,0.1053952 0.090671,0.1003884 0.1068135,0.1217563 0.1121533,0.148455 0.00908,0.045421 -0.03158,0.080375 -0.1294896,0.1113043 -0.094617,0.029889 -0.1822787,0.03298 -0.2308033,0.00814 z m 0.2204846,-0.08424 c 0.015579,-0.00806 0.028326,-0.017038 0.028326,-0.01996 0,-0.00292 -0.02263,-0.03133 -0.050288,-0.063129 -0.056233,-0.064652 -0.1127586,-0.1002122 -0.1307296,-0.082241 -0.017004,0.017004 -0.01334,0.030132 0.01635,0.058577 0.015043,0.014413 0.037384,0.047624 0.049646,0.073804 0.024397,0.05209 0.038972,0.057629 0.086695,0.032951 z M 2.6162616,2.0549875 c -0.021122,-0.00999 -0.054744,-0.01848 -0.074716,-0.018872 -0.04248,-8.334e-4 -0.092609,-0.019918 -0.1112007,-0.042336 -0.0072,-0.00869 -0.015183,-0.04284 -0.017731,-0.075895 -0.00449,-0.05821 -0.00362,-0.06107 0.027609,-0.090964 0.017732,-0.016976 0.068915,-0.051072 0.1137402,-0.075769 0.044825,-0.024697 0.1018537,-0.056173 0.1267303,-0.069945 0.042292,-0.023414 0.046276,-0.023997 0.061328,-0.00897 0.00885,0.00884 0.023788,0.036919 0.033186,0.062406 0.0094,0.025487 0.033228,0.082826 0.052954,0.127421 0.019727,0.044595 0.036285,0.096222 0.036796,0.1147267 8.996e-4,0.032575 -0.00106,0.034474 -0.061477,0.059689 -0.086367,0.036042 -0.1391174,0.041258 -0.1872188,0.018513 z m 0.00593,-0.1739794 c 0.046812,-0.01099 0.087487,-0.023825 0.09039,-0.028521 0.0029,-0.0047 -0.00153,-0.0217 -0.00985,-0.037785 -0.017183,-0.033229 -0.010351,-0.034963 -0.1224747,0.031094 -0.060432,0.035603 -0.079597,0.055194 -0.053994,0.055194 0.00595,0 0.049113,-0.00899 0.095925,-0.019982 z M 1.8721872,1.7769158 c -0.1007952,-0.00795 -0.122765,-0.02145 -0.165313,-0.1015483 -0.047136,-0.088735 -0.048485,-0.1342773 -0.00543,-0.1833148 0.080837,-0.092068 0.2465038,-0.097785 0.3168155,-0.010934 0.063064,0.077899 0.081149,0.1648438 0.048519,0.233268 -0.017144,0.035951 -0.072813,0.072817 -0.1054014,0.069802 -0.00945,-8.747e-4 -0.049587,-0.00415 -0.089191,-0.00727 z m 0.1208227,-0.139764 c 0.00837,-0.033338 -0.022337,-0.081815 -0.068552,-0.1082333 -0.06773,-0.038717 -0.1094305,-0.00772 -0.055358,0.041148 0.059921,0.054154 0.1042676,0.090394 0.1109156,0.09064 0.00386,1.431e-4 0.00971,-0.010457 0.012994,-0.023555 z M 0.78666097,1.5789184 c -0.0352808,-0.010872 -0.0519087,-0.024308 -0.0853112,-0.068938 -0.022819,-0.030489 -0.052177,-0.078458 -0.06524,-0.1065986 l -0.0237508,-0.051164 0.029467,-0.059247 c 0.0162068,-0.032586 0.0322293,-0.075166 0.0356054,-0.094623 0.003376,-0.019457 0.0142075,-0.042679 0.0240697,-0.051604 0.0170195,-0.015402 0.0229519,-0.013383 0.116661,0.039713 0.0761177,0.043129 0.11896976,0.076156 0.18710343,0.144208 0.048606,0.048547 0.091177,0.099436 0.094603,0.1130866 0.011852,0.047223 -0.021266,0.083987 -0.10661035,0.1183475 -0.0843891,0.033976 -0.13701606,0.03826 -0.20659718,0.016819 z M 0.95656254,1.4777648 c 0.017785,-0.010992 0.0323364,-0.022998 0.0323364,-0.02668 0,-0.012631 -0.12000722,-0.1240194 -0.1606253,-0.1490898 -0.0800109,-0.049384 -0.0963546,-0.016622 -0.0260109,0.052142 0.0240828,0.023542 0.0528781,0.057925 0.0639896,0.076407 0.0221925,0.036913 0.0462602,0.067207 0.0533944,0.067207 0.002519,0 0.0191308,-0.00899 0.0369158,-0.019985 z M 1.3765593,1.1530209 C 1.2600131,1.0807001 1.209721,1.0146593 1.209721,0.93393836 c 0,-0.0200065 -0.0044,-0.0514683 -0.00979,-0.0699153 -0.014107,-0.0483363 0.00947,-0.0965694 0.061079,-0.1249789 0.021955,-0.0120849 0.064914,-0.0455119 0.095465,-0.0742822 0.052261,-0.0492162 0.057655,-0.0519188 0.091209,-0.0456984 0.046577,0.008635 0.11333,0.0452556 0.159363,0.0874274 0.03646,0.0334014 0.036752,0.034246 0.030635,0.0884587 C 1.634282,0.82505416 1.620574,0.89936999 1.607214,0.96009607 1.593853,1.0208222 1.57866,1.089949 1.573452,1.1137115 c -0.011944,0.054491 -0.03404,0.076989 -0.081494,0.08298 -0.032401,0.00409 -0.047859,-0.00176 -0.1153987,-0.043671 z m -0.00467,-0.34008259 0.02295,-0.0379567 -0.042152,0.0250663 c -0.038294,0.0227718 -0.042381,0.0288275 -0.044652,0.0661545 l -0.0025,0.0410882 0.021702,-0.0281979 c 0.011936,-0.0155088 0.03203,-0.0452784 0.044652,-0.0661544 z M 2.2242955,1.0387526 C 2.2146755,1.0281186 2.2036245,0.9960377 2.1997465,0.9674625 2.1914265,0.9061757 2.1633435,0.85687246 2.1163135,0.82100065 c -0.050657,-0.038638 -0.042669,-0.0619558 0.028437,-0.0830103 0.065799,-0.019483 0.1149992,-0.0615153 0.1405484,-0.12007104 0.00954,-0.0218605 0.022424,-0.0428872 0.028635,-0.046726 0.018355,-0.011344 0.1251772,0.0157703 0.144704,0.0367297 0.00983,0.0105556 0.025024,0.0407019 0.033756,0.0669918 0.010542,0.0317398 0.030636,0.0619421 0.059806,0.0898915 l 0.043929,0.0420917 -0.010937,0.0405954 C 2.5581968,0.94770084 2.5543848,0.95182233 2.4418409,1.0024861 2.318978,1.0577952 2.2516817,1.069014 2.2242955,1.0387526 Z M 2.432073,0.82635568 2.455555,0.81742781 2.4278975,0.76259645 C 2.412686,0.7324392 2.40024,0.70189328 2.40024,0.69471663 c 0,-0.0279311 -0.036486,-0.0111863 -0.066406,0.0304761 -0.017191,0.0239385 -0.041686,0.050358 -0.054433,0.05871 -0.025133,0.0164681 -0.030305,0.0373031 -0.011175,0.0450223 0.021139,0.00853 0.1395368,0.006673 0.163847,-0.002569 z M 3.5579283,1.3453846 c -0.00907,-0.014672 -0.062274,-0.032455 -0.078489,-0.026232 -0.012688,0.00487 -0.013407,0.00872 -0.0038,0.020295 0.012462,0.015016 0.091418,0.020713 0.082286,0.00594 z"
       id="path521"
       inkscape:connector-curvature="0" />
    <path
       style="fill:#652904;stroke-width:0.00960096"
       d="m 1.6117311,3.6531306 c -0.1883854,-0.060376 -0.2031119,-0.067768 -0.3012,-0.151184 -0.00528,-0.00449 0.018482,0.0045 0.052805,0.01997 0.034323,0.015474 0.077528,0.031167 0.09601,0.034872 0.018482,0.00371 0.088138,0.032306 0.1547924,0.063558 l 0.121189,0.056821 h 0.1590724 c 0.095692,0 0.1614367,0.00383 0.1650063,0.0096 0.00387,0.00626 -0.050145,0.00937 -0.155449,0.00895 l -0.1613829,-6.53e-4 z m 0.5196821,0.00964 c 0.043835,-0.016881 0.061082,-0.016632 0.024002,3.466e-4 -0.015842,0.00725 -0.035284,0.013055 -0.043204,0.012891 -0.00792,-1.632e-4 7.201e-4,-0.00612 0.019202,-0.013238 z M 2.5250525,3.4634135 c 0,-0.00261 0.015121,-0.029853 0.033603,-0.060545 0.018482,-0.030692 0.033603,-0.060542 0.033603,-0.066333 0,-0.011255 0.1336034,-0.1359972 0.1960016,-0.1830018 0.020672,-0.015572 0.035794,-0.023084 0.033603,-0.016692 -0.012501,0.036479 -0.177877,0.2536119 -0.2084636,0.2737057 -0.077908,0.051181 -0.088348,0.057428 -0.088348,0.052867 z M 1.1377138,3.3940274 C 1.1271527,3.3867088 1.0657489,3.361149 1.0012608,3.3372275 0.87775677,3.2914145 0.75466862,3.2334634 0.74391754,3.2160678 c -0.003524,-0.0057 0.007989,-0.00401 0.0256883,0.00378 0.0771064,0.033918 0.17305149,0.073214 0.25769686,0.1055427 0.050165,0.01916 0.1041705,0.045507 0.120012,0.05855 0.030415,0.025041 0.023087,0.032742 -0.0096,0.010091 z m 0.083116,-0.2624999 c -0.014627,-0.015658 -0.032417,-0.046112 -0.039533,-0.067674 -0.00712,-0.021562 -0.031715,-0.0588 -0.054663,-0.08275 -0.022949,-0.02395 -0.041725,-0.047639 -0.041725,-0.052641 0,-0.012824 0.027171,-0.025325 0.072007,-0.03313 0.021122,-0.00368 0.07211,-0.017207 0.1133069,-0.030067 0.096087,-0.029994 0.1148492,-0.029425 0.1529682,0.00463 0.029748,0.02658 0.031355,0.031457 0.031355,0.095183 0,0.059191 -0.00344,0.072056 -0.028936,0.1083378 -0.034856,0.049594 -0.070912,0.071432 -0.1322303,0.080089 -0.042496,0.006 -0.047956,0.00435 -0.072549,-0.021982 z M 1.4015757,2.9968167 c 0.01269,-0.036086 0.012622,-0.043312 -6.25e-4,-0.066505 -0.011751,-0.020574 -0.02076,-0.025382 -0.04304,-0.022969 -0.041633,0.00451 -0.048276,0.015682 -0.033866,0.05696 0.017493,0.050113 0.038442,0.081067 0.051905,0.076696 0.00626,-0.00203 0.017796,-0.021916 0.025626,-0.044182 z M 0.57125713,3.1100599 c -0.0176371,-0.011297 -0.0228664,-0.018469 -0.0134892,-0.0185 0.008422,-2.78e-5 0.0231335,0.00859 0.0326912,0.019151 0.0211083,0.023324 0.0180672,0.023221 -0.019202,-6.51e-4 z M 2.0446042,3.0843084 c -0.025911,-0.071815 -0.044357,-0.1007611 -0.087268,-0.136944 -0.061124,-0.051541 -0.063488,-0.082248 -0.0091,-0.1182397 0.020705,-0.013702 0.045398,-0.038038 0.054875,-0.054081 0.020275,-0.034324 0.041501,-0.037058 0.066808,-0.00861 0.030574,0.034374 0.108914,0.065648 0.1647044,0.065752 0.045214,8.65e-5 0.050405,0.00223 0.050405,0.020824 0,0.011401 -0.016719,0.042874 -0.037154,0.06994 -0.020435,0.027066 -0.046559,0.067645 -0.058054,0.090177 -0.020179,0.039554 -0.09328,0.097581 -0.1229312,0.097581 -0.00702,0 -0.017046,-0.011881 -0.022285,-0.026403 z M 2.1793867,2.9114912 c -1.92e-5,-0.011714 -0.019646,-0.024819 -0.064806,-0.043278 -0.075874,-0.031012 -0.088778,-0.032337 -0.088778,-0.00911 0,0.011142 0.017783,0.026179 0.050405,0.04262 0.060305,0.030393 0.103225,0.034458 0.1031791,0.00977 z m 0.8113124,0.055206 c 0.00326,-0.00528 0.010254,-0.0096 0.015535,-0.0096 0.00528,0 0.00693,0.00432 0.00367,0.0096 -0.00326,0.00528 -0.010254,0.0096 -0.015535,0.0096 -0.00528,0 -0.00693,-0.00432 -0.00367,-0.0096 z M 3.1551073,2.808583 c 0.072724,-0.076402 0.1339046,-0.1372329 0.1359566,-0.1351809 0.011253,0.011253 -0.1312205,0.1789518 -0.1900408,0.2236876 -0.036451,0.027723 -0.068944,0.050405 -0.072208,0.050405 -0.00326,0 0.053568,-0.06251 0.1262922,-0.1389117 z M 0.44746177,2.8493701 C 0.44406079,2.8323651 0.40488424,2.7427162 0.36040276,2.6501502 0.29770093,2.5196674 0.2726881,2.4548803 0.24909153,2.3618362 L 0.2186557,2.2418242 0.22450987,2.040204 c 0.005678,-0.1955533 0.0111928,-0.2544235 0.0238341,-0.2544272 0.003345,-1e-6 0.004748,0.1094678 0.003118,0.2432641 -0.002875,0.2360529 -0.002214,0.2462301 0.0223166,0.3432361 0.0152697,0.060385 0.0492192,0.1512932 0.0857373,0.2295832 0.0332516,0.071287 0.0657874,0.1447345 0.0723017,0.1632163 0.02786,0.079042 0.0372056,0.1152115 0.0297692,0.1152115 -0.004368,0 -0.0107242,-0.013913 -0.014125,-0.030918 z M 2.8226823,2.7077839 C 2.730307,2.6980709 2.703787,2.6803375 2.6642617,2.6018509 c -0.018479,-0.036695 -0.033599,-0.07588 -0.033599,-0.087078 0,-0.033905 0.038497,-0.07705 0.090254,-0.101149 0.1164194,-0.054209 0.2277151,-0.0078 0.2702212,0.1126728 0.025062,0.071034 0.017141,0.1114587 -0.032211,0.1643722 -0.026095,0.027978 -0.029207,0.028369 -0.1362446,0.017115 z m 0.1158392,-0.097496 c 0.013621,-0.025451 0.00542,-0.06898 -0.019627,-0.1041536 -0.019086,-0.026804 -0.080534,-0.05789 -0.1144324,-0.05789 -0.057946,0 -0.035116,0.07149 0.037001,0.1158645 0.026803,0.016492 0.053136,0.038214 0.058518,0.04827 0.012743,0.02381 0.025036,0.023143 0.03854,-0.00209 z m 0.4129889,-0.022829 c 3.571e-4,-0.00528 0.00865,-0.026883 0.018427,-0.048005 0.012014,-0.025953 0.017988,-0.032179 0.018427,-0.019202 3.571e-4,0.010561 -0.00794,0.032163 -0.018427,0.048005 -0.010491,0.015842 -0.018783,0.024482 -0.018427,0.019202 z M 0.8964199,2.5108039 c -0.003467,-0.00903 -0.003617,-0.057326 -3.3363e-4,-0.1073133 0.007051,-0.1073481 0.0222892,-0.1355305 0.0925216,-0.1711199 0.0494469,-0.025057 0.0973789,-0.078215 0.12056793,-0.1337141 0.00822,-0.019683 0.021145,-0.03445 0.030144,-0.03445 0.00866,0 0.042744,0.015096 0.075736,0.033546 0.041918,0.023442 0.069201,0.047299 0.090582,0.079208 0.028936,0.043185 0.030382,0.049567 0.026648,0.1176691 -0.00542,0.098816 -0.020326,0.1268276 -0.074667,0.1402904 -0.023704,0.00587 -0.074917,0.02216 -0.1138063,0.036194 -0.038889,0.014034 -0.099376,0.029725 -0.1344134,0.034868 -0.0350379,0.00514 -0.0733736,0.012028 -0.0851907,0.0153 -0.0151691,0.0042 -0.0233387,0.00112 -0.0277885,-0.010478 z M 1.1440942,2.4081994 c 0.10059,-0.038267 0.1424345,-0.076363 0.1424345,-0.1296754 0,-0.036735 -0.021145,-0.079904 -0.039139,-0.079904 -0.010201,0 -0.2133028,0.1884939 -0.2185929,0.2028704 -0.00567,0.015403 0.00685,0.037154 0.021386,0.037154 0.00764,0 0.049895,-0.0137 0.093911,-0.030445 z m 2.2414119,0.042446 c 0.00904,-0.037693 0.013234,-0.03896 0.013234,-0.004 0,0.016722 -0.0044,0.030403 -0.00978,0.030403 -0.00581,0 -0.00721,-0.010729 -0.00345,-0.026403 z M 1.842241,2.419433 C 1.814774,2.404918 1.801996,2.388133 1.781249,2.339318 1.765222,2.301608 1.757423,2.269941 1.761219,2.257982 1.764639,2.247211 1.787764,2.212644 1.81261,2.181167 1.837457,2.149689 1.862615,2.115897 1.868518,2.106072 c 0.00911,-0.01516 0.014918,-0.01629 0.038404,-0.00747 0.04201,0.015781 0.1272469,0.079469 0.1848305,0.1381018 0.1104198,0.1124321 0.1068897,0.1248695 -0.05083,0.1790836 -0.080362,0.027623 -0.1508584,0.028916 -0.1986817,0.00364 z M 2.0642716,2.357002 C 2.0946996,2.341267 2.1011316,2.325947 2.0806156,2.318074 2.0737956,2.315454 2.0511166,2.291648 2.0302106,2.265163 1.981673,2.203672 1.9187494,2.1647752 1.8914489,2.179386 c -0.027786,0.014871 -0.023769,0.040572 0.012325,0.078842 0.017373,0.01842 0.037576,0.051639 0.044896,0.07382 0.020345,0.061645 0.037492,0.065346 0.1156017,0.024954 z M 3.414309,2.2970297 c 0.00904,-0.037693 0.013234,-0.03896 0.013234,-0.004 0,0.016722 -0.0044,0.030403 -0.00978,0.030403 -0.00581,0 -0.00721,-0.010729 -0.00345,-0.026403 z m 0.038404,-0.230423 c 0.00904,-0.037693 0.013234,-0.03896 0.013234,-0.004 0,0.016722 -0.0044,0.030403 -0.00978,0.030403 -0.00581,0 -0.00721,-0.010729 -0.00345,-0.026403 z M 2.6126046,2.0305542 c -0.038975,-0.013174 -0.085106,-0.023954 -0.1025134,-0.023954 -0.044293,0 -0.071447,-0.036241 -0.071447,-0.095356 0,-0.03926 0.00443,-0.048954 0.036004,-0.078871 0.04146,-0.03928 0.2383135,-0.1462363 0.2563843,-0.1393018 0.00666,0.00256 0.014917,0.01867 0.018345,0.035808 0.00343,0.017138 0.025992,0.074268 0.050143,0.1269556 0.06056,0.1321168 0.060315,0.1360219 -0.010441,0.1664522 -0.080549,0.034642 -0.096268,0.035378 -0.1764743,0.00827 z M 2.6116849,1.8965914 c 0.086187,-0.018748 0.1149878,-0.030932 0.1149878,-0.048646 0,-0.023134 -0.027821,-0.071769 -0.041051,-0.071761 -0.020102,9.6e-6 -0.1775577,0.095588 -0.1836564,0.1114809 -0.00856,0.022311 0.0033,0.03498 0.026571,0.028375 0.011285,-0.0032 0.048702,-0.011956 0.083149,-0.019449 z m 0.8456178,0.11721 c 5.261e-4,-0.0066 0.00442,-0.022802 0.00864,-0.036004 0.00686,-0.021421 0.00779,-0.020131 0.00864,0.012001 5.261e-4,0.019802 -0.00336,0.036004 -0.00864,0.036004 -0.00528,0 -0.00917,-0.0054 -0.00864,-0.012001 z m 0.015523,-0.081608 c -0.00212,-0.00396 -6.452e-4,-0.018002 0.00328,-0.031203 0.00667,-0.022435 0.00719,-0.021965 0.00809,0.0072 9.227e-4,0.030099 -0.00331,0.039045 -0.011365,0.024002 z m 0.00929,-0.076808 c -0.00229,-0.00396 -6.894e-4,-0.015841 0.00356,-0.026403 0.00674,-0.016763 0.00781,-0.015849 0.0084,0.0072 6.654e-4,0.026047 -0.00383,0.03326 -0.011958,0.019202 z M 0.25038293,1.7625762 c -4.1687e-4,-0.010121 0.001852,-0.015791 0.005043,-0.012601 0.00319,0.00319 0.003531,0.011471 7.5799e-4,0.018402 -0.003065,0.00766 -0.00534,0.00538 -0.005801,-0.0058 z M 1.8817882,1.7572888 C 1.7894129,1.7475759 1.7628929,1.7298424 1.7233676,1.6513558 1.7048884,1.6146609 1.689769,1.5754759 1.689769,1.564278 c 0,-0.033905 0.038497,-0.077049 0.090254,-0.101149 0.1164194,-0.054209 0.2277151,-0.0078 0.2702212,0.1126728 0.025062,0.071035 0.017141,0.1114587 -0.032211,0.1643722 -0.026095,0.027978 -0.029207,0.028369 -0.136245,0.017115 z m 0.1158392,-0.097496 c 0.013621,-0.025451 0.00542,-0.06898 -0.019627,-0.1041537 -0.019086,-0.026804 -0.080534,-0.05789 -0.1144324,-0.05789 -0.057946,0 -0.035116,0.07149 0.037001,0.1158645 0.026803,0.016492 0.053136,0.038214 0.058518,0.04827 0.012743,0.02381 0.025036,0.023143 0.03854,-0.00209 z M 3.4996219,1.628532 c -0.00451,-0.010328 -0.003,-0.037049 0.00353,-0.062537 0.010841,-0.042299 0.00988,-0.047353 -0.019489,-0.1019793 -0.016992,-0.031611 -0.047373,-0.07947 -0.067512,-0.1063521 -0.02014,-0.026883 -0.036618,-0.055766 -0.036618,-0.064185 0,-0.00879 0.014364,-0.020502 0.033744,-0.02751 0.040706,-0.01472 0.03878,-0.02843 -0.00559,-0.039823 -0.018123,-0.00465 -0.039431,-0.013973 -0.047352,-0.020711 -0.00792,-0.00674 -0.034924,-0.024062 -0.060006,-0.038498 -0.025083,-0.014436 -0.045605,-0.030556 -0.045605,-0.035822 0,-0.010905 0.022295,-0.04045 0.072246,-0.09574 0.029589,-0.032751 0.03672,-0.0364413 0.049664,-0.025699 0.024225,0.020105 0.056237,0.076138 0.073731,0.1290586 0.018972,0.057391 0.042283,0.081845 0.1040774,0.1091796 0.048573,0.021486 0.1132232,0.090851 0.1129715,0.121211 -8.65e-5,0.010017 -0.032974,0.053985 -0.073091,0.097705 -0.065739,0.071645 -0.073625,0.08444 -0.079886,0.1296129 -0.00525,0.037878 -0.00887,0.045716 -0.014818,0.032088 z m 0.086337,-0.2747966 c 0,-0.00792 -0.020773,-0.024702 -0.046162,-0.037291 -0.038075,-0.018879 -0.050269,-0.021018 -0.069607,-0.012207 -0.028595,0.013029 -0.029443,0.024299 -0.00376,0.049983 0.015775,0.015775 0.029605,0.019114 0.069607,0.016802 0.03669,-0.00212 0.04992,-0.0067 0.04992,-0.017287 z M 0.77607003,1.5455075 C 0.73284799,1.5226753 0.65273,1.4003088 0.65312504,1.3577301 c 1.4287e-4,-0.015398 0.0131042,-0.058115 0.0288029,-0.094927 0.0156987,-0.036811 0.0285431,-0.072455 0.0285431,-0.079208 0,-0.024927 0.0476863,-0.011095 0.10225902,0.029661 0.0308863,0.023067 0.0691181,0.048677 0.0849597,0.056913 0.0158416,0.00824 0.0653198,0.051898 0.10995164,0.097026 0.076128,0.076976 0.080571,0.083695 0.071807,0.1086154 -0.00732,0.020816 -0.024879,0.033299 -0.0811487,0.057693 -0.0866476,0.037563 -0.16575507,0.041836 -0.22222967,0.012004 z m 0.19093964,-0.06289 C 0.99022191,1.4690142 1.0078833,1.4547969 1.006257,1.4510235 0.99738576,1.4304386 0.84366293,1.2956022 0.8091426,1.2781267 l -0.0405424,-0.020524 -0.016692,0.025475 -0.016692,0.025475 0.0433508,0.039393 c 0.0238429,0.021666 0.0616406,0.066396 0.0839947,0.099399 0.0223542,0.033003 0.0455039,0.060006 0.0514439,0.060006 0.00594,0 0.0297918,-0.01113 0.0530041,-0.024733 z M 0.30790553,1.260126 c -3.7115e-4,-0.027723 0.003646,-0.050405 0.008926,-0.050405 0.0115526,0 0.0115526,0.054724 0,0.081608 -0.00606,0.014102 -0.008431,0.00582 -0.008926,-0.031203 z M 1.3867739,1.1370935 C 1.2605971,1.0613893 1.2289229,1.0079653 1.2289229,0.87085125 v -0.0927832 l 0.040804,-0.0206204 c 0.022442,-0.0113412 0.061141,-0.0395118 0.085997,-0.0626014 0.037057,-0.0344228 0.051749,-0.041943 0.081608,-0.0417701 0.077947,4.5134e-4 0.1756288,0.0748713 0.1756288,0.1338042 0,0.0297659 -0.012608,0.0978082 -0.033876,0.18281663 -0.00727,0.0290429 -0.015439,0.076034 -0.018162,0.10442462 -0.00714,0.074398 -0.024952,0.097195 -0.075961,0.097195 -0.030099,0 -0.056463,-0.00919 -0.098189,-0.034224 z M 1.3271224,0.91449145 c 0.016125,-0.0374149 0.06272,-0.10653279 0.1005838,-0.14920372 0.017761,-0.0200158 0.029687,-0.0406084 0.026502,-0.0457612 -0.00695,-0.0112515 -0.015507,-0.006528 -0.07167,0.0395826 -0.023762,0.0195091 -0.052925,0.0404609 -0.064806,0.0465596 -0.019031,0.009769 -0.021602,0.0184757 -0.021602,0.0731569 0,0.0661591 0.011932,0.0798907 0.030992,0.0356658 z M 2.2389439,1.0253825 c -0.00634,-0.00634 -0.011521,-0.0270905 -0.011521,-0.0461197 0,-0.0453976 -0.040874,-0.12612823 -0.082254,-0.16246017 -0.018127,-0.0159155 -0.032958,-0.0326007 -0.032958,-0.0370782 0,-0.004478 0.024746,-0.0159414 0.054991,-0.0254754 0.063095,-0.0198891 0.1076089,-0.0619399 0.1343087,-0.12687799 0.020873,-0.0507669 0.042726,-0.0537034 0.1122657,-0.0150856 0.039382,0.0218703 0.049104,0.0329384 0.059074,0.0672565 0.00656,0.022593 0.027475,0.0600437 0.046469,0.083224 0.027869,0.0340112 0.034528,0.0501729 0.034499,0.0837344 -3.84e-5,0.0439533 -0.029009,0.10396236 -0.050228,0.10403807 -0.00668,2.401e-5 -0.053186,0.0194462 -0.1033515,0.043161 C 2.3083443,1.0371416 2.2601665,1.0466052 2.2389439,1.0253825 Z M 2.4689935,0.8279762 c 0.00885,-0.008854 0.00789,-0.0153652 -0.00427,-0.0287957 -0.00864,-0.009545 -0.026452,-0.0416533 -0.039586,-0.0713513 -0.013134,-0.0296981 -0.028772,-0.0570203 -0.034752,-0.060716 -0.010388,-0.00642 -0.1533669,0.13342499 -0.1533669,0.15000588 0,0.004185 0.00756,0.0122734 0.016802,0.017974 0.022517,0.0138901 0.2000326,0.008019 0.2151681,-0.007117 z M 0.78727873,0.5847438 C 0.89932188,0.54913877 1.1517062,0.44958566 1.320132,0.37455958 c 0.026403,-0.0117612 0.080952,-0.036042 0.1212204,-0.0539574 0.075794,-0.0337204 0.1299975,-0.0402412 0.2148132,-0.0258424 l 0.038404,0.00652 -0.028803,0.007448 c -0.015842,0.004096 -0.056886,0.0142662 -0.091209,0.0225994 -0.1135156,0.0275597 -0.2888359,0.0998143 -0.3591719,0.14802509 -0.09765,0.0669329 -0.1379667,0.0807571 -0.25528958,0.0875367 -0.0751391,0.004342 -0.12870752,0.0129599 -0.16768405,0.0269764 -0.0315001,0.0113279 -0.0660636,0.0204313 -0.0768077,0.0202296 -0.0107441,-2.0165e-4 0.0215094,-0.0134096 0.0716744,-0.0293512 z M 1.8721872,0.32643265 c 0,-0.005281 0.011881,-0.009297 0.026403,-0.008926 0.023396,5.9795e-4 0.024216,0.001614 0.0072,0.008926 -0.026224,0.0112688 -0.033603,0.0112688 -0.033603,0 z"
       id="path519"
       inkscape:connector-curvature="0" />
  </g>
</svg>
