<?xml version="1.0" encoding="UTF-8" standalone="no"?>
<!-- Created with Inkscape (http://www.inkscape.org/) -->

<svg
   xmlns:dc="http://purl.org/dc/elements/1.1/"
   xmlns:cc="http://creativecommons.org/ns#"
   xmlns:rdf="http://www.w3.org/1999/02/22-rdf-syntax-ns#"
   xmlns:svg="http://www.w3.org/2000/svg"
   xmlns="http://www.w3.org/2000/svg"
   xmlns:sodipodi="http://sodipodi.sourceforge.net/DTD/sodipodi-0.dtd"
   xmlns:inkscape="http://www.inkscape.org/namespaces/inkscape"
   version="1.1"
   id="svg3741"
   width="113.38583"
   height="113.38583"
   viewBox="0 0 113.38583 113.38583"
   sodipodi:docname="8_1.svg"
   inkscape:version="0.92.4 (5da689c313, 2019-01-14)">
  <metadata
     id="metadata3747">
    <rdf:RDF>
      <cc:Work
         rdf:about="">
        <dc:format>image/svg+xml</dc:format>
        <dc:type
           rdf:resource="http://purl.org/dc/dcmitype/StillImage" />
        <dc:title></dc:title>
      </cc:Work>
    </rdf:RDF>
  </metadata>
  <defs
     id="defs3745" />
  <sodipodi:namedview
     pagecolor="#ffffff"
     bordercolor="#666666"
     borderopacity="1"
     objecttolerance="10"
     gridtolerance="10"
     guidetolerance="10"
     inkscape:pageopacity="0"
     inkscape:pageshadow="2"
     inkscape:window-width="1366"
     inkscape:window-height="715"
     id="namedview3743"
     showgrid="false"
     inkscape:zoom="1.9496253"
     inkscape:cx="1.8912875"
     inkscape:cy="1.8899288"
     inkscape:window-x="-8"
     inkscape:window-y="-8"
     inkscape:window-maximized="1"
     inkscape:current-layer="svg3741" />
  <g
     id="g3751"
     transform="matrix(29.97583,0,0,29.996859,-0.00304629,-0.04173081)">
    <path
       style="fill:#fdeb62;stroke-width:0.00960096"
       d="M 1.6369637,3.7685714 C 1.5219559,3.7544229 1.4512666,3.7399895 1.3542355,3.7108439 0.74081942,3.5265894 0.26446623,3.0542656 0.07619367,2.443613 c -0.10145606,-0.3290678 -0.10145606,-0.7753799 0,-1.1044477 0.19997315,-0.64860282 0.73046261,-1.1441605 1.38764123,-1.29626744 0.2391064,-0.05534225 0.6160021,-0.05534225 0.8551085,0 0.6571786,0.15210694 1.1876681,0.64766462 1.3876412,1.29626744 0.1014561,0.3290678 0.1014561,0.7753799 0,1.1044477 C 3.5066115,3.0922158 2.976122,3.5877735 2.3189434,3.7398804 2.1423011,3.7807651 1.8395978,3.7934998 1.6369637,3.7685714 Z M 1.8145815,3.6058693 c 0.023762,-0.00758 0.09505,-0.018303 0.1584158,-0.023822 0.1315659,-0.011458 0.1948031,-0.028214 0.249625,-0.066142 C 2.2612685,3.4891685 2.353203,3.3650658 2.3958807,3.2820234 2.4337499,3.2083377 2.4835881,3.0433347 2.4900998,2.9700852 2.5030589,2.8243126 2.4086741,2.608886 2.298351,2.532432 2.250702,2.4994112 2.1393713,2.4811804 2.0811346,2.4968619 c -0.044598,0.012009 -0.084135,0.00517 -0.084135,-0.014564 0,-0.00747 0.011515,-0.040136 0.025588,-0.072586 0.033817,-0.077975 0.026396,-0.1009724 -0.044111,-0.1366846 -0.066369,-0.033616 -0.088281,-0.033197 -0.1288992,0.00247 -0.024068,0.021132 -0.041476,0.052067 -0.064959,0.1154357 -0.017644,0.047612 -0.040852,0.097569 -0.051573,0.1110142 l -0.019493,0.024447 -0.071797,-0.019896 c -0.09086,-0.025179 -0.1425186,-0.019978 -0.2462038,0.024785 -0.070019,0.030228 -0.082797,0.039951 -0.1221961,0.092974 -0.068235,0.091831 -0.092437,0.1617047 -0.092437,0.2668724 0,0.081826 0.017975,0.2097873 0.040287,0.2867929 0.016295,0.05624 0.1352925,0.2708064 0.1688265,0.3044139 0.034607,0.034682 0.2107981,0.1242869 0.2565333,0.1304634 0.064405,0.0087 0.1271663,0.00611 0.1680162,-0.00693 z M 1.6394631,3.5611624 C 1.5804069,3.5472376 1.4761128,3.4893672 1.4391181,3.4499956 1.3227679,3.32617 1.2408329,3.1317768 1.2316538,2.9577805 1.2256677,2.8443091 1.2387638,2.779242 1.2846529,2.6944575 1.3583614,2.5582743 1.5292194,2.5030615 1.680168,2.5666467 c 0.034323,0.014458 0.066235,0.027216 0.070916,0.02835 0.00468,0.00113 0.024362,-0.043302 0.043737,-0.098747 0.053902,-0.154252 0.072418,-0.1824182 0.1199229,-0.1824182 0.072216,0 0.090475,0.049353 0.04889,0.1321469 -0.013071,0.026024 -0.024952,0.062022 -0.026403,0.079997 -0.00259,0.032132 -0.00194,0.032731 0.038743,0.035661 0.022759,0.00164 0.062475,-0.00403 0.088258,-0.01259 0.037812,-0.012559 0.057118,-0.013677 0.099832,-0.00578 0.132608,0.024514 0.2057428,0.1071826 0.2599328,0.2938181 0.030267,0.104244 -0.00531,0.282246 -0.091909,0.4598583 -0.039101,0.080193 -0.121947,0.1724445 -0.1823532,0.2030547 -0.05622,0.028489 -0.154193,0.043692 -0.2337097,0.036267 -0.048401,-0.00452 -0.065352,-0.00191 -0.096724,0.014907 -0.040779,0.021856 -0.1125981,0.025847 -0.1798371,0.00999 z"
       id="path3765"
       inkscape:connector-curvature="0" />
    <path
       style="fill:#fccd62;stroke-width:0.00960096"
       d="M 1.6369637,3.7685714 C 1.5219559,3.7544229 1.4512666,3.7399895 1.3542355,3.7108439 0.74081942,3.5265894 0.26446623,3.0542656 0.07619367,2.443613 c -0.10145606,-0.3290678 -0.10145606,-0.7753799 0,-1.1044477 0.19997315,-0.64860282 0.73046261,-1.1441605 1.38764123,-1.29626744 0.2391064,-0.05534225 0.6160021,-0.05534225 0.8551085,0 0.6571786,0.15210694 1.1876681,0.64766462 1.3876412,1.29626744 0.1014561,0.3290678 0.1014561,0.7753799 0,1.1044477 C 3.5066115,3.0922158 2.976122,3.5877735 2.3189434,3.7398804 2.1423011,3.7807651 1.8395978,3.7934998 1.6369637,3.7685714 Z M 1.8145815,3.6058693 c 0.023762,-0.00758 0.09505,-0.018303 0.1584158,-0.023822 0.199934,-0.017413 0.2555845,-0.045565 0.3439779,-0.1740132 0.071332,-0.1036549 0.1071734,-0.1741806 0.1409377,-0.2773233 0.064617,-0.1973928 0.042144,-0.3382058 -0.084985,-0.532483 -0.027223,-0.041602 -0.049496,-0.080596 -0.049496,-0.086655 0,-0.00606 -0.029163,-0.055069 -0.064806,-0.1089111 C 2.2229823,2.3488194 2.1774735,2.2798034 2.157495,2.249293 2.1375166,2.2187825 2.0906595,2.1570957 2.0533681,2.1122112 1.9489044,1.9864773 1.8434243,1.8217149 1.8269116,1.7584809 1.8191124,1.7286143 1.7981546,1.671773 1.7803389,1.632167 1.7625231,1.592561 1.7339118,1.5061506 1.7167581,1.440144 l -0.031189,-0.120012 0.00139,-0.2688269 c 7.652e-4,-0.14785475 0.00279,-0.29436412 0.0045,-0.32557634 0.00177,-0.0322264 -0.00104,-0.0580687 -0.00649,-0.0598023 C 1.6727627,0.66204532 1.5633473,0.74307522 1.4557804,0.83565651 1.3859161,0.89578782 1.3564584,0.93124991 1.272333,1.0564962 1.1813374,1.1919707 1.1295198,1.2889066 1.0365133,1.4976479 0.9857037,1.6116837 0.91217211,1.8663224 0.91212377,1.9284072 c -1.824e-5,0.023 -0.006962,0.068365 -0.0154314,0.1008101 -0.012686,0.048599 -0.014573,0.096203 -0.0107114,0.2702127 0.002612,0.1176869 0.00952,0.2261015 0.0156008,0.2448244 0.006002,0.018482 0.0150622,0.062307 0.020133,0.097389 0.0150442,0.1040827 0.0728036,0.2778871 0.15269183,0.4594664 0.050146,0.1139771 0.07546,0.1458976 0.1571713,0.1981832 0.019942,0.012761 0.056666,0.052238 0.081608,0.087727 0.024942,0.035489 0.059861,0.078719 0.077596,0.096068 0.035698,0.034919 0.210584,0.1236037 0.2557826,0.1297077 0.064405,0.0087 0.1271663,0.00611 0.1680168,-0.00693 z M 1.6394631,3.5611624 C 1.5804069,3.5472376 1.4761128,3.4893672 1.4391181,3.4499956 1.3227679,3.32617 1.2408329,3.1317768 1.2316538,2.9577805 1.2256677,2.8443091 1.2387638,2.779242 1.2846529,2.6944575 1.3583614,2.5582743 1.5292194,2.5030615 1.680168,2.5666467 c 0.034323,0.014458 0.066235,0.027216 0.070916,0.02835 0.00468,0.00113 0.024362,-0.043302 0.043737,-0.098747 0.053902,-0.154252 0.072418,-0.1824182 0.1199229,-0.1824182 0.072216,0 0.090475,0.049353 0.04889,0.1321469 -0.013071,0.026024 -0.024952,0.062022 -0.026403,0.079997 -0.00259,0.032132 -0.00194,0.032731 0.038743,0.035661 0.022759,0.00164 0.062475,-0.00403 0.088258,-0.01259 0.037812,-0.012559 0.057118,-0.013677 0.099832,-0.00578 0.132608,0.024514 0.2057428,0.1071826 0.2599328,0.2938181 0.030267,0.104244 -0.00531,0.282246 -0.091909,0.4598583 -0.039101,0.080193 -0.121947,0.1724445 -0.1823532,0.2030547 -0.05622,0.028489 -0.154193,0.043692 -0.2337097,0.036267 -0.048401,-0.00452 -0.065352,-0.00191 -0.096724,0.014907 -0.040779,0.021856 -0.1125981,0.025847 -0.1798371,0.00999 z M 1.1759371,3.1645884 C 1.167244,3.1513209 1.1479228,3.1089285 1.1330011,3.0703829 1.1180794,3.0318374 1.0879398,2.955216 1.0660242,2.9001132 1.0441085,2.8450104 1.0087668,2.7305189 0.98748698,2.6456877 0.95231359,2.5054708 0.94831516,2.4767869 0.94350395,2.3301634 0.93437881,2.0520707 0.96480605,1.8831004 1.0804338,1.569757 1.143919,1.3977163 1.2052017,1.2732782 1.2817282,1.161017 1.4336493,0.93815511 1.489147,0.87305162 1.5588672,0.83590977 c 0.023067,-0.0122885 0.027641,-0.0119943 0.042376,0.002725 0.014323,0.0143068 0.01732,0.0467701 0.022548,0.24419823 0.00624,0.2355116 0.02047,0.3493517 0.055726,0.4456911 0.010232,0.027958 0.023566,0.06992 0.029632,0.093248 0.019047,0.073248 0.1029492,0.2581474 0.1507618,0.3322412 0.025233,0.039103 0.092635,0.1306586 0.1497805,0.2034563 0.1263522,0.1609585 0.1985285,0.2748539 0.1985285,0.3132808 0,0.027918 -3.024e-4,0.028068 -0.044567,0.022 -0.024512,-0.00336 -0.061816,-0.00146 -0.082898,0.00421 -0.044264,0.011919 -0.083757,0.005 -0.083757,-0.014666 0,-0.00747 0.011515,-0.040136 0.025588,-0.072586 C 2.056403,2.3317334 2.048982,2.308736 1.978475,2.2730238 1.912106,2.2394078 1.890194,2.2398268 1.8495758,2.2754938 c -0.024068,0.021132 -0.041476,0.052067 -0.064959,0.1154357 -0.017644,0.047612 -0.040852,0.097569 -0.051573,0.1110142 l -0.019493,0.024447 -0.071797,-0.019896 c -0.09086,-0.025179 -0.1425186,-0.019978 -0.2462038,0.024785 -0.070019,0.030228 -0.082797,0.039951 -0.1221961,0.092974 -0.068925,0.092759 -0.092437,0.1614231 -0.092437,0.2699422 0,0.049782 0.00619,0.1177832 0.01375,0.1511142 0.027529,0.1213303 0.018845,0.1766281 -0.018731,0.1192795 z M 2.6556376,3.0339034 C 2.6645941,3.010141 2.6798844,2.979282 2.689616,2.9653278 2.7108686,2.934853 2.7517553,2.8256672 2.7933658,2.6882688 2.8101573,2.6328233 2.8323806,2.5636964 2.842751,2.5346535 2.8531215,2.5056106 2.8723994,2.39976 2.885591,2.29943 2.9404104,1.8824955 2.8995405,1.4846907 2.7736357,1.209721 2.6939733,1.035742 2.6761318,0.99872279 2.5863658,0.82115414 2.3867497,0.42628792 2.301942,0.26732211 2.2950205,0.27504856 c -0.00403,0.004499 -0.012605,0.0593831 -0.019054,0.12196507 -0.01239,0.12022617 -0.053091,0.27532809 -0.092913,0.35406928 -0.012631,0.0249768 -0.031651,0.0674447 -0.042265,0.0943732 -0.030586,0.0775975 -0.091575,0.15907589 -0.1933916,0.25836229 -0.065523,0.063894 -0.094412,0.098834 -0.094412,0.1141856 0,0.012166 0.00417,0.02068 0.00928,0.01892 0.025232,-0.00871 0.180427,-0.1627181 0.2312681,-0.2295057 0.072588,-0.0953551 0.1453486,-0.25464542 0.1835912,-0.40192307 0.015859,-0.061075 0.032798,-0.11518078 0.037642,-0.120235 0.00555,-0.005795 0.014675,-0.003322 0.024691,0.006694 0.032282,0.0322825 0.2933342,0.53913307 0.3104864,0.60283157 0.00627,0.023274 0.026358,0.07203 0.044647,0.1083465 0.07521,0.1493481 0.1293745,0.3557084 0.139069,0.5298414 0.019495,0.3501684 0.020359,0.4303241 0.00528,0.489649 -0.00806,0.031683 -0.017431,0.085689 -0.020835,0.120012 -0.00648,0.065375 -0.042725,0.1931363 -0.097428,0.3434596 -0.01782,0.048969 -0.032419,0.094333 -0.032443,0.1008101 -1.92e-5,0.00648 -0.019446,0.05282 -0.043161,0.102985 -0.039256,0.08304 -0.043102,0.097659 -0.042948,0.1632163 l 1.7e-4,0.072007 0.018533,-0.024002 c 0.010193,-0.013201 0.025861,-0.043444 0.034817,-0.067207 z M 3.1900299,2.8559884 C 3.3439193,2.7110962 3.3782132,2.6701093 3.4419143,2.5549464 3.4883623,2.4709744 3.5028973,2.4149001 3.5282183,2.2219893 3.5389553,2.1401933 3.5389283,2.0795642 3.528058,1.8517663 3.516715,1.6140853 3.500529,1.4599674 3.488203,1.4722933 c -0.00209,0.00209 -0.018162,0.061601 -0.035711,0.132242 -0.03145,0.1266009 -0.07226,0.2319458 -0.1108463,0.2861354 -0.018869,0.026499 -0.026102,0.067938 -0.013974,0.080065 0.013057,0.013057 0.034583,-0.00841 0.081021,-0.080804 0.026983,-0.042065 0.054017,-0.074829 0.060075,-0.07281 0.02097,0.00699 0.027543,0.079832 0.02273,0.251885 -0.00321,0.1146034 -0.0099,0.1906049 -0.019879,0.2256226 -0.00827,0.029043 -0.015096,0.064773 -0.015159,0.0794 -1.248e-4,0.029136 -0.071766,0.1785129 -0.1184764,0.2470329 -0.016199,0.023762 -0.076122,0.091095 -0.1331629,0.149627 -0.057041,0.058532 -0.1037106,0.1109286 -0.1037106,0.1164361 0,0.00551 -0.00661,0.015503 -0.014697,0.022211 -0.00808,0.00671 -0.032719,0.033723 -0.054746,0.060032 l -0.040049,0.047834 0.030157,-0.015595 c 0.016586,-0.00858 0.092301,-0.074105 0.1682551,-0.1456189 z m -0.2886728,0.045484 c 0.033225,-0.036776 0.1325463,-0.178181 0.1325463,-0.1887077 0,-0.00285 0.019422,-0.048388 0.04316,-0.1012052 C 3.1310188,2.4915083 3.155442,2.405255 3.1734274,2.2712375 3.2029574,2.0511979 3.1855252,1.8724213 3.1139212,1.6609661 3.1005103,1.6213621 3.0788133,1.5565557 3.0657058,1.5169517 2.9904738,1.289641 2.8933782,1.0561056 2.8741026,1.0561056 c -0.016583,0 -0.032218,0.031045 -0.032218,0.063972 0,0.014757 0.01061,0.055005 0.023577,0.08944 0.03377,0.089678 0.081836,0.2866843 0.097261,0.3986435 0.00728,0.052805 0.016115,0.1888989 0.019643,0.3024303 0.0052,0.1673042 0.00324,0.2328015 -0.010371,0.3456345 -0.016451,0.1364304 -0.050224,0.2966133 -0.077243,0.3663619 -0.00748,0.019321 -0.022649,0.071166 -0.033698,0.1152115 -0.011049,0.044046 -0.032844,0.1139353 -0.048432,0.1553106 -0.015589,0.041375 -0.028343,0.081547 -0.028343,0.08927 0,0.018996 0.071397,-0.030343 0.1170785,-0.080908 z M 2.669386,2.5874588 C 2.712264,2.4650877 2.735136,2.3808164 2.741048,2.3234324 2.744588,2.2891084 2.754075,2.2351034 2.762139,2.2034204 2.777364,2.1436024 2.775789,2.0243115 2.756179,1.7521752 2.7413234,1.5459386 2.7235661,1.4730936 2.6379922,1.2673267 2.6171296,1.2171617 2.5937449,1.1566757 2.5860261,1.1329133 2.5540854,1.0345834 2.3674391,0.68166817 2.347376,0.68166817 c -0.0074,0 -0.019286,0.0216829 -0.02764,0.050405 C 2.2752863,0.8849115 2.1370748,1.1020274 2.0126606,1.2144576 l -0.068466,0.061871 v 0.065106 c 0,0.055429 0.00773,0.085598 0.052013,0.2029771 0.05389,0.1428475 0.1136811,0.2517643 0.1995772,0.3635529 0.027483,0.035768 0.069843,0.090955 0.094133,0.1226383 0.1223612,0.1596038 0.2845653,0.4447469 0.3175617,0.5582507 0.019118,0.065763 0.038529,0.065325 0.061907,-0.0014 z M 2.5894355,2.3600002 C 2.4293635,2.0992313 2.3945699,2.0476634 2.2991697,1.929793 2.2079795,1.8171244 2.1261395,1.6774963 2.0714252,1.5412352 2.0300485,1.4381905 2.0212057,1.4058769 2.0212558,1.3579053 l 5.76e-5,-0.058236 0.064967,-0.060773 c 0.059245,-0.055421 0.2004172,-0.24557307 0.2408428,-0.32440425 0.0088,-0.0171617 0.022151,-0.0312031 0.029668,-0.0312031 0.029811,0 0.1132216,0.14421125 0.1686221,0.29153425 0.020125,0.053518 0.056478,0.1460366 0.080784,0.2055978 0.093041,0.2279957 0.1294588,0.6123611 0.08207,0.8662043 -0.02601,0.1393266 -0.021875,0.1293451 -0.054921,0.1325774 -0.023217,0.00227 -0.03349,-0.00222 -0.043914,-0.019202 z M 0.72007201,2.0981277 c 0,-0.015702 -0.0213089,-0.047251 -0.0632251,-0.093609 -0.0347738,-0.038459 -0.0741325,-0.088396 -0.0874638,-0.1109726 l -0.0242387,-0.041048 0.0312771,-0.126969 c 0.0278437,-0.1130311 0.0463658,-0.1631129 0.12868175,-0.3479402 0.0274918,-0.061729 0.1417877,-0.2265013 0.16828171,-0.2426004 0.031467,-0.019121 0.0386945,-0.00645 0.0388532,0.068099 2.0278e-4,0.095232 0.0122352,0.1109008 0.0388903,0.050643 0.0169286,-0.03827 0.0194096,-0.055868 0.0135123,-0.095848 -0.003973,-0.026934 -0.007783,-0.077856 -0.008467,-0.1131596 -6.8378e-4,-0.035304 -0.003995,-0.06694 -0.007357,-0.0703026 -0.009545,-0.009545 -0.10627136,0.0919105 -0.15705113,0.1647295 -0.0252258,0.036174 -0.0573731,0.080893 -0.0714383,0.099375 -0.0952158,0.1251142 -0.25218497,0.5431887 -0.23611201,0.628865 0.009804,0.052259 0.0653371,0.126044 0.1439576,0.1912718 0.0418648,0.034733 0.0796686,0.063152 0.0840084,0.063152 0.00434,0 0.007891,-0.010658 0.007891,-0.023684 z"
       id="path3763"
       inkscape:connector-curvature="0" />
    <path
       style="fill:#faa55a;stroke-width:0.00960096"
       d="M 1.6369637,3.7685714 C 1.5219559,3.7544229 1.4512666,3.7399895 1.3542355,3.7108439 0.74081942,3.5265894 0.26446623,3.0542656 0.07619367,2.443613 c -0.10145606,-0.3290678 -0.10145606,-0.7753799 0,-1.1044477 0.19997315,-0.64860282 0.73046261,-1.1441605 1.38764123,-1.29626744 0.2391064,-0.05534225 0.6160021,-0.05534225 0.8551085,0 0.6571786,0.15210694 1.1876681,0.64766462 1.3876412,1.29626744 0.1014561,0.3290678 0.1014561,0.7753799 0,1.1044477 C 3.5066115,3.0922158 2.976122,3.5877735 2.3189434,3.7398804 2.1423011,3.7807651 1.8395978,3.7934998 1.6369637,3.7685714 Z M 1.8275021,3.6051605 c 0.018957,-0.00792 0.057289,-0.014432 0.085181,-0.014469 0.085184,-1.142e-4 0.2238479,-0.02516 0.2723975,-0.049201 0.025254,-0.012506 0.060843,-0.037859 0.079086,-0.056341 0.059845,-0.060628 0.1956026,-0.2780277 0.2289837,-0.3666897 L 2.5245733,3.0349974 2.5097269,2.9120381 C 2.4836588,2.6961407 2.4246826,2.502822 2.3537921,2.4008983 2.3333404,2.3714933 2.2903561,2.3055548 2.2582718,2.2543682 2.2261874,2.2031817 2.1690472,2.1232537 2.1312935,2.0767505 1.9927945,1.9061539 1.8711673,1.696116 1.8439099,1.5804679 c -0.00608,-0.025792 -0.019485,-0.063424 -0.029792,-0.083626 -0.010306,-0.020202 -0.018739,-0.047161 -0.018739,-0.059909 0,-0.012748 -0.007,-0.042083 -0.015553,-0.065189 -0.023812,-0.06432 -0.031208,-0.49024986 -0.010093,-0.5812506 0.00837,-0.0360916 0.017713,-0.0893835 0.020753,-0.11842639 0.00304,-0.0290429 0.014939,-0.0817742 0.026443,-0.11718074 0.011504,-0.0354065 0.018332,-0.0669596 0.015173,-0.0701179 -0.00316,-0.003158 -0.037556,0.0145422 -0.076439,0.0393346 C 1.4722788,0.70479476 1.3587276,0.79390149 1.2884333,0.8907523 1.2636234,0.92493523 1.2178093,0.98785604 1.1866242,1.0305763 1.07431,1.1844351 0.92230484,1.5273946 0.86272512,1.7613691 0.8200438,1.9289822 0.80708905,2.0442087 0.80708905,2.2562256 c 0,0.3386406 0.0443167,0.5384583 0.19572605,0.8825003 0.049856,0.1132863 0.091493,0.1695959 0.1544628,0.2088934 0.023899,0.014915 0.096241,0.061386 0.1607597,0.1032678 0.1162564,0.075468 0.2678951,0.1535705 0.3141256,0.1617916 0.057391,0.010206 0.1626119,0.00616 0.1953389,-0.00752 z M 1.6394631,3.5611624 C 1.5804069,3.5472376 1.4761128,3.4893672 1.4391181,3.4499956 1.3227679,3.32617 1.2408329,3.1317768 1.2316538,2.9577805 1.2256677,2.8443091 1.2387638,2.779242 1.2846529,2.6944575 1.3583614,2.5582743 1.5292194,2.5030615 1.680168,2.5666467 c 0.034323,0.014458 0.066235,0.027216 0.070916,0.02835 0.00468,0.00113 0.024362,-0.043302 0.043737,-0.098747 0.053902,-0.154252 0.072418,-0.1824182 0.1199229,-0.1824182 0.072216,0 0.090475,0.049353 0.04889,0.1321469 -0.013071,0.026024 -0.024952,0.062022 -0.026403,0.079997 -0.00259,0.032132 -0.00194,0.032731 0.038743,0.035661 0.022759,0.00164 0.062475,-0.00403 0.088258,-0.01259 0.037812,-0.012559 0.057118,-0.013677 0.099832,-0.00578 0.132608,0.024514 0.2057428,0.1071826 0.2599328,0.2938181 0.030267,0.104244 -0.00531,0.282246 -0.091909,0.4598583 -0.039101,0.080193 -0.121947,0.1724445 -0.1823532,0.2030547 -0.05622,0.028489 -0.154193,0.043692 -0.2337097,0.036267 -0.048401,-0.00452 -0.065352,-0.00191 -0.096724,0.014907 -0.040779,0.021856 -0.1125981,0.025847 -0.1798371,0.00999 z M 1.1816294,3.1547725 c -0.00655,-0.0079 -0.024121,-0.045884 -0.039037,-0.084415 C 1.1276761,3.0318258 1.0975408,2.955216 1.0756251,2.9001132 1.0537095,2.8450104 1.0183361,2.7305189 0.99701766,2.6456877 0.96111833,2.5028361 0.95787616,2.4789201 0.9531013,2.3217404 0.94592106,2.0853796 0.96424161,1.9516079 1.0337353,1.7329733 1.116658,1.4720895 1.2108583,1.2689295 1.3158257,1.1245944 c 0.029315,-0.040309 0.070972,-0.099368 0.092572,-0.13124085 0.042702,-0.0630125 0.1003622,-0.119573 0.1459075,-0.14312544 0.015895,-0.00822 0.03075,-0.0149446 0.033012,-0.0149446 0.016248,0 0.025207,0.0818383 0.028901,0.26402639 0.00442,0.2180481 0.017814,0.3252317 0.053379,0.4272428 0.010126,0.029043 0.025607,0.078331 0.034402,0.1095299 0.0088,0.031199 0.035473,0.1003255 0.059283,0.1536154 0.058061,0.1299481 0.1135867,0.2152274 0.2757576,0.4235265 0.089388,0.1148135 0.1595796,0.2290524 0.1595796,0.2597203 0,0.01492 -0.00505,0.016076 -0.062406,0.014286 -0.021122,-6.596e-4 -0.052693,0.00303 -0.070157,0.0082 -0.06527,0.019316 -0.073542,-0.00384 -0.033971,-0.095081 l 0.025485,-0.058764 -0.019187,-0.025878 C 2.0117224,2.2797508 1.9507334,2.2469718 1.9101389,2.2467838 1.8597959,2.2465505 1.8137709,2.2983178 1.7758818,2.3977923 1.7592988,2.4413303 1.7379408,2.4865713 1.7284198,2.49833 L 1.7111088,2.519709 1.6434628,2.502164 C 1.5556838,2.479397 1.4794952,2.487554 1.3872418,2.529595 1.3085668,2.565448 1.2538628,2.624919 1.2083612,2.724063 c -0.02502,0.054515 -0.027443,0.069332 -0.027443,0.1677975 0,0.064845 0.00643,0.1379167 0.016087,0.1828638 0.010914,0.050787 0.012944,0.078004 0.00631,0.084635 -0.00663,0.00663 -0.013605,0.00516 -0.021689,-0.00459 z m 1.4569534,0.039292 C 2.7200334,3.1413736 2.8993394,2.9854464 2.9618962,2.9129067 3.0568916,2.8027517 3.072837,2.7781363 3.1074135,2.6882688 3.1267144,2.6381038 3.1511504,2.579778 3.1617156,2.5586559 3.2092909,2.4635431 3.2451982,2.2464861 3.2449989,2.0552159 3.2448846,1.9456064 3.2414684,1.921883 3.2075826,1.7953795 3.1382685,1.5366149 3.07816,1.3587297 3.0096847,1.209721 2.9817787,1.1489949 2.9559039,1.0885089 2.952185,1.0753075 2.937565,1.0234075 2.857334,0.86373512 2.8475074,0.86698132 c -0.00573,0.001894 -0.013053,0.02902 -0.016265,0.0602802 C 2.8190455,1.0459239 2.7837303,1.1193462 2.7488763,1.0985041 2.7296498,1.087007 2.7336539,1.0944133 2.6117613,0.84488449 2.4798172,0.57477901 2.300481,0.23522352 2.2897689,0.23522352 c -0.00525,0 -0.012721,0.0324032 -0.016609,0.0720072 -0.020033,0.20410337 -0.046056,0.30703315 -0.1225802,0.48484849 -0.05866,0.13630654 -0.095954,0.1890913 -0.2223395,0.31469509 -0.051952,0.05163 -0.094457,0.097494 -0.094457,0.1019203 0,0.02585 0.062164,0.2380003 0.096647,0.3298325 0.076316,0.2032369 0.1464625,0.3248882 0.2793837,0.4845177 0.054651,0.065632 0.2376719,0.3480441 0.2811191,0.4337833 0.042035,0.082951 0.063599,0.1643522 0.082585,0.3117478 0.024383,0.1892868 0.024228,0.3199514 -4.618e-4,0.39014 -0.032458,0.092271 -0.027009,0.09521 0.065527,0.035349 z M 2.5832104,2.3341156 C 2.5291204,2.2280902 2.3953203,2.0310782 2.2988355,1.9153916 2.1830571,1.7765717 2.0379185,1.482222 2.0278006,1.3657169 l -0.00438,-0.050425 0.081473,-0.083989 c 0.076404,-0.078763 0.2181335,-0.27256453 0.2325518,-0.31799234 0.014885,-0.0468988 0.04605,-0.0147467 0.1111999,0.11472364 0.022383,0.044482 0.054913,0.1175998 0.072287,0.1624843 0.017374,0.044884 0.05145,0.1303401 0.075724,0.1899013 0.085773,0.2104657 0.1296958,0.6178052 0.088742,0.823 -0.00843,0.042244 -0.018796,0.09625 -0.023032,0.120012 -0.00668,0.037475 -0.011138,0.043601 -0.033609,0.046194 -0.021816,0.00252 -0.029008,-0.00309 -0.045548,-0.035511 z m 0.4440191,0.6787826 c 0.069282,-0.046834 0.298214,-0.261415 0.346932,-0.3251849 0.059014,-0.077247 0.1216207,-0.2010241 0.1353424,-0.267581 0.039046,-0.1893915 0.044951,-0.2832696 0.034157,-0.5429788 -0.00991,-0.2383192 -0.015751,-0.29897 -0.040206,-0.4171511 -0.013347,-0.064501 -0.019396,-0.055248 -0.046639,0.071351 -0.037073,0.1722783 -0.079039,0.2890258 -0.1248098,0.3472137 -0.022701,0.028859 -0.025568,0.083305 -0.00905,0.1718751 0.023355,0.1252462 -0.044167,0.4710735 -0.1257385,0.6439949 -0.051391,0.1089412 -0.079405,0.1507462 -0.1801142,0.2687784 -0.038284,0.044869 -0.069607,0.08345 -0.069607,0.085735 0,0.011953 0.026334,4.8e-5 0.079735,-0.036052 z M 0.72701442,2.0929194 c 0.005241,-0.1289891 0.0267321,-0.2668477 0.0665023,-0.4265922 0.0433302,-0.174044 0.0816048,-0.2707264 0.13705163,-0.3461952 0.0437343,-0.059527 0.0638576,-0.133439 0.0502164,-0.1844421 -0.006098,-0.022801 -0.0110878,-0.073797 -0.0110878,-0.1133254 0,-0.0562547 -0.003013,-0.0718694 -0.0138681,-0.0718694 -0.0256143,0 -0.13423301,0.1203124 -0.21895524,0.2425275 -0.0462046,0.066652 -0.0840084,0.1243156 -0.0840084,0.1281416 0,0.00383 -0.0233751,0.057004 -0.0519447,0.1181735 -0.0285696,0.06117 -0.0656165,0.1565819 -0.0823266,0.2120274 -0.01671,0.055446 -0.038616,0.1276493 -0.0486799,0.1604528 -0.0179633,0.058552 -0.0179656,0.060396 -1.2318e-4,0.1008101 0.009996,0.022642 0.0282745,0.055313 0.0406186,0.072602 0.0310004,0.043419 0.18180177,0.1666025 0.1997785,0.1631914 0.0107291,-0.00204 0.0152615,-0.016986 0.0168265,-0.055502 z"
       id="path3761"
       inkscape:connector-curvature="0" />
    <path
       style="fill:#f96346;stroke-width:0.00960096"
       d="M 1.6369637,3.7685714 C 1.5219559,3.7544229 1.4512666,3.7399895 1.3542355,3.7108439 0.74081942,3.5265894 0.26446623,3.0542656 0.07619367,2.443613 c -0.10145606,-0.3290678 -0.10145606,-0.7753799 0,-1.1044477 0.19997315,-0.64860282 0.73046261,-1.1441605 1.38764123,-1.29626744 0.2391064,-0.05534225 0.6160021,-0.05534225 0.8551085,0 0.6571786,0.15210694 1.1876681,0.64766462 1.3876412,1.29626744 0.1014561,0.3290678 0.1014561,0.7753799 0,1.1044477 C 3.5066115,3.0922158 2.976122,3.5877735 2.3189434,3.7398804 2.1423011,3.7807651 1.8395978,3.7934998 1.6369637,3.7685714 Z M 1.8304638,3.6147615 c 0.018957,-0.00792 0.056622,-0.014432 0.0837,-0.014469 0.027078,-3.84e-5 0.088352,-0.00594 0.1361657,-0.013124 0.069068,-0.010373 0.1026102,-0.021516 0.1632163,-0.054223 0.086832,-0.04686 0.1449966,-0.095571 0.1272301,-0.1065512 -0.012619,-0.0078 0.034567,-0.085437 0.099347,-0.1634616 0.032655,-0.039331 0.070559,-0.1203403 0.095192,-0.2034433 0.00514,-0.017358 0.00132,-0.078232 -0.010565,-0.1680168 C 2.4954181,2.6698292 2.4408703,2.4885027 2.3773703,2.401557 2.3594867,2.3770703 2.3136309,2.3074876 2.2754687,2.2469286 2.2373066,2.1863697 2.181098,2.1064417 2.1505609,2.0693109 2.0090321,1.8972219 1.9194938,1.7480535 1.8736749,1.608026 1.8581484,1.5605754 1.8389509,1.5066307 1.8310137,1.4881488 1.7936883,1.4012364 1.7772664,1.2638424 1.7766706,1.033489 1.776326,0.90024946 1.7802438,0.82654045 1.7896835,0.78866458 c 0.00743,-0.0298051 0.016321,-0.0801137 0.019761,-0.11179689 0.00344,-0.0316832 0.014644,-0.0824655 0.024898,-0.11284951 0.020506,-0.0607652 0.024361,-0.11277305 0.00836,-0.11277305 -0.00962,0 -0.093934,0.0531136 -0.2873468,0.18102519 -0.1219247,0.0806335 -0.2315494,0.17582809 -0.2792004,0.24244854 -0.023337,0.0326279 -0.068212,0.0943485 -0.099722,0.13715684 -0.065317,0.088739 -0.20323619,0.361926 -0.26225874,0.5194774 -0.0485606,0.129625 -0.0957345,0.3136878 -0.11318996,0.4416442 -0.0169396,0.1241752 -0.0169396,0.4422815 0,0.5664567 0.0264873,0.1941638 0.0780134,0.3653636 0.17753288,0.5898681 0.0702721,0.1585257 0.10965932,0.2081377 0.20240072,0.2549432 0.018482,0.00933 0.053045,0.030786 0.076808,0.047685 0.050351,0.035808 0.237009,0.1407663 0.2928293,0.1646584 0.053322,0.022823 0.094315,0.030168 0.1755259,0.03145 0.042823,6.759e-4 0.083271,-0.00448 0.1043824,-0.013297 z M 1.6394631,3.5611624 C 1.5804069,3.5472376 1.4761128,3.4893672 1.4391181,3.4499956 1.3227679,3.32617 1.2408329,3.1317768 1.2316538,2.9577805 1.2256677,2.8443091 1.2387638,2.779242 1.2846529,2.6944575 1.3583614,2.5582743 1.5292194,2.5030615 1.680168,2.5666467 c 0.034323,0.014458 0.066235,0.027216 0.070916,0.02835 0.00468,0.00113 0.024362,-0.043302 0.043737,-0.098747 0.053902,-0.154252 0.072418,-0.1824182 0.1199229,-0.1824182 0.072216,0 0.090475,0.049353 0.04889,0.1321469 -0.013071,0.026024 -0.024952,0.062022 -0.026403,0.079997 -0.00259,0.032132 -0.00194,0.032731 0.038743,0.035661 0.022759,0.00164 0.062475,-0.00403 0.088258,-0.01259 0.037812,-0.012559 0.057118,-0.013677 0.099832,-0.00578 0.132608,0.024514 0.2057428,0.1071826 0.2599328,0.2938181 0.030267,0.104244 -0.00531,0.282246 -0.091909,0.4598583 -0.039101,0.080193 -0.121947,0.1724445 -0.1823532,0.2030547 -0.05622,0.028489 -0.154193,0.043692 -0.2337097,0.036267 -0.048401,-0.00452 -0.065352,-0.00191 -0.096724,0.014907 -0.040779,0.021856 -0.1125981,0.025847 -0.1798371,0.00999 z M 1.1663453,3.0939708 C 1.1574311,3.0688546 1.1379004,3.020222 1.1229439,2.9858986 1.0729288,2.8711196 1.0558618,2.8189405 1.0114623,2.6450645 0.97109574,2.4869821 0.96691308,2.4596996 0.96240658,2.3250827 0.95363077,2.0629364 0.98590224,1.887568 1.0996357,1.5793579 1.1791649,1.3638391 1.2276887,1.2732493 1.3825383,1.0512025 c 0.0952,-0.13651201 0.1790728,-0.21348093 0.2047232,-0.18787152 0.00765,0.007633 0.013343,0.0848608 0.017622,0.23884122 0.00692,0.2490308 0.015828,0.3245601 0.050472,0.4279244 0.012621,0.037655 0.031722,0.096567 0.042448,0.1309165 0.039255,0.1257129 0.1439796,0.3220624 0.2264907,0.4246505 0.1613081,0.2005582 0.2551238,0.3395432 0.2551238,0.3779577 0,0.00936 -0.012361,0.013496 -0.040804,0.013656 -0.022442,1.258e-4 -0.057291,0.00406 -0.077442,0.00873 -0.04908,0.011392 -0.053464,-0.00309 -0.021847,-0.072144 0.013685,-0.029892 0.024882,-0.061886 0.024882,-0.071097 0,-0.046845 -0.086796,-0.1051349 -0.1571451,-0.1055343 C 1.8519939,2.236919 1.8068882,2.286512 1.7675347,2.3906365 1.7210035,2.5137534 1.723755,2.511542 1.6420215,2.4915122 1.5510556,2.4692199 1.4713532,2.4778939 1.378549,2.5201862 c -0.061187,0.027884 -0.076098,0.040091 -0.1190774,0.097481 -0.078294,0.104547 -0.09102,0.1497535 -0.085251,0.3028507 0.00265,0.070283 0.009,0.1462418 0.014106,0.1687978 0.012889,0.056893 -0.0023,0.06011 -0.021981,0.00466 z M 2.40024,3.3939394 c 0.012402,-0.013201 0.020389,-0.024002 0.017749,-0.024002 -0.00264,0 -0.014948,0.010801 -0.02735,0.024002 -0.012402,0.013201 -0.020389,0.024002 -0.017749,0.024002 0.00264,0 0.014947,-0.010801 0.02735,-0.024002 z M 0.9649084,3.2547063 C 0.9681784,3.2494163 0.9558374,3.2094513 0.9374841,3.1658973 0.9191306,3.1223433 0.9012106,3.0759073 0.8976619,3.0627063 0.89411316,3.049505 0.87707854,2.99982 0.85980716,2.9522952 0.82744823,2.8632548 0.77741824,2.6638092 0.7598604,2.5538554 0.74084746,2.4347892 0.72718706,2.2511514 0.73343524,2.1986199 c 0.003454,-0.029043 0.008325,-0.076568 0.0108235,-0.1056106 0.0156582,-0.1820112 0.0303142,-0.2734635 0.0682373,-0.4257958 0.0448957,-0.1803402 0.0742631,-0.2562602 0.13185819,-0.3408776 0.0192427,-0.028271 0.041931,-0.075289 0.0504184,-0.1044847 0.0148872,-0.05121 0.0147171,-0.054354 -0.004822,-0.089119 -0.0159792,-0.028431 -0.0202536,-0.052477 -0.0202536,-0.1139372 0,-0.0525264 -0.003614,-0.0779007 -0.011095,-0.0779007 -0.019272,0 -0.14474118,0.1368671 -0.21181878,0.2310609 -0.0677408,0.095125 -0.19016371,0.3336813 -0.21370078,0.4164224 -0.007602,0.026722 -0.0248044,0.084719 -0.0382283,0.128882 -0.0134239,0.044163 -0.0244071,0.085758 -0.0244071,0.092434 0,0.019029 -0.0261187,0.035902 -0.0451438,0.029163 -0.009494,-0.00336 -0.0468854,-0.051245 -0.0830914,-0.1064037 -0.0362059,-0.055159 -0.0703097,-0.1002894 -0.0757861,-0.1002894 -0.0306469,0 0.040561,0.3586696 0.13628698,0.6864687 0.0436492,0.1494701 0.0670859,0.210884 0.14289246,0.3744374 0.11791191,0.2543963 0.16107059,0.3201916 0.32276154,0.4920492 0.0748931,0.079602 0.085588,0.087311 0.0965417,0.069587 z m 1.708959,-0.06332 C 2.7457845,3.1455292 2.9058024,3.0043755 2.9750201,2.9257355 3.0610326,2.8280148 3.0952913,2.7732864 3.1336065,2.6723941 3.1519624,2.6240591 3.1752782,2.5678934 3.1854195,2.5475817 3.2287876,2.4607207 3.2645702,2.2340705 3.2639102,2.0504154 3.2635405,1.9474287 3.2594077,1.919166 3.2266216,1.7953795 3.1611301,1.5481113 3.0973996,1.358308 3.0331983,1.2193219 3.0075866,1.1638764 2.9762615,1.090429 2.9635869,1.0561056 2.9278148,0.95923227 2.861625,0.83350884 2.8486487,0.8377873 c -0.017936,0.005914 -0.035258,0.0468079 -0.03554,0.0839049 -3.562e-4,0.0468776 -0.024999,0.1346967 -0.042789,0.1524864 -0.013196,0.013196 -0.016444,0.013245 -0.029247,4.426e-4 C 2.7331519,1.0666999 2.6800271,0.96748424 2.6230182,0.85414199 2.4262522,0.4629413 2.3015399,0.23042304 2.2884838,0.23042304 c -0.00718,0 -0.013098,0.00324 -0.013149,0.007201 C 2.2745968,0.2951547 2.2415462,0.52138752 2.225893,0.57605761 2.2011803,0.66236913 2.1082708,0.88608976 2.08036,0.92649265 2.0384179,0.98720711 1.9765356,1.053795 1.9024374,1.1179451 c -0.042336,0.036652 -0.078813,0.07367 -0.081059,0.082261 -0.00666,0.025449 0.044008,0.2171044 0.088806,0.3359473 0.079857,0.2118491 0.1567635,0.3460494 0.2900296,0.5060931 0.051359,0.061679 0.235786,0.3447385 0.2760991,0.4237587 0.036565,0.071673 0.060018,0.1607255 0.078238,0.2970742 0.025734,0.1925816 0.024813,0.334858 -0.00266,0.4114799 -0.017842,0.049755 -0.019164,0.061471 -0.0084,0.074445 0.013969,0.016832 0.01282,0.01734 0.1303763,-0.057618 z M 2.5732374,2.2922292 C 2.5008069,2.1699762 2.3944606,2.0138723 2.3263266,1.929793 2.2899542,1.8849085 2.2333441,1.805107 2.2005261,1.7524563 2.1260488,1.6329701 2.0411523,1.4252565 2.0405971,1.3611627 2.0402179,1.3173568 2.0427437,1.313199 2.1135076,1.2411507 2.1538245,1.200102 2.2245925,1.110351 2.2707697,1.0417042 c 0.046177,-0.0686469 0.085603,-0.12665733 0.087612,-0.12891211 0.011824,-0.0132688 0.0942,0.14123171 0.1480785,0.27772701 0.019802,0.050165 0.053982,0.1344134 0.075957,0.1872187 0.04341,0.1043135 0.057004,0.1644807 0.08677,0.3840384 0.024215,0.1786173 0.025826,0.3218153 0.0047,0.4176418 -0.00873,0.039604 -0.018273,0.091449 -0.021204,0.1152115 -0.00516,0.041802 -0.016982,0.067207 -0.031287,0.067207 -0.0038,0 -0.025475,-0.031323 -0.048157,-0.069607 z M 2.955078,3.0632206 C 3.0360744,3.0207282 3.1078358,2.9633743 3.2338111,2.8404484 3.3069673,2.7690631 3.37987,2.6915783 3.3958172,2.6682599 3.5371292,2.4616288 3.5703375,2.25929 3.5430586,1.7711148 3.5347666,1.6227242 3.5240923,1.534178 3.5028703,1.4377438 c -0.00976,-0.044345 -0.027323,-0.062767 -0.027323,-0.028658 0,0.037636 -0.05804,0.2709976 -0.084471,0.3396316 -0.015536,0.040343 -0.044263,0.094325 -0.063838,0.1199619 l -0.035591,0.046612 0.00673,0.1216073 c 0.00835,0.1510422 -0.00533,0.2762323 -0.048957,0.4479848 -0.033663,0.1325218 -0.092522,0.2717705 -0.1498648,0.3545499 -0.017394,0.02511 -0.060156,0.078059 -0.095027,0.1176624 -0.065334,0.074203 -0.102378,0.1248125 -0.091356,0.1248125 0.00346,0 0.022317,-0.00841 0.041908,-0.018688 z M 1.0473367,0.70776547 c 0.031632,-0.0242859 0.039657,-0.0591006 0.046694,-0.20255291 0.00392,-0.0798471 0.010409,-0.15273731 0.014428,-0.16197823 0.010268,-0.0236103 -0.00684,-0.0209082 -0.030394,0.0048 -0.044356,0.048413 -0.057416,0.0933212 -0.063918,0.21978494 -0.00757,0.14729998 -0.00277,0.16755377 0.03319,0.1399462 z"
       id="path3759"
       inkscape:connector-curvature="0" />
    <path
       style="fill:#668f9f;stroke-width:0.00960096"
       d="M 1.6369637,3.7685714 C 1.5219559,3.7544229 1.4512666,3.7399895 1.3542355,3.7108439 0.74081942,3.5265894 0.26446623,3.0542656 0.07619367,2.443613 c -0.10145606,-0.3290678 -0.10145606,-0.7753799 0,-1.1044477 0.19997315,-0.64860282 0.73046261,-1.1441605 1.38764123,-1.29626744 0.2391064,-0.05534225 0.6160021,-0.05534225 0.8551085,0 0.6571786,0.15210694 1.1876681,0.64766462 1.3876412,1.29626744 0.1014561,0.3290678 0.1014561,0.7753799 0,1.1044477 C 3.5066115,3.0922158 2.976122,3.5877735 2.3189434,3.7398804 2.1423011,3.7807651 1.8395978,3.7934998 1.6369637,3.7685714 Z M 2.0066007,3.642378 c 0.034954,-0.00806 0.0793,-0.026634 0.1008101,-0.042221 0.062967,-0.045628 0.1695316,-0.1040749 0.220822,-0.1211127 0.026403,-0.00877 0.073927,-0.034194 0.1056106,-0.056496 0.031683,-0.022303 0.092169,-0.061379 0.1344134,-0.086835 0.042244,-0.025457 0.1445594,-0.096218 0.227367,-0.157246 C 2.8784314,3.117439 2.9803236,3.0463522 3.0220509,3.0204967 3.1042029,2.9695929 3.3449547,2.7426378 3.3960324,2.667947 3.5371099,2.4616495 3.570324,2.2590497 3.5430586,1.7711148 3.5347666,1.6227242 3.5240923,1.534178 3.5028703,1.4377438 c -0.00976,-0.044345 -0.027323,-0.062767 -0.027323,-0.028658 0,0.00932 -0.012669,0.073047 -0.028153,0.1416141 -0.032205,0.1426123 -0.076803,0.2651879 -0.1117299,0.3070855 -0.023318,0.027972 -0.024416,0.028265 -0.038074,0.010166 -0.00773,-0.01025 -0.014091,-0.031852 -0.014124,-0.048005 C 3.2833807,1.7768779 3.2320035,1.5881074 3.1814102,1.4449445 3.0684305,1.125248 2.9228046,0.80723194 2.8373864,0.69366937 2.770861,0.60522462 2.7612281,0.6108527 2.7695733,0.73328922 2.7810659,0.90190018 2.7514439,1.0655153 2.7158661,1.0299375 2.7103702,1.0244416 2.6639581,0.93627181 2.6127281,0.83400481 2.4333368,0.47589732 2.3014679,0.23042304 2.2884838,0.23042304 c -0.00718,0 -0.013098,0.00324 -0.013149,0.007201 -7.38e-4,0.0575307 -0.033789,0.28376348 -0.049442,0.33843357 -0.027903,0.097453 -0.1189756,0.31165941 -0.1551154,0.36483648 -0.040547,0.0596623 -0.209276,0.22201811 -0.2271695,0.21858891 -0.012021,-0.0023 -0.015105,-0.0247 -0.017317,-0.1257793 -0.00221,-0.10112588 0.00166,-0.14460561 0.021786,-0.24470671 0.0309,-0.15366766 0.074228,-0.29455801 0.116244,-0.37799038 0.034641,-0.068788 0.040247,-0.0942768 0.020678,-0.0940134 C 1.9306141,0.31772507 1.6339948,0.48428777 1.4737474,0.60407956 1.369509,0.68200223 1.2290033,0.83310883 1.139482,0.96356455 1.0929298,1.0314033 1.0478451,1.1015794 1.039294,1.1195114 1.005947,1.1894404 0.969697,1.1366604 0.969697,1.0181786 c 0,-0.0520604 -0.003621,-0.0772845 -0.011095,-0.0772845 -0.019272,0 -0.14474118,0.1368671 -0.21181878,0.2310609 -0.0677408,0.095125 -0.19016371,0.3336813 -0.21370078,0.4164224 -0.007602,0.026722 -0.0248044,0.084719 -0.0382283,0.128882 -0.0134239,0.044163 -0.0244071,0.085758 -0.0244071,0.092434 0,0.019029 -0.0261187,0.035902 -0.0451438,0.029163 -0.009494,-0.00336 -0.0468854,-0.051245 -0.0830914,-0.1064037 -0.0362059,-0.055159 -0.0703097,-0.1002894 -0.0757861,-0.1002894 -0.0306469,0 0.040561,0.3586696 0.13628698,0.6864687 0.0436492,0.1494701 0.0670859,0.210884 0.14289246,0.3744374 C 0.66320391,2.94679 0.70134058,3.004934 0.87010985,3.1878159 0.98580623,3.313187 1.0591889,3.3769751 1.1943817,3.4696904 1.3553308,3.5800693 1.4495444,3.625063 1.5601431,3.6443677 c 0.047456,0.00828 0.088179,0.016956 0.090496,0.019273 0.00937,0.00937 0.2978438,-0.00786 0.3559616,-0.021263 z M 1.6394631,3.5611624 C 1.5804069,3.5472376 1.4761128,3.4893672 1.4391181,3.4499956 1.3227679,3.32617 1.2408329,3.1317768 1.2316538,2.9577805 1.2256677,2.8443091 1.2387638,2.779242 1.2846529,2.6944575 1.3583614,2.5582743 1.5292194,2.5030615 1.680168,2.5666467 c 0.034323,0.014458 0.066235,0.027216 0.070916,0.02835 0.00468,0.00113 0.024362,-0.043302 0.043737,-0.098747 0.053902,-0.154252 0.072418,-0.1824182 0.1199229,-0.1824182 0.072216,0 0.090475,0.049353 0.04889,0.1321469 -0.013071,0.026024 -0.024952,0.062022 -0.026403,0.079997 -0.00259,0.032132 -0.00194,0.032731 0.038743,0.035661 0.022759,0.00164 0.062475,-0.00403 0.088258,-0.01259 0.037812,-0.012559 0.057118,-0.013677 0.099832,-0.00578 0.132608,0.024514 0.2057428,0.1071826 0.2599328,0.2938181 0.030267,0.104244 -0.00531,0.282246 -0.091909,0.4598583 -0.039101,0.080193 -0.121947,0.1724445 -0.1823532,0.2030547 -0.05622,0.028489 -0.154193,0.043692 -0.2337097,0.036267 -0.048401,-0.00452 -0.065352,-0.00191 -0.096724,0.014907 -0.040779,0.021856 -0.1125981,0.025847 -0.1798371,0.00999 z M 1.0475954,0.70988729 c 0.030905,-0.0165398 0.039364,-0.0537576 0.046782,-0.20583688 0.00386,-0.0792079 0.010257,-0.15157516 0.014207,-0.16081608 0.00482,-0.0112837 0.0029,-0.0167801 -0.00585,-0.0167361 -0.014096,7.105e-5 -0.053969,0.0536595 -0.07257,0.097531 -0.01284,0.0302854 -0.028109,0.25684753 -0.018923,0.28078604 0.00691,0.0180027 0.011097,0.0185873 0.036351,0.005072 z"
       id="path3757"
       inkscape:connector-curvature="0" />
    <path
       style="fill:#054761;stroke-width:0.00960096"
       d="M 1.7473747,3.773054 C 1.6790947,3.7642302 1.6652809,3.7618359 1.5169517,3.7331157 1.1226413,3.6567673 0.73803249,3.4328566 0.47301103,3.1253568 0.25546272,2.8729392 0.10384052,2.5610137 0.04793531,2.2508676 0.03656852,2.1878079 0.02250336,2.1210921 0.0166794,2.1026103 0.0027169,2.0583015 0.0027169,1.7244768 0.0166794,1.680168 0.02250336,1.6616862 0.03656852,1.5949704 0.04793531,1.5319107 0.10384052,1.2217646 0.25546272,0.9098391 0.47301103,0.65742152 0.74256746,0.34465983 1.1322528,0.12031303 1.5319107,0.0477995 1.5949704,0.03635801 1.6638464,0.02203241 1.6849685,0.01596484 c 0.050668,-0.01455488 0.3621737,-0.01455488 0.4128413,0 0.021122,0.0060676 0.089998,0.02039317 0.1530578,0.03183466 0.3996579,0.07251353 0.7893433,0.29686033 1.0588997,0.60962202 0.2175483,0.25241758 0.3691705,0.56434308 0.4250757,0.87448918 0.011367,0.06306 0.025432,0.1297755 0.031256,0.1482573 0.013963,0.044309 0.013963,0.3781335 0,0.4224423 C 3.760279,2.1210923 3.74621,2.1878083 3.734843,2.2508676 3.6789378,2.5610137 3.5273156,2.8729392 3.3097673,3.1253568 3.0401359,3.4382055 2.6496561,3.6629596 2.2508676,3.734843 2.1878076,3.74621 2.1232523,3.759373 2.1074108,3.764094 2.0659508,3.776451 1.8208576,3.78255 1.7473747,3.773054 Z M 1.9921992,3.6516133 c 0.036964,-0.00813 0.090969,-0.028824 0.120012,-0.04598 0.056435,-0.033338 0.088126,-0.050073 0.2016202,-0.106472 0.039604,-0.01968 0.1044104,-0.058198 0.1440144,-0.085594 C 2.4974498,3.38617 2.5495433,3.3524897 2.5736094,3.3387214 2.5976753,3.3249531 2.6776033,3.2694341 2.7512271,3.2153458 2.8248509,3.1612576 2.9131713,3.1009545 2.9474948,3.081339 3.0650146,3.0141775 3.1156649,2.9744245 3.247717,2.8457087 3.3818737,2.7149416 3.4153524,2.6717901 3.4802013,2.5460546 c 0.038158,-0.073985 0.053578,-0.1370509 0.077905,-0.3186318 0.027262,-0.203478 -0.00929,-0.7332648 -0.058766,-0.8516674 -0.016117,-0.038572 -0.033394,-0.033845 -0.033394,0.00914 0,0.016513 -0.00616,0.056222 -0.013689,0.088242 -0.00753,0.032021 -0.021098,0.090622 -0.030153,0.1302263 -0.017293,0.075633 -0.062999,0.200939 -0.086674,0.2376238 -0.020501,0.031767 -0.042302,0.027715 -0.042302,-0.00786 0,-0.1150331 -0.1754141,-0.6114326 -0.3265134,-0.92399057 C 2.9022476,0.77598274 2.8208319,0.64893759 2.7881524,0.63064922 2.7608161,0.61535107 2.7558771,0.64255348 2.7614568,0.77767777 2.7668198,0.90755395 2.7539333,1.0113391 2.7314732,1.0191594 2.7261926,1.020998 2.6784988,0.93609361 2.6254869,0.83048305 2.441975,0.4648899 2.3105218,0.21972647 2.2929716,0.21033383 2.2678636,0.19689648 2.2602281,0.22220322 2.2478035,0.36003601 2.2420915,0.42340234 2.227152,0.51454041 2.2146045,0.56256502 2.1876502,0.66573131 2.1026127,0.87007686 2.0611599,0.93129313 2.0307079,0.97626374 1.8561049,1.1521152 1.8419054,1.1521152 c -0.013798,0 -0.00937,-0.26424497 0.00552,-0.32925996 0.0075,-0.0327684 0.018829,-0.0855015 0.025168,-0.11718467 0.015694,-0.0784457 0.062687,-0.22946672 0.079789,-0.25641652 0.00768,-0.0121062 0.023725,-0.0450857 0.03565,-0.0732876 0.027148,-0.0642032 0.016984,-0.0737631 -0.05287,-0.0497299 -0.070031,0.0240946 -0.115901,0.0487566 -0.2741548,0.14740043 C 1.3812387,0.6480244 1.2777463,0.74670117 1.1105303,0.99849986 0.99964515,1.1654739 1.0131204,1.150564 0.99808049,1.1229216 0.99037658,1.1087623 0.98500647,1.0666402 0.98466602,1.0177018 0.98412357,0.93976 0.98309425,0.93595137 0.96174623,0.93292733 0.94454837,0.93049119 0.92351584,0.94613592 0.8705371,1.0007719 0.69171945,1.1851831 0.53742275,1.4798258 0.46091859,1.782973 0.44406039,1.8497735 0.43328181,1.8470253 0.37778414,1.7617762 0.3176185,1.6693567 0.26772618,1.6033603 0.25802398,1.6033603 c -0.0328577,0 -0.0179979,0.1088008 0.0642527,0.4704471 0.0150218,0.066049 0.0655983,0.2415413 0.1065285,0.369637 0.0536333,0.167851 0.2034751,0.4710755 0.29088487,0.5886433 0.10226515,0.1375486 0.30533635,0.3300919 0.45658595,0.4329148 0.1732602,0.1177862 0.2806869,0.1686523 0.3981747,0.1885341 0.050106,0.00848 0.092619,0.016933 0.094472,0.018786 0.00872,0.00872 0.2637594,-0.00761 0.3232765,-0.020709 z M 1.6513651,3.5490721 C 1.5084671,3.5159339 1.4130483,3.4306036 1.3275864,3.259526 1.264063,3.1323649 1.2544244,3.0897997 1.2536433,2.932983 L 1.2529251,2.7888582 1.2844811,2.7246675 C 1.358062,2.5749901 1.5078638,2.5179114 1.6677299,2.578639 1.7751658,2.61945 1.773336,2.619559 1.785614,2.571659 1.80448,2.498052 1.846095,2.3894468 1.867341,2.358376 1.883787,2.334324 1.894166,2.328529 1.918737,2.329682 c 0.034838,0.00163 0.059061,0.017867 0.059061,0.039578 0,0.00807 -0.011544,0.038264 -0.025653,0.067102 -0.014313,0.029254 -0.025984,0.069966 -0.026403,0.092095 -7.134e-4,0.037754 9.13e-4,0.040076 0.033823,0.048277 0.025745,0.00642 0.048439,0.00425 0.088878,-0.00847 0.1378861,-0.04337 0.2583177,0.017362 0.3230604,0.1629174 0.047451,0.1066797 0.059769,0.1692294 0.048822,0.247928 -0.019487,0.1401072 -0.091909,0.3209522 -0.166125,0.4148295 -0.077778,0.098383 -0.1674662,0.1352142 -0.309477,0.1270887 -0.073139,-0.00418 -0.092648,-0.00206 -0.1229112,0.013356 -0.048118,0.024519 -0.106399,0.029541 -0.1704471,0.014689 z M 1.0873336,0.68166817 c 0.00555,-0.0132013 0.013562,-0.0888089 0.017801,-0.1680168 0.00424,-0.0792079 0.010554,-0.15805581 0.014032,-0.17521752 0.00516,-0.0254656 0.00332,-0.0312031 -0.010028,-0.0312031 -0.022471,0 -0.049049,0.0326151 -0.082151,0.10081009 -0.026256,0.0540909 -0.0280867,0.0656159 -0.0300096,0.18888525 -0.002457,0.15750105 0.005858,0.17918086 0.0519777,0.13552037 0.015556,-0.0147267 0.032826,-0.0375769 0.038378,-0.0507783 z"
       id="path3755"
       inkscape:connector-curvature="0" />
    <path
       style="fill:#030303;stroke-width:0.00960096"
       d="M 1.6490641,3.5419605 C 1.5814938,3.5260282 1.482906,3.4688154 1.4391713,3.4201549 1.3922202,3.3679157 1.3100203,3.2161963 1.2767199,3.120312 1.2588449,3.068843 1.2548605,3.0359674 1.2539858,2.9327289 l -0.00106,-0.125177 0.036272,-0.073524 c 0.043774,-0.088732 0.094652,-0.1360308 0.1698313,-0.1578862 0.080324,-0.023351 0.1393245,-0.020365 0.2115387,0.010703 0.09359,0.040265 0.1065059,0.038659 0.1203454,-0.014964 0.017359,-0.067259 0.06269,-0.1827567 0.083382,-0.2124444 0.019304,-0.027697 0.044183,-0.033134 0.075331,-0.016464 0.024676,0.013206 0.023415,0.038746 -0.00465,0.094121 -0.03025,0.059695 -0.040203,0.1125902 -0.024701,0.1312691 0.015801,0.019039 0.1048023,0.018867 0.1506562,-2.919e-4 0.027544,-0.011509 0.045636,-0.012607 0.085698,-0.0052 0.126292,0.023346 0.1895174,0.092167 0.2431005,0.2646137 0.026217,0.084373 0.020714,0.1617148 -0.020836,0.2928293 -0.06074,0.1916735 -0.1386165,0.3085977 -0.2418038,0.3630443 -0.044946,0.023716 -0.058559,0.025901 -0.1688979,0.027118 -0.099705,0.0011 -0.1273224,0.00472 -0.1632163,0.021391 -0.045297,0.02104 -0.095666,0.024301 -0.1559164,0.010095 z"
       id="path3753"
       inkscape:connector-curvature="0" />
  </g>
</svg>
