<?xml version="1.0" encoding="UTF-8" standalone="no"?>
<!-- Created with Inkscape (http://www.inkscape.org/) -->

<svg
   xmlns:dc="http://purl.org/dc/elements/1.1/"
   xmlns:cc="http://creativecommons.org/ns#"
   xmlns:rdf="http://www.w3.org/1999/02/22-rdf-syntax-ns#"
   xmlns:svg="http://www.w3.org/2000/svg"
   xmlns="http://www.w3.org/2000/svg"
   xmlns:sodipodi="http://sodipodi.sourceforge.net/DTD/sodipodi-0.dtd"
   xmlns:inkscape="http://www.inkscape.org/namespaces/inkscape"
   version="1.1"
   id="svg3797"
   width="113.38583"
   height="113.38583"
   viewBox="0 0 113.38583 113.38583"
   sodipodi:docname="9_1.svg"
   inkscape:version="0.92.4 (5da689c313, 2019-01-14)">
  <metadata
     id="metadata3803">
    <rdf:RDF>
      <cc:Work
         rdf:about="">
        <dc:format>image/svg+xml</dc:format>
        <dc:type
           rdf:resource="http://purl.org/dc/dcmitype/StillImage" />
        <dc:title></dc:title>
      </cc:Work>
    </rdf:RDF>
  </metadata>
  <defs
     id="defs3801" />
  <sodipodi:namedview
     pagecolor="#ffffff"
     bordercolor="#666666"
     borderopacity="1"
     objecttolerance="10"
     gridtolerance="10"
     guidetolerance="10"
     inkscape:pageopacity="0"
     inkscape:pageshadow="2"
     inkscape:window-width="1366"
     inkscape:window-height="715"
     id="namedview3799"
     showgrid="false"
     inkscape:zoom="1.9496253"
     inkscape:cx="1.8911289"
     inkscape:cy="1.8895923"
     inkscape:window-x="-8"
     inkscape:window-y="-8"
     inkscape:window-maximized="1"
     inkscape:current-layer="svg3797" />
  <g
     id="g3807"
     transform="matrix(29.978345,0,0,29.990201,-0.00780276,-0.00655538)">
    <path
       style="fill:#fde645;stroke-width:0.00960096"
       d="M 1.6391298,3.76788 C 1.2394336,3.7193487 0.84605735,3.5250599 0.55188784,3.2308904 0.13676525,2.8157679 -0.0559991,2.2484655 0.01452971,1.6494542 0.11406771,0.80406365 0.80406365,0.11406771 1.6494542,0.01452971 2.2490719,-0.0560705 2.8153476,0.13634501 3.2308904,0.55188784 3.646013,0.96701043 3.8387774,1.5343128 3.7682486,2.1333241 3.6687105,2.9787147 2.9787147,3.6687105 2.1333241,3.7682486 1.9879734,3.7853625 1.7818467,3.7852088 1.6391298,3.7678799 Z"
       id="path3821"
       inkscape:connector-curvature="0" />
    <path
       style="fill:#fad62a;stroke-width:0.00960096"
       d="M 1.6391298,3.76788 C 1.2394336,3.7193487 0.84605735,3.5250599 0.55188784,3.2308904 0.13676525,2.8157679 -0.0559991,2.2484655 0.01452971,1.6494542 0.11406771,0.80406365 0.80406365,0.11406771 1.6494542,0.01452971 2.2490719,-0.0560705 2.8153476,0.13634501 3.2308904,0.55188784 3.646013,0.96701043 3.8387774,1.5343128 3.7682486,2.1333241 3.6687105,2.9787147 2.9787147,3.6687105 2.1333241,3.7682486 1.9879734,3.7853625 1.7818467,3.7852088 1.6391298,3.7678799 Z M 1.8604134,3.5307245 c 0.045811,-0.081173 0.06938,-0.1901212 0.06938,-0.3207182 0,-0.092531 -0.00337,-0.1194042 -0.019059,-0.151805 -0.027475,-0.056756 -0.038547,-0.1276249 -0.038547,-0.2467317 0,-0.1171763 -0.00375,-0.1234446 -0.064555,-0.1078333 -0.031218,0.00802 -0.036194,0.014834 -0.06935,0.095044 -0.019645,0.047525 -0.054393,0.1425742 -0.077217,0.2112211 -0.027759,0.083489 -0.050337,0.1343486 -0.068194,0.1536154 -0.023299,0.025137 -0.027512,0.03919 -0.0331,0.110411 -0.00671,0.08552 0.00597,0.1857366 0.029107,0.2300153 0.022487,0.043037 0.1036486,0.072728 0.2079841,0.076086 0.032716,0.00105 0.037011,-0.00228 0.06355,-0.049304 z m 0.3689709,-0.00303 c 0.083249,-0.02774 0.108431,-0.040662 0.1323666,-0.067923 0.028969,-0.032994 0.029443,-0.035136 0.02372,-0.1073572 C 2.3822599,3.3118889 2.3718854,3.2506451 2.3624169,3.2163217 2.3140919,3.0411444 2.2993389,2.9971321 2.2771336,2.9618962 2.2465383,2.9133472 2.1411191,2.6966958 2.141059,2.6822437 2.1409429,2.6543047 2.113966,2.6479923 2.0607697,2.663457 c -0.028778,0.00837 -0.061125,0.015211 -0.071882,0.015211 -0.010757,0 -0.022275,0.0044 -0.025595,0.00977 -0.00332,0.00537 0.00156,0.087775 0.010843,0.1831148 0.016014,0.1644561 0.016027,0.174929 2.564e-4,0.2042144 -0.014758,0.027404 -0.015577,0.043798 -0.00729,0.1460798 0.00962,0.1188005 0.028043,0.184232 0.081663,0.2900454 0.031424,0.062012 0.039769,0.062743 0.1806232,0.015808 z M 1.4103304,3.439544 c 0.040952,-0.040228 0.097655,-0.1460265 0.1202814,-0.2244244 0.00819,-0.028382 0.015362,-0.088327 0.015935,-0.1332114 8.679e-4,-0.067953 0.00922,-0.1095252 0.049912,-0.2484505 0.05466,-0.18661 0.054937,-0.1838463 -0.019834,-0.1978734 -0.019432,-0.00365 -0.05242,-0.014885 -0.073308,-0.024977 -0.020887,-0.010092 -0.04346,-0.018349 -0.050161,-0.018349 -0.013443,0 -0.089816,0.092658 -0.1622267,0.1968197 -0.025697,0.036964 -0.080257,0.1017702 -0.1212466,0.1440144 -0.1419388,0.1462848 -0.21819733,0.271956 -0.20785832,0.3425426 0.004412,0.030124 0.12418002,0.093953 0.17666732,0.094152 0.030692,1.171e-4 0.041706,0.00483 0.050833,0.021751 0.011594,0.021497 0.1330653,0.082062 0.1671825,0.083357 0.00944,3.581e-4 0.033666,-0.01555 0.053824,-0.035352 z m 1.2971404,-0.1200815 0.110411,-0.059937 -0.0022,-0.067207 C 2.8144694,3.1553556 2.8073381,3.109991 2.799833,3.0915092 2.7923278,3.0730273 2.7793129,3.0384639 2.770911,3.0147015 2.7487921,2.9521446 2.6525144,2.8220917 2.5505767,2.7170717 2.501884,2.6669067 2.4440406,2.6042604 2.4220359,2.5778578 L 2.3820274,2.529853 2.3455292,2.551839 c -0.020074,0.012092 -0.058822,0.032767 -0.086108,0.045944 l -0.049609,0.023958 0.052009,0.1039818 c 0.028605,0.05719 0.05201,0.1100813 0.05201,0.1175363 0,0.00745 0.00568,0.022077 0.012628,0.032492 0.021593,0.032383 0.03698,0.098798 0.027173,0.1172908 -0.00636,0.011986 2.88e-5,0.043219 0.022108,0.1080678 0.044816,0.1316555 0.064946,0.1714161 0.1154395,0.2280228 0.060075,0.067348 0.0757,0.066649 0.2162911,-0.00967 z M 0.92025467,3.0691725 C 0.99795279,3.0303436 1.0864614,2.9505168 1.1119592,2.8962723 1.1228558,2.8730909 1.1719921,2.8055826 1.2211511,2.7462539 1.3728413,2.563183 1.3912718,2.5397749 1.3917125,2.5296278 c 2.352e-4,-0.0054 -0.034049,-0.0441 -0.076187,-0.085991 l -0.076614,-0.076164 -0.031305,0.028385 c -0.017218,0.015612 -0.032775,0.03159 -0.034572,0.035508 -0.0018,0.00392 -0.057181,0.056843 -0.1230758,0.1176117 -0.0943388,0.086999 -0.12562114,0.1104881 -0.14714809,0.1104881 -0.0381547,0 -0.14871814,0.074944 -0.19373087,0.1313175 -0.0660527,0.082724 -0.11382071,0.1591903 -0.11382071,0.1822022 0,0.012383 0.003338,0.022514 0.007418,0.022514 0.00408,0 0.0155186,0.015042 0.0254197,0.033428 0.0243049,0.045131 0.0585401,0.066439 0.11597748,0.072183 0.0745867,0.00746 0.11030292,9.841e-4 0.17618046,-0.031938 z m 2.22578113,0.00342 c 0.092577,-0.063143 0.095173,-0.065787 0.083268,-0.084849 -0.0058,-0.00928 -0.013362,-0.029698 -0.016809,-0.045366 C 3.1948215,2.8620553 2.9148304,2.5885385 2.8209412,2.559879 2.7981364,2.552918 2.7287049,2.5140129 2.6666489,2.4734232 2.604593,2.4328335 2.5473057,2.397124 2.5393439,2.3940688 c -0.015102,-0.0058 -0.091099,0.064202 -0.091099,0.083908 0,0.017397 0.038319,0.065943 0.1318869,0.1670877 0.072022,0.077853 0.088829,0.101618 0.088877,0.1256667 5.76e-5,0.028797 0.00773,0.041609 0.088305,0.1474311 0.064734,0.085018 0.1947886,0.1713159 0.2765899,0.1835314 0.023762,0.00355 0.046139,0.00703 0.049726,0.00773 0.00359,7.057e-4 0.03167,-0.015869 0.062406,-0.036833 z M 3.3958665,2.7914792 c 0.010822,-0.011881 0.024851,-0.031627 0.031176,-0.04388 0.00914,-0.017713 0.018137,-0.021706 0.043889,-0.019487 0.043022,0.00371 0.046912,-0.00234 0.029033,-0.045134 -0.017473,-0.041818 -0.01215,-0.092665 0.013535,-0.1293086 0.030113,-0.04296 0.031457,-0.061605 0.00615,-0.085376 -0.0128,-0.012028 -0.02615,-0.033321 -0.029662,-0.047318 C 3.486474,2.406979 3.4687702,2.3774295 3.4506449,2.35531 3.4086953,2.3041161 3.2205431,2.2096573 3.1011101,2.1798318 c -0.044885,-0.011209 -0.091455,-0.024493 -0.1034896,-0.02952 -0.013714,-0.00573 -0.045381,-0.00581 -0.084842,-2.237e-4 -0.051667,0.00732 -0.075297,0.00565 -0.131734,-0.00931 -0.037825,-0.010025 -0.077414,-0.020517 -0.087975,-0.023315 -0.015373,-0.00407 -0.026479,0.00663 -0.055693,0.053673 -0.02007,0.032318 -0.03904,0.072245 -0.042156,0.088728 -0.00312,0.016482 -0.00935,0.037192 -0.013853,0.046023 -0.00636,0.01247 -1.603e-4,0.021006 0.027755,0.038216 0.087883,0.054183 0.2321678,0.1639534 0.2374727,0.1806676 0.0032,0.010096 0.02766,0.034043 0.054347,0.053215 0.026686,0.019172 0.072816,0.054648 0.1025112,0.078835 0.086192,0.070205 0.2709998,0.1527309 0.3480092,0.1554043 0.01426,4.954e-4 0.033058,-0.00829 0.044405,-0.020744 z M 0.67686769,2.7212288 C 0.78299486,2.6784835 0.85327984,2.6335646 0.93714069,2.554889 0.97996079,2.5147166 1.0584774,2.4472847 1.111622,2.4050405 1.164767,2.3627965 1.20858,2.3235015 1.208985,2.3177195 1.2093901,2.3119395 1.201815,2.3000535 1.192158,2.2913125 1.182498,2.2825725 1.164307,2.2527385 1.151733,2.2250175 1.139159,2.1972975 1.128216,2.1734125 1.127415,2.1719395 c -8.007e-4,-0.00147 -0.074419,0.026212 -0.16359553,0.061521 -0.13895173,0.055017 -0.17037712,0.064103 -0.21974476,0.063531 -0.0817991,-9.476e-4 -0.18634097,0.0355 -0.29052876,0.1012907 -0.0909577,0.057436 -0.17522603,0.1291503 -0.17496783,0.1489012 3.8356e-4,0.029338 0.0270227,0.1211107 0.0409109,0.1409388 0.00852,0.012164 0.0384098,0.032096 0.0664226,0.044294 0.0730958,0.03183 0.1958732,0.027109 0.29095607,-0.011187 z m -0.070544,-0.4461706 c 0.0635533,-0.016045 0.12486675,-0.03524 0.13625208,-0.042655 0.0113853,-0.00742 0.0768662,-0.033618 0.14551309,-0.058228 0.21314554,-0.076413 0.22084734,-0.079569 0.21986194,-0.090104 -5.28e-4,-0.00565 -0.00161,-0.040028 -0.0024,-0.076407 -0.00103,-0.04732 -0.00627,-0.072113 -0.018426,-0.08712 -0.016903,-0.020874 -0.017406,-0.020903 -0.10321028,-0.00589 -0.12474092,0.021819 -0.19074095,0.020076 -0.22596585,-0.00597 -0.0265325,-0.019616 -0.0375141,-0.02092 -0.15520393,-0.018426 -0.0859355,0.00182 -0.13512174,0.00706 -0.15299993,0.016309 -0.0144918,0.00749 -0.0343526,0.013625 -0.0441351,0.013625 -0.009782,0 -0.052954,0.017007 -0.0959367,0.037793 -0.0740409,0.035805 -0.0784706,0.039718 -0.0842411,0.074407 -0.00335,0.020138 -0.010078,0.049141 -0.0149512,0.06445 -0.0171127,0.05376 -0.0111678,0.090322 0.0175423,0.1078879 0.0145215,0.00888 0.0350435,0.025807 0.0456046,0.037605 0.0619386,0.069192 0.15283232,0.078132 0.33269608,0.032723 z M 3.4935773,2.1488159 C 3.598275,2.0731535 3.5980085,2.0417034 3.4919131,1.9524431 3.4324312,1.9023996 3.4102901,1.890238 3.3454811,1.8720109 3.2644722,1.8492276 3.2800979,1.849768 2.8658866,1.8554254 l -0.1728173,0.00236 0.00273,0.024002 c 0.0015,0.013201 0.00256,0.055326 0.00235,0.093609 -2.727e-4,0.049486 0.0031,0.069704 0.011672,0.069942 0.049514,0.00138 0.1701298,0.031595 0.2202531,0.055182 0.033346,0.015692 0.105994,0.038321 0.1614396,0.050285 0.055446,0.011964 0.1224122,0.027224 0.1488149,0.033911 0.026403,0.00669 0.078679,0.01255 0.1161709,0.01303 0.067398,8.622e-4 0.068943,3.111e-4 0.1370823,-0.048932 z M 0.86408641,1.8453893 c 0.0660066,-0.0051 0.14001879,-0.012371 0.16447149,-0.016158 0.043455,-0.00673 0.04458,-0.00779 0.049793,-0.046772 0.00293,-0.021937 0.00821,-0.049367 0.011727,-0.060956 0.00576,-0.01899 -0.00285,-0.025391 -0.087237,-0.064824 -0.0514968,-0.024065 -0.10976074,-0.048097 -0.12947534,-0.053406 -0.0197146,-0.00531 -0.0411975,-0.016102 -0.0477397,-0.023985 -0.006542,-0.00788 -0.0189267,-0.014399 -0.0275211,-0.014479 -0.008594,-7.68e-5 -0.0210514,-0.00359 -0.0276823,-0.0078 -0.0184395,-0.011707 0.12148905,-0.00584 0.17047204,0.00714 0.0237624,0.0063 0.0706373,0.020355 0.1041667,0.031233 0.071697,0.023261 0.073716,0.022094 0.1067473,-0.061692 0.015937,-0.040425 0.034373,-0.065802 0.068653,-0.094503 0.025776,-0.021581 0.046865,-0.042664 0.046865,-0.046851 0,-0.018634 0.082197,-0.1281433 0.1185317,-0.1579166 0.022061,-0.018077 0.068143,-0.044854 0.1024039,-0.059505 0.034261,-0.01465 0.071588,-0.035306 0.082948,-0.045902 l 0.020655,-0.019265 -0.030873,-0.036068 C 1.544012,1.0538447 1.4812957,0.94348477 1.4216226,0.82843795 1.3619496,0.71339114 1.2947046,0.59333934 1.2721891,0.56165617 1.2291907,0.50114938 1.1498638,0.4281877 1.1120323,0.41435021 1.0785998,0.40212178 0.96789555,0.40773658 0.94369477,0.42288812 0.90711827,0.4457878 0.88066091,0.5350244 0.88487,0.62129496 0.888103,0.68755216 0.89243,0.70212216 0.9228633,0.74920447 0.9417531,0.77842867 1.0099477,0.86051686 1.0744069,0.93162272 1.1905219,1.0597109 1.3057306,1.2034436 1.3057306,1.220219 1.3057306,1.247426 1.2619586,1.209214 1.080108,1.0232597 0.90016319,0.8392535 0.87088134,0.81328919 0.80773337,0.78174419 0.75842882,0.75711455 0.71727754,0.74423677 0.67199226,0.7392657 0.63624966,0.7353417 0.60328266,0.7298567 0.59873236,0.7270763 c -0.015381,-0.009399 -0.0754042,0.0261741 -0.0783063,0.0464089 -0.001554,0.0108385 0.0103267,0.0462164 0.0264026,0.0786177 0.0160759,0.0324012 0.029229,0.0696735 0.029229,0.0828272 0,0.0427484 0.0161903,0.0701651 0.0448535,0.0759551 0.0503462,0.01017 0.30654792,0.1833614 0.43279424,0.2925674 0.058492,0.050597 0.077546,0.088687 0.044364,0.088687 -0.02813,0 -0.17939626,-0.085969 -0.26278615,-0.14935 C 0.60856796,1.0704734 0.64587431,1.0888361 0.46401026,1.060044 c -0.0220221,-0.00349 -0.0686356,-0.00328 -0.10358571,4.657e-4 -0.0781206,0.00837 -0.0936683,0.022915 -0.11492715,0.1075472 -0.0154147,0.061366 -0.0153177,0.063015 0.005743,0.097646 0.0434219,0.0714 0.072119,0.099733 0.14719918,0.1453312 0.0881219,0.053519 0.19620998,0.098596 0.27586019,0.1150444 0.0497931,0.010283 0.0846777,0.029333 0.0535393,0.029238 -0.0290631,-8.64e-5 -0.18902724,-0.029735 -0.23251555,-0.043092 -0.088074,-0.02705 -0.29435193,-0.01325 -0.30732629,0.020561 -0.003077,0.00802 -0.008328,0.043984 -0.0116678,0.079921 -0.005978,0.064322 -0.005641,0.065613 0.02161,0.082763 0.0152255,0.00958 0.0435285,0.031329 0.0628954,0.048325 0.0584303,0.051279 0.080832,0.062371 0.18331128,0.090768 0.10736647,0.029751 0.15806696,0.031058 0.4199403,0.010827 z M 3.317098,1.7953912 c 0.040614,-0.013973 0.065166,-0.030142 0.090312,-0.059473 0.049147,-0.057327 0.1005714,-0.1307794 0.1243256,-0.177579 0.0185,-0.036448 0.019009,-0.041627 0.00543,-0.055206 -0.00824,-0.00824 -0.018011,-0.014985 -0.021709,-0.014985 -0.0037,0 -0.027825,-0.019372 -0.053614,-0.04305 -0.028444,-0.026115 -0.059987,-0.045507 -0.080183,-0.049296 -0.084228,-0.015801 -0.3135229,0.025376 -0.3518344,0.063183 -0.02739,0.02703 -0.2284436,0.1288525 -0.2959514,0.1498838 -0.062428,0.019449 -0.062894,0.020738 -0.037815,0.1045202 l 0.01713,0.057225 0.1252716,3.812e-4 c 0.089136,2.707e-4 0.1296765,0.00403 0.140542,0.013048 0.026686,0.022137 0.066493,0.028865 0.1758109,0.029712 0.083084,6.432e-4 0.1187746,-0.0034 0.1622854,-0.018365 z M 2.7064167,1.541326 c 0.02187,-0.00772 0.054875,-0.025556 0.073345,-0.039643 0.035998,-0.027457 0.1460035,-0.07114 0.1791496,-0.07114 0.011079,0 0.078929,-0.019802 0.1507784,-0.044005 C 3.2346859,1.344432 3.325499,1.302281 3.3637188,1.2686304 3.3853548,1.2495804 3.4297608,1.1536242 3.4514218,1.079112 3.4672618,1.024624 3.4672288,1.024223 3.4450418,1.002388 3.4264507,0.98408814 3.4051809,0.97855252 3.3171317,0.9690974 3.1728443,0.95360315 3.151275,0.95528224 3.0654297,0.98869142 2.9960374,1.0156975 2.89949,1.087417 2.89949,1.1119585 c 0,0.0046 -0.077768,0.070081 -0.1728173,0.1455024 -0.09505,0.075421 -0.1728173,0.1409642 -0.1728173,0.1456505 0,0.016688 0.061059,0.118926 0.080762,0.1352289 0.024503,0.020274 0.022978,0.020211 0.071799,0.00299 z M 2.7181087,1.1665167 C 2.8358322,1.0740337 2.9009106,1.0269672 2.936054,1.0088908 2.955548,0.9988638 2.991014,0.9718581 3.014867,0.9488779 3.066206,0.8994179 3.1587159,0.76445698 3.1587159,0.73901839 c 0,-0.02203 -0.033607,-0.0822269 -0.065125,-0.11665329 C 3.0709439,0.5976288 3.0665949,0.596729 2.9775754,0.5983627 l -0.092487,0.001697 -0.067207,0.0439104 c -0.042417,0.0277137 -0.087877,0.069209 -0.1232442,0.1124967 -0.050065,0.0612765 -0.055327,0.0718208 -0.049372,0.0989349 0.00634,0.0288651 8.506e-4,0.0362725 -0.1122935,0.1515297 -0.065427,0.06665 -0.1292195,0.1329851 -0.1417598,0.1474123 l -0.022801,0.026231 0.025783,0.020281 c 0.014181,0.011154 0.034183,0.036746 0.044449,0.05687 0.010266,0.020124 0.029819,0.045362 0.043451,0.056085 l 0.024785,0.019496 0.075061,-0.059392 C 2.6232244,1.241248 2.6844998,1.1929193 2.7181087,1.1665167 Z M 2.3162495,1.1305131 c 0.00783,-0.011881 0.072932,-0.083481 0.144682,-0.15910984 0.07175,-0.0756292 0.1571814,-0.17487241 0.1898474,-0.2205404 0.067516,-0.0943892 0.1382824,-0.23308458 0.1478643,-0.28979948 0.00621,-0.0367293 0.00442,-0.0402733 -0.044051,-0.0874864 l -0.050518,-0.0492065 -0.054806,0.003964 c -0.052112,0.003769 -0.057196,0.006533 -0.1034364,0.0562366 -0.032474,0.0349059 -0.054041,0.0691196 -0.064918,0.10298226 -0.015672,0.0487948 -0.032669,0.0740735 -0.032669,0.0485875 0,-0.006736 0.00619,-0.029673 0.01375,-0.0509717 0.00756,-0.0212987 0.021158,-0.0637036 0.030212,-0.0942333 L 2.5086697,0.33542777 2.4838482,0.2847355 C 2.4551771,0.22618156 2.4349435,0.21425034 2.3500093,0.20581407 l -0.06018,-0.005978 -0.035762,0.0432357 c -0.08232,0.0995227 -0.1148411,0.26655217 -0.1287876,0.66145354 l -0.00567,0.16045089 0.054394,0.024056 c 0.029917,0.013231 0.065558,0.032837 0.079202,0.04357 0.031851,0.025054 0.045461,0.024604 0.06304,-0.00209 z m -0.5979914,-0.051798 0.058558,-0.025396 -0.00607,-0.0586127 c -0.00334,-0.032237 -0.011761,-0.082375 -0.018716,-0.1114179 -0.00696,-0.0290429 -0.015604,-0.0765676 -0.019219,-0.10561056 -0.00362,-0.0290429 -0.012831,-0.0803159 -0.020479,-0.11393998 -0.00765,-0.0336241 -0.012613,-0.0617069 -0.011034,-0.0624062 0.00158,-6.9933e-4 0.013356,-0.007185 0.026169,-0.0144129 0.020652,-0.0116491 0.024793,-0.011104 0.036463,0.0048 0.00724,0.009868 0.011141,0.0257382 0.00867,0.0352672 -0.00957,0.0368702 0.052567,0.41474144 0.071281,0.43345504 0.010903,0.010903 0.166636,0.014151 0.1770934,0.00369 0.0035,-0.0035 0.010038,-0.0812722 0.01452,-0.17281729 0.00976,-0.19937976 0.022668,-0.270687 0.05254,-0.29026034 0.017325,-0.0113516 0.022437,-0.0263356 0.027474,-0.0805286 C 2.1232908,0.43677756 2.0995285,0.2904548 2.0683947,0.23042304 2.039228,0.17418461 1.983183,0.12903218 1.9317604,0.1203444 1.8939154,0.1139504 1.8891014,0.1157374 1.8600864,0.1469495 1.7644524,0.24982657 1.749376,0.29201135 1.7480753,0.46036602 c -3.859e-4,0.049901 -0.00422,0.0866247 -0.00851,0.0816082 -0.0043,-0.005016 -0.015555,-0.0347168 -0.025021,-0.0660007 -0.024098,-0.0796472 -0.09599,-0.21758253 -0.1381446,-0.26505379 -0.033156,-0.037337 -0.079986,-0.0625361 -0.1362543,-0.0733184 -0.029578,-0.005668 -0.082416,0.028104 -0.1115044,0.0712676 -0.011414,0.0169368 -0.027912,0.0600383 -0.036663,0.0957811 -0.014822,0.0605406 -0.014819,0.0692567 5.76e-5,0.12739319 0.017717,0.069254 0.070551,0.1810736 0.095237,0.20156104 0.025149,0.0208716 0.1165173,0.18175208 0.1888492,0.33252328 0.036408,0.0758906 0.070109,0.13798286 0.07489,0.13798286 0.00478,0 0.035044,-0.011428 0.067251,-0.025396 z"
       id="path3819"
       inkscape:connector-curvature="0" />
    <path
       style="fill:#e9ac43;stroke-width:0.00960096"
       d="M 1.6391298,3.76788 C 1.2394336,3.7193487 0.84605735,3.5250599 0.55188784,3.2308904 0.13676525,2.8157679 -0.0559991,2.2484655 0.01452971,1.6494542 0.11406771,0.80406365 0.80406365,0.11406771 1.6494542,0.01452971 2.2490719,-0.0560705 2.8153476,0.13634501 3.2308904,0.55188784 3.646013,0.96701043 3.8387774,1.5343128 3.7682486,2.1333241 3.6687105,2.9787147 2.9787147,3.6687105 2.1333241,3.7682486 1.9879734,3.7853625 1.7818467,3.7852088 1.6391298,3.7678799 Z M 2.2790807,3.6075182 c 0.013108,-0.017185 0.028508,-0.043545 0.034224,-0.058578 0.00572,-0.015032 0.025998,-0.050844 0.045073,-0.079581 0.033828,-0.050964 0.034572,-0.054069 0.030238,-0.1262408 C 2.3841438,3.2686421 2.3391204,3.0900479 2.3021915,3.0003 2.2913274,2.9738974 2.2679039,2.9112511 2.2501391,2.8610861 2.1954406,2.7066258 2.1672148,2.6402576 2.1562893,2.640414 c -0.00576,8.64e-5 -0.036397,0.00649 -0.068081,0.014234 -0.08029,0.01963 -0.2446149,0.044485 -0.254345,0.038471 -0.00444,-0.00274 -0.019477,-6.51e-4 -0.033418,0.00465 -0.018942,0.0072 -0.032369,0.00601 -0.053134,-0.00473 -0.015283,-0.0079 -0.036724,-0.014369 -0.047648,-0.014369 -0.01652,0 -0.018823,0.00414 -0.013688,0.024597 0.0036,0.014356 -7.68e-5,0.039339 -0.00884,0.060006 -0.00825,0.019475 -0.019878,0.065652 -0.025829,0.1026158 -0.00595,0.036964 -0.021335,0.098621 -0.034186,0.1370158 -0.012851,0.038395 -0.023366,0.083878 -0.023366,0.1010741 0,0.017196 -0.00594,0.039787 -0.013189,0.050203 -0.021321,0.030615 -0.035499,0.166061 -0.024729,0.2362502 0.012439,0.081063 0.035199,0.1405669 0.056333,0.1472747 0.00944,0.003 0.028554,0.018226 0.042467,0.033841 0.028778,0.032298 0.063523,0.0443 0.089438,0.030895 0.00973,-0.00503 0.03356,-0.012015 0.052949,-0.015512 0.0303,-0.00547 0.039722,-0.014073 0.06706,-0.06127 0.047973,-0.082819 0.065979,-0.1610843 0.070064,-0.3045362 0.00267,-0.093943 -4.8e-5,-0.1354979 -0.011029,-0.1680168 -0.015516,-0.04597 -0.021517,-0.2366851 -0.00868,-0.2760276 0.00842,-0.02582 0.021678,-0.028026 0.028844,-0.0048 0.00963,0.031205 0.022384,0.2084339 0.018829,0.2616262 -0.011169,0.1671307 0.00311,0.2936669 0.04431,0.3925643 0.052525,0.1260925 0.057363,0.1329466 0.109716,0.1554191 0.026883,0.011539 0.059181,0.029057 0.071774,0.038929 0.034319,0.026902 0.063783,0.022604 0.091167,-0.013298 z M 1.4091993,3.439544 c 0.02605,-0.025083 0.059406,-0.069367 0.074126,-0.09841 0.033103,-0.065313 0.07203,-0.178035 0.07203,-0.208579 0,-0.012539 0.00597,-0.034464 0.013266,-0.048723 0.0073,-0.014259 0.016196,-0.045368 0.019777,-0.06913 0.00358,-0.023762 0.016783,-0.082088 0.029337,-0.129613 0.012554,-0.047525 0.028035,-0.1162572 0.034403,-0.152739 0.01064,-0.060966 0.010152,-0.067372 -0.00603,-0.079208 -0.00969,-0.00708 -0.02475,-0.012878 -0.033475,-0.012878 -0.027928,0 -0.1223413,-0.036247 -0.1525091,-0.058551 C 1.4327072,2.561442 1.4298552,2.561107 1.4131822,2.576193 1.3859352,2.600852 1.3796322,2.595346 1.3985152,2.56338 L 1.4155693,2.5345044 1.3381367,2.455371 C 1.2227037,2.3374026 1.1425143,2.2247119 1.1425143,2.1804614 c 0,-0.010512 -0.00422,-0.021721 -0.00938,-0.024909 -0.01392,-0.0086 -0.08368,0.011499 -0.14903638,0.042948 -0.0773677,0.037228 -0.22649396,0.086528 -0.26173586,0.086528 -0.0808596,0 -0.29829289,0.1100868 -0.39881153,0.201919 l -0.0476181,0.043503 0.0121707,0.071708 c 0.006694,0.03944 0.0169863,0.079571 0.0228721,0.089181 0.0308915,0.050436 0.22967648,0.080436 0.32527149,0.049089 0.0678649,-0.022254 0.23037667,-0.1040873 0.24737107,-0.1245643 0.007541,-0.00909 0.0483557,-0.042631 0.090699,-0.074542 0.0423434,-0.031912 0.0952532,-0.07455 0.11757741,-0.094751 0.038276,-0.034636 0.069821,-0.047334 0.069821,-0.028105 0,0.00474 -0.043929,0.050393 -0.09762,0.1014445 -0.071542,0.068025 -0.11578376,0.1015946 -0.16561649,0.1256675 -0.0373984,0.018066 -0.0877577,0.047513 -0.11190957,0.065438 -0.0515761,0.038278 -0.15591974,0.1647994 -0.18460485,0.223842 l -0.0200693,0.041309 0.0203498,0.018959 c 0.0111924,0.010427 0.0256359,0.033577 0.0320966,0.051444 0.0179109,0.049532 0.0397218,0.058261 0.1406473,0.056292 0.0741701,-0.00145 0.0974581,-0.00596 0.14364496,-0.027827 C 0.97424207,3.0487054 1.0939588,2.9449186 1.122545,2.8982572 1.1448056,2.861921 1.3554286,2.6210621 1.3649428,2.6210621 c 0.015363,0 0.00775,0.02239 -0.024149,0.071013 -0.017679,0.026949 -0.047728,0.073621 -0.066775,0.1037159 C 1.254971,2.8258859 1.2040523,2.8872923 1.1608654,2.93225 1.0503108,3.0473377 0.99222304,3.1311848 0.96792301,3.210754 l -0.0202903,0.066439 0.0230333,0.018235 c 0.0126683,0.010029 0.039938,0.033569 0.0605993,0.05231 0.035915,0.032578 0.039837,0.033809 0.089242,0.028002 l 0.051676,-0.00607 0.013762,0.032938 c 0.018156,0.043452 0.058305,0.070792 0.110765,0.075424 0.023442,0.00207 0.047685,0.00452 0.053874,0.00544 0.00619,9.226e-4 0.032564,-0.018845 0.058614,-0.043927 z m 1.32031,-0.063166 C 2.7411503,3.364079 2.7663853,3.33212 2.7855863,3.305357 2.8191753,3.25854 2.8203863,3.254025 2.8175563,3.1861042 2.8121163,3.055495 2.7523903,2.9375018 2.5946599,2.74575 2.5722179,2.718467 2.5538559,2.686992 2.5538559,2.675806 c 0,-0.017433 0.0062,-0.014249 0.043433,0.022288 0.025265,0.024795 0.047337,0.057123 0.052765,0.077282 0.00513,0.019061 0.018516,0.042903 0.029742,0.052982 0.011225,0.010079 0.036981,0.042659 0.057235,0.072399 0.063098,0.092651 0.2546883,0.2245117 0.3006078,0.2068908 0.0079,-0.00303 0.027692,-0.00169 0.043976,0.00298 0.031155,0.00894 0.096304,-0.010354 0.096304,-0.028513 0,-0.00503 0.013584,-0.02461 0.030188,-0.04352 0.025583,-0.029137 0.028614,-0.037609 0.019871,-0.05554 -0.00568,-0.011637 -0.015005,-0.03628 -0.020732,-0.054762 C 3.1926638,2.8812423 3.1008183,2.7709842 3.009901,2.6913865 2.967657,2.6544015 2.926613,2.6160735 2.918692,2.6062115 c -0.013576,-0.016901 0.00256,-0.00601 0.1048641,0.070789 0.088642,0.066542 0.2554811,0.1363549 0.3244759,0.1357747 0.019969,-1.68e-4 0.044693,-0.00665 0.054943,-0.014401 0.01025,-0.00775 0.030019,-0.014096 0.043931,-0.014096 0.042452,0 0.065514,-0.03468 0.067038,-0.10081 7.297e-4,-0.031683 -0.00168,-0.069733 -0.00536,-0.084555 -0.00514,-0.020731 -0.00197,-0.03134 0.013742,-0.045978 C 3.549263,2.5278402 3.548195,2.4951102 3.519566,2.4682102 3.506811,2.4562282 3.493796,2.4361452 3.490643,2.4235812 3.481173,2.3858662 3.438154,2.3296692 3.400511,2.3058513 3.381056,2.2935413 3.317613,2.2601663 3.2595276,2.2316853 c -0.082999,-0.040697 -0.099444,-0.051811 -0.076808,-0.051912 0.015842,-6.72e-5 0.052565,0.00625 0.081608,0.014046 0.029043,0.0078 0.075776,0.014225 0.1038508,0.014288 0.054864,1.229e-4 0.067486,-0.0068 0.1721768,-0.094438 0.054642,-0.045741 0.061964,-0.069023 0.029926,-0.095161 -0.011264,-0.00919 -0.050273,-0.042042 -0.086688,-0.073007 -0.04828,-0.041054 -0.082381,-0.061347 -0.1259353,-0.074941 -0.075492,-0.023563 -0.2395806,-0.03887 -0.3333545,-0.031097 -0.075101,0.00623 -0.1637301,-0.00901 -0.1474045,-0.025331 0.010444,-0.010444 0.050027,-0.011026 0.2407045,-0.00354 0.2119976,0.00833 0.2516951,-0.00733 0.3430036,-0.1352252 0.022619,-0.031683 0.05246,-0.080035 0.066314,-0.1074482 0.022811,-0.045137 0.023776,-0.051255 0.010225,-0.064806 -0.00823,-0.00823 -0.017966,-0.014964 -0.021636,-0.014964 -0.00367,0 -0.029739,-0.021096 -0.057933,-0.046879 -0.045562,-0.041667 -0.057533,-0.047589 -0.1076698,-0.053261 -0.083964,-0.0095 -0.302195,0.034657 -0.353023,0.07143 -0.019304,0.013966 -0.1771132,0.067114 -0.1992778,0.067114 -0.00205,0 -0.00373,-0.00639 -0.00373,-0.014206 0,-0.02075 0.065042,-0.050566 0.1589748,-0.072875 0.1210367,-0.028746 0.2879235,-0.090849 0.3620126,-0.1347136 0.059314,-0.035117 0.067383,-0.043834 0.093115,-0.1005845 0.015495,-0.034174 0.034968,-0.088655 0.043271,-0.1210688 0.014702,-0.057386 0.014563,-0.059503 -0.0053,-0.080644 C 3.4294788,0.9849216 3.4114548,0.97964933 3.352144,0.97501908 3.3117652,0.97186679 3.2571257,0.96500278 3.2307231,0.95976557 3.1391549,0.94160232 3.0116671,0.99009594 2.9056253,1.0834258 2.8451501,1.1366514 2.7595137,1.1881566 2.7489899,1.1776327 2.7402209,1.1688637 2.8781337,1.0531093 2.9485171,1.0101636 3.0145151,0.96989351 3.1397526,0.81352232 3.1551545,0.75215671 3.1619594,0.72504389 3.115456,0.62729919 3.08761,0.61018617 3.0756709,0.60284889 3.032634,0.59731397 2.9816369,0.59655717 2.8976858,0.5953113 2.894326,0.59613904 2.8312659,0.63360234 2.7543882,0.67927458 2.6481107,0.79079106 2.6161849,0.85928593 2.5904,0.91460605 2.5499388,0.96227015 2.4820242,1.0173298 c -0.04783,0.038777 -0.062582,0.045983 -0.062582,0.03057 0,-0.00451 0.042453,-0.0574385 0.094339,-0.11761178 0.051887,-0.0601733 0.1186458,-0.14452325 0.1483534,-0.18744443 0.062204,-0.089871 0.1318158,-0.23214989 0.1388826,-0.28386 0.00446,-0.0326666 9.131e-4,-0.0392973 -0.04499,-0.0840084 -0.047435,-0.0462032 -0.052341,-0.0485425 -0.1017934,-0.0485425 -0.050401,0 -0.053596,0.001639 -0.1067186,0.054762 -0.058511,0.0585105 -0.072824,0.0563195 -0.047387,-0.007253 0.015037,-0.0375801 0.014811,-0.0391066 -0.013113,-0.0885855 -0.036366,-0.0644374 -0.06888,-0.0837369 -0.1410616,-0.0837309 -0.055082,4.62e-6 -0.056858,8.5611e-4 -0.095606,0.0458507 C 2.1866036,0.32149669 2.1573756,0.42838787 2.121393,0.71908878 2.099187,0.89849002 2.065442,0.92356831 2.077524,0.75169118 2.081644,0.69305158 2.090749,0.64529941 2.102883,0.61866325 2.138368,0.54076875 2.119359,0.30859141 2.069621,0.21240975 2.050143,0.17474315 1.9608333,0.11521195 1.9238035,0.11521195 c -0.034849,0 -0.074814,0.0285168 -0.095192,0.0679249 -0.00791,0.0153041 -0.026649,0.0419253 -0.041634,0.0591583 -0.021613,0.0248551 -0.029582,0.0472117 -0.038548,0.1081404 -0.00622,0.0422442 -0.012237,0.0962496 -0.013379,0.120012 l -0.00208,0.0432043 -0.018006,-0.0528053 C 1.6872869,0.3796663 1.6153115,0.24510639 1.576158,0.20133767 1.5409098,0.16193451 1.5086472,0.14799488 1.4276634,0.13717808 c -0.027023,-0.003609 -0.041595,-2.4617e-4 -0.056201,0.0129712 -0.032593,0.029496 -0.063535,0.0908028 -0.080877,0.16024083 -0.0137,0.0548595 -0.01454,0.0737605 -0.00514,0.11575161 0.013401,0.0598831 0.057039,0.15484559 0.1030321,0.22421317 0.04972,0.0749891 0.147582,0.28189811 0.1476336,0.31214138 8.64e-5,0.0531843 -0.028773,0.0255956 -0.077845,-0.0744075 C 1.3527798,0.67312393 1.2902273,0.57015216 1.2209006,0.49734917 c -0.041205,-0.0432709 -0.083035,-0.0779111 -0.1008101,-0.083482 -0.041098,-0.0128805 -0.1502522,-0.007273 -0.17640979,0.009063 -0.0116532,0.007278 -0.0304603,0.0380268 -0.0417936,0.0683316 -0.0166552,0.0445357 -0.0198864,0.0703715 -0.016853,0.13475427 0.003302,0.0700788 0.007642,0.0860026 0.0361055,0.13245987 0.0177939,0.0290429 0.0482235,0.070087 0.0676214,0.0912091 C 1.0480261,0.914218 1.142539,1.0373642 1.1420966,1.0494745 1.1418672,1.0557619 1.1170244,1.0345753 1.0868911,1.0023931 1.0110822,0.92142994 0.90775123,0.83356038 0.84488449,0.79659806 0.77839405,0.75750518 0.69331213,0.72773057 0.66959948,0.73525668 c -0.009982,0.003168 -0.0302387,7.531e-4 -0.0450142,-0.005367 -0.0221175,-0.009161 -0.0334438,-0.008036 -0.0640987,0.006367 -0.0478568,0.0224851 -0.0501844,0.0422274 -0.013658,0.11584676 0.0172436,0.0347546 0.029229,0.0740038 0.029229,0.0957174 0,0.045514 0.0224853,0.0794824 0.0526131,0.0794824 0.0124967,0 0.0363727,0.011487 0.0530576,0.025526 0.0166849,0.014039 0.0576502,0.043202 0.091034,0.064806 0.0707673,0.045797 0.22260402,0.1683654 0.22965562,0.1853873 0.016658,0.040211 -0.0473672,0.00991 -0.13477193,-0.063788 -0.0945117,-0.079688 -0.23821572,-0.1639273 -0.27964395,-0.1639273 -0.0182463,0 -0.0595318,-0.00683 -0.0917455,-0.015177 -0.042622,-0.011044 -0.0769851,-0.013335 -0.12619833,-0.00841 -0.0629501,0.0063 -0.0704504,0.00958 -0.10843203,0.047517 -0.0354418,0.035397 -0.0408041,0.046212 -0.0408041,0.082303 0,0.043076 0.0168269,0.074815 0.0848691,0.1600828 0.037832,0.04741 0.16510483,0.1238176 0.27736586,0.1665163 0.0673538,0.025618 0.0704075,0.027829 0.0314044,0.022731 -0.0237624,-0.00311 -0.0683688,-0.011821 -0.0991254,-0.019368 -0.0899145,-0.022062 -0.30418659,-0.017736 -0.3191298,0.00644 -0.0130939,0.021186 -0.0333666,0.121012 -0.0285072,0.1403735 0.002983,0.011884 0.0172357,0.029166 0.0316733,0.038405 0.0144376,0.00924 0.0525201,0.038865 0.0846276,0.065837 0.0490858,0.041234 0.0712438,0.052424 0.13921392,0.070302 0.0444601,0.011694 0.0981182,0.027146 0.11924033,0.034337 l 0.0384038,0.013074 -0.0369877,7.575e-4 c -0.0668333,0.00137 -0.28263247,0.083098 -0.31057032,0.1176208 -0.005675,0.00701 -0.0126951,0.030032 -0.0156001,0.051154 -0.002905,0.021122 -0.008225,0.060708 -0.0118216,0.087968 l -0.00654,0.049565 0.0395446,0.024963 c 0.0217495,0.01373 0.0395446,0.028463 0.0395446,0.032739 0,0.00428 0.0183618,0.019892 0.0408041,0.034702 0.0801741,0.052907 0.21912448,0.033088 0.53045304,-0.075661 0.0686469,-0.023979 0.13345335,-0.043661 0.14401441,-0.043739 0.010561,-7.68e-5 0.0408041,-0.00835 0.0672067,-0.018375 l 0.048005,-0.018234 3.3e-6,-0.088389 C 1.1089166,1.9673841 1.105044,1.9410861 1.092176,1.9215702 1.071234,1.8898182 1.070811,1.8352712 1.090686,1.7292083 1.108607,1.6335703 1.171277,1.4801462 1.2009199,1.4593432 c 0.037908,-0.026603 0.061366,-0.05444 0.1045436,-0.1240552 0.046879,-0.075584 0.099417,-0.1198794 0.1842156,-0.155315 0.028202,-0.011785 0.059917,-0.028619 0.070478,-0.037408 0.010561,-0.00879 0.046915,-0.023414 0.080787,-0.032499 0.033872,-0.00908 0.081396,-0.025547 0.1056106,-0.036582 0.038357,-0.017481 0.049298,-0.018655 0.084968,-0.00912 0.05638,0.015069 0.1987824,0.014355 0.2111994,-0.00106 0.00532,-0.0066 0.012764,-0.02647 0.016548,-0.044153 0.00775,-0.0362334 0.021072,-0.0299988 0.025801,0.012078 0.00277,0.024649 0.010843,0.031044 0.068704,0.054425 0.036061,0.014572 0.081657,0.037647 0.1013261,0.051277 0.044361,0.030742 0.050181,0.030737 0.086798,-7.68e-5 0.031308,-0.026344 0.038591,-0.021143 0.015853,0.011321 -0.012698,0.018129 -0.01027,0.022483 0.033603,0.060275 0.026009,0.022404 0.04729,0.046076 0.04729,0.052604 0,0.00653 0.019961,0.031131 0.044357,0.054673 0.024397,0.023542 0.054874,0.064405 0.067727,0.090808 0.04221,0.086707 0.053218,0.105272 0.0797,0.1344134 0.036032,0.03965 0.08507,0.2332318 0.071493,0.2822284 -0.00381,0.013751 -0.00784,0.076848 -0.00895,0.1402139 -0.00194,0.1107508 -0.00318,0.1170702 -0.03201,0.1632163 -0.036966,0.059166 -0.062319,0.111095 -0.082775,0.1695448 -0.031069,0.088773 -0.1985385,0.2434332 -0.3275486,0.302496 -0.028612,0.013099 -0.052021,0.027488 -0.052021,0.031976 0,0.00449 0.016916,0.039815 0.037592,0.078504 0.041263,0.077215 0.096822,0.2273429 0.096822,0.2616283 0,0.025535 0.055565,0.1903805 0.089448,0.2653666 0.012973,0.02871 0.045387,0.074678 0.072032,0.1021517 0.047899,0.049389 0.049182,0.04999 0.1138996,0.053325 0.036,0.00186 0.073212,0.00422 0.082693,0.00525 0.00948,0.00103 0.026763,-0.00818 0.038404,-0.020481 z m 0.054128,-0.8537262 c -0.022296,-0.017162 -0.051795,-0.04615 -0.065553,-0.064418 l -0.025015,-0.033215 0.038404,0.023049 c 0.05878,0.035278 0.1007357,0.068506 0.1112086,0.088075 0.015231,0.02846 -0.012891,0.022035 -0.059045,-0.013491 z M 3.0845084,2.1640164 c 0.00319,-0.00319 0.011471,-0.00353 0.018402,-7.575e-4 0.00766,0.00306 0.00538,0.00534 -0.0058,0.0058 -0.010121,4.167e-4 -0.015792,-0.00185 -0.012601,-0.00504 z M 2.8850885,2.1346532 c -0.054551,-0.012701 -0.110411,-0.034744 -0.110411,-0.043569 0,-0.014135 0.1036062,-0.00504 0.1392139,0.012224 0.015842,0.00768 0.028803,0.018225 0.028803,0.023434 0,0.01068 -0.028753,0.014629 -0.057606,0.00791 z M 0.77287729,1.8934525 c -0.0334978,-0.00685 -0.0380565,-0.020047 -0.0105394,-0.030509 0.0344337,-0.013092 0.2177879,-0.01283 0.25233861,3.601e-4 0.025309,0.00966 0.025916,0.011135 0.00955,0.023157 -0.016674,0.012246 -0.20063399,0.017364 -0.25134675,0.00699 z m -0.1270127,-0.017465 c 0.00319,-0.00319 0.0114711,-0.00353 0.0184018,-7.575e-4 0.007659,0.00306 0.005384,0.00534 -0.005801,0.0058 -0.010121,4.167e-4 -0.0157916,-0.00185 -0.0126013,-0.00504 z M 0.88725075,1.5943088 c -0.0443053,-0.010592 -0.0576767,-0.020593 -0.0404334,-0.030243 0.0155544,-0.0087 0.11022196,0.013196 0.1262277,0.029201 0.0117727,0.011773 -0.0383604,0.012381 -0.0857943,0.00104 z M 1.0369037,1.3393339 c -0.012974,-0.015632 -0.00987,-0.017586 0.013616,-0.00857 0.00835,0.00321 0.015187,0.00969 0.015187,0.014401 0,0.01328 -0.015557,0.010133 -0.028803,-0.00583 z"
       id="path3817"
       inkscape:connector-curvature="0" />
    <path
       style="fill:#eda82e;stroke-width:0.00960096"
       d="M 1.680168,3.7728353 C 0.92422363,3.6810842 0.29940118,3.161164 0.08154974,2.4426113 0.02050131,2.2412514 0.00627651,2.137084 0.00627651,1.8913891 c 0,-0.1786926 0.00350751,-0.2351008 0.02029794,-0.3264326 C 0.08048084,1.2717318 0.19900159,0.99750222 0.37513177,0.75847585 0.45152471,0.65480294 0.65240471,0.45410916 0.75847585,0.37548715 0.99529842,0.19994963 1.2712242,0.08057414 1.5649565,0.02657445 c 0.1594125,-0.02930637 0.4934528,-0.02930637 0.6528653,0 0.2937323,0.05399969 0.5696581,0.17337518 0.8064806,0.3489127 0.1060712,0.078622 0.3069512,0.27931579 0.3833441,0.3829887 0.1761302,0.23902637 0.294651,0.51325595 0.3485573,0.80648065 0.029306,0.1594125 0.029306,0.4934528 0,0.6528653 C 3.7022975,2.5110465 3.5837767,2.7852761 3.4076465,3.0243024 3.3312536,3.1279753 3.1303736,3.3286691 3.0243024,3.4072912 2.7865226,3.5835383 2.5063037,3.7044872 2.2178218,3.7553868 2.091673,3.7776444 1.7982476,3.787167 1.680168,3.7728353 Z M 2.2849683,3.5989195 c 0.015875,-0.021914 0.028863,-0.045313 0.028863,-0.051997 0,-0.00668 0.018445,-0.031959 0.040988,-0.056165 0.031693,-0.034031 0.047748,-0.044012 0.070798,-0.044012 0.016395,0 0.050876,-0.011881 0.076624,-0.026403 0.039345,-0.02219 0.059068,-0.026615 0.1236215,-0.027735 0.042244,-7.326e-4 0.082047,-0.00181 0.088451,-0.0024 0.0064,-5.875e-4 0.029111,-0.02679 0.050459,-0.058227 0.021349,-0.031438 0.044951,-0.060601 0.052448,-0.064806 0.0075,-0.00421 0.015034,-0.024929 0.016747,-0.046051 0.00232,-0.028545 0.00681,-0.03742 0.017517,-0.03457 0.050475,0.013435 0.065576,0.010277 0.1295194,-0.02709 0.039855,-0.02329 0.079223,-0.03915 0.097179,-0.03915 0.040825,0 0.097096,-0.024631 0.1038118,-0.045441 0.00301,-0.00933 0.018926,-0.0246 0.035367,-0.033931 0.028342,-0.016086 0.029562,-0.019172 0.023517,-0.059483 -0.00601,-0.040045 -0.00509,-0.042445 0.015736,-0.041281 0.012162,6.797e-4 0.042072,4.445e-4 0.066467,-5.233e-4 l 0.044355,-0.00176 0.010938,-0.055594 c 0.013701,-0.06964 0.032826,-0.098021 0.066055,-0.098021 0.015491,0 0.037582,-0.011806 0.05662,-0.030258 0.025901,-0.025104 0.029503,-0.033465 0.021146,-0.049081 -0.00554,-0.010352 -0.0079,-0.030173 -0.00525,-0.044047 0.00265,-0.013874 9.467e-4,-0.032466 -0.00379,-0.041318 -0.00606,-0.011329 -0.00157,-0.028411 0.015178,-0.057708 0.028707,-0.050214 0.03044,-0.085636 0.0053,-0.1083839 C 3.51069,2.4327193 3.474536,2.3616353 3.481329,2.3506439 c 0.00272,-0.00441 0.015385,-0.00801 0.028139,-0.00801 0.034441,0 0.052141,-0.041637 0.048593,-0.1143031 -0.0016,-0.032755 -0.00785,-0.064495 -0.013887,-0.070533 -0.00824,-0.00824 -0.00439,-0.017854 0.015401,-0.038518 0.021466,-0.022409 0.0262,-0.035828 0.025414,-0.072031 C 3.5843822,2.0192808 3.579239,2.0011628 3.571145,1.9984638 3.564065,1.9961038 3.540944,1.9775258 3.519772,1.9571818 3.4986,1.9368378 3.47751,1.9201918 3.472906,1.9201918 c -0.018668,0 -2.669e-4,-0.033093 0.026641,-0.047911 C 3.543231,1.8482248 3.570005,1.7844258 3.566998,1.7115524 3.564948,1.6618664 3.560648,1.6485494 3.541639,1.6329744 L 3.518749,1.6142214 3.540378,1.5727874 C 3.568519,1.5188774 3.567622,1.5018464 3.535548,1.4811694 3.521027,1.4718094 3.49428,1.4494254 3.476112,1.4314334 L 3.443079,1.3987204 3.489947,1.3580614 3.536815,1.3174024 3.519762,1.2610804 C 3.510382,1.2301034 3.501997,1.1864574 3.501127,1.1640894 3.5002572,1.1417214 3.495007,1.1233964 3.489464,1.1233664 3.464947,1.1232339 3.457887,1.1021424 3.470445,1.0665474 3.480776,1.0372674 3.480685,1.0269324 3.4699189,1.0063844 3.4531799,0.9744362 3.4417389,0.9705465 3.3347335,0.9604227 3.2167721,0.9492624 3.206864,0.9417957 3.2451195,0.8928892 3.2642585,0.8684219 3.2711265,0.8333379 3.2559265,0.8376837 3.2513065,0.8390037 3.2318675,0.8259378 3.2127225,0.808648 3.1850885,0.7836918 3.1779135,0.7701509 3.1779135,0.7429556 c 0,-0.0197187 -0.00815,-0.0446161 -0.019202,-0.0586677 -0.010561,-0.0134262 -0.019202,-0.0292292 -0.019202,-0.0351177 -2e-7,-0.005889 -0.015322,-0.0229313 -0.034048,-0.0378729 -0.02928,-0.0233628 -0.043731,-0.0275078 -0.10321,-0.0296039 l -0.069163,-0.002437 v -0.037979 c 0,-0.0421312 -0.034056,-0.0923882 -0.070429,-0.10393245 -0.01144,-0.003631 -0.025268,-0.0149501 -0.030729,-0.0251536 -0.00546,-0.0102034 -0.0154,-0.0185517 -0.022087,-0.0185517 -0.00669,0 -0.032162,-0.0194419 -0.05661,-0.0432043 -0.038322,-0.0372468 -0.049994,-0.0432043 -0.084646,-0.0432043 -0.030502,0 -0.047711,-0.0066 -0.071365,-0.0273679 -0.018525,-0.0162651 -0.047842,-0.0300337 -0.072264,-0.033939 -0.022601,-0.003614 -0.052525,-0.0147109 -0.066496,-0.0246596 -0.014383,-0.0102413 -0.056472,-0.0223956 -0.09702,-0.0280169 l -0.071617,-0.009928 -0.031059,0.0300965 c -0.017083,0.0165531 -0.032338,0.0282316 -0.033901,0.0259523 -0.01323,-0.019295 -0.073405,-0.0834009 -0.075923,-0.0808828 -0.00468,0.004679 -0.1461047,-0.0299272 -0.1674406,-0.0409724 -0.00996,-0.005156 -0.033849,-0.0122127 -0.053087,-0.0156815 -0.028912,-0.0052131 -0.04001,-0.0020728 -0.063993,0.0181075 -0.015958,0.0134279 -0.040364,0.0437802 -0.054235,0.0674495 -0.013871,0.0236693 -0.029259,0.043035 -0.034195,0.043035 -0.00494,0 -0.016353,-0.0118812 -0.02537,-0.0264026 -0.026206,-0.0422018 -0.053453,-0.069607 -0.069204,-0.069607 -0.00803,0 -0.026046,-0.0109633 -0.040032,-0.0243628 -0.039118,-0.03747774 -0.085053,-0.04090634 -0.1227762,-0.009164 -0.025036,0.0210662 -0.03692,0.0248516 -0.062787,0.019999 -0.054002,-0.0101309 -0.1140322,0.0308035 -0.1496235,0.10202793 -0.0161,0.0322198 -0.02934,0.0676124 -0.029421,0.0786501 -2.861e-4,0.0389967 -0.010968,0.0443204 -0.067464,0.0336212 -0.1216112,-0.023031 -0.112377,-0.0241806 -0.1521924,0.0189472 -0.026583,0.0287943 -0.044033,0.0395172 -0.0643506,0.0395433 -0.0705052,9.121e-5 -0.1122718,0.0635021 -0.12531887,0.1902628 -0.006146,0.0597104 -0.006647,0.0605755 -0.0312101,0.0538281 -0.0137301,-0.003772 -0.0389388,-0.00821 -0.0560192,-0.009864 -0.0170804,-0.001653 -0.0394787,-0.007514 -0.0497739,-0.013024 -0.0287205,-0.0153707 -0.0758889,-0.0119158 -0.092616,0.006784 -0.008266,0.009241 -0.0246015,0.0319232 -0.0363009,0.050405 -0.0116993,0.0184819 -0.0374797,0.0422442 -0.0572897,0.0528053 -0.049074,0.0261622 -0.0522708,0.0485415 -0.0169337,0.11854394 0.0162492,0.0321894 0.029544,0.0622888 0.029544,0.0668875 0,0.004599 -0.044473,0.007962 -0.0988289,0.007475 -0.11007688,-9.8771e-4 -0.15079605,0.0138056 -0.15079605,0.0547845 0,0.0216392 -0.038457,0.10557348 -0.0690705,0.15074938 -0.008946,0.013201 -0.0172436,0.045915 -0.0184395,0.072697 -0.00183,0.040994 0.00264,0.055692 0.0282664,0.092939 0.0370788,0.053892 0.0377033,0.062653 0.004744,0.066549 -0.0354069,0.00419 -0.0703823,0.071273 -0.07527,0.144376 -0.00202,0.030211 -0.007634,0.062614 -0.0124752,0.072007 -0.004841,0.00939 -0.007792,0.038493 -0.006558,0.064666 0.001733,0.036737 0.0071,0.050967 0.0235353,0.062406 0.0117096,0.00815 0.0387254,0.031019 0.060035,0.050821 0.0213096,0.019802 0.0425442,0.036004 0.047188,0.036004 0.0200484,0 0.005824,0.020762 -0.0239537,0.034962 -0.0258833,0.012343 -0.0384353,0.029202 -0.06243,0.083853 -0.034466,0.078501 -0.0358286,0.091593 -0.0142621,0.1370407 0.0125323,0.02641 0.0135066,0.038 0.0048,0.057108 -0.0210055,0.046102 -0.005977,0.1132609 0.0277397,0.1239623 0.0175409,0.00557 0.0861498,0.068537 0.0861498,0.079068 0,0.00342 -0.0190851,0.023735 -0.0424113,0.045142 -0.0412457,0.037854 -0.0425509,0.040851 -0.0474915,0.1090709 -0.005026,0.069393 -0.004724,0.070541 0.0280099,0.1067742 0.0181995,0.020145 0.0330901,0.046815 0.0330901,0.059267 0,0.032074 0.0581332,0.1142048 0.0808522,0.1142276 0.0101453,9.6e-6 0.0256194,0.00651 0.034387,0.014445 0.008768,0.00793 0.0393508,0.016199 0.0679627,0.018365 0.0286119,0.00217 0.0553652,0.00432 0.0594518,0.00478 0.004087,4.599e-4 -4.9061e-4,0.016276 -0.0101714,0.035146 -0.0162738,0.031721 -0.0165429,0.038642 -0.003568,0.091754 0.01218,0.049857 0.0193173,0.06108 0.0540324,0.084965 0.0219993,0.015136 0.0500043,0.042122 0.0622334,0.059969 0.0274758,0.040098 0.080447,0.07586 0.10880363,0.073455 0.0116949,-9.919e-4 0.0401906,-0.00113 0.0633237,-3.101e-4 l 0.0420603,0.00149 -0.005689,0.035055 c -0.004657,0.028699 -0.001151,0.040449 0.0193362,0.064806 0.0137637,0.016363 0.0348266,0.036232 0.0468064,0.044153 0.0119798,0.00792 0.0418137,0.028443 0.0662975,0.045605 0.0244838,0.017162 0.0468583,0.031203 0.049721,0.031203 0.00286,0 0.01619,0.00864 0.029616,0.019202 0.016224,0.012762 0.038949,0.019202 0.067758,0.019202 0.039478,0 0.047454,0.00428 0.089373,0.048005 0.040651,0.042398 0.050649,0.048005 0.085603,0.048005 0.021767,0 0.048451,0.00475 0.059299,0.010555 0.015937,0.00853 0.025162,0.00653 0.048066,-0.0104 l 0.028343,-0.020955 0.030511,0.034715 c 0.026057,0.029648 0.03962,0.036253 0.092917,0.045248 0.06407,0.010814 0.1152115,0.031024 0.1152115,0.045529 0,0.0045 0.012961,0.013558 0.028803,0.02012 0.02288,0.00948 0.034687,0.00949 0.057419,7.68e-5 0.015739,-0.00652 0.039593,-0.0091 0.053008,-0.00573 0.018361,0.00461 0.030275,2.381e-4 0.048191,-0.017678 0.01309,-0.01309 0.0238,-0.028317 0.0238,-0.033837 0,-0.017881 0.027326,-0.010615 0.033524,0.00891 0.00331,0.010423 0.016716,0.027369 0.029796,0.037657 0.023596,0.018561 0.024233,0.018553 0.082022,-9.623e-4 0.051484,-0.017387 0.062628,-0.01822 0.096057,-0.00719 0.020799,0.00686 0.05144,0.022531 0.068091,0.034816 0.04498,0.033185 0.06959,0.029014 0.1032912,-0.017509 z M 1.5553555,3.1342367 c 0,-0.013464 0.00597,-0.036146 0.013266,-0.050405 0.0073,-0.014259 0.016196,-0.045368 0.019777,-0.06913 0.00358,-0.023762 0.016783,-0.082088 0.029337,-0.129613 0.012554,-0.047525 0.028035,-0.1162572 0.034403,-0.152739 0.013592,-0.077878 0.010819,-0.081771 -0.076271,-0.1070883 -0.029313,-0.00852 -0.074425,-0.026201 -0.1002501,-0.039287 -0.042873,-0.021725 -0.048399,-0.022486 -0.063572,-0.00875 -0.025326,0.02292 -0.033625,0.017952 -0.015702,-0.0094 0.00881,-0.013442 0.013497,-0.032369 0.010421,-0.042061 -0.00308,-0.00969 -0.037062,-0.047298 -0.075525,-0.083571 -0.038463,-0.036272 -0.078797,-0.078911 -0.089632,-0.094753 -0.05452,-0.079714 -0.088921,-0.1383925 -0.094751,-0.1616206 -0.00356,-0.014179 -0.010212,-0.028092 -0.014786,-0.030919 -0.012955,-0.00801 -0.084568,0.013096 -0.14797278,0.043605 -0.0690395,0.033221 -0.22517757,0.086528 -0.2534414,0.086528 -0.0243256,0 -0.0253477,-0.00719 -0.004326,-0.030414 0.0155995,-0.017237 0.23573435,-0.094391 0.26935999,-0.094406 0.019649,-9e-6 0.10377959,-0.030556 0.11496689,-0.041743 0.00409,-0.00409 0.00617,-0.047129 0.00464,-0.095651 -0.00236,-0.074465 -0.00598,-0.091618 -0.02324,-0.110011 -0.019658,-0.020947 -0.019998,-0.025033 -0.00879,-0.1056105 0.00641,-0.046101 0.013564,-0.098942 0.01589,-0.1174238 0.00709,-0.056392 0.094707,-0.2232083 0.1271061,-0.2420158 0.016409,-0.00953 0.046927,-0.048038 0.072844,-0.091929 0.049446,-0.083735 0.1120055,-0.1426689 0.1794386,-0.169038 0.023762,-0.00929 0.062646,-0.027795 0.086409,-0.041117 0.023762,-0.013322 0.065718,-0.030185 0.093234,-0.037471 0.027516,-0.00729 0.066336,-0.021988 0.086266,-0.03267 0.043334,-0.023226 0.057062,-0.0239 0.1022469,-0.00502 0.041569,0.017369 0.1461507,0.018693 0.1782848,0.00226 0.014211,-0.00727 0.027221,-0.026134 0.033603,-0.048728 0.011469,-0.0405998 0.024816,-0.03784 0.024816,0.00513 0,0.024993 0.00728,0.030946 0.080794,0.066043 0.044437,0.021215 0.08601,0.044858 0.092385,0.052539 0.017604,0.021212 0.052445,0.016764 0.08531,-0.010891 0.031696,-0.02667 0.038533,-0.021059 0.015101,0.012394 -0.013443,0.019193 -0.012516,0.022153 0.013457,0.04294 0.015342,0.01228 0.041412,0.04259 0.057934,0.067356 0.016522,0.024766 0.047201,0.058621 0.068176,0.075234 0.020975,0.016613 0.04087,0.041714 0.044211,0.055781 0.00989,0.041639 0.07113,0.1454376 0.095057,0.1611152 0.014912,0.00977 0.024115,0.027652 0.028151,0.0547 0.0033,0.022101 0.014886,0.075865 0.025751,0.119474 0.018621,0.074741 0.018861,0.081524 0.00417,0.1182446 -0.00857,0.021425 -0.012481,0.04398 -0.00869,0.050121 0.0038,0.00614 0.00585,0.05216 0.00458,0.102264 -0.00173,0.067879 -0.00627,0.095461 -0.017818,0.1082157 -0.025712,0.028411 -0.089297,0.1361135 -0.089457,0.1515255 -7.46e-4,0.071653 -0.1374058,0.2268469 -0.2647311,0.3006341 -0.042708,0.02475 -0.082143,0.045 -0.087633,0.045 -0.00549,0 -0.015545,0.0067 -0.022344,0.014896 -0.010372,0.012498 -0.00607,0.026794 0.026748,0.088809 0.043618,0.082433 0.098475,0.2310003 0.098475,0.2666974 0,0.035422 -0.025861,0.02832 -0.046487,-0.012766 -0.00994,-0.019802 -0.02784,-0.066247 -0.039776,-0.1032104 C 2.2348334,2.8193268 2.2120164,2.7555793 2.1960664,2.714629 2.1682494,2.643214 2.1658474,2.640226 2.1372374,2.641458 c -0.02774,0.00119 -0.092087,0.014823 -0.1829607,0.038751 -0.020857,0.00549 -0.064061,0.00998 -0.09601,0.00998 -0.031948,-3.2e-6 -0.06464,0.0035 -0.072647,0.00778 -0.0086,0.0046 -0.024313,0.00239 -0.038404,-0.00541 -0.013114,-0.00726 -0.033648,-0.013352 -0.04563,-0.013539 -0.018631,-2.909e-4 -0.020891,0.00322 -0.015612,0.024257 0.0036,0.014356 -7.68e-5,0.039339 -0.00884,0.060006 -0.00825,0.019475 -0.019878,0.065652 -0.025829,0.1026158 -0.00595,0.036964 -0.021335,0.098621 -0.034186,0.1370158 -0.012851,0.038395 -0.023366,0.082326 -0.023366,0.097625 0,0.037512 -0.00889,0.058189 -0.02503,0.058189 -0.00793,0 -0.013374,-0.00996 -0.013374,-0.024479 z m 0.3640828,-0.092531 c -0.012568,-0.045574 -0.01602,-0.2303917 -0.00494,-0.2646279 0.00835,-0.025819 0.02162,-0.028031 0.028788,-0.0048 0.00759,0.024585 0.022016,0.2010144 0.020992,0.2566551 -6.788e-4,0.036869 -0.00461,0.048561 -0.01715,0.051007 -0.012023,0.00234 -0.019251,-0.00764 -0.027688,-0.038233 z M 1.1281598,2.909167 c -0.00324,-0.00524 -0.00241,-0.015544 0.00183,-0.0229 0.014823,-0.02568 0.2270215,-0.2652046 0.2349493,-0.2652046 0.015645,0 0.00752,0.02275 -0.027091,0.075814 -0.019297,0.02959 -0.054425,0.083312 -0.078062,0.1193828 -0.023637,0.036071 -0.053212,0.070248 -0.065724,0.075948 -0.012512,0.0057 -0.022749,0.013992 -0.022749,0.018425 0,0.011314 -0.036015,0.010091 -0.043157,-0.00147 z M 2.5878986,2.7396935 c -0.018724,-0.024522 -0.03395,-0.053685 -0.033836,-0.064806 1.709e-4,-0.016697 0.00854,-0.01156 0.048005,0.02947 0.026289,0.02733 0.047798,0.056493 0.047798,0.064806 0,0.028416 -0.027898,0.015148 -0.061967,-0.02947 z M 0.89288929,2.6214936 c 0,-0.012285 0.0273689,-0.039403 0.0792079,-0.078482 0.0435644,-0.032841 0.0974733,-0.07624 0.11979751,-0.096441 0.038152,-0.034524 0.069821,-0.047344 0.069821,-0.028264 0,0.00466 -0.041676,0.048308 -0.092613,0.097005 C 0.94579973,2.63319 0.89288929,2.6650725 0.89288929,2.6214936 Z M 2.7836369,2.5226523 c -0.022296,-0.017162 -0.051795,-0.04615 -0.065553,-0.064418 l -0.025015,-0.033215 0.038404,0.022942 c 0.061542,0.036764 0.110411,0.077617 0.110411,0.092299 0,0.02074 -0.013876,0.016545 -0.058247,-0.017608 z M 2.8850885,2.1346532 c -0.054551,-0.012701 -0.110411,-0.034744 -0.110411,-0.043569 0,-0.014135 0.1036062,-0.00504 0.1392139,0.012224 0.015842,0.00768 0.028803,0.018225 0.028803,0.023434 0,0.01068 -0.028753,0.014629 -0.057606,0.00791 z M 0.77287729,1.8934525 c -0.0334978,-0.00685 -0.0380565,-0.020047 -0.0105394,-0.030509 0.0344337,-0.013092 0.2177879,-0.01283 0.25233861,3.601e-4 0.025309,0.00966 0.025916,0.011135 0.00955,0.023157 -0.016674,0.012246 -0.20063399,0.017364 -0.25134675,0.00699 z M 2.9005832,1.8323043 c -0.045568,-0.013103 -0.025718,-0.028478 0.0385,-0.029821 0.050922,-0.00106 0.094821,0.013583 0.094821,0.031638 0,0.011754 -0.090411,0.010522 -0.1333202,-0.00182 z M 0.88520136,1.5938896 c -0.0379082,-0.00898 -0.0469783,-0.016511 -0.0346831,-0.028806 0.010336,-0.010336 0.10601521,0.011672 0.12252674,0.028184 0.0119589,0.011959 -0.0384677,0.012316 -0.0878436,6.22e-4 z m 1.90867804,-0.08136 c 0,-0.027926 0.1687281,-0.090321 0.2057881,-0.0761 0.027578,0.010583 -0.0019,0.030988 -0.079699,0.055172 -0.1141353,0.035479 -0.1260892,0.037463 -0.1260891,0.020928 z M 1.0369037,1.3393339 c -0.012974,-0.015632 -0.00987,-0.017586 0.013616,-0.00857 0.00835,0.00321 0.015187,0.00969 0.015187,0.014401 0,0.01328 -0.015557,0.010133 -0.028803,-0.00583 z M 0.9633645,1.3092639 C 0.94710761,1.3013904 0.90623834,1.2714269 0.87254385,1.2426782 0.83884936,1.2139296 0.77102387,1.1659021 0.72182054,1.1359505 0.61246144,1.0693803 0.57617516,1.0273027 0.62812626,1.0273027 c 0.0127962,0 0.0369171,0.011487 0.053602,0.025526 0.0166849,0.014039 0.0576502,0.043202 0.091034,0.064806 0.0707673,0.045797 0.22260402,0.1683654 0.22965564,0.1853873 0.0079,0.01906 -0.007504,0.021521 -0.0390534,0.00624 z M 2.7517438,1.169588 c 0.014389,-0.023282 0.1729459,-0.1518862 0.1872615,-0.1518862 0.048478,0 -0.066227,0.1115118 -0.1534991,0.1492255 -0.039182,0.016932 -0.042757,0.017214 -0.033762,0.00266 z M 1.0793443,0.99609962 c -0.031263,-0.0330033 -0.0816845,-0.082766 -0.11204756,-0.11058375 -0.0519115,-0.0475598 -0.0717663,-0.0886362 -0.0428434,-0.0886362 0.0222489,0 0.21806096,0.22466703 0.21806096,0.25019463 0,0.014761 -0.00382,0.011678 -0.06317,-0.0509747 z M 2.419442,1.0476621 c 0,-0.011634 0.1361348,-0.16638293 0.1693619,-0.19251938 0.052161,-0.0410297 0.033349,0.019365 -0.027342,0.0877797 -0.034555,0.0389521 -0.1228601,0.11318318 -0.1346432,0.11318318 -0.00406,0 -0.00738,-0.0038 -0.00738,-0.00844 z M 1.5096428,0.9768977 C 1.5043328,0.9702967 1.4628108,0.8916108 1.4173788,0.8020395 1.3614988,0.69186894 1.3379278,0.63603004 1.3445198,0.62943802 c 0.00659,-0.006592 0.015095,-0.006476 0.026282,3.5763e-4 0.023934,0.0146204 0.1653523,0.29788586 0.1653523,0.33120574 0,0.0295121 -0.010489,0.0358013 -0.026511,0.0158963 z M 2.078283,0.86082741 c -0.00913,-0.0224349 0.0023,-0.18968063 0.015305,-0.22388486 0.00906,-0.0238334 0.011006,-0.0246124 0.025431,-0.0101877 0.01402,0.0140205 0.014334,0.0242622 0.00306,0.10007264 -0.00691,0.0464495 -0.017968,0.0995751 -0.024583,0.11805697 -0.010074,0.028147 -0.013194,0.0307358 -0.019216,0.0159429 z"
       id="path3815"
       inkscape:connector-curvature="0" />
    <path
       style="fill:#a64845;stroke-width:0.00960096"
       d="M 1.680168,3.7728353 C 0.92422363,3.6810842 0.29940118,3.161164 0.08154974,2.4426113 0.02050131,2.2412514 0.00627651,2.137084 0.00627651,1.8913891 c 0,-0.1786926 0.00350751,-0.2351008 0.02029794,-0.3264326 C 0.08048084,1.2717318 0.19900159,0.99750222 0.37513177,0.75847585 0.45152471,0.65480294 0.65240471,0.45410916 0.75847585,0.37548715 0.99529842,0.19994963 1.2712242,0.08057414 1.5649565,0.02657445 c 0.1594125,-0.02930637 0.4934528,-0.02930637 0.6528653,0 0.2937323,0.05399969 0.5696581,0.17337518 0.8064806,0.3489127 0.1060712,0.078622 0.3069512,0.27931579 0.3833441,0.3829887 0.1761302,0.23902637 0.294651,0.51325595 0.3485573,0.80648065 0.029306,0.1594125 0.029306,0.4934528 0,0.6528653 C 3.7022975,2.5110465 3.5837767,2.7852761 3.4076465,3.0243024 3.3312536,3.1279753 3.1303736,3.3286691 3.0243024,3.4072912 2.7865226,3.5835383 2.5063037,3.7044872 2.2178218,3.7553868 2.091673,3.7776444 1.7982476,3.787167 1.680168,3.7728353 Z m 0.6045598,-0.14325 c 0.011115,-0.015609 0.029212,-0.049093 0.040216,-0.074407 0.011004,-0.025315 0.030507,-0.060068 0.04334,-0.07723 0.022646,-0.030284 0.025424,-0.031203 0.094285,-0.031203 0.039024,0 0.073327,-0.00384 0.07623,-0.00854 0.00629,-0.010181 0.059198,-0.020268 0.1254681,-0.023921 0.060305,-0.00332 0.086805,-0.017397 0.1066446,-0.056632 0.0086,-0.017005 0.025645,-0.044304 0.03788,-0.060664 0.01337,-0.017877 0.023452,-0.046608 0.025269,-0.072007 0.0023,-0.032211 0.00645,-0.041255 0.017425,-0.038028 0.00792,0.00233 0.03736,0.00598 0.065421,0.00812 0.042224,0.00322 0.061259,-0.00113 0.110411,-0.025225 0.032665,-0.016014 0.080507,-0.034792 0.1063142,-0.041728 0.031383,-0.00843 0.051712,-0.020561 0.061382,-0.036614 0.00795,-0.013201 0.022814,-0.036159 0.033025,-0.051018 0.013867,-0.020178 0.017053,-0.035972 0.012588,-0.062406 l -0.00598,-0.035391 0.070044,-0.00266 c 0.079247,-0.00301 0.088372,-0.00973 0.1055034,-0.077625 0.00835,-0.033102 0.016814,-0.044494 0.04036,-0.054333 0.016385,-0.00685 0.041673,-0.021797 0.056194,-0.033221 0.024452,-0.019236 0.026403,-0.025899 0.026403,-0.090161 0,-0.040739 -0.0047,-0.074095 -0.011394,-0.080784 -0.00879,-0.00879 -0.0066,-0.016499 0.0096,-0.033742 0.027626,-0.029407 0.02886,-0.092625 0.00228,-0.1166824 -0.022944,-0.020764 -0.059098,-0.091848 -0.052305,-0.1028394 0.00272,-0.00441 0.015707,-0.00801 0.028855,-0.00801 0.049454,0 0.080391,-0.1268449 0.042641,-0.1748361 l -0.018729,-0.02381 0.037931,-0.037039 c 0.055566,-0.054258 0.055191,-0.055415 -0.048011,-0.1482942 -0.023506,-0.021154 -0.046505,-0.038463 -0.051109,-0.038463 -0.018667,0 -2.678e-4,-0.033093 0.026641,-0.047916 0.035283,-0.019436 0.073006,-0.093396 0.07935,-0.1555762 0.00424,-0.041557 0.00208,-0.047378 -0.027678,-0.074558 L 3.5189451,1.61266 3.5404781,1.572006 C 3.5685351,1.519033 3.5676031,1.501831 3.5355581,1.481168 3.5210371,1.471808 3.4942901,1.449424 3.4761221,1.431432 L 3.4430891,1.398719 3.4882011,1.359425 3.5333141,1.320131 3.5332373,1.255016 c -8.44e-5,-0.069281 -0.019456,-0.1317049 -0.040874,-0.1317049 -0.027307,0 -0.03495,-0.019802 -0.021909,-0.056765 0.010331,-0.02928 0.01024,-0.039615 -5.261e-4,-0.060163 C 3.4531848,0.9744363 3.441744,0.97054656 3.3347388,0.96042283 3.2150661,0.94910069 3.2086871,0.94406053 3.2466155,0.89079504 l 0.020693,-0.0290609 -0.021062,-0.0585366 C 3.2317515,0.76291076 3.2145146,0.73586541 3.1909594,0.71644921 3.1721352,0.70093279 3.1488226,0.66978158 3.1391535,0.64722432 3.1166099,0.59463257 3.0977041,0.58527525 3.0072056,0.58191779 l -0.074112,-0.00275 v -0.0375589 c 0,-0.0476486 -0.048027,-0.11049313 -0.1058217,-0.13847119 -0.022225,-0.0107588 -0.057932,-0.0367393 -0.079351,-0.0577344 -0.033451,-0.0327898 -0.044888,-0.038173 -0.081104,-0.038173 -0.0339,0 -0.047341,-0.005405 -0.068589,-0.027584 C 2.5799929,0.2606128 2.5586309,0.2502571 2.5293149,0.246239 2.5059479,0.243036 2.4695229,0.2289625 2.4483699,0.2149641 2.4183379,0.1950901 2.3967519,0.1891092 2.3498699,0.1876721 2.2954479,0.1860041 2.2869789,0.18847657 2.2593619,0.2140987 L 2.2288939,0.2423657 2.1969559,0.2063155 C 2.1793887,0.18648846 2.1617429,0.16468338 2.1577418,0.15786028 2.146378,0.13848185 2.0855402,0.12227554 2.049523,0.1290324 2.026203,0.1334074 2.00594,0.12956842 1.978524,0.1155821 1.957423,0.1048172 1.929517,0.09600964 1.916511,0.09600964 c -0.030974,0 -0.074888,0.03774234 -0.1063213,0.09137842 -0.013871,0.0236693 -0.029259,0.043035 -0.034195,0.043035 -0.00494,0 -0.016353,-0.0118812 -0.02537,-0.0264026 -0.026206,-0.0422018 -0.053453,-0.069607 -0.069204,-0.069607 -0.00803,0 -0.026046,-0.0109633 -0.040032,-0.0243628 -0.038685,-0.03706232 -0.085085,-0.04087882 -0.1217646,-0.0100153 -0.026998,0.0227176 -0.034956,0.0245357 -0.082786,0.0189142 -0.049275,-0.005791 -0.054609,-0.004393 -0.077504,0.0203115 -0.03028,0.0326733 -0.082353,0.13504995 -0.082552,0.16230247 -2.861e-4,0.0389967 -0.010968,0.0443204 -0.067464,0.0336212 -0.1216112,-0.023031 -0.112377,-0.0241806 -0.1521924,0.0189472 -0.026583,0.0287943 -0.044033,0.0395172 -0.0643506,0.0395433 -0.0705052,9.121e-5 -0.1122718,0.0635021 -0.12531887,0.1902628 -0.006146,0.0597104 -0.006647,0.0605755 -0.0312101,0.0538281 -0.0137301,-0.003772 -0.0389388,-0.00821 -0.0560192,-0.009864 -0.0170804,-0.001653 -0.0394787,-0.007514 -0.0497739,-0.013024 -0.0287205,-0.0153707 -0.0758889,-0.0119158 -0.092616,0.006784 -0.008266,0.009241 -0.0246015,0.0319232 -0.0363009,0.050405 -0.0116993,0.0184819 -0.0374797,0.0422442 -0.0572897,0.0528053 -0.049074,0.0261622 -0.0522708,0.0485415 -0.0169337,0.11854394 0.0162492,0.0321894 0.029544,0.0626969 0.029544,0.0677943 0,0.005487 -0.0323101,0.007857 -0.0792079,0.005808 -0.10465431,-0.004572 -0.14694264,0.006807 -0.17081903,0.0459658 -0.0103005,0.0168934 -0.0187443,0.0424522 -0.018764,0.0567973 -2.4e-5,0.017367 -0.0148327,0.042743 -0.0443162,0.075939 -0.0412698,0.046468 -0.0439584,0.052712 -0.0395464,0.091856 0.002965,0.026309 0.0177143,0.061549 0.0394798,0.09433 0.0191103,0.028782 0.0347459,0.056431 0.0347459,0.061442 0,0.00501 -0.0115636,0.010478 -0.0256968,0.012149 -0.0348044,0.00411 -0.0705236,0.071417 -0.0749556,0.1412329 -0.001808,0.028482 -0.0106795,0.068179 -0.0197143,0.088214 -0.0192884,0.042774 -0.0133743,0.078503 0.0175172,0.1058281 0.0116828,0.010334 0.0401242,0.035938 0.0632032,0.056897 0.023079,0.02096 0.0457613,0.038108 0.050405,0.038108 0.0200484,0 0.005824,0.020762 -0.0239537,0.034962 -0.0258833,0.012343 -0.0384353,0.029202 -0.06243,0.083853 -0.034466,0.078501 -0.0358286,0.091593 -0.0142621,0.1370407 0.0125323,0.02641 0.0135066,0.038 0.0048,0.057108 -0.0210055,0.046102 -0.005977,0.1132609 0.0277397,0.1239623 0.0175409,0.00557 0.0861498,0.068537 0.0861498,0.079068 0,0.00342 -0.0190851,0.023735 -0.0424113,0.045142 -0.0412457,0.037854 -0.0425509,0.040851 -0.0474915,0.1090709 -0.005026,0.069393 -0.004724,0.070541 0.0280099,0.1067742 0.0266683,0.029519 0.0330901,0.044463 0.0330901,0.077006 0,0.031828 0.005943,0.046322 0.0280644,0.068443 0.0154354,0.015435 0.0377775,0.028064 0.0496491,0.028064 0.0118716,0 0.0287582,0.00649 0.0375257,0.014426 0.008768,0.00793 0.0393508,0.016199 0.0679627,0.018365 0.0286119,0.00217 0.0553652,0.00432 0.0594518,0.00478 0.004087,4.599e-4 -4.9061e-4,0.016276 -0.0101714,0.035146 -0.0162408,0.031657 -0.0165256,0.038712 -0.003685,0.091275 0.0124325,0.050891 0.0189226,0.060563 0.060853,0.090687 0.0332526,0.02389 0.0486628,0.042353 0.0528586,0.063332 0.007469,0.037348 0.0530799,0.06725 0.0991351,0.064995 0.0184819,-9.054e-4 0.0525305,-0.00104 0.0756636,-3.044e-4 l 0.0420603,0.00134 -0.005659,0.034873 c -0.004896,0.03017 -9.4474e-4,0.040626 0.0292978,0.077533 0.0192263,0.023463 0.0552083,0.052923 0.0799599,0.065465 0.0247516,0.012543 0.0557078,0.035527 0.0687914,0.051076 0.032947,0.039155 0.079567,0.061652 0.112686,0.054378 0.023335,-0.00513 0.03314,6.039e-4 0.072897,0.042595 l 0.045936,0.048517 h 0.064321 c 0.051127,0 0.069664,-0.0042 0.090364,-0.020485 l 0.026043,-0.020485 0.030458,0.03687 c 0.016752,0.020278 0.036938,0.044458 0.044859,0.053733 0.00974,0.011409 0.032346,0.018072 0.069878,0.0206 0.038391,0.00259 0.062046,0.00972 0.076808,0.023158 0.0463,0.042154 0.061225,0.044496 0.1341485,0.021047 0.052005,-0.016722 0.071143,-0.02798 0.082997,-0.048823 0.019678,-0.0346 0.030022,-0.033764 0.054,0.00436 0.024607,0.039126 0.081511,0.060341 0.1294231,0.048252 0.034976,-0.00883 0.059379,-0.00414 0.1344135,0.025823 0.062841,0.025091 0.08208,0.023408 0.1053098,-0.00922 z M 1.7103523,2.6680894 C 1.6820692,2.658429 1.6539864,2.646555 1.6479461,2.6417027 1.6419058,2.6368504 1.6224482,2.6297738 1.6047071,2.625977 1.524742,2.6088634 1.4687951,2.5733787 1.3813,2.4842797 1.2745962,2.3756199 1.1764205,2.2488768 1.1617218,2.2008081 c -0.00602,-0.019685 -0.014668,-0.044432 -0.019218,-0.054994 -0.01259,-0.02922 -0.023055,-0.1103404 -0.020111,-0.1558993 0.00186,-0.02881 -0.00364,-0.050832 -0.018847,-0.075437 -0.020395,-0.033 -0.020954,-0.038992 -0.011095,-0.1190649 0.018445,-0.1498102 0.083875,-0.3101949 0.1409297,-0.345457 0.01867,-0.011539 0.033946,-0.024109 0.033946,-0.027934 0,-0.00382 0.020995,-0.039116 0.046655,-0.078425 0.052376,-0.080236 0.102624,-0.124861 0.1710045,-0.1518702 0.025502,-0.010073 0.067533,-0.029587 0.093402,-0.043365 0.025869,-0.013778 0.05234,-0.025051 0.058825,-0.025051 0.00648,0 0.044723,-0.013297 0.084974,-0.029549 0.066644,-0.026909 0.076375,-0.028496 0.1088994,-0.017762 0.044188,0.014583 0.1804327,0.014823 0.2169665,3.812e-4 0.023081,-0.00912 0.037472,-0.00635 0.098079,0.018877 0.039066,0.016263 0.080967,0.037387 0.093113,0.046941 0.012146,0.00955 0.03739,0.021598 0.056097,0.026763 0.052441,0.014479 0.1122852,0.056535 0.1296508,0.091111 0.00863,0.01719 0.036385,0.052858 0.061668,0.07926 0.025284,0.026403 0.049153,0.058806 0.053042,0.072007 0.00389,0.013201 0.015146,0.035471 0.025014,0.049487 0.00987,0.014017 0.017942,0.030206 0.017942,0.035976 0,0.00577 0.015122,0.027229 0.033603,0.047686 0.020193,0.022351 0.033603,0.047125 0.033603,0.062078 0,0.013686 0.0089,0.047456 0.019772,0.075045 0.021187,0.053751 0.021844,0.064189 0.01569,0.2492415 -0.00432,0.1297997 -0.0096,0.1470408 -0.083543,0.2725654 -0.015553,0.026403 -0.028379,0.05688 -0.028502,0.067727 -6.221e-4,0.054692 -0.1377181,0.2055034 -0.246459,0.2711152 -0.1150587,0.069424 -0.24678,0.1106001 -0.4061208,0.1269538 -0.050445,0.00518 -0.1068404,0.010994 -0.1253223,0.012925 -0.018482,0.00193 -0.056744,-0.00439 -0.085027,-0.014053 z"
       id="path3813"
       inkscape:connector-curvature="0" />
    <path
       style="fill:#500b45;stroke-width:0.00960096"
       d="M 1.7473747,3.773054 C 1.6790947,3.7642302 1.6652809,3.7618359 1.5169517,3.7331157 1.0744184,3.6474301 0.64874874,3.3768073 0.37938899,3.009901 0.21260223,2.7827138 0.09544021,2.5144112 0.04793531,2.2508676 0.03656852,2.1878079 0.02250336,2.1210921 0.0166794,2.1026103 0.0027169,2.0583015 0.0027169,1.7244768 0.0166794,1.680168 0.02250336,1.6616862 0.03656852,1.5949704 0.04793531,1.5319107 0.09507334,1.2704024 0.21517676,0.99516717 0.37915202,0.77287729 0.65488121,0.39909027 1.0842443,0.12902364 1.5319107,0.0477995 1.5949704,0.03635801 1.6638464,0.02203241 1.6849685,0.01596484 c 0.050668,-0.01455488 0.3621737,-0.01455488 0.4128413,0 0.021122,0.0060676 0.089998,0.02039317 0.1530578,0.03183466 0.4476619,0.08122332 0.8791167,0.35266147 1.1525218,0.72507779 0.1667867,0.22718721 0.2839487,0.49548981 0.3314536,0.75903341 0.011367,0.06306 0.025432,0.1297755 0.031256,0.1482573 0.013963,0.044309 0.013963,0.3781335 0,0.4224423 C 3.760279,2.1210923 3.74621,2.1878083 3.734843,2.2508676 3.6638758,2.644573 3.4378511,3.0390126 3.1308597,3.3048888 2.875349,3.5261791 2.5636797,3.6784572 2.2508676,3.734843 2.1878076,3.74621 2.1232523,3.759373 2.1074108,3.764094 2.0659508,3.776451 1.8208576,3.78255 1.7473747,3.773054 Z M 2.1256992,3.6723673 c 0.041883,-0.028423 0.043483,-0.028573 0.086401,-0.00811 0.030551,0.014569 0.035279,0.014621 0.056635,6.279e-4 0.012816,-0.0084 0.043283,-0.053955 0.067704,-0.1012396 0.024422,-0.047285 0.051281,-0.088611 0.059687,-0.091837 0.028311,-0.010864 0.082566,-0.00598 0.1093558,0.00985 0.037564,0.022189 0.090367,0.010843 0.116966,-0.025134 0.016783,-0.0227 0.027419,-0.027645 0.058543,-0.027215 0.023188,3.197e-4 0.047645,-0.00665 0.062657,-0.017859 0.023771,-0.017747 0.091725,-0.1201609 0.1084262,-0.163408 0.011663,-0.030201 0.069528,-0.039689 0.1097975,-0.018002 0.018131,0.00976 0.045453,0.015184 0.06734,0.013358 0.031276,-0.00261 0.041389,-0.00959 0.067059,-0.046277 0.01772,-0.025326 0.046643,-0.05115 0.069897,-0.062406 0.031854,-0.015419 0.045903,-0.031337 0.071313,-0.080797 0.03386,-0.065908 0.070836,-0.096725 0.1161295,-0.096785 0.034102,-4.8e-5 0.080021,-0.023542 0.092848,-0.047509 0.00544,-0.010159 0.00989,-0.033789 0.00989,-0.052511 0,-0.029949 0.00454,-0.036354 0.037752,-0.053299 0.020764,-0.010593 0.040662,-0.023967 0.044217,-0.02972 0.00996,-0.016119 0.012117,-0.1461376 0.00273,-0.1648112 -0.00592,-0.011781 -0.00271,-0.022205 0.011088,-0.036004 0.02515,-0.02515 0.025794,-0.088228 0.00131,-0.1286998 -0.029471,-0.048723 -0.033033,-0.070081 -0.012583,-0.075429 0.01149,-0.003 0.022321,-0.020626 0.030389,-0.049442 0.00689,-0.024625 0.016264,-0.047077 0.02082,-0.049893 0.015202,-0.00939 0.00846,-0.065993 -0.011832,-0.099272 l -0.020044,-0.03288 0.034482,-0.032532 c 0.018965,-0.017892 0.034482,-0.040131 0.034482,-0.04942 0,-0.00929 -0.025913,-0.04682 -0.057586,-0.083404 -0.051999,-0.060063 -0.055807,-0.067319 -0.039256,-0.074803 0.012148,-0.00549 0.028223,-0.038125 0.047666,-0.096759 0.031734,-0.095702 0.030286,-0.132752 -0.00699,-0.1787828 -0.015894,-0.019628 -0.016134,-0.024529 -0.00299,-0.061072 0.01733,-0.048192 0.00921,-0.088861 -0.020428,-0.1023667 -0.011796,-0.00537 -0.02832,-0.021747 -0.03672,-0.036384 -0.014698,-0.025609 -0.014241,-0.027766 0.012111,-0.05726 0.016477,-0.018441 0.027384,-0.041499 0.027384,-0.057891 0,-0.014984 0.00278,-0.053875 0.00619,-0.086426 l 0.00619,-0.059183 -0.039025,-0.037123 c -0.03605,-0.034293 -0.038625,-0.040101 -0.033787,-0.076175 0.00455,-0.033922 0.00158,-0.042706 -0.022581,-0.066871 C 3.4524522,0.9643256 3.4214852,0.9482579 3.3905462,0.9403285 3.3396352,0.9272804 3.3127352,0.9031661 3.3001432,0.8592881 3.2900792,0.8242191 3.2488062,0.73127554 3.2369582,0.71699933 c -0.00642,-0.007734 -0.024177,-0.0192418 -0.039463,-0.0255737 -0.017726,-0.007342 -0.032888,-0.0242362 -0.041858,-0.0466375 -0.019353,-0.0483323 -0.045713,-0.0694202 -0.094583,-0.0756651 -0.050847,-0.006497 -0.094355,-0.0273745 -0.094355,-0.0452753 0,-0.007323 -0.021713,-0.0393007 -0.048251,-0.0710605 -0.034301,-0.0410504 -0.060801,-0.0625383 -0.091662,-0.0743241 -0.023876,-0.009118 -0.047804,-0.0247862 -0.053172,-0.0348173 -0.014822,-0.0276948 -0.066968,-0.0555386 -0.1040879,-0.0555788 -0.023958,-2.592e-5 -0.041571,-0.008202 -0.063541,-0.0294951 -0.022946,-0.0222406 -0.043108,-0.0311845 -0.082279,-0.0365002 -0.030233,-0.004103 -0.064602,-0.016443 -0.082359,-0.029571 -0.02851,-0.0210782 -0.036577,-0.0221937 -0.1251889,-0.017311 -0.052094,0.002871 -0.1010839,0.001655 -0.1088677,-0.002701 -0.00778,-0.004356 -0.030508,-0.0233453 -0.050498,-0.0421984 -0.03829,-0.0361124 -0.060883,-0.04098379 -0.1102542,-0.0237729 -0.025141,0.008764 -0.037021,0.007173 -0.071671,-0.009601 -0.051158,-0.02476542 -0.051303,-0.02476483 -0.108294,4.45e-4 -0.04322,0.01911843 -0.05168,0.01975238 -0.121322,0.0090914 C 1.7040758,0.10014758 1.6520663,0.08667385 1.6296734,0.07650901 1.5751466,0.05175765 1.5462013,0.05294509 1.507467,0.08152235 1.481366,0.1007792 1.464679,0.10519985 1.421818,0.10421175 1.373741,0.10310375 1.366705,0.10560775 1.34916,0.13007565 1.28909,0.21384665 1.1919284,0.28802883 1.1422779,0.28802883 c -0.026068,0 -0.086317,0.0312137 -0.1092984,0.0566246 -0.01008,0.0111452 -0.0347385,0.0246834 -0.0547979,0.0300848 -0.0351986,0.009478 -0.0860601,0.0501699 -0.11469116,0.091759 -0.0208222,0.0302461 -0.14362039,0.10754176 -0.18182153,0.11444812 -0.0429464,0.007764 -0.0582795,0.0195382 -0.089022,0.0683578 -0.0137298,0.0218032 -0.0404951,0.0492413 -0.0594782,0.0609735 -0.0189832,0.0117323 -0.0426649,0.0370976 -0.052626,0.0563675 -0.0210038,0.0406319 -0.0856897,0.10438599 -0.13682356,0.13485264 -0.0419778,0.0250113 -0.0702495,0.0683594 -0.078008,0.11960741 -0.003749,0.024763 -0.0164109,0.047503 -0.038272,0.068734 -0.0497432,0.04831 -0.0524334,0.086471 -0.0126181,0.1789861 0.0149387,0.034712 0.014681,0.035936 -0.0232481,0.110411 -0.0314651,0.061783 -0.0373243,0.081661 -0.0326202,0.1106683 0.00404,0.024913 -1.5534e-4,0.048672 -0.0142027,0.080428 -0.0260396,0.058867 -0.0253232,0.06878 0.008866,0.1226913 0.0249147,0.039287 0.0288029,0.054464 0.0288029,0.1124357 0,0.03686 -0.007245,0.093078 -0.0161009,0.12493 -0.0133066,0.047861 -0.0141874,0.065748 -0.005075,0.1030654 0.006064,0.024835 0.010926,0.072574 0.0108041,0.1060873 -1.349e-4,0.037094 0.005165,0.069154 0.0135452,0.081945 0.0191542,0.029233 0.0241076,0.1007584 0.0141968,0.2049955 -0.009074,0.095435 -0.002483,0.1223174 0.0392528,0.1600874 0.0137846,0.012475 0.0201849,0.029866 0.0201849,0.054849 0,0.042915 0.0468775,0.1044566 0.0795673,0.1044566 0.031455,0 0.10703924,0.086447 0.14437435,0.1651232 0.0268269,0.056532 0.0409618,0.074851 0.0692648,0.089765 0.0243069,0.012809 0.0410751,0.031455 0.0529885,0.058924 0.0204884,0.04724 0.0558909,0.073453 0.0976002,0.072268 0.0366625,-0.00104 0.0801549,0.020357 0.0940173,0.046259 0.005681,0.010615 0.0281201,0.04309 0.0498649,0.072166 0.0324367,0.043374 0.0471237,0.054777 0.0817908,0.063506 0.0289863,0.0073 0.0503489,0.020847 0.0680314,0.043146 0.0373686,0.047124 0.0915161,0.080111 0.1315015,0.080111 0.026204,0 0.041933,0.0078 0.067733,0.033603 0.018482,0.018482 0.0367,0.03408 0.040484,0.034663 0.041901,0.00645 0.1275852,0.00476 0.1481052,-0.00292 0.030422,-0.011395 0.061626,0.00826 0.097333,0.061305 0.030193,0.044855 0.059441,0.056918 0.1070768,0.044167 0.034758,-0.0093 0.041949,-0.00787 0.075747,0.015064 0.020539,0.013939 0.042057,0.025344 0.047819,0.025344 0.012116,0 0.1044525,-0.034316 0.1420063,-0.052775 0.021565,-0.0106 0.0298,-0.010254 0.052805,0.00222 0.014991,0.00813 0.038439,0.020634 0.052106,0.027795 0.013668,0.00716 0.03311,0.022203 0.043204,0.033427 0.038042,0.042296 0.07455,0.046254 0.1230513,0.01334 z M 1.7857786,2.658118 C 1.7620166,2.653418 1.7286146,2.648398 1.7115526,2.646974 1.6925446,2.645384 1.6683776,2.632863 1.6491466,2.614634 1.6318846,2.598272 1.5877496,2.569157 1.5510676,2.549934 1.4938676,2.519959 1.4831916,2.517096 1.4760696,2.529821 1.4663496,2.547189 1.4512376,2.540363 1.4415746,2.514241 1.437822,2.5040953 1.4047168,2.4732142 1.3680081,2.4456168 1.2933426,2.3894835 1.2208443,2.2923324 1.1944356,2.2130213 1.1856441,2.1866187 1.1730557,2.1585359 1.1664613,2.1506151 1.1598668,2.1426943 1.1520647,2.1146115 1.1491233,2.0882088 1.1380587,1.988895 1.1242125,1.9184437 1.113135,1.9050962 1.0971727,1.8858626 1.101084,1.7657579 1.1198089,1.7001607 1.1350366,1.6468153 1.2268624,1.4809762 1.2533394,1.4590023 c 0.00764,-0.00634 0.03631,-0.048085 0.063709,-0.092762 0.044358,-0.072332 0.1227513,-0.1562886 0.146091,-0.1564569 0.00473,-3.84e-5 0.03929,-0.014505 0.076808,-0.032157 0.037518,-0.017652 0.1085801,-0.047015 0.1579163,-0.06525 0.088932,-0.03287 0.090292,-0.033051 0.1584158,-0.021091 0.087798,0.015414 0.15493,0.015874 0.1951329,0.00134 0.028228,-0.010207 0.035043,-0.00907 0.061079,0.010178 0.016119,0.011917 0.047492,0.027517 0.069719,0.034667 0.059937,0.019281 0.181236,0.071239 0.1971555,0.084451 0.00764,0.00634 0.023971,0.027501 0.036299,0.047029 0.012327,0.019528 0.041983,0.057539 0.065901,0.08447 0.02515,0.028317 0.043487,0.058405 0.043487,0.071352 0,0.012313 0.00756,0.032691 0.016802,0.045284 0.00924,0.012593 0.025312,0.039599 0.035714,0.060012 0.010401,0.020413 0.025523,0.03954 0.033603,0.042504 0.021378,0.00784 0.02878,0.022156 0.028946,0.055974 7.68e-5,0.01649 0.00896,0.049896 0.019722,0.074235 0.022925,0.051825 0.023559,0.066085 0.00861,0.1934121 -0.0062,0.052805 -0.010783,0.1154516 -0.010182,0.139214 8.996e-4,0.035608 -0.00329,0.046777 -0.023802,0.063522 -0.026206,0.021388 -0.060559,0.096058 -0.086708,0.1884675 -0.012884,0.045534 -0.027549,0.067663 -0.083963,0.1266991 -0.063076,0.066008 -0.075392,0.074215 -0.159561,0.1063281 -0.05588,0.02132 -0.097849,0.043587 -0.1083509,0.057487 -0.01741,0.023043 -0.076617,0.048646 -0.091386,0.039518 -0.00445,-0.00275 -0.040179,0.00502 -0.079396,0.017279 -0.083643,0.026138 -0.1786271,0.03543 -0.2393193,0.023413 z M 1.9832422,1.9812258 c 0.0556,-0.060701 0.052756,-0.1298589 -0.00587,-0.1427353 -0.016709,-0.00367 -0.048291,-0.014377 -0.070183,-0.023794 -0.021892,-0.00942 -0.055845,-0.019941 -0.075453,-0.023389 -0.033925,-0.00596 -0.036879,-0.00432 -0.06103,0.033936 -0.019752,0.031289 -0.024156,0.047743 -0.019862,0.074202 0.00705,0.043425 0.026065,0.061309 0.097341,0.091536 0.078484,0.033284 0.096848,0.031958 0.1350574,-0.00976 z"
       id="path3811"
       inkscape:connector-curvature="0" />
    <path
       style="fill:#130a03;stroke-width:0.00960096"
       d="M 1.8073236,2.6542929 C 1.7513413,2.6366974 1.3605818,2.4335642 1.3248034,2.4034586 1.2798883,2.3656651 1.2334142,2.2870482 1.2105355,2.2101599 1.1989567,2.1712469 1.183124,2.1375737 1.1749277,2.1344285 c -0.00959,-0.00368 -0.012851,-0.012763 -0.00931,-0.025942 0.00609,-0.022677 -0.027671,-0.1693027 -0.048225,-0.2094202 -0.00731,-0.014259 -0.013227,-0.048823 -0.013159,-0.076808 1.382e-4,-0.056869 0.031879,-0.1703892 0.05188,-0.185549 0.00715,-0.00542 0.058686,-0.08538 0.1145213,-0.1776877 0.055836,-0.092308 0.117897,-0.1834602 0.1379142,-0.2025603 0.035332,-0.033714 0.1174082,-0.073876 0.2764186,-0.1352601 0.088168,-0.034036 0.096659,-0.034639 0.2427444,-0.017213 0.082537,0.00985 0.110998,0.010255 0.119532,0.00172 0.017739,-0.017739 0.040381,-0.013093 0.050689,0.010401 0.00697,0.01589 0.023442,0.02478 0.062283,0.033618 0.06359,0.01447 0.1677088,0.048398 0.2038579,0.06643 0.014432,0.0072 0.033393,0.027057 0.042136,0.04413 0.00874,0.017072 0.034739,0.055931 0.057768,0.086353 0.02303,0.030422 0.041872,0.06216 0.041872,0.070529 0,0.025562 0.088287,0.1788772 0.1056169,0.1834089 0.010953,0.00286 0.014906,0.011293 0.012123,0.02585 -0.0024,0.012554 0.00903,0.046701 0.027288,0.081536 0.029714,0.056685 0.030798,0.06225 0.020002,0.1026152 -0.00628,0.023474 -0.011415,0.057063 -0.011415,0.074642 0,0.017579 -0.00864,0.057078 -0.019202,0.087774 -0.010561,0.030696 -0.019202,0.063928 -0.019202,0.073848 0,0.00992 -0.00621,0.027606 -0.013794,0.039301 -0.017673,0.027244 -0.082209,0.2079252 -0.082213,0.2301684 -3.9e-6,0.022955 -0.050513,0.091044 -0.088118,0.118788 -0.016891,0.012461 -0.033727,0.027538 -0.037414,0.033504 -0.00369,0.00597 -0.022041,0.012537 -0.040787,0.014603 -0.055568,0.00612 -0.1948047,0.074602 -0.2011686,0.098938 -0.00466,0.017823 -0.01011,0.019995 -0.037407,0.014908 -0.023568,-0.00439 -0.047067,9.149e-4 -0.089557,0.020227 -0.031683,0.0144 -0.079208,0.029135 -0.1056106,0.032745 -0.026403,0.00361 -0.054485,0.00894 -0.062406,0.011836 -0.00792,0.0029 -0.032789,-5.069e-4 -0.055263,-0.00757 z m 0.1783522,-0.660316 c 0.035251,-0.03637 0.051416,-0.082146 0.043314,-0.1226568 -0.00468,-0.023379 -0.01297,-0.030097 -0.051158,-0.041438 -0.025068,-0.00744 -0.058012,-0.019812 -0.073211,-0.027484 -0.033847,-0.017086 -0.1009743,-0.028102 -0.1140419,-0.018716 -0.024329,0.017475 -0.052801,0.071509 -0.052755,0.100117 8.64e-5,0.053886 0.026549,0.083775 0.1007596,0.1138034 0.088742,0.035909 0.1092631,0.035403 0.1470919,-0.00363 z"
       id="path3809"
       inkscape:connector-curvature="0" />
  </g>
</svg>
