<?xml version="1.0" encoding="UTF-8" standalone="no"?>
<!-- Created with Inkscape (http://www.inkscape.org/) -->

<svg
   xmlns:dc="http://purl.org/dc/elements/1.1/"
   xmlns:cc="http://creativecommons.org/ns#"
   xmlns:rdf="http://www.w3.org/1999/02/22-rdf-syntax-ns#"
   xmlns:svg="http://www.w3.org/2000/svg"
   xmlns="http://www.w3.org/2000/svg"
   xmlns:sodipodi="http://sodipodi.sourceforge.net/DTD/sodipodi-0.dtd"
   xmlns:inkscape="http://www.inkscape.org/namespaces/inkscape"
   version="1.1"
   id="svg3739"
   width="113.38583"
   height="113.38583"
   viewBox="0 0 113.38583 113.38583"
   sodipodi:docname="delete.svg"
   inkscape:version="0.92.4 (5da689c313, 2019-01-14)">
  <metadata
     id="metadata3745">
    <rdf:RDF>
      <cc:Work
         rdf:about="">
        <dc:format>image/svg+xml</dc:format>
        <dc:type
           rdf:resource="http://purl.org/dc/dcmitype/StillImage" />
        <dc:title></dc:title>
      </cc:Work>
    </rdf:RDF>
  </metadata>
  <defs
     id="defs3743" />
  <sodipodi:namedview
     pagecolor="#ffffff"
     bordercolor="#666666"
     borderopacity="1"
     objecttolerance="10"
     gridtolerance="10"
     guidetolerance="10"
     inkscape:pageopacity="0"
     inkscape:pageshadow="2"
     inkscape:window-width="1366"
     inkscape:window-height="745"
     id="namedview3741"
     showgrid="false"
     inkscape:zoom="1.9496253"
     inkscape:cx="1.8914439"
     inkscape:cy="1.890427"
     inkscape:window-x="-8"
     inkscape:window-y="-8"
     inkscape:window-maximized="1"
     inkscape:current-layer="svg3739" />
  <g
     id="g3749"
     transform="matrix(29.979815,0,0,29.980984,0.0016433,0.00327133)">
    <path
       style="fill:#c1a9bd;stroke-width:0.00960096"
       d="M 1.6316423,3.7685068 C 1.0990184,3.7001787 0.59294772,3.3801141 0.29554686,2.9234924 0.26459366,2.8759676 0.21155653,2.7809181 0.17768658,2.7122712 0.04920182,2.4518611 7.6717624e-5,2.2248589 -5.4556784e-5,1.8909468 -1.8284424e-4,1.5646325 0.04776188,1.3384156 0.17179577,1.080108 0.36773512,0.67205321 0.6658839,0.37144924 1.0657066,0.17883604 1.3382959,0.04751709 1.558051,-1.0911357e-4 1.8913891,-1.0911357e-4 c 0.3333382,0 0.5530933,0.0476262036 0.8256826,0.17894515357 0.3998227,0.1926132 0.6979715,0.49321717 0.8939109,0.90127196 0.1342866,0.2796597 0.1812582,0.5264551 0.1681698,0.8835886 -0.00701,0.1913706 -0.014259,0.2610867 -0.0388,0.373336 C 3.6865571,2.5830884 3.5278507,2.8910771 3.3392027,3.1155116 3.0842191,3.4188654 2.7205001,3.6437481 2.3363814,3.735543 2.1475204,3.7806761 1.8389952,3.7951072 1.6316423,3.7685068 Z"
       id="path3763"
       inkscape:connector-curvature="0" />
    <path
       style="fill:#5cc189;stroke-width:0.00960096"
       d="M 1.6657666,3.7682397 C 1.1894394,3.6920345 0.85213536,3.5225819 0.53422494,3.199783 0.20093493,2.861368 0.02039798,2.4378024 0.00314601,1.9537954 -0.02381219,1.1974785 0.39481033,0.5076639 1.0780196,0.18259696 1.2704787,0.09102606 1.4522337,0.03844153 1.6604834,0.01408126 2.1741868,-0.04600986 2.6612751,0.09041177 3.0675068,0.40815441 3.4515935,0.70857584 3.7115628,1.1720576 3.7683682,1.6576728 3.8097256,2.0112261 3.7564098,2.3656223 3.6177912,2.6585766 3.3381921,3.2494763 2.8516666,3.6296909 2.2210278,3.7501325 2.0551833,3.7818062 1.8021432,3.7900578 1.6657666,3.7682397 Z M 1.9873988,3.0534756 C 2.1400587,2.9432323 2.2437952,2.8812263 2.4361487,2.7852461 2.6302102,2.6884135 2.6996483,2.6594781 2.737978,2.6594708 c 0.014139,-2.6e-6 0.061663,-0.013203 0.1056106,-0.029334 0.043947,-0.016131 0.087095,-0.03166 0.095883,-0.034508 0.00989,-0.00321 0.01993,0.0022 0.026349,0.014197 0.0089,0.016629 0.00257,0.028667 -0.044628,0.084913 -0.030248,0.036046 -0.080617,0.090393 -0.1119297,0.1207711 -0.031313,0.030378 -0.054906,0.05726 -0.052428,0.059738 0.00932,0.00932 0.120997,-0.052082 0.1810585,-0.099539 C 3.0685565,2.6724674 3.0679663,2.6736208 3.0341526,2.5876443 3.0237285,2.5611396 2.9869054,2.4670201 2.9523233,2.3784898 2.9177412,2.2899596 2.8771687,2.1927498 2.8621622,2.1624682 2.7797483,1.9961653 2.5640815,1.4428253 2.5114055,1.2625263 2.4556968,1.0718466 2.4251732,1.0035948 2.3810381,0.97102066 2.3625563,0.95738002 2.3059096,0.9068177 2.2551567,0.85865995 2.2044037,0.81050221 2.1287961,0.75025541 2.0871399,0.7247782 2.0454836,0.69930098 1.9941194,0.66242207 1.9729973,0.64282506 1.9518752,0.62322805 1.9216407,0.60121438 1.9058095,0.5939058 1.8892853,0.58627727 1.870002,0.56570103 1.8605352,0.54559599 1.8477249,0.51839009 1.8252234,0.4994835 1.7597062,0.46087588 1.71332,0.43354163 1.660246,0.40183068 1.6417642,0.39040711 c -0.028551,-0.0176476 -0.047315,-0.020667 -0.1248125,-0.0200839 -0.050165,3.7742e-4 -0.1288649,0.004218 -0.1748886,0.008534 l -0.08368,0.007847 -0.014828,0.0446417 C 1.2237553,0.49096002 1.1072911,0.66712402 1.0383727,0.74170645 0.97164808,0.81391487 0.90642796,0.89980166 0.86903481,0.96470342 0.8398647,1.0153328 0.79456808,1.15377 0.77315799,1.2577258 c -0.007069,0.034323 -0.0174838,0.073207 -0.0231439,0.086409 -0.0337065,0.078615 -0.0765053,0.308175 -0.0877095,0.4704471 -0.004557,0.066007 -0.0135404,0.1724448 -0.0199621,0.2365294 -0.009864,0.098436 -0.009525,0.1230193 0.002185,0.1584159 0.008515,0.025739 0.0860798,0.138176 0.20110748,0.2915233 0.10298566,0.1372937 0.20798683,0.2810405 0.23333583,0.3194372 0.025349,0.038397 0.058681,0.076324 0.07407,0.084282 0.029654,0.015334 0.068804,0.069936 0.078822,0.1099322 0.00732,0.029218 0.087452,0.076808 0.1293302,0.076808 0.032799,0 0.1056324,-0.060456 0.3189743,-0.2647643 0.071287,-0.068269 0.159856,-0.1440712 0.1968197,-0.1684501 0.1577298,-0.1040282 0.1864837,-0.1208004 0.2414667,-0.1408483 0.031853,-0.011614 0.065751,-0.029776 0.075329,-0.040359 0.00958,-0.010583 0.02224,-0.019242 0.028139,-0.019242 0.0059,0 0.025752,-0.012207 0.044117,-0.027126 0.042038,-0.034151 0.066994,-0.043958 0.066994,-0.026326 0,0.00723 -0.016202,0.022836 -0.036004,0.034673 -0.035826,0.021415 -0.030387,0.038896 0.00604,0.019402 0.024208,-0.012956 0.049168,-0.013172 0.049168,-4.243e-4 0,0.00539 -0.019639,0.023642 -0.043643,0.040561 -0.02677,0.018869 -0.086076,0.086537 -0.1533932,0.1750198 -0.060362,0.079341 -0.1379326,0.1783924 -0.1723783,0.2201138 -0.044527,0.053932 -0.062628,0.083721 -0.062628,0.103066 0,0.014965 -0.012961,0.048274 -0.028803,0.07402 -0.030304,0.04925 -0.037165,0.074829 -0.016802,0.062637 0.0066,-0.00395 0.057366,-0.039946 0.1128113,-0.079986 z M 1.4823882,2.0027603 c -0.028642,-0.028642 -0.032643,-0.038683 -0.032643,-0.081909 0,-0.032091 0.00444,-0.050971 0.012746,-0.054157 0.017564,-0.00674 0.064439,0.01223 0.090465,0.03661 0.028321,0.02653 0.02958,0.085719 0.0024,0.1128983 -0.026097,0.026097 -0.035084,0.024442 -0.072967,-0.013441 z m -0.2206453,0.00482 c -0.041276,-0.018746 -0.048944,-0.033306 -0.095338,-0.1810004 -0.00871,-0.027723 -0.019237,-0.050405 -0.023398,-0.050405 -0.00416,0 -0.00975,0.016299 -0.012423,0.03622 -0.013141,0.097975 -0.077298,0.1836045 -0.1280246,0.170873 C 0.9619408,1.9730729 0.9569034,1.9411639 0.9701689,1.7780875 L 0.9821188,1.6311847 0.9519057,1.6000127 c -0.0380203,-0.039227 -0.038136,-0.064695 -4.6891e-4,-0.1032281 0.0242714,-0.024829 0.0286877,-0.03571 0.0240023,-0.059137 -0.003158,-0.01579 -0.005742,-0.052684 -0.005742,-0.081988 v -0.053279 l -0.0234709,0.02205 c -0.0295844,0.027793 -0.0689736,0.020728 -0.0824793,-0.014795 -0.0345863,-0.090969 0.049002,-0.1573273 0.21882091,-0.1737158 0.054096,-0.00522 0.066977,-0.00266 0.1296129,0.025753 0.090238,0.040936 0.1262028,0.068313 0.1549809,0.1179783 0.027601,0.047634 0.030251,0.097257 0.00883,0.1652912 -0.01883,0.059793 -0.034166,0.077554 -0.092513,0.1071416 -0.043856,0.02224 -0.045938,0.025053 -0.040075,0.054168 0.00834,0.041399 0.062102,0.1554786 0.1045489,0.2218339 0.027464,0.042933 0.034527,0.063431 0.034285,0.099491 -3.255e-4,0.048378 -0.010958,0.0691 -0.044668,0.087054 -0.026927,0.014341 -0.029184,0.014131 -0.075822,-0.00705 z m -0.053495,-0.584238 c 0.010921,-0.00924 0.022667,-0.028674 0.026102,-0.043185 0.00508,-0.021475 7.374e-4,-0.031529 -0.023363,-0.054042 -0.031076,-0.029029 -0.076871,-0.043931 -0.091475,-0.029767 -0.00473,0.00459 -0.00987,0.034428 -0.011432,0.06631 -0.00226,0.046297 4.369e-4,0.059873 0.013401,0.067435 0.025334,0.014776 0.064971,0.011692 0.086766,-0.00675 z m 0.621441,0.5609743 c -0.013718,-0.010042 -0.019591,-0.028673 -0.022734,-0.072126 -0.00394,-0.054457 -0.00262,-0.059325 0.018768,-0.069068 0.030327,-0.013818 0.072879,0.0021 0.083634,0.031293 0.019434,0.052744 0.020206,0.07273 0.00357,0.092388 -0.022378,0.026442 -0.060177,0.034395 -0.083238,0.017514 z M 1.6273182,1.9470772 C 1.586001,1.8352582 1.5695891,1.760244 1.5363527,1.531302 1.4968644,1.2592953 1.4963706,1.2195734 1.5319884,1.1802162 c 0.010235,-0.011309 0.029346,-0.0185 0.049166,-0.0185 0.036214,0 0.092975,0.020865 0.1036212,0.038092 0.00382,0.00619 0.013208,0.066033 0.020855,0.1329928 0.00765,0.06696 0.021794,0.1692695 0.031437,0.2273553 0.00964,0.058086 0.017591,0.1142515 0.017662,0.1248125 6.72e-5,0.010561 0.00303,0.064566 0.00657,0.120012 0.00854,0.1335388 0.00159,0.1477267 -0.074288,0.1516977 -0.038589,0.00202 -0.056465,-8.555e-4 -0.059697,-0.0096 z M 1.969841,1.9406172 C 1.943121,1.9236772 1.8676776,1.2192483 1.885134,1.1496943 c 0.0054,-0.021524 0.01236,-0.024714 0.066152,-0.030323 0.1759799,-0.01835 0.1881857,-0.018183 0.2451356,0.00335 0.122952,0.046482 0.1750151,0.1098495 0.1750151,0.2130141 0,0.1081997 -0.099243,0.2389303 -0.1930955,0.2543597 -0.062619,0.010295 -0.061803,0.00789 -0.049019,0.1446829 0.00632,0.067658 0.014038,0.1321012 0.017146,0.1432075 0.00376,0.013425 -0.00206,0.029154 -0.017348,0.046929 -0.021677,0.025201 -0.024999,0.026075 -0.057887,0.015221 -0.025052,-0.00827 -0.040259,-0.00864 -0.053931,-0.00132 -0.022767,0.012185 -0.030623,0.012484 -0.047462,0.00181 z M 2.1741046,1.3856497 c 0.034503,-0.016453 0.061879,-0.067901 0.048044,-0.090287 -0.00978,-0.01582 -0.1208472,-0.066423 -0.1458118,-0.066432 -0.015454,-5.5e-6 -0.025394,0.00938 -0.035463,0.033473 -0.012366,0.029596 -0.012247,0.038594 0.00102,0.077544 0.021023,0.0617 0.066031,0.077259 0.1322062,0.045702 z"
       id="path3761"
       inkscape:connector-curvature="0" />
    <path
       style="fill:#857892;stroke-width:0.00960096"
       d="m 1.8169817,3.7756418 c 0.040924,-0.0018 0.1078908,-0.0018 0.1488149,0 0.040924,0.0018 0.00744,0.00327 -0.074407,0.00327 -0.081848,0 -0.1153315,-0.00147 -0.074408,-0.00327 z M 1.6993699,3.7528518 C 1.4560543,3.7284839 1.1285264,3.6238911 0.96969698,3.5198381 0.95121513,3.5077302 0.91087284,3.4830906 0.88004745,3.4650835 0.84922206,3.4470763 0.80242464,3.4139814 0.77605317,3.3915392 0.72376691,3.3470433 0.7066252,3.338703 0.73538566,3.3717522 l 0.0182897,0.021017 -0.0310069,-0.021531 C 0.63136875,3.3078397 0.44514692,3.1153624 0.35806664,2.9943885 0.29368373,2.9049465 0.19325127,2.7343555 0.15785146,2.6543102 0.09384573,2.5095819 0.02260039,2.256035 0.03230439,2.207515 0.03508703,2.1936017 0.03317502,2.1780296 0.02805547,2.1729099 0.01426482,2.1591193 1.5584989e-4,2.0171454 7.2864183e-5,1.8913303 -4.0988736e-4,1.1594275 0.41758944,0.49682573 1.0780196,0.18259696 1.2704787,0.09102606 1.4522337,0.03844153 1.6604834,0.01408126 2.1741868,-0.04600986 2.6612751,0.09041177 3.0675068,0.40815441 3.4515935,0.70857584 3.7115628,1.1720576 3.7683682,1.6576728 c 0.02705,0.2312455 0.00876,0.5612894 -0.034126,0.615811 -0.015277,0.019421 -0.018347,0.03305 -0.013674,0.060709 0.00463,0.027397 -0.00314,0.063082 -0.033513,0.1539225 -0.021746,0.065041 -0.045734,0.1217239 -0.053305,0.1259611 -0.00757,0.00424 -0.038201,0.055474 -0.068067,0.1138607 C 3.372892,3.1048411 3.0851371,3.3895324 2.7122712,3.5722631 2.4011147,3.7247519 2.0477889,3.7877458 1.6993699,3.7528518 Z M 1.8560167,3.1767447 c 0.011534,-0.00593 0.032059,-0.021095 0.04561,-0.03371 0.013552,-0.012615 0.050275,-0.031869 0.081608,-0.042787 0.031333,-0.010918 0.076411,-0.032009 0.1001732,-0.04687 0.023762,-0.014861 0.051845,-0.029782 0.062406,-0.033159 0.010561,-0.00338 0.027901,-0.020041 0.038533,-0.037031 0.012243,-0.019564 0.02847,-0.031958 0.044254,-0.033799 0.014553,-0.0017 0.030084,-0.012552 0.037329,-0.02609 0.00682,-0.01275 0.028485,-0.033822 0.048136,-0.046826 0.047415,-0.031378 0.3086686,-0.1614174 0.369402,-0.1838709 0.026403,-0.00976 0.050165,-0.02013 0.052805,-0.023041 0.00385,-0.00424 0.1027065,-0.040128 0.2031984,-0.073762 0.00999,-0.00334 0.019864,0.00191 0.026349,0.014027 0.0089,0.016634 0.00257,0.028639 -0.044782,0.084855 -0.069004,0.081926 -0.2012671,0.2144104 -0.2140519,0.2144104 -0.00528,0 -0.013468,0.010195 -0.018206,0.022656 -0.00474,0.012461 -0.040553,0.048104 -0.079589,0.079208 -0.1183375,0.09429 -0.1217894,0.1104556 -0.011061,0.051802 0.052216,-0.027659 0.1284035,-0.067807 0.1693055,-0.089217 0.040902,-0.02141 0.072297,-0.040997 0.069767,-0.043527 -0.00253,-0.00253 -0.018353,-0.00503 -0.035163,-0.00556 C 2.7732569,2.9235481 2.748621,2.89949 2.7764784,2.89949 c 0.016206,0 0.1431382,-0.076313 0.1960318,-0.1178564 0.021679,-0.017027 0.047022,-0.035384 0.056318,-0.040794 0.026154,-0.015219 0.028987,-0.093095 0.00555,-0.1526409 -0.01055,-0.02681 -0.047477,-0.121179 -0.082059,-0.2097093 -0.034582,-0.08853 -0.075155,-0.18574 -0.090161,-0.2160216 C 2.7797483,1.9961653 2.5640815,1.4428253 2.5114055,1.2625263 2.4556968,1.0718466 2.4251732,1.0035948 2.3810381,0.97102066 2.3625563,0.95738002 2.3059096,0.9068177 2.2551567,0.85865995 2.2044037,0.81050221 2.1287961,0.75025541 2.0871399,0.7247782 2.0454836,0.69930098 1.9941194,0.66242207 1.9729973,0.64282506 1.9518752,0.62322805 1.9216407,0.60121438 1.9058095,0.5939058 1.8892853,0.58627727 1.870002,0.56570103 1.8605352,0.54559599 1.8477249,0.51839009 1.8252234,0.4994835 1.7597062,0.46087588 1.71332,0.43354163 1.660246,0.40183068 1.6417642,0.39040711 c -0.028551,-0.0176476 -0.047315,-0.020667 -0.1248125,-0.0200839 -0.050165,3.7742e-4 -0.1288649,0.004218 -0.1748886,0.008534 l -0.08368,0.007847 -0.014828,0.0446417 C 1.2237553,0.49096002 1.1072911,0.66712402 1.0383727,0.74170645 0.97164808,0.81391487 0.90642796,0.89980166 0.86903481,0.96470342 0.8398647,1.0153328 0.79456808,1.15377 0.77315799,1.2577258 c -0.007069,0.034323 -0.0174838,0.073207 -0.0231439,0.086409 -0.0337603,0.078741 -0.0765438,0.3083935 -0.0876427,0.4704471 -0.004521,0.066007 -0.0134415,0.1704359 -0.019824,0.2320652 -0.008232,0.07949 -0.008716,0.1234337 -0.001664,0.1512151 0.005933,0.023374 0.006345,0.039162 0.001022,0.039162 -0.0156221,0 0.01026,0.037876 0.18360761,0.2686949 0.0932495,0.124165 0.1902635,0.2572479 0.2155867,0.2957399 0.046818,0.071164 0.095816,0.1268343 0.1116333,0.1268343 0.011763,0 0.052371,0.065747 0.060197,0.097463 0.0081,0.032815 0.095257,0.083188 0.1634557,0.094466 0.027146,0.00449 0.05649,0.010965 0.065209,0.014391 0.018214,0.00716 0.027828,-0.00503 0.1281612,-0.1624385 0.010561,-0.016569 0.071047,-0.080041 0.1344134,-0.1410486 0.1241132,-0.119494 0.2987041,-0.2429934 0.4032404,-0.2852379 0.031683,-0.012804 0.068541,-0.030991 0.081907,-0.040416 0.017525,-0.012358 0.028924,-0.01455 0.04088,-0.00786 0.00912,0.0051 0.021414,0.00629 0.027323,0.00264 0.015062,-0.00931 -0.2089788,0.2832119 -0.2837171,0.3704373 -0.033934,0.039604 -0.064636,0.084313 -0.068226,0.099355 -0.00359,0.015041 -0.023373,0.060286 -0.043961,0.1005447 -0.033275,0.065066 -0.04747,0.1169323 -0.032002,0.1169323 0.00299,0 0.014869,-0.00485 0.026403,-0.010774 z m -0.00303,-0.051065 c 0,-0.00761 0.00392,-0.016256 0.00871,-0.019215 0.00479,-0.00296 0.00644,0.00327 0.00368,0.013835 -0.00586,0.022418 -0.012386,0.025252 -0.012386,0.00538 z M 1.4823882,2.0027603 c -0.028642,-0.028642 -0.032643,-0.038683 -0.032643,-0.081909 0,-0.032091 0.00444,-0.050971 0.012746,-0.054157 0.017564,-0.00674 0.064439,0.01223 0.090465,0.03661 0.028321,0.02653 0.02958,0.085719 0.0024,0.1128983 -0.026097,0.026097 -0.035084,0.024442 -0.072967,-0.013441 z m -0.2206453,0.00482 c -0.041276,-0.018746 -0.048944,-0.033306 -0.095338,-0.1810004 -0.00871,-0.027723 -0.019237,-0.050405 -0.023398,-0.050405 -0.00416,0 -0.00975,0.016299 -0.012423,0.03622 -0.013141,0.097975 -0.077298,0.1836045 -0.1280246,0.170873 C 0.9619408,1.9730729 0.9569034,1.9411639 0.9701689,1.7780875 L 0.9821188,1.6311847 0.9519057,1.6000127 c -0.0380203,-0.039227 -0.038136,-0.064695 -4.6891e-4,-0.1032281 0.0242714,-0.024829 0.0286877,-0.03571 0.0240023,-0.059137 -0.003158,-0.01579 -0.005742,-0.052684 -0.005742,-0.081988 v -0.053279 l -0.0234709,0.02205 c -0.0295844,0.027793 -0.0689736,0.020728 -0.0824793,-0.014795 -0.0345863,-0.090969 0.049002,-0.1573273 0.21882091,-0.1737158 0.054096,-0.00522 0.066977,-0.00266 0.1296129,0.025753 0.090238,0.040936 0.1262028,0.068313 0.1549809,0.1179783 0.027601,0.047634 0.030251,0.097257 0.00883,0.1652912 -0.01883,0.059793 -0.034166,0.077554 -0.092513,0.1071416 -0.043856,0.02224 -0.045938,0.025053 -0.040075,0.054168 0.00834,0.041399 0.062102,0.1554786 0.1045489,0.2218339 0.027464,0.042933 0.034527,0.063431 0.034285,0.099491 -3.255e-4,0.048378 -0.010958,0.0691 -0.044668,0.087054 -0.026927,0.014341 -0.029184,0.014131 -0.075822,-0.00705 z m -0.053495,-0.584238 c 0.010921,-0.00924 0.022667,-0.028674 0.026102,-0.043185 0.00508,-0.021475 7.374e-4,-0.031529 -0.023363,-0.054042 -0.031076,-0.029029 -0.076871,-0.043931 -0.091475,-0.029767 -0.00473,0.00459 -0.00987,0.034428 -0.011432,0.06631 -0.00226,0.046297 4.369e-4,0.059873 0.013401,0.067435 0.025334,0.014776 0.064971,0.011692 0.086766,-0.00675 z m 0.621441,0.5609743 c -0.013718,-0.010042 -0.019591,-0.028673 -0.022734,-0.072126 -0.00394,-0.054457 -0.00262,-0.059325 0.018768,-0.069068 0.030327,-0.013818 0.072879,0.0021 0.083634,0.031293 0.019434,0.052744 0.020206,0.07273 0.00357,0.092388 -0.022378,0.026442 -0.060177,0.034395 -0.083238,0.017514 z M 1.6273182,1.9470772 C 1.586001,1.8352582 1.5695891,1.760244 1.5363527,1.531302 1.4968644,1.2592953 1.4963706,1.2195734 1.5319884,1.1802162 c 0.010235,-0.011309 0.029346,-0.0185 0.049166,-0.0185 0.036214,0 0.092975,0.020865 0.1036212,0.038092 0.00382,0.00619 0.013208,0.066033 0.020855,0.1329928 0.00765,0.06696 0.021794,0.1692695 0.031437,0.2273553 0.00964,0.058086 0.017591,0.1142515 0.017662,0.1248125 6.72e-5,0.010561 0.00303,0.064566 0.00657,0.120012 0.00854,0.1335388 0.00159,0.1477267 -0.074288,0.1516977 -0.038589,0.00202 -0.056465,-8.555e-4 -0.059697,-0.0096 z M 1.969841,1.9406172 C 1.943121,1.9236772 1.8676776,1.2192483 1.885134,1.1496943 c 0.0054,-0.021524 0.01236,-0.024714 0.066152,-0.030323 0.1759799,-0.01835 0.1881857,-0.018183 0.2451356,0.00335 0.122952,0.046482 0.1750151,0.1098495 0.1750151,0.2130141 0,0.1081997 -0.099243,0.2389303 -0.1930955,0.2543597 -0.062619,0.010295 -0.061803,0.00789 -0.049019,0.1446829 0.00632,0.067658 0.014038,0.1321012 0.017146,0.1432075 0.00376,0.013425 -0.00206,0.029154 -0.017348,0.046929 -0.021677,0.025201 -0.024999,0.026075 -0.057887,0.015221 -0.025052,-0.00827 -0.040259,-0.00864 -0.053931,-0.00132 -0.022767,0.012185 -0.030623,0.012484 -0.047462,0.00181 z M 2.1741046,1.3856497 c 0.034503,-0.016453 0.061879,-0.067901 0.048044,-0.090287 -0.00978,-0.01582 -0.1208472,-0.066423 -0.1458118,-0.066432 -0.015454,-5.5e-6 -0.025394,0.00938 -0.035463,0.033473 -0.012366,0.029596 -0.012247,0.038594 0.00102,0.077544 0.021023,0.0617 0.066031,0.077259 0.1322062,0.045702 z"
       id="path3759"
       inkscape:connector-curvature="0" />
    <path
       style="fill:#47c57c;stroke-width:0.00960096"
       d="m 1.8361836,3.7756833 c 0.030363,-0.00191 0.080048,-0.00191 0.1104111,0 0.030363,0.00191 0.00552,0.00346 -0.055206,0.00346 -0.060726,0 -0.085568,-0.00156 -0.055205,-0.00346 z M 1.6993699,3.7528518 C 1.3914055,3.7220093 1.0373814,3.5886238 0.81047085,3.4179418 0.78590045,3.39946 0.743628,3.3681646 0.71653206,3.3483965 0.64232414,3.2942575 0.44684659,3.0967442 0.38227169,3.0106551 0.32624541,2.9359627 0.21787299,2.7588481 0.17032422,2.6642664 0.11809776,2.5603801 0.0386801,2.2981104 0.03849142,2.2289004 0.03844322,2.2112313 0.0310011,2.1723474 0.02195331,2.1424918 0.00862587,2.0985143 0.00560403,2.050843 0.00603614,1.8913891 0.00650139,1.7197003 0.0097862,1.6780199 0.0317621,1.5649565 0.1096011,1.1644841 0.28516931,0.82861717 0.55923115,0.55589342 0.83421381,0.28225333 1.1661078,0.10890948 1.5617505,0.03229074 1.6791676,0.00955217 1.717393,0.0065695 1.8913891,0.0065695 c 0.1739962,0 0.2122216,0.00298267 0.3296387,0.02572124 0.3956427,0.07661874 0.7275367,0.24996259 1.0025193,0.52360268 0.2741032,0.27276489 0.4498282,0.60896958 0.5274095,1.00906308 0.043847,0.2261207 0.032924,0.6062255 -0.020383,0.7093092 -0.00825,0.015956 -0.015002,0.046587 -0.015002,0.068069 0,0.046906 -0.060224,0.2383227 -0.085063,0.2703661 -0.0097,0.012519 -0.040625,0.067678 -0.068711,0.1225742 C 3.3727183,3.1048371 3.0823937,3.3908769 2.7122712,3.5722631 2.4011147,3.7247519 2.0477889,3.7877458 1.6993699,3.7528518 Z M 1.8560167,3.1767447 c 0.011534,-0.00593 0.032059,-0.021095 0.04561,-0.03371 0.013552,-0.012615 0.050275,-0.031869 0.081608,-0.042787 0.031333,-0.010918 0.076411,-0.032009 0.1001732,-0.04687 0.023762,-0.014861 0.051845,-0.029782 0.062406,-0.033159 0.010561,-0.00338 0.027901,-0.020041 0.038533,-0.037031 0.012243,-0.019564 0.02847,-0.031958 0.044254,-0.033799 0.014553,-0.0017 0.030084,-0.012552 0.037329,-0.02609 0.016953,-0.031677 0.059857,-0.058497 0.226699,-0.1417102 0.15809,-0.078848 0.1959551,-0.093587 0.3009838,-0.117152 0.039458,-0.00885 0.086361,-0.022205 0.1042302,-0.029671 0.043878,-0.018333 0.056494,-0.00763 0.027532,0.023354 -0.013031,0.013942 -0.030594,0.039033 -0.039027,0.055758 -0.00843,0.016725 -0.05203,0.063994 -0.096881,0.1050418 -0.044851,0.041048 -0.0882,0.088652 -0.096331,0.1057868 -0.00813,0.017134 -0.046314,0.056274 -0.084852,0.086977 -0.1174514,0.093574 -0.1206371,0.1095975 -0.010154,0.051074 0.052216,-0.027659 0.1284035,-0.067807 0.1693055,-0.089217 0.040902,-0.02141 0.072297,-0.040997 0.069767,-0.043527 -0.00253,-0.00253 -0.018353,-0.00503 -0.035163,-0.00556 -0.044537,-0.0014 -0.042843,-0.017663 0.00388,-0.037261 0.022421,-0.0094 0.064527,-0.034152 0.09357,-0.054994 0.029043,-0.020842 0.072881,-0.05132 0.097418,-0.067728 0.031997,-0.021397 0.049041,-0.041427 0.060271,-0.070832 0.017216,-0.045081 0.021583,-0.028547 -0.066765,-0.252783 -0.013044,-0.033108 -0.023717,-0.064431 -0.023717,-0.069607 0,-0.022328 0.028253,-0.00639 0.051835,0.029249 0.026116,0.039464 0.086388,0.073512 0.1699761,0.09602 0.035581,0.00958 0.039261,0.00845 0.069744,-0.021478 0.07241,-0.07109 0.071708,-0.1606748 -0.00257,-0.3276256 -0.046138,-0.1037063 -0.049981,-0.1177195 -0.044067,-0.1607163 0.00612,-0.044482 0.00509,-0.047631 -0.018411,-0.056567 -0.017411,-0.00662 -0.02489,-0.016511 -0.02489,-0.032918 0,-0.032094 -0.00937,-0.053828 -0.023195,-0.053828 -0.034595,0 -0.04669,-0.025658 -0.054065,-0.1146945 -0.00823,-0.099357 -0.016385,-0.1160611 -0.042547,-0.087152 -0.00967,0.010686 -0.026044,0.019429 -0.036386,0.019429 -0.022135,0 -0.023571,-0.012681 0.024465,0.2160216 0.077021,0.3667056 0.077032,0.3668585 0.024406,0.3563333 -0.020883,-0.00418 -0.035385,-0.00137 -0.046942,0.00909 -0.014273,0.012917 -0.022486,0.013407 -0.05607,0.00335 C 2.9240462,2.2355885 2.9142421,2.2259257 2.8866888,2.1754895 2.8156522,2.0454574 2.5960249,1.4931092 2.5249585,1.2657613 2.4811364,1.1255703 2.4792397,1.0853972 2.5181024,1.1205442 c 0.024961,0.022574 0.075756,0.041172 0.1124523,0.041172 0.018752,0 0.029069,-0.00711 0.037655,-0.025954 0.018882,-0.041441 0.023569,-0.1129216 0.011445,-0.17454746 -0.0083,-0.0421975 -0.00851,-0.0740383 -7.959e-4,-0.12232092 0.01153,-0.0721753 0.019992,-0.0874397 0.050912,-0.0918424 0.02749,-0.003914 0.023471,-0.0247295 -0.016938,-0.0877206 -0.053455,-0.0833274 -0.075475,-0.0948043 -0.2598892,-0.1354559 -0.06331,-0.0139558 -0.1351001,-0.0323488 -0.1595341,-0.0408734 -0.04335,-0.0151241 -0.044977,-0.0149767 -0.067207,0.006088 -0.020377,0.0193093 -0.030127,0.0211368 -0.092388,0.017316 l -0.069607,-0.004272 -3.84e-5,0.0249607 c -3.84e-5,0.0296929 -0.032131,0.0855764 -0.053945,0.0939471 -0.02633,0.0101038 -0.1181982,-0.0456169 -0.1378976,-0.0836391 -0.012876,-0.024852 -0.040859,-0.0478299 -0.1052298,-0.0864086 -0.048227,-0.0289047 -0.1015574,-0.0611948 -0.1185103,-0.0717559 -0.026146,-0.0162879 -0.046851,-0.0191135 -0.136434,-0.0186192 -0.1438638,7.9379e-4 -0.2553091,0.0147242 -0.26417,0.0330206 -0.00384,0.007921 -0.01638,0.0354625 -0.027875,0.0612039 C 1.1883698,0.5259104 1.100761,0.65411235 1.0341206,0.72700443 0.9575034,0.81080931 0.88301724,0.91250279 0.84975272,0.97871583 0.82047263,1.0369978 0.78251554,1.154701 0.76365385,1.2457047 c -0.006838,0.032992 -0.0171251,0.071876 -0.0228601,0.086409 -0.0373494,0.094644 -0.0877493,0.3733038 -0.08813,0.4872686 -1.4114e-4,0.042244 -0.00434,0.094089 -0.00933,0.1152116 -0.0177097,0.074955 -0.0224989,0.2560569 -0.007871,0.2976442 0.007432,0.02113 0.0913816,0.1421021 0.18655427,0.2688269 0.0951727,0.1267247 0.19376018,0.2619019 0.21908338,0.3003939 0.046818,0.071164 0.095816,0.1268343 0.1116333,0.1268343 0.011763,0 0.052371,0.065747 0.060197,0.097463 0.0081,0.032815 0.095257,0.083188 0.1634557,0.094466 0.027146,0.00449 0.05649,0.010965 0.065209,0.014391 0.018214,0.00716 0.027828,-0.00503 0.1281612,-0.1624385 0.010561,-0.016569 0.071047,-0.080041 0.1344134,-0.1410486 0.1241132,-0.119494 0.2987041,-0.2429934 0.4032404,-0.2852379 0.031683,-0.012804 0.068541,-0.030991 0.081907,-0.040416 0.017525,-0.012358 0.028924,-0.01455 0.04088,-0.00786 0.00912,0.0051 0.021414,0.00629 0.027323,0.00264 0.015062,-0.00931 -0.2089788,0.2832119 -0.2837171,0.3704373 -0.033934,0.039604 -0.064636,0.084313 -0.068226,0.099355 -0.00359,0.015041 -0.023373,0.060286 -0.043961,0.1005447 -0.033275,0.065066 -0.04747,0.1169323 -0.032002,0.1169323 0.00299,0 0.014869,-0.00485 0.026403,-0.010774 z M 1.4846232,1.9871629 c -0.032939,-0.039146 -0.036458,-0.1053747 -0.0056,-0.1053747 0.058392,0 0.098264,0.052165 0.079917,0.1045586 -0.012815,0.036596 -0.043924,0.036938 -0.074319,8.161e-4 z m -0.2279844,0.00503 c -0.024254,-0.013182 -0.043972,-0.055327 -0.07636,-0.1632134 -0.01487,-0.049534 -0.036059,-0.091209 -0.046372,-0.091209 -0.00446,0 -0.010925,0.024842 -0.014361,0.055206 -0.00663,0.058598 -0.040601,0.1427931 -0.066132,0.1639101 -0.00844,0.00698 -0.027338,0.011303 -0.041991,0.0096 C 0.9758365,1.9623566 0.9679343,1.9233756 0.9796525,1.8097772 0.9951366,1.6596699 0.992399,1.6195931 0.9648962,1.5937556 c -0.0310093,-0.029132 -0.0310093,-0.066878 0,-0.09601 0.0222535,-0.020906 0.0240024,-0.029032 0.0240024,-0.111518 0,-0.053044 -0.004164,-0.091542 -0.0103117,-0.095342 -0.005671,-0.00351 -0.0204075,0.00311 -0.0327468,0.014704 -0.028058,0.026359 -0.0538956,0.022044 -0.0700701,-0.011703 -0.0105106,-0.02193 -0.0101145,-0.030552 0.002527,-0.054998 0.008245,-0.015945 0.0249659,-0.035526 0.0371566,-0.043514 0.0292157,-0.019143 0.1036513,-0.03998 0.1702655,-0.047664 0.049345,-0.00569 0.060207,-0.00304 0.1363477,0.033314 0.085109,0.040633 0.1358926,0.085536 0.1470598,0.1300291 0.00904,0.036017 -1.863e-4,0.1298858 -0.015964,0.1624292 -0.00761,0.015698 -0.039086,0.04525 -0.069945,0.06567 -0.054926,0.036346 -0.055975,0.037869 -0.049822,0.072268 0.00794,0.044409 0.047978,0.1313381 0.09954,0.2161391 0.043679,0.071835 0.051355,0.1201508 0.025056,0.1576985 -0.017502,0.024987 -0.062473,0.028064 -0.1013527,0.00693 z m -0.03208,-0.5660174 c 0.043005,-0.043005 0.026017,-0.1034294 -0.037559,-0.1335982 -0.04182,-0.019845 -0.07915,-0.020046 -0.086663,-4.666e-4 -0.00321,0.00835 -0.00583,0.042701 -0.00583,0.076331 0,0.069636 0.00941,0.080522 0.070043,0.081008 0.026147,2.093e-4 0.043096,-0.00636 0.060006,-0.023274 z m 0.6021757,0.5348203 c -0.00355,-0.00924 -0.00665,-0.036242 -0.0069,-0.060006 -4.339e-4,-0.041363 8.113e-4,-0.043331 0.029167,-0.046098 0.017382,-0.0017 0.034433,0.00291 0.041269,0.011144 0.018059,0.02176 0.024588,0.080645 0.010786,0.097275 -0.01683,0.02028 -0.066243,0.01874 -0.074323,-0.00232 z M 1.6311041,1.9134947 C 1.5855896,1.7976099 1.5784464,1.7598469 1.5250572,1.3528719 1.5068124,1.2137956 1.5309777,1.1622714 1.6077,1.1766646 c 0.060215,0.011296 0.068633,0.026178 0.081156,0.1434674 0.0062,0.058086 0.019316,0.1509751 0.029142,0.2064207 0.024646,0.1390713 0.041673,0.3438414 0.031533,0.3792379 -0.00764,0.026672 -0.011935,0.029018 -0.058055,0.031707 -0.046783,0.00273 -0.050445,0.00127 -0.060372,-0.024003 z m 0.3370927,0.010102 c 0,-0.00195 -0.00847,-0.065086 -0.018825,-0.1402928 C 1.9278931,1.6272932 1.916498,1.5166859 1.9004125,1.3080821 1.8884545,1.153004 1.892339,1.129938 1.928807,1.1394745 c 0.00963,0.00252 0.040499,-0.00225 0.068596,-0.010592 0.074309,-0.022067 0.1335538,-0.019116 0.2070712,0.010315 0.145703,0.058329 0.1927986,0.1730407 0.1263257,0.3076943 -0.03275,0.066341 -0.1235457,0.137267 -0.1757224,0.137267 -0.046043,0 -0.050995,0.033095 -0.032066,0.214316 0.00828,0.079231 0.00817,0.10659 -4.484e-4,0.1152115 -0.00997,0.00998 -0.1543662,0.019248 -0.1543663,0.00991 z M 2.1738945,1.4000535 c 0.045402,-0.022058 0.06716,-0.055947 0.061516,-0.095812 -0.00238,-0.016839 -0.018989,-0.030455 -0.065874,-0.054019 -0.034477,-0.017328 -0.075357,-0.03245 -0.090845,-0.033603 -0.024068,-0.00179 -0.03074,0.0033 -0.045926,0.035022 -0.015753,0.032912 -0.016392,0.042483 -0.00564,0.084429 0.013303,0.051904 0.018629,0.05829 0.061085,0.073224 0.039594,0.013928 0.037542,0.01415 0.085686,-0.00924 z m 0.082803,-0.55204255 c -0.050181,-0.0510857 -0.086342,-0.0945153 -0.080357,-0.09651 0.020686,-0.006895 0.1078039,0.0502401 0.1819802,0.11934981 0.027084,0.0252335 0.031028,0.0700434 0.00617,0.0700434 -0.0091,0 -0.057608,-0.0417974 -0.1077892,-0.0928831 z"
       id="path3757"
       inkscape:connector-curvature="0" />
    <path
       style="fill:#50556c;stroke-width:0.00960096"
       d="m 1.8361836,3.7756833 c 0.030363,-0.00191 0.080048,-0.00191 0.1104111,0 0.030363,0.00191 0.00552,0.00346 -0.055206,0.00346 -0.060726,0 -0.085568,-0.00156 -0.055205,-0.00346 z M 0.94112945,3.4925602 c -0.005784,-0.00672 -0.0210091,-0.026882 -0.0338331,-0.044812 -0.029704,-0.04153 -0.26325175,-0.2794315 -0.27431826,-0.2794315 -0.0122033,0 -9.6368e-4,0.025291 0.0455686,0.1025385 0.0228389,0.037914 0.0415253,0.071761 0.0415253,0.075214 0,0.025976 -0.27647782,-0.2499524 -0.34645826,-0.3457696 C 0.32307222,2.9310986 0.21298926,2.7491336 0.17032422,2.6642664 0.11809776,2.5603801 0.0386801,2.2981104 0.03849142,2.2289004 0.03844322,2.2112313 0.0310011,2.1723474 0.02195331,2.1424918 0.00862587,2.0985143 0.00560403,2.050843 0.00603614,1.8913891 0.00650139,1.7197003 0.0097862,1.6780199 0.0317621,1.5649565 0.1096011,1.1644841 0.28516931,0.82861717 0.55923115,0.55589342 0.83421381,0.28225333 1.1661078,0.10890948 1.5617505,0.03229074 1.6791676,0.00955217 1.717393,0.0065695 1.8913891,0.0065695 c 0.1739962,0 0.2122216,0.00298267 0.3296387,0.02572124 0.3956427,0.07661874 0.7275367,0.24996259 1.0025193,0.52360268 0.2741032,0.27276489 0.4498282,0.60896958 0.5274095,1.00906308 0.021818,0.1125191 0.025184,0.1549371 0.025517,0.3216322 3.793e-4,0.189757 -0.017119,0.3488963 -0.040989,0.3727662 -0.0142,0.0142 -0.06732,-0.011806 -0.073373,-0.035922 -0.00287,-0.011419 -6.509e-4,-0.032755 0.00492,-0.047414 0.018242,-0.047979 0.014131,-0.054229 -0.035471,-0.053936 -0.061365,3.629e-4 -0.1593058,0.051436 -0.1641263,0.085587 -0.00182,0.012898 -0.013702,0.038743 -0.026403,0.057434 -0.012701,0.018691 -0.023092,0.0374 -0.023092,0.041576 0,0.00418 -0.019382,0.040977 -0.043071,0.08178 -0.026449,0.045557 -0.047367,0.096418 -0.054204,0.1317926 -0.00612,0.031683 -0.016623,0.064086 -0.023333,0.072007 -0.00671,0.00792 -0.013641,0.027342 -0.015403,0.043159 -0.00261,0.023466 -0.0085,0.029661 -0.032006,0.033668 -0.021403,0.00365 -0.036881,0.017228 -0.060245,0.052851 -0.067321,0.1026464 -0.075795,0.1104538 -0.1077807,0.099303 -0.027654,-0.00964 -0.028795,-0.012307 -0.028795,-0.067336 0,-0.031514 0.00478,-0.066225 0.010617,-0.077136 0.00847,-0.015822 0.00563,-0.032702 -0.01404,-0.083377 -0.013561,-0.034947 -0.037781,-0.097349 -0.053821,-0.1386719 -0.01604,-0.041323 -0.029164,-0.079127 -0.029164,-0.084008 0,-0.02185 0.028504,-0.00547 0.051835,0.029785 0.026116,0.039464 0.086388,0.073512 0.1699761,0.09602 0.035581,0.00958 0.039261,0.00845 0.069744,-0.021478 C 3.330662,2.4039493 3.32996,2.3143643 3.2556847,2.1474135 3.2095464,2.0437072 3.2057041,2.029694 3.2116177,1.9866972 c 0.00612,-0.044482 0.00509,-0.047631 -0.018411,-0.056567 -0.017411,-0.00662 -0.02489,-0.016511 -0.02489,-0.032918 0,-0.032094 -0.00937,-0.053828 -0.023195,-0.053828 -0.034595,0 -0.04669,-0.025658 -0.054065,-0.1146945 -0.00823,-0.099357 -0.016385,-0.1160611 -0.042547,-0.087152 -0.00967,0.010686 -0.026044,0.019429 -0.036386,0.019429 -0.022135,0 -0.023571,-0.012681 0.024465,0.2160216 0.077021,0.3667056 0.077032,0.3668585 0.024406,0.3563333 -0.020883,-0.00418 -0.035385,-0.00137 -0.046942,0.00909 -0.014273,0.012917 -0.022486,0.013407 -0.05607,0.00335 C 2.9240462,2.2355885 2.9142421,2.2259257 2.8866888,2.1754895 2.8156522,2.0454574 2.5960249,1.4931092 2.5249585,1.2657613 2.4811364,1.1255703 2.4792397,1.0853972 2.5181024,1.1205442 c 0.024961,0.022574 0.075756,0.041172 0.1124523,0.041172 0.018752,0 0.029069,-0.00711 0.037655,-0.025954 0.018882,-0.041441 0.023569,-0.1129216 0.011445,-0.17454746 -0.0083,-0.0421975 -0.00851,-0.0740383 -7.959e-4,-0.12232092 0.01153,-0.0721753 0.019992,-0.0874397 0.050912,-0.0918424 0.02749,-0.003914 0.023471,-0.0247295 -0.016938,-0.0877206 -0.053455,-0.0833274 -0.075475,-0.0948043 -0.2598892,-0.1354559 -0.06331,-0.0139558 -0.1351001,-0.0323488 -0.1595341,-0.0408734 -0.04335,-0.0151241 -0.044977,-0.0149767 -0.067207,0.006088 -0.020377,0.0193093 -0.030127,0.0211368 -0.092388,0.017316 l -0.069607,-0.004272 -3.84e-5,0.0249607 c -3.84e-5,0.0296929 -0.032131,0.0855764 -0.053945,0.0939471 -0.02633,0.0101038 -0.1181982,-0.0456169 -0.1378976,-0.0836391 -0.012876,-0.024852 -0.040859,-0.0478299 -0.1052298,-0.0864086 -0.048227,-0.0289047 -0.1015574,-0.0611948 -0.1185103,-0.0717559 -0.026146,-0.0162879 -0.046851,-0.0191135 -0.136434,-0.0186192 -0.1438638,7.9379e-4 -0.2553091,0.0147242 -0.26417,0.0330206 -0.00384,0.007921 -0.01638,0.0354625 -0.027875,0.0612039 C 1.1883698,0.5259104 1.100761,0.65411235 1.0341206,0.72700443 0.9575034,0.81080931 0.88301724,0.91250279 0.84975272,0.97871583 0.82047263,1.0369978 0.78251554,1.154701 0.76365385,1.2457047 c -0.006838,0.032992 -0.0171251,0.071876 -0.0228601,0.086409 -0.0373494,0.094644 -0.0877493,0.3733038 -0.08813,0.4872686 -1.4114e-4,0.042244 -0.004636,0.094089 -0.009989,0.1152116 -0.005353,0.021122 -0.0114701,0.09889 -0.0135938,0.1728173 -0.002124,0.073927 -0.007734,0.1344134 -0.012468,0.1344134 -0.004734,0 -0.0331299,-0.028906 -0.0631026,-0.064237 -0.0852347,-0.1004698 -0.1381063,-0.1285618 -0.11100806,-0.058981 0.005828,0.014965 0.010047,0.063932 0.009376,0.1088166 -0.001209,0.080812 -6.9262e-4,0.082676 0.0529282,0.1911037 0.0343713,0.069503 0.0543137,0.1221035 0.0546,0.1440144 6.2435e-4,0.047791 -0.0117454,0.1348692 -0.0236299,0.1663457 -0.0153955,0.040775 -0.004295,0.064003 0.0745837,0.1560717 0.14606163,0.1704848 0.34973629,0.4587791 0.34973629,0.4950396 0,0.00684 -0.006962,0.020122 -0.0154706,0.029524 -0.0142881,0.015788 -0.0138972,0.01964 0.005114,0.050401 0.0200488,0.032439 0.0132886,0.058065 -0.008611,0.032637 z M 0.3697732,2.7264522 c 0.003338,-0.0054 -0.0115379,-0.040362 -0.0330586,-0.077689 -0.0215207,-0.037327 -0.0365931,-0.07197 -0.0334943,-0.076984 0.003099,-0.00501 0.0358628,0.019399 0.0728086,0.054252 0.0475532,0.044859 0.0732564,0.062502 0.0879969,0.060403 0.032276,-0.0046 0.0318231,-0.041374 -9.6946e-4,-0.078723 -0.0194651,-0.022169 -0.0297915,-0.04624 -0.0338414,-0.078884 -0.006946,-0.055985 -0.0785581,-0.2017433 -0.14444058,-0.293991 -0.0375909,-0.052634 -0.0565978,-0.069617 -0.10265719,-0.091723 -0.0310887,-0.014921 -0.0530288,-0.022578 -0.0487558,-0.017015 0.10835316,0.1410692 0.19297929,0.266506 0.19304659,0.2861425 9.025e-5,0.026215 -0.045725,-0.00542 -0.12168166,-0.084008 -0.0965349,-0.099886 -0.1293438,-0.117345 -0.10374123,-0.055206 0.008159,0.019802 0.0277911,0.057026 0.0436274,0.08272 0.0175341,0.028448 0.0265903,0.053657 0.0231596,0.064466 -0.003311,0.010431 0.002651,0.028955 0.0144567,0.044924 0.0110497,0.014945 0.0260419,0.049735 0.0333159,0.077309 0.0118467,0.044909 0.0606652,0.1318057 0.0994524,0.1770255 0.0159048,0.018542 0.0453141,0.02229 0.0547761,0.00698 z m 1.2582749,0.7021995 c -0.00932,-0.015078 0.00471,-0.089437 0.022932,-0.1215247 0.00912,-0.016064 0.019498,-0.05118 0.023061,-0.078035 0.00689,-0.051907 0.044041,-0.1661434 0.072595,-0.2231962 0.00947,-0.018919 0.020017,-0.046063 0.023441,-0.060321 0.015845,-0.065982 0.1986734,-0.2125872 0.2282403,-0.1830202 0.00916,0.00916 0.00836,0.015333 -0.00372,0.028698 -0.025345,0.028052 -0.098585,0.1824239 -0.1668257,0.3516288 -0.023108,0.057298 -0.057836,0.1298099 -0.077174,0.1611388 -0.019337,0.031329 -0.037745,0.073018 -0.040907,0.092642 -0.00529,0.032864 -0.00851,0.035912 -0.040749,0.038608 -0.01925,0.00161 -0.037655,-0.00137 -0.040899,-0.00662 z m 0.75299,-0.096053 c -0.018104,-0.00499 -0.02473,-0.014038 -0.026963,-0.036799 -0.00594,-0.060591 0.088081,-0.1303532 0.3821981,-0.2835758 0.055446,-0.028885 0.1202521,-0.063854 0.1440144,-0.07771 0.023762,-0.013856 0.049145,-0.025244 0.056405,-0.025307 0.00726,-6.72e-5 0.037504,-0.010358 0.067207,-0.022877 0.1552926,-0.065448 0.2336863,-0.078038 0.2393359,-0.038437 0.00333,0.02336 -0.078576,0.1022449 -0.12896,0.1242006 -0.016521,0.0072 -0.032241,0.01883 -0.034933,0.025845 -0.00269,0.00702 -0.032379,0.030812 -0.065971,0.052881 -0.033592,0.022069 -0.07683,0.051545 -0.096084,0.065503 -0.019255,0.013957 -0.05374,0.033764 -0.076635,0.044014 -0.022895,0.01025 -0.048185,0.024556 -0.056201,0.031791 -0.024355,0.021982 -0.2437095,0.1175338 -0.307096,0.1337726 -0.06454,0.016534 -0.061443,0.016319 -0.096317,0.0067 z m -0.2794444,-0.07134 c -0.051123,-0.030914 -0.06619,-0.045413 -0.06619,-0.063696 0,-0.016412 0.1275256,-0.1491739 0.1602637,-0.1668444 0.00954,-0.00515 0.035222,-0.025618 0.05706,-0.045481 0.021838,-0.019863 0.054242,-0.043446 0.072007,-0.052406 0.017766,-0.00896 0.052775,-0.033306 0.077798,-0.0541 0.025023,-0.020795 0.070168,-0.048719 0.1003217,-0.062054 0.030154,-0.013335 0.068006,-0.035088 0.084116,-0.048338 0.055989,-0.046051 0.1353217,-0.085474 0.2066429,-0.1026858 0.039458,-0.00952 0.086361,-0.023422 0.1042302,-0.030888 0.046609,-0.019474 0.054775,-0.00767 0.021171,0.030602 -0.016019,0.018244 -0.029125,0.037849 -0.029125,0.043566 0,0.016397 -0.2518004,0.2628162 -0.3840384,0.3758316 -0.2047022,0.1749461 -0.2151293,0.1817443 -0.2832283,0.1846558 -0.026403,0.00113 -0.056646,0.00446 -0.067207,0.00741 -0.011087,0.0031 -0.033833,-0.00349 -0.053822,-0.015574 z M 0.9351821,3.0072425 C 0.87846904,2.9573432 0.80907478,2.8651258 0.72043893,2.7218722 0.67143031,2.6426643 0.62081064,2.5637833 0.60795078,2.5465811 0.57605652,2.5039174 0.54210965,2.398484 0.54614914,2.3546355 c 0.001964,-0.021321 0.0661993,-0.014315 0.0880348,0.0096 0.0108474,0.011881 0.0477327,0.050151 0.0819674,0.085045 0.0342347,0.034893 0.0847655,0.098339 0.11229072,0.1409912 0.0275252,0.042652 0.0786366,0.1200838 0.1135808,0.1720713 C 1.0307835,2.8943943 1.0496659,2.9338948 1.0431689,2.973931 1.0402389,2.992016 1.0327749,3.012908 1.0265919,3.020358 1.0088839,3.041695 0.9676089,3.035773 0.9351821,3.0072425 Z M 3.6048595,2.5913111 c -0.012903,-0.040653 0.00578,-0.1013336 0.055845,-0.1813829 0.058256,-0.093145 0.070151,-0.082651 0.035526,0.031342 -0.048703,0.1603426 -0.074603,0.2028736 -0.091371,0.1500409 z M 1.4846232,1.9871629 c -0.032939,-0.039146 -0.036458,-0.1053747 -0.0056,-0.1053747 0.058392,0 0.098264,0.052165 0.079917,0.1045586 -0.012815,0.036596 -0.043924,0.036938 -0.074319,8.161e-4 z m -0.2279844,0.00503 c -0.024254,-0.013182 -0.043972,-0.055327 -0.07636,-0.1632134 -0.01487,-0.049534 -0.036059,-0.091209 -0.046372,-0.091209 -0.00446,0 -0.010925,0.024842 -0.014361,0.055206 -0.00663,0.058598 -0.040601,0.1427931 -0.066132,0.1639101 -0.00844,0.00698 -0.027338,0.011303 -0.041991,0.0096 C 0.9758365,1.9623566 0.9679343,1.9233756 0.9796525,1.8097772 0.9951366,1.6596699 0.992399,1.6195931 0.9648962,1.5937556 c -0.0310093,-0.029132 -0.0310093,-0.066878 0,-0.09601 0.0222535,-0.020906 0.0240024,-0.029032 0.0240024,-0.111518 0,-0.053044 -0.004164,-0.091542 -0.0103117,-0.095342 -0.005671,-0.00351 -0.0204075,0.00311 -0.0327468,0.014704 -0.028058,0.026359 -0.0538956,0.022044 -0.0700701,-0.011703 -0.0105106,-0.02193 -0.0101145,-0.030552 0.002527,-0.054998 0.008245,-0.015945 0.0249659,-0.035526 0.0371566,-0.043514 0.0292157,-0.019143 0.1036513,-0.03998 0.1702655,-0.047664 0.049345,-0.00569 0.060207,-0.00304 0.1363477,0.033314 0.085109,0.040633 0.1358926,0.085536 0.1470598,0.1300291 0.00904,0.036017 -1.863e-4,0.1298858 -0.015964,0.1624292 -0.00761,0.015698 -0.039086,0.04525 -0.069945,0.06567 -0.054926,0.036346 -0.055975,0.037869 -0.049822,0.072268 0.00794,0.044409 0.047978,0.1313381 0.09954,0.2161391 0.043679,0.071835 0.051355,0.1201508 0.025056,0.1576985 -0.017502,0.024987 -0.062473,0.028064 -0.1013527,0.00693 z m -0.03208,-0.5660174 c 0.043005,-0.043005 0.026017,-0.1034294 -0.037559,-0.1335982 -0.04182,-0.019845 -0.07915,-0.020046 -0.086663,-4.666e-4 -0.00321,0.00835 -0.00583,0.042701 -0.00583,0.076331 0,0.069636 0.00941,0.080522 0.070043,0.081008 0.026147,2.093e-4 0.043096,-0.00636 0.060006,-0.023274 z m 0.6021757,0.5348203 c -0.00355,-0.00924 -0.00665,-0.036242 -0.0069,-0.060006 -4.339e-4,-0.041363 8.113e-4,-0.043331 0.029167,-0.046098 0.017382,-0.0017 0.034433,0.00291 0.041269,0.011144 0.018059,0.02176 0.024588,0.080645 0.010786,0.097275 -0.01683,0.02028 -0.066243,0.01874 -0.074323,-0.00232 z M 1.6311041,1.9134947 C 1.5855896,1.7976099 1.5784464,1.7598469 1.5250572,1.3528719 1.5068124,1.2137956 1.5309777,1.1622714 1.6077,1.1766646 c 0.060215,0.011296 0.068633,0.026178 0.081156,0.1434674 0.0062,0.058086 0.019316,0.1509751 0.029142,0.2064207 0.024646,0.1390713 0.041673,0.3438414 0.031533,0.3792379 -0.00764,0.026672 -0.011935,0.029018 -0.058055,0.031707 -0.046783,0.00273 -0.050445,0.00127 -0.060372,-0.024003 z m 0.3370927,0.010102 c 0,-0.00195 -0.00847,-0.065086 -0.018825,-0.1402928 C 1.9278931,1.6272932 1.916498,1.5166859 1.9004125,1.3080821 1.8884545,1.153004 1.892339,1.129938 1.928807,1.1394745 c 0.00963,0.00252 0.040499,-0.00225 0.068596,-0.010592 0.074309,-0.022067 0.1335538,-0.019116 0.2070712,0.010315 0.145703,0.058329 0.1927986,0.1730407 0.1263257,0.3076943 -0.03275,0.066341 -0.1235457,0.137267 -0.1757224,0.137267 -0.046043,0 -0.050995,0.033095 -0.032066,0.214316 0.00828,0.079231 0.00817,0.10659 -4.484e-4,0.1152115 -0.00997,0.00998 -0.1543662,0.019248 -0.1543663,0.00991 z M 2.1738945,1.4000535 c 0.045402,-0.022058 0.06716,-0.055947 0.061516,-0.095812 -0.00238,-0.016839 -0.018989,-0.030455 -0.065874,-0.054019 -0.034477,-0.017328 -0.075357,-0.03245 -0.090845,-0.033603 -0.024068,-0.00179 -0.03074,0.0033 -0.045926,0.035022 -0.015753,0.032912 -0.016392,0.042483 -0.00564,0.084429 0.013303,0.051904 0.018629,0.05829 0.061085,0.073224 0.039594,0.013928 0.037542,0.01415 0.085686,-0.00924 z m 0.082803,-0.55204255 c -0.050181,-0.0510857 -0.086342,-0.0945153 -0.080357,-0.09651 0.020686,-0.006895 0.1078039,0.0502401 0.1819802,0.11934981 0.027084,0.0252335 0.031028,0.0700434 0.00617,0.0700434 -0.0091,0 -0.057608,-0.0417974 -0.1077892,-0.0928831 z"
       id="path3755"
       inkscape:connector-curvature="0" />
    <path
       style="fill:#2e3452;stroke-width:0.00960096"
       d="m 1.8553855,3.7757843 c 0.019802,-0.00207 0.052205,-0.00207 0.072007,0 0.019802,0.00207 0.0036,0.00377 -0.036004,0.00377 -0.039604,0 -0.055805,-0.00169 -0.036003,-0.00377 z M 2.3690101,3.3163049 c -0.011425,-0.011425 -0.00944,-0.015727 0.034277,-0.074171 0.031078,-0.04155 0.06171,-0.067525 0.1224122,-0.1038017 0.122127,-0.072985 0.4127771,-0.2196322 0.4354475,-0.2197041 0.010973,-3.84e-5 0.032913,-0.00865 0.048754,-0.019139 0.031589,-0.020921 0.067277,-0.025022 0.077254,-0.00888 0.00409,0.00662 0.012888,0.00334 0.024531,-0.00916 0.020831,-0.022359 0.082257,-0.036985 0.09631,-0.022932 0.00619,0.00619 -0.00692,0.023143 -0.038053,0.049208 -0.051832,0.043396 -0.063816,0.047486 -0.072539,0.024756 -0.0088,-0.022936 -0.025097,-0.00659 -0.025097,0.025178 0,0.02815 -0.028529,0.06664 -0.049395,0.06664 -0.00604,0 -0.020086,0.00898 -0.031203,0.019966 -0.028708,0.028357 -0.080849,0.063076 -0.1272741,0.084747 -0.02192,0.010232 -0.067752,0.036223 -0.1018475,0.057756 -0.034096,0.021533 -0.065146,0.039152 -0.069001,0.039152 -0.00385,0 -0.042272,0.015791 -0.085371,0.035091 -0.0431,0.0193 -0.099965,0.038922 -0.1263678,0.043604 -0.026403,0.00468 -0.060978,0.010842 -0.076834,0.013688 -0.015856,0.00285 -0.032058,0.00195 -0.036004,-0.002 z M 1.6952743,3.2684601 c -0.011135,-0.011135 -0.012567,-0.019741 -0.00549,-0.032972 0.00527,-0.00985 0.00958,-0.031417 0.00958,-0.047933 0,-0.016516 0.01123,-0.053768 0.024956,-0.082782 0.020167,-0.042629 0.028919,-0.052189 0.045605,-0.04981 0.01732,0.00247 0.020705,0.00945 0.020998,0.043297 1.93e-4,0.022195 0.0032,0.043206 0.00669,0.046692 0.0079,0.0079 -0.018463,0.076869 -0.042886,0.1121737 -0.020718,0.029949 -0.03762,0.033171 -0.059457,0.011334 z m 0.4265379,-0.020491 c -0.00792,-0.00288 -0.026119,-0.016154 -0.04044,-0.029492 l -0.026038,-0.024252 0.023881,-0.029756 c 0.033843,-0.042168 0.1131971,-0.1207823 0.1220194,-0.1208816 0.00408,-4.8e-5 0.025681,-0.016805 0.048005,-0.037242 0.022324,-0.020437 0.058044,-0.045985 0.079377,-0.056772 0.021333,-0.010788 0.057332,-0.037611 0.079998,-0.059607 0.022666,-0.021997 0.067858,-0.051964 0.1004267,-0.066595 0.032569,-0.01463 0.072177,-0.037247 0.088019,-0.05026 0.052982,-0.043519 0.133804,-0.081903 0.1998835,-0.094928 0.070156,-0.013828 0.086211,-0.00775 0.076603,0.02899 -0.011334,0.043342 -0.419358,0.4242351 -0.493283,0.4604831 -0.015415,0.00756 -0.028028,0.017072 -0.028028,0.021141 0,0.00407 -0.019867,0.021067 -0.044148,0.037773 -0.037225,0.025612 -0.047666,0.028772 -0.066581,0.020154 -0.014899,-0.00679 -0.0331,-0.00716 -0.054198,-0.00111 -0.034636,0.00993 -0.043764,0.010261 -0.065495,0.00235 z M 0.92005708,2.9786979 C 0.87629575,2.9378165 0.80442887,2.8355378 0.64099702,2.5815482 0.59070934,2.5033961 0.55685569,2.4187478 0.55685569,2.3711596 c 0,-0.070209 0.16432226,0.073572 0.27463316,0.2403016 0.0331899,0.050165 0.078154,0.1171317 0.0999202,0.1488148 0.050161,0.073015 0.10549465,0.1809641 0.10549465,0.205807 0,0.021267 -0.034926,0.058219 -0.055027,0.058219 -0.007151,0 -0.0349702,-0.020522 -0.0618196,-0.045604 z M 3.0695477,2.8071214 c -0.00863,-0.00863 -0.00722,-0.096549 0.00205,-0.1284535 0.00796,-0.027382 0.00519,-0.038012 -0.042586,-0.1632163 -0.049278,-0.1291513 -0.050282,-0.1353652 -0.015221,-0.094185 0.01659,0.019485 0.039109,0.038267 0.050042,0.041737 0.010933,0.00347 0.038462,0.018851 0.061174,0.034179 0.06185,0.041742 0.098535,0.038217 0.1467628,-0.014105 0.029656,-0.032173 0.041393,-0.05499 0.050263,-0.097717 0.01619,-0.077988 0.00892,-0.1133556 -0.047641,-0.2317612 -0.045677,-0.09562 -0.049293,-0.108332 -0.046775,-0.1644109 0.00234,-0.052185 -1.287e-4,-0.063056 -0.017482,-0.076889 -0.011117,-0.00886 -0.02326,-0.029048 -0.026985,-0.04486 -0.00858,-0.036428 -0.022193,-0.052859 -0.043782,-0.052859 -0.021574,0 -0.028654,-0.018742 -0.028654,-0.07585 0,-0.058764 -0.025489,-0.1443027 -0.04526,-0.1518897 -0.00976,-0.00374 -0.022782,0.00294 -0.035483,0.018216 -0.011037,0.013273 -0.027628,0.026826 -0.036869,0.030118 -0.019302,0.00688 -0.022614,0.057246 -0.00738,0.1121993 0.016242,0.058579 0.066534,0.3110262 0.073112,0.3669976 l 0.00632,0.053804 -0.039247,0.020022 c -0.021586,0.011012 -0.048557,0.020022 -0.059937,0.020022 -0.030362,0 -0.078491,-0.05813 -0.1093247,-0.1320419 C 2.8417863,2.0405511 2.8016376,1.9444345 2.7674297,1.8625863 2.6603779,1.6064459 2.6401592,1.5549128 2.5828529,1.3921392 2.5521783,1.3050105 2.5200602,1.2145812 2.5114793,1.1911851 c -0.01853,-0.050523 -0.00644,-0.073486 0.018584,-0.035296 0.00907,0.013837 0.025565,0.025123 0.036897,0.02524 0.011274,1.162e-4 0.039833,0.00898 0.063466,0.019701 0.039486,0.017911 0.043899,0.018217 0.054463,0.00377 0.016597,-0.022698 0.026135,-0.1475098 0.018749,-0.24534723 -0.00401,-0.0531521 -0.00229,-0.10049973 0.00467,-0.12813807 0.0095,-0.0377155 0.01446,-0.043836 0.035545,-0.043836 0.013479,0 0.032434,0.007174 0.042123,0.0159427 0.028167,0.025491 0.031232,0.007946 0.00843,-0.0482404 C 2.7588227,0.66730143 2.6897568,0.55685569 2.670514,0.55685569 c -0.00951,0 -0.049366,-0.0110642 -0.088574,-0.0245871 C 2.542731,0.51874568 2.4777202,0.50422304 2.4374712,0.49999608 2.3822198,0.49419353 2.3398458,0.48139994 2.2645097,0.4477755 2.2096298,0.42328115 2.1601544,0.40324033 2.1545643,0.40324033 c -0.00559,0 -0.014166,0.0161969 -0.019058,0.0359932 -0.00848,0.0343016 -0.010553,0.0358491 -0.044198,0.032928 -0.039897,-0.003464 -0.055905,0.0146829 -0.055905,0.0633731 0,0.0271665 -0.024701,0.059725 -0.045312,0.059725 -0.031367,0 -0.091705,-0.0387172 -0.1064895,-0.068331 -0.011934,-0.0239049 -0.039026,-0.0457988 -0.1026238,-0.082934 -0.1704185,-0.099509 -0.152714,-0.09329 -0.2640264,-0.0927446 -0.055445,2.7161e-4 -0.1389948,0.004072 -0.185665,0.008446 -0.079252,0.007427 -0.085497,0.009603 -0.094573,0.032949 C 1.1934744,0.50386535 1.1139279,0.62920856 1.0245196,0.72700443 0.9483257,0.81034635 0.87345489,0.91242325 0.84072384,0.97758685 0.81366083,1.031466 0.77386971,1.1563293 0.75297966,1.2529253 0.74612779,1.2846085 0.7294458,1.3470125 0.71590856,1.3916009 0.6798733,1.5102926 0.65228538,1.6679115 0.6427149,1.809781 0.6380839,1.878428 0.6297942,1.9713171 0.6242932,2.0162016 c -0.005501,0.044884 -0.009623,0.1075308 -0.00916,0.139214 4.6276e-4,0.031683 5.0107e-4,0.061102 8.545e-5,0.065375 -4.1601e-4,0.00427 -0.0398247,-0.03205 -0.0875748,-0.080718 -0.0981842,-0.1000721 -0.11601007,-0.1033398 -0.0954152,-0.017491 0.00664,0.02768 0.0117698,0.080954 0.0113988,0.1183881 -5.5896e-4,0.056414 0.004364,0.079103 0.0287648,0.1325835 0.0282538,0.061924 0.0287938,0.065507 0.0134114,0.088984 -0.008815,0.013454 -0.0147965,0.035811 -0.0132916,0.049682 0.001505,0.013871 -0.002664,0.027114 -0.009265,0.029428 -0.006601,0.00231 -0.0120016,-0.00194 -0.0120016,-0.00944 0,-0.023545 -0.0932491,-0.2055612 -0.14260547,-0.2783564 -0.0534305,-0.078804 -0.0819453,-0.1075459 -0.11662046,-0.1175489 -0.0132013,-0.00381 -0.0441014,-0.026408 -0.0686669,-0.050222 -0.08088222,-0.078407 -0.06778974,-0.038146 0.0256948,0.079013 0.1734932,0.2174307 0.21153585,0.311964 0.0652047,0.162029 -0.076821,-0.078713 -0.12050316,-0.1102349 -0.13402381,-0.096714 -0.0026035,0.0026 0.01284359,0.040594 0.03432689,0.084423 0.0214833,0.04383 0.0390605,0.090939 0.0390605,0.1046887 0,0.013749 0.0108011,0.039639 0.0240024,0.057532 0.0132013,0.017893 0.0240024,0.044573 0.0240024,0.059289 0,0.014716 0.013946,0.055037 0.030991,0.089602 0.0243549,0.049389 0.0287565,0.066389 0.0205558,0.07939 C 0.2320126,2.7388696 0.2077746,2.7245916 0.1753133,2.6594696 0.11832065,2.545132 0.03113531,2.2479347 0.04442615,2.2132994 0.04698664,2.2066268 0.03935515,2.1714313 0.02746727,2.1350872 0.00832066,2.0765513 0.00583986,2.0492764 0.0057382,1.8961896 0.0056712,1.7953075 0.0103847,1.7033903 0.01706192,1.6753675 0.02335308,1.6489649 0.03742465,1.5800723 0.04833206,1.5222727 0.10489742,1.2225272 0.25097177,0.91993553 0.45906422,0.67144478 0.72339781,0.35579443 1.124048,0.12192549 1.5281781,0.04737771 1.5880102,0.0363408 1.6541032,0.02232486 1.6750516,0.01623117 c 0.050625,-0.01472626 0.3820504,-0.01472626 0.4326751,0 0.020948,0.0060937 0.087041,0.02010963 0.1468735,0.03114654 0.4041301,0.07454778 0.8047803,0.30841672 1.0691139,0.62406707 0.2080924,0.24849075 0.3541668,0.55108242 0.4107321,0.85082792 0.010908,0.0578 0.023989,0.124532 0.02907,0.1482944 0.015753,0.073673 0.021281,0.2500886 0.01083,0.3456345 -0.012119,0.1108019 -0.033286,0.2273371 -0.043071,0.2371215 -0.00396,0.00396 -0.018828,5.991e-4 -0.03305,-0.00746 -0.019856,-0.011249 -0.025437,-0.021219 -0.024045,-0.042949 0.00338,-0.052679 0.014861,-0.095428 0.030559,-0.1137443 0.014971,-0.017467 0.014413,-0.017943 -0.013171,-0.011246 -0.044657,0.010842 -0.1640476,0.062334 -0.1989836,0.085819 -0.018166,0.012212 -0.032841,0.031129 -0.03476,0.044807 -0.00183,0.01302 -0.0073,0.02853 -0.012175,0.034467 -0.012849,0.015663 -0.082054,0.1436632 -0.1109594,0.2052274 -0.013636,0.029043 -0.026947,0.070988 -0.029581,0.093211 -0.00263,0.022223 -0.012887,0.047735 -0.022786,0.056693 -0.0099,0.00896 -0.017998,0.021961 -0.017998,0.028895 0,0.00693 -0.011848,0.018815 -0.026329,0.026402 -0.014481,0.00759 -0.045941,0.045529 -0.069911,0.084315 -0.0331,0.05356 -0.049367,0.071203 -0.067639,0.073361 -0.013232,0.00156 -0.027137,-2.372e-4 -0.030898,-0.004 z M 1.8529853,0.38521091 c 0,-0.0280527 0.027824,-0.0878083 0.043728,-0.0939112 0.00788,-0.003022 0.032442,-8.9443e-4 0.054592,0.004728 0.02215,0.005622 0.041932,0.008564 0.043959,0.006537 0.00203,-0.002027 -0.017276,-0.0171035 -0.042894,-0.0335033 -0.041127,-0.0263272 -0.0522,-0.0291699 -0.094585,-0.0242827 -0.026403,0.003044 -0.090454,0.009161 -0.1423363,0.0135936 -0.051882,0.004432 -0.098418,0.0121445 -0.1034116,0.0171386 -0.00886,0.008857 0.2028143,0.12662872 0.2289462,0.127383 0.0066,1.9049e-4 0.012001,-0.007767 0.012002,-0.017683 z M 3.6138026,2.5882503 c -0.013142,-0.033932 0.012503,-0.1182886 0.053266,-0.1752142 0.021396,-0.029879 0.038902,-0.047193 0.038902,-0.038476 0,0.025216 -0.055698,0.192231 -0.071078,0.2131305 -0.013682,0.018592 -0.014102,0.018603 -0.02109,5.597e-4 z M 1.4888457,1.9813035 c -0.024176,-0.030735 -0.027379,-0.089914 -0.00487,-0.089914 0.01848,0 0.054492,0.018358 0.064028,0.03264 0.011017,0.0165 0.00856,0.058316 -0.00417,0.07105 -0.017748,0.017748 -0.033246,0.013865 -0.054988,-0.013776 z M 1.2625263,1.985527 C 1.235218,1.9700416 1.2330504,1.9655945 1.1946477,1.8462655 1.1444654,1.6903336 1.1234732,1.6806232 1.1046056,1.8046142 c -0.014519,0.095416 -0.043928,0.1491812 -0.0816,0.1491812 -0.0401471,0 -0.0454183,-0.03176 -0.0320618,-0.1931774 L 1.0021739,1.6249 0.97633441,1.5941916 c -0.0319871,-0.038015 -0.0322855,-0.052406 -0.001837,-0.088592 0.021816,-0.025927 0.023989,-0.036548 0.0238554,-0.1165975 -7.681e-5,-0.04844 -0.003867,-0.093943 -0.008413,-0.101118 -0.005919,-0.00934 -0.0190383,-0.011226 -0.0462126,-0.00663 -0.0509424,0.00861 -0.068083,-0.0097 -0.0470936,-0.050285 0.0151906,-0.029375 0.0337591,-0.03924 0.12041029,-0.063968 0.076244,-0.021758 0.1153925,-0.018541 0.1891987,0.015549 0.1314002,0.060692 0.1621166,0.1006968 0.1553252,0.2022952 -0.00555,0.082993 -0.021961,0.1109936 -0.088004,0.1501283 l -0.056169,0.033284 0.00613,0.039156 c 0.00734,0.046862 0.045156,0.1302743 0.099806,0.2201548 0.045001,0.074011 0.052633,0.1262251 0.022444,0.1535463 -0.020212,0.018291 -0.055485,0.020163 -0.083252,0.00442 z M 1.2296614,1.4312816 c 0.047922,-0.047922 0.03323,-0.1099776 -0.033984,-0.1435462 -0.051299,-0.02562 -0.087746,-0.026284 -0.1008297,-0.00184 -0.00547,0.010214 -0.00994,0.046693 -0.00994,0.081064 0,0.053695 0.003,0.064597 0.021338,0.077439 0.035852,0.025111 0.091052,0.019244 0.1234147,-0.013119 z m 0.6005724,0.5153131 c -0.00318,-0.011881 -0.00585,-0.035644 -0.00592,-0.052805 -1.191e-4,-0.028355 0.00252,-0.031203 0.028909,-0.031203 0.030903,0 0.047767,0.025281 0.047767,0.071605 0,0.037938 -0.061046,0.048639 -0.070756,0.012403 z M 1.6552026,1.9224453 C 1.6222396,1.9004352 1.5954316,1.8027702 1.5690102,1.6084345 1.5260222,1.2922466 1.5237953,1.2706336 1.5305143,1.2348183 c 0.009,-0.047952 0.03719,-0.060932 0.093546,-0.043067 l 0.041542,0.013169 0.015428,0.1248125 c 0.00849,0.068647 0.022246,0.1636964 0.030578,0.2112211 0.00833,0.047525 0.020248,0.1425743 0.026478,0.2112211 0.013691,0.1508508 0.00751,0.177697 -0.04088,0.1774708 -0.017292,-7.68e-5 -0.036194,-0.00332 -0.042005,-0.0072 z M 1.9728857,1.8961896 C 1.9523918,1.7998655 1.8953134,1.212685 1.9027101,1.1742767 c 0.00226,-0.011742 0.012623,-0.017775 0.032015,-0.018639 0.015769,-7.028e-4 0.045953,-0.00807 0.067075,-0.01638 0.080966,-0.03184 0.1956186,-0.011099 0.2811525,0.050861 0.077271,0.055975 0.08926,0.1623869 0.029969,0.2660156 -0.031076,0.054316 -0.093205,0.1040982 -0.1431051,0.1146677 -0.06246,0.01323 -0.067212,0.018749 -0.067128,0.077957 4.8e-5,0.030476 0.00455,0.094295 0.010008,0.14182 0.014513,0.1263104 0.013963,0.1273308 -0.067972,0.1259523 -0.059501,-10e-4 -0.068251,-0.00348 -0.071839,-0.020342 z M 2.1801076,1.4061912 c 0.075543,-0.038281 0.089213,-0.1053752 0.029623,-0.1453985 -0.044383,-0.02981 -0.1346801,-0.062361 -0.1550521,-0.055895 -0.00928,0.00294 -0.024145,0.024407 -0.033038,0.047693 -0.013735,0.035966 -0.014403,0.048573 -0.00443,0.083743 0.014165,0.049972 0.028272,0.066651 0.068911,0.081477 0.042304,0.015434 0.040053,0.015712 0.09399,-0.01162 z M 2.2850285,0.85928593 c -0.035734,-0.0360541 -0.055581,-0.0624062 -0.047001,-0.0624062 0.00817,0 0.025251,0.0110707 0.037963,0.0246016 0.012711,0.0135308 0.037227,0.0333252 0.054479,0.0439874 0.027772,0.0171639 0.044368,0.0562235 0.023889,0.0562235 -0.00411,0 -0.035311,-0.0280828 -0.06933,-0.0624063 z"
       id="path3753"
       inkscape:connector-curvature="0" />
    <path
       style="fill:#151421;stroke-width:0.00960096"
       d="m 3.0850182,2.7881358 c -0.00317,-0.00826 -0.00321,-0.045529 -7.68e-5,-0.082817 0.00421,-0.050248 0.00183,-0.07676 -0.00921,-0.1024291 -0.019653,-0.045686 -0.051156,-0.1354433 -0.047542,-0.1354433 0.00157,0 0.016332,0.0047 0.032809,0.010444 0.023645,0.00824 0.031298,0.017584 0.036315,0.044327 0.00654,0.034867 0.054761,0.098845 0.074499,0.098845 0.00611,0 0.03417,-0.030243 0.062359,-0.067207 0.02819,-0.036964 0.053039,-0.067207 0.05522,-0.067207 0.00218,0 0.00115,0.018362 -0.0023,0.040804 -0.00458,0.029836 -0.019454,0.056386 -0.055319,0.098773 -0.026977,0.031883 -0.063915,0.082502 -0.082085,0.1124871 -0.035315,0.058281 -0.055381,0.073617 -0.064665,0.049423 z M 0.17886775,2.6522652 C 0.13707582,2.5696724 0.09028289,2.4243676 0.05364883,2.2634264 c -0.0033054,-0.014522 -0.0022084,-0.026403 0.0024379,-0.026403 0.01195309,0 0.07832668,0.1483081 0.07832668,0.1750166 0,0.01218 0.010922,0.038219 0.0242711,0.057864 0.0133491,0.019645 0.0281401,0.054131 0.0328688,0.076636 0.004729,0.022505 0.0156164,0.059944 0.0241947,0.083197 0.0282647,0.076618 -5.9161e-4,0.094244 -0.0368803,0.022527 z M 3.619562,2.5735299 c 0,-0.00502 0.00457,-0.030444 0.010159,-0.056496 0.00976,-0.045507 0.056929,-0.1256003 0.05716,-0.097057 1.854e-4,0.022928 -0.050825,0.1626814 -0.05938,0.1626814 -0.00437,0 -0.00794,-0.00411 -0.00794,-0.00913 z M 0.41702346,2.4176801 C 0.33673154,2.2575318 0.24767549,2.1367281 0.20260998,2.12683 0.18744173,2.1234986 0.15343745,2.0994045 0.12704491,2.0732877 0.07876823,2.0255154 0.0480048,2.0129117 0.0480048,2.0409053 c 0,0.00831 0.03780378,0.062526 0.0840084,0.1204878 0.0888921,0.1115116 0.15053421,0.1995238 0.14418779,0.2058702 -0.0021,0.0021 -0.0402616,-0.030672 -0.0848039,-0.072827 C 0.14685476,2.2522822 0.09204921,2.2010236 0.06960696,2.1805286 0.03575931,2.1496179 0.02880288,2.1372478 0.02880288,2.1079696 c 0,-0.019413 -0.0036993,-0.033009 -0.0082206,-0.030215 C 0.01606089,2.0805491 0.00998802,2.03976 0.00708697,1.9871123 0.00129131,1.8819338 0.00874657,1.6977087 0.01855333,1.7037696 0.02195877,1.7058742 0.03010943,1.668208 0.0366659,1.6200667 0.11848737,1.0192877 0.51776769,0.47280866 1.0694877,0.20648494 1.25355,0.11763523 1.4780434,0.04975861 1.6439267,0.03280065 1.6794397,0.02917025 1.7065847,0.02310905 1.7042507,0.0193314 1.7019207,0.0155537 1.7430667,0.00983949 1.7956977,0.0066331 1.901044,2.15125e-4 2.0852319,0.00848465 2.0785282,0.0193314 c -0.00233,0.0037777 0.024811,0.0098388 0.060324,0.01346925 0.099389,0.01016037 0.2333364,0.04170796 0.3562073,0.08389476 0.4822973,0.16559315 0.8791407,0.51936157 1.091488,0.97301359 0.077325,0.1651957 0.1367189,0.3626053 0.1595655,0.5303577 0.00656,0.048141 0.014707,0.085808 0.018112,0.083703 0.00981,-0.00606 0.017262,0.1781642 0.011467,0.2833427 -0.0029,0.052648 -0.00839,0.093799 -0.012194,0.091447 -0.00381,-0.00235 -0.00979,0.023748 -0.0133,0.057999 C 3.741498,2.2215064 3.731153,2.246391 3.707162,2.2401169 3.696676,2.2373769 3.685628,2.2286969 3.68261,2.2208319 3.67522,2.2015709 3.703371,2.1071192 3.72082,2.0926381 c 0.017105,-0.014196 0.018336,-0.038083 0.00195,-0.037893 -0.032689,3.802e-4 -0.1998367,0.071728 -0.2474244,0.105613 -0.017524,0.012478 -0.028603,0.028909 -0.028603,0.042421 0,0.01213 -0.00801,0.032357 -0.017805,0.044951 -0.00979,0.012593 -0.0308,0.045783 -0.046683,0.073756 l -0.028878,0.050859 3.888e-4,-0.050859 C 3.3541006,2.2778303 3.3457545,2.2539905 3.2948395,2.153163 3.2335921,2.0318743 3.2284685,2.0133871 3.24565,1.9756778 3.2543001,1.9566929 3.2459006,1.9336518 3.1880442,1.8176482 3.1507916,1.7429559 3.120312,1.6776781 3.120312,1.6725864 c 0,-0.00509 -0.012749,-0.041112 -0.028332,-0.080046 C 3.0763979,1.5536069 3.0437602,1.4418242 3.019452,1.3441344 2.9801926,1.1863582 2.9467488,1.0817452 2.9034804,0.98137241 2.8960051,0.96403154 2.889889,0.93774895 2.889889,0.92296661 c 0,-0.0147824 -0.00324,-0.0299534 -0.0072,-0.0337135 C 2.878729,0.88549311 2.838765,0.81064161 2.79388,0.72291665 2.7489949,0.63519166 2.7057906,0.56032391 2.6978698,0.55654384 2.655173,0.53616746 2.48117,0.48843452 2.4229298,0.48112163 2.3396578,0.47066562 2.1702781,0.3945963 2.0698841,0.32256683 2.0322016,0.29553098 1.9740603,0.26115458 1.9406811,0.24617485 l -0.06069,-0.0272359 -0.061081,0.015343 c -0.033594,0.008439 -0.087442,0.015343 -0.1196626,0.015343 -0.068017,0 -0.1461194,0.0173216 -0.1414372,0.0313682 0.00178,0.00533 0.021265,0.0167428 0.043308,0.025361 0.075752,0.0296178 0.073108,0.0415642 -0.00736,0.0332435 -0.081078,-0.008384 -0.071509,-0.008444 -0.2208221,0.001394 -0.060726,0.004001 -0.1178251,0.0110767 -0.1268867,0.0157231 -0.00906,0.004646 -0.020896,0.0248633 -0.026298,0.0449263 C 1.2057933,0.45348177 1.1204444,0.58991458 1.0417042,0.68625702 0.83541448,0.93866224 0.80217947,1.000483 0.74480407,1.2385239 c -0.007,0.029043 -0.0265612,0.1040828 -0.0434687,0.1667553 -0.0370818,0.1374542 -0.0674923,0.3084025 -0.0676881,0.3804994 -7.873e-5,0.029043 -0.006504,0.10033 -0.0142777,0.1584158 -0.007774,0.058086 -0.0142186,0.1279395 -0.0143217,0.1552304 -3.2183e-4,0.085193 -0.004871,0.086785 -0.0711384,0.024891 C 0.46013327,2.0554088 0.39353138,2.0024248 0.3939766,2.012995 c 1.8549e-4,0.0044 0.007188,0.03609 0.015562,0.070414 0.008374,0.034323 0.0182698,0.1034503 0.0219916,0.1536153 0.004772,0.064319 0.0135359,0.1061945 0.0297265,0.1420373 0.017159,0.037986 0.0204406,0.054822 0.0129889,0.066635 -0.0186029,0.029492 -0.0315739,0.023141 -0.0572221,-0.028017 z M 1.2781284,1.9751456 c -0.020527,-0.00986 -0.058806,-0.078646 -0.058806,-0.1056713 0,-0.0059 -0.013387,-0.04619 -0.029748,-0.089541 -0.028757,-0.076194 -0.04825,-0.097629 -0.074199,-0.081592 -0.015707,0.00971 -0.030466,0.05628 -0.030466,0.096137 0,0.045528 -0.023806,0.1262262 -0.040328,0.1367064 -0.00686,0.00435 -0.020038,0.00798 -0.029279,0.00806 C 0.9945897,1.9394261 0.9937213,1.9089067 1.0094924,1.7351468 1.0203834,1.6151744 1.0201764,1.6120322 0.9999604,1.5905136 0.975546,1.5645256 0.9732965,1.5298906 0.9945014,1.5064596 1.0062765,1.4934486 1.0099852,1.4655326 1.0109415,1.3827177 1.0122515,1.269684 1.0080815,1.2583843 0.9648945,1.257723 0.9328759,1.2572324 0.9154132,1.241438 0.9267577,1.223228 0.9402898,1.201507 1.0406522,1.171627 1.1006551,1.171456 c 0.06139,-1.757e-4 0.1688652,0.049961 0.2117168,0.098767 0.038931,0.04434 0.04842,0.1115901 0.024744,0.1753575 -0.014776,0.039796 -0.024305,0.049721 -0.072388,0.0754 -0.034203,0.018266 -0.05747,0.037568 -0.06086,0.050488 -0.008,0.030509 0.02914,0.1277808 0.093494,0.2448347 0.031004,0.056394 0.056371,0.1093194 0.056371,0.1176118 0,0.015689 -0.033041,0.053965 -0.045605,0.052831 -0.00396,-3.572e-4 -0.017461,-0.00558 -0.030002,-0.011603 z M 1.2255329,1.4600531 c 0.03721,-0.022689 0.055794,-0.072234 0.044081,-0.1175211 -0.010518,-0.040669 -0.067683,-0.080479 -0.128703,-0.089629 -0.040183,-0.00603 -0.045875,-0.0045 -0.056376,0.015122 -0.014101,0.026348 -0.019608,0.1510901 -0.00769,0.1743029 0.017869,0.034818 0.1038522,0.045068 0.1486927,0.017726 z m 0.2792125,0.5164776 c -0.015113,-0.00846 -0.024846,-0.06594 -0.011165,-0.06594 0.019443,0 0.042573,0.023348 0.042573,0.042976 0,0.028237 -0.00953,0.035206 -0.031408,0.022964 z m 0.3386389,-0.050085 c 0,-0.013137 -0.00262,-0.030719 -0.00583,-0.039072 -0.00356,-0.00928 -7.566e-4,-0.015129 0.0072,-0.01504 0.023278,2.631e-4 0.035527,0.013926 0.03871,0.043179 0.00257,0.023585 -7.172e-4,0.029227 -0.018481,0.03175 -0.017435,0.00248 -0.021602,-0.00154 -0.021602,-0.020817 z M 1.6588541,1.8910095 C 1.63232,1.8751777 1.6040002,1.7648153 1.578882,1.5793579 1.566009,1.4843079 1.55122,1.3784579 1.546019,1.3441344 1.535404,1.2740864 1.540989,1.225632 1.561643,1.2084875 c 0.017494,-0.014518 0.07979,-4.205e-4 0.090297,0.020435 0.00399,0.00792 0.012285,0.066247 0.018433,0.129613 0.00615,0.063366 0.014851,0.1324932 0.019342,0.1536153 0.020359,0.095758 0.030065,0.1807567 0.031791,0.2784279 l 0.00187,0.1056105 -0.024002,0.00234 c -0.013201,0.00128 -0.031433,-0.0021 -0.040516,-0.00752 z m 0.3285447,0.00223 c 0,-0.00163 -0.010791,-0.088034 -0.02398,-0.1920192 C 1.9424838,1.536163 1.9207648,1.287196 1.9203348,1.2073255 c -1.229e-4,-0.022719 0.00371,-0.026403 0.027485,-0.026403 0.015195,0 0.032607,-0.006 0.038694,-0.013335 0.031044,-0.037406 0.1503115,-0.037503 0.2241017,-1.824e-4 0.090501,0.045772 0.1224182,0.090014 0.1224182,0.1696902 0,0.045734 -0.0035,0.05479 -0.031203,0.080692 -0.017162,0.016047 -0.043096,0.048744 -0.057632,0.07266 -0.014872,0.024468 -0.035864,0.045727 -0.048005,0.048615 -0.047921,0.0114 -0.096681,0.033821 -0.1046935,0.048139 -0.00501,0.00896 -0.00385,0.070581 0.00284,0.1504688 0.00884,0.105552 0.00878,0.1378471 -2.794e-4,0.1469089 -0.00975,0.00975 -0.1066647,0.017622 -0.1066647,0.00866 z M 2.1933207,1.4191464 C 2.2583467,1.3875544 2.2896697,1.3009276 2.2490247,1.2650886 2.2085897,1.2294346 2.1266438,1.1959096 2.07921,1.1956166 c -0.047194,-2.919e-4 -0.048395,4.34e-4 -0.070962,0.042907 -0.021312,0.04011 -0.022103,0.046642 -0.011051,0.091209 0.016554,0.066753 0.025645,0.081225 0.060565,0.096415 0.043969,0.019126 0.086278,0.016941 0.135559,-0.007 z"
       id="path3751"
       inkscape:connector-curvature="0" />
  </g>
</svg>
