<?xml version="1.0" encoding="UTF-8" standalone="no"?>
<!-- Created with Inkscape (http://www.inkscape.org/) -->

<svg
   xmlns:osb="http://www.openswatchbook.org/uri/2009/osb"
   xmlns:dc="http://purl.org/dc/elements/1.1/"
   xmlns:cc="http://creativecommons.org/ns#"
   xmlns:rdf="http://www.w3.org/1999/02/22-rdf-syntax-ns#"
   xmlns:svg="http://www.w3.org/2000/svg"
   xmlns="http://www.w3.org/2000/svg"
   xmlns:xlink="http://www.w3.org/1999/xlink"
   xmlns:sodipodi="http://sodipodi.sourceforge.net/DTD/sodipodi-0.dtd"
   xmlns:inkscape="http://www.inkscape.org/namespaces/inkscape"
   version="1.1"
   id="svg4535"
   width="62.75"
   height="49.625"
   viewBox="0 0 62.75 49.625"
   sodipodi:docname="actuator.svg"
   inkscape:version="0.92.4 (5da689c313, 2019-01-14)">
  <metadata
     id="metadata4541">
    <rdf:RDF>
      <cc:Work
         rdf:about="">
        <dc:format>image/svg+xml</dc:format>
        <dc:type
           rdf:resource="http://purl.org/dc/dcmitype/StillImage" />
        <dc:title />
      </cc:Work>
    </rdf:RDF>
  </metadata>
  <defs
     id="defs4539">
    <linearGradient
       inkscape:collect="always"
       id="linearGradient4999">
      <stop
         style="stop-color:#d63030;stop-opacity:1;"
         offset="0"
         id="stop4995" />
      <stop
         style="stop-color:#ffb600;stop-opacity:1"
         offset="1"
         id="stop4997" />
    </linearGradient>
    <linearGradient
       id="linearGradient6574"
       osb:paint="solid">
      <stop
         style="stop-color:#000000;stop-opacity:1;"
         offset="0"
         id="stop6572" />
    </linearGradient>
    <inkscape:path-effect
       effect="lattice2"
       gridpoint0="1.9342484,-0.7296571"
       gridpoint1="49.128749,-0.7296571"
       gridpoint2="1.9342484,49.806908"
       gridpoint3="49.128749,49.806908"
       gridpoint4="13.732874,-0.7296571"
       gridpoint5="37.330124,-0.7296571"
       gridpoint6="13.732874,49.806908"
       gridpoint7="37.330124,49.806908"
       gridpoint8x9="25.531499,-0.7296571"
       gridpoint10x11="25.531499,49.806908"
       gridpoint12="1.9342484,11.904484"
       gridpoint13="49.128749,11.904484"
       gridpoint14="1.9342484,37.172767"
       gridpoint15="49.128749,37.172767"
       gridpoint16="13.732874,11.904484"
       gridpoint17="37.330124,11.904484"
       gridpoint18="13.732874,37.172767"
       gridpoint19="37.330124,37.172767"
       gridpoint20x21="25.531499,11.904484"
       gridpoint22x23="25.531499,37.172767"
       gridpoint24x26="1.9342484,24.538626"
       gridpoint25x27="49.128749,24.538626"
       gridpoint28x30="13.732874,24.538626"
       gridpoint29x31="37.330124,24.538626"
       gridpoint32x33x34x35="25.531499,24.538626"
       id="path-effect3755"
       is_visible="true"
       horizontal_mirror="false"
       vertical_mirror="false"
       live_update="true" />
    <inkscape:path-effect
       effect="envelope"
       id="path-effect3753"
       is_visible="true"
       yy="true"
       xx="true"
       bendpath1="M 1.9361846,1.7296784 H 49.130685"
       bendpath2="M 49.130685,1.7296784 V 47.351032"
       bendpath3="M 1.9361846,47.351032 H 49.130685"
       bendpath4="M 1.9361846,1.7296784 V 47.351032" />
    <inkscape:path-effect
       effect="fill_between_strokes"
       id="path-effect48"
       is_visible="true"
       linkedpath=""
       secondpath=""
       reversesecond="false" />
    <inkscape:path-effect
       effect="perspective-envelope"
       up_left_point="1.9361846,1.7296784"
       up_right_point="49.130685,1.7296784"
       down_left_point="1.9361846,47.351032"
       down_right_point="49.130685,47.351032"
       id="path-effect46"
       is_visible="true"
       deform_type="perspective"
       horizontal_mirror="false"
       vertical_mirror="false"
       overflow_perspective="false" />
    <clipPath
       clipPathUnits="userSpaceOnUse"
       id="clipPath5830">
      <rect
         style="opacity:0.24800002;fill:#9a1c9b;fill-opacity:1;stroke:#000000;stroke-width:0.69999999;stroke-miterlimit:4;stroke-dasharray:none;stroke-opacity:1;paint-order:markers stroke fill"
         id="rect5832"
         width="49.492653"
         height="49.713707"
         x="0.33699065"
         y="0.35264498" />
    </clipPath>
    <clipPath
       clipPathUnits="userSpaceOnUse"
       id="clipPath5834">
      <rect
         style="opacity:0.24800002;fill:#9a1c9b;fill-opacity:1;stroke:#000000;stroke-width:0.69999999;stroke-miterlimit:4;stroke-dasharray:none;stroke-opacity:1;paint-order:markers stroke fill"
         id="rect5836"
         width="49.492653"
         height="49.713707"
         x="0.33699065"
         y="0.35264498" />
    </clipPath>
    <clipPath
       clipPathUnits="userSpaceOnUse"
       id="clipPath5120">
      <rect
         style="opacity:0.17000002;fill:#374fa0;fill-opacity:1;stroke-width:2.16940022"
         id="rect5122"
         width="44.846497"
         height="45.002071"
         x="2.5154092"
         y="2.9161739"
         transform="rotate(90)" />
    </clipPath>
    <clipPath
       clipPathUnits="userSpaceOnUse"
       id="clipPath5124">
      <rect
         style="opacity:0.17000002;fill:#374fa0;fill-opacity:1;stroke-width:2.16940022"
         id="rect5126"
         width="44.846497"
         height="45.002071"
         x="2.5154092"
         y="2.9161739"
         transform="rotate(90)" />
    </clipPath>
    <linearGradient
       inkscape:collect="always"
       xlink:href="#linearGradient4999"
       id="linearGradient5001"
       x1="1.332455"
       y1="31.155718"
       x2="-0.22880127"
       y2="-30.311815"
       gradientUnits="userSpaceOnUse" />
  </defs>
  <sodipodi:namedview
     pagecolor="#ffffff"
     bordercolor="#666666"
     borderopacity="1"
     objecttolerance="10"
     gridtolerance="10"
     guidetolerance="10"
     inkscape:pageopacity="0"
     inkscape:pageshadow="2"
     inkscape:window-width="1366"
     inkscape:window-height="715"
     id="namedview4537"
     showgrid="false"
     inkscape:zoom="5.6568542"
     inkscape:cx="26.109629"
     inkscape:cy="24.246638"
     inkscape:window-x="-8"
     inkscape:window-y="-8"
     inkscape:window-maximized="1"
     inkscape:current-layer="layer8"
     inkscape:snap-grids="false"
     inkscape:snap-to-guides="false"
     inkscape:lockguides="true" />
  <path
     style="opacity:0;fill:#9a1c9b;fill-opacity:1;stroke:#000000;stroke-width:0.68945795;stroke-miterlimit:4;stroke-dasharray:none;stroke-opacity:1;paint-order:markers stroke fill"
     d="m 8.956968,0.44878315 c -0.0082,0.0123395 -0.016539,0.0245035 -0.025391,0.0371094 -0.00871,0.0124003 -0.016163,0.0261659 -0.027344,0.0371094 -0.010681,0.010453 -0.023708,0.0177378 -0.035156,0.0273437 -0.029132,0.0133159 -0.051289,0.0241791 -0.082031,0.0253906 -0.012811,5.0488e-4 -0.026218,-0.001499 -0.039062,-0.001953 -0.00394,-2.921e-5 -0.0077,-0.002019 -0.011719,-0.001953 -0.02343,0.0701956 -0.076768,0.17557981 -0.1113281,0.23632812 -0.048164,0.0846628 -0.065411,0.11181871 -0.1347657,0.1796875 -0.014622,0.0143088 -0.032661,0.0245731 -0.048828,0.0371094 -0.1006002,0.00367 -0.115995,0.0083 -0.1230469,-0.00391 -0.021031,0.010467 -0.049598,0.011511 -0.074219,0.017578 -0.040686,0.010026 -0.080364,0.019447 -0.1210937,0.029297 -0.030463,0.00688 -0.061192,0.015268 -0.091797,0.021484 -0.00152,3.087e-4 -0.0024,-2.981e-4 -0.00391,0 -0.00228,0.00369 -0.00464,0.00719 -0.00781,0.00977 -0.014689,0.01192 -0.031777,0.023759 -0.046875,0.035156 l -0.064452,-0.017578 c -0.031905,0.023469 -0.063686,0.047126 -0.095703,0.070313 -0.1363936,0.09877 -0.2749461,0.1957481 -0.4082029,0.2988273 -0.082727,0.063993 -0.1593827,0.1288476 -0.2402344,0.1953125 -0.091619,0.068237 -0.1788298,0.142665 -0.265625,0.2167969 -0.00442,0.00378 -0.018699,0.014415 -0.029297,0.023437 -0.013084,0.01799 -0.029327,0.033684 -0.041016,0.052734 h -0.00195 c -0.00182,1.306e-4 -0.00174,0.0068 -0.00391,0.00586 -0.00506,-0.00218 -0.00698,-0.00906 -0.011719,-0.011719 -0.00797,0.00506 -0.015284,0.00889 -0.023438,0.013672 -0.027991,0.00605 0.00265,-5.535e-4 -0.00977,0.00195 -0.00518,0.00456 -0.010441,0.00912 -0.015625,0.013672 -0.049205,0.043243 -0.060503,0.02113 -0.0625,-0.015625 -0.066625,0.060969 -0.1408806,0.1340741 -0.1953125,0.1835938 -0.067128,0.06107 -0.1356556,0.1209474 -0.203125,0.1816406 0.0075,0.00624 0.020311,0.00659 0.025391,0.015625 0.020464,0.03638 -0.011134,0.059894 -0.044922,0.074219 -0.016687,0.013561 -0.03395,0.025681 -0.050781,0.039062 -0.013341,0.010606 -0.020497,0.016768 -0.03125,0.025391 0.064575,0.1970319 0.080393,0.1674776 0.00391,0.2050781 -0.00862,0.00243 -2.6e-5,7.28e-4 -0.017578,0.013672 -4.73e-5,1.234e-4 -0.00273,7.031e-4 -0.00391,0.00195 -0.00355,0.00377 -0.014221,0.014901 -0.00977,0.00781 9.203e-4,-0.00278 0.00348,-0.010308 0.00195,-0.00781 -0.033245,0.054464 0.012332,-0.00928 -0.025391,0.046875 l -0.00195,0.00195 c 0.00134,0.00566 -0.00236,-0.012462 0.00195,0.00391 0.00346,0.063125 -0.00738,0.1276507 -0.019531,0.1894531 -7.673e-4,0.0075 2.912e-4,0.014286 -0.00195,0.021484 -0.013552,0.043458 -0.023802,0.080879 -0.0625,0.1074219 -0.00402,0.00276 -0.00939,0.00335 -0.013672,0.00586 V 46.855033 c 0.0012,0.0011 -0.00133,-0.0082 0.029297,0.04102 -0.00194,-0.0023 0.00391,0.0074 0.00391,0.0078 0.0083,0.0065 0.022691,0.01449 0.017578,0.02148 -0.00163,0.0022 -0.00415,0.0037 -0.00586,0.0059 0.014108,0.02365 0.028286,0.0454 0.015625,0.03906 -0.012043,-0.0061 -0.017511,-0.01896 -0.023437,-0.03125 0.023646,0.01587 0.042427,0.05689 0.044922,0.07422 0.00162,0.01122 -4.84e-5,0.02382 0,0.03516 -0.00398,0.04479 -0.00571,0.08792 -0.00391,0.132813 l -0.00195,0.002 c 0.00334,0.0031 0.00644,0.0022 0.00977,0.0059 0.028489,0.03104 0.057862,0.06233 0.085937,0.09375 0.1313949,0.147041 0.088026,0.104898 0.2304688,0.255859 0.083452,0.08844 0.1682369,0.17548 0.2519531,0.263672 0.00196,0.0017 0.0039,0.0042 0.00586,0.0059 0.4471053,0.383843 0.9173009,0.797527 1.4179687,1.238281 h 45.78711 c 0.0096,-0.0084 0.01955,-0.02009 0.02734,-0.02539 9.56e-4,10e-4 9.9e-4,0.0029 0.002,0.0039 0.0093,-0.0054 0.01814,-0.01205 0.02734,-0.01758 -0.04303,-0.0095 0.0091,-0.0012 0.04492,0 -0.0026,-0.0012 -0.0053,-0.0025 -0.0078,-0.0039 -0.01479,-0.0085 0.03187,0.0025 0.05273,0.002 0.0019,-0.0014 0.004,-0.0024 0.0059,-0.0039 0.0761,-0.06097 0.121902,-0.104145 0.197266,-0.169922 0.125324,-0.104782 0.256552,-0.205817 0.408203,-0.269532 0.04507,-0.01866 0.08978,-0.03581 0.134766,-0.05469 0.01181,-0.0049 0.02347,-0.01033 0.03516,-0.01563 0.365584,-0.319881 0.545989,-0.454349 0.779297,-0.591797 -0.04027,-0.08302 -0.06206,-0.137582 -0.04688,-0.164063 -0.0037,-0.0076 -0.002,-0.0057 -0.0059,-0.01367 -0.0028,-0.0057 0.01154,-0.0037 0.01758,-0.0059 0.02074,-0.01626 0.0524,-0.03305 0.103516,-0.05859 0.02134,-0.01066 0.0349,-0.0033 0.05469,-0.0098 0.0099,-0.0043 0.01943,-0.0093 0.0293,-0.01367 0.0084,-0.01375 0.01654,-0.02758 0.02539,-0.04102 0.02623,-0.03982 0.05294,-0.07798 0.08008,-0.117187 0.02902,-0.03703 0.05617,-0.07658 0.08789,-0.111328 0.176372,-0.193195 0.414102,-0.329036 0.65625,-0.429688 -0.0023,-0.03523 0.0043,-0.07054 -0.002,-0.105469 -0.003,-0.01197 -0.0068,-0.02515 -0.0098,-0.03711 -8.9e-4,-0.0035 -0.0035,-0.0062 -0.0039,-0.0098 -3.72e-4,-0.0032 3.42e-4,-0.0065 0,-0.0098 -0.0078,-0.004 -0.0067,-0.0033 -0.01563,-0.0078 -0.01943,-0.0098 -0.0245,-0.0367 -0.0332,-0.05664 -0.0058,-0.01327 -0.01458,-0.02931 -0.0098,-0.04297 0.0537,-0.152231 0.07648,-0.177558 0.128906,-0.189453 V 2.648002 c -0.04244,-0.033232 -0.08474,-0.066621 -0.128906,-0.097656 -0.0078,-0.0056 -0.01868,-0.00926 -0.02344,-0.017578 -0.002,-0.00345 0.01362,-0.0049 0.0098,-0.00586 -0.021,-0.00522 -0.04441,3.277e-4 -0.06445,-0.00781 -0.02927,-0.011893 -0.05719,-0.029 -0.08008,-0.050781 -0.04572,-0.043504 -0.06642,-0.1217625 -0.08789,-0.1757813 -0.01063,-0.045279 -0.02555,-0.088889 -0.0332,-0.1347656 -0.01494,-0.089595 -0.01801,-0.1351641 -0.0098,-0.2167969 0.0017,-0.016612 0.0091,-0.036373 0.01367,-0.056641 -0.02271,-0.00214 -0.04547,-0.00335 -0.06836,-0.00586 h -0.002 c -0.03222,-0.00206 -0.07538,-0.00315 -0.08789,-0.00391 -0.08997,-0.00822 -0.202311,-0.013835 -0.294921,-0.035156 -0.06997,-0.016108 -0.09945,-0.03086 -0.164063,-0.058594 -0.104061,-0.044669 -0.07794,-0.032002 -0.179687,-0.080078 -0.006,-0.00314 -0.01158,-0.00667 -0.01758,-0.00977 -0.05269,0.00178 -0.09048,-0.00277 -0.205078,-0.025391 0.0014,-0.030408 0.0051,-0.060893 0.0039,-0.091797 -0.02675,-0.028874 -0.04067,-0.070025 -0.05273,-0.1132812 -0.05841,-0.021777 -0.120688,-0.037003 -0.181641,-0.072266 -0.0357,-0.020652 -0.06936,-0.047198 -0.103515,-0.070312 -0.02488,-0.020988 -0.0504,-0.040321 -0.07422,-0.0625 -0.05257,-0.048947 -0.06507,-0.063958 -0.103516,-0.1171876 -0.0082,-0.011403 -0.03616,-0.029141 -0.02344,-0.035156 0.01679,-0.00794 0.03078,0.024179 0.04883,0.027344 -0.01278,-0.015893 -0.02565,-0.031427 -0.03906,-0.046875 -0.02116,-0.00871 -0.04102,-0.012641 -0.06445,-0.023437 -0.03155,-0.014537 -0.0621,-0.032757 -0.0918,-0.050781 -0.04602,-0.0279324 -0.08305,-0.0537064 -0.117188,-0.0957031 -0.0165,-0.0202979 -0.02855,-0.0445817 -0.04297,-0.0664063 -0.0097,-0.0245155 -0.02202,-0.0488814 -0.0293,-0.0742187 -0.01667,-0.0580299 -0.01279,-0.0620992 -0.01367,-0.109375 -1.71e-4,-0.009194 4.75e-4,-0.0181645 0,-0.0273438 -0.04818,-0.007009 -0.09877,-0.00874 -0.138672,-0.0175781 -0.05245,-0.0116143 -0.102736,-0.0298603 -0.154297,-0.0449219 -0.08951,-0.0383297 -0.104907,-0.038955 -0.179688,-0.0878906 -0.01228,-0.008035 -0.02509,-0.0166652 -0.03516,-0.0273437 -0.0028,-0.002999 -0.0049,-0.00674 -0.0078,-0.009766 z M 54.062437,49.005424 c 0.0054,-0.0026 -0.009,0.0032 -0.04492,0.002 0.0094,0.0042 0.01869,0.0078 0.0293,0.0098 0.0052,-0.0039 0.0105,-0.0077 0.01563,-0.01172 z M 8.269468,0.93706441 l -0.00195,0.001953 c 4.36e-4,0.008966 5.651e-4,0.0229983 0.00781,0.03125 0.00583,0.006633 0.010539,0.0116973 0.021484,0.015625 -0.00541,-0.0134389 -0.0063,-0.0199877 -0.027344,-0.048828 z M 8.0585305,1.023002 c -0.00283,0.00851 -0.00676,0.016945 -0.00977,0.025391 0.00617,-0.00619 0.00924,-0.011322 0.013672,-0.017578 v -0.00195 c -0.00162,-0.00164 -0.00238,-0.00415 -0.00391,-0.00586 z M 53.956968,49.024955 c -0.0022,-0.0011 -0.0038,0.0038 -0.0059,0.0039 0.0055,0.0056 0.01037,0.01178 0.01563,0.01758 h 0.01758 c -0.0091,-0.0074 -0.01688,-0.01637 -0.02734,-0.02148 z"
     id="rect5237"
     inkscape:connector-curvature="0" />
  <g
     inkscape:groupmode="layer"
     id="layer5"
     inkscape:label="background box"
     style="display:none"
     transform="translate(5.8925149,0.00933003)">
    <path
       style="display:inline;fill:#f58230;fill-opacity:1;stroke-width:1.00406241"
       id="path3799"
       sodipodi:type="arc"
       sodipodi:cx="3.4527662"
       sodipodi:cy="3.1409318"
       sodipodi:rx="3.4653199"
       sodipodi:ry="3.1464777"
       sodipodi:start="0"
       sodipodi:end="6.2718407"
       d="M 6.9180861,3.1409318 A 3.4653199,3.1464777 0 0 1 3.4625943,6.2873969 3.4653199,3.1464777 0 0 1 -0.01249794,3.1587795 3.4653199,3.1464777 0 0 1 3.423282,-0.00543196 3.4653199,3.1464777 0 0 1 6.9178631,3.1052371 l -3.4650969,0.035695 z" />
    <path
       d="m 51.32191,3.1215787 a 3.477042,3.1230323 0 0 1 -3.467181,3.1230198 3.477042,3.1230323 0 0 1 -3.486847,-3.1053051 3.477042,3.1230323 0 0 1 3.447402,-3.14063399 3.477042,3.1230323 0 0 1 3.506402,3.08749049 l -3.476818,0.035429 z"
       sodipodi:end="6.2718407"
       sodipodi:start="0"
       sodipodi:ry="3.1230323"
       sodipodi:rx="3.477042"
       sodipodi:cy="3.1215787"
       sodipodi:cx="47.844868"
       sodipodi:type="arc"
       id="path3801"
       style="display:inline;fill:#f58230;fill-opacity:1;stroke-width:1.00200498" />
    <path
       style="display:inline;fill:#f58230;fill-opacity:1;stroke-width:0.99438989"
       id="path3803"
       sodipodi:type="arc"
       sodipodi:cx="47.821606"
       sodipodi:cy="46.240391"
       sodipodi:rx="3.4965792"
       sodipodi:ry="3.058558"
       sodipodi:start="0"
       sodipodi:end="6.2718407"
       d="m 51.318185,46.240391 a 3.4965792,3.058558 0 0 1 -3.486663,3.058545 3.4965792,3.058558 0 0 1 -3.506439,-3.041196 3.4965792,3.058558 0 0 1 3.466773,-3.075796 3.4965792,3.058558 0 0 1 3.526104,3.023749 l -3.496354,0.0347 z" />
    <path
       d="M 6.9394791,46.2104 A 3.478497,3.0927694 0 0 1 3.4708476,49.303157 3.478497,3.0927694 0 0 1 -0.01745898,46.227943 3.478497,3.0927694 0 0 1 3.4313858,43.117742 3.478497,3.0927694 0 0 1 6.9392553,46.175314 L 3.4609821,46.2104 Z"
       sodipodi:end="6.2718407"
       sodipodi:start="0"
       sodipodi:ry="3.0927694"
       sodipodi:rx="3.478497"
       sodipodi:cy="46.2104"
       sodipodi:cx="3.4609821"
       sodipodi:type="arc"
       id="path3805"
       style="display:inline;fill:#f58230;fill-opacity:1;stroke-width:0.997347" />
    <path
       id="rect3794"
       style="display:inline;opacity:1;fill:#f58230;fill-opacity:1;stroke-width:1.01407564"
       d="m 2.9390011,-0.00195724 c 7.75e-5,0.001410463 -4.07e-4,0.002660874 0,0.00391128 h 0.00195 V 3.4032863e-6 L 2.9429023,-0.00194724 Z m 0.4532612,0 c 0.00117,0.00611201 -0.00297,0.01395659 -0.00391,0.02149106 -0.00239,0.01906126 0.0025,0.0095031 -0.00586,0.04298312 -0.00548,0.02193421 -0.021269,0.06640382 -0.029306,0.08987354 -0.011818,0.0257545 -0.034301,0.0762621 -0.048843,0.10354962 -0.00534,0.0100173 -0.010423,0.0204997 -0.017583,0.0293066 -0.00632,0.007773 -0.012239,0.0146018 -0.019537,0.0214911 0.00664,0.001721 -0.0094,0.0102734 -0.013676,0.0156301 -0.014697,0.0202767 -0.026627,0.0400592 -0.041028,0.0605669 -0.00871,0.0124031 -0.016167,0.0261756 -0.027352,0.0371212 -0.010685,0.0104554 -0.023714,0.0177448 -0.035167,0.027353 -0.029143,0.0133194 -0.051302,0.0241869 -0.082056,0.0253993 -0.012816,5.0507e-4 -0.026226,-0.0015 -0.039074,-0.001951 -0.00394,-2.921e-5 -0.0077,-0.002021 -0.011722,-0.001951 -0.023439,0.0702131 -0.076789,0.17564232 -0.1113616,0.23640588 -0.048182,0.0846838 -0.065426,0.11186086 -0.1348062,0.17974656 -0.014627,0.0143127 -0.032669,0.0245821 -0.048843,0.0371212 -0.1006382,0.003671 -0.1160293,0.008303 -0.1230839,-0.003911 -0.021039,0.0104704 -0.049611,0.0115158 -0.074241,0.0175838 -0.040701,0.0100283 -0.080385,0.0194544 -0.1211301,0.0293066 -0.030474,0.006872 -0.061208,0.015274 -0.091825,0.0214911 -0.00152,3.088e-4 -0.0024,-2.982e-4 -0.00391,0 -0.00228,0.003691 -0.00464,0.007192 -0.00781,0.009773 -0.01469,0.0119229 -0.031785,0.0237678 -0.046889,0.0351676 L 2.1887754,1.0140069 C 2.1568598,1.0374816 2.1250722,1.0611494 2.0930436,1.084343 1.9565984,1.1831335 1.8180249,1.2801594 1.6847183,1.3832642 1.6019604,1.4472733 1.5252939,1.51216 1.4444117,1.5786408 1.3527582,1.6468953 1.2655348,1.7213586 1.1787069,1.795509 1.1742869,1.799289 1.1600029,1.809931 1.1494009,1.818954 1.1363119,1.836949 1.1200659,1.85265 1.1083729,1.871705 h -0.00195 c -0.00182,1.307e-4 -0.00174,0.0068 -0.00391,0.00586 -0.00506,-0.00218 -0.00698,-0.00906 -0.011723,-0.011723 -0.00797,0.00506 -0.015286,0.00889 -0.023445,0.013677 -0.028001,0.00605 0.00265,-5.038e-4 -0.00977,0.00195 -0.00518,0.00456 -0.010444,0.00912 -0.01563,0.013677 C 0.9927211,1.9384 0.9814237,1.91628 0.9794261,1.879516 0.9127758,1.9405 0.83850727,2.0136383 0.78405492,2.06317 0.71690172,2.124255 0.64836376,2.1841621 0.58086889,2.2448704 c 0.007502,0.00624 0.0203171,0.00659 0.0253986,0.01563 0.0204722,0.036389 -0.0111343,0.059915 -0.0449355,0.074243 -0.016693,0.013564 -0.0339592,0.025692 -0.0507963,0.039075 -0.013346,0.010609 -0.0205022,0.016774 -0.0312594,0.025399 0.0645994,0.197081 0.0804282,0.1675355 0.003911,0.2051455 -0.008623,0.00243 -2.521e-5,7.267e-4 -0.0175833,0.013676 -4.732e-5,1.234e-4 -0.002731,7.466e-4 -0.003911,0.00195 -0.003551,0.00377 -0.0142193,0.014945 -0.009773,0.00781 9.2057e-4,-0.00278 0.003481,-0.010345 0.001951,-0.00781 -0.033258,0.054478 0.0123387,-0.00928 -0.0253986,0.04689 l -0.001951,0.00195 c 0.00135,0.00566 -0.002361,-0.012521 0.001951,0.00391 0.003461,0.063141 -0.007382,0.1276977 -0.0195369,0.1895155 -7.6773e-4,0.0075 2.8958e-4,0.014292 -0.001951,0.021491 -0.0135571,0.043469 -0.0238062,0.080908 -0.0625188,0.1074571 -0.0177453,0.01217 -0.0383905,0.021946 -0.0586116,0.029307 -0.009793,0.00356 -0.0189837,0.00248 -0.0293058,0.00391 -0.0139332,0.00483 -0.0270881,0.00915 -0.0429819,0.013676 -0.003131,8.906e-4 -0.006612,0.00309 -0.009773,0.00391 -9.6389e-4,5.586e-4 -0.002951,-5.681e-4 -0.003911,0 l -0.001951,0.00195 h -0.001951 c -0.002281,0.00129 -0.005552,0.0072 -0.007812,0.00586 -0.003701,0.00412 -0.008042,0.00758 -0.0117225,0.011723 -0.007772,0.00688 -0.0150505,0.013431 -0.023444,0.019537 -0.0211974,0.01542 -0.05332602,0.031004 -0.07814848,0.04103 -0.01775433,0.00411 -0.03507553,0.00729 -0.05274984,0.011723 -0.0039512,0.0024 -0.003271,0.00654 -0.0214904593,0.00586 -0.001880561,-7.01e-5 -0.003961191,1.405e-4 -0.005861761,0 V 46.218308 c 0.004821448,0.0073 0.01020007,0.0096 0.0156297,0.01759 0.01315095,0.01923 0.02628189,0.03914 0.03907373,0.05861 0.04325199,0.0658 0.0562489,0.08476 0.10550049,0.154347 0.0190657,0.02684 0.0403341,0.05274 0.0586116,0.08011 0.0281575,0.04217 0.0514004,0.092 0.0820556,0.132856 0.0694959,0.09261 -0.002561,-0.0205 0.0722877,0.09964 -0.001941,-0.0023 0.003911,0.0074 0.003911,0.0078 0.008313,0.0065 0.0227018,0.0145 0.0175833,0.02149 -0.00163,0.0022 -0.004151,0.0037 -0.005862,0.0059 0.0141232,0.02366 0.0283045,0.04541 0.0156297,0.03907 -0.0120556,-0.0061 -0.0175113,-0.01897 -0.023444,-0.03126 0.0236701,0.01589 0.0424387,0.05692 0.0449355,0.07424 0.00162,0.01122 -4.841e-5,0.02383 0,0.03517 -0.003981,0.0448 -0.005712,0.08794 -0.003911,0.132856 l -0.001951,0.002 c 0.003351,0.0031 0.006442,0.0022 0.009773,0.0059 0.0285186,0.03105 0.0578584,0.06236 0.0859628,0.09378 0.13153201,0.14709 0.0879464,0.104933 0.23053795,0.255943 0.0835391,0.08846 0.16822533,0.175538 0.2520289,0.263759 0.002621,0.0022 0.005192,0.0056 0.007812,0.0078 0.5274119,0.449589 1.0988478,0.948482 1.6723773,1.459464 0.031297,-5.2e-5 0.062676,-8.8e-5 0.093778,0 0.00561,-1.04e-4 0.013228,3.29e-4 0.019537,0 0.00776,-0.0069 0.0057,-0.02061 0.017583,-0.02345 0.022284,-0.0053 0.051926,-0.002 0.085963,0.01367 0.011946,0.0055 0.023317,0.01201 0.035167,0.01759 0.021888,0.01029 0.044146,0.01963 0.066426,0.02931 0.053113,0.02307 0.1071173,0.04331 0.1602043,0.06643 0.047104,0.02053 0.095578,0.03779 0.142621,0.05861 H 47.92908 c -0.0039,-0.01163 -0.0099,-0.0231 -0.0078,-0.03517 0.0076,-0.04341 0.03098,-0.05328 0.04884,-0.07229 -0.0049,0.01156 -0.01116,0.03062 -0.0078,0.02345 0.0048,-0.01031 0.01028,-0.0203 0.01367,-0.03126 0.0103,-0.0094 0.01102,-0.03163 0.0254,-0.03907 0.0088,-0.0045 0.01233,-0.01109 0.02345,-0.01564 -0.005,1.76e-4 5.57e-4,-0.0041 -0.0059,-0.0039 0.003,-0.006 0.0048,-0.01298 0.0098,-0.01759 0.02294,-0.02138 0.04984,-0.03893 0.07424,-0.05861 0.08181,-0.06598 0.06687,-0.05345 0.07229,-0.05861 0.0188,-0.02468 0.04461,-0.04642 0.06252,-0.05861 9.56e-4,10e-4 8.96e-4,0.0029 0.002,0.0039 0.0093,-0.0054 0.01815,-0.01205 0.02735,-0.01759 -0.04304,-0.0095 0.0091,-0.0012 0.04493,0 -0.0026,-0.0012 -0.0053,-0.0025 -0.0078,-0.0039 -0.01479,-0.0085 0.03188,0.0025 0.05275,0.002 0.0019,-0.0014 0.004,-0.0024 0.0059,-0.0039 0.07612,-0.06099 0.121939,-0.104179 0.197326,-0.169977 0.125361,-0.104817 0.256629,-0.205885 0.408325,-0.269621 0.04508,-0.01867 0.08981,-0.03582 0.134807,-0.05471 0.01181,-0.0049 0.02348,-0.01033 0.03517,-0.01564 0.365694,-0.319986 0.546153,-0.454498 0.779532,-0.591992 -0.04028,-0.08305 -0.06208,-0.137627 -0.04689,-0.164117 -0.0037,-0.0076 -0.002,-0.0057 -0.0059,-0.01367 -0.0028,-0.0057 0.01154,-0.0037 0.01758,-0.0059 0.02075,-0.01627 0.05242,-0.03306 0.103547,-0.05861 0.02135,-0.01066 0.03491,-0.0033 0.05471,-0.0098 0.0099,-0.0043 0.01944,-0.0093 0.02931,-0.01367 0.0084,-0.01375 0.01655,-0.02759 0.0254,-0.04103 0.02624,-0.03983 0.05296,-0.07801 0.0801,-0.117226 0.02903,-0.03704 0.05619,-0.07661 0.08792,-0.111365 0.176425,-0.193258 0.414227,-0.329144 0.656448,-0.429829 -0.0023,-0.03524 0.0043,-0.07056 -0.002,-0.105503 -0.003,-0.01197 -0.0068,-0.02516 -0.0098,-0.03712 -8.9e-4,-0.0035 -0.0035,-0.0062 -0.0039,-0.0098 -3.72e-4,-0.0032 3.42e-4,-0.0065 0,-0.0098 -0.0078,-0.004 -0.0067,-0.0033 -0.01564,-0.0078 -0.01944,-0.0098 -0.02451,-0.03671 -0.03321,-0.05666 -0.0058,-0.01328 -0.01446,-0.02932 -0.0098,-0.04298 0.07849,-0.22252 0.04392,-0.18057 0.222723,-0.209053 0.01472,0.004 0.01772,0.0072 0.02735,0.0098 0.0174,-0.0059 0.03487,-0.01085 0.05275,-0.01564 -7.27e-4,0.0075 -0.0058,0.02033 -0.0078,0.02931 0.0032,-1.93e-4 0.0066,5.33e-4 0.0098,0 0.0011,-1.84e-4 -0.001,-0.0034 0,-0.0039 0.002,-9.69e-4 0.0038,-0.0012 0.0059,-0.002 v -0.002 h 0.0059 c 5.57e-4,-0.0073 -0.0035,-0.01697 -0.002,-0.02345 7.77e-4,-0.0033 0.02379,0.0011 0.04298,0.0039 0.0013,-0.0027 0.0011,-0.0054 0.002,-0.0078 l 0.002,-0.002 c 0.0045,-0.0031 0.01109,-0.0091 0.0078,-0.0078 -0.0054,0.0021 -0.004,0.0089 -0.0059,0.01367 -0.01373,0.0061 -0.01808,0.01347 0.02149,-0.03321 0.01068,-0.005 0.02344,-0.01124 0.03517,-0.01367 0.0053,-0.0011 0.01035,-0.0029 0.01563,-0.0039 0.0023,-2.75e-4 0.01011,-0.0025 0.0078,-0.002 0.0053,-0.0022 0.01037,-0.0055 0.01563,-0.0078 0.0025,-0.0011 0.0051,-0.0011 0.0078,-0.002 0.0028,-9.15e-4 0.0032,8.09e-4 0.0059,0 V 2.9931677 c -0.0055,-9.419e-4 -0.01029,-0.00408 -0.01563,-0.00586 -0.01362,-0.00454 -0.02787,-0.00791 -0.04103,-0.013677 -0.02879,-0.012619 -0.03719,-0.019337 -0.06057,-0.035168 -0.115951,-0.078475 -0.117741,-0.1763011 -0.06057,-0.2207757 -0.03191,-0.034157 -0.06128,-0.069261 -0.06447,-0.1015959 -0.0093,-0.00568 -0.01859,-0.011457 -0.02735,-0.017584 -0.06981,-0.048786 -0.133507,-0.1053791 -0.203186,-0.1543476 -0.0078,-0.0056 -0.01868,-0.00926 -0.02345,-0.017584 -0.002,-0.00345 0.01322,-0.0049 0.0098,-0.00586 -0.02101,-0.00522 -0.04442,3.003e-4 -0.06447,-0.00781 -0.02928,-0.011897 -0.05721,-0.02901 -0.0801,-0.050798 -0.04573,-0.043518 -0.06644,-0.1218025 -0.08792,-0.1758391 -0.01063,-0.045294 -0.02556,-0.088918 -0.03321,-0.1348099 -0.01494,-0.089624 -0.01761,-0.1352085 -0.0098,-0.2168681 0.0017,-0.016617 0.0091,-0.036385 0.01367,-0.05666 -0.02272,-0.00214 -0.04548,-0.00335 -0.06838,-0.00586 h -0.0021 c -0.03223,-0.00206 -0.0754,-0.00315 -0.08792,-0.00391 -0.09,-0.00822 -0.202372,-0.01384 -0.29501,-0.035168 -0.06999,-0.016113 -0.09948,-0.03087 -0.164112,-0.058613 -0.104092,-0.044684 -0.07796,-0.032012 -0.179741,-0.080104 -0.006,-0.00314 -0.01158,-0.00667 -0.01758,-0.00977 -0.05271,0.00178 -0.09051,-0.00277 -0.20514,-0.025399 0.0014,-0.030418 0.0051,-0.060913 0.0039,-0.091827 -0.02676,-0.028884 -0.04069,-0.070048 -0.05275,-0.1133185 -0.05843,-0.021784 -0.120725,-0.037015 -0.181696,-0.07229 -0.03571,-0.020659 -0.06938,-0.047216 -0.103546,-0.070335 -0.02489,-0.020995 -0.05041,-0.040334 -0.07424,-0.062521 -0.05259,-0.048963 -0.06509,-0.063979 -0.103548,-0.1172261 -0.0082,-0.011317 -0.03616,-0.029144 -0.02344,-0.0351606 0.0168,-0.007943 0.03079,0.024187 0.04885,0.027353 -0.01278,-0.015898 -0.02566,-0.0314373 -0.03907,-0.0468904 -0.02117,-0.008713 -0.04103,-0.0126452 -0.06447,-0.0234447 -0.03156,-0.0145418 -0.06212,-0.0327678 -0.09183,-0.0507977 -0.04603,-0.0279412 -0.08308,-0.0537237 -0.117223,-0.0957345 -0.01651,-0.0203047 -0.02856,-0.0445967 -0.04298,-0.0664278 -0.0097,-0.0245241 -0.02203,-0.0488971 -0.02931,-0.0742434 -0.01667,-0.0580491 -0.01279,-0.0621194 -0.01367,-0.10941095 -1.71e-4,-0.009193 4.76e-4,-0.018169 0,-0.027353 -0.04819,-0.007012 -0.0988,-0.008743 -0.138713,-0.0175838 -0.05247,-0.0116178 -0.102767,-0.0298698 -0.154344,-0.0449368 -0.08954,-0.0383426 -0.104938,-0.0389678 -0.179742,-0.0879199 -0.01228,-0.008043 -0.0251,-0.0166715 -0.03517,-0.027353 -0.01634,-0.0173417 -0.03558,-0.0347384 -0.04493,-0.0566596 -0.0056,-0.0130643 -0.0012,-0.0184491 -0.002,-0.027353 -0.0034,3.016e-4 -0.0063,0.001811 -0.0098,0.001951 -0.0011,-1.87e-5 -0.03743,0.001701 -0.01563,-0.001951 -0.03686,0.004832 -0.03412,0.007382 -0.07229,0 -0.0075,-0.00144 -0.01431,-0.005342 -0.02149,-0.007813 -0.0014,-4.8096e-4 -0.0018,-0.00122 -0.0039,-0.001951 -0.0046,-5.2068e-4 -0.0091,-0.0014 -0.01367,-0.001951 -0.01792,-0.005882 -0.03013,-0.009173 -0.04885,-0.0195374 -0.03556,-0.0197025 -0.02934,-0.0192563 -0.05275,-0.0390748 -0.01622,-0.0137385 -0.06461,-0.0534626 -0.07815,-0.0644742 -0.009,-0.007743 -0.01835,-0.0156992 -0.02735,-0.0234447 -0.0066,-0.005902 -0.01286,-0.01176487 -0.01953,-0.01758378 -0.0077,-0.0067422 -0.01595,-0.01448976 -0.02345,-0.02149106 -0.01085,-0.01013333 -0.02395,-0.01834203 -0.03126,-0.03126028 -0.01304,-0.02303757 -0.0081,-0.03090715 -0.0078,-0.04102948 z M 51.209358,46.357025 c -5.56e-4,0.0014 -0.0015,0.0024 -0.002,0.0039 0.0082,0.0013 0.01731,0.0013 0.01954,0.002 0.0027,0.0011 0.0052,0.0027 0.0078,0.0039 -0.0069,-0.01162 -0.01676,-0.0136 -0.0254,-0.0098 z m -2.852418,2.557482 c 0.0054,-0.0026 -0.009,0.0032 -0.04493,0.002 0.0094,0.0042 0.0187,0.0078 0.02931,0.0098 0.0052,-0.0039 0.01049,-0.0077 0.01563,-0.01172 z m -0.355576,0.22859 c -0.02109,0.0021 0.02174,-0.0062 0.02735,-0.01172 v -0.002 c -0.0092,0.0044 -0.01711,0.01267 -0.02735,0.01368 z M 2.5502124,0.83425503 l -0.00195,0.001951 c 4.361e-4,0.008963 5.977e-4,0.0230066 0.00781,0.0312603 0.00583,0.006632 0.010541,0.0117019 0.021491,0.0156301 -0.00541,-0.0134424 -0.0063,-0.0199976 -0.027352,-0.048844 z m -0.2110008,0.0859652 c -0.00283,0.008513 -0.00676,0.0169516 -0.00977,0.0253993 0.00617,-0.006192 0.00924,-0.0113267 0.013676,-0.0175838 v -0.001951 c -0.00162,-0.001641 -0.00238,-0.004151 -0.00391,-0.005862 z M 51.293369,46.360933 c -0.0013,6.15e-4 -0.0044,0.003 -0.0059,0.0039 0.002,7.8e-5 0.0039,-9.7e-5 0.0059,0 -0.0013,3.21e-4 0.0016,-0.0047 0,-0.0039 z m -3.04193,2.573111 c -0.0022,-0.0011 -0.0038,0.0038 -0.0059,0.0039 0.01,0.01028 0.01884,0.02136 0.02931,0.03126 0.004,-0.0025 0.0078,-0.0053 0.01172,-0.0078 -0.01341,-0.0076 -0.02177,-0.02081 -0.03517,-0.02735 z m -0.312594,0.31651 c -1.81e-4,0.009 0.0073,0.0291 0.01367,0.0469 h 0.0078 c -0.0096,-0.02226 -0.02138,-0.05246 -0.02149,-0.0469 z m -45.0955757,0.03321 c 0.00178,0.0016 0.00408,0.0023 0.00586,0.0039 -8.4e-4,-0.0012 -0.00127,-0.0027 -0.00195,-0.0039 -0.00107,9.8e-5 -0.00256,4.4e-5 -0.00391,0 z"
       inkscape:connector-curvature="0" />
  </g>
  <g
     inkscape:groupmode="layer"
     id="layer6"
     inkscape:label="background box 1"
     transform="translate(5.875,0.00378418)"
     style="display:inline">
    <rect
       style="opacity:1;fill:#f18613;fill-opacity:1;stroke:none;stroke-width:1.10517478;stroke-opacity:1"
       id="rect933"
       width="62.75"
       height="49.625"
       x="-5.875"
       y="-0.0037841797"
       rx="3.9085157" />
  </g>
  <g
     inkscape:groupmode="layer"
     id="layer8"
     inkscape:label="box"
     style="display:inline"
     transform="translate(5.875,0.00378418)">
    <rect
       style="opacity:1;fill:#ffffdb;fill-opacity:1;stroke:#a75200;stroke-width:1.19400001;stroke-miterlimit:4;stroke-dasharray:none;stroke-dashoffset:0;stroke-opacity:1"
       id="rect5136"
       width="43.503719"
       height="43.009735"
       x="3.7550001"
       y="3.1861699" />
  </g>
  <g
     inkscape:groupmode="layer"
     id="layer16"
     inkscape:label="box 1"
     style="display:inline"
     transform="translate(5.875,0.00378418)">
    <path
       style="opacity:1;fill:#f58230;fill-opacity:1"
       d="m 23.505157,42.007685 c -1.016592,-2.044087 -1.087228,-2.499619 -0.649521,-4.188786 0.151065,-0.582981 0.250502,-1.181298 0.220971,-1.329596 -0.03251,-0.163228 -0.921806,-0.607659 -2.253531,-1.126207 -1.209911,-0.471117 -2.212327,-0.838874 -2.227591,-0.817242 -0.01526,0.02163 -0.478016,0.687453 -1.028337,1.479596 -0.550322,0.792145 -1.138896,1.49688 -1.307944,1.566077 -0.169047,0.0692 -1.194488,0.427285 -2.278758,0.79575 l -1.9714,0.669936 -0.55523,-0.572852 -0.55523,-0.57285 0.738705,-1.928326 c 0.406288,-1.060579 0.80911,-2.018041 0.89516,-2.127692 0.08605,-0.109649 0.830953,-0.612998 1.655342,-1.118552 0.824388,-0.505554 1.498888,-0.939081 1.498888,-0.963395 0,-0.0861 -1.417753,-3.311556 -1.670065,-3.799473 l -0.256189,-0.495415 -1.467553,0.322884 c -0.807154,0.177586 -1.69717,0.324776 -1.977814,0.32709 -0.280645,0.0023 -1.4180346,-0.406982 -2.5275339,-0.909548 l -2.0172715,-0.913755 0.05266,-0.772624 0.05266,-0.772622 1.9223516,-0.876884 c 2.072625,-0.945431 2.4247908,-0.997013 4.1764438,-0.611719 1.924926,0.423407 1.778875,0.516652 2.799606,-1.787387 0.500125,-1.128904 0.87027,-2.115733 0.822546,-2.192954 -0.04772,-0.07722 -0.716384,-0.509516 -1.485908,-0.960657 C 13.341089,17.87934 12.636386,17.414391 12.544606,17.29726 12.452825,17.18013 12.048993,16.209912 11.6472,15.14122 l -0.730533,-1.943075 0.579512,-0.579513 0.579513,-0.579512 2.200978,0.754821 2.200978,0.754821 1.0745,1.524172 1.0745,1.524173 2.242327,-0.873693 c 2.484601,-0.968092 2.382051,-0.836725 1.973626,-2.528205 C 22.432595,11.497174 22.4977,11.097513 23.50905,9.1040846 l 0.928077,-1.8292949 0.837915,-8.001e-4 0.837916,-8.001e-4 0.821799,1.6351844 c 1.149431,2.2870921 1.170844,2.4027001 0.766326,4.1375661 -0.190928,0.818832 -0.34714,1.558291 -0.34714,1.643242 0,0.08495 0.616508,0.391627 1.370019,0.681503 0.753511,0.289875 1.780292,0.690524 2.281736,0.89033 l 0.911719,0.363283 0.894676,-1.360991 c 0.492074,-0.748546 1.072762,-1.471395 1.29042,-1.606332 0.217658,-0.134937 1.28628,-0.544521 2.374714,-0.910187 l 1.978973,-0.664847 0.556705,0.574374 0.556705,0.574375 -0.717591,1.910433 c -0.394676,1.050739 -0.798161,2.007514 -0.896635,2.126168 -0.09848,0.118654 -0.852343,0.628633 -1.675265,1.133286 l -1.49622,0.917553 0.243853,0.562461 c 0.134118,0.309354 0.542494,1.25852 0.907502,2.109258 0.747036,1.741143 0.661522,1.698258 2.55562,1.281631 1.751649,-0.385293 2.116138,-0.333053 4.182689,0.599482 l 1.916107,0.864647 v 0.817818 0.817818 l -1.933668,0.880797 c -1.063517,0.484439 -2.137435,0.877661 -2.386485,0.873829 -0.249049,-0.0038 -1.157135,-0.154153 -2.017968,-0.334046 l -1.565151,-0.32708 -0.402789,0.910779 c -0.221533,0.500926 -0.650797,1.457746 -0.953917,2.126264 -0.303121,0.668519 -0.551128,1.238919 -0.551128,1.267558 0,0.02864 0.665525,0.454069 1.478944,0.945398 0.81342,0.491328 1.56849,1.001219 1.677932,1.13309 0.109443,0.13187 0.521903,1.099459 0.916579,2.150196 l 0.717591,1.910435 -0.556705,0.574374 -0.556705,0.574374 -2.049364,-0.688496 c -2.278248,-0.76539 -2.652028,-1.038262 -3.76756,-2.750445 l -0.720899,-1.106479 -1.088974,0.413662 c -2.406721,0.914228 -3.47546,1.384054 -3.47546,1.527843 0,0.08312 0.156212,0.821085 0.34714,1.639916 0.407523,1.74776 0.377976,1.903583 -0.789623,4.164269 l -0.830748,1.608482 h -0.825685 -0.825685 z m 3.375095,-10.426859 c 1.414427,-0.368411 2.246043,-0.828835 3.175102,-1.757892 3.043886,-3.043888 2.103745,-7.971426 -1.876241,-9.833886 -3.417659,-1.599315 -7.435713,-0.200497 -8.994908,3.131426 -0.496011,1.059951 -0.528993,1.253598 -0.456413,2.679692 0.09581,1.882598 0.567497,2.917244 1.896787,4.160638 1.738768,1.626414 3.99143,2.209783 6.255673,1.620022 z"
       id="path8325"
       inkscape:connector-curvature="0" />
    <path
       style="opacity:1;fill:#f58230;fill-opacity:1;stroke-width:0.015625"
       d="m 19.986596,29.293053 c -0.458217,-0.532963 -0.759899,-1.062717 -0.961198,-1.687868 -0.08911,-0.276728 -0.09028,-0.330351 -0.0018,-0.08285 0.219145,0.613082 0.562255,1.229847 0.959313,1.724431 0.0715,0.08906 0.126748,0.165183 0.122773,0.169158 -0.004,0.004 -0.05756,-0.05132 -0.119077,-0.122869 z"
       id="path8327"
       inkscape:connector-curvature="0" />
    <path
       style="opacity:1;fill:#f58230;fill-opacity:1;stroke-width:0.015625"
       d="m 19.802905,29.05819 c -0.284261,-0.359516 -0.525424,-0.7894 -0.698127,-1.244437 -0.09138,-0.240769 -0.08737,-0.283129 0.0051,-0.05418 0.174877,0.432842 0.502433,1.018048 0.740003,1.322075 0.02549,0.03262 0.04284,0.06282 0.03856,0.06711 -0.0043,0.0043 -0.04279,-0.03647 -0.08556,-0.09056 z"
       id="path8329"
       inkscape:connector-curvature="0" />
    <path
       sodipodi:type="star"
       style="opacity:1;fill:#f58230;fill-opacity:1"
       id="path8333"
       sodipodi:sides="3"
       sodipodi:cx="10.632812"
       sodipodi:cy="22.644653"
       sodipodi:r1="0.68536597"
       sodipodi:r2="0.34268299"
       sodipodi:arg1="-0.81764505"
       sodipodi:arg2="0.22955251"
       inkscape:flatsided="true"
       inkscape:rounded="0"
       inkscape:randomized="0"
       d="m 11.101562,22.144653 -0.270113,1.15595 -0.8660251,-0.811899 z"
       inkscape:transform-center-x="0.269189"
       inkscape:transform-center-y="0.084481473"
       transform="matrix(3.8625517,1.0322155,-0.34891107,1.3056257,-21.242216,-17.190089)" />
    <rect
       style="opacity:1;fill:#f58230;fill-opacity:1"
       id="rect8357"
       width="2.7952814"
       height="0.88388348"
       x="8.0212431"
       y="27.145338" />
    <rect
       style="opacity:1;fill:#f58230;fill-opacity:1;stroke-width:1.44495273"
       id="rect8361"
       width="5.5021744"
       height="0.89493203"
       x="9.2255335"
       y="27.333162"
       ry="0" />
    <rect
       style="opacity:1;fill:#f58230;fill-opacity:1;stroke-width:1.08894074"
       id="rect8363"
       width="4.6038179"
       height="4.4720211"
       x="0.31637582"
       y="31.152678"
       transform="matrix(0.94488368,-0.32740621,0.43334936,0.90122602,0,0)" />
    <rect
       style="opacity:1;fill:#f58230;fill-opacity:1"
       id="rect8365"
       width="1.0501391"
       height="1.6399689"
       x="18.149004"
       y="26.464703" />
    <rect
       style="opacity:1;fill:#f58230;fill-opacity:1"
       id="rect8367"
       width="2.109375"
       height="2.109375"
       x="17.261642"
       y="26.807796" />
    <rect
       style="opacity:1;fill:#f58230;fill-opacity:1"
       id="rect8369"
       width="1.109375"
       height="1.453125"
       x="18.683517"
       y="27.979671" />
    <rect
       style="opacity:1;fill:#f58230;fill-opacity:1"
       id="rect8371"
       width="0.71874988"
       height="0.85937512"
       x="19.371017"
       y="28.917171" />
    <rect
       style="opacity:1;fill:#f58230;fill-opacity:1"
       id="rect8373"
       width="0.09375"
       height="0.203125"
       x="14.464768"
       y="32.370296" />
    <rect
       style="opacity:1;fill:#f58230;fill-opacity:1"
       id="rect8375"
       width="2.390625"
       height="1.171875"
       x="14.667893"
       y="32.104671" />
    <rect
       style="opacity:1;fill:#f58230;fill-opacity:1"
       id="rect8377"
       width="1.125"
       height="0.921875"
       x="14.964768"
       y="31.698421" />
    <rect
       style="opacity:1;fill:#f58230;fill-opacity:1"
       id="rect8379"
       width="0.61879683"
       height="0.74911797"
       x="19.986595"
       y="29.293055" />
    <rect
       style="opacity:1;fill:#f58230;fill-opacity:1"
       id="rect8381"
       width="1.1250004"
       height="0.99999905"
       x="20.605392"
       y="30.042173" />
    <rect
       style="opacity:1;fill:#f58230;fill-opacity:1"
       id="rect8383"
       width="0.5625"
       height="0.640625"
       x="20.261642"
       y="29.604671" />
    <rect
       style="opacity:1;fill:#f58230;fill-opacity:1"
       id="rect8385"
       width="1.84375"
       height="1.640625"
       x="16.699142"
       y="33.729671" />
    <rect
       style="opacity:1;fill:#f58230;fill-opacity:1"
       id="rect8387"
       width="0.8125"
       height="1.484375"
       x="18.949142"
       y="33.745296" />
    <rect
       style="opacity:1;fill:#f58230;fill-opacity:1"
       id="rect8389"
       width="1.5625"
       height="1.875"
       x="17.824142"
       y="32.948421" />
    <rect
       style="opacity:1;fill:#f58230;fill-opacity:1"
       id="rect8391"
       width="1.34375"
       height="0.96875"
       x="13.667893"
       y="32.370296" />
    <rect
       style="opacity:1;fill:#f58230;fill-opacity:1"
       id="rect8393"
       width="0.54687488"
       height="0.84375012"
       x="14.667893"
       y="32.104671" />
    <rect
       style="opacity:1;fill:#f58230;fill-opacity:1"
       id="rect8395"
       width="1.6308777"
       height="1.2177708"
       x="12.021392"
       y="33.871277" />
    <rect
       style="opacity:1;fill:#f58230;fill-opacity:1"
       id="rect8397"
       width="1.7524689"
       height="1.5192658"
       x="12.696674"
       y="33.194782" />
    <rect
       style="opacity:1;fill:#f58230;fill-opacity:1"
       id="rect8399"
       width="0.5625"
       height="0.828125"
       x="13.339768"
       y="32.839046" />
    <rect
       style="opacity:1;fill:#f58230;fill-opacity:1"
       id="rect8401"
       width="0.328125"
       height="0.578125"
       x="12.355393"
       y="33.448421" />
    <rect
       style="opacity:1;fill:#f58230;fill-opacity:1"
       id="rect8403"
       width="0.625"
       height="0.03125"
       x="12.949143"
       y="33.135921" />
    <rect
       style="opacity:1;fill:#f58230;fill-opacity:1"
       id="rect8405"
       width="0.54687488"
       height="0.28125012"
       x="12.355393"
       y="33.448421" />
    <rect
       style="opacity:1;fill:#f58230;fill-opacity:1"
       id="rect8407"
       width="1.1875"
       height="0.34375"
       x="13.058518"
       y="32.995296" />
    <rect
       style="opacity:1;fill:#f58230;fill-opacity:1"
       id="rect8409"
       width="2.359375"
       height="1.046875"
       x="11.433518"
       y="38.089046" />
    <rect
       style="opacity:1;fill:#f58230;fill-opacity:1"
       id="rect8411"
       width="2.71875"
       height="1.109375"
       x="-4.5570221"
       y="40.134991"
       transform="rotate(-25.719217)" />
    <rect
       style="opacity:1;fill:#f58230;fill-opacity:1"
       id="rect8413"
       width="2.0625"
       height="1.71875"
       x="10.933518"
       y="37.198421" />
    <rect
       style="opacity:1;fill:#f58230;fill-opacity:1"
       id="rect8415"
       width="1.265625"
       height="1.515625"
       x="11.261643"
       y="36.120296" />
    <rect
       style="opacity:1;fill:#f58230;fill-opacity:1"
       id="rect8417"
       width="1"
       height="0.78125"
       x="10.902268"
       y="36.729671" />
    <rect
       style="opacity:1;fill:#f58230;fill-opacity:1"
       id="rect8419"
       width="0.53125"
       height="0.578125"
       x="10.902268"
       y="37.510921" />
    <rect
       style="opacity:1;fill:#f58230;fill-opacity:1"
       id="rect8421"
       width="0.734375"
       height="0.671875"
       x="10.605393"
       y="37.651546" />
    <rect
       style="opacity:1;fill:#f58230;fill-opacity:1"
       id="rect8423"
       width="0.59375"
       height="0.546875"
       x="11.574143"
       y="35.401546" />
    <rect
       style="opacity:1;fill:#f58230;fill-opacity:1"
       id="rect8425"
       width="1.15625"
       height="0.46875"
       x="11.308518"
       y="35.854671" />
    <rect
       style="opacity:1;fill:#f58230;fill-opacity:1"
       id="rect8427"
       width="0.45312509"
       height="0.68749988"
       x="11.714768"
       y="34.714046" />
    <rect
       style="opacity:1;fill:#f58230;fill-opacity:1"
       id="rect8429"
       width="0.59375"
       height="0.46875"
       x="15.839768"
       y="37.339046" />
    <rect
       style="opacity:1;fill:#f58230;fill-opacity:1"
       id="rect8431"
       width="0.59375"
       height="1.015625"
       x="16.308517"
       y="36.745296" />
    <rect
       style="opacity:1;fill:#f58230;fill-opacity:1"
       id="rect8433"
       width="0.71163964"
       height="1.2130911"
       x="16.417892"
       y="36.151546" />
    <rect
       style="opacity:1;fill:#f58230;fill-opacity:1"
       id="rect8435"
       width="1.140625"
       height="1.65625"
       x="16.449142"
       y="35.385921" />
    <rect
       style="opacity:1;fill:#f58230;fill-opacity:1"
       id="rect8437"
       width="1.328125"
       height="1.6875"
       x="16.917892"
       y="34.385921" />
    <rect
       style="opacity:1;fill:#f58230;fill-opacity:1"
       id="rect8439"
       width="0.28125"
       height="0.4375"
       x="17.355392"
       y="35.714046" />
    <rect
       style="opacity:1;fill:#f58230;fill-opacity:1;stroke-width:2.20504427"
       id="rect8441"
       width="5.4578233"
       height="2.5812662"
       x="61.717644"
       y="40.961739"
       transform="matrix(0.94124752,0.33771749,-0.94909799,0.31498095,0,0)" />
    <rect
       style="opacity:1;fill:#f58230;fill-opacity:1;stroke-width:1.30144775"
       id="rect8443"
       width="5.6400671"
       height="6.2453089"
       x="22.434074"
       y="34.593739" />
    <rect
       style="opacity:1;fill:#f58230;fill-opacity:1;stroke-width:1.39188147"
       id="rect8447"
       width="5.2963176"
       height="0.68749911"
       x="22.434074"
       y="40.839046" />
    <path
       sodipodi:type="star"
       style="opacity:1;fill:#f58230;fill-opacity:1"
       id="path8469"
       sodipodi:sides="5"
       sodipodi:cx="23.855392"
       sodipodi:cy="31.620296"
       sodipodi:r1="0.42042574"
       sodipodi:r2="0.34013158"
       sodipodi:arg1="0.83798123"
       sodipodi:arg2="1.4662998"
       inkscape:flatsided="true"
       inkscape:rounded="0.12"
       inkscape:randomized="0"
       d="m 24.136642,31.932796 c -0.04408,0.03968 -0.440187,0.08122 -0.491544,0.05155 -0.05136,-0.02967 -0.213268,-0.393546 -0.200924,-0.451556 0.01234,-0.05801 0.30838,-0.324443 0.367365,-0.330629 0.05899,-0.0062 0.403859,0.193029 0.42797,0.247216 0.02411,0.05419 -0.05878,0.443741 -0.102867,0.483416 z"
       inkscape:transform-center-x="0.011730047"
       inkscape:transform-center-y="-0.022077425" />
    <path
       sodipodi:type="star"
       style="opacity:1;fill:#f58230;fill-opacity:1"
       id="path8471"
       sodipodi:sides="5"
       sodipodi:cx="19.730392"
       sodipodi:cy="31.901546"
       sodipodi:r1="2.4270611"
       sodipodi:r2="1.9635336"
       sodipodi:arg1="0.20749623"
       sodipodi:arg2="0.83581476"
       inkscape:flatsided="true"
       inkscape:rounded="0.12"
       inkscape:randomized="0"
       d="m 22.105393,32.401547 c -0.07053,0.335037 -1.776177,1.876817 -2.116613,1.913267 -0.340436,0.03645 -2.333829,-1.109276 -2.473696,-1.421786 -0.139866,-0.31251 0.333792,-2.562388 0.587786,-2.79198 0.253993,-0.229592 2.540123,-0.474367 2.836966,-0.303752 0.296844,0.170614 1.236091,2.269213 1.165557,2.604251 z"
       inkscape:transform-center-x="-0.069071018"
       inkscape:transform-center-y="0.12640714" />
    <path
       sodipodi:type="star"
       style="opacity:1;fill:#f58230;fill-opacity:1"
       id="path8473"
       sodipodi:sides="5"
       sodipodi:cx="22.136642"
       sodipodi:cy="31.714046"
       sodipodi:r1="1.1713541"
       sodipodi:r2="0.94764531"
       sodipodi:arg1="0.80426385"
       sodipodi:arg2="1.4325824"
       inkscape:flatsided="true"
       inkscape:rounded="0.12"
       inkscape:randomized="0"
       d="m 22.949142,32.557796 c -0.119026,0.114619 -1.218088,0.267499 -1.363877,0.189717 -0.14579,-0.07778 -0.630816,-1.075809 -0.601893,-1.238499 0.02892,-0.16269 0.828223,-0.932385 0.991888,-0.955151 0.163665,-0.02277 1.142686,0.499563 1.214913,0.648183 0.07223,0.14862 -0.122004,1.241132 -0.241031,1.35575 z"
       inkscape:transform-center-x="0.042655493"
       inkscape:transform-center-y="-0.053119574" />
    <path
       sodipodi:type="star"
       style="opacity:1;fill:#f58230;fill-opacity:1"
       id="path8475"
       sodipodi:sides="5"
       sodipodi:cx="26.855392"
       sodipodi:cy="34.807796"
       sodipodi:r1="2.3228233"
       sodipodi:r2="1.8792036"
       sodipodi:arg1="0.094313951"
       sodipodi:arg2="0.72263248"
       inkscape:flatsided="true"
       inkscape:rounded="0.12"
       inkscape:randomized="0"
       d="m 29.167893,35.026546 c -0.03086,0.326221 -1.486152,1.976707 -1.805942,2.048166 -0.319791,0.07146 -2.339206,-0.802578 -2.505988,-1.084635 -0.166783,-0.282056 0.04044,-2.472727 0.257156,-2.718506 0.216713,-0.24578 2.3642,-0.725651 2.664919,-0.595495 0.300718,0.130156 1.420713,2.02425 1.389855,2.35047 z"
       inkscape:transform-center-x="-0.12651107"
       inkscape:transform-center-y="0.058673119" />
    <path
       sodipodi:type="star"
       style="opacity:1;fill:#f58230;fill-opacity:1"
       id="path8477"
       sodipodi:sides="5"
       sodipodi:cx="30.324142"
       sodipodi:cy="33.714046"
       sodipodi:r1="1.7826899"
       sodipodi:r2="1.4422264"
       sodipodi:arg1="0.46396367"
       sodipodi:arg2="1.0922822"
       inkscape:flatsided="true"
       inkscape:rounded="0.12"
       inkscape:randomized="0"
       d="m 31.918377,34.511794 c -0.112537,0.224896 -1.611627,1.002509 -1.860292,0.964977 -0.248664,-0.03753 -1.451463,-1.222956 -1.492609,-1.471048 -0.04115,-0.248092 0.714573,-1.758338 0.937808,-1.874135 0.223235,-0.115797 1.893093,0.136243 2.072207,0.312769 0.179113,0.176526 0.455423,1.84254 0.342886,2.067437 z"
       inkscape:transform-center-x="0.06995178"
       inkscape:transform-center-y="0.076101819" />
    <path
       sodipodi:type="star"
       style="opacity:1;fill:#f58230;fill-opacity:1"
       id="path8481"
       sodipodi:sides="5"
       sodipodi:cx="31.917892"
       sodipodi:cy="33.995296"
       sodipodi:r1="1.3287683"
       sodipodi:r2="1.0749961"
       sodipodi:arg1="-0.71883"
       sodipodi:arg2="-0.090511469"
       inkscape:flatsided="true"
       inkscape:rounded="0.12"
       inkscape:randomized="0"
       d="m 32.917892,33.120296 c 0.123435,0.141069 0.237213,1.394681 0.141192,1.555667 -0.09602,0.160986 -1.253118,0.656582 -1.435896,0.615009 -0.182779,-0.04157 -1.011682,-0.988891 -1.028625,-1.175571 -0.01694,-0.18668 0.627864,-1.26775 0.800172,-1.341551 0.172308,-0.0738 1.399723,0.205378 1.523157,0.346446 z"
       inkscape:transform-center-x="0.07329884"
       inkscape:transform-center-y="0.032244593" />
    <path
       sodipodi:type="star"
       style="opacity:1;fill:#f58230;fill-opacity:1"
       id="path8483"
       sodipodi:sides="5"
       sodipodi:cx="33.886642"
       sodipodi:cy="33.651546"
       sodipodi:r1="2.8013668"
       sodipodi:r2="2.2663534"
       sodipodi:arg1="0.89605538"
       sodipodi:arg2="1.5243739"
       inkscape:flatsided="true"
       inkscape:rounded="0.12"
       inkscape:randomized="0"
       d="m 35.636642,35.839046 c -0.308587,0.24687 -2.95951,0.370021 -3.289656,0.152824 -0.330146,-0.217197 -1.266449,-2.700319 -1.161903,-3.081424 0.104545,-0.381105 2.176801,-2.03891 2.57156,-2.057248 0.394759,-0.01834 2.611787,1.440203 2.751215,1.809974 0.139429,0.369771 -0.562628,2.929005 -0.871216,3.175874 z"
       inkscape:transform-center-x="0.035169905"
       inkscape:transform-center-y="-0.172922" />
    <path
       sodipodi:type="star"
       style="opacity:1;fill:#f58230;fill-opacity:1"
       id="path8485"
       sodipodi:sides="5"
       sodipodi:cx="32.667892"
       sodipodi:cy="34.432796"
       sodipodi:r1="0.26882267"
       sodipodi:r2="0.2174821"
       sodipodi:arg1="-0.62024949"
       sodipodi:arg2="0.0080690447"
       inkscape:flatsided="true"
       inkscape:rounded="0.12"
       inkscape:randomized="0"
       d="m 32.886642,34.276546 c 0.02204,0.03086 0.01999,0.285511 -0.0025,0.31601 -0.02254,0.0305 -0.265361,0.107237 -0.301332,0.09523 -0.03597,-0.01201 -0.183988,-0.219234 -0.183682,-0.257156 3.06e-4,-0.03792 0.151649,-0.242731 0.187808,-0.254158 0.03616,-0.01143 0.277714,0.06922 0.299755,0.100077 z"
       inkscape:transform-center-x="0.017288853"
       inkscape:transform-center-y="-0.00058830785" />
    <path
       sodipodi:type="star"
       style="opacity:1;fill:#f58230;fill-opacity:1"
       id="path8487"
       sodipodi:sides="5"
       sodipodi:cx="32.792892"
       sodipodi:cy="35.495296"
       sodipodi:r1="0.88388348"
       sodipodi:r2="0.71507674"
       sodipodi:arg1="-0.14189705"
       sodipodi:arg2="0.48642148"
       inkscape:flatsided="true"
       inkscape:rounded="0.12"
       inkscape:randomized="0"
       d="m 33.667892,35.370296 c 0.01763,0.123435 -0.373783,0.863634 -0.485728,0.918548 -0.111944,0.05491 -0.936869,-0.08861 -1.023688,-0.178108 -0.08682,-0.0895 -0.205234,-0.918399 -0.146947,-1.028624 0.05829,-0.110226 0.810029,-0.47899 0.932871,-0.457617 0.122843,0.02137 0.705859,0.622367 0.723492,0.745801 z"
       inkscape:transform-center-x="-0.039344349"
       inkscape:transform-center-y="-0.032986123" />
    <rect
       style="opacity:1;fill:#f58230;fill-opacity:1"
       id="rect8493"
       width="2.65625"
       height="0.4375"
       x="27.730392"
       y="35.214046"
       rx="1.8" />
    <rect
       style="opacity:1;fill:#f58230;fill-opacity:1"
       id="rect8495"
       width="2.53125"
       height="1.71875"
       x="26.886642"
       y="34.401546"
       rx="1.8" />
    <rect
       style="opacity:1;fill:#f58230;fill-opacity:1"
       id="rect8497"
       width="4.46875"
       height="1.90625"
       x="32.824142"
       y="35.839046"
       rx="1.8" />
    <rect
       style="opacity:1;fill:#f58230;fill-opacity:1"
       id="rect8501"
       width="1.78125"
       height="0.75"
       x="22.792892"
       y="31.245296"
       rx="1.8" />
    <rect
       style="opacity:1;fill:#f58230;fill-opacity:1"
       id="rect8503"
       width="2"
       height="0.53125"
       x="25.105392"
       y="31.557796"
       rx="1.8" />
    <rect
       style="opacity:1;fill:#f58230;fill-opacity:1"
       id="rect8505"
       width="0.77476418"
       height="0.85613912"
       x="22.730392"
       y="41.151546"
       rx="1.8" />
    <rect
       style="opacity:1;fill:#f58230;fill-opacity:1"
       id="rect8507"
       width="3.2187498"
       height="2.4687502"
       x="24.574142"
       y="31.245296"
       rx="1.8" />
    <rect
       style="opacity:1;fill:#f58230;fill-opacity:1"
       id="rect8509"
       width="1.0937502"
       height="0.81249988"
       x="24.011642"
       y="31.276546"
       rx="1.8" />
    <rect
       style="opacity:1;fill:#f58230;fill-opacity:1"
       id="rect8511"
       width="3.375"
       height="0.6875"
       x="26.980392"
       y="31.245296"
       rx="1.8" />
    <rect
       style="opacity:1;fill:#f58230;fill-opacity:1"
       id="rect8513"
       width="3.625"
       height="0.9375"
       x="27.855392"
       y="30.870296"
       rx="1.8" />
    <rect
       style="opacity:1;fill:#f58230;fill-opacity:1"
       id="rect8515"
       width="2.8125002"
       height="1.4999999"
       x="28.667892"
       y="30.307796"
       rx="1.8" />
    <rect
       style="opacity:1;fill:#f58230;fill-opacity:1"
       id="rect8517"
       width="1.5312498"
       height="1.1250001"
       x="27.855392"
       y="30.870296"
       rx="1.8" />
    <rect
       style="opacity:1;fill:#f58230;fill-opacity:1"
       id="rect8519"
       width="1.4062502"
       height="0.87499976"
       x="27.261642"
       y="30.932796"
       rx="1.8" />
    <rect
       style="opacity:1;fill:#f58230;fill-opacity:1"
       id="rect8521"
       width="0.59375"
       height="0.78125"
       x="34.386642"
       y="30.557796"
       rx="1.8" />
    <rect
       style="opacity:1;fill:#f58230;fill-opacity:1"
       id="rect8523"
       width="0.9375"
       height="1.96875"
       x="34.667892"
       y="29.339046"
       rx="1.8" />
    <rect
       style="opacity:1;fill:#f58230;fill-opacity:1"
       id="rect8525"
       width="2.625"
       height="2.09375"
       x="29.855392"
       y="29.464046"
       rx="1.8" />
    <rect
       style="opacity:1;fill:#f58230;fill-opacity:1"
       id="rect8527"
       width="0.96875"
       height="0.03125"
       x="30.042892"
       y="30.839046"
       rx="1.8" />
    <rect
       style="opacity:1;fill:#f58230;fill-opacity:1"
       id="rect8529"
       width="2.53125"
       height="1.59375"
       x="29.074142"
       y="29.807796"
       rx="1.8" />
    <rect
       style="opacity:1;fill:#f58230;fill-opacity:1"
       id="rect8531"
       width="2.0000002"
       height="1.2812499"
       x="28.355392"
       y="30.651546"
       rx="1.8" />
    <rect
       style="opacity:1;fill:#f58230;fill-opacity:1"
       id="rect8533"
       width="1.1562498"
       height="0.96875012"
       x="32.824142"
       y="35.839046"
       rx="1.8" />
    <rect
       style="opacity:1;fill:#f58230;fill-opacity:1"
       id="rect8535"
       width="4.0625"
       height="1.4375"
       x="33.980392"
       y="36.807796"
       rx="1.8" />
    <rect
       style="opacity:1;fill:#f58230;fill-opacity:1"
       id="rect8537"
       width="3.5625"
       height="1.125"
       x="35.261642"
       y="37.432796"
       rx="1.8" />
    <rect
       style="opacity:1;fill:#f58230;fill-opacity:1"
       id="rect8539"
       width="0.28125"
       height="0.75"
       x="34.386642"
       y="30.557796"
       rx="1.8" />
    <rect
       style="opacity:1;fill:#f58230;fill-opacity:1"
       id="rect8541"
       width="2.5890791"
       height="2.2090788"
       x="24.172564"
       y="6.8799677"
       rx="1.8" />
    <rect
       style="opacity:1;fill:#f58230;fill-opacity:1"
       id="rect8543"
       width="2.8125"
       height="4.03125"
       x="22.636642"
       y="9.6827955"
       rx="1.8" />
    <rect
       style="opacity:1;fill:#f58230;fill-opacity:1"
       id="rect8545"
       width="1.5"
       height="1.1875"
       x="22.886642"
       y="8.4952965"
       rx="1.8" />
    <rect
       style="opacity:1;fill:#f58230;fill-opacity:1"
       id="rect8547"
       width="1.46875"
       height="0.8125"
       x="23.636642"
       y="7.7452965"
       rx="1.8" />
    <rect
       style="opacity:1;fill:#f58230;fill-opacity:1"
       id="rect8549"
       width="0.93282938"
       height="0.86532903"
       x="24.172564"
       y="6.8799677"
       rx="1.8" />
    <rect
       style="opacity:1;fill:#f58230;fill-opacity:1"
       id="rect8551"
       width="1.375"
       height="1"
       x="22.417892"
       y="9.2452955"
       rx="1.8" />
    <rect
       style="opacity:1;fill:#f58230;fill-opacity:1"
       id="rect8553"
       width="2.897815"
       height="0.96960109"
       x="22.113827"
       y="10.839046"
       rx="1.8" />
    <rect
       style="opacity:1;fill:#f58230;fill-opacity:1"
       id="rect8555"
       width="3.897815"
       height="1.782101"
       x="22.113827"
       y="10.026546"
       rx="1.8" />
    <rect
       style="opacity:1;fill:#f58230;fill-opacity:1"
       id="rect8557"
       width="2.84375"
       height="1.15625"
       x="22.042892"
       y="11.464046"
       rx="1.8" />
    <rect
       style="opacity:1;fill:#f58230;fill-opacity:1"
       id="rect8559"
       width="0.78125"
       height="3.1875"
       x="22.355392"
       y="12.151546"
       rx="1.8" />
    <rect
       style="opacity:1;fill:#f58230;fill-opacity:1"
       id="rect8561"
       width="0.96875"
       height="4.09375"
       x="27.042892"
       y="10.932796"
       rx="1.8" />
    <rect
       style="opacity:1;fill:#f58230;fill-opacity:1"
       id="rect8563"
       width="0.92993498"
       height="3.6596065"
       x="26.112957"
       y="7.2731895"
       rx="1.8" />
    <rect
       style="opacity:1;fill:#f58230;fill-opacity:1;stroke-width:1.28689587"
       id="rect8565"
       width="2.5625"
       height="6.75"
       x="25.542892"
       y="8.6515455"
       rx="2.1391304" />
    <ellipse
       style="opacity:1;fill:#f58230;fill-opacity:1"
       id="path8567"
       cx="0.056617118"
       cy="-26.068834"
       rx="1"
       ry="1.03125"
       transform="rotate(108.53153)"
       inkscape:transform-center-x="-0.5"
       inkscape:transform-center-y="0.625" />
    <ellipse
       style="opacity:1;fill:#f58230;fill-opacity:1"
       id="path8581"
       cx="11.954524"
       cy="14.969843"
       rx="0.86178637"
       ry="0.9722718" />
    <ellipse
       style="opacity:1;fill:#f58230;fill-opacity:1"
       id="path8583"
       cx="12.020816"
       cy="14.715726"
       rx="1.1490484"
       ry="1.0054176" />
    <ellipse
       style="opacity:1;fill:#f58230;fill-opacity:1;stroke-width:0.94146889"
       id="path8585"
       cx="12.650582"
       cy="16.776279"
       rx="0.91702908"
       ry="1.077233" />
    <ellipse
       style="opacity:1;fill:#f58230;fill-opacity:1"
       id="path8587"
       cx="13.943262"
       cy="13.7766"
       rx="1.259534"
       ry="1.6351844" />
    <ellipse
       style="opacity:1;fill:#f58230;fill-opacity:1"
       id="path8589"
       cx="16.186115"
       cy="13.666115"
       rx="0.71815532"
       ry="0.68500972" />
    <ellipse
       style="opacity:1;fill:#f58230;fill-opacity:1"
       id="path8591"
       cx="16.760042"
       cy="15.59565"
       rx="1.8666059"
       ry="1.0014572" />
    <ellipse
       style="opacity:1;fill:#f58230;fill-opacity:1"
       id="path8593"
       cx="15.423766"
       cy="13.235221"
       rx="0.70710677"
       ry="0.49718446" />
    <ellipse
       style="opacity:1;fill:#f58230;fill-opacity:1"
       id="path8595"
       cx="16.956123"
       cy="14.292448"
       rx="0.47847661"
       ry="0.74368608" />
    <ellipse
       style="opacity:1;fill:#f58230;fill-opacity:1"
       id="path8597"
       cx="11.866136"
       cy="12.550212"
       rx="0.66291237"
       ry="0.36460194" />
    <ellipse
       style="opacity:1;fill:#f58230;fill-opacity:1"
       id="path8599"
       cx="11.081689"
       cy="13.500386"
       rx="0.20992224"
       ry="0.74025249" />
    <ellipse
       style="opacity:1;fill:#f58230;fill-opacity:1"
       id="path8601"
       cx="12.009767"
       cy="15.997357"
       rx="0.29831067"
       ry="0.34250486" />
    <ellipse
       style="opacity:1;fill:#f58230;fill-opacity:1"
       id="path8603"
       cx="11.026446"
       cy="13.312561"
       rx="0.35355338"
       ry="0.39774758" />
    <ellipse
       style="opacity:1;fill:#f58230;fill-opacity:1"
       id="path8608"
       cx="13.158815"
       cy="17.836941"
       rx="0.35355338"
       ry="0.30383494" />
    <ellipse
       style="opacity:1;fill:#f58230;fill-opacity:1"
       id="path8946"
       cx="15.339768"
       cy="20.948421"
       rx="0.640625"
       ry="0.484375" />
    <ellipse
       style="opacity:1;fill:#f58230;fill-opacity:1"
       id="path8948"
       cx="14.714768"
       cy="21.823421"
       rx="0.328125"
       ry="0.203125" />
    <ellipse
       style="opacity:1;fill:#f58230;fill-opacity:1"
       id="path8950"
       cx="14.933518"
       cy="21.620296"
       rx="0.421875"
       ry="0.375" />
    <ellipse
       style="opacity:1;fill:#f58230;fill-opacity:1"
       id="path8952"
       cx="15.058518"
       cy="21.385921"
       rx="0.484375"
       ry="0.390625" />
    <ellipse
       style="opacity:1;fill:#f58230;fill-opacity:1"
       id="path8954"
       cx="14.808518"
       cy="22.682796"
       rx="0.703125"
       ry="0.5625" />
    <ellipse
       style="opacity:1;fill:#f58230;fill-opacity:1"
       id="path8956"
       cx="14.917893"
       cy="22.464046"
       rx="0.875"
       ry="0.6875" />
    <ellipse
       style="opacity:1;fill:#f58230;fill-opacity:1"
       id="path8958"
       cx="14.47726"
       cy="23.635395"
       rx="0.56563413"
       ry="0.45365131" />
    <ellipse
       style="opacity:1;fill:#f58230;fill-opacity:1"
       id="path8960"
       cx="18.730392"
       cy="23.260921"
       rx="0.46875"
       ry="1.046875" />
    <ellipse
       style="opacity:1;fill:#f58230;fill-opacity:1"
       id="path8962"
       cx="18.261642"
       cy="24.760921"
       rx="0.84375"
       ry="0.515625" />
    <ellipse
       style="opacity:1;fill:#f58230;fill-opacity:1"
       id="path8964"
       cx="19.042892"
       cy="22.292171"
       rx="0.375"
       ry="0.640625" />
    <ellipse
       style="opacity:1;fill:#f58230;fill-opacity:1"
       id="path8966"
       cx="20.011642"
       cy="21.370296"
       rx="0.28125"
       ry="0.59375" />
    <ellipse
       style="opacity:1;fill:#f58230;fill-opacity:1"
       id="path8968"
       cx="20.636642"
       cy="20.604671"
       rx="0.65625"
       ry="0.453125" />
    <ellipse
       style="opacity:1;fill:#f58230;fill-opacity:1"
       id="path8970"
       cx="22.042892"
       cy="19.948421"
       rx="0.65625"
       ry="0.296875" />
    <ellipse
       style="opacity:1;fill:#f58230;fill-opacity:1"
       id="path8972"
       cx="23.386642"
       cy="19.479671"
       rx="0.90625"
       ry="0.359375" />
    <ellipse
       style="opacity:1;fill:#f58230;fill-opacity:1"
       id="path8974"
       cx="25.730392"
       cy="19.276546"
       rx="1.03125"
       ry="0.40625" />
    <ellipse
       style="opacity:1;fill:#f58230;fill-opacity:1"
       id="path8976"
       cx="28.292892"
       cy="19.526546"
       rx="0.875"
       ry="0.84375" />
    <ellipse
       style="opacity:1;fill:#f58230;fill-opacity:1;stroke-width:1.20111752"
       id="path8978"
       cx="15.111202"
       cy="35.398239"
       rx="5.0445395"
       ry="2.8703167"
       transform="matrix(0.74886628,-0.66272113,0.68501467,0.72852927,0,0)" />
    <rect
       style="opacity:1;fill:#f58230;fill-opacity:1;stroke-width:0.91819739"
       id="rect8980"
       width="5.6581593"
       height="5.6400213"
       x="19.892353"
       y="32.33762"
       transform="matrix(0.89558851,-0.44488338,0.37527664,0.92691286,0,0)" />
    <rect
       style="opacity:1;fill:#f58230;fill-opacity:1"
       id="rect8982"
       width="8.9375"
       height="5.03125"
       x="28.993225"
       y="2.9042373"
       transform="rotate(22.149579)" />
    <rect
       style="opacity:1;fill:#f58230;fill-opacity:1"
       id="rect8984"
       width="1.5625"
       height="0.84375"
       x="20.511642"
       y="19.714046" />
    <rect
       style="opacity:1;fill:#f58230;fill-opacity:1"
       id="rect8986"
       width="2.625"
       height="0.25"
       x="18.480392"
       y="21.214046" />
    <rect
       style="opacity:1;fill:#f58230;fill-opacity:1"
       id="rect8988"
       width="0.65625"
       height="0.9375"
       x="18.949142"
       y="22.495296" />
    <rect
       style="opacity:1;fill:#f58230;fill-opacity:1"
       id="rect8990"
       width="0.375"
       height="0.90625"
       x="18.605392"
       y="23.932796" />
    <rect
       style="opacity:1;fill:#f58230;fill-opacity:1"
       id="rect8992"
       width="0.78125"
       height="1.03125"
       x="19.824142"
       y="20.182796" />
    <rect
       style="opacity:1;fill:#f58230;fill-opacity:1"
       id="rect8994"
       width="1.21875"
       height="0.59375"
       x="22.480392"
       y="19.307796" />
    <rect
       style="opacity:1;fill:#f58230;fill-opacity:1"
       id="rect8996"
       width="1.90625"
       height="0.53125"
       x="24.230392"
       y="19.120296" />
    <rect
       style="opacity:1;fill:#f58230;fill-opacity:1"
       id="rect8998"
       width="3.03125"
       height="0.65625"
       x="26.824142"
       y="19.276546" />
    <ellipse
       style="opacity:1;fill:#f58230;fill-opacity:1"
       id="path9002"
       cx="39.28862"
       cy="25.62064"
       rx="5.2591066"
       ry="2.7400389" />
    <ellipse
       style="opacity:1;fill:#f58230;fill-opacity:1"
       id="path9004"
       cx="41.016212"
       cy="24.099098"
       rx="1.1516798"
       ry="1.4899486" />
    <ellipse
       style="opacity:1;fill:#f58230;fill-opacity:1;stroke-width:0.82076776"
       id="path9006"
       cx="43.777267"
       cy="25.401546"
       rx="1.328125"
       ry="1.59375" />
    <ellipse
       style="opacity:1;fill:#f58230;fill-opacity:1"
       id="path9008"
       cx="34.152267"
       cy="27.901546"
       rx="2.796875"
       ry="2.15625" />
    <ellipse
       style="opacity:1;fill:#f58230;fill-opacity:1"
       id="path9010"
       cx="31.871017"
       cy="25.995296"
       rx="0.453125"
       ry="1.4375" />
    <ellipse
       style="opacity:1;fill:#f58230;fill-opacity:1"
       id="path9012"
       cx="32.871017"
       cy="30.589046"
       rx="2.609375"
       ry="1.53125" />
    <ellipse
       style="opacity:1;fill:#f58230;fill-opacity:1"
       id="path9014"
       cx="32.808517"
       cy="29.292171"
       rx="1.8593751"
       ry="1.2656249" />
    <ellipse
       style="opacity:1;fill:#f58230;fill-opacity:1"
       id="path9016"
       cx="34.433517"
       cy="29.073421"
       rx="0.23437513"
       ry="1.4843749" />
    <ellipse
       style="opacity:1;fill:#f58230;fill-opacity:1"
       id="path9018"
       cx="37.246017"
       cy="36.557796"
       rx="2.234375"
       ry="2.0625" />
    <ellipse
       style="opacity:1;fill:#f58230;fill-opacity:1"
       id="path9020"
       cx="36.636642"
       cy="33.432796"
       rx="1.5625"
       ry="0.8125" />
    <ellipse
       style="opacity:1;fill:#f58230;fill-opacity:1"
       id="path9022"
       cx="37.839767"
       cy="38.698421"
       rx="1.421875"
       ry="0.546875" />
    <ellipse
       style="opacity:1;fill:#f58230;fill-opacity:1"
       id="path9024"
       cx="38.933517"
       cy="37.745296"
       rx="1.328125"
       ry="1" />
    <ellipse
       style="opacity:1;fill:#f58230;fill-opacity:1"
       id="path9026"
       cx="38.167892"
       cy="34.339046"
       rx="0.6875"
       ry="0.84375" />
    <ellipse
       style="opacity:1;fill:#f58230;fill-opacity:1"
       id="path9028"
       cx="35.183517"
       cy="29.635921"
       rx="0.890625"
       ry="0.953125" />
    <ellipse
       style="opacity:1;fill:#f58230;fill-opacity:1"
       id="path9030"
       cx="31.824142"
       cy="29.135921"
       rx="1.40625"
       ry="0.953125" />
    <ellipse
       style="opacity:1;fill:#f58230;fill-opacity:1;stroke-width:1.42886901"
       id="path9032"
       cx="42.932152"
       cy="2.7564852"
       rx="1.203125"
       ry="2.296875"
       transform="rotate(38.955908)" />
    <rect
       style="display:inline;opacity:1;fill:#f58230;fill-opacity:1"
       id="rect8335"
       width="2.0992231"
       height="1.9776893"
       x="5.5905638"
       y="24.670465" />
    <rect
       style="display:inline;opacity:1;fill:#f58230;fill-opacity:1"
       id="rect8337"
       width="1.4584078"
       height="0.6408155"
       x="5.8004861"
       y="24.206427" />
    <rect
       style="display:inline;opacity:1;fill:#f58230;fill-opacity:1"
       id="rect8341"
       width="1.5357475"
       height="0.77339804"
       x="7.7671261"
       y="23.433029" />
    <rect
       style="display:inline;opacity:1;fill:#f58230;fill-opacity:1"
       id="rect8343"
       width="2.3643882"
       height="0.54137862"
       x="8.6178637"
       y="23.18996" />
    <rect
       style="display:inline;opacity:1;fill:#f58230;fill-opacity:1"
       id="rect8347"
       width="0.76234949"
       height="0.46403882"
       x="8.8167381"
       y="22.891649" />
    <rect
       style="display:inline;opacity:1;fill:#f58230;fill-opacity:1"
       id="rect8349"
       width="0.6408155"
       height="0.34250486"
       x="7.3030872"
       y="23.764484" />
    <rect
       style="display:inline;opacity:1;fill:#f58230;fill-opacity:1"
       id="rect8351"
       width="0.46403882"
       height="0.60766989"
       x="6.861146"
       y="24.09594" />
    <rect
       style="display:inline;opacity:1;fill:#f58230;fill-opacity:1"
       id="rect8353"
       width="1.9997864"
       height="0.83968931"
       x="6.1871848"
       y="26.338795" />
    <rect
       style="display:inline;opacity:1;fill:#f58230;fill-opacity:1"
       id="rect8355"
       width="2.6295533"
       height="1.6572815"
       x="7.0821171"
       y="25.952095" />
    <path
       sodipodi:type="star"
       style="display:inline;opacity:1;fill:#f58230;fill-opacity:1"
       id="path8463"
       sodipodi:sides="5"
       sodipodi:cx="26.124943"
       sodipodi:cy="41.017555"
       sodipodi:r1="2.836185"
       sodipodi:r2="2.2945218"
       sodipodi:arg1="1.2455615"
       sodipodi:arg2="1.87388"
       inkscape:flatsided="true"
       inkscape:rounded="0.12"
       inkscape:randomized="0"
       d="m 27.031193,43.705055 c -0.379122,0.127844 -2.943427,-0.674061 -3.182168,-0.995122 -0.238741,-0.32106 -0.268498,-3.007661 -0.03693,-3.333931 0.231572,-0.326269 2.777486,-1.184775 3.159346,-1.06536 0.38186,0.119414 1.985079,2.27543 1.98951,2.675502 0.0044,0.400071 -1.55064,2.591068 -1.929761,2.718911 z"
       inkscape:transform-center-x="-0.15537638"
       inkscape:transform-center-y="-0.00890942"
       transform="matrix(0.85280688,0,0,1.0461306,3.0244979,-1.2364374)" />
    <rect
       style="display:inline;opacity:1;fill:#f58230;fill-opacity:1"
       id="rect8571"
       width="4.4375"
       height="2.3125"
       x="11.626341"
       y="21.453669"
       transform="rotate(-20.172846)" />
    <rect
       style="display:inline;opacity:1;fill:#f58230;fill-opacity:1"
       id="rect8577"
       width="1.6572815"
       height="1.3037281"
       x="11.68936"
       y="11.832058" />
    <rect
       style="display:inline;opacity:1;fill:#f58230;fill-opacity:1"
       id="rect8579"
       width="4.6624851"
       height="6.0325046"
       x="-1.8883427"
       y="20.742071"
       transform="rotate(-42.296102)" />
    <ellipse
       style="display:inline;opacity:1;fill:#f58230;fill-opacity:1"
       id="path8614"
       cx="17.279919"
       cy="22.20664"
       rx="2.80633"
       ry="0.82864076" />
    <ellipse
       style="display:inline;opacity:1;fill:#f58230;fill-opacity:1"
       id="path8616"
       cx="18.009123"
       cy="20.604601"
       rx="2.7621357"
       ry="0.88388348" />
    <ellipse
       style="display:inline;opacity:1;fill:#f58230;fill-opacity:1"
       id="path8618"
       cx="17.003706"
       cy="21.245417"
       rx="2.0218835"
       ry="1.4363106" />
    <ellipse
       style="display:inline;opacity:1;fill:#f58230;fill-opacity:1;stroke-width:7.2038908"
       id="path8620"
       cx="34.751633"
       cy="-14.46736"
       rx="5.283"
       ry="1.9138002"
       transform="matrix(0.22704247,0.97388486,-0.6161964,0.78759253,0,0)" />
    <ellipse
       style="display:inline;opacity:1;fill:#f58230;fill-opacity:1"
       id="path8622"
       cx="16.396036"
       cy="23.311493"
       rx="2.0771263"
       ry="1.6241359" />
    <path
       style="opacity:1;fill:#f58230;fill-opacity:1"
       id="path9140"
       sodipodi:type="arc"
       sodipodi:cx="27.246017"
       sodipodi:cy="19.620296"
       sodipodi:rx="1.1093749"
       sodipodi:ry="0.50000012"
       sodipodi:start="0"
       sodipodi:end="0.21217046"
       d="m 28.355392,19.620296 a 1.1093749,0.50000012 0 0 1 -0.02488,0.105292 l -1.084499,-0.105292 z" />
    <path
       style="opacity:1;fill:#f58230;fill-opacity:1"
       id="path9142"
       sodipodi:type="arc"
       sodipodi:cx="30.042892"
       sodipodi:cy="21.073421"
       sodipodi:rx="1.03125"
       sodipodi:ry="1.265625"
       sodipodi:start="0"
       sodipodi:end="0.21217095"
       d="m 31.074142,21.073421 a 1.03125,1.265625 0 0 1 -0.02312,0.266519 l -1.008126,-0.266519 z" />
    <path
       style="opacity:1;fill:#f58230;fill-opacity:1"
       id="path9144"
       sodipodi:type="arc"
       sodipodi:cx="26.917892"
       sodipodi:cy="19.182796"
       sodipodi:rx="0.625"
       sodipodi:ry="1.03125"
       sodipodi:start="0"
       sodipodi:end="0.21217095"
       d="m 27.542892,19.182796 a 0.625,1.03125 0 0 1 -0.01401,0.217164 l -0.610985,-0.217164 z" />
    <path
       style="opacity:1;fill:#f58230;fill-opacity:1"
       id="path9146"
       sodipodi:type="arc"
       sodipodi:cx="20.730392"
       sodipodi:cy="20.557796"
       sodipodi:rx="0.90624994"
       sodipodi:ry="0.37500012"
       sodipodi:start="0"
       sodipodi:end="0.21217095"
       d="m 21.636642,20.557796 a 0.90624994,0.37500012 0 0 1 -0.02032,0.07897 l -0.885929,-0.07897 z" />
    <path
       style="opacity:1;fill:#f58230;fill-opacity:1"
       id="path9148"
       sodipodi:type="arc"
       sodipodi:cx="19.949142"
       sodipodi:cy="20.995296"
       sodipodi:rx="1.1562501"
       sodipodi:ry="0.46874988"
       sodipodi:start="0"
       sodipodi:end="0.21217095"
       d="m 21.105393,20.995296 a 1.1562501,0.46874988 0 0 1 -0.02593,0.09871 l -1.130323,-0.09871 z" />
    <ellipse
       style="opacity:1;fill:#f58230;fill-opacity:1"
       id="path9150"
       cx="20.183517"
       cy="20.854671"
       rx="0.609375"
       ry="0.953125" />
    <ellipse
       style="opacity:1;fill:#f58230;fill-opacity:1"
       id="path9152"
       cx="26.871017"
       cy="19.073421"
       rx="0.796875"
       ry="0.765625" />
    <path
       style="opacity:1;fill:#f58230;fill-opacity:1"
       id="path9154"
       sodipodi:type="arc"
       sodipodi:cx="29.027267"
       sodipodi:cy="20.151546"
       sodipodi:rx="1.203125"
       sodipodi:ry="0.5"
       sodipodi:start="0"
       sodipodi:end="1.1252633"
       d="m 30.230392,20.151546 a 1.203125,0.5 0 0 1 -0.684651,0.451191 l -0.518474,-0.451191 z" />
    <path
       style="opacity:1;fill:#f58230;fill-opacity:1"
       id="path9156"
       sodipodi:type="arc"
       sodipodi:cx="29.496017"
       sodipodi:cy="20.729671"
       sodipodi:rx="1.640625"
       sodipodi:ry="1.140625"
       sodipodi:start="0"
       sodipodi:end="1.1252626"
       d="M 31.136642,20.729671 A 1.640625,1.140625 0 0 1 30.203028,21.75895 L 29.496017,20.729671 Z" />
    <path
       style="opacity:1;fill:#f58230;fill-opacity:1"
       id="path9158"
       sodipodi:type="arc"
       sodipodi:cx="29.355392"
       sodipodi:cy="20.354671"
       sodipodi:rx="1.53125"
       sodipodi:ry="1.265625"
       sodipodi:start="0"
       sodipodi:end="1.1252626"
       d="m 30.886642,20.354671 a 1.53125,1.265625 0 0 1 -0.871373,1.142076 l -0.659877,-1.142076 z" />
    <path
       style="opacity:1;fill:#f58230;fill-opacity:1"
       id="path9160"
       sodipodi:type="arc"
       sodipodi:cx="28.292892"
       sodipodi:cy="19.698421"
       sodipodi:rx="2.25"
       sodipodi:ry="1.734375"
       sodipodi:start="0"
       sodipodi:end="1.1252626"
       d="m 30.542892,19.698421 a 2.25,1.734375 0 0 1 -1.280386,1.565067 l -0.969614,-1.565067 z" />
    <path
       style="opacity:1;fill:#f58230;fill-opacity:1"
       id="path9162"
       sodipodi:type="arc"
       sodipodi:cx="10.579421"
       sodipodi:cy="23.376511"
       sodipodi:rx="1.1762294"
       sodipodi:ry="0.91830391"
       sodipodi:start="0"
       sodipodi:end="1.1252626"
       d="M 11.75565,23.376511 A 1.1762294,0.91830391 0 0 1 11.086305,24.20517 L 10.579421,23.376511 Z" />
    <path
       style="opacity:1;fill:#f58230;fill-opacity:1"
       id="path9164"
       sodipodi:type="arc"
       sodipodi:cx="7.7560778"
       sodipodi:cy="23.571135"
       sodipodi:rx="0.86178619"
       sodipodi:ry="0.16020417"
       sodipodi:start="0"
       sodipodi:end="1.1252626"
       d="M 8.617864,23.571135 A 0.86178619,0.16020417 0 0 1 8.1274555,23.7157 L 7.7560778,23.571135 Z" />
    <path
       style="opacity:1;fill:#f58230;fill-opacity:1"
       id="path9166"
       sodipodi:type="arc"
       sodipodi:cx="14.782951"
       sodipodi:cy="23.676096"
       sodipodi:rx="0.99436891"
       sodipodi:ry="0.9722718"
       sodipodi:start="0"
       sodipodi:end="1.1252626"
       d="m 15.77732,23.676096 a 0.99436891,0.9722718 0 0 1 -0.565856,0.877359 l -0.428513,-0.877359 z" />
    <path
       style="opacity:1;fill:#f58230;fill-opacity:1"
       id="path9168"
       sodipodi:type="arc"
       sodipodi:cx="15.357476"
       sodipodi:cy="23.278349"
       sodipodi:rx="1.6572815"
       sodipodi:ry="0.75130093"
       sodipodi:start="0"
       sodipodi:end="1.1252626"
       d="m 17.014758,23.278349 a 1.6572815,0.75130093 0 0 1 -0.943094,0.677959 l -0.714188,-0.677959 z" />
    <ellipse
       style="opacity:1;fill:#f58230;fill-opacity:1"
       id="path9170"
       cx="13.992818"
       cy="17.691879"
       rx="1.4309499"
       ry="1.0786638" />
    <ellipse
       style="opacity:1;fill:#f58230;fill-opacity:1"
       id="path9172"
       cx="11.689359"
       cy="13.069493"
       rx="1.1269515"
       ry="0.79549509" />
    <ellipse
       style="opacity:1;fill:#f58230;fill-opacity:1"
       id="path9174"
       cx="10.192721"
       cy="23.094772"
       rx="0.78953016"
       ry="0.63656634" />
    <ellipse
       style="opacity:1;fill:#f58230;fill-opacity:1"
       id="path9176"
       cx="8.4024172"
       cy="24.604174"
       rx="1.0993301"
       ry="0.83968914" />
    <ellipse
       style="opacity:1;fill:#f58230;fill-opacity:1"
       id="path9178"
       cx="9.4796505"
       cy="25.090309"
       rx="2.6295533"
       ry="2.1986599" />
    <ellipse
       style="opacity:1;fill:#f58230;fill-opacity:1"
       id="path9180"
       cx="15.77732"
       cy="23.852873"
       rx="2.4748738"
       ry="2.1213202" />
    <g
       id="g8282"
       inkscape:label="Gear8"
       transform="matrix(0.62470174,0,0,0.58763816,25.248325,25.557676)"
       style="display:inline;fill:url(#linearGradient5001);fill-opacity:1;stroke:#8c240d;stroke-opacity:1">
      <path
         id="path8278"
         style="fill:url(#linearGradient5001);fill-opacity:1;stroke:#8c240d;stroke-width:1;stroke-opacity:1"
         d="m 18.67401,-4.00471 4.72309,-1.01288 1.57839,0.04966 6.80888,3.24589 v 3.44408 l -6.80888,3.24589 -1.57839,0.04966 -4.72309,-1.01288 -2.63774,6.36805 4.05596,2.62351 1.08097,1.15121 2.51941,7.1098 -2.43533,2.43533 -7.1098,-2.51941 -1.15121,-1.08097 -2.62351,-4.05596 -6.36805,2.63774 1.01288,4.72309 -0.04966,1.57839 -3.24589,6.80888 h -3.44408 l -3.24589,-6.80888 -0.04966,-1.57839 1.01288,-4.72309 -6.36805,-2.63774 -2.62351,4.05596 -1.15121,1.08097 -7.1098,2.51941 -2.43533,-2.43533 2.51941,-7.1098 1.08097,-1.15121 4.05596,-2.62351 -2.63774,-6.36805 -4.72309,1.01288 -1.57839,-0.04966 -6.80888,-3.24589 v -3.44408 l 6.80888,-3.24589 1.57839,-0.04966 4.72309,1.01288 2.63774,-6.36805 -4.05596,-2.62351 -1.08097,-1.15121 -2.51941,-7.1098 2.43533,-2.43533 7.1098,2.51941 1.15121,1.08097 2.62351,4.05596 6.36805,-2.63774 -1.01288,-4.72309 0.04966,-1.57839 3.24589,-6.80888 h 3.44408 l 3.24589,6.80888 0.04966,1.57839 -1.01288,4.72309 6.36805,2.63774 2.62351,-4.05596 1.15121,-1.08097 7.1098,-2.51941 2.43533,2.43533 -2.51941,7.1098 -1.08097,1.15121 -4.05596,2.62351 z"
         inkscape:connector-curvature="0" />
      <circle
         id="path8280"
         style="fill:url(#linearGradient5001);fill-opacity:1;stroke:#8c240d;stroke-width:1;stroke-opacity:1"
         cx="0"
         cy="0"
         r="10" />
    </g>
  </g>
  <g
     inkscape:groupmode="layer"
     id="layer2"
     inkscape:label="circle">
    <ellipse
       style="opacity:1;fill:#fff6f6;fill-opacity:1;stroke:none;stroke-width:0.4387387;stroke-miterlimit:4;stroke-dasharray:none;stroke-dashoffset:0;stroke-opacity:1"
       id="path4993"
       cx="31.102877"
       cy="25.543827"
       rx="5.9318423"
       ry="5.5638142" />
  </g>
  <g
     inkscape:groupmode="layer"
     id="layer13"
     inkscape:label="test"
     style="display:none"
     transform="translate(5.875,0.00378418)">
    <text
       xml:space="preserve"
       style="font-style:normal;font-weight:normal;font-size:49.83989334px;line-height:1.25;font-family:sans-serif;letter-spacing:0px;word-spacing:0px;fill:#000000;fill-opacity:1;stroke:none;stroke-width:1.24599731"
       x="10.233437"
       y="40.728508"
       id="text8247"
       transform="scale(1.0237351,0.9768152)"><tspan
         sodipodi:role="line"
         id="tspan8245"
         x="10.233437"
         y="40.728508"
         style="font-style:normal;font-variant:normal;font-weight:normal;font-stretch:normal;font-family:serif;-inkscape-font-specification:serif;stroke-width:1.24599731">T</tspan></text>
  </g>
  <g
     inkscape:groupmode="layer"
     id="layer1"
     inkscape:label="dashed box"
     style="display:none"
     transform="translate(5.8925149,0.00933003)">
    <text
       xml:space="preserve"
       style="font-style:normal;font-weight:normal;font-size:45.16387939px;line-height:1.25;font-family:sans-serif;letter-spacing:0px;word-spacing:0px;fill:#000000;fill-opacity:1;stroke:#000000;stroke-width:0.7903679;stroke-miterlimit:4;stroke-dasharray:none;stroke-opacity:1"
       x="-1.365129"
       y="4.9786506"
       id="text4574"
       transform="matrix(0.91576439,0,0,0.88564391,2.4373932,2.5736534)"
       clip-path="url(#clipPath5834)"><tspan
         sodipodi:role="line"
         id="tspan4572"
         x="-1.365129"
         y="4.9786506"
         style="font-size:6.02185106px;line-height:0;stroke:#000000;stroke-width:0.7903679;stroke-miterlimit:4;stroke-dasharray:none;stroke-opacity:1">///////////////////</tspan></text>
    <text
       id="text4588"
       y="48.858639"
       x="-1.3655707"
       style="font-style:normal;font-weight:normal;font-size:45.16387939px;line-height:1.25;font-family:sans-serif;letter-spacing:0px;word-spacing:0px;fill:#000000;fill-opacity:1;stroke:#000000;stroke-width:0.7903679;stroke-miterlimit:4;stroke-dasharray:none;stroke-opacity:1"
       xml:space="preserve"
       transform="matrix(0.91576439,0,0,0.88564391,2.4373932,2.5736534)"
       clip-path="url(#clipPath5830)"><tspan
         style="font-size:6.02185106px;line-height:0;stroke:#000000;stroke-width:0.7903679;stroke-miterlimit:4;stroke-dasharray:none;stroke-opacity:1"
         y="48.858639"
         x="-1.3655707"
         id="tspan4586"
         sodipodi:role="line">///////////////////</tspan></text>
    <text
       transform="matrix(0,-0.97905536,1.0213927,0,0,0)"
       id="text5223"
       y="6.8217669"
       x="-47.7411"
       style="font-style:normal;font-weight:normal;font-size:38.93955994px;line-height:1.25;font-family:sans-serif;letter-spacing:0px;word-spacing:0px;fill:#000000;fill-opacity:1;stroke:#000000;stroke-width:0.68144226;stroke-miterlimit:4;stroke-dasharray:none;stroke-opacity:1"
       xml:space="preserve"
       clip-path="url(#clipPath5124)"><tspan
         style="font-size:5.19194126px;line-height:0;stroke:#000000;stroke-width:0.68144226;stroke-miterlimit:4;stroke-dasharray:none;stroke-opacity:1"
         y="6.8217669"
         x="-47.7411"
         id="tspan5221"
         sodipodi:role="line">///////////////////</tspan></text>
    <text
       xml:space="preserve"
       style="font-style:normal;font-weight:normal;font-size:38.93955994px;line-height:1.25;font-family:sans-serif;letter-spacing:0px;word-spacing:0px;fill:#000000;fill-opacity:1;stroke:#000000;stroke-width:0.68144226;stroke-miterlimit:4;stroke-dasharray:none;stroke-opacity:1"
       x="-47.741096"
       y="46.262375"
       id="text5227"
       transform="matrix(0,-0.97905536,1.0213927,0,0,0)"
       clip-path="url(#clipPath5120)"><tspan
         sodipodi:role="line"
         id="tspan5225"
         x="-47.741096"
         y="46.262375"
         style="font-size:5.19194126px;line-height:0;stroke:#000000;stroke-width:0.68144226;stroke-miterlimit:4;stroke-dasharray:none;stroke-opacity:1">///////////////////</tspan></text>
  </g>
  <g
     inkscape:groupmode="layer"
     id="layer7"
     inkscape:label="arrow"
     style="display:none"
     transform="translate(5.875,0.00378418)">
    <path
       sodipodi:type="star"
       style="opacity:1;fill:#000000;fill-opacity:1"
       id="path5129"
       sodipodi:sides="3"
       sodipodi:cx="15.644738"
       sodipodi:cy="15.190814"
       sodipodi:r1="11.314054"
       sodipodi:r2="5.6570268"
       sodipodi:arg1="-0.12532399"
       sodipodi:arg2="0.92187356"
       inkscape:flatsided="false"
       inkscape:rounded="0"
       inkscape:randomized="0"
       d="M 26.870058,13.7766 19.063441,19.697967 11.256823,25.619333 10.032078,15.897921 8.8073334,6.1765086 17.838696,9.9765545 Z"
       inkscape:transform-center-x="-1.5083279"
       inkscape:transform-center-y="0.0059004203"
       transform="matrix(0.53401076,0.02516027,-0.06457882,0.20805364,36.945172,21.172503)" />
    <rect
       style="opacity:1;fill:#000000;fill-opacity:1;stroke-width:0.6333406"
       id="rect5133"
       width="17.920048"
       height="1.5250773"
       x="24.140402"
       y="23.895519" />
  </g>
</svg>
