<?xml version="1.0" encoding="UTF-8" standalone="no"?>
<!-- Created with Inkscape (http://www.inkscape.org/) -->

<svg
   xmlns:osb="http://www.openswatchbook.org/uri/2009/osb"
   xmlns:dc="http://purl.org/dc/elements/1.1/"
   xmlns:cc="http://creativecommons.org/ns#"
   xmlns:rdf="http://www.w3.org/1999/02/22-rdf-syntax-ns#"
   xmlns:svg="http://www.w3.org/2000/svg"
   xmlns="http://www.w3.org/2000/svg"
   xmlns:xlink="http://www.w3.org/1999/xlink"
   xmlns:sodipodi="http://sodipodi.sourceforge.net/DTD/sodipodi-0.dtd"
   xmlns:inkscape="http://www.inkscape.org/namespaces/inkscape"
   version="1.1"
   id="svg4535"
   width="62.75"
   height="49.625"
   viewBox="0 0 62.75 49.625"
   sodipodi:docname="controlled process.svg"
   inkscape:version="0.92.4 (5da689c313, 2019-01-14)">
  <metadata
     id="metadata4541">
    <rdf:RDF>
      <cc:Work
         rdf:about="">
        <dc:format>image/svg+xml</dc:format>
        <dc:type
           rdf:resource="http://purl.org/dc/dcmitype/StillImage" />
        <dc:title></dc:title>
      </cc:Work>
    </rdf:RDF>
  </metadata>
  <defs
     id="defs4539">
    <linearGradient
       inkscape:collect="always"
       id="linearGradient3146">
      <stop
         style="stop-color:#6b5f90;stop-opacity:1"
         offset="0"
         id="stop3142" />
      <stop
         style="stop-color:#ff6fbe;stop-opacity:0.96078432"
         offset="1"
         id="stop3144" />
    </linearGradient>
    <linearGradient
       id="linearGradient6574"
       osb:paint="solid">
      <stop
         style="stop-color:#000000;stop-opacity:1;"
         offset="0"
         id="stop6572" />
    </linearGradient>
    <inkscape:path-effect
       effect="lattice2"
       gridpoint0="1.9342484,-0.7296571"
       gridpoint1="49.128749,-0.7296571"
       gridpoint2="1.9342484,49.806908"
       gridpoint3="49.128749,49.806908"
       gridpoint4="13.732874,-0.7296571"
       gridpoint5="37.330124,-0.7296571"
       gridpoint6="13.732874,49.806908"
       gridpoint7="37.330124,49.806908"
       gridpoint8x9="25.531499,-0.7296571"
       gridpoint10x11="25.531499,49.806908"
       gridpoint12="1.9342484,11.904484"
       gridpoint13="49.128749,11.904484"
       gridpoint14="1.9342484,37.172767"
       gridpoint15="49.128749,37.172767"
       gridpoint16="13.732874,11.904484"
       gridpoint17="37.330124,11.904484"
       gridpoint18="13.732874,37.172767"
       gridpoint19="37.330124,37.172767"
       gridpoint20x21="25.531499,11.904484"
       gridpoint22x23="25.531499,37.172767"
       gridpoint24x26="1.9342484,24.538626"
       gridpoint25x27="49.128749,24.538626"
       gridpoint28x30="13.732874,24.538626"
       gridpoint29x31="37.330124,24.538626"
       gridpoint32x33x34x35="25.531499,24.538626"
       id="path-effect3755"
       is_visible="true"
       horizontal_mirror="false"
       vertical_mirror="false"
       live_update="true" />
    <inkscape:path-effect
       effect="envelope"
       id="path-effect3753"
       is_visible="true"
       yy="true"
       xx="true"
       bendpath1="M 1.9361846,1.7296784 H 49.130685"
       bendpath2="M 49.130685,1.7296784 V 47.351032"
       bendpath3="M 1.9361846,47.351032 H 49.130685"
       bendpath4="M 1.9361846,1.7296784 V 47.351032" />
    <inkscape:path-effect
       effect="fill_between_strokes"
       id="path-effect48"
       is_visible="true"
       linkedpath=""
       secondpath=""
       reversesecond="false" />
    <inkscape:path-effect
       effect="perspective-envelope"
       up_left_point="1.9361846,1.7296784"
       up_right_point="49.130685,1.7296784"
       down_left_point="1.9361846,47.351032"
       down_right_point="49.130685,47.351032"
       id="path-effect46"
       is_visible="true"
       deform_type="perspective"
       horizontal_mirror="false"
       vertical_mirror="false"
       overflow_perspective="false" />
    <clipPath
       clipPathUnits="userSpaceOnUse"
       id="clipPath5830">
      <rect
         style="opacity:0.24800002;fill:#9a1c9b;fill-opacity:1;stroke:#000000;stroke-width:0.69999999;stroke-miterlimit:4;stroke-dasharray:none;stroke-opacity:1;paint-order:markers stroke fill"
         id="rect5832"
         width="49.492653"
         height="49.713707"
         x="0.33699065"
         y="0.35264498" />
    </clipPath>
    <clipPath
       clipPathUnits="userSpaceOnUse"
       id="clipPath5834">
      <rect
         style="opacity:0.24800002;fill:#9a1c9b;fill-opacity:1;stroke:#000000;stroke-width:0.69999999;stroke-miterlimit:4;stroke-dasharray:none;stroke-opacity:1;paint-order:markers stroke fill"
         id="rect5836"
         width="49.492653"
         height="49.713707"
         x="0.33699065"
         y="0.35264498" />
    </clipPath>
    <clipPath
       clipPathUnits="userSpaceOnUse"
       id="clipPath5120">
      <rect
         style="opacity:0.17000002;fill:#374fa0;fill-opacity:1;stroke-width:2.16940022"
         id="rect5122"
         width="44.846497"
         height="45.002071"
         x="2.5154092"
         y="2.9161739"
         transform="rotate(90)" />
    </clipPath>
    <clipPath
       clipPathUnits="userSpaceOnUse"
       id="clipPath5124">
      <rect
         style="opacity:0.17000002;fill:#374fa0;fill-opacity:1;stroke-width:2.16940022"
         id="rect5126"
         width="44.846497"
         height="45.002071"
         x="2.5154092"
         y="2.9161739"
         transform="rotate(90)" />
    </clipPath>
    <linearGradient
       inkscape:collect="always"
       xlink:href="#linearGradient3146"
       id="linearGradient3148"
       x1="26.908245"
       y1="45.285263"
       x2="27.855965"
       y2="3.0352631"
       gradientUnits="userSpaceOnUse" />
  </defs>
  <sodipodi:namedview
     pagecolor="#ffffff"
     bordercolor="#666666"
     borderopacity="1"
     objecttolerance="10"
     gridtolerance="10"
     guidetolerance="10"
     inkscape:pageopacity="0"
     inkscape:pageshadow="2"
     inkscape:window-width="1366"
     inkscape:window-height="715"
     id="namedview4537"
     showgrid="false"
     inkscape:zoom="4"
     inkscape:cx="27.656939"
     inkscape:cy="6.4134174"
     inkscape:window-x="-8"
     inkscape:window-y="-8"
     inkscape:window-maximized="1"
     inkscape:current-layer="layer2"
     inkscape:snap-grids="false"
     inkscape:snap-to-guides="false"
     inkscape:lockguides="true"
     showguides="true"
     inkscape:guide-bbox="true">
    <sodipodi:guide
       position="31.375,23.25"
       orientation="1,0"
       id="guide935"
       inkscape:locked="true" />
  </sodipodi:namedview>
  <path
     style="opacity:0;fill:#9a1c9b;fill-opacity:1;stroke:#000000;stroke-width:0.68945795;stroke-miterlimit:4;stroke-dasharray:none;stroke-opacity:1;paint-order:markers stroke fill"
     d="m 7.9570312,0.51159662 c -0.0082,0.0123395 -0.016539,0.0245035 -0.025391,0.0371094 -0.00871,0.0124003 -0.016163,0.0261659 -0.027344,0.0371094 -0.010681,0.010453 -0.023708,0.0177379 -0.035156,0.0273437 -0.029132,0.0133159 -0.051289,0.0241791 -0.082031,0.0253906 -0.012811,5.0489e-4 -0.026218,-0.001499 -0.039062,-0.001953 -0.00394,-2.921e-5 -0.0077,-0.002019 -0.011719,-0.001953 C 7.7128981,0.7048391 7.6595601,0.81022331 7.625,0.87097162 7.576836,0.95563442 7.5595891,0.98279033 7.4902344,1.0506591 c -0.014622,0.014309 -0.032661,0.024573 -0.048828,0.037109 -0.1006001,0.00367 -0.1159949,0.0083 -0.1230468,-0.00391 -0.021031,0.010467 -0.049598,0.011511 -0.074219,0.017578 -0.040686,0.010026 -0.080364,0.019447 -0.1210937,0.029297 -0.030463,0.00688 -0.061192,0.015268 -0.091797,0.021484 -0.00152,3.087e-4 -0.0024,-2.981e-4 -0.00391,0 -0.00228,0.00369 -0.00464,0.00719 -0.00781,0.00977 -0.014689,0.01192 -0.031777,0.023759 -0.046875,0.035156 L 6.9082031,1.1795653 C 6.8762981,1.2030343 6.844517,1.2266908 6.8125,1.2498779 6.6761064,1.3486481 6.5375537,1.4456268 6.4042969,1.548706 6.3215699,1.612699 6.2449142,1.6775536 6.1640625,1.7440185 c -0.091619,0.068237 -0.1788298,0.1426649 -0.265625,0.2167968 -0.00442,0.00378 -0.018699,0.014416 -0.029297,0.023438 -0.013084,0.01799 -0.029327,0.033684 -0.041016,0.052734 h -0.00195 c -0.00182,1.306e-4 -0.00174,0.0068 -0.00391,0.00586 -0.00506,-0.00218 -0.00698,-0.00906 -0.011719,-0.011719 -0.00797,0.00506 -0.015284,0.00889 -0.023437,0.013672 -0.027991,0.00605 0.00265,-5.503e-4 -0.00977,0.00195 -0.00518,0.00456 -0.010441,0.00912 -0.015625,0.013672 -0.049205,0.043243 -0.060503,0.02113 -0.0625,-0.015625 -0.066625,0.060969 -0.1408807,0.1340741 -0.1953125,0.1835938 -0.067128,0.06107 -0.1356556,0.1209474 -0.203125,0.1816406 0.0075,0.00624 0.020311,0.00659 0.025391,0.015625 0.020464,0.03638 -0.011134,0.059894 -0.044922,0.074219 -0.016687,0.013561 -0.03395,0.025681 -0.050781,0.039062 -0.013341,0.010606 -0.020497,0.016768 -0.03125,0.025391 0.064575,0.1970319 0.080394,0.1674776 0.00391,0.2050781 -0.00862,0.00243 -2.61e-5,7.279e-4 -0.017578,0.013672 -4.73e-5,1.234e-4 -0.00273,7.062e-4 -0.00391,0.00195 -0.00355,0.00377 -0.01422,0.014903 -0.00977,0.00781 9.203e-4,-0.00278 0.00348,-0.010311 0.00195,-0.00781 -0.033245,0.054464 0.012332,-0.00928 -0.025391,0.046875 l -0.00195,0.00195 c 0.00134,0.00566 -0.00236,-0.012466 0.00195,0.00391 0.00346,0.063125 -0.00738,0.1276507 -0.019531,0.1894531 -7.673e-4,0.0075 2.911e-4,0.014286 -0.00195,0.021484 -0.013552,0.043458 -0.023802,0.080879 -0.0625,0.1074219 -0.00402,0.00276 -0.00939,0.00335 -0.013672,0.00586 V 46.917846 c 0.0012,0.0011 -0.00133,-0.0082 0.029297,0.04102 -0.00194,-0.0023 0.00391,0.0074 0.00391,0.0078 0.0083,0.0065 0.022691,0.01449 0.017578,0.02148 -0.00163,0.0022 -0.00415,0.0037 -0.00586,0.0059 0.014108,0.02365 0.028286,0.0454 0.015625,0.03906 -0.012043,-0.0061 -0.017511,-0.01896 -0.023437,-0.03125 0.023646,0.01587 0.042427,0.05689 0.044922,0.07422 0.00161,0.01122 -4.84e-5,0.02382 0,0.03516 -0.00398,0.04479 -0.00571,0.08792 -0.00391,0.132812 l -0.00195,0.002 c 0.00334,0.0031 0.00644,0.0022 0.00977,0.0059 0.028489,0.03104 0.057862,0.06233 0.085937,0.09375 0.1313949,0.147041 0.088026,0.104898 0.2304688,0.255859 0.083452,0.08844 0.1682369,0.17548 0.2519531,0.263672 0.00196,0.0017 0.0039,0.0042 0.00586,0.0059 0.4471053,0.383842 0.9173011,0.797527 1.4179687,1.238281 H 52.916016 c 0.0096,-0.0084 0.01955,-0.02009 0.02734,-0.02539 9.56e-4,10e-4 9.43e-4,0.0029 0.002,0.0039 0.0093,-0.0054 0.01814,-0.01205 0.02734,-0.01758 -0.04303,-0.0095 0.0091,-0.0012 0.04492,0 -0.0026,-0.0012 -0.0053,-0.0025 -0.0078,-0.0039 -0.01479,-0.0085 0.03187,0.0025 0.05273,0.002 0.0019,-0.0014 0.004,-0.0024 0.0059,-0.0039 0.0761,-0.06097 0.121902,-0.104145 0.197266,-0.169922 0.125324,-0.104782 0.256552,-0.205816 0.408203,-0.269531 0.04507,-0.01866 0.08978,-0.03581 0.134766,-0.05469 0.01181,-0.0049 0.02347,-0.01033 0.03516,-0.01563 0.365584,-0.319881 0.545989,-0.454349 0.779297,-0.591797 -0.04027,-0.08302 -0.06206,-0.137581 -0.04688,-0.164062 -0.0037,-0.0076 -0.002,-0.0057 -0.0059,-0.01367 -0.0028,-0.0057 0.01154,-0.0037 0.01758,-0.0059 0.02074,-0.01626 0.0524,-0.03305 0.103515,-0.05859 0.02134,-0.01066 0.0349,-0.0033 0.05469,-0.0098 0.0099,-0.0043 0.01943,-0.0093 0.0293,-0.01367 0.0084,-0.01375 0.01654,-0.02757 0.02539,-0.04102 0.02623,-0.03982 0.05294,-0.07798 0.08008,-0.117188 0.02902,-0.03703 0.05617,-0.07658 0.08789,-0.111328 0.176372,-0.193195 0.414102,-0.329035 0.65625,-0.429687 -0.0023,-0.03523 0.0043,-0.07054 -0.002,-0.105469 -0.003,-0.01197 -0.0068,-0.02515 -0.0098,-0.03711 -8.9e-4,-0.0035 -0.0035,-0.0062 -0.0039,-0.0098 -3.72e-4,-0.0032 3.42e-4,-0.0065 0,-0.0098 -0.0078,-0.004 -0.0067,-0.0033 -0.01563,-0.0078 -0.01943,-0.0098 -0.0245,-0.0367 -0.0332,-0.05664 -0.0058,-0.01327 -0.01455,-0.02931 -0.0098,-0.04297 0.0537,-0.152231 0.07648,-0.177558 0.128907,-0.189453 V 2.7108153 c -0.04244,-0.033232 -0.08474,-0.066621 -0.128907,-0.097656 -0.0078,-0.0056 -0.01868,-0.00926 -0.02344,-0.017578 -0.002,-0.00345 0.01358,-0.0049 0.0098,-0.00586 -0.021,-0.00522 -0.04441,3.252e-4 -0.06445,-0.00781 -0.02927,-0.011893 -0.05719,-0.029 -0.08008,-0.050781 -0.04572,-0.043504 -0.06642,-0.1217625 -0.08789,-0.1757813 -0.01063,-0.045279 -0.02555,-0.088889 -0.0332,-0.1347656 -0.01494,-0.089595 -0.01797,-0.1351641 -0.0098,-0.2167969 0.0017,-0.016612 0.0091,-0.036373 0.01367,-0.056641 -0.02271,-0.00214 -0.04547,-0.00335 -0.06836,-0.00586 h -0.002 c -0.03222,-0.00206 -0.07538,-0.00315 -0.08789,-0.00391 -0.08997,-0.00822 -0.202312,-0.013835 -0.294922,-0.035156 -0.06997,-0.016108 -0.09945,-0.03086 -0.164063,-0.058594 -0.104061,-0.044669 -0.07794,-0.032002 -0.179687,-0.080078 -0.006,-0.00314 -0.01158,-0.00667 -0.01758,-0.00977 -0.05269,0.00178 -0.09048,-0.00277 -0.205079,-0.025391 0.0014,-0.030408 0.0051,-0.060893 0.0039,-0.091797 -0.02675,-0.028874 -0.04068,-0.070025 -0.05273,-0.1132813 -0.05841,-0.021777 -0.120687,-0.037003 -0.18164,-0.072266 -0.0357,-0.020652 -0.06936,-0.047198 -0.103516,-0.070313 -0.02488,-0.020988 -0.0504,-0.040321 -0.07422,-0.0625 -0.05257,-0.048947 -0.06507,-0.063958 -0.103515,-0.1171875 -0.0082,-0.011403 -0.03616,-0.029141 -0.02344,-0.035156 0.01679,-0.00794 0.03078,0.024179 0.04883,0.027344 -0.01278,-0.015893 -0.02565,-0.031427 -0.03906,-0.046875 -0.02116,-0.00871 -0.04102,-0.012641 -0.06445,-0.023437 -0.03155,-0.014537 -0.0621,-0.032757 -0.0918,-0.050781 -0.04602,-0.027932 -0.08305,-0.053706 -0.117188,-0.0957032 -0.0165,-0.0202979 -0.02855,-0.0445817 -0.04297,-0.0664063 -0.0097,-0.0245155 -0.02202,-0.0488814 -0.0293,-0.0742188 -0.01667,-0.0580299 -0.01279,-0.0620992 -0.01367,-0.109375 -1.71e-4,-0.009194 4.75e-4,-0.0181644 0,-0.0273437 -0.04818,-0.007009 -0.09877,-0.00874 -0.138672,-0.0175781 -0.05245,-0.0116143 -0.102736,-0.0298603 -0.154297,-0.0449219 -0.08951,-0.0383297 -0.104906,-0.038955 -0.179687,-0.0878906 -0.01228,-0.008035 -0.02509,-0.0166652 -0.03516,-0.0273438 -0.0028,-0.002999 -0.0049,-0.00674 -0.0078,-0.009766 z M 53.0625,49.068237 c 0.0054,-0.0026 -0.009,0.0032 -0.04492,0.002 0.0094,0.0042 0.01869,0.0078 0.0293,0.0098 0.0052,-0.0039 0.01049,-0.0077 0.01563,-0.01172 z M 7.2695312,0.99987787 l -0.00195,0.001953 c 4.36e-4,0.00897 5.676e-4,0.022998 0.00781,0.03125 0.00583,0.00663 0.010539,0.011697 0.021484,0.015625 -0.00541,-0.013439 -0.0063,-0.019988 -0.027344,-0.048828 z M 7.0585938,1.0858153 c -0.00283,0.00851 -0.00676,0.016945 -0.00977,0.025391 0.00617,-0.00619 0.00924,-0.011322 0.013672,-0.017578 v -0.00195 c -0.00162,-0.00164 -0.00238,-0.00415 -0.00391,-0.00586 z M 34.912109,23.730346 c 0.153892,0.009 0.275719,0.11758 0.376953,0.384766 0.04021,0.106143 -0.116913,0.193969 -0.175781,0.291016 -0.07211,0.03858 -0.141249,0.08391 -0.216797,0.115234 -0.286029,0.118585 -0.486313,0.157676 -0.785156,0.240234 -0.06515,0.018 -0.130311,0.03607 -0.195312,0.05469 -0.0085,0.08525 -0.05999,0.243984 0.002,0.06641 -0.02406,0.114363 -0.07344,0.216397 -0.15625,0.300782 -0.06972,0.07105 -0.112081,0.08796 -0.181641,0.146484 -0.02682,0.02256 -0.05231,0.04662 -0.07813,0.07031 -0.04148,0.03273 -0.08304,0.06555 -0.125,0.09766 -0.03931,0.03008 -0.07991,0.05965 -0.119141,0.08984 -0.155833,0.119935 -0.303832,0.248332 -0.458984,0.369141 -0.05781,0.04502 -0.118989,0.08706 -0.177734,0.130859 -0.167347,0.107068 -0.347764,0.190557 -0.53125,0.265625 -0.0399,0.01632 -0.07971,0.0348 -0.121094,0.04688 -0.109925,0.03206 -0.129693,0.02846 -0.230469,0.03516 0.005,3.97e-4 0.01842,4.88e-4 0.01367,0.002 -0.171215,0.05251 -0.368147,0.04253 -0.544922,0.03516 -0.132749,-0.0068 -0.265589,-0.0035 -0.398437,-0.002 -0.02583,2.8e-4 -0.05235,0.0017 -0.07813,0 -0.04218,-0.0028 -0.083,-0.0088 -0.125,-0.01367 -0.04027,-0.01066 -0.08116,-0.01938 -0.121094,-0.03125 -0.04363,-0.01297 -0.08734,-0.0296 -0.130859,-0.04297 -0.08563,-0.02629 -0.145811,-0.04198 -0.222657,-0.07031 0,0 -0.002,0 -0.002,0 -0.0077,-0.0021 -0.01579,-0.0056 -0.02344,-0.0078 -0.0043,-0.0017 -0.0072,-0.0021 -0.01172,-0.0039 0,0 -0.002,0 -0.002,0 -0.09587,-0.02918 -0.190713,-0.06619 -0.292969,-0.101563 -0.220524,-0.09841 -0.40278,-0.177406 -0.61914,-0.285156 -0.188619,-0.09393 -0.345846,-0.240347 -0.511719,-0.367187 -0.01331,-0.01162 -0.03273,-0.02894 -0.04883,-0.04297 -0.0084,-0.007 -4.18e-4,5.9e-5 -0.01758,-0.01367 -0.0038,-0.0031 0.01594,0.01427 0.01172,0.01172 -0.01181,-0.0072 -0.0237,-0.01537 -0.0332,-0.02539 -0.0098,-0.01033 -0.01814,-0.02233 -0.02734,-0.0332 -0.05933,-0.05204 -0.121179,-0.10362 -0.162109,-0.142578 -0.01313,-0.01249 -0.02213,-0.02843 -0.03516,-0.04102 -0.06153,-0.05948 -0.135767,-0.109672 -0.179688,-0.185547 -0.05997,-0.08769 -0.0492,-0.0615 -0.08984,-0.230468 -0.0048,-0.0198 -0.0192,-0.05574 0,-0.0625 0.121002,-0.04259 0.248881,-0.06577 0.375,-0.0918 -0.0145,-0.01601 -0.02862,-0.03302 -0.04297,-0.04883 -0.01642,-0.01884 -0.02166,-0.03971 -0.03711,-0.05859 -0.366177,-0.244542 -0.269108,-0.584914 0.04297,-0.621094 h 0.002 c 0.07685,-0.02011 0.170012,-0.01408 0.25,-0.0293 0.0077,0.0013 0.01567,0.0031 0.02344,0.0039 0.04365,0.0044 -3.46e-4,-0.0046 0.05859,0 0.03677,0.0029 0.07295,0.0059 0.109376,0.01172 0.06193,0.0099 0.179267,0.03868 0.240234,0.05273 0.09248,0.03776 0.193696,0.02586 0.289062,0.04688 0.04902,0.0108 0.0968,0.02354 0.144532,0.03906 0.14012,0.04556 0.05724,0.03692 0.132812,0.04297 0.06552,0.0069 0.1792,0.01837 0.232422,0.02148 0.475408,0.02775 0.951674,0.03695 1.427734,0.0293 0.26178,-0.0098 0.523283,-0.0097 0.785157,-0.0059 0.03653,0.0034 0.0747,-0.0018 0.111328,0 0.235494,-0.01814 0.46902,-0.05326 0.703125,-0.08203 0.365906,-0.0455 -0.0094,-0.01848 0.417968,0.07617 0.0039,-8.73e-4 0.0072,-7.33e-4 0.01172,-0.002 -0.0037,-0.01 -0.108924,-0.05501 -0.166015,-0.07617 0.10826,-0.01102 0.152262,-0.0238 0.296875,-0.05469 0.08912,-0.02078 0.178088,-0.04339 0.267578,-0.0625 0.222987,-0.04763 0.453101,-0.06613 0.658203,-0.173828 0.115044,-0.02978 0.196414,-0.04911 0.316406,-0.04688 0.0039,7.2e-5 0.0076,4.44e-4 0.01172,0 0.05899,-0.01662 0.112765,-0.0245 0.164062,-0.02148 z m -1.330078,0.421876 c -0.0031,7.7e-5 -0.0028,0.0019 -0.0059,0.002 0.005,6.99e-4 0.0099,-8.28e-4 0.01563,0 -0.01341,-0.0028 0.02047,-0.0028 -0.0098,-0.002 z m 1.515625,0.01758 c -0.03909,0.04827 -0.10332,0.118091 -0.203125,0.224609 0.005,0.0064 0.01292,0.01099 0.01758,0.01758 0.09506,-0.02598 0.245525,-0.0806 0.208985,-0.207031 -0.004,-0.01377 -0.01802,-0.02214 -0.02344,-0.03516 z m -6.652344,0.458982 c 0.0037,0.0097 0.0077,0.01972 0.01172,0.0293 -0.0021,-0.0082 -0.0047,-0.01628 -0.0078,-0.02734 -0.0013,-7.06e-4 -0.0026,-0.0012 -0.0039,-0.002 z m 5.408204,0.373047 c -0.04729,0.04213 -0.02932,0.02382 -0.04102,0.03711 0.0026,6.3e-4 0.0052,0.0013 0.0078,0.002 0.0165,0.0041 0.04589,-0.05037 0.0332,-0.03906 z m -5.371094,0.361328 c -0.01256,-0.01329 0.02233,0.03021 0.0332,0.04492 -0.02082,-0.02881 0.0012,-9.4e-4 -0.01172,-0.01953 -0.0072,-0.0084 -0.01392,-0.01738 -0.02148,-0.02539 z m 24.474609,23.724609 c -0.0022,-0.0011 -0.0038,0.0038 -0.0059,0.0039 0.0055,0.0056 0.01037,0.01178 0.01563,0.01758 h 0.01758 c -0.0091,-0.0074 -0.01688,-0.01637 -0.02734,-0.02148 z"
     id="rect5237"
     inkscape:connector-curvature="0" />
  <g
     inkscape:groupmode="layer"
     id="layer4"
     inkscape:label="background box 1"
     transform="translate(4.875,0.06628412)">
    <rect
       style="opacity:1;fill:#4f00a2;fill-opacity:1;stroke:none;stroke-width:1.10517478;stroke-opacity:1"
       id="rect933"
       width="62.75"
       height="49.625"
       x="-4.875"
       y="-0.06628412"
       rx="3.9085157" />
  </g>
  <g
     inkscape:groupmode="layer"
     id="layer8"
     inkscape:label="box"
     style="display:inline"
     transform="translate(4.875,0.06628412)">
    <rect
       style="opacity:1;fill:url(#linearGradient3148);fill-opacity:1;stroke:#002a38;stroke-width:1.19400001;stroke-miterlimit:4;stroke-dasharray:none;stroke-dashoffset:0;stroke-opacity:1"
       id="rect5136"
       width="43.503719"
       height="43.009735"
       x="4.7552457"
       y="3.2803957" />
  </g>
  <g
     inkscape:groupmode="layer"
     id="layer2"
     inkscape:label="box 1"
     style="display:inline"
     transform="translate(4.875,0.06628412)">
    <path
       style="opacity:1;fill:#ffffff;fill-opacity:1;stroke:#ffffff;stroke-width:1.29576302;stroke-opacity:1"
       d="M 28.550393,6.5813893 23.900741,6.1961368 C 36.892828,11.461738 49.226327,23.463279 34.742474,36.139599 l 1.653163,0.194613 C 55.310855,17.873415 31.882073,9.4735638 28.550393,6.5813893 Z"
       id="rect922"
       inkscape:connector-curvature="0"
       sodipodi:nodetypes="ccccc" />
    <path
       sodipodi:type="star"
       style="opacity:1;fill:#ffffff;fill-opacity:1;stroke:#ffffff;stroke-opacity:1"
       id="path925"
       sodipodi:sides="3"
       sodipodi:cx="38.006989"
       sodipodi:cy="35.785297"
       sodipodi:r1="4.0745015"
       sodipodi:r2="2.0372508"
       sodipodi:arg1="1.9956285"
       sodipodi:arg2="3.042826"
       inkscape:flatsided="true"
       inkscape:rounded="-9.19403e-16"
       inkscape:randomized="0"
       d="m 36.32761,39.497608 -0.695887,-7.02285 6.42991,2.908769 z"
       inkscape:transform-center-x="-0.94037172"
       inkscape:transform-center-y="-0.63654523"
       transform="matrix(1.1981491,0.39258894,-0.29154667,0.79328439,-0.69644605,-6.3687321)" />
    <path
       sodipodi:nodetypes="ccccc"
       inkscape:connector-curvature="0"
       id="path927"
       d="m 23.742073,42.514718 5.399651,0.260253 C 16.149636,37.509369 3.4411373,25.382828 17.924991,12.706508 l -1.653164,-0.194613 c -18.915218,18.460797 4.138565,27.110648 7.470246,30.002823 z"
       style="opacity:1;fill:#ffffff;fill-opacity:1;stroke:#ffffff;stroke-width:1.29576302;stroke-opacity:1" />
    <path
       transform="matrix(-1.1981491,-0.39258894,0.29154667,-0.79328439,53.309898,55.527326)"
       inkscape:transform-center-y="0.63654569"
       inkscape:transform-center-x="0.94037166"
       d="m 36.32761,39.497608 -0.695887,-7.02285 6.42991,2.908769 z"
       inkscape:randomized="0"
       inkscape:rounded="-9.19403e-16"
       inkscape:flatsided="true"
       sodipodi:arg2="3.042826"
       sodipodi:arg1="1.9956285"
       sodipodi:r2="2.0372508"
       sodipodi:r1="4.0745015"
       sodipodi:cy="35.785297"
       sodipodi:cx="38.006989"
       sodipodi:sides="3"
       id="path929"
       style="opacity:1;fill:#ffffff;fill-opacity:1;stroke:#ffffff;stroke-opacity:1"
       sodipodi:type="star" />
  </g>
  <g
     inkscape:groupmode="layer"
     id="layer1"
     inkscape:label="dashed box"
     style="display:none"
     transform="translate(4.8925149,0.07182997)">
    <text
       xml:space="preserve"
       style="font-style:normal;font-weight:normal;font-size:45.16387939px;line-height:1.25;font-family:sans-serif;letter-spacing:0px;word-spacing:0px;fill:#000000;fill-opacity:1;stroke:#000000;stroke-width:0.7903679;stroke-miterlimit:4;stroke-dasharray:none;stroke-opacity:1"
       x="-1.365129"
       y="4.9786506"
       id="text4574"
       transform="matrix(0.91576439,0,0,0.88564391,2.4373932,2.5736534)"
       clip-path="url(#clipPath5834)"><tspan
         sodipodi:role="line"
         id="tspan4572"
         x="-1.365129"
         y="4.9786506"
         style="font-size:6.02185106px;line-height:0;stroke:#000000;stroke-width:0.7903679;stroke-miterlimit:4;stroke-dasharray:none;stroke-opacity:1">///////////////////</tspan></text>
    <text
       id="text4588"
       y="48.858639"
       x="-1.3655707"
       style="font-style:normal;font-weight:normal;font-size:45.16387939px;line-height:1.25;font-family:sans-serif;letter-spacing:0px;word-spacing:0px;fill:#000000;fill-opacity:1;stroke:#000000;stroke-width:0.7903679;stroke-miterlimit:4;stroke-dasharray:none;stroke-opacity:1"
       xml:space="preserve"
       transform="matrix(0.91576439,0,0,0.88564391,2.4373932,2.5736534)"
       clip-path="url(#clipPath5830)"><tspan
         style="font-size:6.02185106px;line-height:0;stroke:#000000;stroke-width:0.7903679;stroke-miterlimit:4;stroke-dasharray:none;stroke-opacity:1"
         y="48.858639"
         x="-1.3655707"
         id="tspan4586"
         sodipodi:role="line">///////////////////</tspan></text>
    <text
       transform="matrix(0,-0.97905536,1.0213927,0,0,0)"
       id="text5223"
       y="6.8217669"
       x="-47.7411"
       style="font-style:normal;font-weight:normal;font-size:38.93955994px;line-height:1.25;font-family:sans-serif;letter-spacing:0px;word-spacing:0px;fill:#000000;fill-opacity:1;stroke:#000000;stroke-width:0.68144226;stroke-miterlimit:4;stroke-dasharray:none;stroke-opacity:1"
       xml:space="preserve"
       clip-path="url(#clipPath5124)"><tspan
         style="font-size:5.19194126px;line-height:0;stroke:#000000;stroke-width:0.68144226;stroke-miterlimit:4;stroke-dasharray:none;stroke-opacity:1"
         y="6.8217669"
         x="-47.7411"
         id="tspan5221"
         sodipodi:role="line">///////////////////</tspan></text>
    <text
       xml:space="preserve"
       style="font-style:normal;font-weight:normal;font-size:38.93955994px;line-height:1.25;font-family:sans-serif;letter-spacing:0px;word-spacing:0px;fill:#000000;fill-opacity:1;stroke:#000000;stroke-width:0.68144226;stroke-miterlimit:4;stroke-dasharray:none;stroke-opacity:1"
       x="-47.741096"
       y="46.262375"
       id="text5227"
       transform="matrix(0,-0.97905536,1.0213927,0,0,0)"
       clip-path="url(#clipPath5120)"><tspan
         sodipodi:role="line"
         id="tspan5225"
         x="-47.741096"
         y="46.262375"
         style="font-size:5.19194126px;line-height:0;stroke:#000000;stroke-width:0.68144226;stroke-miterlimit:4;stroke-dasharray:none;stroke-opacity:1">///////////////////</tspan></text>
  </g>
  <g
     inkscape:groupmode="layer"
     id="layer7"
     inkscape:label="arrow"
     style="display:none"
     transform="translate(4.875,0.06628412)">
    <path
       sodipodi:type="star"
       style="opacity:1;fill:#000000;fill-opacity:1"
       id="path5129"
       sodipodi:sides="3"
       sodipodi:cx="15.644738"
       sodipodi:cy="15.190814"
       sodipodi:r1="11.314054"
       sodipodi:r2="5.6570268"
       sodipodi:arg1="-0.12532399"
       sodipodi:arg2="0.92187356"
       inkscape:flatsided="false"
       inkscape:rounded="0"
       inkscape:randomized="0"
       d="M 26.870058,13.7766 19.063441,19.697967 11.256823,25.619333 10.032078,15.897921 8.8073334,6.1765086 17.838696,9.9765545 Z"
       inkscape:transform-center-x="-1.5083279"
       inkscape:transform-center-y="0.0059004203"
       transform="matrix(0.53401076,0.02516027,-0.06457882,0.20805364,36.945172,21.172503)" />
    <rect
       style="opacity:1;fill:#000000;fill-opacity:1;stroke-width:0.6333406"
       id="rect5133"
       width="17.920048"
       height="1.5250773"
       x="24.140402"
       y="23.895519" />
  </g>
</svg>
